<svg style=" margin-bottom: -0.4rem;" id="uuid-d7942c15-8b3a-4f30-bc3a-3f960d6a5fe7" xmlns="http://www.w3.org/2000/svg" xmlns:xlink="http://www.w3.org/1999/xlink" viewBox="0 0 189.89 210"><defs><style>.uuid-e7baa795-698c-4c0a-9bd3-fc7b26b1193d{fill:none;}.uuid-3ad0a31d-d8ff-46dd-84f5-0b2f8e5be183{clip-path:url(#uuid-90dc4459-76c5-4bca-aa78-8119669bbf18);}</style><clipPath id="uuid-90dc4459-76c5-4bca-aa78-8119669bbf18"><path class="uuid-e7baa795-698c-4c0a-9bd3-fc7b26b1193d" d="M182.45,134.21c5.2-11.77,7.44-25.53,7.44-39.22,.05-24.95-9.75-48.91-27.26-66.69h0C144.86,10.17,120.52-.03,95.13,0h-.23c-22.03,.03-43.36,7.75-60.3,21.83-1.98,1.64-3.89,3.36-5.73,5.15C10.35,45-.07,69.76,0,95.6c0,.59,0,1.18,.02,1.77,.95,51.94,43.27,93.58,95.21,93.7,2.22,0,4.42-.08,6.6-.23,3.79-.26,11.43,.35,15.32,.64,1.48,.11,17.99,6.26,33.22,11.45,12.67,4.31,24.46,7.95,26.02,6.89,1.47-.99,1.96-11.16,2.06-22.99,.13-16.76-.53-36.87-.39-39.06,.39-6,2.93-10.25,4.39-13.56Zm2.22-39.22c-2.59,0-3.17,.05-5.25,.06,2.08-.01,2.66-.06,5.25-.06Zm-21.47,.04c5.22,.01,10.37,.02,15.33,.02-4.96,0-10.11-.01-15.33-.02Z"/></clipPath></defs><g class="uuid-3ad0a31d-d8ff-46dd-84f5-0b2f8e5be183"><image width="190" height="210" transform="translate(-.05)" xlink:href="included_images/hastag_bubble.jpg"/></g></svg>