<svg xmlns="http://www.w3.org/2000/svg" xmlns:xlink="http://www.w3.org/1999/xlink" viewBox="0 0 88.4 95.3"><defs><style>.cls-mark-cor-1{clip-path:url(#clippath);}.cls-mark-cor-2,.cls-mark-cor-3{fill:none;}.cls-mark-cor-3{stroke:#fff;stroke-dasharray:147;stroke-dashoffset:147px;stroke-linecap:round;stroke-miterlimit:10;stroke-width:29px;   animation: dash-correct .4s linear forwards;
  }
  @keyframes dash-correct {
  to {
    stroke-dashoffset: 0;
  }
}</style><clipPath id="clippath"><path id="Path_345" class="cls-mark-cor-2" d="M24,91.4c-1.3-2.9-2.1-4.6-2.4-5.4l-3.3-7.6c-1-2.3-1.9-4.3-2.6-5.7l-2-4.1c-3.9-7.7-8.4-13.1-13.7-16.2,6.2-5.2,11.7-7.8,16.5-7.8,3-.1,5.8,1.3,7.6,3.7,1.8,2.5,3.4,6.8,4.7,12.9,9.4-17.8,16.7-30.1,22-36.9,4.7-6.1,8.7-10.2,12.1-12.1s7.8-3,13.3-3c3.8,0,7.6,.7,11.3,2-9.4,6.2-19.7,16.3-30.9,30.5-12.2,15.7-23.1,32.4-32.5,49.8Z"/></clipPath></defs><g class="cls-mark-cor-1"><path id="correct-dash" class="cls-mark-cor-3" d="M7.1,43.5l18,39.5C38.4,52.7,64.2,25.8,83.4,5"/></g></svg>