<svg xmlns:x="http://ns.adobe.com/Extensibility/1.0/" xmlns:i="http://ns.adobe.com/AdobeIllustrator/10.0/" xmlns:graph="http://ns.adobe.com/Graphs/1.0/" xmlns="http://www.w3.org/2000/svg" xmlns:xlink="http://www.w3.org/1999/xlink" version="1.0" id="Layer_1" x="0px" y="0px" viewBox="0 0 668.3 235.8" style="enable-background:new 0 0 668.3 235.8;" xml:space="preserve">
<style type="text/css">
	.st0{fill:#5E6C85;}
	.st1{fill:#7E899D;}
	.st2{fill:#FC3B6E;}
	.st3{fill:#A5CFD4;}
	.st4{fill:#5A4986;}
</style>
<switch>
	<g i:extraneous="self">
		<g>
			<path class="st0" d="M654.4,24.4c4.7,0,8.5,3.8,8.5,8.5s-3.8,8.5-8.5,8.5c-4.7,0-8.5-3.8-8.5-8.5S649.7,24.4,654.4,24.4z      M660.8,32.8c0-3.7-2.9-6.7-6.4-6.7c-3.5,0-6.4,3-6.4,6.7s2.9,6.7,6.4,6.7C658,39.5,660.8,36.5,660.8,32.8z M653.9,33.6h-1.4v4.1     h-1.7V28h3.8c2.4,0,3.6,0.8,3.6,2.8c0,1.8-1.1,2.5-2.5,2.7l2.7,4.2h-2L653.9,33.6z M654.2,32.2c1.2,0,2.3-0.1,2.3-1.5     c0-1.1-1.2-1.3-2.1-1.3h-1.9v2.8H654.2z"/>
		</g>
		<g>
			<path class="st1" d="M121.9,135.2c0-17.1,4.7-22.8,12.3-22.8h1.5v2.3h-1.5c-5.5,0-9.3,4.7-9.3,20.5v19.9     c0,15.8,3.8,20.5,9.3,20.5h1.5v2.3h-1.5c-7.6,0-12.3-5.7-12.3-22.8V135.2z"/>
			<path class="st1" d="M141.1,160.5h-0.1v14.8h-3.3v-46.1h3l0.1,3.2h0.1c1.8-2.4,4.8-3.8,8.4-3.8c6.1,0,9.3,4.2,9.3,10.9v13.5     c0,6.8-3.3,10.9-9.4,10.9C145.7,164.1,142.8,162.8,141.1,160.5z M140.9,157.5c1.5,2.1,3.9,3.8,7.5,3.8c4.5,0,6.8-2.9,6.8-8.1     v-13.5c0-5.2-2.2-8.1-6.8-8.1c-3.5,0-6,1.7-7.6,3.8V157.5z"/>
			<path class="st1" d="M166.8,145.7v7.5c0,5.2,2.6,8.1,7.1,8.1c3.7,0,5.8-1.8,7.3-6.6l2.5,0.8c-1.5,5.9-4.8,8.6-10,8.6     c-6.8,0-10.3-4.4-10.3-10.8v-13.9c0-6.4,3.7-10.7,10.2-10.7c6.4,0,10,4.5,10,10.9v6.2H166.8z M166.8,143.3h13.8v-4     c0-5.1-2.5-7.9-6.9-7.9c-4.7,0-6.9,3-6.9,7.9V143.3z"/>
			<path class="st1" d="M194.1,150.3c-2.3,0.8-3.1,2.2-3.1,3.7c0,2.1,1.4,3.4,4.5,3.4h6.3c6.9,0,9.4,2.9,9.4,8.1     c0,6.7-4.7,10.4-12,10.4c-6.7,0-10.4-2.8-10.4-8.3c0-3.2,1.2-6,3.6-7.6c-2.7-0.7-4.2-2.6-4.2-5.4c0-2.3,1.4-4.2,4.2-5.5     c-1.9-1.7-2.7-4.7-2.7-9.1c0-8.1,3-11.2,9.6-11.2c2.6,0,4.7,0.5,6.2,1.6c2-1.1,3.7-3.2,4.3-4.7l1.9,0.7c-0.6,2.4-2.4,4.7-4.2,6.2     c1,1.8,1.5,4.2,1.5,7.5c0,8.1-3,11.2-9.6,11.2C197.1,151.1,195.5,150.8,194.1,150.3z M195.3,160.2c-2.4,1.3-3.6,3.5-3.6,7     c0,4.2,2.9,6,7.5,6c7,0,8.9-2.9,8.9-7.5c0-3.9-1.4-5.5-6.5-5.5H195.3z M199.1,148.4c4.9,0,6.4-1.8,6.4-8.5s-1.8-8.6-6.4-8.6     s-6.3,2-6.3,8.6S194.3,148.4,199.1,148.4z"/>
			<path class="st1" d="M231.7,136.8c-1.2-3.6-3.7-5.4-6.8-5.4c-4.5,0-6.9,2.8-6.9,8.1v13.7c0,5.3,2.5,8.1,6.9,8.1     c3.4,0,5.6-1.7,6.8-5.7l2.6,0.8c-1.4,4.6-4.5,7.7-9.6,7.7c-6.6,0-10.1-4.5-10.1-10.8v-13.9c0-6.3,3.5-10.7,10-10.7     c4.7,0,8,2.8,9.5,7.2L231.7,136.8z"/>
			<path class="st1" d="M240.9,145.7v7.5c0,5.2,2.6,8.1,7.1,8.1c3.7,0,5.8-1.8,7.3-6.6l2.5,0.8c-1.5,5.9-4.8,8.6-10,8.6     c-6.8,0-10.3-4.4-10.3-10.8v-13.9c0-6.4,3.7-10.7,10.2-10.7c6.4,0,10,4.5,10,10.9v6.2H240.9z M240.9,143.3h13.8v-4     c0-5.1-2.5-7.9-6.9-7.9c-4.7,0-6.9,3-6.9,7.9V143.3z"/>
			<path class="st1" d="M276.1,131.9H268v24.6c0,3.6,1.7,4.9,4.2,4.9c1.2,0,2.2-0.3,3.2-0.8l0.7,2.1c-1.3,0.9-2.7,1.4-4.8,1.4     c-4.4,0-6.7-2.7-6.7-7.7V132l-4.2-0.7v-2l4.4-0.2l0.8-9.9h2.4v10h8.1V131.9z"/>
			<path class="st1" d="M280.5,135.6c1.9-4.2,4.8-7.1,9.4-7.1c6,0,8.6,4.2,8.6,10.5v19.5c0,1.9,0.9,3,2.7,3h0.9v2.1     c-0.5,0.1-1.2,0.3-1.9,0.3c-2.4,0-4-1.4-4.5-3.3h-0.1c-1.9,2.3-4.8,3.4-7.7,3.4c-5,0-8.3-3.2-8.3-8.9c0-6.8,3.7-10.9,13.1-10.9     h2.6V139c0-5.2-1.9-7.7-5.5-7.7c-3.2,0-5.3,2.1-6.9,5.5L280.5,135.6z M295.1,157.8v-10.9h-2.6c-7.4,0-9.9,3-9.9,8.2     c0,4.5,2.2,6.4,5.5,6.4C291.3,161.4,293.3,160.2,295.1,157.8z"/>
			<path class="st1" d="M321.8,136.8c-1.2-3.6-3.7-5.4-6.8-5.4c-4.5,0-6.9,2.8-6.9,8.1v13.7c0,5.3,2.5,8.1,6.9,8.1     c3.4,0,5.6-1.7,6.8-5.7l2.6,0.8c-1.4,4.6-4.5,7.7-9.6,7.7c-6.6,0-10.1-4.5-10.1-10.8v-13.9c0-6.3,3.5-10.7,10-10.7     c4.7,0,8,2.8,9.5,7.2L321.8,136.8z"/>
			<path class="st1" d="M348.6,153.4c0,6.5-3.7,10.7-10.5,10.7s-10.4-4.1-10.4-10.7v-14c0-6.5,3.7-10.7,10.4-10.7     s10.5,4.2,10.5,10.7V153.4z M330.9,153.3c0,5,2.3,8,7.1,8c4.8,0,7.2-3,7.2-8v-13.9c0-5-2.4-8.1-7.2-8.1c-4.8,0-7.1,3.1-7.1,8.1     V153.3z"/>
			<path class="st1" d="M358.1,160.5H358v14.8h-3.3v-46.1h3l0.1,3.2h0.1c1.8-2.4,4.8-3.8,8.4-3.8c6.1,0,9.3,4.2,9.3,10.9v13.5     c0,6.8-3.3,10.9-9.4,10.9C362.7,164.1,359.9,162.8,358.1,160.5z M358,157.5c1.5,2.1,3.9,3.8,7.5,3.8c4.5,0,6.8-2.9,6.8-8.1v-13.5     c0-5.2-2.2-8.1-6.8-8.1c-3.5,0-6,1.7-7.6,3.8V157.5z"/>
			<path class="st1" d="M384.3,112.3v51.2H381v-51.2H384.3z"/>
			<path class="st1" d="M390.2,135.6c1.9-4.2,4.8-7.1,9.4-7.1c6,0,8.6,4.2,8.6,10.5v19.5c0,1.9,0.9,3,2.7,3h0.9v2.1     c-0.5,0.1-1.2,0.3-1.9,0.3c-2.4,0-4-1.4-4.5-3.3h-0.1c-1.9,2.3-4.8,3.4-7.7,3.4c-5,0-8.3-3.2-8.3-8.9c0-6.8,3.7-10.9,13.1-10.9     h2.6V139c0-5.2-1.9-7.7-5.5-7.7c-3.2,0-5.3,2.1-6.9,5.5L390.2,135.6z M404.9,157.8v-10.9h-2.6c-7.4,0-9.9,3-9.9,8.2     c0,4.5,2.2,6.4,5.5,6.4C401,161.4,403.1,160.2,404.9,157.8z"/>
			<path class="st1" d="M418.8,163.5h-3.3v-34.3h3l0.1,3.3h0.1c1.9-2.4,4.8-3.8,8.4-3.8c6,0,9.3,4,9.3,10.9v24h-3.2v-23.9     c0-5.3-2.3-8.1-6.8-8.1c-3.5,0-6,1.7-7.6,3.8V163.5z"/>
			<path class="st1" d="M447.3,155.1c0,17.1-4.7,22.8-12.3,22.8h-1.4v-2.4h1.4c5.5,0,9.3-4.7,9.3-20.5v-19.9     c0-15.8-3.8-20.5-9.3-20.5h-1.4v-2.4h1.4c7.6,0,12.3,5.7,12.3,22.8V155.1z"/>
			<path class="st1" d="M464.9,113.9v6.3h-3.4v-6.3H464.9z M464.9,129.2v34.3h-3.3v-34.3H464.9z"/>
			<path class="st1" d="M475.6,163.5h-3.3v-34.3h3l0.1,3.3h0.1c1.9-2.4,4.8-3.8,8.4-3.8c6,0,9.3,4,9.3,10.9v24H490v-23.9     c0-5.3-2.3-8.1-6.8-8.1c-3.5,0-6,1.7-7.6,3.8V163.5z"/>
			<path class="st1" d="M493.1,172.2c4.5-0.7,6.7-3.6,6.7-9.6v-33.4h3.3v33.3c0,7.9-3.5,11.8-9.6,12.4L493.1,172.2z M503.2,113.9     v6.3h-3.4v-6.3H503.2z"/>
			<path class="st1" d="M512.1,145.7v7.5c0,5.2,2.6,8.1,7.1,8.1c3.7,0,5.8-1.8,7.3-6.6l2.5,0.8c-1.5,5.9-4.8,8.6-10,8.6     c-6.8,0-10.3-4.4-10.3-10.8v-13.9c0-6.4,3.7-10.7,10.2-10.7c6.4,0,10,4.5,10,10.9v6.2H512.1z M512.1,143.3H526v-4     c0-5.1-2.5-7.9-6.9-7.9c-4.7,0-6.9,3-6.9,7.9V143.3z"/>
			<path class="st1" d="M550.6,136.8c-1.2-3.6-3.7-5.4-6.8-5.4c-4.5,0-6.9,2.8-6.9,8.1v13.7c0,5.3,2.5,8.1,6.9,8.1     c3.4,0,5.6-1.7,6.8-5.7l2.6,0.8c-1.4,4.6-4.5,7.7-9.6,7.7c-6.6,0-10.1-4.5-10.1-10.8v-13.9c0-6.3,3.5-10.7,10-10.7     c4.7,0,8,2.8,9.5,7.2L550.6,136.8z"/>
			<path class="st1" d="M570,131.9h-8.1v24.6c0,3.6,1.7,4.9,4.2,4.9c1.2,0,2.2-0.3,3.2-0.8l0.7,2.1c-1.3,0.9-2.7,1.4-4.8,1.4     c-4.4,0-6.7-2.7-6.7-7.7V132l-4.2-0.7v-2l4.4-0.2l0.8-9.9h2.4v10h8.1V131.9z"/>
			<path class="st1" d="M578.5,113.9v6.3h-3.4v-6.3H578.5z M578.5,129.2v34.3h-3.3v-34.3H578.5z"/>
			<path class="st1" d="M605.7,153.4c0,6.5-3.7,10.7-10.5,10.7c-6.8,0-10.4-4.1-10.4-10.7v-14c0-6.5,3.7-10.7,10.4-10.7     c6.8,0,10.5,4.2,10.5,10.7V153.4z M588.1,153.3c0,5,2.3,8,7.1,8c4.8,0,7.2-3,7.2-8v-13.9c0-5-2.4-8.1-7.2-8.1     c-4.8,0-7.1,3.1-7.1,8.1V153.3z"/>
			<path class="st1" d="M614.8,163.5h-3.3v-34.3h3l0.1,3.3h0.1c1.9-2.4,4.8-3.8,8.4-3.8c6,0,9.3,4,9.3,10.9v24h-3.2v-23.9     c0-5.3-2.3-8.1-6.8-8.1c-3.5,0-6,1.7-7.6,3.8V163.5z"/>
		</g>
		<g>
			<path class="st1" d="M130.5,194.3V224h-3.7v-22.2h-5.9v-2.5h2.7c3,0,3.8-0.7,4.1-5.1H130.5z"/>
			<path class="st1" d="M154.4,215.1c0,5.8-3.1,9.4-8.9,9.4s-8.9-3.6-8.9-9.4v-11.6c0-5.8,3.1-9.5,8.9-9.5s8.9,3.6,8.9,9.5V215.1z      M140.2,215.1c0,4.3,1.8,6.3,5.3,6.3c3.5,0,5.3-2,5.3-6.3v-11.6c0-4.3-1.8-6.4-5.3-6.4c-3.5,0-5.3,2.1-5.3,6.4V215.1z"/>
			<path class="st1" d="M158.5,215.5c0-3.9,1.4-6.2,4.3-7.1v-0.1c-2.4-0.9-3.7-3.1-3.7-6.5c0-4.7,2.4-7.7,8.5-7.7     c6.1,0,8.5,3,8.5,7.7c0,3.4-1.3,5.6-3.7,6.5v0.1c2.9,0.9,4.3,3.3,4.3,7.1c0,6.5-3.2,9-9.1,9C161.6,224.4,158.5,222,158.5,215.5z      M167.5,209.9c-3.3,0-5.5,1.3-5.5,5.4c0,4.7,1.8,6.2,5.5,6.2c3.7,0,5.5-1.4,5.5-6.2C173,211.1,170.9,209.9,167.5,209.9z      M162.5,202c0,3.7,1.5,5.1,5,5.1c3.5,0,5-1.4,5-5.1c0-3.8-1.5-5.1-5-5.1C164,196.9,162.5,198.2,162.5,202z"/>
			<path class="st1" d="M198.5,215.1c0,5.8-3.1,9.4-8.9,9.4s-8.9-3.6-8.9-9.4v-11.6c0-5.8,3.1-9.5,8.9-9.5s8.9,3.6,8.9,9.5V215.1z      M184.3,215.1c0,4.3,1.8,6.3,5.3,6.3c3.5,0,5.3-2,5.3-6.3v-11.6c0-4.3-1.8-6.4-5.3-6.4c-3.5,0-5.3,2.1-5.3,6.4V215.1z"/>
			<path class="st1" d="M226.6,224h-3.4v-13.7c0-3.3-1.4-4.5-3.4-4.5c-1.7,0-3.2,1.1-3.9,2.8V224h-3.4v-20.6h3.1v2.3h0.1     c1.2-1.8,3.1-2.7,5.1-2.7c2.2,0,4,1,4.9,3.1h0.1c1.1-2,3.1-3.1,5.5-3.1c3.8,0,6.1,2.3,6.1,7.3V224h-3.4v-13.7     c0-2.9-1.1-4.5-3.6-4.5c-2.2,0-3.7,1.3-3.7,4.5V224z"/>
			<path class="st1" d="M245.8,216.3c-1.1,0.5-1.6,1.1-1.6,1.9c0,1,0.7,1.7,2.6,1.7h4.5c4.9,0,6.6,1.9,6.6,5c0,4.1-3.2,6.5-8.6,6.5     c-5.1,0-7.4-1.9-7.4-5.1c0-1.6,0.6-3.1,1.9-4c-1.5-0.6-2.4-1.8-2.4-3.4c0-1.3,0.9-2.7,2.7-3.6c-1.2-1.1-1.8-2.9-1.8-5.3     c0-4.8,2.2-6.9,7.1-6.9c1.8,0,3.3,0.3,4.4,0.9c1.2-0.7,2.2-1.8,2.6-2.8l1.8,0.7c-0.3,1.6-1.3,3-2.5,4c0.6,1.1,0.9,2.4,0.9,4.1     c0,4.7-2.2,6.8-7.2,6.8C247.9,216.8,246.8,216.6,245.8,216.3z M246.4,222.7c-1.1,0.7-1.6,1.7-1.6,3.3c0,2.1,1.7,3,4.6,3     c4.4,0,5.4-1.6,5.4-3.6c0-1.9-0.8-2.6-3.7-2.6H246.4z M249.2,214.4c3,0,3.8-1,3.8-4.4c0-3.4-1-4.5-3.8-4.5s-3.7,1-3.7,4.5     C245.5,213.4,246.4,214.4,249.2,214.4z"/>
			<path class="st1" d="M270.2,193.6h2.8l-11.1,33.9h-2.8L270.2,193.6z"/>
			<path class="st1" d="M291.9,201.5c0,9.9-11.8,11.9-12.9,19.6h13.2v3h-17l0-1.8c0.2-9.5,13.1-12.9,13.1-20.6     c0-2.8-1.5-4.5-4.8-4.5c-2.8,0-4.9,1.8-5.6,5.1l-2.8-0.8c0.9-4,3.8-7.3,8.6-7.3C289.3,194,291.9,197.2,291.9,201.5z"/>
			<path class="st1" d="M314,215.1c0,5.8-3.1,9.4-8.9,9.4s-8.9-3.6-8.9-9.4v-11.6c0-5.8,3.1-9.5,8.9-9.5s8.9,3.6,8.9,9.5V215.1z      M299.9,215.1c0,4.3,1.8,6.3,5.3,6.3c3.5,0,5.3-2,5.3-6.3v-11.6c0-4.3-1.8-6.4-5.3-6.4c-3.5,0-5.3,2.1-5.3,6.4V215.1z"/>
			<path class="st1" d="M342.2,224h-3.4v-13.7c0-3.3-1.4-4.5-3.4-4.5c-1.7,0-3.2,1.1-3.9,2.8V224H328v-20.6h3.1v2.3h0.1     c1.2-1.8,3.1-2.7,5.1-2.7c2.2,0,4,1,4.9,3.1h0.1c1.1-2,3.1-3.1,5.5-3.1c3.8,0,6.1,2.3,6.1,7.3V224h-3.4v-13.7     c0-2.9-1.1-4.5-3.6-4.5c-2.2,0-3.7,1.3-3.7,4.5V224z"/>
			<path class="st1" d="M362,194.4v26.3h11.3v3.3h-15v-29.6H362z"/>
			<path class="st1" d="M396.1,208.4c-0.8-2.1-2.2-2.9-4.1-2.9c-2.4,0-3.4,1.2-3.4,2.9c0,4.5,10,3.1,10,10c0,3.5-2.7,6-6.6,6     c-3.2,0-5.7-1.4-7-4.6l2.3-1c0.9,2.3,2.8,3.1,4.6,3.1c2.3,0,3.4-1.2,3.4-3.3c0-4.7-10-3.3-10-10c0-3.1,2.3-5.6,6.6-5.6     c3.2,0,5.5,1.6,6.5,4.5L396.1,208.4z"/>
			<path class="st1" d="M417.2,217.4c0,4.1-2.7,7-7.7,7s-7.7-2.9-7.7-7v-7.2c0-4.1,2.7-7.1,7.7-7.1c5.1,0,7.7,3,7.7,7.1V217.4z      M405.2,217.3c0,2.9,1.4,4.5,4.3,4.5s4.3-1.7,4.3-4.5v-7c0-2.9-1.3-4.6-4.3-4.6c-3,0-4.3,1.8-4.3,4.6V217.3z"/>
			<path class="st1" d="M425.6,193.5V224h-3.4v-30.6H425.6z"/>
			<path class="st1" d="M442.8,203.4h3.5V224h-3.1l-0.2-2H443c-1.4,1.6-3.3,2.4-5.7,2.4c-4.1,0-6.4-2.8-6.4-7.3v-13.7h3.5v13.7     c0,2.9,1.3,4.6,4,4.6c2.1,0,3.6-1,4.5-2.2V203.4z"/>
			<path class="st1" d="M460.8,206h-5v12.8c0,2.2,1,3,2.7,3c0.7,0,1.3-0.1,1.9-0.4l0.4,2c-0.9,0.5-2.1,0.9-3.5,0.9c-3.4,0-5-2-5-5.6     v-12.5l-2.7-0.5v-2.1l2.8-0.2l0.9-5.8h2.5v5.9h5V206z"/>
			<path class="st1" d="M468.5,203.4V224h-3.4v-20.6H468.5z M468.5,194.4v4.3h-3.3v-4.3H468.5z"/>
			<path class="st1" d="M488.8,217.4c0,4.1-2.7,7-7.7,7s-7.7-2.9-7.7-7v-7.2c0-4.1,2.7-7.1,7.7-7.1c5.1,0,7.7,3,7.7,7.1V217.4z      M476.8,217.3c0,2.9,1.4,4.5,4.3,4.5s4.3-1.7,4.3-4.5v-7c0-2.9-1.3-4.6-4.3-4.6c-3,0-4.3,1.8-4.3,4.6V217.3z"/>
			<path class="st1" d="M496.7,224h-3.4v-20.6h3.1l0.1,2h0.1c1.4-1.6,3.4-2.4,5.7-2.4c4.2,0,6.5,2.8,6.5,7.3V224h-3.4v-13.6     c0-3-1.3-4.5-4-4.5c-2.1,0-3.6,1-4.5,2.2V224z"/>
		</g>
		<g>
			<path class="st2" d="M55.9,75.4c-1.9,0.8-3.9,1.3-6.3,1.5c-11.3,1-21.2-7.3-22.2-18.6c-1-11.3,7.3-21.2,18.6-22.2     c3.1-0.3,6,0.1,8.6,1.1c4.2,1.8,7.9-1.7,3.7-5.4c-4.1-3.4-9-5.8-14.5-6.8c-2.8,0.9-5.4,2.4-7.7,4.6c-1.7,1.6-3,3.3-4,5.1     c-2.9,5.1-7.4,3.6-7.3,0c0.2-2.8,0.7-5.5,1.6-8.1c-13.5,5-22.6,18.6-21.3,33.7C6.4,73.4,15,84,26.6,88.2     c4.4,1.6,9.3,2.3,14.3,1.9c0.5,0,1-0.1,1.4-0.2c8-1,14.5-4.7,19.3-10.1C63.9,77.1,61.3,73.2,55.9,75.4z"/>
			<path class="st3" d="M64.3,59.4c-2.3,2.1-4.8,3.6-7.4,4.5c-4.4,1.1-5.1,6.3,0.4,6.5c4.3,0.1,8.5-0.7,12.6-2.3     c-0.5-3.6-1.9-7.1-4.3-10.1C65.1,58.5,64.7,59,64.3,59.4z"/>
			<path class="st4" d="M83.7,57.3C82,55,79.9,52.9,77.5,51c-2.3-1.8-4.6-3.1-7-4.2c-4.9-2.2-10-2.9-15.2-2.5     c-3.6,0.5-4.4,5.1,1.1,7.2c1.9,0.7,3.8,1.7,5.6,3.2c1.3,1,2.4,2.2,3.4,3.4c2.4,2.9,3.8,6.4,4.3,10.1c0.7,5.2-0.6,10.8-4.1,15.3     C60,90.7,50.5,93.1,42.3,90c-0.5,0.1-0.9,0.1-1.4,0.2c-5,0.4-9.8-0.3-14.3-1.9c1.9,5.5,5.4,10.5,10.6,14.6     c14.3,11.1,34.9,8.6,46.1-5.7C92.5,85.2,92.3,68.9,83.7,57.3z"/>
			<path class="st3" d="M81.2,15.2C68.8,2,48,1.4,34.8,13.9c-4,3.8-6.7,8.1-8.3,12.8c-0.9,2.6-1.4,5.4-1.6,8.1     c-0.1,3.6,4.4,5.1,7.3,0c1-1.8,2.3-3.5,4-5.1c2.3-2.2,4.9-3.7,7.7-4.6c7.3-2.4,15.6-0.6,21.2,5.4c4.3,4.5,6.1,10.6,5.5,16.3     c2.4,1.1,4.7,2.4,7,4.2c2.4,1.9,4.5,4,6.2,6.3C93.1,44.8,92.4,26.9,81.2,15.2z"/>
		</g>
		<g>
			<g>
				<path class="st0" d="M168.8,91.8h-43.1c-1.6,0-3-1.4-3-3V27.7c0-1.6,1.4-3,3-3h42.6c1.5,0,2.8,1.3,2.8,2.8s-1.3,2.8-2.8,2.8      h-39.7v24.9h35.4c1.5,0,2.8,1.3,2.8,2.8s-1.3,2.8-2.8,2.8h-35.4v25.5h40.2c1.5,0,2.8,1.3,2.8,2.8S170.3,91.8,168.8,91.8z"/>
			</g>
			<g>
				<path class="st0" d="M254.3,92.2c-1.6,0-3-1.4-3-3V35.5l-23.3,34c-0.6,1-1.5,1.4-2.5,1.4c-1,0-1.8-0.5-2.5-1.4l-23.3-34v53.8      c0,1.6-1.3,2.9-2.9,2.9c-1.6,0-2.9-1.3-2.9-2.9V27.4c0-1.6,1.4-3,3-3h0.5c1.4,0,2.3,0.9,2.8,1.6l25.4,37.3l25.3-37.3      c0.7-1.1,1.7-1.6,2.9-1.6h0.5c1.6,0,3,1.4,3,3v61.8C257.2,90.8,255.9,92.2,254.3,92.2z"/>
			</g>
			<path class="st0" d="M307.5,24.7H286c-1.6,0-3,1.4-3,3v61.5c0,1.6,1.4,3,3,3s3-1.4,3-3v-22h17.3c13.1,0,26.3-6.7,26.3-21.5v-0.2     C332.5,32.9,322.7,24.7,307.5,24.7z M327.1,45.9c0,9.8-8.3,16.2-20.6,16.2h-18.1V29.8h18.7c11.9,0,20,5.5,20,15.9V45.9z"/>
			<path class="st0" d="M405.5,87.7l-28.1-60.9c-0.5-1.1-1.5-2.6-3.8-2.6h-0.2c-2.3,0-3.2,1.5-3.8,2.6l-28.2,61.1     c-0.4,0.8-0.4,1.5-0.4,1.7c0,1.4,1.3,2.6,2.8,2.6c0.9,0,2.1-0.4,2.8-2.1l7.6-16.8h38.3l7.6,16.7c0.6,1.4,1.7,2.2,2.9,2.2     c1.6,0,2.9-1.2,2.9-2.8C405.9,88.8,405.8,88.3,405.5,87.7z M356,68.4l17.5-38.2l17.4,38.2H356z"/>
			<g>
				<path class="st0" d="M441.1,92.4h-0.2c-1.6,0-2.7-0.8-3.4-2.5l-26.9-61.5c-0.2-0.5-0.2-0.7-0.2-1.2c0-1.4,1.2-2.9,3-2.9      c1.3,0,2.4,0.8,3,2.3l24.7,58.1l24.8-58.2c0.6-1.4,1.7-2.2,2.9-2.2c1.5,0,2.9,1.3,2.9,2.8c0,0.4,0,0.7-0.2,1.2l-27,61.7      C443.8,91.6,442.6,92.4,441.1,92.4z"/>
			</g>
			<g>
				<path class="st0" d="M536,91.8h-43.1c-1.6,0-3-1.4-3-3V27.7c0-1.6,1.4-3,3-3h42.6c1.5,0,2.8,1.3,2.8,2.8s-1.3,2.8-2.8,2.8h-39.7      v24.9h35.4c1.5,0,2.8,1.3,2.8,2.8s-1.3,2.8-2.8,2.8h-35.4v25.5H536c1.5,0,2.8,1.3,2.8,2.8S537.5,91.8,536,91.8z"/>
			</g>
			<g>
				<path class="st0" d="M605.3,91.8H566c-1.6,0-3-1.4-3-3V27.3c0-1.6,1.4-3,3-3s3,1.4,3,3v58.9h36.4c1.5,0,2.8,1.3,2.8,2.8      S606.8,91.8,605.3,91.8z"/>
			</g>
			<g>
				<path class="st0" d="M628.8,92.2c-1.6,0-3-1.4-3-3V27.3c0-1.6,1.4-3,3-3s3,1.4,3,3v61.9C631.8,90.8,630.4,92.2,628.8,92.2z"/>
			</g>
		</g>
	</g>
</switch>

</svg>