<svg xmlns="http://www.w3.org/2000/svg" xmlns:xlink="http://www.w3.org/1999/xlink" viewBox="0 0 89.9 114.8"><defs><style>.cls-mark-inc-1{clip-path:url(#clippath);}.cls-mark-inc-2,.cls-mark-inc-3{fill:none;}.cls-mark-inc-3{stroke:white;stroke-miterlimit:10;stroke-width:24px;stroke-dasharray: 312;
    stroke-dashoffset: 312;
    animation: dash-incorrect .5s cubic-bezier(0.81, 0.13, 0.32, 0.34) forwards;
  }
  @keyframes dash-incorrect {
  to {
    stroke-dashoffset: 0;
  }
} </style><clipPath id="clippath"><path id="Path_346" class="cls-mark-inc-2" d="M73.8,22.7c-.2,.5-.5,1-.7,1.4-.3,.4-.6,.9-.9,1.3l-.2,.7c-4.5,4.5-8.9,9.1-13,13.8-4.2,4.7-8.1,9.5-11.9,14.5,2.6,3.5,5.4,7.1,8.1,10.6,2.8,3.5,5.6,7,8.5,10.5-.4,1.6-1.2,3.2-2.1,4.6-.6,.9-1.6,1.5-2.7,1.7-.4,.4-.7,.9-1,1.4-.2,.5-.4,1.1-.4,1.7v.2c-.3,.2-.7,.6-1.4,1.2s-1.2,1-1.5,1.3c-.6-.2-1.2-.5-1.7-.9-.6-.4-1.2-.9-1.8-1.4-.5,.7-1,1.4-1.6,2-.7,.6-1.4,1.2-2.1,1.6l-1.5-.2c-2.2-2.6-4.3-5.3-6.4-8.2-2.1-2.9-4.1-5.9-6.1-9.1-3.5,4.4-6.8,8.5-9.8,12.5-3,3.9-5.9,7.8-8.6,11.5h-1.7l-2.1-2.4,.4-1.8-.7-.6c-.4,0-.7,.2-1,.3-.5,.2-1,.5-1.5,.8-.9-.8-1.8-1.7-2.5-2.7-.7-1-1.3-2-1.8-3.2,.3-.7,.6-1.3,.9-2,.2-.4,.4-.8,.6-1.2-.1-.7-.4-1.4-.7-2-.5-1-.8-1.9-1.1-2.6,2.9-3.6,6.1-7.4,9.3-11.2s6.8-7.8,10.4-12c-2.7-4.8-5.1-9.8-7.3-14.8-2.2-5.1-4.1-10.3-5.7-15.6,.5-.8,1.1-1.6,1.8-2.3,.6-.7,1.3-1.4,2.1-2,.7,.5,1.1,.8,1.5,1.1,.3,.3,.6,.5,.9,.8,.3-.1,.6-.3,.9-.5,.3-.2,.5-.4,.8-.6,0-.5,0-1.1,.2-1.6,.1-.5,.4-.9,.7-1.2l2.2-.6c1.4,1,4.2,4.7,8.5,11.4,2.9,4.5,5.2,8,7.1,10.8,4.3-4.9,8.7-9.6,13.2-14.1,4.5-4.5,9-8.8,13.7-12.9,.9,.4,1.8,.9,2.5,1.6,.8,.7,1.4,1.5,1.9,2.4l-.7,1.3c.2,.4,.5,.7,.8,1,.3,.3,.6,.6,1,.8h2.2l2.3,3Z"/></clipPath></defs><g class="cls-mark-inc-1"><path id="incorrect-dash" class="cls-mark-inc-3" d="M17.6,17.3c9.5,30.4,28.4,60.2,53.7,78.7C112.9,20.3,89.4,3.4,77,9.7,50.4,39.4,7.1,84.9,8.5,96"/></g></svg>