<?xml version="1.0" encoding="UTF-8"?><svg id="letters" xmlns="http://www.w3.org/2000/svg" xmlns:xlink="http://www.w3.org/1999/xlink" viewBox="0 0 921.6 449.38"><defs><style>.cls-1{fill:none;}.cls-2{clip-path:url(#clippath);}</style><clipPath id="clippath"><path class="cls-1" d="M899.39,205.02c-4.16-6.23-8.83-12.1-13.95-17.54-3.81-4.05-7.87-7.87-12.16-11.42-1.46-1.21-2.95-2.4-4.46-3.55-3.75-2.85-7.65-5.52-11.69-7.98-18.09-11-38.97-17.89-61.26-19.36-.3-.02-.6-.03-.9-.05,.08-1.43,.13-2.86,.13-4.31,0-5.77-.6-11.4-1.75-16.82-1.6-7.6-4.27-14.8-7.84-21.45-3.56-6.63-8.01-12.71-13.2-18.08-5.19-5.37-11.11-10.02-17.61-13.79-6.77-3.94-14.17-6.92-22-8.76-5.99-1.41-12.24-2.16-18.67-2.16-1.93,0-3.84,.07-5.73,.2-8.22,.58-16.11,2.38-23.47,5.23-6.93,2.68-13.4,6.3-19.26,10.69-.63-.59-1.26-1.18-1.9-1.75-6.73-6.09-13.87-11.75-21.37-16.9-25.46-17.52-55.07-29.34-87.17-33.46-8.33-1.07-16.82-1.62-25.45-1.62-9.62,0-19.08,.69-28.33,2-1.77-1.68-3.59-3.27-5.44-4.77-3.91-3.16-7.98-5.91-12.19-8.28-4.2-2.37-8.53-4.34-12.94-5.93-7.09-2.56-14.4-4.15-21.73-4.8-12.07-1.07-24.22,.39-35.65,4.17-18.36,6.08-34.84,18.15-46.06,35.35-4.01,6.15-7.35,12.95-9.87,20.37-.59,1.73-1.72,3.04-3.12,3.86-2.7,1.6-6.38,1.39-8.9-1.09-5.76-5.66-12.45-10.36-19.84-13.85-12.1-5.71-25.75-7.94-39.04-6.41-8.43,.97-16.43,3.41-23.73,7.05-6.21,3.1-11.92,7.06-16.97,11.74-5.05,4.67-9.44,10.05-13,15.98-.63,1.05-1.23,2.12-1.81,3.2-23.49,2.69-45.59,9.96-65.38,20.91-36.24,20.05-64.74,52.4-79.83,91.44-2.09,5.41-3.92,10.94-5.48,16.59-1.17,4.22-2.18,8.5-3.03,12.83-.41,2.07-.78,4.15-1.12,6.25-.76,4.72-.95,9.61-2.46,14.17-1.39,4.19-3.69,8.05-6.68,11.3-3.77,4.09-8.64,7.23-14.18,8.98-3.42,1.08-6.74,2.4-9.94,3.94-7.76,3.73-14.78,8.74-20.8,14.76-.92,.92-1.82,1.87-2.7,2.84-2.56,2.84-4.92,5.88-7.03,9.09-2.84,4.31-5.25,8.93-7.18,13.79C1.85,316.26-.02,325.73,0,335.63c.03,10.28,2.14,20.11,5.93,29.09,.12,.28,.24,.55,.36,.83,8.13,18.61,23.54,33.44,42.62,40.74,6.33,2.42,13.06,4.01,20.06,4.64,1.45,.13,2.9,.22,4.37,.27,6.99,.22,13.95-.37,20.69-1.56,7.47-1.33,14.68-3.5,21.79-6.1,6.79-2.48,13.94-5.53,21.31-5.33,1.64,.04,3.26,.26,4.87,.69,3.59,.95,6.52,2.92,9.46,5.13,3.88,2.91,7.94,5.61,12.14,8.1,25.67,15.17,56.97,22.49,87.9,22.49,5.09,0,10.14-.2,15.15-.61,26.42-2.13,51.5-9.79,73.5-22.07,8.69-4.85,16.9-10.42,24.53-16.64,3.8-3.1,7.94-5.58,12.29-7.44,6.54-2.78,13.54-4.14,20.53-4.03,4.21,.07,8.42,.67,12.53,1.81,4.62,1.29,9.11,3.27,13.32,5.95,12.16,7.74,25.06,14.11,38.63,18.99,21.05,7.57,43.71,11.56,67.72,11.56,16.03,0,31.77-1.39,46.82-4.41,2.47,3.02,5.12,5.87,7.96,8.53,8,7.48,17.4,13.45,27.75,17.44,9.51,3.67,19.82,5.68,30.6,5.68,5.48,0,10.83-.52,16.03-1.51,15.07-2.88,28.75-9.74,39.95-19.46,10.79-9.37,19.27-21.41,24.46-35.09,1.27,.65,2.54,1.28,3.8,1.9,19.82,9.67,38.52,15.4,62.16,15.4,2.72,0,5.42-.08,8.09-.24,18.05-1.09,35.13-5.8,50.52-13.41,3.44-1.7,6.8-3.55,10.06-5.53,1.77-1.08,3.51-2.19,5.22-3.35,8.29-5.59,15.92-12.09,22.73-19.37,20.55-21.93,33.71-50.86,35.53-82.83,.03-.44,.05-.88,.07-1.33,.11-2.4,.16-4.81,.15-7.24-.18-26.69-8.34-51.52-22.2-72.29Z"/></clipPath></defs><g class="cls-2"><image width="1675" height="817" transform="translate(.05 -.05) scale(.55)" xlink:href="included_images/layered_cloud.jpg"/></g></svg>