<?xml version="1.0" encoding="UTF-8"?><svg id="uuid-e1a04f3e-49d2-425d-a46b-419c6769ba67" xmlns="http://www.w3.org/2000/svg" xmlns:xlink="http://www.w3.org/1999/xlink" viewBox="0 0 443.61 255.36"><defs><style>.uuid-e0a4363b-ac19-4e44-87cc-18d02baf69d1{fill:none;}.uuid-e30c8024-0f42-4eb5-87da-6a1b2b188e51{clip-path:url(#uuid-715dd7aa-6cdf-45d2-91d9-9649f6bce505);}.uuid-146c49c3-2d0b-408d-93ab-19f1d8ae62e7{clip-path:url(#uuid-2e6ac2ba-c451-4adc-82f5-30f51c36eec6);}.uuid-2a6e5f8a-aa89-44cd-b362-c556796bac3f{clip-path:url(#uuid-3d6c5da5-ba84-4f21-af95-bf1079803050);}.uuid-1aa6c24e-6cbb-4f09-863a-bdcde7149083{clip-path:url(#uuid-0c087119-0e63-4567-a2c0-1b5bf59388c4);}.uuid-28d29063-892c-44e5-8a1d-8e542d4e27b1{clip-path:url(#uuid-ba9fe6c9-8937-4ce8-a982-a18bb25df934);}.uuid-f45fe79d-e4b5-4ddb-9f9b-6a4b37fbc27b{clip-path:url(#uuid-fa122880-181c-43d3-a55c-18358ba1d6c9);}.uuid-8fdb311b-5c2d-4103-a20c-368d58756726{clip-path:url(#uuid-9b030df0-eba0-4d69-9c93-b55dd338b658);}.uuid-b8cc9daa-f263-452b-8393-7f9d5e45c40f{clip-path:url(#uuid-3e24ef7a-515b-468f-bdb7-31762ecf4732);}.uuid-492a216b-3829-4ff0-a0ec-ada193eb435f{clip-path:url(#uuid-adbeb37b-3788-4205-84df-50fd1b8652e5);}.uuid-61642ea6-9095-4482-b547-a7ce3fd82019{clip-path:url(#uuid-c12c29ed-b58b-45a2-be4d-73d56a3b605e);}</style><clipPath id="uuid-fa122880-181c-43d3-a55c-18358ba1d6c9"><path class="uuid-e0a4363b-ac19-4e44-87cc-18d02baf69d1" d="M289.37,204.29c-3.94-4.59-7.66-9.34-11.5-14.01-3.06-3.72-6.07-7.48-9.01-11.29-.87-1.12-1.85-2.29-1.82-3.88,.04-.04,.07-.09,.08-.15,1.22-.71,2.45-1.41,3.67-2.12,.07,0,.13-.02,.19-.06,5.26-2.12,10.57-4.1,15.71-6.51,.72-.34,1.48-.63,2.03-1.24,.46-.22,.67-.62,.77-1.09,.44-1.37-.63-1.96-1.45-2.55-2.11-1.53-4.52-2.56-6.84-3.72-4.03-2.03-8.16-3.85-12.01-6.23-1.02-.63-2.13-1.29-2.12-2.76,0-.22,.02-.44,.03-.67,.2-.02,.34-.13,.45-.31,2.16-3.56,5.04-6.55,7.77-9.65,5.96-6.77,12.04-13.45,18.02-20.22,1.31-1.48,2.73-2.91,3.43-4.83,.22-.18,.24-.41,.17-.66-.7-.5-1.47-.28-2.18-.12-2.57,.6-5.02,1.59-7.51,2.46-6.77,2.38-13.35,5.28-20.23,7.4-2.92,.9-5.77,2.03-8.66,3.01-1.37,.46-2.77,.89-4.25,.84-1.39-.05-2.08-.61-2.18-1.99-.22-3.37,.07-6.74,.3-10.1,.22-3.27,.61-6.54,.39-9.83-.12-1.72-.66-2.09-2.29-1.6-.36,.11-.71,.26-1.06,.43-4.13,2.01-7.81,4.77-11.77,7.06-1.95,1.13-3.81,2.42-5.97,3.17-.97,.33-1.7,.13-2.38-.59-.41-.43-.68-.93-.9-1.46-1.48-3.54-2.24-7.28-3.1-11-1.83-7.96-3.63-15.92-5.46-23.88-.9-3.91-1.69-7.84-2.97-11.65-.36-1.06-.72-2.19-1.88-2.73-.43-.33-.79-.19-1.1,.19-.72,.71-1.1,1.59-1.35,2.55-.18,.68-.48,1.33-.5,2.04-.08,.21-.18,.42-.23,.64-2.23,9.06-3.89,18.25-5.99,27.34-1.36,5.88-2.3,11.86-4.38,17.56-.22,.31-.45,.62-.67,.94,.05,0,.1,0,.15,.03l.39,.04c-.13-.01-.26-.03-.4-.04-.05-.02-.09-.03-.15-.03-1.09-.13-2.03-.66-2.95-1.19-3.55-2.04-6.93-4.35-10.4-6.51-1.93-1.2-3.78-2.63-6.12-3.03-1.31-.23-2.3,.24-2.81,1.34h0c-.52,2.2-.34,4.4-.04,6.61,0,3.06,.44,6.09,.57,9.14,.08,1.79,.3,3.58-.15,5.35-3.29-.62-6.28-2.12-9.39-3.25-4.73-1.73-9.3-3.9-13.95-5.86-3.24-1.36-6.45-2.81-9.81-3.88-1.25-.4-2.51-.66-3.83-.54-.56,.05-1.03,.29-1.31,.81-.29,.53,.21,.74,.42,1.06-.01,.5,.16,.91,.47,1.34,1.93,2.7,3.88,5.38,6.07,7.9,2.08,2.39,3.98,4.95,5.9,7.47,4.06,5.3,8.47,10.35,11.84,16.16,.34,.74,.21,1.53,.26,2.29-1.03,.9-2.12,1.71-3.41,2.2-4.23,1.62-8.27,3.67-12.35,5.64-.99,.48-2.08,.94-2.65,2.03h0l-.17,.27c-.08,.54,.19,.89,.65,1.12,.27,.55,.82,.79,1.29,1.08,3.67,2.31,7.53,4.27,11.38,6.27,.9,.49,1.68,1.22,2.74,1.42h-.03c.82,1,2.1,1.49,2.81,2.59-.01,.23,.05,.44,.22,.6,0,.3,0,.61,0,.91-.52,1.66-1.48,3.08-2.47,4.48-.79,1.12-1.74,2.12-2.61,3.17-3.54,4.31-7.04,8.65-10.53,13.01-1.48,1.84-3.09,3.58-4.35,5.59l-.02,.03c-.3,.11-.46,.32-.48,.64h0c-.06,.08-.13,.16-.19,.24l-.02,.03c-.06,.07-.11,.14-.17,.2l-.04,.05c-.3,.1-.46,.31-.48,.63h-.01l-.18,.24-.03,.05c-.12,0-.17,.06-.13,.18-.04,.07-.08,.14-.12,.21-.06,.08-.12,.17-.19,.25l-.02,.04c-.05,.06-.09,.13-.14,.19-.33,.53-.66,1.06-1,1.59,.16,.57,.65,.52,1.03,.44,1.08-.22,2.19-.18,3.26-.54,5.7-1.96,11.41-3.86,17.12-5.8,3.86-1.31,7.69-2.79,11.68-3.61,2.99-.62,3.92-.34,4.32,2.53,0,.03,.04,.06,.06,.1,.13,3.39-.25,6.76-.28,10.14-.36,2.51-.25,5.04-.1,7.55,.06,.96,.7,1.42,1.69,1.17,.52-.13,1.04-.28,1.51-.52,2.18-1.12,4.34-2.26,6.5-3.41,2.9-1.54,5.69-3.31,8.83-4.38,1.61-.55,2.64-.11,3.44,1.37,.88,1.61,1.39,3.36,1.86,5.13,1.21,4.51,2.18,9.08,3.3,13.61,1.52,6.14,2.87,12.32,4.35,18.46,.67,2.77,1.24,5.58,2.26,8.26,.25,.66,.5,1.58,1.25,1.64,.5,.04,1-.68,1.29-1.26,.27-.13,.35-.39,.46-.63,.8-1.79,1.34-3.66,1.8-5.56,1.96-8.2,3.85-16.41,5.81-24.61,1.08-4.49,2.27-8.94,3.41-13.41,.2-.1,.2-.28,.19-.46,1.32-1.01,2.54-.38,3.72,.26,3.83,2.1,7.34,4.68,10.93,7.14,1.89,1.29,3.79,2.59,5.82,3.65,.93,.48,1.98,1.02,2.85-.18h0c.96-1.3,1.07-2.83,1.09-4.34,.08-5.79-.81-11.55-.69-17.35,.04-.05,.06-.11,.07-.17,1.24-.3,2.38,.4,3.6,.37,.57,.29,1.13,.62,1.72,.87,3.84,1.58,7.73,3.06,11.53,4.73,6.81,2.99,13.53,6.19,20.4,9.04,1.82,.75,3.62,1.67,5.69,1.48-.23-.22-.46-.44-.7-.66-.35-.07-.69-.18-1-.32-.63-.28-1.19-.67-1.71-1.12,.52,.45,1.08,.84,1.71,1.12,.31,.14,.65,.25,1,.32,.23,.22,.46,.44,.7,.66,.53-.04,.71-.37,.73-.85,.04-.73-.03-1.44-.37-2.12-1.41-2.84-3.4-5.29-5.43-7.66ZM151.61,124.76m115.24,26.38s0,.03,0,.05h0s0-.03,0-.05Zm-86.51,44.24c-.14,.13-.17,.29-.17,.46,0-.16,.03-.32,.17-.46m0,0,89.27-22.31c.05-.1,.11-.16,.19-.19-.08,.03-.15,.09-.19,.19-.37,0-.71,.03-.98,.39,.27-.36,.62-.39,.98-.39Zm.46-.23h0Zm-68.81-60.5c-.05,.17-.13,.34-.12,.51,0-.17,.08-.34,.12-.51Zm-.12,.52c0,.09,.03,.17,.09,.26h0c-.06-.09-.09-.18-.09-.26Zm49.72,106.53c.01,.1,.03,.19,.05,.29-.02-.1-.04-.19-.05-.29Z"/></clipPath><clipPath id="uuid-c12c29ed-b58b-45a2-be4d-73d56a3b605e"><path class="uuid-e0a4363b-ac19-4e44-87cc-18d02baf69d1" d="M14.59,123.9c2.87-2.87,6.22-5.26,9.92-7.04,1.52-.73,3.11-1.36,4.74-1.88,2.64-.83,4.96-2.33,6.76-4.28,1.43-1.55,2.52-3.39,3.18-5.39,.72-2.18,.81-4.51,1.17-6.76,.16-1,.34-1.99,.53-2.98,.41-2.07,.89-4.11,1.45-6.12,.74-2.69,1.62-5.33,2.62-7.91,7.2-18.62,20.79-34.06,38.08-43.62,12.13-6.71,26.08-10.53,40.93-10.53,.79,0,1.57,.01,2.35,.03,8.95,.24,17.55,1.88,25.59,4.69,3.13,1.09,6.17,2.37,9.12,3.8,.82,.4,1.65,.74,2.49,1.03,2.38,.81,4.85,1.17,7.3,1.12,5.74-.13,11.35-2.56,15.41-7,3.7-4.05,7.75-7.78,12.09-11.14C214.45,7.43,234.69,0,256.67,0c4.12,0,8.17,.26,12.14,.77,15.31,1.97,29.43,7.61,41.58,15.96,3.58,2.46,6.98,5.16,10.19,8.06,4.08,3.69,7.84,7.72,11.26,12.04,2.4,3.04,4.63,6.22,6.67,9.53,1.27,2.06,2.69,3.8,4.23,5.25,4.88,4.63,10.91,6.43,17.07,7.05,7.38,.74,14.95-.23,20.91-.1,.97,.02,1.94,.06,2.9,.13,10.63,.7,20.59,3.98,29.22,9.23,1.93,1.17,3.79,2.44,5.58,3.8,.72,.55,1.43,1.11,2.13,1.69,2.04,1.7,3.98,3.52,5.8,5.45,2.44,2.6,4.67,5.39,6.65,8.37,6.61,9.91,10.5,21.75,10.59,34.48,0,1.16-.02,2.31-.07,3.46,0,.21-.02,.42-.03,.63-.87,15.25-7.15,29.05-16.95,39.51-3.25,3.47-6.89,6.57-10.84,9.24-.82,.55-1.65,1.08-2.49,1.6-1.56,.95-3.16,1.83-4.8,2.64-7.34,3.63-15.49,5.88-24.1,6.39-1.28,.08-2.56,.12-3.86,.12-11.28,0-20.2-2.73-29.65-7.34-3.16-1.54-6.38-3.29-9.77-5.22-1.25-.71-2.5-1.37-3.73-1.96-4.28-2.04-8.42-3.25-12.37-3.12-3.31,.11-6.48,1.17-9.46,3.48-.33,.26-.66,.53-.98,.81-8.62,7.6-19.01,12.64-30.37,15.59-8.7,2.25-17.98,3.27-27.46,3.27-11.45,0-22.26-1.9-32.3-5.51-6.47-2.33-12.63-5.37-18.43-9.06-2.01-1.28-4.15-2.22-6.35-2.84-1.96-.55-3.97-.83-5.97-.87-3.34-.05-6.68,.59-9.8,1.92-2.07,.88-4.05,2.07-5.86,3.55-3.64,2.97-7.55,5.63-11.7,7.94-10.49,5.85-22.46,9.51-35.06,10.53-2.39,.19-4.8,.29-7.23,.29-14.76,0-29.68-3.49-41.93-10.73-2.01-1.19-3.94-2.47-5.79-3.86-1.4-1.05-2.8-1.99-4.51-2.45-.77-.2-1.54-.31-2.32-.33-3.51-.09-6.93,1.36-10.16,2.54-3.39,1.24-6.83,2.28-10.39,2.91-3.21,.57-6.53,.85-9.87,.74-.7-.02-1.4-.06-2.09-.13-3.34-.3-6.55-1.06-9.57-2.22-9.1-3.48-16.45-10.55-20.33-19.43-.06-.13-.11-.26-.17-.39-1.81-4.28-2.82-8.97-2.83-13.87-.01-4.72,.88-9.24,2.52-13.38,.92-2.32,2.07-4.52,3.42-6.58,1.01-1.53,2.13-2.98,3.35-4.33,.42-.46,.85-.91,1.29-1.35Z"/></clipPath><clipPath id="uuid-ba9fe6c9-8937-4ce8-a982-a18bb25df934"><path class="uuid-e0a4363b-ac19-4e44-87cc-18d02baf69d1" d="M178.72,121.13c-.06-.41,.03-.41,.22-.72,.03-.05,.06-.1,.08-.16,.23-.49,.21-1.21,.29-1.72,.01-.11,.01-.19,0-.28-.03-.25-.14-.47-.26-.68-.11-.21-.23-.44-.27-.71-.06-.39,.2-.72,.48-1.01,.07-.07,.14-.14,.22-.21,.06-.07,.13-.12,.19-.21,.01-.02,.03-.04,.05-.06,.1-.15,.2-.33,.27-.48,.09-.21,.18-.45,.23-.68,.09-.41,.13-.85,.12-1.27-.01-.14-.02-.27-.03-.38-.05-.52-.14-.98-.32-1.44-.01-.03-.02-.06-.04-.08,.03-.11,.06-.22,.09-.33l.04-.15c.15-.15,.28-.3,.48-.46,.05-.06,.11-.12,.15-.19,.11-.16,.19-.31,.26-.47,.07-.15,.12-.31,.18-.45,.09-.23,.18-.47,.25-.72,.02-.08,.04-.15,.06-.22,.03-.14,.07-.28,.08-.41,.04-.27,.04-.53,0-.82,0-.06-.01-.1-.02-.15-.04-.17,0-.33,.07-.47,.12-.22,.35-.41,.54-.62,.05-.05,.1-.11,.14-.16,.5-.62,.99-1.23,1.26-1.96,.06-.17,.11-.34,.15-.52,.03-.19,.06-.39,.07-.59v-.02c0-.5-.04-1-.17-1.51-.01-.04-.02-.09-.04-.12-.17-.55-.35-1.09,.03-1.55,.2-.24,.44-.46,.66-.68,.33-.33,.63-.69,.72-1.17,.04-.23,.03-.53-.04-.83-.03-.17-.08-.34-.13-.51-.05-.14-.11-.27-.16-.38-.11-.21-.33-.48-.37-.7,0-.02,0-.03,0-.05,0-.23,.19-.41,.33-.59,.09-.12,.18-.24,.28-.36,.27-.34,.54-.68,.78-1.02,.1-.15,.2-.31,.29-.47,.2-.34,.36-.69,.46-1.09,.14-.56,.21-1.13,.25-1.69,.03-.56,.02-1.11-.02-1.67-.04-.42-.09-.83-.15-1.22-.02-.12-.03-.25-.05-.37-.03-.19-.02-.36,.02-.52,.07-.33,.27-.6,.54-.91,.54-.62,1.05-1.28,1.4-2.01,.08-.17,.15-.34,.22-.51,.05-.15,.09-.29,.13-.45,.1-.36,.13-.78,.1-1.18-.02-.21-.05-.41-.1-.61-.08-.33-.15-.67-.15-1.01,0-.17,.03-.34,.08-.5,.02-.06,.04-.11,.07-.17,.12-.25,.25-.46,.39-.67,.14-.21,.31-.41,.51-.61,.02-.03,.05-.06,.08-.09,.42-.41,.65-.85,.48-1.41-.04-.12-.06-.22-.09-.33-.03-.1-.04-.2-.05-.29,0-.09,0-.19,.01-.28,.03-.09,.05-.18,.1-.27,.06-.08,.12-.16,.21-.24,.19-.16,.4-.27,.57-.4,.03-.02,.06-.05,.09-.08,.01,0,.04-.03,.05-.05,.02-.02,.04-.04,.05-.06,.08-.08,.14-.17,.19-.27,.06-.11,.11-.23,.15-.36,.09-.31,.05-.63-.01-.94-.05-.21-.05-.31-.03-.41,.03-.1,.1-.19,.16-.37,.02-.06,.04-.12,.05-.18,.05-.3,0-.66-.11-1-.11-.35-.29-.68-.45-.95-.07-.11-.15-.21-.23-.28-.24-.2-.49-.25-.73-.27-.12,0-.24-.02-.36-.03-.03,0-.06-.01-.09-.02,.02-.04,.04-.07,.07-.12,.02-.04,.05-.09,.09-.13,.02-.06,.05-.12,.07-.19,.07-.25,.07-.49,.02-.66-.02-.08-.05-.15-.07-.23-.03-.07-.06-.15-.08-.23-.02-.06-.04-.11-.06-.17-.01-.03-.03-.07-.04-.11-.09-.19-.2-.37-.31-.54-.01-.05-.02-.09-.03-.14-.04-.11-.09-.23-.14-.35-.06-.11-.12-.23-.19-.34-.08-.11-.16-.21-.25-.3-.1-.09-.18-.18-.28-.25-.06-.05-.13-.09-.19-.12-.07-.04-.13-.07-.19-.11-.13-.07-.26-.11-.39-.16-.07-.01-.14-.04-.22-.06-.07-.02-.14-.02-.21-.03-.21-.02-.38,.02-.55,.06-.46-.17-.9-.41-1.25-.84-.33-.41-.54-1.1-1.01-1.29-.13-.05-.25-.07-.37-.08-.12,0-.23,.02-.34,.05-.22,.06-.4,.18-.65,.29-.29,.13-.54,.14-.74,.06-.4-.15-.64-.61-.96-1.04-.16-.2-.32-.41-.55-.55,0,0,0-.01-.02,0-.09-.06-.19-.12-.3-.17-.11-.05-.23-.08-.35-.11-.12-.03-.24-.06-.36-.06-.12-.01-.24,0-.36,.01-.14,.01-.28,.05-.41,.11-.18,.09-.36,.26-.55,.3-.06,.01-.13,0-.19,0-.07-.03-.08-.05-.11-.08-.02-.03-.04-.06-.06-.1-.03-.07-.06-.14-.09-.2-.04-.05-.09-.08-.17-.08-.01,0-.03,0-.04,0-.1,0-.2,.05-.3,.09-.11,.03-.22,.06-.34,.05-.25-.03-.52-.12-.76-.23-.32-.14-.58-.17-.84-.11-.11,.02-.22,.07-.34,.12-.12,.06-.24,.13-.37,.23-.06,.04-.11,.08-.17,.12-.24,.15-.42,.23-.62,.24-.19,0-.38-.07-.67-.21-.07-.04-.15-.06-.23-.09-.08-.02-.16-.05-.24-.07-.1-.03-.21-.05-.32-.07-.1-.01-.22-.02-.33-.03-.12,0-.25,.02-.37,.03-.13,.02-.24,.05-.37,.09-.32,.11-.63,.27-.89,.5-.11,.1-.21,.21-.31,.32-.08,.12-.17,.25-.24,.38-.07,.13-.12,.27-.16,.41,0,.01,0,.02,0,.03-.06,.23-.07,.47-.07,.71-.06,.12-.12,.24-.13,.3-.06,.26-.1,.51-.14,.75,0,.04,0,.07,0,.11-.03,0-.06,0-.1,0-.03,0-.06,.01-.09,.03-.03,.01-.05,.02-.08,.04-.08,.06-.14,.13-.2,.2-.02,.02-.04,.05-.05,.08,0,0,0,.01-.01,.02-.01,0-.02,.01-.02,.02-.02,.03-.03,.05-.04,.08-.02,.03-.04,.06-.05,.1-.02,.03-.04,.06-.06,.09l-.02,.02s0,0-.01,.02c-.01,.01-.02,.02-.03,.02-.02,.03-.04,.05-.07,.07-.18,.18-.28,.41-.29,.66-.02,.16,0,.34,.02,.48,.02,.13,.05,.23,.08,.34,.03,.11,.07,.21,.11,.32,.03,.09,.06,.18,.08,.27,.02,.09,.06,.19,.07,.28,.03,.19,.04,.4,.02,.59,0,.07-.03,.14-.04,.21-.08,.12-.16,.23-.23,.35-.08,.14-.15,.29-.22,.43-.09,.07-.18,.14-.3,.2-.39,.2-1.06,.23-1.28,.57-.06,.08-.09,.18-.09,.28,0,.1,0,.2,.03,.29,.05,.19,.17,.39,.27,.59,.14,.26,.16,.46,.1,.62-.07,.16-.19,.29-.36,.42-.17,.12-.36,.24-.55,.39-.08,.06-.18,.13-.26,.21-.08,.08-.15,.15-.2,.25,0,0,0,0-.01,.01-.09,.15-.17,.32-.2,.5-.03,.19-.04,.37,0,.56,.03,.11,.08,.21,.14,.31,.04,.07,.11,.14,.17,.21,0,.01,.02,.03,.03,.03,0,0,.01,.01,.02,.01,0,.01,.03,.03,.03,.03,.03,.02,.05,.05,.05,.08,.02,.03,.01,.06,0,.09-.09,.11-.28,.1-.38,.16-.04,.02-.07,.05-.08,.11,0,0,0,.02,0,.04,.02,.13,.16,.31,.14,.47-.02,.18-.11,.36-.21,.53-.13,.2-.17,.38-.12,.57,.04,.18,.14,.35,.28,.59,.04,.06,.06,.1,.09,.14,.06,.1,.1,.19,.12,.28-.03,.13-.05,.26-.08,.39-.06,.08-.15,.15-.28,.23-.1,.07-.21,.12-.32,.2-.13,.08-.27,.17-.39,.27-.13,.1-.26,.21-.36,.35-.03,.05-.06,.09-.09,.14-.02,.02-.04,.05-.05,.07-.02,.01-.03,.03-.04,.05-.05,.06-.1,.13-.13,.2-.03,.05-.07,.11-.09,.18-.02,.07-.04,.14-.06,.21-.01,.07-.02,.15,0,.23,0,0,0,0,0,.01,.02,.37,.17,.81,.16,1.24,0,.04,0,.05,0,.09,0,.02,0,.05,0,.07,0,.02,0,.05,0,.08,0,.06,0,.12,.02,.17,.02,.11,.05,.2,.08,.28,.03,.07,.07,.14,.11,.2,.06,.11,.14,.22,.24,.32,.02,.02,.03,.04,.04,.07-.08,.26-.16,.51-.24,.75-.03,.08-.06,.14-.08,.22-.13,.04-.25,.09-.33,.15-.15,.13-.25,.19-.33,.37-.04,.09-.08,.19-.1,.31-.03,.15-.03,.3-.04,.44,0,.12,0,.24-.02,.35-.02,.25-.1,.47-.38,.66-.05,.03-.11,.07-.15,.09-.22,.13-.44,.26-.64,.39-.19,.12-.36,.26-.5,.41-.03,.03-.05,.06-.07,.09-.04,.05-.08,.09-.11,.14-.04,.05-.07,.1-.11,.15-.04,.05-.07,.1-.09,.15-.02,.04-.05,.09-.07,.13-.06,.1-.12,.22-.16,.35-.02,.05-.03,.09-.05,.14-.03,.09-.05,.19-.07,.3-.03,.11-.04,.22-.03,.34,0,.06,0,.13,.01,.2-.22,.14-.45,.26-.71,.38-.03-.03-.07-.06-.1-.08-.33-.21-.61-.21-.86-.15-.09,.03-.18,.06-.26,.1-.06,.03-.12,.08-.16,.12-.03,.04-.03,.08-.05,.13-.03,.08-.08,.2-.16,.31-.05,.06-.11,.12-.18,.16-.01,0-.02,.01-.03,.01-.03,.01-.06,.01-.08,.01-.18,0-.37-.21-.53-.32-.1-.06-.2-.14-.3-.2-.18-.13-.37-.24-.54-.33-.15-.08-.35-.11-.58-.08-.1,0-.2,.03-.29,.06-.04,0-.08,.02-.11,.03-.23,.07-.37,.1-.6,.2-.06,.03-.13,.07-.2,.11-.11,.05-.24,.08-.37,.09-.13,0-.26-.02-.39-.03-.13,0-.24-.01-.37,0-.06,0-.15,.01-.25,.03-.05,0-.1,.02-.15,.03-.07-.03-.16-.05-.23-.08-.18-.08-.35-.16-.51-.25-.1-.05-.2-.1-.29-.15-.06-.04-.13-.08-.18-.11-.02-.01-.04-.03-.06-.04-.04-.08-.09-.17-.13-.24-.05-.08-.08-.15-.1-.19-.11-.22-.2-.42-.3-.62-.11-.2-.22-.4-.34-.57-.1-.1-.19-.19-.27-.28-.14-.16-.28-.26-.42-.31-.15-.05-.3-.06-.47-.09-.12-.01-.24-.04-.36-.07-.03,0-.04-.01-.06-.02-.04-.01-.08-.03-.12-.05-.04-.02-.07-.04-.11-.06-.07-.04-.13-.1-.18-.16-.05-.05-.09-.11-.12-.17-.04-.06-.07-.13-.09-.2-.04-.14-.07-.3-.07-.46,0-.01,0-.02,0-.03,0-.17,.02-.38-.02-.58-.02-.09-.05-.18-.08-.27-.04-.09-.09-.16-.17-.23-.05-.04-.1-.07-.16-.1-.07-.04-.14-.07-.24-.09-.09-.02-.18-.01-.27,0-.04-.2-.08-.41-.1-.62,.02-.02,.03-.04,.05-.06,.03-.04,.05-.09,.06-.14,0-.03,.01-.07,.02-.11,.02-.13,0-.26-.03-.38-.04-.16-.12-.33-.27-.48-.03-.02-.05-.04-.08-.05-.02-.03-.04-.07-.05-.1,0-.03-.02-.06-.02-.1,0-.11,.04-.2,.08-.29,.06-.13,.15-.24,.15-.35,0-.01,0-.03,0-.05,.02-.32,.06-.64,.1-.96,.08-.05,.16-.1,.26-.16,.06-.05,.13-.11,.17-.17,.12-.16,.21-.33,.28-.51,.04-.08,.07-.16,.1-.25,.03-.08,.06-.17,.09-.25,.08-.28,.13-.56,.16-.84,.01-.08,.02-.17,.03-.24,.01-.16,.01-.31,.02-.44,0-.14,0-.28,0-.42,0-.15,0-.29-.03-.45,0-.05-.01-.11-.02-.16-.04-.19,0-.35,.07-.5,.12-.25,.33-.47,.52-.71,.05-.06,.1-.11,.14-.18,.48-.69,.96-1.37,1.26-2.13,.07-.18,.13-.35,.17-.54,.05-.19,.09-.39,.11-.6,0,0,0-.02,0-.02,.05-.54,.07-1.08,0-1.62,0-.05-.01-.09-.02-.14-.1-.59-.23-1.17,.19-1.66,.21-.25,.46-.48,.68-.73,.17-.18,.34-.38,.46-.59,.13-.22,.22-.46,.27-.73,.02-.13,.03-.28,.02-.44-.01-.16-.04-.32-.07-.49-.04-.19-.09-.38-.15-.54-.05-.15-.13-.29-.2-.4-.11-.17-.29-.37-.39-.56,0-.02,0-.03,0-.05,.01-.17,.01-.34,.02-.52,.05-.1,.1-.2,.15-.3,.08-.15,.17-.29,.25-.42,.25-.4,.5-.77,.72-1.17,.09-.17,.18-.35,.26-.54,.16-.4,.28-.87,.26-1.39,0-.1,0-.18-.01-.27-.01-.09-.03-.19-.04-.27-.05-.2-.1-.39-.17-.57-.15-.36-.36-.68-.59-.94-.48-.51-1.05-.82-1.61-1.03-.43-.16-.85-.26-1.27-.35-.08-.02-.15-.03-.22-.04-.41-.28-.84-.51-1.29-.7-.07-.08-.15-.15-.23-.24-.57-.64-1.25-1.24-2.03-1.65-.18-.1-.36-.19-.55-.27-.15-.06-.31-.12-.47-.17-.4-.13-.84-.19-1.27-.19-.23,0-.45,0-.66,.03-.36,.04-.73,.08-1.09,.04-.18-.02-.36-.07-.53-.14-.05-.03-.11-.05-.17-.08-.51-.29-.91-.56-1.44-.9-.04-.02-.07-.04-.11-.07-.13-.08-.26-.17-.4-.22-.14-.05-.28-.1-.43-.11-.14-.02-.28-.02-.43,0-.14,.03-.28,.07-.42,.15-.11,.05-.22,.11-.32,.17-.05,.02-.1,.04-.15,.07-.05,.02-.11,.03-.15,.06-.11,.03-.21,.06-.32,.08-.22,.03-.45,0-.73-.07-.29-.08-.59-.13-.91-.13-.26,.01-.52,.07-.78,.21-.14,.08-.29,.18-.43,.32-.32,.31-.47,.7-.53,1.05-.03,.35-.13,.34-.38,.49-.04,.02-.08,.05-.11,.08-.08,.06-.15,.13-.22,.22-.07,.08-.14,.16-.21,.26-.03,.05-.06,.09-.09,.13-.02,.02-.03,.03-.04,.05-.02,.02-.03,.05-.05,.06-.02,.02-.04,.04-.05,.06-.02,.03-.05,.05-.07,.07-.04,.04-.09,.09-.13,.13-.08,.07-.13,.14-.19,.22-.15,.23-.22,.51-.24,.78,0,.07,0,.13,0,.21,0,.07,0,.13,0,.19,0,.13,0,.26-.02,.4-.01,.09-.05,.18-.09,.25-.05,.08-.1,.15-.16,.22-.12,.13-.28,.25-.46,.37-.15,.11-.31,.22-.45,.34-.02,.02-.04,.04-.06,.05-.12,.11-.23,.24-.33,.38-.13,.19-.24,.39-.34,.61-.08,.19-.13,.39-.18,.59-.05,.2-.09,.41-.11,.61,0,.13,0,.25,0,.37,0,.25,0,.49,.04,.72,.03,.23,.08,.46,.16,.69,.03,.09,.06,.19,.1,.29h0c-.02,.09-.04,.16-.07,.25-.12,.09-.25,.19-.41,.3-.08,.06-.15,.14-.21,.21-.31,.37-.43,.75-.57,1.12-.11,.29-.21,.58-.29,.9-.02,.09-.04,.17-.06,.26-.03,.18-.06,.35-.06,.51-.02,.33,.02,.66,.12,1.02,.01,.06,.04,.12,.05,.18,.07,.22,.04,.4-.04,.58-.13,.28-.42,.52-.67,.78-.06,.07-.12,.13-.18,.21-.61,.77-1.21,1.52-1.55,2.36-.08,.19-.14,.39-.19,.6-.05,.23-.08,.46-.08,.7,0,0,0,0,0,.02-.01,.62,.03,1.24,.22,1.88,.02,.05,.03,.1,.05,.16,.23,.68,.5,1.35-.05,1.91-.28,.28-.61,.53-.91,.79-.45,.39-.85,.83-.95,1.43-.04,.29,0,.66,.09,1.03,.06,.22,.13,.43,.23,.63,.08,.18,.17,.34,.26,.48,.1,.14,.25,.31,.37,.48-.12,.47-.24,.94-.37,1.41-.05,.07-.11,.13-.16,.2-.34,.43-.68,.85-.97,1.28-.13,.18-.24,.37-.35,.57-.24,.41-.42,.85-.52,1.34-.07,.34-.13,.68-.16,1.02-.03,.34-.04,.68-.05,1.03-.01,.34,0,.67,.03,1.02,0,.09,.01,.17,.02,.26,0,.09,0,.17,.02,.25,.02,.16,.03,.33,.04,.5,0,.19,.02,.39,.03,.58-.04,.15-.08,.31-.12,.46-.03,.1-.05,.21-.08,.31-.03,.11-.06,.22-.08,.33-.02,.11-.05,.21-.08,.31-.13,.47-.25,.95-.37,1.42-.07,.06-.13,.12-.2,.17-.41,.31-.8,.65-1.13,1.05-.18,.2-.31,.41-.45,.62-.13,.21-.26,.43-.38,.66-.11,.21-.18,.43-.25,.65-.06,.18-.11,.37-.14,.56-.02,.11-.04,.23-.05,.36,0,.12,0,.25,0,.37,.01,.25,.03,.5,.08,.75,.05,.26,.12,.51,.22,.74,.16,.39,.31,.81,.36,1.22,.03,.21,.02,.41-.03,.62-.02,.07-.03,.14-.06,.2-.25,.63-.55,1.11-1.07,1.63-.04,.03-.07,.07-.1,.1-.55,.51-.83,1.06-.55,1.75,.06,.14,.12,.28,.17,.4,.09,.25,.15,.48,.13,.71-.02,.24-.12,.46-.35,.68-.24,.23-.49,.43-.69,.64-.15,.15-.28,.32-.38,.52-.05,.11-.09,.22-.12,.35-.03,.15-.03,.3,0,.45,.02,.15,.05,.3,.09,.46,.1,.42-.03,.41-.31,.68-.05,.04-.08,.09-.12,.14-.31,.45-.33,1.18-.46,1.69-.03,.1-.03,.19-.03,.28,.04,.55,.56,1.03,.63,1.64,.02,.22-.06,.41-.2,.56-.13,.16-.35,.29-.54,.42-.2,.13-.41,.26-.58,.4-.02,.01-.05,.04-.07,.05-.15,.13-.27,.27-.39,.44-.07,.1-.14,.21-.21,.33-.06,.12-.11,.23-.15,.36-.04,.11-.07,.22-.11,.33-.01,.06-.02,.11-.04,.16,0,.02-.01,.05-.01,.07-.02,.11-.05,.28-.1,.51-.01,.08-.03,.15-.04,.23,0,.08-.02,.17-.03,.25,0,.09-.02,.19-.03,.28,0,.04,0,.1,0,.14,0,.06,0,.11,0,.16,0,.21,.04,.43,.1,.56,.11,.29,.26,.51,.44,.74,.08,.1,.16,.2,.24,.3,.1,.13,.21,.25,.32,.38-.02,.18-.05,.35-.06,.53,0,.1,0,.19,.01,.29-.01,0-.03,.02-.04,.03-.1,.07-.2,.13-.3,.19-.27,.4-.75,.8-.95,1.24-.02,.05-.04,.1-.05,.15-.07,.27-.06,.5,0,.7,.02,.08,.05,.16,.09,.24,.04,.07,.09,.14,.15,.22,.19,.24,.43,.46,.66,.71,.1,.11,.21,.21,.3,.31,.09,.1,.2,.19,.28,.28,.11,.11,.19,.22,.27,.32,.04,.08,.08,.16,.12,.23,0,0,0,.02,.01,.02,.03,.09,.04,.17,.04,.28,0,.09-.01,.18-.03,.29-.07,.43-.07,.83,.06,1.2,.11,.31,.32,.6,.68,.83,.09,.06,.18,.11,.27,.15,.1,.04,.19,.09,.29,.12,.04,.02,.09,.04,.14,.05,.04,.02,.09,.02,.14,.04,.09,.02,.18,.05,.27,.06,.36,.07,.74,.1,1.11,.05,.37-.04,.73-.17,1.08-.29,.06-.02,.12-.04,.18-.06,.49,.19,.98,.36,1.48,.51,.02,.04,.05,.09,.07,.13,.15,.26,.3,.53,.46,.7,.1,.1,.2,.2,.31,.29,.16,.12,.33,.24,.51,.35,.17,.11,.35,.19,.52,.27,.22,.11,.45,.19,.64,.27,.07,.03,.14,.06,.21,.08,.07,.02,.14,.06,.2,.08,.14,.05,.27,.1,.39,.17,.21,.1,.59,.27,.95,.38,.26,.09,.53,.16,.82,.22,.11,.02,.22,.04,.33,.06,.31,.04,.63,.07,.96,.05,.32,0,.65-.05,.97-.13,.35-.09,.69-.2,1-.35,.42-.19,.81-.44,1.13-.72,.12-.12,.25-.25,.36-.39,.21-.26,.28-.58,.32-.89,.01,0,.02-.01,.04-.01,.05-.01,.1-.02,.17-.04,.22-.07,.53-.42,.72-.65,.08-.11,.17-.23,.24-.37,.03-.05,.06-.1,.09-.15,.11-.01,.21-.05,.31-.12,.21-.14,.34-.32,.42-.51,0-.01,0-.02,.01-.04,.16-.17,.29-.36,.37-.56,.05-.15,.1-.31,.12-.47,0-.08,.01-.15,.02-.23,0-.03,0-.06,0-.09,0-.03,.01-.07,.02-.1,.01-.07,.02-.13,.04-.2,.04-.13,.09-.25,.15-.37,.12-.25,.26-.49,.38-.78,0-.02,.01-.03,.02-.05,.01-.03,.02-.06,.03-.09,.05-.16,.09-.3,.12-.44,.03-.12,.06-.24,.09-.39,.03-.15,.06-.29,.1-.45,.01-.07,.03-.15,.04-.21,.03-.1,.06-.18,.09-.25,.02-.04,.05-.07,.06-.1,.03-.04,.06-.08,.09-.12,.11-.17,.23-.34,.34-.51,.05-.09,.11-.17,.16-.25,.05-.09,.11-.17,.16-.26,.11-.16,.21-.34,.29-.52,.08-.16,.16-.34,.24-.51,.07-.18,.14-.38,.19-.59h0c.14-.54,.25-1.08,.28-1.64,0-.05,0-.1,0-.15,.01-.6-.01-1.2,.48-1.65,.24-.23,.51-.44,.76-.65,.2-.16,.37-.35,.53-.56,.08-.1,.15-.21,.21-.33,.06-.12,.12-.24,.16-.38,.07-.26,.1-.59,.08-.92,0-.2-.03-.38-.06-.56-.03-.15-.07-.3-.11-.43-.04-.14-.13-.32-.18-.49,.14-.34,.29-.68,.44-1.02,.1-.1,.2-.2,.3-.29,.35-.32,.73-.55,1.1-.74,.08-.04,.15-.09,.24-.12,.08-.04,.16-.07,.24-.1,.08-.05,.17-.08,.25-.11,.09-.04,.16-.07,.26-.11,.08-.03,.17-.06,.26-.1,.02,0,.05-.02,.07-.03,.02,0,.05-.02,.07-.02,.05-.02,.1-.04,.14-.05,.06-.03,.13-.06,.19-.08,.07-.03,.14-.05,.2-.09,.14-.06,.28-.12,.42-.16,.13-.06,.27-.11,.4-.16,.07-.03,.14-.05,.21-.08,.07-.03,.13-.05,.2-.07,.54-.21,1.09-.39,1.66-.56,.43-.12,.87-.23,1.31-.3,.13-.03,.27-.04,.41-.07,.21-.03,.41-.02,.59,.02,.38,.07,.71,.28,1.06,.55,.7,.56,1.41,1.1,2.13,1.57,.17,.11,.34,.21,.51,.3,.07,.04,.14,.08,.21,.12,.07,.04,.15,.08,.22,.11,.36,.18,.76,.34,1.17,.45,.2,.08,.41,.12,.62,.17,.35,.08,.71,.2,1.02,.42,.08,.06,.16,.11,.23,.18,.07,.06,.13,.14,.19,.22,.04,.05,.07,.11,.11,.16,.29,.54,.39,1.05,.3,1.6,0,.04-.02,.08-.03,.12-.13,.55-.17,.99,.13,1.5,.06,.1,.11,.21,.16,.31,.05,.1,.08,.2,.11,.3,.03,.09,.04,.2,.05,.3,0,.21-.04,.42-.18,.63-.14,.24-.3,.44-.42,.64-.1,.16-.19,.32-.25,.5-.03,.1-.06,.21-.07,.33-.04,.28,0,.54,.04,.82,.07,.38-.03,.38-.21,.67-.03,.04-.06,.1-.08,.15-.21,.47-.2,1.18-.27,1.68-.01,.1-.01,.19,0,.28,.06,.51,.43,.81,.53,1.34,.07,.38-.15,.71-.4,1.01-.12,.15-.25,.3-.35,.44-.02,.02-.03,.04-.05,.06-.08,.13-.17,.27-.23,.43-.09,.2-.16,.42-.21,.64-.09,.39-.13,.8-.14,1.2,0,.13,.01,.25,.02,.37,.04,.51,.11,.95,.29,1.41,.01,.03,.03,.07,.05,.11-.02,.2-.02,.4-.01,.6-.1,.21-.17,.42-.24,.63-.1,.28-.18,.56-.25,.86-.01,.09-.03,.17-.05,.26-.03,.17-.05,.33-.06,.48-.02,.31,0,.61,.09,.94,0,.05,.02,.1,.04,.16,.06,.19,.05,.37,0,.54-.07,.28-.24,.55-.37,.85-.03,.07-.06,.16-.08,.24-.02,.07-.04,.13-.05,.21,0,.04-.01,.07-.02,.11,0,.03-.01,.07,0,.11-.03,.15-.02,.33,.02,.5,.15,.7,.45,1.31,.86,1.82,.13,.17,.27,.31,.43,.46,.16,.16,.34,.29,.53,.42,0,0,0,0,0,0,.07,.05,.12,.08,.19,.12,.07,.04,.14,.08,.2,.13,.14,.08,.27,.16,.42,.21,.14,.06,.29,.12,.44,.17,.15,.04,.3,.07,.45,.09,.04,0,.1,.02,.15,.02,.33,.03,.65,.02,.94,.06,.14,.01,.29,.05,.41,.11,.15,.05,.28,.13,.41,.25,.13,.11,.27,.22,.39,.35,.13,.12,.25,.24,.37,.36,.35,.37,.7,.72,1.26,.89,.27,.08,.62,.12,.97,.1,.21,0,.41-.03,.61-.08,.08-.01,.15-.04,.23-.06,.08-.03,.15-.05,.21-.08,.11-.06,.25-.14,.37-.22,.12-.09,.23-.16,.33-.21,.01,0,.03-.01,.04-.01,.04-.01,.08-.02,.12-.02,.1,.01,.2,.04,.3,.04,.02,0,.04,0,.06,0,.08,.02,.15,.03,.23,.04,.17,.03,.35,.06,.51,.09,.23,.05,.46,.12,.67,.21,.21,.09,.42,.19,.62,.29,.18,.08,.35,.17,.55,.25,.1,.05,.22,.08,.32,.12,.12,.03,.24,.07,.36,.09,.06,.02,.13,.03,.19,.04,.06,.01,.13,.02,.2,.02,.13,.01,.27,.02,.41,.01,.1,0,.2-.02,.3-.03,.1-.01,.19-.02,.29-.05,.2-.05,.39-.1,.58-.18,.1-.04,.18-.08,.27-.12,.09-.05,.17-.1,.25-.15,.08-.05,.17-.1,.24-.15,.07-.06,.14-.12,.21-.18,.54-.46,.95-1.01,1.22-1.59,.21-.44,.32-.88,.41-1.32v-.06c.24-.31,.45-.64,.62-1.04,.11-.26,.2-.53,.3-.8,.62-.67,1.16-1.45,1.54-2.28,.09-.19,.17-.39,.24-.59,.06-.16,.11-.33,.17-.5,.12-.42,.18-.88,.19-1.34,0-.24,0-.47-.02-.7-.04-.38-.07-.77-.02-1.15,.02-.19,.07-.39,.15-.57,.02-.06,.05-.12,.08-.19,.3-.55,.6-.97,1.06-1.39,.04-.03,.07-.06,.1-.09,.24-.21,.44-.44,.57-.7,.13-.26,.18-.55,.15-.89-.02-.14-.04-.26-.05-.39-.02-.24-.02-.46,.04-.69,.06-.22,.16-.43,.34-.63,.2-.22,.39-.41,.56-.64,.13-.16,.24-.33,.31-.53,.05-.12,.08-.23,.11-.36,.07-.3,.03-.6-.02-.9Z"/></clipPath><clipPath id="uuid-2e6ac2ba-c451-4adc-82f5-30f51c36eec6"><path class="uuid-e0a4363b-ac19-4e44-87cc-18d02baf69d1" d="M129.12,93.67c-.15-.36-.06-.38,.06-.71,.02-.06,.04-.12,.05-.18,.11-.51-.05-1.19-.1-1.68,0-.1-.03-.19-.06-.27-.18-.48-.65-.7-.87-1.19-.15-.35,0-.72,.21-1.08,.09-.17,.2-.34,.28-.5,.01-.02,.02-.04,.03-.07,.06-.15,.12-.31,.15-.47,.05-.21,.08-.44,.09-.68,0-.4-.03-.81-.12-1.21-.03-.13-.07-.25-.11-.36-.07-.24-.15-.46-.24-.68-.1-.21-.2-.42-.34-.62-.06-.09-.12-.18-.18-.27-.06-.09-.13-.18-.2-.27l.02-.02c.18-.18,.47-.54,.58-.82,.21-.53,.29-.82,.39-1.29,.03-.15,.06-.3,.08-.42,.09-.57,.13-1.17,.02-1.84-.01-.06-.03-.13-.04-.2-.01-.03-.02-.06-.03-.09,0-.02,0-.03-.01-.05h0v-.02s0-.01,0-.01c-.04-.1-.07-.2-.1-.31-.04-.1-.07-.21-.1-.32-.03-.09-.06-.19-.09-.28-.04-.14-.09-.28-.13-.43-.02-.06-.03-.13-.05-.19-.06-.2-.11-.4-.18-.59-.12-.36-.24-.73-.39-1.11-.07-.18-.17-.37-.27-.56,0-.61-.02-1.2-.03-1.76v-.48s.04-.06,.06-.1c.15-.26,.25-.53,.3-.81,.02-.14,.04-.29,.06-.44,.02-.14,.01-.29,0-.44,0-.04,0-.07,0-.11,0-.01,0-.03,0-.05,0-.01,0-.02,0-.03h0v-.02s.01,.03,0,.02t0,0c0-.07,0-.13,0-.19,0-.03,0-.07,0-.09,0-.04,.21-.1,.27-.15,.05-.04,.1-.08,.16-.14,.05-.05,.1-.12,.15-.18,.04-.07,.08-.13,.12-.2,.02-.04,.03-.08,.04-.1,.01-.03,.02-.06,.03-.09,.02-.06,.04-.14,.05-.19,.02-.1,.04-.22,.05-.33,0-.09,.01-.18,.01-.27,0-.05,0-.09,0-.12,0-.04,0-.08,0-.12,0-.04,0-.08-.01-.11,0-.02,0-.05,0-.06h0s0,.02,0,.03c0,0,0-.01,0-.02,0,0,0,0,0-.02-.01-.06-.01-.13-.02-.19,0-.04,0-.06-.01-.09,0-.04,0-.06,0-.08,0-.05,0-.1,0-.15,0-.05-.01-.1-.01-.16-.01-.12-.02-.24-.04-.36,0,0,0-.01,0-.02-.02-.16-.07-.32-.13-.48-.11-.29-.25-.56-.33-.87,0-.05-.03-.11-.03-.18,0-.02,0-.05,0-.07,0-.06,0-.12-.01-.19,0-.04,0-.08,0-.13,0-.02,0-.04,0-.06,0,0,0-.02,0-.04,0,0,0,0,0-.02h0s0-.08,.01-.11c0-.03,.01-.06,.02-.09,.03-.15,.07-.3,.11-.45,.05-.22,.09-.45,.1-.68,0-.45-.01-1.06-.21-1.53-.04-.09-.09-.18-.15-.27,0-.02-.02-.03-.03-.05-.1-.14-.3-.2-.45-.28-.09-.05-.19-.09-.25-.16-.2-.22-.04-.51-.02-.77,0-.16,0-.33-.03-.48-.01-.06-.02-.13-.04-.18-.01-.07-.04-.13-.06-.19-.04-.13-.11-.25-.17-.37-.04-.06-.09-.12-.13-.18-.04-.07-.09-.12-.14-.17-.06-.06-.11-.12-.19-.18-.07-.06-.14-.11-.22-.16-.08-.05-.16-.09-.25-.13-.06-.02-.12-.04-.19-.06-.03-.03-.06-.07-.09-.11-.08-.11-.15-.31-.24-.5,0-.1,0-.2,0-.32,0-.1-.02-.19-.04-.28-.12-.46-.36-.83-.62-1.16-.21-.26-.45-.52-.74-.72-.04-.02-.08-.06-.12-.09-.05-.03-.09-.05-.13-.07-.17-.11-.34-.19-.52-.25-.35-.12-.71-.15-1.07-.09-.06,.02-.12,.02-.18,.04-.22,.06-.4,.05-.59,.02-.31-.05-.64-.17-.99-.25-.09-.02-.18-.03-.27-.04-1.03-.11-2.04-.06-2.97,.12-.1,.02-.19,.03-.29,.05-.09,.02-.18,.04-.28,.06-.1,.02-.2,.04-.3,.06-.1,.02-.21,.04-.32,.06,0,0-.01,0-.01,0-.38,.09-.79,.14-1.21,.2-.63-.01-1.28,0-1.89,.11-.09,.01-.13,.14-.21,.17-.03,0-.07,0-.1,0-.08-.02-.16-.07-.22-.05-.01,0-.02,0-.04,0-.09-.02-.18-.04-.28-.08-.09-.03-.18-.05-.27-.07-.1-.03-.19-.07-.29-.08-.1-.02-.2-.04-.31-.06-.05-.01-.11-.02-.15-.03-.05,0-.1,0-.15-.02-.07,0-.14-.01-.21-.02-.04,0-.07,0-.11-.01h-.01s-.03,.01-.03,0h-.02s-.02,0-.02,0c-.01,0-.03,0-.05,0-.14,0-.28,0-.41,0-.28,.01-.56,.06-.85,.16-.29,.1-.62,.28-.93,.49-.18,.12-.36,.26-.51,.4-.14,.12-.26,.25-.36,.36-.18,.22-.33,.56-.52,.74-.02,0-.03,.02-.05,.03-.22,.17-.51,.16-.77,.24-.17,.06-.34,.13-.5,.23-.23,.15-.44,.35-.59,.62-.03,.06-.07,.13-.1,.2-.03,.07-.06,.14-.08,.22-.02,.03-.03,.08-.03,.11-.01,.04-.02,.07-.03,.11,0,.03-.01,.06-.02,.09,0,.01,0,.03-.01,.05,0,0,0,.01,0,.03h0s0,0,0,.02c0,0,0,0,0,0h0c-.03,.11-.05,.21-.08,.32-.03,.11-.04,.22-.07,.32-.1,.47-.17,.96-.17,1.49,0,.73,.06,1.45,.17,2.16,.03,.17,.06,.35,.1,.52,.03,.18,.08,.36,.12,.53,.04,.18,.1,.34,.15,.5,0,.02,0,.04,.02,.06,0,0,0,.01,0,.02h0v.02h0s0,0,0,0h0s0,.03,0,.03c.02,.04,.03,.08,.04,.12,.04,.08,.07,.16,.09,.24,.09,.24,.2,.47,.29,.71,.08,.24,.17,.47,.26,.71h0c-.05,.14-.09,.26-.1,.38,0,.07,0,.2,.01,.38,.01,.23,.04,.54,.06,.93,.01,.15,.03,.34,.05,.51-.02,.06-.04,.12-.06,.19-.18,.47-.36,.95-.52,1.43-.08,.25-.15,.49-.2,.74-.06,.26-.11,.51-.14,.77-.03,.23-.04,.46-.06,.69,0,.05,0,.1,0,.15,0,.02,0,.05,0,.07,0,.01,0,.01,0,.02,0,0,0,.02,0,.03,0,.01,0,.03,0,.04,0,.1,.01,.19,.02,.29,.05,.49,.14,1.02,.33,1.49,.1,.24,.21,.48,.32,.69,.06,.09,.1,.18,.16,.28,.05,.09,.1,.18,.15,.27,.1,.19,.19,.38,.26,.58,.07,.2,.12,.41,.14,.63,0,.08,.02,.15,.02,.22,.01,.69-.06,1.25-.26,1.9-.02,.04-.03,.08-.04,.13-.22,.65-.25,1.28,.14,1.89,.08,.12,.15,.24,.23,.36,.25,.44,.43,.88,.26,1.45-.1,.3-.19,.58-.26,.86-.03,.11-.05,.22-.06,.32,0,.03,0,.06-.01,.08h0s0,.02,0,.03c0,0,0,.02,0,.04,0,.06,0,.12,0,.18,0,.13,0,.27,.03,.41,.06,.34,.2,.64,.35,.91,.22,.39,.13,.43,.06,.82-.01,.06-.02,.12-.02,.19-.01,.29,.04,.61,.12,.92,.03,.16,.08,.32,.12,.47,.04,.16,.07,.31,.1,.46,.02,.11,.05,.21,.09,.3,.05,.14,.12,.24,.21,.34,.04,.05,.08,.1,.12,.14,.03,.03,.05,.05,.07,.08,0,0,0,0,0,0t0,0s0-.02,0,0c0,0,0,0,.01,.02,.01,0,.02,.02,.04,.04,.18,.19,.37,.38,.51,.66,.02,.04,.03,.09,.04,.13,.02,.14,.03,.28,.05,.42,0,.02,0,.04,0,.05-.02,.21-.09,.42-.16,.63-.07,.21-.15,.4-.21,.6,0,.01,0,.02-.02,.04h0s0,.02,0,.02h0s0,.03,0,.03c-.05,.16-.08,.34-.09,.54-.01,.25,0,.52,.04,.82,0,.07,.02,.15,.04,.22,0,.04,.02,.08,.03,.12,0,.04,.02,.07,.03,.12,.02,.06,.04,.12,.06,.19-.03,.03-.06,.05-.09,.08-.02,.03-.03,.06-.05,.09,0,.01-.02,.05-.03,.07,0,.03-.02,.06-.02,.08,0,.02,0,.03,0,.05,0,.01,0,.01-.01,.02,0,.01,0,.02-.01,.03h0s0,.02,0,.02c0,.02-.01-.05,0,.05v.02s-.02,.02-.02,.03c-.04,.08-.07,.16-.08,.25,0,.03-.01,.06-.01,.09-.01,.1-.02,.2-.02,.3,0,.22,.06,.43,.18,.64,.02,.04,.04,.08,.08,.12,.1,.14,.22,.28,.4,.43,.1,.08,.24,.18,.38,.29,.02,.01,.02,.03,.04,.04-.03,.16-.07,.32-.13,.46-.18-.04-.39-.11-.55-.16-.19-.05-.33-.11-.4-.18h0s.01,.01,.02,.02c0,.01,.01,.02,.02,.03,0,.01,.01,0,.02,0,0,0,.02,0,.02,0h0s-.01,0-.02,0c-.02,0-.03,0-.05,0h0s0,0-.01,0h0v-.08h-.01c-.02-.11-.03-.18-.03-.21h0s0-.02,0,0h-.02s-.02-.01-.02-.02c-.02,0-.03,0-.05-.01-.05,0-.08,.05-.14,.13-.03,.04-.06,.08-.1,.12-.03,.04-.08,.07-.12,.11-.06,.05-.12,.07-.19,.09,0,0-.02,0-.03,0-.03,0-.05-.01-.07-.03-.12-.08-.13-.36-.17-.53-.03-.1-.05-.21-.07-.31-.05-.19-.1-.37-.17-.52-.07-.13-.2-.25-.4-.33-.09-.03-.2-.05-.3-.07-.04-.01-.08-.02-.12-.02-.19-.03-.34-.06-.53-.06,0-.03-.01-.06-.03-.08-.14-.2-.29-.41-.43-.61-.15-.21-.3-.41-.45-.61h.01c.11-.14,.21-.26,.28-.39,.14-.22,.18-.46,.13-.67,0-.02,0-.04,0-.07h0s0,0,0-.02c0,0,0,0,0,0,0,0,0-.01-.01-.02,0-.01,0-.03-.01-.04-.01-.06-.04-.1-.07-.15-.05-.09-.1-.19-.17-.27-.1-.12-.2-.21-.31-.31-.02-.02-.04-.03-.06-.05-.08-.06-.14-.11-.19-.18-.06-.06-.11-.12-.16-.18-.15-.21-.23-.44-.24-.76,0,0,0-.02,0-.03-.01-.32-.08-.78-.45-.9-.06-.02-.11-.03-.18-.03-.08,0-.17,0-.26,.04-.14,.03-.27,.1-.38,.16-.09,.04-.16,.07-.21,.06,0-.03,0-.06-.01-.07-.02-.03-.04-.06-.05-.08,.01-.13,.1-.31,.15-.46,.02-.05,.02-.11,.02-.15,0-.04,0-.07,0-.1-.02-.12-.07-.22-.13-.3-.08-.11-.21-.22-.4-.26-.11,0-.21-.02-.31-.02-.04,0-.09,0-.13-.01-.12-.19-.24-.39-.37-.59,0-.03,.02-.07,.02-.1,.03-.12,.06-.26,.08-.42,.01-.09,0-.18,0-.27,0-.11-.04-.22-.06-.32-.03-.1-.06-.2-.1-.3-.08-.19-.17-.38-.27-.54-.15-.28-.33-.54-.53-.79-.06-.08-.12-.15-.18-.22-.12-.14-.24-.25-.37-.36-.25-.23-.51-.4-.83-.55-.05-.03-.1-.05-.16-.08-.09-.04-.16-.09-.23-.14-.13-.19-.26-.39-.38-.58-.01-.03-.03-.05-.04-.08-.06-.16-.1-.32-.14-.48,0-.02-.01-.04-.02-.06,0,0-.01-.02,0-.03,0,0-.01-.03-.01-.03-.01-.04-.02-.08-.04-.12-.15-.44-.28-.88-.44-1.3-.08-.21-.16-.42-.26-.62-.08-.21-.19-.41-.3-.61-.1-.18-.21-.35-.33-.53-.13-.19-.27-.37-.43-.54l-.02-.02c-.38-.4-.78-.84-1.25-1.23-.05-.03-.08-.07-.12-.09-.26-.21-.53-.41-.73-.64-.21-.24-.36-.51-.41-.86-.02-.17-.05-.36-.06-.54,0-.1-.02-.19-.03-.28,0-.09-.03-.18-.04-.27,0-.07-.02-.13-.03-.2,0-.04-.01-.07-.02-.1v-.02h0s0,0-.01-.03h0s0-.02,0-.02v-.05c-.04-.14-.08-.26-.13-.39-.09-.26-.22-.5-.41-.73-.18-.22-.46-.46-.76-.65-.17-.12-.36-.22-.53-.31-.15-.08-.31-.15-.45-.19-.23-.07-.58-.11-.79-.25-.11-.15-.21-.29-.32-.44-.04-.12-.07-.24-.11-.36-.05-.17-.1-.35-.15-.52-.14-.49-.27-.98-.44-1.44-.04-.11-.08-.2-.12-.31-.04-.1-.08-.2-.12-.3-.18-.43-.4-.85-.7-1.25-.41-.57-.86-1.09-1.34-1.57-.24-.24-.48-.47-.74-.69-.06-.06-.13-.11-.19-.17-.03-.03-.06-.05-.09-.08-.04-.03-.07-.06-.11-.08-.14-.1-.28-.2-.41-.3-.11-.08-.2-.14-.31-.21-.11-.06-.22-.12-.32-.18-.11-.06-.21-.12-.32-.18-.11-.06-.22-.1-.33-.16-.13-.07-.26-.13-.39-.2-.08-.09-.16-.19-.24-.27-.27-.3-.5-.54-.71-.76-.07-.17-.12-.34-.17-.53-.11-.46-.24-.93-.41-1.39-.17-.46-.39-.91-.68-1.32-.13-.19-.28-.38-.45-.55-.14-.14-.28-.28-.45-.41-.4-.32-.92-.56-1.45-.65-.07,0-.14-.01-.21-.03-.07,0-.14,0-.2-.01-.14,0-.27,0-.39,.02-.42,.05-.84,.17-1.22,.27-.04,.02-.09,.03-.14,.04h-.03c-.07-.02-.14-.04-.22-.07-.29-.13-.55-.3-.83-.44-.25-.13-.5-.24-.78-.27-.01,0-.02,0-.03,0-.13-.1-.26-.19-.4-.31-.04-.03-.07-.06-.11-.08-.13-.11-.27-.21-.42-.28-.04-.03-.08-.04-.12-.06-.03-.02-.07-.03-.1-.05-.08-.02-.14-.05-.22-.07-.03,0-.05-.01-.08-.02l-.07-.02s-.09,0-.14-.02c-.04,0-.09,0-.13,0-.05,0-.09,0-.14,0-.09,0-.18,.02-.27,.04-.09,.03-.18,.05-.28,.09-.15,.05-.29,.13-.42,.19-.49,.22-.92,.4-1.51,.28-.31-.07-.6-.14-.87-.18-.21-.04-.43-.05-.65-.03-.12,0-.25,.03-.38,.07-.3,.08-.56,.23-.81,.38-.35,.21-.42,.13-.77,.06-.06-.01-.12-.02-.19-.02-.59-.03-1.33,.26-1.89,.4-.12,.03-.22,.07-.3,.12-.51,.27-.67,.77-1.16,1.1-.08,.05-.16,.09-.25,.11-.03,0-.05,.02-.08,.02-.28,.07-.59,.02-.9-.03-.21-.03-.42-.09-.63-.1-.03,0-.06,0-.09-.01-.18-.02-.37,0-.56,.02-.25,.04-.52,.1-.78,.19-.45,.16-.9,.41-1.29,.71-.13,.11-.24,.2-.34,.31-.44,.43-.78,.91-.9,1.47-.03,.11-.04,.24-.06,.37,0,.09,0,.18,0,.27-.08,.17-.17,.33-.25,.5-.05,.12-.07,.26-.09,.39h-.01c-.14,.08-.29,.14-.46,.23-.09,.06-.18,.12-.27,.19-.41,.36-.68,.84-.78,1.34-.09,.39-.09,.79-.1,1.17,0,.11,0,.22,0,.32,0,.21,0,.41,.01,.6,0,.1,.01,.19,.01,.29,0,.1,.01,.19,.02,.29,.01,.19,.05,.39,.1,.58,.02,.07,.06,.13,.1,.18,.04,.04,.08,.09,.12,.13,.04,.05,.07,.08,.1,.12,.06,.08,.1,.17,.1,.28-.02,.36-.72,1.01-.78,1.41-.01,.1-.02,.2-.02,.3,0,1.12,.26,2.11,.17,3.06-.01,.1-.02,.2-.03,.3-.02,.13-.03,.25-.04,.38,0,.02,0,.04,0,.06h0s0,.09-.01,.12c0,.06,0,.14-.02,.21,0,.14,0,.29,0,.43,0,0,0,.02,0,.02,0,.74,.07,1.47,.24,2.18l.04,.18c.1,.38,.22,.75,.26,1.12,.04,.37,.02,.75-.14,1.14-.16,.4-.37,.78-.55,1.17-.27,.59-.51,1.19-.51,1.92,0,.37,.07,.78,.18,1.2,.06,.23,.15,.47,.23,.68,.08,.19,.16,.36,.24,.51,.15,.26,.42,.56,.51,.86,0,.02,0,.04,0,.07,.06,.33-.08,.65-.18,.97-.06,.2-.12,.41-.18,.62-.17,.59-.35,1.17-.48,1.75-.06,.25-.11,.51-.15,.77-.1,.56-.14,1.14-.13,1.76,.03,.85,.13,1.69,.26,2.49,.07,.4,.14,.79,.22,1.18,.07,.39,.15,.78,.24,1.16,.12,.51,.25,.99,.38,1.48,0,.91,0,1.84,0,2.77-.02,.07-.04,.13-.06,.21-.4,1.09-.75,2.2-.94,3.37-.05,.27-.07,.54-.1,.81-.01,.22-.03,.45-.03,.68,0,.56,.06,1.15,.17,1.72,.03,.15,.06,.29,.11,.44,.04,.14,.09,.28,.14,.41,.17,.45,.33,.91,.42,1.39,.04,.24,.08,.49,.08,.74,0,.08,0,.17-.01,.25-.06,.8-.19,1.44-.45,2.15-.02,.05-.03,.1-.05,.14-.29,.71-.37,1.43-.06,2.19,.07,.15,.13,.3,.19,.45,.1,.27,.19,.54,.22,.83,.03,.27,.01,.58-.1,.9-.11,.34-.24,.66-.31,.99-.06,.25-.1,.5-.11,.78,0,.15,0,.31,.03,.49,.06,.39,.21,.73,.36,1.08,.22,.46,.13,.51,.06,.94-.01,.07-.02,.15-.02,.22,0,.09,0,.17,0,.27,0,.09,.01,.18,.03,.27,.02,.18,.06,.4,.11,.6,.01,.05,.03,.11,.05,.17,.02,.06,.03,.12,.05,.18,.03,.11,.07,.25,.1,.32,.03,.09,.06,.17,.1,.26,0,.02,.01,.04,.02,.06,0,0,0,0,0,.01,0,.01,0,.03,.01,.05h0s0,.02,0,.03c0,0,0,.02,.01,.03,.02,.06,.04,.1,.06,.14,.03,.07,.06,.14,.1,.2,.04,.06,.07,.11,.1,.15,.05,.07,.1,.12,.15,.17,.05,.05,.1,.09,.15,.13,.05,.04,.1,.08,.16,.11,.06,.03,.1,.05,.15,.09,0,0,.02,.01,.03,.02,.01,.02,.02,.03,.04,.04,.02,.03,.06,.05,.09,.08,.01,0,.02,.03,.03,.04,0,0,0,0,0,0-.01-.04,0-.01,0-.02h.01s.01,.02,.01,.03c.03,.03,.05,.05,.07,.08,.09,.12,.19,.24,.24,.4,.01,.03,0,.05,.02,.08-.01,.05-.03,.1-.02,.17,.01,.13,.01,.27,0,.45,0,.05,0,.1,0,.15-.05,.19-.12,.37-.19,.56-.05,.12-.1,.23-.14,.34-.04,.12-.09,.23-.12,.35,0,.03-.02,.07-.03,.11-.02,.1-.04,.23-.06,.34,0,.11-.02,.21-.03,.32,0,.02,0,.03,0,.05,0,.01,0,.02,0,.03h0s0,.03,0,.04c0,0,0,0,0,.01,0,0,0,0,0,.01,0,.03,0,.07,0,.11,0,.07,.01,.15,.01,.22,.01,.15,.03,.32,.05,.48,.09,.55,.28,1.16,.61,1.71,.1,.16,.24,.35,.36,.49,.03,.04,.07,.08,.1,.12,.03,.03,.06,.06,.09,.09,.06,.05,.12,.11,.18,.16,.01,.01,.03,.03,.05,.04,0,0,.01,.02,.02,.02,0,0,0,0,.01,.01,0,0,.05,.06,.03,.03h0s0,.01,0,.01c.03,.02,.06,.05,.1,.07,.07,.05,.13,.1,.2,.15,.27,.18,.55,.33,.85,.44h0s0,.1,.02,.15c.01,.09,.03,.18,.06,.26,.03,.08,.06,.16,.1,.22,.27,.49,.46,.72,.79,1.05,.1,.11,.21,.2,.31,.28,.44,.36,.95,.66,1.51,.86,.44,.16,.91,.24,1.37,.28,.09,0,.17,0,.26,0,.04,0,.09,0,.13,0h0s.03,0,.05,0c0,0,0,0,.01,0,0,0,.02,0,.03,0,.02,0,.03,0,.05,0,.07,0,.13-.02,.2-.02,.03,0,.05,0,.08-.01,.03,0,.06,0,.09-.01,.06-.02,.12-.03,.18-.04,.06-.01,.12-.03,.18-.04,.05-.01,.1-.03,.15-.05,.38-.13,.7-.31,1.03-.5,.08-.05,.16-.11,.24-.16,.08-.06,.17-.12,.26-.17,.1-.07,.21-.12,.32-.18,.02,0,.04-.02,.06-.03,.51-.03,1.02-.04,1.52-.06,.08,.07,.17,.16,.31,.25,.24,.14,.49,.25,.73,.35,.24,.1,.49,.16,.73,.24,.05,.02,.1,.03,.16,.06,.23,.07,.43,.14,.64,.21,.22,.07,.45,.13,.69,.19,.47,.11,.97,.18,1.53,.15,.07,0,.14,0,.21-.02,.06,0,.14-.02,.21-.03,.07-.01,.15-.02,.21-.03,.01,0,.04,0,.05-.02,0,0,.02,0,.02,0h0s.04,0,.06,0t0,0s0,0,.02,0c.02-.01,.05-.02,.08-.03,.02,0,.03,0,.03,0,.08-.03,.14-.06,.22-.1,.1-.04,.19-.1,.27-.16,.17-.11,.26-.22,.38-.32,.12-.1,.22-.2,.34-.28,.05-.03,.09-.06,.14-.09,.02,0,.04-.02,.06-.03,.05-.02,.1-.04,.14-.06,.14-.05,.27-.07,.4-.08,.13,0,.27-.02,.38,.01,.05,0,.09,0,.13,.01,.02,0,.04,0,.06,0,.03,0,.05,0,.08,0,.1,0,.21,0,.32-.02,.11-.01,.23-.04,.36-.06,.06-.01,.13-.03,.2-.05,.07-.02,.14-.04,.21-.06,.07-.02,.14-.06,.22-.09,.07-.04,.14-.07,.21-.11,.14-.08,.27-.19,.39-.3,.09-.08,.16-.19,.22-.29,.02-.02,.03-.04,.04-.06,.02-.05,.04-.09,.05-.13,0-.05,.01-.1,0-.14,0-.1-.02-.19-.04-.27-.01-.11-.02-.2,0-.29,.02-.15,.1-.23,.22-.3,.11-.06,.24-.1,.34-.17,.12-.08,.24-.17,.35-.27,.08-.09,.16-.18,.23-.27,.07-.12,.14-.24,.19-.36,.01-.02,.02-.04,.03-.06,0,0,0-.01,0-.02,0,0,0-.03,0-.04,.01-.02,.02-.05,.03-.08,0-.05,.02-.1,.04-.16,.07-.37,.04-.69-.07-.97-.04-.11-.08-.17-.12-.22-.03-.05-.07-.1-.14-.19,0,0-.01-.02-.03-.03-.1-.11-.43-.31-.58-.36-.02,0-.03,0-.05-.01,.02-.15,.03-.3,.04-.45,.07-.03,.13-.06,.16-.08,.14-.08,.28-.2,.41-.33,.1-.11,.22-.28,.31-.48,.08-.21,.15-.44,.16-.63,0-.09,.01-.17,.01-.25,0-.04,0-.08,0-.12,0-.01,0-.03-.01-.05h0s0-.01,0-.02c0,0,0-.02,0-.03,0-.01,0-.03,0-.04,0-.05-.03-.18-.06-.28,0-.03-.02-.05-.02-.08,0-.02-.02-.04-.02-.05-.01-.04-.04-.08-.05-.12-.14-.29-.29-.51-.47-.74-.11-.14-.22-.27-.3-.37-.1-.11-.17-.21-.24-.31-.02-.02-.03-.04-.04-.06-.01-.02-.02-.04-.03-.06,0-.02-.02-.04-.03-.05,0-.02,0-.03-.01-.05-.01-.02-.02-.02-.02-.03,0,0,0-.01,0-.01h0v0c0-.08-.02-.15-.03-.23-.02-.09-.01-.13-.01-.18,0-.03,0-.06,0-.08,0-.03,0-.05,0-.09-.01-.43,.02-.91,0-1.47,0-.1,0-.2-.01-.3,0-.11-.02-.21-.03-.33-.02-.08-.04-.16-.04-.24-.05-.24-.11-.48-.17-.72-.13-.45-.29-.88-.49-1.31-.09-.2-.22-.4-.34-.61l-.02-.04c-.07-.77-.15-1.64-.24-2.57,.01-.03,.03-.05,.04-.08,.25-.6,.32-1.24,.38-1.88,0-.07,.02-.14,.02-.21,.02-.28,.04-.56,.06-.84,.02-.28,.03-.55,.05-.83,0-.14,0-.27,.01-.41,.01-.15,.01-.27,.02-.41,0-.07,0-.14,0-.21,0-.03,0-.07,0-.1,0-.04,0-.08,0-.13,0-.14,0-.29,0-.43-.02-.29-.04-.58-.08-.87,0-.01,0-.02,0-.03-.03-.19-.09-.38-.16-.55-.12-.32-.28-.63-.36-.96-.01-.06-.02-.13-.03-.19,0-.03-.01-.06-.01-.09-.02-.07-.02-.13-.02-.2,0-.35,.06-.7,.13-1.06,.04-.26,.08-.52,.08-.79,0-.25,0-.55-.02-.85v-.11h-.01s0-.02,0-.02h0s0,0,0,0h0s0-.05,0-.06c0-.07-.02-.15-.03-.22-.03-.15-.06-.28-.1-.41-.04-.11-.08-.21-.13-.3-.01-.02-.02-.04-.03-.06-.1-.16-.27-.25-.42-.36-.09-.06-.17-.13-.22-.22-.16-.28,.06-.55,.14-.81,.05-.17,.09-.34,.11-.5,.02-.12,.03-.25,.04-.37,.02-.27,0-.54-.03-.8-.05-.3-.12-.6-.23-.9-.08-.25-.11-.26-.23-.5,0-.01,0-.03-.03-.04-.08-.13-.33-.38-.5-.48-.02-.23-.04-.47-.06-.7,.16-.14,.36-.35,.42-.53,.14-.36,.19-.55,.24-.85,.01-.1,.03-.19,.03-.27,.05-.36,.05-.72,.02-1.07-.01-.28-.04-.57-.09-.86-.02-.1-.04-.21-.05-.31-.01-.05-.02-.09-.03-.13-.03-.15-.07-.29-.12-.43-.05-.13-.1-.25-.17-.38-.06-.13-.14-.26-.22-.38-.01,0-.01-.01-.02-.02h0s0,0,0,0t0,0h0s-.02-.03-.03-.04c-.02-.03-.05-.06-.08-.09-.05-.06-.1-.11-.15-.18-.06-.07-.11-.15-.16-.23-.03-.06-.05-.11-.07-.16,0-.14-.02-.27-.03-.39,0-.14-.02-.27-.02-.39,.02-.06,.06-.11,.12-.14,.11-.07,.27-.12,.44-.22,.19-.13,.35-.27,.48-.43,.06-.07,.1-.15,.15-.23,.02,.04,.08,.11,.16,.19,.08,.08,.18,.16,.28,.26,.1,.09,.22,.19,.34,.27,0,0,0,0,.02,0,.08,.06,.18,.09,.29,.11,.2,.06,.42,.09,.58,.18,.03,.02,.06,.04,.09,.06,0,.02,.02,.03,.03,.04,.03,.02,.05,.06,.07,.09,.11,.16,.15,.37,.19,.58,.03,.15,.07,.29,.12,.42,.06,.13,.13,.26,.21,.39,.09,.14,.21,.27,.34,.36,.05,.04,.12,.07,.19,.09,0,0,.03,0,.04,.01,.12,.03,.29-.01,.44-.04,.09-.02,.18-.03,.24-.01,.21,.05,.1,.31,.1,.47,0,.05,0,.1,0,.15,0,.02,0,.05,0,.07,0,.01,0,.02,0,.04h0v.03h0s0,0,0,0h0c.02,.08,.03,.16,.05,.23,.05,.15,.14,.27,.23,.4,.05,.07,.12,.13,.19,.19,.07,.06,.16,.12,.24,.17,.14,.09,.17,.08,.34,.14,0,0,.02,0,.03,0,.08,.02,.24,.01,.39,0,.13,.21,.27,.44,.42,.68-.04,.2-.08,.39-.13,.62,0,.08,0,.16,0,.24,.04,.39,.18,.7,.31,1,.11,.24,.22,.48,.36,.71,.02,.03,.04,.07,.06,.11,.01,.03,.04,.06,.05,.1,.08,.13,.17,.25,.26,.35,.08,.11,.2,.2,.3,.29,.12,.1,.23,.19,.37,.25,.05,.03,.09,.05,.14,.07,.17,.07,.27,.19,.36,.32,.13,.22,.18,.52,.27,.79,.01,.07,.04,.14,.07,.21,.15,.38,.3,.75,.45,1.1,.04,.09,.08,.18,.12,.26,.04,.09,.08,.17,.11,.25,.05,.08,.09,.17,.13,.24,.01,.03,.02,.04,.03,.06,0,0,0,0,.01,.01-.01-.01,0,.03-.02-.02,0,0,0,0,0,0,0,.01,.02,.02,.02,.03,.02,.05,.05,.09,.07,.13,.02,.04,.05,.08,.07,.11,.02,.04,.03,.07,.04,.1,.03,.06,.06,.12,.11,.18,.09,.16,.2,.31,.32,.47,0,0,0,.01,.01,.02,.31,.4,.7,.83,1.21,1.11,.05,.03,.09,.05,.13,.07,0,0,.02,.01,.03,.01h.02s-.02-.01-.01,0h0s0,0,.01,0c.02,.01,.03,.01,.05,.02,.04,.01,.07,.03,.11,.04,.06,.02,.13,.06,.19,.09,.12,.07,.25,.13,.35,.22,.2,.17,.36,.4,.39,.71,.03,.32,.02,.64,.04,.97,0,.23,.03,.47,.08,.7,.03,.11,.07,.23,.11,.33,.04,.1,.09,.21,.16,.31,.07,.1,.16,.19,.26,.29,.1,.1,.22,.2,.34,.29,.14,.1,.3,.21,.45,.29,.13,.07,.26,.14,.39,.19,.22,.08,.57,.13,.75,.27,.02,0,.02,.02,.04,.03,.17,.17,.16,.43,.2,.66,.02,.16,.04,.31,.07,.46,.04,.22,.08,.44,.12,.65,.05,.22,.11,.43,.17,.64,.03,.09,.06,.19,.1,.27,.02,.07,.06,.17,.09,.25,.07,.19,.16,.36,.26,.55,.09,.18,.2,.35,.33,.52,.35,.47,.74,.92,1.17,1.32,.43,.41,.88,.77,1.36,1.09,.19,.12,.37,.24,.55,.34,.19,.1,.37,.2,.56,.3,.03,0,.05,.03,.08,.04,.02,0,.03,.01,.04,.02h0s0,0,0,0h.02c.32,.45,.64,.87,.96,1.29,.02,.08,.04,.14,.05,.22,.07,.42,.12,.84,.2,1.24,.04,.21,.1,.41,.15,.61,.06,.2,.13,.4,.21,.6,.08,.18,.17,.36,.28,.53,.02,.04,.04,.07,.06,.1,.01,.02,.02,.03,.03,.05,0,0,.01,.02,.01,.03,.02,0,.02,.03,.03,.04,.05,.07,.1,.13,.14,.19,.13,.16,.26,.31,.42,.44,.08,.07,.15,.14,.24,.2,.08,.06,.18,.13,.27,.18,.19,.12,.38,.23,.57,.31,.17,.07,.33,.14,.48,.22,.16,.08,.32,.16,.46,.26,.14,.1,.27,.22,.39,.36,.03,.05,.07,.1,.1,.15,.3,.48,.49,.9,.61,1.47,0,.04,.02,.08,.03,.12,.1,.58,.36,1.03,.95,1.24,.12,.04,.23,.08,.35,.12,.41,.15,.75,.35,.9,.84,.08,.27,.14,.5,.23,.73,.07,.17,.15,.33,.27,.49,.07,.09,.14,.17,.23,.25,.22,.17,.48,.28,.74,.37,.09,.02,.15,.05,.2,.08,.02,.01,.04,.03,.06,.04,0,0,.01,.01,.02,.02,.01,.01,.02,.02,.03,.03h0s0,0,0,.01c0,0,.02,.01,.03,.02,.03,.03,.05,.07,.07,.13,.03,.06,.08,.13,.16,.22,.02,.03,.05,.06,.08,.08,.02,.03,.05,.04,.07,.07,.11,.1,.24,.2,.38,.27,.15,.07,.3,.14,.46,.19,.32,.11,.64,.16,.91,.24,.11,.02,.21,.02,.31,.03,.14,0,.26-.04,.37-.08,.12-.05,.23-.11,.33-.17,.11-.07,.22-.13,.32-.18,.11-.06,.22-.12,.35-.16,.09-.03,.18-.04,.26-.03,.05,0,.09,0,.13,.02,.05,0,.09,.02,.13,.02,.17,.05,.35,.15,.52,.25,.17,.11,.34,.19,.51,.26,.02,.02,.04,.02,.07,.02,.15,.05,.33,.11,.5,.12,.23,.02,.47,.02,.71-.01,.21-.03,.41-.09,.61-.15,.2-.07,.4-.14,.58-.24,.12-.07,.22-.14,.32-.21,.43-.27,.76-.6,1.02-.99,.06-.08,.11-.17,.17-.26,.05-.09,.09-.19,.14-.29,.08-.04,.16-.09,.24-.12,.06-.02,.12-.06,.17-.1,.09-.06,.18-.12,.27-.13,.12-.02,.22,.11,.34,.1,.07,0,.13,0,.2,0,.02,0,.04,0,.05,0,.06,.04,.12,.09,.19,.13,.1,.07,.22,.14,.35,.22,.07,.04,.16,.07,.23,.1,.42,.11,.81,.08,1.17,.05,.3-.02,.58-.08,.88-.15,.09-.02,.17-.04,.26-.07,.16-.04,.31-.09,.45-.15,.28-.11,.54-.26,.8-.46,.04-.03,.08-.07,.13-.11,.15-.13,.32-.18,.5-.21,.28-.03,.59,.02,.91,.06,.08,0,.16,0,.25,0,.22,0,.44,.01,.66,0,.11,0,.23,0,.33-.01,.1,0,.2-.01,.31,0,.02,0,.05,0,.08,0h.01s0,0,0,0h0s-.01,0,.03,0h0s.03,0,.04,0c.06,0,.11,0,.16-.02,.15-.04,.32-.08,.44-.14,.13-.05,.25-.11,.37-.18,.11-.07,.23-.14,.33-.23,.19-.16,.36-.32,.5-.5,.15-.2,.28-.41,.38-.62,0-.02,0-.02,0-.02,.25-.57,.37-1.15,.37-1.74,0-.05,0-.09,0-.14-.04-.63-.16-1.2,.28-1.72,.21-.27,.46-.51,.68-.79,.33-.4,.63-.81,.71-1.35,.05-.26,.02-.6-.04-.93-.03-.19-.09-.38-.15-.55-.06-.16-.12-.3-.19-.42-.12-.22-.37-.48-.42-.71,0-.02,0-.03-.01-.05-.04-.25,.13-.48,.25-.7,.07-.15,.14-.3,.21-.45,.21-.43,.39-.87,.55-1.31,.07-.18,.13-.38,.18-.56,.12-.42,.19-.85,.19-1.32,.01-.64-.04-1.27-.13-1.9-.09-.6-.22-1.2-.38-1.79-.12-.44-.26-.86-.4-1.28-.04-.13-.08-.25-.12-.37,0-.04,0-.09,0-.13,0-.2,0-.57,0-1.07,.05-.16,.11-.33,.19-.51,.09-.21,.18-.42,.26-.63,.08-.21,.15-.42,.22-.63,.14-.42,.25-.86,.32-1.31,.03-.2,.05-.41,.07-.62,.01-.17,.02-.34,.01-.51,0-.43-.09-.88-.22-1.3-.06-.22-.15-.43-.24-.63-.16-.33-.31-.68-.39-1.05-.04-.18-.06-.38-.05-.56,0-.07,0-.13,.02-.19,.11-.6,.26-1.08,.56-1.62,.02-.03,.05-.07,.06-.1,.32-.54,.46-1.08,.18-1.66-.06-.12-.12-.24-.16-.35-.18-.42-.29-.82-.03-1.31,.13-.26,.27-.49,.37-.73,.08-.18,.14-.36,.17-.57,.02-.11,.02-.23,.02-.36-.01-.29-.12-.55-.24-.82Zm-50.32,32.58h0Zm-2.04-34.19s-.02,.05-.04,.07c-.04,.04-.08,.08-.13,.1-.02,.02-.04,.03-.05,.03-.01,0-.02,0-.03,0-.02,0-.03,.01-.03,.01-.03,.01-.03,.03-.04,.04,.05-.08,.11-.16,.16-.25,0,0,0,0,0,0t0,0s0,.02,0,.03h0s0-.01,0-.02c0,0,0-.02,.02-.03,0-.02,.02-.04,.04-.06,0-.02,.02-.04,.03-.05,.02,0,.03,0,.04,0,.02,0,.03,0,.04,.01,.01,0,.02,.01,.02,.06,0,.02-.01,.03-.02,.04Z"/></clipPath><clipPath id="uuid-715dd7aa-6cdf-45d2-91d9-9649f6bce505"><path class="uuid-e0a4363b-ac19-4e44-87cc-18d02baf69d1" d="M63.13,83.55c0-.08,.01-.17,.02-.25,.04-.16,.1-.33,.17-.49,.07-.18,.15-.35,.21-.53,0-.02,.01-.05,.02-.07,.04-.15,.07-.32,.08-.48,.02-.22,0-.44-.02-.66-.05-.39-.17-.78-.33-1.13-.06-.12-.12-.22-.17-.32-.24-.43-.48-.8-.83-1.13-.08-.07-.16-.15-.24-.23-.16-.15-.33-.29-.52-.42v-.04c-.14-.39-.36-.77-.53-1.14,.02-.05,.03-.1,.05-.15,.02-.11,.04-.22,.04-.33,.01-.14,0-.27-.01-.4,0-.12-.01-.24-.02-.37,0-.23,0-.47-.01-.71,0-.19,0-.39-.03-.59,0-.06-.01-.11-.03-.16,0-.02,0-.06-.01-.09,0-.02,0-.04-.02-.07-.01-.04-.03-.09-.03-.14-.01-.03-.02-.04-.02-.07,0,0,0-.02,0-.02h0s0-.02,0-.03c0,0,0-.02,0-.03-.04-.11-.09-.22-.13-.33-.1-.2-.19-.4-.29-.57-.21-.35-.46-.65-.77-.93-.05-.05-.1-.1-.16-.15-.2-.15-.32-.35-.41-.57-.07-.17-.12-.36-.16-.55-.03-.2-.08-.4-.11-.6-.02-.1-.05-.19-.08-.3-.05-.14-.09-.27-.13-.41-.05-.14-.11-.27-.16-.4-.1-.27-.23-.53-.36-.79-.27-.52-.56-1.01-.95-1.45-.18-.22-.35-.4-.54-.58-.02-.03-.05-.04-.07-.07,0,0-.01,0-.02,0,0,0,0-.01-.01-.01,0,0,0,0-.02-.01-.02-.02-.03-.03-.05-.04-.06-.04-.12-.09-.17-.13-.12-.1-.24-.19-.36-.27,0,0-.01-.01-.02-.01-.64-.47-1.31-.81-2.01-1.07-.06-.03-.12-.05-.18-.07-.29-.1-.58-.19-.85-.31-.48-.51-.96-1.03-1.45-1.53-.09-.17-.17-.36-.26-.53-.3-.59-.66-1.16-1.31-1.59-.16-.11-.34-.2-.54-.3-.2-.09-.41-.17-.63-.23-.25-.08-.5-.13-.75-.17-.22-.02-.42-.07-.59-.08-.16-.01-.34,0-.53-.02-.09,0-.17,0-.26,0l-.06-.03s-.13-.02-.22,0c0,0,0,0,0,0-.16-.04-.24-.11-.38-.2-.13-.1-.26-.21-.39-.3-.18-.13-.35-.26-.53-.39-.52-.35-1.06-.74-1.63-1-.25-.13-.5-.23-.76-.32-.57-.21-1.15-.35-1.8-.42-.89-.1-1.77-.1-2.62-.06-.84,.04-1.68,.13-2.48,.28-.62,.13-1.19,.25-1.76,.41-.16,.04-.31,.09-.48,.13-.1-.02-.2-.04-.28-.03-.33,.04-.66,.08-.99,.12-.11-.01-.22-.03-.32-.04,0,0-.01,0-.02,0,0,0-.01,0-.02,0,0,0,0,0,0,0-.02,0-.04,0-.05,0-.04,0-.07,0-.1-.01-.06,0-.13-.02-.2-.03-.14-.03-.27-.05-.42-.09-.14-.03-.29-.06-.43-.09-.14-.03-.29-.05-.44-.07-.29-.04-.59-.08-.89-.12-.6-.04-1.22-.06-1.82-.03-.28,.01-.55,.04-.84,.08-.23,.03-.46,.06-.69,.11-.57,.11-1.17,.32-1.71,.56-.29,.13-.55,.28-.8,.43-.41,.26-.87,.6-1.33,.8-.23,.1-.51,.25-.76,.31-.08,.03-.17,.04-.26,.05-.82,.1-1.48,.15-2.28,.07-.05,0-.1,0-.16-.01-.41-.04-.8-.03-1.18,.06-.37,.1-.71,.27-1.04,.54-.03,.03-.07,.06-.09,.09,0,0-.02,.02-.02,.03h0s-.01,0-.02,0c0,0,0,0,0,0,0,0,0,.01-.02,.01-.01,.01-.03,.03-.05,.05-.07,.06-.13,.12-.2,.18-.11,.1-.24,.2-.36,.29-.12,.09-.25,.17-.38,.25-.25,.16-.54,.28-.91,.34-.38,.08-.73,.14-1.07,.23-.26,.08-.51,.18-.77,.33-.14,.09-.29,.18-.42,.29-.16,.14-.3,.29-.42,.44-.12,.16-.23,.32-.33,.49-.28,.46-.37,.4-.8,.62-.07,.04-.14,.08-.2,.12-.15,.11-.31,.23-.45,.37-.15,.14-.28,.29-.41,.44-.07,.08-.14,.16-.19,.22-.07,.08-.13,.16-.19,.24-.11,.14-.22,.28-.34,.39-.08,.1-.15,.19-.21,.28-.34,.54-.26,1.11-.61,1.71-.26,.44-.74,.64-1.23,.83-.13,.04-.25,.1-.36,.14-.12,.05-.24,.1-.35,.16-.03,.02-.06,.04-.09,.05-.2,.11-.39,.25-.57,.41-.06,.05-.12,.12-.18,.18-.06,.05-.12,.12-.18,.19-.06,.07-.12,.14-.17,.22-.02,.04-.06,.08-.08,.11-.03,.03-.05,.06-.07,.1-.04,.06-.07,.12-.11,.18,0,.01-.01,.02-.03,.04v.02s-.03,.03-.03,.04h0s-.03,.08-.05,.11c-.07,.14-.13,.27-.2,.4-.03,.06-.06,.14-.08,.21-.03,.07-.05,.12-.07,.19-.05,.13-.1,.27-.14,.4-.01,.04-.03,.08-.03,.13,0,.04-.02,.08-.03,.12-.01,.07-.03,.14-.05,.21-.04,.16-.06,.31-.1,.46-.04,.16-.07,.31-.09,.46-.03,.27-.09,.55-.12,.86-.01,.09-.02,.19-.03,.29-.11,.44-.34,.79-.59,1.14-.08,.04-.15,.08-.25,.11-.08,.06-.17,.1-.25,.16-.4,.28-.68,.62-.95,.95-.21,.26-.42,.54-.58,.85-.05,.09-.09,.2-.14,.28-.08,.19-.14,.38-.16,.58,0,.05,0,.11,0,.15,0,.05,0,.09,0,.14,.01,.1,.03,.18,.05,.26,.05,.17,.11,.34,.19,.5,.03,.06,.06,.12,.09,.18,.06,.11,.09,.22,.1,.34-.03,.11-.05,.22-.07,.33-.03,.13-.04,.26-.03,.37,0,.02,0,.03,0,.04-.05,.17-.12,.33-.17,.5-.03,.09-.06,.18-.08,.26-.04,.12-.06,.24-.1,.36-.03,.11-.07,.21-.11,.31-.05,.11-.09,.22-.14,.33-.04,.12-.09,.23-.14,.36-.04,.12-.08,.25-.11,.39-.04,.13-.06,.28-.07,.43-.03,.27-.03,.52-.02,.78,0,.12,0,.23,.03,.35,.01,.11,.03,.22,.05,.34,.03,.12,.05,.25,.08,.37,.03,.12,.07,.24,.11,.36,0,0,0,0,0,.02,.22,.62,.51,1.2,.82,1.71,.03,.05,.05,.09,.08,.15,.08,.14,.16,.29,.24,.45,.07,.16,.12,.31,.17,.48,.07,.32,.07,.66-.08,1.01-.07,.18-.15,.36-.24,.54-.03,.09-.08,.18-.12,.27-.03,.1-.07,.19-.1,.29-.03,.07-.06,.14-.08,.22-.02,.04-.03,.07-.04,.11,0,.04-.02,.08-.03,.11-.03,.16-.05,.32-.06,.49,0,.03,0,.07-.01,.11,0,.03,0,.07,0,.11,0,.07,0,.14,0,.21,0,.15,.03,.29,.07,.43,.03,.15,.1,.29,.16,.46,.07,.15,.14,.32,.24,.49,.1,.19,.22,.37,.34,.54,.1,.15,.21,.29,.31,.41,.19,.21,.52,.44,.65,.7,0,.02,0,.04,.02,.06,.1,.27-.02,.57-.09,.85-.05,.19-.09,.37-.12,.56-.09,.55-.13,1.09-.13,1.64,.01,.23,.02,.46,.04,.69,.05,.49,.13,.97,.25,1.45,.08,.33,.15,.65,.2,.94,.02,.08,.02,.16,.04,.22,0,.04,0,.08,.02,.12,0,.04,0,.07,0,.11,0,.03,0,.07,.01,.11,0,.02,0,.04,0,.06,0,.02,0,.05,0,.07,0,.1,0,.19,.01,.28,.01,.19,.02,.38,.05,.55,.02,.19,.05,.37,.09,.55,.01,.09,.03,.18,.05,.27,.03,.08,.05,.17,.07,.26,.05,.18,.1,.35,.16,.52,.09,.25,.19,.5,.29,.73,.11,.23,.22,.46,.34,.69,.07,.13,.15,.26,.21,.39,.11,.22,.2,.41,.24,.61,.1,.42,.06,.84,0,1.35-.13,1.02-.18,2.07-.12,3.08,.01,.23,.04,.45,.06,.69,.02,.19,.05,.38,.08,.56,.07,.45,.23,.99,.43,1.46,.11,.24,.23,.48,.36,.7,.22,.36,.43,.75,.6,1.15,.08,.2,.14,.41,.16,.64,0,.08,0,.15,.01,.23,0,.71-.07,1.28-.27,1.95-.01,.04-.03,.09-.04,.13-.22,.67-.24,1.32,.19,1.94,.09,.13,.18,.24,.25,.36,.3,.43,.51,.88,.35,1.49-.03,.16-.08,.31-.11,.46-.05,.14-.08,.29-.11,.43-.05,.22-.08,.44-.07,.67,0,.13,.03,.26,.06,.4,.07,.32,.24,.59,.41,.88,.23,.38,.13,.43,.06,.82-.02,.06-.02,.13-.02,.19-.02,.3,.05,.63,.13,.96,.09,.34,.19,.67,.25,.95,.03,.12,.06,.22,.11,.31,.26,.52,.8,.72,1.12,1.26,.23,.38,.12,.83-.03,1.27-.07,.22-.16,.41-.23,.6,0,.03-.01,.05-.02,.08-.03,.08-.05,.16-.06,.26-.02,.09-.04,.18-.04,.29-.02,.12-.01,.29,0,.46,0,.07,0,.17,.03,.24,0,.07,.03,.14,.04,.22,.06,.25,.13,.51,.21,.7,.08,.21,.17,.43,.26,.63,.07,.13,.13,.26,.19,.37,.27,.5,.53,.93,.84,1.33,.05,.07,.1,.12,.14,.21,.01,.02,.02,.05,.04,.07,.02,.04,.04,.08,.05,.13,0,.18,0,.36,.03,.54-.1,.23-.22,.47-.31,.74-.06,.16-.11,.33-.14,.51-.01,.09-.02,.19-.02,.28,0,.1,0,.19,.03,.32,.02,.11,.06,.21,.09,.32,.04,.08,.08,.15,.13,.23,0,.01,.02,.03,.03,.04,0,0,0,.02,.01,.02,0,.02,.01,.03,.02,.04,.02,.03,.03,.05,.04,.08,.03,.05,.06,.1,.1,.14,.07,.09,.15,.17,.24,.24,.09,.08,.17,.14,.27,.2,.1,.07,.2,.11,.3,.16,.38,.17,.81,.27,1.27,.31,.09,0,.18,0,.28,.01,.02,0,.04,0,.06,0,.01,0,.02,0,.04,0,0,0,0,0,0,0h.02s.09,0,.12,0c.07,0,.15,.01,.22,.05,.07,.03,.14,.08,.21,.13,.07,.07,.14,.13,.2,.15,.06,.02,.12,.03,.19,.05,0,0,.02,0,.03,0h0s.01,0,.02,.01h.01s0,0,.02,0c.03,.01,.06,.02,.09,.03,.02,0,.05,.02,.08,.03,.03,.01,.06,.04,.08,.05,.13,.08,.22,.17,.3,.27,.07,.09,.13,.2,.18,.31,.1,.24,.2,.46,.33,.67,.04,.04,.08,.1,.12,.14,.03,.03,.05,.05,.07,.08,.02,.02,.03,.04,.05,.06,.07,.08,.13,.17,.21,.24,.12,.13,.25,.25,.41,.36,.16,.11,.34,.21,.56,.31,.41,.18,.87,.34,1.34,.44,.12,.03,.24,.05,.37,.07,.06,.01,.11,.02,.17,.02,.06,.01,.13,0,.19,.02,.12,0,.24,.01,.36,0,.13,0,.25-.02,.37-.04,.46-.08,.88-.29,1.25-.53,.22-.13,.43-.27,.64-.4,.41,.05,.82,.1,1.26,.12,.09,0,.18-.01,.26-.02,.36,.19,.74,.4,1.07,.49,.16,.05,.33,.09,.5,.11,.5,.08,1.02,.07,1.53,0,.17-.02,.33-.04,.49-.06,.08,0,.15-.02,.23-.04,.07-.02,.13-.04,.2-.06,.06-.03,.12-.04,.19-.07,.35-.14,.67-.35,.95-.63,.08-.07,.14-.14,.2-.21,.05-.06,.11-.12,.16-.17,.05-.07,.09-.12,.14-.18,.04-.05,.08-.11,.12-.16,.16-.2,.28-.39,.39-.52,.03-.04,.05-.07,.08-.09,0-.02,.02-.03,.04-.05,0-.02,.02-.03,.03-.04,.05-.05,.05-.03,.05-.03,.02,0,.04,.02,.04,.03,.05,0,.08,0,.13,0,.06,0,.13,0,.2,0,.14,0,.31-.02,.5-.02,.12,0,.24-.02,.36-.02,.16-.02,.32-.03,.47-.07,.31-.05,.6-.14,.85-.27,.27-.13,.52-.3,.73-.51,.09-.1,.19-.21,.26-.33,.07-.13,.14-.25,.21-.38,0-.04,.02-.08,.04-.12,.04-.1,.08-.2,.11-.3,.02-.05,.03-.1,.05-.15,.02-.03,.02-.05,.03-.07,0-.01,.01-.03,.02-.04t0-.02s.02-.09,.03-.14c0-.04,.02-.07,.02-.11,.03-.13,.03-.22,.05-.31,0-.01,0-.02,0-.04,0-.01,0-.02,.02-.03,.01-.03,.02-.06,.04-.08,.01-.03,.04-.07,.06-.1,.02-.04,.03-.07,.06-.11,.04-.06,.08-.11,.11-.18,.05-.07,.07-.14,.1-.21,.03-.07,.07-.16,.1-.24,.03-.08,.06-.17,.07-.25,.04-.16,.03-.33,.02-.48,0-.08-.02-.16-.04-.23v-.02c.04-.09,.08-.18,.11-.28,.04-.11,.05-.21,.08-.32,.02-.39,.01-.58-.06-.82-.02-.05-.08-.11-.14-.16,.06-.05,.12-.1,.18-.16,.2-.19,.34-.43,.32-.77,0-.09-.01-.18-.03-.27-.02-.07-.05-.16-.08-.23-.05-.16-.14-.29-.23-.42-.07-.09-.14-.16-.2-.22-.06-.06-.12-.1-.19-.14-.14-.08-.27-.15-.47-.22-.04-.01-.07-.02-.11-.03,.04-.08,.06-.15,.1-.23,.1-.16,.21-.32,.32-.39,.06-.04,.13-.08,.18-.12,0,0,.02-.02,.04-.04,0-.01,.01-.03,.02-.05,.02-.04,.04-.08,.04-.12,.01-.04,.01-.08,.01-.12,0-.09-.01-.17-.04-.25-.05-.12-.12-.25-.22-.38-.17-.21-.39-.43-.61-.68-.18-.21-.35-.42-.49-.61-.03-.04-.05-.08-.08-.12-.04-.24-.09-.48-.14-.72,.03-.07,.06-.15,.11-.22,.11-.18,.2-.34,.29-.51,.08-.17,.15-.33,.18-.49,.06-.28,.04-.56-.09-.85-.27-.58-.64-1.06-1.14-1.51-.02-.01-.04-.03-.06-.04-.19-.9-.39-1.8-.59-2.71,.04-.05,.08-.1,.11-.14,.07-.11,.13-.22,.19-.34,.17-.35,.27-.69,.34-1.04,.04-.21,.07-.44,.08-.64,.03-.58,.02-1.18-.05-1.78-.02-.21-.04-.43-.07-.64-.01-.07-.02-.15-.04-.23-.08-.44-.2-.86-.37-1.26-.08-.22-.17-.43-.26-.65-.12-.29-.25-.57-.4-.85-.06-.12-.13-.22-.22-.33-.08-.12-.2-.21-.33-.3,.05-.06,.1-.12,.14-.19,.05,0,.09,.02,.13,.02,.25,.01,.38,.04,.62,0,.13-.02,.27-.05,.41-.11,.1-.03,.19-.06,.28-.1,.09-.04,.18-.08,.26-.11,.15-.07,.29-.13,.44-.18,.32-.1,.62-.13,1.03,.02,.07,.03,.14,.06,.21,.09,.15,.07,.31,.12,.46,.18,.16,.05,.32,.09,.49,.14,.16,.03,.32,.04,.48,.05,.01,0,.02,0,.04,0h.02s0,0,.02-.01h.01s.04,0,.05,0c.04,0,.08,0,.11,0,.07,0,.14-.01,.23-.03,.06-.01,.12-.03,.19-.05,.11-.03,.22-.06,.31-.1,.09-.03,.18-.07,.27-.11,.08-.03,.17-.07,.26-.12,0,0,.01,0,.02,0h.01s.05-.04,.07-.04c.02,0,.04-.02,.07-.04,0,0,.01,0,.01-.01h.02s.04-.03,.05-.04c.03-.01,.06-.03,.08-.05,.03-.02,.07-.04,.1-.06,.03-.02,.06-.03,.11-.05,.06-.03,.12-.06,.18-.11,.06-.03,.12-.06,.17-.11,.06-.03,.12-.07,.18-.11,.03-.02,.06-.05,.09-.07,.02-.01,.03-.03,.04-.04h0s0-.01,.03-.02c0,0,0,0,.01,0,0-.01,.02-.01,.02-.02,.04-.05,.1-.11,.14-.17,.03-.03,.05-.07,.07-.11,.03-.04,.05-.08,.08-.13,.04-.09,.08-.18,.11-.27,.05-.14,.11-.26,.19-.36,.13,0,.27-.01,.4-.02,.02,.02,.03,.03,.05,.05,.13,.15,.27,.36,.43,.48,.36,.28,.77,.31,1.13,.24,.13-.03,.26-.07,.38-.12,.39-.15,.55-.5,.77-.79,.08-.1,.16-.2,.26-.28,.01,0,.02-.01,.04-.02,.03-.03,.08-.04,.12-.05,.25-.08,.58,.05,.87,.07,.17,.02,.34,.02,.51,.03,.16,.01,.32,.01,.47,0,.15,0,.29,0,.43,0,.05,0,.11,0,.17-.02,.03,0,.06-.01,.09-.02,.03,0,.04,0,.07,0,.02-.01,.04-.01,.06-.03,.01,0,.01,0,.02,0h0s.03-.01,.05-.02c.08-.03,.17-.06,.26-.1,.15-.07,.3-.16,.43-.24,.05-.03,.09-.06,.13-.09,.28-.2,.43-.31,.66-.54,.03-.03,.07-.06,.1-.1,.04-.04,.09-.06,.14-.11,.05-.04,.1-.07,.14-.1,.05-.05,.11-.08,.17-.12,.11-.07,.21-.15,.32-.22,.21-.16,.4-.32,.58-.5,.05-.04,.13-.12,.23-.21,.05-.05,.1-.1,.15-.16,.01,0,.02-.02,.02-.02,0,0,0,0,.01,0h-.02s.03-.04,.04-.06c.03-.04,.05-.07,.09-.11,.07-.07,.07-.15,.09-.22,0-.03,0-.07,.01-.1,.08-.05,.16-.1,.25-.16,.07-.04,.13-.08,.19-.12,.16,.05,.33,.07,.51,.07,.2-.01,.39-.04,.55-.08,.11-.01,.2-.04,.26-.05,.57-.12,1.13-.28,1.65-.49,.16-.09,.31-.18,.45-.26,.5-.27,.73-.72,.91-1.22,.06-.17,.11-.34,.16-.51,.01-.03,.03-.06,.04-.09,.04-.12,.08-.22,.14-.32,.06-.1,.12-.2,.19-.28,.06-.07,.13-.13,.2-.2,.07-.06,.15-.11,.23-.15,.04-.02,.09-.04,.12-.05,.03,0,.05,0,.06,0,.01,0,.03-.01,.04-.01h0s0,0,0,0h.01s0,0,.02,0c.1-.02,.21-.04,.31-.05,.02,0,.03,0,.05,0,.12-.02,.26-.04,.39-.07,.14-.04,.28-.08,.41-.13,.27-.12,.51-.27,.64-.52,.04-.07,.07-.15,.09-.23,.02-.1,.03-.2,.01-.32-.01-.12-.06-.23-.11-.33,.17-.15,.35-.3,.52-.46,.08,0,.16,.02,.23,.01,.07,0,.14,0,.2-.03,.05-.02,.09-.04,.13-.06,.17-.08,.31-.2,.42-.33,.14-.17,.27-.41,.29-.68-.02-.14-.04-.27-.07-.38,0-.04-.02-.08-.03-.11,.17-.12,.37-.22,.58-.32,.81-.35,1.61-.75,2.28-1.35,.15-.14,.3-.31,.43-.48,.11-.14,.2-.28,.29-.43,.11-.19,.19-.37,.27-.57,.08-.21,.14-.39,.19-.59,.05-.21,.09-.44,.12-.66,.06-.35,.07-.73,.18-1.07,.05-.17,.12-.34,.22-.5,.03-.06,.07-.1,.11-.15,.19-.23,.37-.43,.58-.6,.1-.09,.2-.19,.31-.27,.06-.05,.11-.09,.17-.14,.06-.05,.12-.1,.18-.15,.03-.03,.07-.05,.11-.08,.26-.2,.45-.45,.56-.72,.05-.13,.09-.27,.1-.43,0-.14-.01-.28-.05-.45-.03-.12-.07-.24-.1-.36-.02-.11-.05-.21-.06-.32,0-.1-.01-.2,0-.3,.02-.19,.12-.39,.31-.56,.05-.05,.1-.09,.14-.14,.05-.05,.1-.09,.15-.14,.1-.09,.19-.19,.28-.28,.14-.16,.24-.32,.33-.52,.04-.1,.08-.23,.1-.36,.02-.15,.04-.31,.02-.46-.02-.15-.05-.3-.09-.45-.05-.2-.06-.31-.04-.41,.03-.1,.11-.19,.18-.37,.02-.06,.04-.12,.06-.18,.01-.07,.03-.15,.04-.22,0-.08,0-.15,0-.23-.01-.16-.02-.33-.06-.5-.04-.15-.07-.32-.11-.47-.04-.13-.07-.26-.1-.38-.02-.09-.06-.19-.09-.24-.05-.08-.13-.15-.21-.23-.07-.06-.15-.13-.23-.19-.04-.04-.09-.07-.12-.12-.05-.04-.08-.09-.12-.14-.07-.1-.13-.2-.18-.33-.02-.05-.03-.08-.04-.13,0-.05-.01-.09-.02-.13,0-.04,0-.08,0-.12Zm-37.08,10.85c-.15-.03-.31-.04-.46-.04-.38-.02-.75,0-1.14-.01-.11,0-.2,.01-.28,.03,.01-.07,.03-.14,.07-.23,.03-.06,.05-.13,.07-.19,.1-.33,.11-.71,.1-1.05,0-.27-.01-.54-.04-.82,0-.09-.02-.17-.03-.25-.02-.16-.06-.31-.11-.46-.09-.28-.23-.53-.42-.8-.03-.04-.06-.08-.1-.13-.12-.15-.16-.32-.15-.49,0-.28,.13-.56,.22-.86,.03-.07,.05-.14,.07-.22,.05-.21,.09-.43,.13-.64,.03-.23,.06-.42,.08-.63,.05-.4,.08-.81,.07-1.2,0-.09-.02-.19-.02-.27v-.11l-.03-.13c-.02-.19-.05-.42-.14-.66v-.02c-.18-.58-.33-.5-.41-.73-.02-.05-.02-.12-.03-.19,0-.06,0-.12,.02-.24,.01-.05,.02-.11,.03-.15,.01-.09,.01-.17,.01-.24,0-.07,0-.15,.01-.23,0-.15,.02-.29,.04-.43,.02-.14,.08-.28,.11-.39,.05-.12,.1-.25,.17-.4,.08-.16,.17-.29,.27-.38,.12-.1,.26-.16,.39-.17,.05-.01,.1-.02,.14-.01,.05,0,.13-.05,.19-.07,.14-.06,.27-.13,.39-.2,.25-.16,.46-.36,.62-.6,.16-.22,.27-.53,.34-.83,.03-.16,.03-.28,.06-.4,.02-.12,.07-.23,.16-.35,.14-.22,.26-.56,.39-.72,0-.01,.02-.02,.03-.03,.08-.08,.17-.11,.28-.16,.12-.04,.25-.07,.36-.12,.16-.07,.32-.14,.48-.2,.14-.05,.28-.11,.43-.14,.07-.02,.13-.04,.2-.04,.06-.01,.12-.01,.18-.01,.07,0,.14,.01,.2,.03,.03,0,.06,.02,.1,.03,.03,.01,.05,.02,.09,.03,.08,.02,.19,.06,.31,.08,.06,0,.12,.03,.2,.03,.05,0,.11,.01,.16,.02,.22,.03,.46,.04,.74,.02,.07,0,.14-.01,.21-.03,.06,0,.11-.01,.17-.02,.09-.02,.19-.03,.29-.04,.25-.05,.45-.06,.68-.05,.12,0,.25,.02,.38,.04,.16,.03,.31,.06,.47,.09,.33,.06,.68,.1,1.03,.1,.18,0,.35-.01,.52-.03,.16-.03,.32-.07,.46-.09,.1-.02,.22-.02,.33-.02,.12,.02,.23,.04,.35,.06,.23,.05,.45,.11,.68,.17,.14,.03,.26,.06,.41,.1,.18,.06,.34,.14,.48,.24,.15,.21,.25,.44,.46,.64,.05,.05,.1,.08,.15,.12,.05,.1,.1,.18,.14,.29,.16,.42,.34,.84,.45,1.25,.11,.41,.15,.8,.22,1.21,.04,.19,.07,.38,.11,.57,.04,.15,.09,.31,.14,.47,.13,.4,.34,.82,.63,1.18,.15,.19,.3,.34,.46,.49,.21,.2,.41,.42,.54,.69h0c-.02,.09-.04,.19-.05,.28-.06,.39-.1,.77-.14,1.14-.22,.35-.48,.64-.81,1-.03,.03-.06,.07-.09,.11-.44,.41-.71,.67-.73,1.23,0,.12-.02,.23-.04,.34-.07,.41-.26,.79-.73,.95-.25,.09-.49,.14-.71,.23-.08,.03-.17,.07-.24,.11-.08,.03-.15,.07-.21,.12-.08,.05-.15,.12-.22,.19-.16,.17-.26,.4-.38,.64-.2,.31-.26,.24-.57,.3-.05,0-.11,.02-.17,.05-.51,.18-1.07,.64-1.53,.87-.09,.04-.17,.09-.24,.14-.19,.16-.3,.35-.43,.56-.13,.2-.27,.4-.51,.57-.35,.24-.83,.16-1.24-.01-.2-.08-.4-.18-.57-.26-.03-.01-.05-.02-.07-.03-.16-.07-.31-.13-.47-.17-.21-.06-.42-.11-.62-.15-.09-.01-.17-.03-.26-.05-.09-.01-.19-.03-.29-.04-.22-.04-.47-.06-.72-.05-.16,.01-.32,.03-.47,.05-.31,.05-.62,.15-.87,.27-.26,.11-.46,.26-.64,.39-.07,.07-.16,.13-.23,.19-.02,.01-.03,.03-.05,.04h0Zm20.67,14.49h0s0,0,0,0Z"/></clipPath><clipPath id="uuid-3e24ef7a-515b-468f-bdb7-31762ecf4732"><path class="uuid-e0a4363b-ac19-4e44-87cc-18d02baf69d1" d="M283.61,84.26c1.19-2.01,.82-4.47-1.04-5.98-.09-.43-.28-.85-.42-1.26,.28-.99,.31-2.1,.23-3.13,0,0,0-.02,0-.02-.14-1.15-1.08-1.87-1.54-2.83-.22-1.97-.7-4-2.07-5.52,0,0-.01-.01-.02-.01,0,0,0-.01-.01-.01-.17-.19-.36-.37-.56-.53,0,0-.01-.01-.02-.01-4.98-2.13-3.89-6.74-9.2-7.04-3.74-4.46-9.45-3.5-14.53-3.37,0,0-.01,0,.01,0-3.69-1.53-7.4-.91-10.86,.79-1.76,.34-3.67-.93-5.21,.31h0s-.01,0-.02,0c0,0,0,0,0,0,0,0,0,0-.02,0-1.2,1.26-3.06,.66-4.43,1.57-1.19,1.33-2.85,1.89-3.98,3.31-.68,2.93-3.14,1.93-4.6,4.03-.79,1.13-1.11,2.46-1.41,3.8-.69,1.61-3,1.93-3.38,3.84,.87,3.8-2.8,5.17-.43,9.4,1.36,2.09-1.78,3.88-.44,6.05,.26,1,1.65,1.64,.97,2.73-.96,3.62-.52,7.73,.73,11.21-.67,3.42-.82,6.69,.6,9.95,.13,1.52-1.34,2.84-.55,4.31,1.13,1.22-.1,2.55-.02,3.91,.06,.63,.66,1.16,.3,1.78-.26,1.47,.26,2.82,1.24,3.9,.34,.74-.38,1.51-.58,2.21-.46,1.66,.54,3.36,1.27,4.76,.24,.91-.79,1.57-.63,2.52,.13,1.33,1.58,2.05,2.75,2.1h.02c.4-.04,.57,.42,.92,.48,.01,0,.02,0,.04,0,0,0,.01,0,.02,.02,0,0,.01,0,.01,0,.76,.28,.69,1.21,1.13,1.76,1.26,1.87,4.1,2.5,5.96,1.16,.49,.1,1.02,.26,1.54,.26,2.08,1.61,5.11,1.18,6.56-1.01,.04-.07,.1-.08,.13-.03,1.66,.25,3.7-.01,4.24-1.87,.16-.92,1.15-1.55,.95-2.56,.27-.46,.49-1.23,.15-1.62,1.12-.6,.53-2.3-.57-2.59,2.07-1.77-.56-2-.47-3.97,1.18-1.18,.78-2.69-.36-3.76-.1-.94-.21-1.88-.32-2.81,1.72-2.3,1.4-6.16-.18-8.46,.06-.05,.11-.11,.16-.18,.75,.27,1.5-.06,2.23-.26,.93-.25,1.76,.74,2.71,.78,0,0,.02,0,.02,0,.01-.01,.07,0,.09,0,.49,.05,.99-.11,1.45-.27h0c.05-.04,.11-.04,.16-.08,.01,0,.01,0,.02,0,.35-.19,.75-.3,1.08-.54h.01c.37-.2,.5-.73,.75-1.04,.14,0,.29,.01,.43,.02,.93,1.71,2.28,.75,3.27-.19,.83,.06,1.77,.43,2.64,.32,.02,0,.04,0,.06-.02,.01,0,.02,0,.02,0h0c1.37-.47,2.56-1.4,3.7-2.25h-.01c.16-.13,.26-.28,.29-.47,.16-.08,.32-.16,.48-.23,1.56,.27,3.92,0,4.62-1.61,.27-.63,.58-1.41,1.34-1.52,.88,.01,2.55-.23,2.09-1.5,.19-.14,.38-.27,.57-.41,.83,.21,1.62-.69,1.36-1.5,3.66-.94,4.18-2.57,5.4-5.73,.7-.83,2.06-1.08,2.29-2.23-.55-1.99,.79-1.91,1.47-3.37,.16-.41-.06-.99,.02-1.36,.55-.65,.39-1.62,.24-2.39-.13-.67-1.04-.97-.86-1.76Zm-38.86,7.2c-.62-.14-1.28-.21-1.93-.22,.82-1.49,.37-3.13-.17-4.58,.58-1.66,1.53-3.95,.56-5.59-.02-.16-.02-.25,.04-.44,.32-3.58,2.58-1.24,3.51-4.65,.59-1.2,2.28-1.42,3.42-.92,1.86,.04,3.67,.59,5.53,.56,4.16,.64,1.97,5.83,4.53,8.16,.04,1.74-1.74,2.25-2.24,3.63-.09,.54-.28,1.08-.91,1.23-.8,.13-1.56,.33-1.92,1.13-.23,.29-.29,.22-.61,.25-1.29,.27-2.25,1.03-3.15,1.92-2.18,.08-4.31-2.48-6.64-.47h0Zm19.54,16.89h0s0,0,0,0Z"/></clipPath><clipPath id="uuid-3d6c5da5-ba84-4f21-af95-bf1079803050"><path class="uuid-e0a4363b-ac19-4e44-87cc-18d02baf69d1" d="M387.6,86.32c1.37-1.81,1.29-4.23-.34-5.9-.04-.43-.17-.85-.27-1.27,.38-.93,.53-2,.57-3,0-.01,0-.02,0-.02,0-1.12-.83-1.93-1.18-2.91,0-1.93-.23-3.95-1.38-5.57,0,0-.01-.01-.02-.01,0,0,0-.01,0-.01-.15-.2-.31-.39-.48-.58,0,0,0-.01-.01-.01-4.58-2.62-3.01-6.96-8.11-7.84-3.12-4.73-8.75-4.44-13.68-4.89,0,0-.01,0,.01,0-3.4-1.89-7.06-1.71-10.59-.45-1.75,.13-3.44-1.31-5.07-.29h0s-.01,0-.02,0c0,0,0,0,0,0,0,0,0,0-.02,0-1.3,1.08-3.04,.3-4.46,1.02-1.3,1.15-2.97,1.51-4.23,2.76-.99,2.76-3.25,1.51-4.91,3.39-.89,1.01-1.35,2.26-1.79,3.52-.85,1.48-3.12,1.53-3.7,3.34,.41,3.78-3.29,4.69-1.47,9.04,1.08,2.17-2.16,3.56-1.1,5.81,.14,1,1.41,1.77,.64,2.75-1.33,3.4-1.37,7.42-.55,10.93-1.03,3.23-1.54,6.38-.54,9.69-.04,1.49-1.62,2.6-1.02,4.11,.96,1.3-.39,2.46-.45,3.78-.02,.61,.5,1.19,.09,1.75-.42,1.39-.06,2.76,.76,3.92,.25,.76-.54,1.41-.81,2.07-.63,1.55,.15,3.32,.69,4.75,.13,.91-.94,1.43-.9,2.37-.02,1.31,1.3,2.16,2.42,2.34h.02c.4,.01,.5,.47,.84,.57,.01,0,.02,0,.04,0,0,0,0,0,.01,.02h.01c.7,.35,.53,1.25,.9,1.83,1.01,1.95,3.68,2.88,5.64,1.79,.46,.15,.95,.36,1.46,.43,1.84,1.79,4.81,1.72,6.46-.24,.05-.06,.11-.07,.13-.01,1.58,.42,3.58,.4,4.31-1.34,.26-.88,1.28-1.37,1.2-2.37,.31-.41,.61-1.14,.33-1.55,1.15-.45,.77-2.16-.26-2.57,2.2-1.48-.32-2-.01-3.9,1.27-1.01,1.06-2.51,.07-3.68,0-.92,0-1.84,0-2.76,1.93-2.04,2.04-5.8,.77-8.2,.06-.04,.12-.1,.18-.16,.7,.34,1.46,.11,2.18,0,.93-.14,1.62,.91,2.53,1.05h.02s.07,.01,.09,0c.47,.11,.97,0,1.44-.1h0c.05-.03,.11-.02,.17-.06h.02c.36-.15,.76-.2,1.11-.4h.01c.38-.15,.56-.65,.84-.92,.14,.02,.28,.05,.42,.07,.71,1.76,2.12,.98,3.18,.19,.8,.15,1.66,.61,2.52,.61,.02,0,.04,0,.06-.01,.01,0,.02,0,.02,0h0c1.38-.3,2.63-1.06,3.83-1.76h-.01c.17-.11,.28-.24,.33-.42,.16-.06,.32-.12,.49-.17,1.48,.44,3.79,.45,4.65-1.04,.33-.58,.72-1.3,1.47-1.32,.85,.11,2.49,.07,2.19-1.22,.2-.11,.4-.22,.6-.33,.78,.3,1.64-.49,1.48-1.3,3.65-.49,4.33-2.01,5.87-4.94,.77-.72,2.12-.81,2.47-1.9-.31-1.99,.98-1.76,1.8-3.1,.2-.38,.06-.96,.18-1.31,.6-.56,.56-1.52,.5-2.29-.05-.66-.89-1.06-.64-1.8Zm-38.4,2.61c-.59-.2-1.22-.35-1.84-.43,.96-1.35,.71-2.99,.35-4.45,.75-1.54,1.93-3.65,1.16-5.35,0-.16,0-.24,.09-.42,.71-3.43,2.64-.91,3.91-4.1,.71-1.1,2.37-1.12,3.41-.51,1.79,.25,3.49,.99,5.29,1.16,3.96,1.08,1.25,5.87,3.47,8.4-.16,1.69-1.94,1.98-2.58,3.26-.15,.52-.39,1.01-1.02,1.09-.79,.04-1.55,.14-1.99,.88-.26,.26-.31,.18-.62,.17-1.28,.12-2.29,.75-3.27,1.51-2.12-.16-3.9-2.88-6.37-1.2h0Zm17.01,18.53h0s0,0,0,0Z"/></clipPath><clipPath id="uuid-0c087119-0e63-4567-a2c0-1b5bf59388c4"><path class="uuid-e0a4363b-ac19-4e44-87cc-18d02baf69d1" d="M405.99,70.61c.05,.11,.14,.23,.22,.36-4.04,6.73-.59,8.17-4.34,14.45-.35,.99,.07,2.06,.08,3.06-.02,1.64-2.79,2.34-1.78,4.11,.66,1.35-1.73,2-1.04,3.42,.14,.41-.15,.42-.36,.69-.65,1.07-.61,2.19-.02,3.25-1.13,2.28-2.1,2.89-.36,5.6-.04,.18-.06,.4-.04,.62-1.08,2.7,2.71,5.85,5.22,4.39,.63,.32,1.21,.73,1.89,.96,.86,2.22,3.59,2.99,5.61,2,1.26,.62,3.26,1.38,3.74-.51,.99,.03,1.94-.37,2.21-1.4,1.28-.3,2.35-1.88,2.05-3.18,2.56-3.96,2.55-2.65,2.66-7.52,1.5-.84,2.77-2.23,1.58-3.96,3.3-4.91,2.45-4.95,3.31-10.59,2.87-1.83,2.27-3.67,2.67-6.41,1.08-1.49,2.46-1.46,1.82-3.69,.33-.95,1.89-1.23,1.47-2.51-.08-.43,.22-.42,.44-.72,.67-1.12,.49-2.32-.31-3.29-.18-.57,.63-.93,1.01-1.24,1.25-1.15,1.15-3.38,.05-4.6,.02-.07,.04-.14,.06-.21,2.35-.35,1.71-3.48,0-4.33-1.81-.9-2.9-2.45-3.93-4.06-2.98-.47-1.87,1.47-3.95-1.96-.79-.91-1.88-.6-2.85-.55-.53-1.12-1.72-.22-2.67-.68-1.19-.53-1.7,1.05-2.77,.82-1.83-2.61-6.95-1.32-6.54,2.06-.91,.44-1.33,1.54-1.43,2.47-.1,.71,.53,1.41,.13,2.08-.99,.87-2.43,1.32-2.88,2.74-.28,.94-.2,2,.22,2.89,1.5,2.29-2.76,2.83-1.16,5.46Z"/></clipPath><clipPath id="uuid-9b030df0-eba0-4d69-9c93-b55dd338b658"><path class="uuid-e0a4363b-ac19-4e44-87cc-18d02baf69d1" d="M416.87,130.57s0,0,0-.01c.14-1.08-.51-1.99-.47-3.05,.46-1.75,1.69-3.67-.81-4.66-.09-.42-.28-.86-.53-1.17,.5-3.96-3.3-4.89-6.07-5.94-2.04-.58-3.73-2.81-6.05-2.05-2.69,2.11-4.55-.72-6.07,1.23-.65,1.07-2.16,.27-3,1.07-.37,.25-.46,.87-.75,1.12-1.2,.44-2.02,2.06-1.46,3.27-.39,.3-.57,.78-.74,1.27-1.83,.97-1.06,3.11-1.26,4.71-1.41,.48-.59,1.79-.26,2.72-.68,1.75-.66,4.69,1.92,4.59,.13,.25,.27,.5,.42,.74-1.02,1.36,.45,2.08,1.56,2.36,.21,2.34,2.32,3.71,4.55,2.63,.34,.22,.95,.2,1.19,.49,.7,.13,1.42,.19,2.1,.43,.96,1.86,2.77,1.75,4.23,.6,.9-.33,3.02,.64,2.84-1.11,.19-.13,.37-.27,.55-.42,.63,.39,1.54-.31,1.32-1.02,.46-.19,.79-.55,1.17-.84,1.61-.23,2.79-1.41,2.99-2.97,1.12-1.08,2.48-2.33,2.62-3.99Z"/></clipPath><clipPath id="uuid-adbeb37b-3788-4205-84df-50fd1b8652e5"><path class="uuid-e0a4363b-ac19-4e44-87cc-18d02baf69d1" d="M284.43,112.1c.07-1.4,.14-2.79,.21-4.19,.03-.63,.02-1.25-.08-1.87-.1-.64-.35-.85-1-.85-1.06,0-2.03,.4-3.01,.72-3.06,1.01-6.11,2.06-9.17,3.1-.7,.24-1.41,.46-2.15,.52-.19,.02-.42,.08-.56-.1-.15-.2,.02-.38,.12-.54,.73-1.2,1.66-2.25,2.54-3.34,1.67-2.08,3.34-4.16,5.04-6.21,.61-.73,1.22-1.47,1.72-2.28,.67-1.09,.55-1.64-.5-2.36-1.35-.93-2.83-1.62-4.26-2.4-.89-.49-1.8-.96-2.61-1.59-.52-.41-.51-.75,.03-1.13,1-.71,2.14-1.15,3.25-1.66,1.02-.47,2.01-.98,3.07-1.36,.21-.08,.42-.2,.61-.32,.66-.41,.78-.84,.46-1.55-.51-1.1-1.26-2.05-1.99-2.99-1.83-2.37-3.66-4.74-5.55-7.06-.92-1.12-1.81-2.26-2.62-3.46-.21-.31-.49-.65-.3-1.04,.21-.43,.67-.35,1.06-.33,.85,.05,1.64,.37,2.41,.69,2.92,1.21,5.81,2.49,8.75,3.65,1.2,.47,2.41,.97,3.66,1.34,.48,.14,.59-.04,.61-.44,.04-.99-.08-1.97-.14-2.96-.1-1.61-.29-3.21-.25-4.83,.03-1.07,.57-1.5,1.62-1.22,.86,.22,1.58,.74,2.31,1.2,1.54,.98,3.04,2.03,4.65,2.89,1.15,.62,1.23,.59,1.63-.66,.72-2.25,1.11-4.57,1.64-6.86,.93-4.04,1.65-8.13,2.68-12.15,.14-.56,.3-1.11,.62-1.61,.3-.47,.69-.49,1.02-.03,.41,.57,.6,1.24,.78,1.91,.94,3.63,1.68,7.32,2.54,10.97,.54,2.29,1.02,4.6,1.67,6.86,.15,.51,.31,1.01,.57,1.47,.35,.62,.74,.78,1.39,.52,1.16-.45,2.17-1.16,3.23-1.8,1.36-.83,2.68-1.73,4.11-2.46,1.25-.64,1.66-.42,1.65,.98,0,1.21-.11,2.43-.21,3.64-.11,1.39-.21,2.79-.15,4.19,.03,.8,.31,1.04,1.12,1.03,.55,0,1.07-.17,1.59-.34,.85-.27,1.68-.59,2.52-.86,4.01-1.29,7.9-2.93,11.87-4.32,.57-.2,1.15-.41,1.77-.42,.49,0,.6,.18,.37,.61-.35,.64-.82,1.2-1.3,1.74-1.54,1.74-3.11,3.44-4.65,5.18-2.08,2.35-4.21,4.66-6.15,7.14-.16,.21-.3,.44-.41,.67-.25,.5-.15,.91,.3,1.25,1.11,.84,2.38,1.4,3.61,2.03,1.31,.66,2.62,1.31,3.93,1.97,.44,.22,.87,.48,1.23,.82,.54,.51,.52,1-.07,1.44-.38,.29-.81,.5-1.25,.69-2.22,.93-4.44,1.83-6.65,2.78-1.65,.72-1.63,.93-.63,2.26,1.63,2.17,3.36,4.26,5.06,6.38,1.06,1.32,2.11,2.65,3.22,3.94,.87,1.01,1.69,2.06,2.46,3.15,.29,.42,.54,.87,.65,1.38,.11,.57-.1,.81-.68,.79-.53-.03-1.03-.21-1.52-.4-3.1-1.25-6.1-2.74-9.18-4.03-2.04-.86-4.06-1.81-6.17-2.49-1.18-.38-1.26-.32-1.24,.91,.03,2.12,.31,4.23,.3,6.36,0,.57-.1,1.11-.3,1.64-.21,.54-.48,.68-1.04,.54-.34-.09-.64-.26-.93-.45-1.98-1.31-3.95-2.62-5.93-3.92-.37-.24-.77-.44-1.18-.62-.65-.29-1.04-.12-1.25,.56-.67,2.12-1.1,4.3-1.63,6.46-.88,3.55-1.59,7.13-2.57,10.66-.18,.65-.39,1.29-.8,1.85-.31,.42-.53,.41-.81-.05-.25-.41-.37-.88-.5-1.34-.84-3.15-1.51-6.34-2.26-9.51-.55-2.32-1.13-4.64-1.71-6.95-.14-.56-.32-1.11-.54-1.64-.47-1.14-.98-1.35-2.12-.87-1.26,.53-2.43,1.24-3.64,1.88-.91,.49-1.8,1.04-2.77,1.41-.83,.32-1.14,.12-1.16-.77-.01-.51,0-1.02,0-1.53h-.04Z"/></clipPath><image id="uuid-80a923b1-4b51-4352-b02a-5762b9b55ca4" width="110" height="350" xlink:href="included_images/symbol/symbol_exclamation 2.16.43 PM.jpg"/><image id="uuid-fca965b8-1cfc-4ee0-b154-eff1fd5e6f23" width="266" height="350" xlink:href="included_images/letters/letter_P.jpg"/></defs>
<g class="uuid-f45fe79d-e4b5-4ddb-9f9b-6a4b37fbc27b"><image width="286" height="350" transform="translate(136.92 54.09) scale(.58)" xlink:href="included_images/medallion_purple.jpg"/></g>
<g class="uuid-61642ea6-9095-4482-b547-a7ce3fd82019 swinging cls-5"><image width="1675" height="750" transform="translate(-.22) scale(.27)" xlink:href="included_images/single_layer_cloud.jpg"/></g>

<g class="uuid-28d29063-892c-44e5-8a1d-8e542d4e27b1 swinging cls-2"><image width="270" height="350" transform="translate(132.81 47.87) rotate(15.26) scale(.24)" xlink:href="included_images/letters/letter_H_pink.jpg"/></g>
<g class="uuid-146c49c3-2d0b-408d-93ab-19f1d8ae62e7 swinging cls-11"><image width="319" height="350" transform="translate(54.39 54.87) scale(.24)" xlink:href="included_images/letters/letter_N_pink.jpg"/></g>
<g class="uuid-e30c8024-0f42-4eb5-87da-6a1b2b188e51 swinging cls-10"><image width="265" height="350" transform="translate(-4.94 62.84) rotate(-10.22) scale(.24)" xlink:href="included_images/letters/letter_P_pink.jpg"/></g><g id="uuid-d3836b04-a7b1-4440-939d-eea4edaff77a">
<g class="uuid-b8cc9daa-f263-452b-8393-7f9d5e45c40f swinging cls-6"><use transform="translate(216.5 56.41) rotate(-4.41) scale(.25)" xlink:href="#uuid-fca965b8-1cfc-4ee0-b154-eff1fd5e6f23"/></g></g><g id="uuid-fd474c81-46dc-442e-a72d-6997578b384c">
<g class="uuid-2a6e5f8a-aa89-44cd-b362-c556796bac3f swinging cls-7" style="transform-origin: 48% 25%;animation-direction: reverse;"><use transform="translate(325.79 51.84) rotate(2.2) scale(.24)" xlink:href="#uuid-fca965b8-1cfc-4ee0-b154-eff1fd5e6f23"/></g></g><g id="uuid-fa23ef19-71bb-47cd-8cab-7830e75b8ace">
<g class="uuid-1aa6c24e-6cbb-4f09-863a-bdcde7149083 swinging cls-8"><use transform="translate(411.2 48.65) rotate(16.66) scale(.26)" xlink:href="#uuid-80a923b1-4b51-4352-b02a-5762b9b55ca4"/></g>
<g class="uuid-8fdb311b-5c2d-4103-a20c-368d58756726 swinging cls-9"><use transform="translate(411.2 48.65) rotate(16.66) scale(.26)" xlink:href="#uuid-80a923b1-4b51-4352-b02a-5762b9b55ca4"/></g></g>
<g class="uuid-492a216b-3829-4ff0-a0ec-ada193eb435f"><image width="283" height="350" transform="translate(265.2 45.56) scale(.25)" xlink:href="included_images/medallion_pink.jpg"/></g></svg>