<svg id="uuid-0cdf06d8-bb98-420d-aa30-31cb693114a6" overflow="visible" xmlns="http://www.w3.org/2000/svg" xmlns:xlink="http://www.w3.org/1999/xlink" viewBox="0 0 883.85 227.08"><defs><style>.uuid-ed41c6db-cb3d-4ef4-aa5c-966664f5bec3{fill:none;}.uuid-109da4af-565c-4bdb-9051-6107b6f6b864{clip-path:url(#uuid-dbc56dde-e8c8-41f5-9878-01f77683a7f0);}.uuid-16d1ea9a-69af-4696-b79b-a1f62089d8f8{clip-path:url(#uuid-60c32991-8e5b-4cc0-a349-2b6a50adf480);}.uuid-dfe2ff41-1fd5-4229-91b2-9d53200bfe9f{clip-path:url(#uuid-7ab69090-c8c5-411e-9ae1-b6ea76ace1bd);}.uuid-c325dbee-e8fe-4b38-99d4-0cc7034ba17c{clip-path:url(#uuid-6784ec1b-4f4e-4782-a88e-ad6c6c23980a);}.uuid-2d08ad1c-2622-463c-b72a-8b1667acb5d6{clip-path:url(#uuid-4ae98618-bafe-4dfa-808b-ba4dc7cd97f7);}.uuid-4c67144c-5422-42aa-953d-bd64eb493d88{clip-path:url(#uuid-2321b159-a37e-4180-a14d-2254b1fff739);}.uuid-76525946-5a65-4164-9513-5c7eeb5f4599{clip-path:url(#uuid-ac20f999-b3bf-4fc8-9f10-531e4651539c);}.uuid-d3fddf7c-b872-43ad-8ad5-804696a2221e{clip-path:url(#uuid-ce08914d-fb8e-454a-b900-41b24e156dc9);}.uuid-fe0e2e94-b65a-4bdc-9721-e67c13f4d1b7{clip-path:url(#uuid-ba90ec39-5668-4f7f-adeb-42436bf49c93);}.uuid-dc7b973d-6777-4201-a3e6-a42ad14326e2{clip-path:url(#uuid-added1bf-6a13-44f4-a46a-15d57137e084);}.uuid-b8846352-f437-4834-b70a-127d5215bd9c{clip-path:url(#uuid-b565ec94-6aa7-4519-976d-81b0fcc11ebd);}.uuid-4a861dfe-5593-4e89-8d22-2c7ca570fa10{clip-path:url(#uuid-821bc078-04ed-4286-ab68-3df38f5f3e93);}.uuid-27ec37d7-c1c1-4935-9651-f06e92798b30{clip-path:url(#uuid-6a1cd89d-ab85-48eb-be36-b2f4fa3dc18c);}.uuid-ab364966-90d7-41f8-914f-553c3177b64e{clip-path:url(#uuid-e93b9bb0-2604-440a-a942-5181b51afda1);}.uuid-3a58574f-2c8b-4ed9-89d1-7cdf7034ed2b{clip-path:url(#uuid-9d251a78-a037-48b5-9e99-05ae13a8dfc5);}.uuid-1af1a512-c22d-4982-af2c-3c2148513c8f{clip-path:url(#uuid-a93fd127-4993-4762-8f70-00a48e9d93d2);}.uuid-29b1cd97-c3f9-4053-b0d4-aa29ed260388{clip-path:url(#uuid-0286158a-e806-4ff2-a3f4-640b89402f49);}.uuid-45bfd5e1-fc54-409d-8486-9cfb48c9e230{clip-path:url(#uuid-cab5ee5a-2933-4673-8877-05dced425507);}.uuid-f385e05b-998c-42b0-a98c-76087656bf29{clip-path:url(#uuid-2966cd48-da29-43c4-be9e-d7f5cf3fc17b);}.uuid-3e06d185-10a3-4be2-ada0-af2c46cefe6d{clip-path:url(#uuid-ccbff546-e53c-463f-8118-bad9bd346d9f);}.uuid-7ddf58ed-6b5b-4c7b-96b4-006dd5213210{clip-path:url(#uuid-6c9db335-eeb1-4a21-bb25-68ad22c3e219);}.uuid-49c3ce99-55b1-49df-aa25-3a03a6a6dc2f{clip-path:url(#uuid-12797704-25a1-419c-9617-719637ddd8f6);}.uuid-6033b4a2-baed-4c47-b07b-3fdc75615ae9{clip-path:url(#uuid-0c6640d6-af83-411d-98fd-f17107a51c3d);}</style><clipPath id="uuid-7ab69090-c8c5-411e-9ae1-b6ea76ace1bd"><path class="uuid-ed41c6db-cb3d-4ef4-aa5c-966664f5bec3" d="M107.77,21.46c-.7-.81-.03-.66,.2-1.26-.53-1.1,.33-2.46-.97-3.19-1.09-1.21,1.89-2.69,.66-4.38-.5-.78-1.19-1.57-2.02-1.96-.83-2.06-2.9-2.98-4.97-2.51-2.73-1.21-5.65-2.52-8.67-1.52-3.04,1.17-5.28-2.75-8.48,.11-4.73-1.19-9.35-1.68-14.14-.16-5.12-1.22-6.57-1.76-11.8-.14-1.26-.02-2.24-.73-3.41-.95-1.16-.16-2.25,.87-3.43,.35-1.64-1-2.87,.02-4.4-.03-1.53-.08-3.05,.43-4.14,1.51-3.98-.35-6.15-.94-8.41,3.17-3.24,.74-.1,2.93-.68,4.79-2.87,1.63-.85,4.15,.19,6.06-.57,.84-1.22,1.87-.59,2.87-2.33,3,2.04,8.18,5.23,5.95,.34,.02,.67,.03,1.01,.03,.28,.95,1.63,.84,1.98,0,1.8-.23,3.46,.6,5.25,.51,2.04-.68,4.58,.17,6.45,.73,1.32,.51,3.03-.17,3.64,1.52,.3,1.97-1.36,3.88,.22,5.88,.21,.5,.72,.85,.87,1.36-.69,2.59-2.08,5.15-1.36,7.98,2.51,7.96-1.92,7.86,.42,15.8,0,1.65-1.66,2.82-1.13,4.48,.24,.7,.49,1.41,.09,2.12-.6,.94-1.03,1.99-.62,3.08,.13,.39,.03,.54-.14,.93-.28,.87-.05,1.95,.07,2.8,.23,.75,1.22,1.29,.93,2.2-1.69,2.25-1.87,5.15,.03,7.39,.31,.93-.91,2.26,.25,2.93,1.48,1.43,3.37,2.57,5.51,2.54,1.22-.23,1.57,1.17,2.41,1.67,.62,.28,1.27,.06,1.86-.18,1.91-.75,3.17,2.03,5.2,1.27,.67-.19,1.29-1.05,1.94-.33,.68,.14,1.21-.68,1.89-.7,1.16,.04,1.91-.64,2.68-1.4,1.79-.35,4.08-.09,5.11-2.05,2.08-3.4-.43-4.08,.75-6,.67-1.92,.14-3.87-.3-5.73,.55-1.99,1.34-4.03,.93-6.12-2.73-5.78,1.44-5.42-.87-9.72-.5-.54-.77-1.15-.38-1.84,1.85-3.85,1.01-8.07-.3-11.93-.02-2.24,1.45-4.27,1.29-6.57,.14-1.66-1.08-3.18-.69-4.84,.41-1.64,2.42-2.88,1.26-4.67-.51-1.38,1.43-.67,2.13-1.09,.46,.04,1.4-1.29,1.33-.59,1.44,.98,3.15,.68,4.46-.26,.94-.29,1.75,.61,2.63,.81,1.89,.55,4.07,.17,5.67-.99,.22,0,.44,0,.65-.01,1.33,1.75,4.07,.17,4.39-1.67,.09-1.23,1.51-1.84,2-2.83-.42-2.11-2-1.43,.22-3.73,.27-.43,.32-1.03,.08-1.48Z"/></clipPath><clipPath id="uuid-added1bf-6a13-44f4-a46a-15d57137e084"><path class="uuid-ed41c6db-cb3d-4ef4-aa5c-966664f5bec3" d="M202.61,77.55c-1.09-5.25-1.68-3.47-.12-8.8-2.26-5.93-.39-3.94-.24-9.54-.5-3.78-1.5-6.9-1.17-10.94,1-3.07-.36-5.93-.71-8.92,.04-1.67,1.38-3,.65-4.68-.33-.73-.67-1.41-.39-2.26,.64-1.28,.46-2.64,.02-3.89,.24-.64,.24-1.47,.22-2.17,.09-.9-.16-1.7-.7-2.38,.05-.67-.02-1.38-.03-2.03,.01,0,0-.03,0-.02,.53-1.26,.19-2.72-.09-3.98v.03s0,0,0,0c0,0,0-.01,0-.02-.11-.45-.12-1.18-.42-1.47-.13-.77-.53-1.45-.86-2.15,.56-1.47-1.25-1.45-2.05-2.06-.92-1.38-3.08-2.45-4.37-.93-.12,0-.24-.02-.34-.08h0c-.13-.08-.26-.15-.41-.2,.19-1.57-1.59-1.5-2.53-.88-.65-.1-1.25-.72-1.98-.77-.01,0-.02,0-.01,0h-.01c-.93-.22-3.41,.59-3.82,1.54-.98,.27-1.93,.01-2.92,.19-2.21-1.4-3.23,1.52-5.3,2.08h0s0,.02,0,.02c-.47,.41-.38,1.16,.2,1.42-.16,.13-.24,.36-.29,.57-.56,.26-.66,1.17-.14,1.53,.01,.2,.04,.4,.08,.59-.95,1.75-1.69,4.04-.82,5.96,.35,1.53-.53,3.17-.58,4.73,0,0,0,.02,0,.02h0c-.11,.77-.13,1.54-.03,2.33,.48,2.35,1.64,4.37,.29,6.68-.34,1.47,.42,3.11,1.5,4.17-2.27,9.06,.34,8.86,.48,16.69-1.25,3.84,1.27,7.69-.15,11.44-1.12,2.75,.91,2.62-1.01,6.38-.15,.64,.25,1.38,.24,1.96-.39,.91-.13,2.1,.01,3.03,.26,1.23,1.8,2.08,.82,3.47h0s-.01,.02-.01,.03c-.73,1.27-.85,2.94-.29,4.31,0,.01,0,.03,0,.04,.31,.73,.74,1.37,1.38,1.81,.1,.35,.26,.68,.4,.99-.12,.17-.3,.35-.32,.57,.02,.57,.34,1.32,.55,1.83,1.13,1.46,3.09-.51,4.3,.6,1.25,1.55,3.12,.04,4.57,.31,.3,.13,.71,.08,.88-.23,.6,.17,1.37,.03,1.73,.65,0,0,0,0,.01,0h0s0,.01,0,.02c.4,.57,1.15,.25,1.67,.57,0,0,.03,.01,.04,.02h0c.06-.01,.05,0,.04,0h0c1.02,.15,2.05,.11,3.07,0,.42,.07,2.93-1.4,1.85-1.23,.78-.15,1.76-.03,2.44-.14,.02,0,.04,0,.05,0,1.02,.17,1.22-.88,1.61-1.52,1.27,1.22,2.5-.96,1.54-2.06,.08-.3,.08-.57,.09-.85,1.42-1.51,1.51-4.08,.8-5.96-.18-2.09,1.02-4.23,.61-6.41Zm-2.1,14.56h0Zm0,0h.02s-.01,0-.02,0Z"/></clipPath><clipPath id="uuid-12797704-25a1-419c-9617-719637ddd8f6"><path class="uuid-ed41c6db-cb3d-4ef4-aa5c-966664f5bec3" d="M830.37,77.72c-.35-.86-.77-1.81-1.23-2.61-.1-.22-.17-.52-.19-.73,.17-.18,.06-.44-.02-.63,.06-.61,.07-1.34-.23-1.93-.67-1.78-2.62-2.71-4.54-2.72-1.22-.08-2.1,.95-3.18,1.25-5.37,.39-23.09,4.23-25.55-.38-.59-.53-.81-1.56-1.52-1.81,0-.76-.43-1.4-.64-2.13,1.34-1.55,2.45-3.72,4.73-3.88,1.58,.05,3.04-.4,4.39-1.18,1.44-.36,3.03-.18,4.3-1.15,.52-.37,1.02-.09,1.58-.06,1.26,.24,2.28-.36,3.2-1.13,1.84-.26,1.57-2.04,1.4-3.42,.82-1.58,.08-3.84-.43-5.45,.26-1.7-.1-3.83-1.15-5.29-.57-1.06-1.78-.59-2.73-.86-1.96-1.23-4.18,0-6.18-.43-2.3-.89-4.83-.64-7.2-.95-.96-.97-2.3-1.55-3.35-2.38-.92-.95-1.19-2.41-2.03-3.45-.18-2.99-1.45-7.74,1.51-9.39,8.38-3.28,18.8,.09,27.09-3.53,2.21-.07,5.3-2.05,4.16-4.59,.84-1.16,.92-2.73,.64-4.18-1.78-2.96,.76-6.78-3.51-8.06h-.02c-.5-.96-1.43-1.27-2.47-1.53-1.74-.36-4.52-1.48-5.96-.89-.62-.13-1.22-.8-1.86-.89-2.94-.08-10.06-1.64-12.78-.72-8.78-.49-13.91,1.05-21.15,4.42-3.95,1.82-5.36,2.65-7.46,4.08-2,.64-4.05,2.21-5.15,4.08-3.07,2.31-2.23,8.39-3.16,11.98,.07,10.78-.47,13.67,1.42,26.81,1.86,12.5,2.42,24.17,8.21,34.4,1.19,2.33,3.87,2.31,5.56,3.93,3.08,.72,5.84,2.02,9.1,2.18,8.19,1.63,12.72,1.87,21.05-.32,9.83-.83,27.07-3.32,25.38-16.48Z"/></clipPath><clipPath id="uuid-821bc078-04ed-4286-ab68-3df38f5f3e93"><path class="uuid-ed41c6db-cb3d-4ef4-aa5c-966664f5bec3" d="M195.88,202.59c.23-1.39-.04-2.95,.43-4.35,.22-1.21-.91-2.16-1.06-3.25,.15-1.36,.2-2.64-.62-3.9,0-.15,.06-.27,.11-.39,.46-3.09-3.23-5.62-5.45-7.17-1.68,.23-1.56-1.74-2.7-2.53-1.22-3.56-5.5-1.52-7.56-6.46-.56-.33-1.13-.14-1.71,.04-1.9,.54-1.95-2.51-3.82-2.52-.62-.05-1.43,.44-1.52-.5-.03-.07-.1-.12-.22-.16-1.4,.11-2.48-1.4-3.86-.49-1.48,.46-1.75-1.83-2.79-2.48-1.34-.95-3.11-1.26-4.67-1.68-.04-.23-.53-.24-.64-.39,.08-.16,.39-.26,.17-.5,.58-.76,.43-1.88-.11-2.61-.44-.29,.02-.92-.08-1.36,0-.2-.05-.4-.04-.6,.27-.33,.68-.58,1.09-.82,1.03,.51,2.48,.06,3.31-.27,.79-1.41,1.29,.94,2.47,.4,0-.01,.03-.02,.04-.02,.32-.23,.54-.99,.84-.26,.4,.53,1.19,.55,1.68,.13,1.52,1.16,3.76,1.68,5.6,1.08,.63,.19,1.26,.39,1.88,.62,1,1.58,2.46,2.63,4.23,2.87,.51,.67,1.11,2.16,2.2,1.49,.57-.35,.45,.43,.67,.72,.36,.6,1.18,.94,1.86,.67,.28,.18,.65,.42,1.09,.5,1.58,2.09,6.16,.44,5.58-2.28h0c-.06-.31,.12-.56,.34-.8,1.09,.19,2.14-.77,2.8-1.51,1.63-.64,3.03-2.32,2.77-4.15,0,0,0,0,0,0,0-.03-.02-.06-.04-.07-.27-1.54,2.37-3.04,.89-4.88-.24-.29-.98-.18-.9-.71,.3-1.09-.46-2.35-1.54-2.64-.62-.73-1.29-1.55-2.31-1.64-1.03-1.04-1.79-2.31-2.96-3.17-1.28-.97-3.08-.78-3.93-2.33-1.23-1.33-2.65-2.7-4.44-3.22-1.3-.04-2.06-.23-3.22-.77-3.4-.05-5.63-4.49-9.28-2.41-.86,.78-1.75-.05-2.68-.17-8.21-4.54-11.49,1.53-19.51,1.1-3.97,.84-3.77,.89-6.69,3.53-1.96,1.39-4.72,1.54-5.99,3.75-1.2,1.78-3.85,2.24-4.3,4.6-1.37,2.07-1.8,4.54-.6,6.82-.06,1.83-1.63,3.42-1.27,5.4,.11,1.53,1.14,2.76,1.96,3.97,.2,1.11,.08,2.38,.76,3.38,1.65,1.74,1.2,1.92,1.16,3.99,.77,2.05,2.56,3.32,4.38,4.37,1.69,2.49,4.6,3.48,6.23,6,3.2,1.12,4.29,.23,6.25,3.74,0,0,.01,.03,.02,.03,1.01,1.58,2.85,1.5,4.32,2.14,.31,.82,1.28,.66,1.95,.9,1.01,.51,1.53,1.75,2.68,2.03,.77,.33,1.72-.25,2.41,.21,1.12,1.11,1.02,2.75,1.21,4.19,.02,.45,.07,.89,.11,1.32,.34,1.95-1.51,3.74-2.72,5.05-2.93-.05-6.55,2.29-8.19-1.32-2.79,0-2.08,1.05-3.68-1.93,0,0,0,0-.02-.01-.58-.92-1.59-.56-2.37-.73-.14-.88-.5-.77-1.26-.89-.93-.55-1.64-1.23-2.75-.61-2.5,.27-.88-5.21-7.5-2.19-.33-.04-.58-.01-.85,.11-3.12-1.49-4.22,.89-5.69,3.17-3.62-.01-1.31,1.3-2.88,3.11-1.21,1-1.53,2.18-.72,3.46-.85,.45-.23,.78-.31,1.56-.32,1.79,.4,1.83,1.54,2.73,.12,1.1-.52,2.38,.24,3.42,.8,.88,2.27,1.53,3.47,1.33,1.86,.7,2.48,3.24,4.61,3.35,1.28,.69,1.71,2.79,3.37,3.21,2.87,.75,2.4-1.09,4.73,1.7,.93,.43,1.81-.18,2.59-.57,2.38,2.16,5.47,2.81,8.5,1.49,3.96,1.64,3.35,1.95,7.61,.79,1.16,.23,2.08,1.84,3.26,.79,.89-.74,1.75,.59,2.7,.37,.5-.07,.81-.7,1.33-.38,1.18,.19,2.11-.59,2.66-1.56,.43-.36,1.06,.13,1.54,.27,1.57,.38,3.14-.96,3.46-2.45,3.16,.41,6-1.33,7.87-3.88,1.63-2.17,4.46-3.2,6.58-4.96,1-1.08,1.01-2.85,2.16-3.81,.83-.63,1.19-1.72,1.86-2.42,.71-.6,1.26-1.62,1.32-2.59-.09-.75-.12-1.64,.56-2.08Z"/></clipPath><clipPath id="uuid-b565ec94-6aa7-4519-976d-81b0fcc11ebd"><path class="uuid-ed41c6db-cb3d-4ef4-aa5c-966664f5bec3" d="M645.41,46.41c2.02-3.27,1.03-6.71,.36-10.12,.41-2.11,1.51-3.77,.56-5.91,.2-1.42,1.62-2.63,.97-4.19,.08-1.14,.6-2.28,.41-3.51,.06-.98-.9-1.52-.96-2.51,1.02-2.76,1.1-6.43-1.82-8.04,.15-1.02-.2-1.95-1.1-2.62-.93-.39-1.59,.29-2.54,.22-.29-.18-.59-.41-.93-.52-.5-2.29-3.38-1.58-4.28,.03-.36,.04-.71,.15-1.06,.14-2-1.87-8.15-2.6-9.51,.33-.27,.1-.53,.2-.79,.32-.74-1.05-1.93-.11-1.65,.97-1.16,1.41-3.03,3.37-1.66,5.32,.31,1.66-1.13,3.41-.51,5.13,3.01,4.97-2.3,4.03,1.05,7.66-2.78,8.89,1.6,7.16-1.67,14.42-.45,1.97,1.6,3.98-.31,5.66-.46,.48-.77,1.06-.46,1.71,.92,1.2-.58,2.04-.67,3.19-.04,.54,.54,1.02,.09,1.48-.25,.81-.31,2,.34,2.64,1.53,1.51-2.06,2.35-1.06,5.43-.07,.1-.15,.21-.22,.31-1.4,.04-1.93,1.42-2.25,2.5-1,.37-2.38,.33-3.06,1.29-1.49,4.47-2.88-.72-4.2,3.3-.29-.09-.6,.05-.9,.05-2.15-2.05-4.72-.1-7.07-1.18-.76-1.49-1.57-2.59-3.27-2.81-1.45-1.51,.49-2.43-1.66-3.27-.32-.63,.66-1.68-.38-2.03-.25-.14-.16-.21-.09-.45,.05-1.06-.88-1.4-1.72-1.72,.03-1.35,1.06-2.33-.67-3.4-.02-.23-.03-.46-.04-.7,.63-.9,.34-2.3-.45-3.02-.45-1.5,1.31-2.75,.77-4.31-2.72-4.21,2.43-3.34-1.04-6.6,2.63-4.12,.68-5.17,.5-9.27,3.03-3.34-.81-4.82,1.18-7.35,.4-.44,.63-.95,.28-1.44-1.05-.94,.38-1.65,.44-2.61-.06-.51-.54-.84-.05-1.29,.15-.49,.13-1.14-.02-1.59-.19-.38-.72-.65-.67-1.12,1.63-1.26,2.46-2.96,.51-4.5-.06-.65-.66-1.08-.52-1.78,1.6-1.22-.5-1.62-1.02-2.55-.2-.64-.85-1.13-1.29-1.64-.64-.68-1.83-.84-2.48-.09-.29-.08-.58-.15-.88-.19-.04-.65-.49-1.08-.99-1.2-.46-.13-.88,.49-1.35,.28-1.17-.93-2.55-1.87-3.96-.79-.39,.33-.71,.79-1.08,1.17-1.16,0-2.27,0-3.43,.29-2.41-1.78-2.62,.91-4.3,1.39t0,0s0-.01,0-.01c0,0,0-.01-.01-.01-.04-.02-.08-.04-.13-.04-.89-.54-1.99,.78-1.09,1.46-.1,.21-.21,.41-.3,.64-.6,.12-.88,.92-.51,1.41-.91,1.15-.46,2.71-1.14,4-.11,1.08,.41,2.08-.28,3.09-1.79,3.34-.32,6.91-.8,10.28-1.87,2.1-1.73,4.76,.17,6.76-1.12,4.79-.76,9.69,.02,14.54-1.52,3.6-1.22,7.33,.36,10.88,.54,2.12-1.35,3.87-.51,5.91,.4,.77,1.09,1.36,1.01,2.27-.25,1.15-.4,2.35,.33,3.38,.29,.5,.19,.55,.18,1.09,.13,1.81,1.64,3.07,3.07,3.91-.23,3.25,2.09,6.43,5.22,7.51,.33,.49,.77,.83,1.26,1.11-.18,1.84,1.23,3.23,2.8,3.83,1.55,2.65,4.47,3.49,7.36,3.14,2.03,.87,3.25,3.51,5.86,1.83,7.08,3.5,5.34,1.37,12.68,1.26,3.32,2.29,5.8,.29,8.63-1.36,1.36-.37,2.94,.89,4.01-.38,.44-.53,.8-1.08,1.6-1.11,1.2,.13,2.1-.4,2.87-1.21,1.79,.09,2.73-1.17,3.35-2.63,2.67-.79,5.18-1.63,4.95-5.12,2.16-.24,4.33-2.01,4.3-4.32,.91-1.87,2.66-3.31,3.28-5.35,.55-2.08,.59-4.15,1.25-6.22,1.42-1.35,1.79-3.48,.85-5.21,.08-.3,.16-.6,.26-.89-.23-2.02,1.63-3.58,1.73-5.61,.9-3.28-1.09-6.61-.01-9.73Z"/></clipPath><clipPath id="uuid-6c9db335-eeb1-4a21-bb25-68ad22c3e219"><path class="uuid-ed41c6db-cb3d-4ef4-aa5c-966664f5bec3" d="M754.25,33.28c-.43-1.31-.95-2.51-1.21-3.86,1.21-4.22-1.95-6.58-2.51-10.42,0-.02,0-.04,0-.05-1.7-5.03-4.08-.14-7.06-9.39-.79-.86-1.85-1.41-3.02-1.52-1.47-.99-2.14-2.72-3.48-3.85-3.41-3.27-8.41-1.8-12.39-3.07-4.44-2.97-9.37,1.08-13.88-.76-1.63-.82-3.02,.65-4.52,1.07-1.48,.09-3.22,.09-4.1,1.52-1.33,.67-3.83,.66-4.55,2.5-.46,3.33-7.05,.26-6.93,7.26-1.19,1.1-3.28,1.46-3.75,3.29,.02,.94,.11,1.68-.28,2.56-2.94,3.77-1.47,5.09-1.27,9.1-1.69,2.02-2.15,4.2-.48,6.44-1.23,3.47-1.82,7.34-1.43,11.05,1.14,3.96-2.34,7.84-.3,11.91,.42,1.93-1.82,3.34-1.14,5.21,1.02,1.45-.44,2.7-.55,4.15-.03,.67,.55,1.32,.08,1.93-.47,1.52-.1,3.02,.79,4.3,.25,.83-.61,1.56-.91,2.27-.81,1.85,.33,3.83,.76,5.58-.17,.38-.26,.79-.3,1.21-1.86,1.71-.56,4.2,1.75,4.52h.02s0,0,.01-.01c.45,.04,.57,.55,.97,.65,0,0,.01,.01,.03,.01,.78,.4,.58,1.38,.99,2.04,1.06,2.12,4,3.24,6.15,2.1,.59,.21,1.18,.38,1.79,.45,2.07,2.03,5.38,1.9,7.27-.25,.08-.06,.08,0,.09,.02,1.79,.48,4.03,.47,4.88-1.49,.12-.18,.19-.45,.28-.62,.58-.6,1.24-1.32,1.06-2.23,.22-.44,.42-1.02,.23-1.37,1.63-.43,1.02-2.77-.42-3.05-.06-.16-.06-.32-.08-.5,1.09-1.31,1.93-.89,.67-2.79-1.51-2.27,2.32-2.84-.33-5.67,.01-.91,.03-1.87,.05-2.86,2.26-2.23,2.75-7.37,.2-9.51,0-.3,.02-.59,.03-.87,.28-.09,.59-.23,.71-.46,.59,.57,1.03,1.26,1.42,1.98-.25,1.86,.68,4.22,2.8,4.37,.16,.28,.33,.57,.51,.88-1.65,2.18,1.35,2.17,1.23,3.46-1.11,3.78,3.86,4.27,4.73,7.24-.13,.2-.24,.39-.36,.59,0,0,0,0,0,0h-.01s0,.02,0,0c-.81,1.24-.06,3.45,1.31,3.94,.45,.16,.86,.51,1.18,.83,.88,.85,.5,3.16,2.3,2.82,.13,.23,.23,.4,.37,.6-.91,.73-.44,2.33,.83,1.97,.01,.15,.05,.29,.1,.45-.47,3.01,.91,3.69,3.69,3.51,.6,.74,.43,1.81,1.17,2.55,.95,.08,2.02-.61,2.88,.21,.29-.33,.76-.52,1.14-.76,1.11,0,2.65-.16,3.34-1.1,.75-.16,1.82-.27,2.59,0,2.04,.08,3.44-2.04,5.33-2.59,1.96-1.13,3.56-3.45,3.48-5.75-.23-.86-1.22-1.36-1.14-2.33,1.27-.59,.9-2.28-.3-2.72-.07-.11-.16-.21-.24-.32,.44-1.8-.86-3.21-2-4.35-.27-1.71-.42-3.63-1.69-4.95-5.46-3.26-.53-4.89-5.35-6.78-.71-1.11-.76-2.4-.61-3.65,.21-.87,1.47-.78,1.82-1.61,1.56-4.49,3.32-3.83,6.92-5.62,1.42-.93,1.39-2.88,2.54-3.97,1.1-.89,3.24-1.16,2.85-3.01-.21-1.4,1.67-1.39,2.04-2.53,.24-.43,.06-1.07,.22-1.47,.9-1,.83-2.74-.03-3.73-.27-.53-.05-1.15,.32-1.59,.75-.86,.91-2.03,.69-3.13Zm-27.89,2.38c-1.47,.44-.96,2.29-2.47,2.5-.94-.02-1.9,0-2.54,.79-.33,.36-.55,.12-.96,.16-1.4,.18-2.27,.96-3.15,1.93-2.49-.15-4.34-3.37-7.23-.47-.65,0-1.3-.12-1.92,.04,.1-2.24,1.36-4.33,.53-6.61,.89-1.77,2.23-4.22,1.4-6.19-.02-.23,.07-.44,.18-.66,.5-3.47,3.28-1.21,4.18-4.37,3.59-1.6,1.74-1.33,5.39-.44,1.59,.07,2.96,1.14,4.57,1.1,.44,.4,.94,.88,1.45,1.29,.51,.49,.43,1.27,1.04,1.68,.32,1.75-.39,3.51,.43,5.18,1.26,1.47,.77,3.13-.9,4.05Z"/></clipPath><clipPath id="uuid-4ae98618-bafe-4dfa-808b-ba4dc7cd97f7"><path class="uuid-ed41c6db-cb3d-4ef4-aa5c-966664f5bec3" d="M123.47,214.04c-.24-.4,0-.52,.08-.9,.12-1.29-.39-2.27-1.39-3.07-.32-.52,.22-1.18,.39-1.7,.44-1.4-.26-2.98-1.27-3.97-.07-1.75,1.48-3.46,.08-5.1-.5-2.08,.76-4.49-.36-6.58-4.11-4.91-.18-5.49-3.66-8.67-1.13-5.09-.11-8.37-4.05-12.86,.24-4.59-3.29-6.52-4.63-10.47,1.08-3-.88-2.74-1.58-4.91-.01-1.07-.19-2.15-1.11-2.81-.35-.31-.27-.38-.32-.78-.3-1.45-1.25-2.6-2.56-3.26-.65-2.47-.56-4.99-3.5-6.15-.47-.12-.66-.6-.96-.94-.57-.19-.76-.56-.83-1.08h0c-.54-1.36-1.3-2.69-3.02-2.68-2.89-2.31-6.27-4.56-10.09-2.64-2.69-.24-5.32-2.27-7.35,.97-5.38,.45-8.26,4.67-9.45,9.37-.07,.15-.14,.28-.24,.41-4.13,3.31-4.81,5.55-6.02,10.41-.5,1.02-1.74,1.62-2.06,2.76-.24,.93-.08,2-.9,2.7-.92,.74-1.7,1.71-1.66,2.95-.04,.53-.14,.52-.44,.87-1.06,1.45-.94,3.09-.89,4.75-1.89,1.95-4.12,4.61-2.67,7.54-.14,.26-.04,.42,.15,.61-1.72,.65-1.97,2.62-1.92,4.17-1.44,1.7-2.79,3.78-2,6.09,.99,2.29-2.95,3.22-.92,5.8-1.62,4.3-1.81,6.87-1.14,11.46-1,1.51-2.15,3.14-1.9,5.05,.11,.83,.55,1.68,.15,2.5-.65,1.32-2.28,2.49-.94,4,.5,.97-.33,2.18,.47,3.07,.24,.41,.9,.55,1.17,.85,.62,1.42,2.42,1.87,3.76,1.25,.65,0,.97,.71,1.39,1.1,1.23,1.03,3.16,.84,4.45,.02,.6,1.01,1.72,1.48,2.77,.9,.42,.05,.19,.67,.61,.69,.88-.26,1.51,.59,2.33,.61,2.14-1.35,4.15,1.3,6.07-.58,.02,0,.01-.01,.02-.01,.65-.91,1.59-2.12,1.24-3.33,.06-.08,.11-.16,.17-.24,7.24-1.67-.76-7.99,4.19-8.99,2.74-.78,.19-3.57,4.77-2.96,1.06,.02,1.54-.94,2.32-1.27,.33,.03,.34,.44,.63,.37,1.36-.48,2.91,.83,4.13-.53,2.13-1.03,2.33,2.77,9.19,1.76,.28,.21,.54,.43,.79,.68-.22,1.79,.91,3.35,1.78,4.77-.17,1.61-.56,3.43,.42,4.88,.5,.91,1.47,1.35,2.15,2.07,.6,1.01,1.42,2.38,2.8,2.24,1.04-.04,1.8-1.09,2.87-1,5.67,2.2,3.71,.88,9.03-.85,2.41-1.06,6.29,2.42,7.45-1.15,.74-1.78,2.68-2.86,1.51-5,.15-1.06,1.36-2.06,.52-3.18Zm-48.81-32.14c1.47-1.65,3.82-3.06,2.44-5.77,.76-1.88,2.76-2.98,3.34-5.02,1.13-1.87,1.91-7.84,5.05-5.59,1.17,1.24,1.41,2.92,2.35,4.29,.69,1.24,2.2,1.96,2.53,3.4,.48,1.42-.58,2.97,.51,4.18,.86,.71,.98,1.77,.8,2.83-.25,1.13,1.14,1.76,1,2.73,1.65,7.68-1.3,.34-6.92,5.3-1.83,.07-3.59-.86-5.44-.31-1.72,.16-3.92-1.3-4.78-2.74-.52-.97-.78-2.13-.91-3.14,0-.06,.03-.11,.04-.17Z"/></clipPath><clipPath id="uuid-2966cd48-da29-43c4-be9e-d7f5cf3fc17b"><path class="uuid-ed41c6db-cb3d-4ef4-aa5c-966664f5bec3" d="M565.59,51.69c.09-1.8-.36-3.36-1.41-4.79,.28-3.43,.54-6.46-1.88-9.35,1.09-2.4-.41-5.04-1.9-6.87-.7-3.64-2.53-7.02-6.1-8.49-1.67-1.49-1.8-4.48-4.48-4.97-2.81,.02-3.73-3.19-6.2-4.17-2.73-1.41-5.83-1.37-8.8-1.29-2.72-.95-5.57-2.54-8.53-1.42-2.55,1.93-6.02,.37-8.5,2.08-1.13,1.06-2.82-.08-4.15,.45-1.47,.93-3.18,.96-4.58,2.03-.79,.44-.88,1.25-1.42,1.92-1.65,1.04-3.88,1.21-4.85,3.25-.85,1.15-.76,2.61-1.72,3.65-1.15,.41-2.03,1.35-2.78,2.29-1.05,1.1-1.4,2.56-2,3.88-1.3,1.44-2.46,3.11-2.96,5.02-.93,2.48,.05,5.15-.84,7.59-.53,.99-1.18,1.94-1.36,3.08-.56,2.19,1.71,3.91,1.17,5.94-2.43,6.42,1.87,12.09,2.42,18.23-.19,5.57,4.71,8.86,6.52,13.71,.59,.83,1.67,1.09,2.39,1.78,.8,.73,.96,2.02,1.74,2.79,.5,.71,1.54,1.01,2.18,1.46,.43,.56,1.12,1.14,1.82,1.43,3.44,1.64,3.21-.17,6.5,3.05,1.65,1.04,3.52,.24,5.27,.14,3.23-.13,5.81,2.17,9.02,1.69,4.03-1.56,9.02,.53,12.46-2.92,2.27-1.56,5.9-.49,7.14-3.73,.22-.78,.7-1.39,1.52-1.54,5.07-1.35,7.73-6.15,8.75-10.96,3.03-3.54,4.6-7.54,4.07-12.25,.18-1.8,1.57-3.11,1.1-4.97-.22-.86-.44-1.63-.08-2.56,1.08-1.67,.18-3.44,.45-5.17Zm-43.31,18.73c-1.09-.33-1.47-1.24-2.17-1.96-.52-.16-1.34-.19-1.35-.92-.02-.73-.02-1.51-.76-1.9-.27-.19-.19-.27-.18-.56-.13-1.12-.88-1.82-1.84-2.33-.36-.42,.04-1.06,.17-1.53,.32-1.43-.54-2.88-1.6-3.8,.92-1.76,.33-3.75-.03-5.53,.57-1.58,1.57-3.04,1.81-4.69-.28-6.03,3.15-3.16,2.39-8.53,.93-1.27,2.81-1.43,4.03-2.39,1.89-1.05,3.5-3.45,5.77-3.45,1.6,.45,2.84,1.53,4.31,2.17,2.13,.5,3.8,2.04,4.01,4.28,1.33,1.43,1.62,1.45,1.61,3.57,.18,.75,1.06,1.08,.92,1.92,.25,1.25,.94,2.1,1.95,2.83,.46,.71-.23,1.55-.23,2.31-.05,1.49,.54,2.95,1.4,4.13,.01,.15,.01,.29,.02,.44-1.08,1.2-.88,2.89-.73,4.32-.73,1.2-1.8,2.35-1.87,3.84,.92,4.94-1.39,2.34-1.94,5.85-.56,.49-1.16,.96-1.78,1.37-2.87-.47-5.18,1.94-7.87,1.79-2.08-1.46-3.64-2.19-6.04-1.23Z"/></clipPath><clipPath id="uuid-ac20f999-b3bf-4fc8-9f10-531e4651539c"><path class="uuid-ed41c6db-cb3d-4ef4-aa5c-966664f5bec3" d="M162.45,74.37c.49-1.66,.98-2.85,.03-4.53-.11-.68,.62-1.09,.98-1.59,.87-1.34,.77-3.17,.21-4.6,.04-.17,.09-.34,.13-.51,1.38-1.12,1.53-3,1.55-4.62,.72-.91,1.64-1.8,2.03-2.92,.91-1.78-1.26-4.01,.71-5.29,1.31-1.04,.62-2.67-.02-3.85,2.44-2.72,2.83-6.03,2.23-9.55,4.56-5.32,.56-5.98,3.38-9.26,1.21-.81-.22-2.14,.68-2.99,1.13-.52,1.33-1.64,1.09-2.72,.69-1.27-.32-3.45-1.91-3.27,.86-1.71-1.14-4.89-3.19-4.37-1.18-.2-1.58-1.65-2.42-2.23-2.91,.23-1.53,1.21-3.85-1.32-.53-.36-1.29-.5-1.89-.23-.26,.13-.63,.52-.9,.23-.16-.63-.6-.25-1.05-.23-1.42-.66-2.05-.17-3.28,.41-2.94-1.35-4.61,.44-4.72,3.37-.25,0-.44,.22-.55,.41-.09,.09-.11,.23-.2,.33-1.48,2.2,2.06,3.44-2.17,5.13,0,2.39,1.32,1.16-1.1,3.23-.36,.52-.34,1.31,.17,1.73,.38,.37-.44,.23-.4,.54,.4,1.2-.78,1.25,.33,2.73-.14,.94-1.52,1.07-1.84,2.01-.3,.99-.1,2.47,.57,3.31-.11,.36-.21,.7-.33,1.04-1.3,.29-.4,1.78-1.25,2.42-1.17,.62-2.27,1.65-2.13,3.08-.22,.14-.47,.28-.73,.41-.48-.4-1.07-.35-1.48,0-.1,.23-.21,.64-.53,.67-2.28-1.78-2.5-.4-4.99-.4-2.3-.6-1.53-3.08-4.21-3.28-.95-.56,.05-2.53-1.49-2.43-.04-.21-.08-.43-.11-.64,.29-.4,.13-1.02-.27-1.3-.09-.63,.33-1.26,.27-1.95,1.26-.85,1.21-2.77,1.07-4.13,.37-1.73,2.37-2.98,2.37-4.95,.31-1.21-.59-2.58,.14-3.65,1.54-1.21,2.03-3.22,.61-4.74,.11-1.79,2.07-2.98,1.7-4.96-.28-3.15-3.92-2.8-5.77-4.33-1.72-2.36-4.44-2.32-7-2.42-1.36-.71-2.71-2.16-4.27-.96-1.42,.11-3.64-.58-3.91,1.57-.53,1.04-2.11,1.71-1.87,3.16,.15,.85-.68,1.23-1.23,1.68-1.2,1.15-1.29,3.1-.72,4.58l-.07,.26c-1.79,1.21-1.66,3.54-1.5,5.38-1.76,1.97-3.57,4.34-2.49,7.11,1.43,3.08-4.39,3.24-.95,7.14-3.83,6.67-1.77,6.47-3.24,13.05-3.67,2.52-2.44,4.96-2.11,8.43-.91,2.06-2.62,2.34-1.47,4.87-.3,1.19-2.22,1.79-1.5,3.3,.11,.44-.03,.44-.32,.72-.93,1.27-.56,2.67,.05,3.98-.02,1.02-1.46,1.17-1.88,2-.96,1.58-1.07,3.82,.45,5.09-.03,.29-.09,.58-.05,.87-2.69,1.88-.89,3.09,.61,4.87-.6,2.79,2.26,3.98,4.54,2.85,.52,.19,1.04,.38,1.57,.52,1.97,3.14,9.31,4.96,10.76,.53,.59-.09,1.02-.78,1.31-1.31,.97-.34,1.29-1.54,1.37-2.47,.39-.87,.79-1.75,.91-2.73,.78-1.76,2.14-3.33,2.03-5.42-.11-2.65,3.7-3.01,1.92-6.32,.32-2.35,8.86-5.78,10.56-4.03,1.89,2.61,7.71,2.12,7.13,5.68-.55,1.18,.97,2.1,.31,3.22-.53,.74-.98,1.5-.72,2.43,.07,.4-.03,.4-.22,.71-.35,.64-.32,1.54-.36,2.24,.23,.84,1.05,1.68,.15,2.48-1.99,2.31-.05,5.32-1.23,7.94,.12,1.04,.28,1.92-.31,2.88-.38,1.5,.72,3.02,1.89,3.83,.97,.84,2.27,.68,3.41,.94,1.25,.65,1.93,2.29,3.61,2.03,.72,.02,1.32-.35,1.9-.71,1.93-.14,3.51,1.64,5.46,1.14,2.56-.51,2.97-3.18,3.99-5.1,1.44-2.44,3.05-4.76,2.47-7.81,.09-1.84,2.68-2.52,2.14-4.47-.25-1.56,1.98-2.31,1.4-3.98Z"/></clipPath><clipPath id="uuid-2321b159-a37e-4180-a14d-2254b1fff739"><path class="uuid-ed41c6db-cb3d-4ef4-aa5c-966664f5bec3" d="M294.26,27.8c-.03-.47-.47-.65-.74-.95,.17-1.11,.47-2.57-.87-3.22-.13-2.31-.93-4.52-3.68-4.48-3.5-1.91-7.68-.34-11.09-2.1,.03,0-.04,0-.03,0-1.57-.5-3.15,.39-4.23,1.46-1.06,.06-2.25,.34-2.58,1.52h0c-.94,1.83-1.18,4.04-.98,6.07h0v.02h0s0,0,0,0h0c.11,.67,.24,1.33,.34,2-.38,3.09-3.4,5.88-2,9.19,1.09,2.09-1.28,3.81-.76,5.8,.68,1.1,0,2.15-.47,3.17h0s0,.01-.02,.03c-.16,.52-.11,1.14,.07,1.64,0,1.25-.67,2.75,.11,3.97,0,0,0,0,0,.01h0s0-.02,0,0c.77,.83,.31,1.89-.27,2.69,0,0,0,.02,0,.03h0c-.3,.62-.4,1.39-.3,2.09-.17,.07-.23,.28-.32,.42,0,.02,0-.06,0,.06-.61,.83-.16,1.76,.51,2.44-.06,.16-.14,.31-.23,.45-.29-.15-.73-.33-.91-.54,.02,.06,.03,.07,.08,.08,0,0,0,0-.02,0-.02,0-.04,0-.06,0,0,0,0,0-.01,0,0-.03,0-.05,0-.08h0c0-.12,.01-.18,.01-.22h0s0-.02,0,0c-.23-.16-.46,.38-.76,.29-.35-1.06,.18-2.02-1.47-2.29-.14-.51-.45-1.01-.65-1.5,.37-.24,.69-.63,.66-1.06h0s.01-.03,0-.05c-.08-.85-1.07-1.27-.83-2.21,.29-1-.58-1.29-1.38-1.02,.01-.07-.02-.12-.04-.18,.53-.61,.32-1.41-.55-1.49-.08-.22-.17-.45-.25-.67,1.33-2.49-2-3.91-2.18-6.03,0,0,0-.03,0-.03-.13-2.11-.69-4.08-2.1-5.72-1.08-.89-.99-2.11-.85-3.37h0s-.01-.02,0-.03c.07-1.58-1.33-2.61-2.59-3.26-.5-3.58-1.26-7.43-4.53-9.65-2.35-2.53-.45-8.22-6.05-7.37-.62-.34-1.05-1-1.75-1.19-1.24-2.13-2.63-.78-4.4-1.22-.88-.45-1.87-.77-2.8-.31-.4,.14-.45,.04-.79-.1-1.41-.4-2.81,0-3.93,.9-.87,.29-1.66-.51-2.54-.51-1.66-.09-3.81,.88-4.1,2.65-.21,.27-.44,.53-.53,.86-2.36,.4-2.81,3.75-2.25,5.6-1.71,1.34-1.14,3.71-1.85,5.48-.48,1.44-.4,2.95-.37,4.43-1.05,2.73-3.29,4.29-1.59,7.6-3.1,4.67-2.21,10.04-3.12,15.26-3.57,4.23-1.08,8.19-3.21,12.23-1.29,1.36,.04,3.15-.74,4.64-1.24,1.41-.52,2.88-.85,4.36-.26,.81-.16,1.73-.02,2.56h0c.05,.52,.32,.97,.73,1.28,.04,.07,.09,.12,.13,.19,0,0,0,0,0,.01,0-.04,0-.01,0-.02h0s.01,.02,.02,.03c.11,.19,.22,.4,.22,.64-.08,1.05-.99,1.78-1.19,2.8,0,.02,0,.02,0,.04-.26,1.25-.11,2.75,.75,3.8,0,.02,.02,.02,.02,.04,0,0,.04,.07,.02,.04h0s0,.01,0,.01c.3,.35,.64,.67,1.03,.91,.02,2.13,2.07,3.75,4.03,4.1,1.67,.25,3.09-1.08,4.75-.41,1.39,1.33,3.33,2.43,5.31,2.49h0s.05,.01,.06,0c0,0,0,0,.02,0,.03,0,.06,0,.09-.02,.63-.04,1.09-.55,1.66-.72,1.23-.08,2.87,.74,3.74-.59-.15-1.29,1.4-.94,1.81-1.96,.48-.78,.31-1.82-.51-2.24,.05-.15,.09-.3,.13-.45,.79-.14,1.39-.96,1.46-1.74h0c.17-.96-.66-1.77-.85-2.62v.03c.93-2.94-.27-5.62,.26-8.62,1.22-2.4,2.1-5.38,1.59-8.08,.03-1.16,.76-2.11,.8-3.31h0s0-.02,0-.02c.14-.75-.14-1.32-.62-1.85,.49-1.4,1.45-3.25,.18-4.63,.03-.24,.05-.48,.08-.72,1.49-1.16,1.64-3.65,1.1-5.33h0s0,.02,0,.01h0c-.98-1.64,.18-1.61,1.18-2.42,.13,.29,.41,.63,.64,.89,.27,.23,.69,.3,.93,.57,.31,3.8,1.95,1.22,1.48,3.11v.03h0s0,0,0,0c-.02,.71,.53,1.41,1.27,1.45,.09,.24,.19,.5,.29,.77-.83,1.61,.17,3.43,1.28,4.58,.17,1.05,.25,2.22,.61,3.23,0-.02,0,.03-.02-.03,0,0,0,0,0,.01,.29,1.01,.7,1.98,1.57,2.68,0,0,0,0,0,0h0c1.99,1.17-.57,3.94,2.05,5.15,2.04,1.09-.98,4.79,4.44,8.76h0s0,.01,0,.01h0s0,.01,.01,.01c1.17,1.57,.32,3.44,1.03,5.15,.44,1.4,2.07,1.8,2.67,3.04,.57,1.02-.12,2.51,1.03,3.2,1.7,.68,.62,2.92,2.47,3.64h0s0,0,0,.01c.88,2.04,2.48,1.67,4.17,1.52,1.61,1.63,4.34,1.51,5.68-.42,.51-.24,.86-.18,1.35,0,1.32,1.56,3.55,.85,5.17,.36,.83,.18,1.73,.48,2.6,.58-.03,0,.07,0,.09,0,3.07,.16,2.89-3.02,3.97-4.82,1.79-.97,2.52-2.85,1.59-4.71,4.6-5.25,.71-8.26,3.64-12.71,1.51-1.95,.58-4.23,.79-6.37,.37-1.32,2.08-2.15,1.43-3.66-.45-1.43,1.72-2.27,1.08-3.79,.46-1.52,.92-2.77-.1-4.28-.13-.62,.53-1.1,.86-1.57,.92-1.43,.71-3.36-.02-4.83,1.39-1.05,2.02-2.89,2-4.61h0c-.13-2.17-.79-4.33-.12-6.44,.54-.5,.74-1.23,.86-1.93,0,0,0,.03,0,.02-.03-.39,.3-.3,.55-.5,.56-.39,.75-1.1,.81-1.74,0-.03,0,.03,0,.04,0,0,0-.01,0-.02,.33-1.09-.21-2.17,.02-3.26,0,0,0-.01,0-.02h0c.41-.91,.81-1.84,.62-2.9Zm-63.39,54.78s0,0,0,0h0Zm0-.01h0Zm5.02-35.23c-.07,.17-.3,.16-.42,.24,.07-.08,.15-.14,.22-.22t0,0s0,.02-.01,.03h0s.09-.09,.12-.14c.05,.01,.1,.02,.08,.1Z"/></clipPath><clipPath id="uuid-a93fd127-4993-4762-8f70-00a48e9d93d2"><path class="uuid-ed41c6db-cb3d-4ef4-aa5c-966664f5bec3" d="M364.64,80.44c-.11-.35-.38-.5-.6-.8,1.7-4.31-5.4-4.69-6.8-7.87-.36-.97-.64-2.19-1.81-2.48-2.45,.01-2.73-2.3-4.07-3.78-.55-.88-2.22-.65-2.16-1.85-1.3-.9-2.48-2.51-4.16-2.76-1.69-1.23-2.4-3.16-3.73-4.69-.24-.22-.46-.48-.72-.65-.63-1.07-.58-2.67-1.67-3.5-.02-.45-.09-.91-.04-1.35,1.3-.84,1.62-2.5,2.05-3.84,1.7-1.3,2.8-3.12,2.96-5.25,.3-2.16,3.9-2.13,3.08-4.88,5.38-4.29,3.22-5.39,6.19-9.85,1-.95,2.57-1.61,2.89-3.05,.12-.62-.27-1.18-.47-1.72-.73-1.45,1.32-2.74,.27-4.07-1.25-.77-1.25-2.61-2.68-3.05-.43-.08-.8-.05-1.04-.45-.89-.7-2.12-.89-3.16-.39-1.72-1.15-3.7-2.7-5.82-1.24-.44-.1-.8-.12-1.3,.01-1.19-.71-2.73-.28-3.19,.99-1.16,.44-2.54,.94-3.12,2.15-.4,4.04-3.39,2.09-2.79,5.37-3.31,3.04-3.21,3.67-4.72,7.79-2.08,.91-2.66,2.71-3.08,4.7-.5,.86-2.07,.77-2.16,1.87-.02,.46-.02,.93-.54,1.15-.73,.22-1.41,.78-1.29,1.61-.1,.57-.73,.85-.72,1.53,.83,1.86-.73,2.15-.26-.01-.28-.67-.68-1.28-1.26-1.73-.02-.08-.03-.16-.05-.25,.95-1.58,.19-3.43-.3-4.99,.7-2.07,1.36-4.64-.37-6.41-1.86-1.05-.22-3.08-1.27-4.54-.27-.75-1.31-.9-1.42-1.64,.15-2.48-2.16-4.51-4.59-3.92-3.77,1.45-6.29-1.87-9.47,.43-1.46,2.36-4.69,.33-5.63,2.69-.23,.82-.98,1.17-1.57,1.69-.72,.62-.54,1.64-.4,2.43-.51,1.33,.1,2.72,1.12,3.62-.36,2.43-1.21,4.44,1.47,6.22-.48,1.45-1.16,2.92-.69,4.42,.24,1,1.05,1.82,1.74,2.53,.58,2-1.83,3.72,1.07,5.26,.61,2.5-1.2,4.82,.07,7.27,2.1,3.07,1.02,6.31,1.08,9.63,3.62,5.34,.12,3.93,1.18,7.04,.9,.69,.67,1.66,.12,2.51-.69,1,.75,1.7,.33,2.57-.27,1.47,.67,2.53,1.85,3.24,.26,1.59-1.7,2.69-.16,4.73,.23,.33,.4,.7,.7,.99,0,.05,0,.1,0,.15-2.18,1.99,.43,4.55,.9,6.66,.24,1.22-1.04,2.92,.57,3.63,2.7-.15,3.91,3.47,6.45,1.52,.44-.15,.57,.47,.99,.28,1.06-.7,2.47,.01,3.31-1.1,1.37-.84,3.11,1.61,5.04,.06,.98-.86,2.05-1.7,2.85-2.75,1.43,.26,3.6-.6,2.86-2.35,.54-1.76,1.58-3.62,.6-5.56-2.89-3.33,.18-5.21-2.31-7.84-.58-2.05,.75-3.96,.23-6.04-.07-.89-.56-1.74-.44-2.65,2.79-1.69,2.75,3.96,4.45,5.13,.91,1.01,2.38,1,3.39,1.83,1.12,1.3,1.29,2.99,3.08,3.62,.57,1.14,.63,2.53,1.97,3.15,.46,1.37,1.78,2.18,3.17,2.38,1.25,2.36,2.11,4.44,5.41,4.29l.2,.12c1.35,3.6,6.1,2.79,8.53,.87,1.13,.06,2.42,.58,3.52-.31,1.26-.76,1.6-2.19,2.51-3.13,.67-.32,1.47-.2,2.11-.66,.95-.47,.96-1.19,.92-2.07,.85-.58,1.22-1.66,.81-2.64Zm-40.98-13.69c0-.22,0-.44-.01-.67,.14,.15,.27,.27,.4,.37-.15,.07-.28,.19-.39,.3Z"/></clipPath><clipPath id="uuid-6784ec1b-4f4e-4782-a88e-ad6c6c23980a"><path class="uuid-ed41c6db-cb3d-4ef4-aa5c-966664f5bec3" d="M498.15,15.6c-.01-.13-.04-.26-.06-.38-.02-.1-.05-.18-.08-.27-.03-.09-.07-.17-.11-.26-.14-.27-.3-.53-.54-.75-.37-.36-.83-.57-1.24-.82h0c-.1-.12-.19-.25-.3-.36-.15-.15-.3-.28-.46-.41-.13-.11-.27-.21-.41-.31-.04-.07-.09-.13-.12-.2-.24-.48-.3-1.24-.76-1.52-.13-.08-.25-.12-.38-.14-.13-.02-.25-.02-.38,0-.24,.04-.5,.13-.75,.23-.31,.12-.55,.11-.75,.02-.2-.08-.34-.27-.47-.47-.13-.2-.22-.43-.34-.68-.11-.23-.22-.44-.36-.62,0,0-.01,0-.02-.02-.27-.29-.63-.54-1.07-.61-.13-.02-.26-.02-.39,0-.19,.02-.43,.13-.62,.1-.06,0-.12-.03-.17-.07-.17-.16-.12-.36-.21-.5-.04-.06-.1-.11-.21-.15-.03-.01-.04-.01-.07-.01-.27-.06-.57,.03-.85-.02-.15-.03-.31-.07-.46-.13-.15-.05-.29-.12-.44-.17-.19-.07-.35-.11-.5-.13-.13-.01-.26,0-.39,.05-.22,.06-.4,.19-.65,.39-.06,.04-.11,.08-.16,.11-.05,.03-.09,.04-.14,.07-.3-.07-.59-.16-.88-.29,0-.01-.02-.02-.02-.04-.07-.13-.13-.25-.2-.39-.04-.08-.08-.16-.13-.25-.05-.08-.09-.16-.16-.24-.12-.17-.27-.34-.47-.49-.14-.1-.29-.2-.47-.26-.08-.04-.17-.07-.26-.1-.07-.03-.14-.04-.21-.06-.06-.02-.13-.03-.19-.04-.03,0-.06-.01-.1-.02-.03,0-.05,0-.08-.01-.11-.01-.24-.02-.36-.02-.12,0-.23,.02-.34,.05h-.02c-.27,.06-.52,.18-.79,.29-.13,.06-.25,.12-.39,.17-.13,.05-.27,.1-.41,.15-.04,0-.07,.02-.12,.03-.1,.04-.2,.08-.31,.13-.18,.09-.36,.21-.48,.33-.07,.08-.15,.17-.21,.26-.09,.15-.17,.31-.21,.48-.03,.11-.06,.21-.09,.31,0,0,0,0-.01,.01-.06,.06-.11,.11-.16,.17-.04,0-.09-.01-.13-.01-.06,0-.13,0-.2,0-.07,.01-.14,.01-.22,.03-.09,.01-.17,.05-.25,.08-.41,.19-.68,.51-.92,.8-.19,.24-.37,.49-.52,.75-.04,.08-.09,.16-.13,.24-.08,.15-.14,.3-.2,.44-.06,.14-.11,.28-.15,.43-.05,.15-.08,.31-.11,.47,0,.05-.02,.11-.03,.17-.02,.2-.11,.36-.23,.49-.1,.11-.22,.21-.35,.3-.13,.09-.27,.18-.4,.28-.07,.05-.13,.1-.2,.16-.17,.16-.35,.31-.51,.48-.08,.08-.16,.17-.24,.25-.07,.1-.15,.18-.22,.28-.15,.19-.27,.37-.38,.56-.12,.19-.23,.39-.33,.59-.08,.18-.16,.37-.22,.56-.07,.2-.12,.42-.16,.64v.02c-.05,.28-.09,.56-.11,.85-.02,.29-.03,.57-.02,.86,0,.05,.01,.1,.01,.15,.04,.63,.1,1.26-.42,1.74-.27,.24-.56,.45-.83,.68-.42,.33-.81,.69-1.02,1.23-.1,.27-.15,.6-.16,.96,0,.2,.01,.4,.04,.59,.02,.16,.04,.32,.09,.46,.06,.25,.25,.57,.24,.83,0,.02,0,.04,0,.06-.04,.26-.27,.44-.45,.64-.12,.13-.25,.25-.36,.38-.18,.18-.35,.36-.52,.54-.08,.09-.17,.18-.25,.27-.08,.08-.15,.17-.24,.25-.13,.15-.27,.28-.4,.41-.3,.28-.56,.55-.86,.88-.1,.11-.21,.23-.31,.35-.11,.11-.22,.24-.32,.35-.11,.13-.22,.25-.32,.38-.06,.07-.13,.16-.19,.24-.05,.08-.1,.16-.15,.24-.18,.32-.3,.62-.41,.89-.03,.07-.06,.13-.09,.2-.03,.06-.06,.13-.1,.18-.02,.03-.04,.07-.06,.1-.02,.03-.04,.06-.06,.09-.05,.06-.09,.12-.13,.18-.28,.37-.62,.72-.98,1.04-.06,.05-.11,.1-.17,.14-.07,.04-.13,.1-.19,.14-.11,.07-.21,.13-.32,.16-.05,.03-.11,.04-.16,.06-.04,0-.07,.02-.11,.02-.07-.01-.14-.03-.22-.03-.19-.02-.39-.05-.59-.09-.14-.03-.29-.07-.44-.12-.05-.03-.1-.05-.14-.08-.43-.26-.79-.57-1.12-.88-.34-.31-.63-.63-.94-.94-.14-.14-.27-.29-.41-.43-.11-.11-.23-.23-.35-.34-.3-.29-.64-.56-.99-.82-.18-.14-.37-.27-.55-.4-.15-.1-.31-.23-.46-.36-.15-.13-.29-.27-.41-.42-.05-.06-.08-.13-.13-.2,0-.11,0-.22-.04-.32-.11-.21-.22-.42-.34-.64-.1-.41-.16-.82-.14-1.28,0-.04,0-.08,0-.13,.04-.64-.1-1.2-.64-1.61-.11-.08-.22-.17-.32-.25-.38-.31-.66-.64-.66-1.2,0-.3,.01-.58,0-.84-.01-.2-.04-.41-.11-.61-.04-.11-.09-.22-.15-.34-.16-.27-.38-.47-.62-.66-.32-.26-.25-.33-.28-.69-.01-.06-.02-.11-.04-.17-.13-.52-.59-1.05-.85-1.5-.05-.09-.11-.16-.18-.23-.37-.37-.91-.38-1.34-.76-.31-.27-.32-.68-.29-1.11,.02-.2,.02-.41,.02-.6,0-.03,0-.06,0-.08-.01-.17-.04-.34-.08-.52-.06-.23-.15-.47-.26-.69-.2-.38-.45-.74-.74-1.06-.1-.11-.2-.2-.29-.29-.2-.18-.4-.35-.61-.5-.09-.07-.22-.15-.33-.21-.11-.06-.24-.11-.36-.16-.1-.04-.21-.08-.33-.11-.13-.04-.28-.07-.41-.11-.03-.05-.06-.1-.09-.15-.17-.26-.36-.5-.58-.73-.08-.08-.16-.14-.24-.21,0-.03,.02-.07,.02-.1,0-.11-.02-.2-.05-.28-.01-.08-.06-.15-.13-.24-.04-.05-.09-.09-.13-.13-.05-.04-.1-.08-.16-.11-.15-.08-.32-.12-.47-.15-.08,0-.14-.02-.2-.03-.06,0-.13,0-.19-.01-.06,0-.13,0-.18-.01-.06-.01-.12-.02-.18-.04-.06-.02-.13-.04-.19-.07-.03-.01-.07-.03-.1-.05-.04-.02-.08-.03-.12-.05-.05-.02-.11-.05-.18-.08-.14-.05-.3-.08-.45-.11-.15-.03-.29-.05-.43-.07-.26-.03-.5-.05-.68-.04-.04,0-.06,0-.09,0-.01,0-.04,0-.04,0h0s0,0-.02,0c-.02,0-.04,0-.06,0h-.01s-.09,0-.14,.01c-.19,.03-.4,.06-.57,.13-.18,.08-.35,.16-.48,.29-.05,.04-.1,.09-.15,.14-.18,.17-.3,.4-.39,.66-.04,.14-.06,.34-.1,.52,0,.01,0,.03,0,.04-.15,.08-.31,.16-.46,.24-.02,0-.04,.01-.05,.02-.12-.15-.25-.36-.37-.49-.16-.16-.31-.26-.45-.33-.15-.07-.28-.1-.41-.11-.02,0-.05,0-.09,0-.03,0-.06,0-.1,.01-.07,.01-.13,.03-.19,.05-.38,.12-.52,.45-.69,.74-.06,.1-.12,.18-.2,.25-.01,0-.01,.02-.03,.02-.03,.03-.06,.04-.1,.05-.21,.06-.52-.07-.77-.1-.16-.02-.31-.03-.47-.04-.28,0-.57,0-.83,.06-.23,.04-.48,.18-.7,.4-.1,.1-.18,.22-.25,.32-.04,.05-.07,.09-.09,.13-.18,.28-.3,.45-.4,.78-.03,.09-.06,.19-.08,.31-.05,.22-.1,.44-.15,.66-.02,.08-.04,.16-.06,.24-.67,.48-1.27,.94-1.85,1.51-.04,0-.08,0-.11-.01-.11-.01-.19-.03-.24-.03-.53-.08-1.03-.15-1.51-.17-.15,.03-.3,.06-.42,.07-.24,.03-.44,.14-.6,.28-.16,.15-.29,.34-.4,.55-.07,.14-.14,.3-.19,.45-.01,.03-.03,.06-.04,.08-.09,.19-.18,.38-.3,.52-.05,.06-.11,.12-.17,.18-.06,.06-.13,.13-.19,.18-.13,.12-.27,.23-.43,.34,0,.01-.02,.02-.03,.03-.17,.12-.36,.28-.5,.48-.14,.2-.22,.44-.17,.67,.02,.07,.04,.14,.1,.21,.05,.08,.11,.15,.2,.22,.12,.09,.29,.15,.41,.2,.06,.03,.12,.05,.16,.08-.04,.1-.07,.19-.12,.29,0,0,0,.02-.01,.03-.11,.07-.25,.14-.36,.22-.05,.04-.1,.09-.12,.13-.02,.03-.03,.07-.05,.11-.06,.15-.07,.3-.04,.44,.04,.18,.15,.4,.35,.52,.03,0,.05,.01,.07,.02,.02,.06,.04,.12,.07,.2,.13,.35,.28,.69,.44,1.03-.02,.02-.04,.04-.05,.07-.04,.07-.1,.13-.15,.22-.04,.09-.09,.18-.13,.27-.03,.1-.07,.2-.09,.3-.02,.1-.03,.2-.02,.29,.04,.34,.07,.53,.26,.83,.1,.17,.22,.33,.37,.48,.19,.19,.4,.35,.59,.5,.18,.13,.35,.25,.5,.39,.34,.28,.62,.6,.76,1.14,.02,.09,.05,.19,.07,.28,.04,.2,.09,.41,.13,.61,.03,.2,.07,.4,.12,.58,.03,.18,.08,.36,.12,.54,.05,.17,.1,.35,.17,.52,.03,.06,.06,.13,.09,.19,.1,.23,.22,.45,.34,.68,.27,.48,.62,.91,1.02,1.27,.07,.07,.15,.13,.23,.2,.29,.22,.62,.4,.97,.52,.19,.06,.45,.09,.68,.13,.27,.04,.52,.11,.68,.26,.04,.04,.06,.08,.08,.12,.03,.11-.02,.23-.09,.35-.12,.18-.3,.39-.38,.59-.18,.49-.07,.98,.13,1.41,.08,.16,.17,.31,.26,.46,.31,.46,.77,.61,1.2,.85,.15,.08,.29,.18,.41,.29,.02,.02,.03,.03,.04,.04,.05,.04,.08,.09,.11,.14,.18,.3,.17,.73,.25,1.09,.05,.22,.1,.44,.17,.65,.06,.2,.13,.41,.2,.61,.04,.1,.08,.2,.12,.29,.03,.09,.07,.18,.1,.27,.07,.15,.16,.31,.28,.47,.11,.18,.25,.35,.41,.51,.15,.15,.32,.29,.47,.43,.06,.05,.13,.11,.19,.16,.19,.16,.35,.3,.51,.43,.17,.13,.33,.24,.54,.36,.13,.07,.26,.13,.41,.21,.57,.29,1.15,.57,1.73,.85,.12,.06,.35,.17,.64,.28,.48,.69,.99,1.39,1.51,2.09,.01,.23,.03,.44,.05,.61,.01,.14,.02,.26,.03,.34,.03,.37,.06,.73,.1,1.1,.05,.36,.11,.72,.19,1.07,.08,.23,.17,.44,.23,.64,.24,.72,.77,1.22,1.35,1.63,.2,.14,.4,.27,.61,.39,.04,.03,.07,.05,.11,.08,.27,.18,.51,.38,.71,.61,.18,.2,.32,.41,.45,.65,.13,.23,.23,.48,.3,.76,0,.02,.01,.04,.02,.06,.08,.29,.17,.64,.33,.96,.14,.33,.33,.64,.6,.86,.08,.06,.17,.12,.27,.16,.11,.05,.23,.09,.37,.11,.18,.03,.36-.02,.5-.05,.22-.04,.38-.04,.45,.27,.05,.24-.06,.54-.09,.83,0,.09,0,.17,0,.25,.01,.06,.03,.12,.04,.18,.06,.22,.16,.45,.28,.64,.08,.13,.17,.25,.29,.38,.12,.13,.26,.23,.42,.32,.35,.1,.59,.17,.96,.27,.05,0,.09,.02,.14,.04,.05,.09,.1,.17,.15,.26,.09,.15,.18,.3,.27,.46,.05,.09,.16,.19,.24,.29,0,.13,0,.27-.03,.42-.03,.08-.05,.15-.07,.22-.13,.32-.29,.6-.41,.91-.13,.29-.23,.61-.23,1.01,0,.07,0,.13,.01,.2,.01,.22,.03,.46,.08,.66,.03,.11,.06,.23,.09,.33,.04,.11,.08,.21,.12,.32,.08,.2,.18,.39,.3,.57,.05,.07,.09,.13,.13,.19,.08,.11,.17,.22,.28,.32,.1,.1,.2,.21,.33,.3,.07,.05,.15,.1,.23,.16,.05,.03,.1,.06,.14,.09,0,.29,0,.62,0,.98-.11,.04-.21,.08-.29,.14-.2,.13-.33,.28-.43,.45-.11,.16-.17,.34-.21,.51-.04,.14-.05,.27-.06,.4-.04,.43,.19,.74,.35,1.1,.05,.12,.1,.26,.12,.39,0,.02,0,.04,0,.05,0,.04,0,.1,0,.14-.05,.28-.33,.53-.48,.79-.1,.16-.19,.33-.27,.5-.17,.32-.29,.66-.38,1.01-.04,.15-.06,.33-.06,.52,0,.2,.02,.41,.07,.62,.04,.18,.11,.36,.17,.51,.03,.07,.04,.13,.08,.19,.16,.39,.25,.65,.5,.98,.07,.1,.14,.2,.23,.31,.25,.32,.51,.63,.76,.95,0,.3,0,.6,0,.9,0,.1,.13,.28,.12,.38,0,.1-.11,.18-.11,.28,0,.09,0,.17,0,.26,0,.75,0,1.49,0,2.22-.21,.36-.41,.72-.59,1.09-.05,.19-.11,.36-.16,.52-.2,.58-.08,1.13,.14,1.68,.07,.18,.14,.36,.22,.54,.02,.03,.02,.06,.04,.1,.1,.24,.16,.49,.18,.73,.03,.43-.06,.84-.23,1.29,0,.01-.01,.03-.01,.05-.09,.23-.2,.51-.26,.81-.05,.3-.04,.61,.07,.87,.04,.08,.08,.15,.14,.23,.06,.08,.14,.15,.24,.22,.07,.05,.16,.08,.24,.1,0,.02,0,.05,0,.06,.04,.11,.03,.25,0,.4-.03,.13-.07,.27-.1,.39-.03,.1-.04,.18-.05,.27,0,.1,0,.24,.01,.4,0,.13,0,.25,.02,.37,.02,.08,.04,.17,.07,.26,.05,.29,.12,.59,.22,.9,.06,.22,.13,.44,.22,.65,0,0,0,.01,.02,.02,.25,.23,.48,.47,.74,.7,.07,.06,.15,.13,.22,.19,.01,.12,.02,.25,.03,.4,.01,.08,.03,.16,.05,.24,.06,.18,.15,.34,.27,.47,.11,.13,.24,.24,.36,.36,.1,.1,.21,.17,.33,.25,.06,.04,.11,.07,.17,.11,.06,.03,.12,.07,.18,.09,.08,.03,.15,.06,.22,.09,.08,.03,.15,.05,.22,.07,.08,.02,.15,.03,.22,.04,.14,.02,.28,.03,.42,.02,.14-.02,.28-.04,.42-.08,.05-.02,.1-.03,.15-.04,.05,0,.09,.03,.14,.03-.01,.01-.02,.02-.04,.03,.05,0,.09,0,.11,.02,.08-.02,.26-.03,.29-.04h.01c.23,.1,.43,.28,.65,.43,.06,.04,.12,.08,.18,.13,.7,.41,1.38,.79,2.1,.98,.16,.04,.32,.08,.49,.1,.18,.02,.36,.04,.55,.03h.01c.49-.02,.98-.06,1.51-.2,.04-.01,.09-.03,.13-.04,.24-.08,.49-.16,.72-.19,.11,0,.22,.01,.34,.01,.07,0,.15,0,.23,0,.1,.03,.2,.07,.29,.15,.27,.19,.52,.4,.82,.58,.11,.06,.23,.13,.35,.18,.13,.04,.25,.09,.38,.12,.13,.02,.27,.04,.41,.03,.07,0,.14,0,.21-.02,.03-.01,.07-.02,.11-.02,.03,0,.06-.02,.09-.03,.24-.08,.5-.25,.73-.46,.14-.12,.27-.25,.38-.39,.1-.12,.18-.24,.25-.36,.12-.21,.22-.55,.39-.71,.01,0,.03-.01,.04-.03,.04-.03,.09-.05,.14-.06h.04c.16-.03,.34,.02,.5,.05,.15,.02,.31,.04,.46,.07,.45,.07,.87,.14,1.31,.17,.19,.01,.38,0,.57,0,.21-.01,.41-.05,.62-.1,.21-.05,.41-.13,.62-.23,.55-.28,1.06-.64,1.48-1.07,.11-.1,.21-.21,.3-.33,.09-.11,.18-.23,.27-.34,.16-.22,.31-.46,.47-.7,.07-.11,.12-.22,.19-.33,.14-.15,.31-.32,.45-.5,.16-.17,.29-.34,.36-.48,.22-.16,.42-.35,.59-.55,.16-.42,.23-.88,.28-1.34,0,0,0,0,0-.01,0,0,0-.02,.01-.03,.03-.1,.07-.2,.1-.29,.12-.39,.2-.78,.25-1.18,.03-.18,.04-.36,.03-.54,0-.15,0-.3-.03-.45-.04-.38-.16-.76-.34-1.12-.09-.19-.2-.37-.31-.54-.13-.18-.26-.38-.37-.59-.05-.43-.1-.89-.15-1.39,.09-.36,.22-.69,.45-1.05,.02-.03,.04-.06,.06-.1,.32-.5,.45-.99,.1-1.48-.08-.1-.15-.2-.2-.3-.23-.35-.37-.71-.13-1.15,.14-.24,.27-.45,.37-.67,.08-.17,.13-.34,.16-.52,.01-.1,0-.2,0-.31-.03-.26-.17-.48-.31-.71-.21-.31-.1-.34,.01-.64,.02-.05,.03-.1,.05-.15,.09-.46-.14-1.05-.22-1.49-.02-.09-.05-.17-.09-.24-.23-.4-.76-.55-1.04-.97-.02-.03-.03-.07-.04-.1,0-.12-.02-.25-.03-.37,.04-.16,.14-.32,.24-.47,.11-.15,.22-.3,.31-.44,.01-.02,.03-.04,.03-.06,.08-.13,.13-.26,.18-.41,.06-.19,.09-.39,.11-.6,.01-.37-.04-.75-.15-1.1-.04-.11-.08-.21-.12-.31-.18-.41-.37-.76-.65-1.12-.06-.08-.13-.15-.19-.24-.04-.05-.08-.11-.12-.16,0-.04,0-.09,0-.13,0-.15-.02-.29-.03-.43,0-.1-.05-.16-.1-.23,.03-.07,.05-.14,.08-.2,.11-.25,.21-.47,.38-.74,.04-.08,.08-.15,.1-.24,.14-.39,.17-.74,.21-1.09,.03-.28,.05-.55,.05-.84,0-.08,0-.16,0-.25,0-.16-.02-.31-.05-.46-.06-.29-.15-.55-.3-.84-.02-.05-.05-.1-.08-.15-.1-.17-.11-.34-.09-.5,.02-.14,.08-.28,.13-.42,.07-.14,.14-.27,.21-.41,.04-.07,.07-.13,.11-.21,.07-.2,.17-.38,.25-.57,.1-.18,.18-.37,.27-.53,.09-.17,.17-.36,.27-.48,.01-.04,.03-.06,.05-.1,0-.02,.02-.03,.03-.04,.01-.02,.02-.04,.03-.06,.05-.07,.09-.14,.13-.21,.03-.06,.08-.14,.12-.21,.04-.08,.08-.14,.12-.22,.09-.17,.17-.34,.24-.55,0,0,0,0,0-.01,.18-.51,.35-1.1,.33-1.69,0-.05,0-.1-.01-.15-.03-.29-.06-.59-.03-.88,.04-.28,.16-.54,.43-.75,.27-.21,.56-.38,.85-.58,.21-.14,.43-.29,.6-.47,.18-.18,.33-.4,.43-.66,.05-.13,.09-.27,.11-.42,.03-.15,.03-.31,.04-.48,0-.19-.01-.38-.04-.56-.02-.16-.05-.31-.1-.44-.07-.24-.25-.56-.25-.8,0-.02,0-.04,.01-.06,.04-.25,.28-.4,.47-.57,.13-.11,.25-.22,.38-.34,.36-.31,.71-.62,1.03-.94,.14-.14,.29-.27,.42-.42,.28-.31,.54-.65,.73-1.06,.27-.56,.53-1.1,.72-1.69,.1-.28,.18-.57,.26-.87,.07-.29,.15-.59,.21-.88,.04-.22,.08-.43,.12-.63,.18-.3,.36-.6,.53-.91,.04-.07,.08-.14,.13-.21,.08-.14,0-.48,.08-.62,.12-.22,.41-.25,.53-.47,.14-.24,.27-.49,.41-.74,.49-.42,.95-.87,1.34-1.37,.12-.16,.24-.33,.34-.5,.09-.14,.17-.29,.25-.44,.19-.37,.32-.8,.4-1.22,.04-.22,.06-.45,.07-.66,0-.09,.01-.17,.01-.26,.22-.42,.44-.83,.66-1.25,.16-.31,.33-.62,.49-.93,.19-.15,.38-.28,.62-.41,.04-.02,.08-.03,.11-.05,.57-.28,.96-.66,1-1.3,0-.13,.01-.26,.02-.37,.04-.45,.16-.85,.64-1.13,.26-.14,.49-.27,.71-.41,.16-.11,.32-.24,.46-.4,.07-.09,.13-.19,.19-.29,.14-.24,.17-.51,.2-.79,.04-.39,.14-.36,.42-.56,.05-.03,.09-.07,.13-.11,.18-.18,.32-.43,.44-.68,.12-.26,.21-.51,.34-.71,.04-.08,.08-.17,.09-.25,.12-.47-.16-.94-.06-1.46,.08-.38,.43-.57,.81-.74,.19-.08,.38-.16,.54-.25,.02-.01,.05-.03,.07-.04,.15-.08,.27-.19,.41-.31,.08-.08,.16-.16,.24-.25,.07-.1,.15-.19,.21-.3,.06-.09,.11-.18,.17-.27,.05-.1,.09-.2,.13-.3,.04-.1,.08-.2,.12-.31,.03-.11,.06-.21,.08-.33,.02-.14,.05-.27,.06-.4,.02-.27,.04-.52,0-.78-.02-.12-.04-.25-.07-.37-.02-.12-.07-.24-.11-.36l-.03-.07c.05-.2,.09-.39,.13-.58,.09-.08,.18-.17,.3-.26,.04-.04,.08-.06,.13-.09,.05-.04,.09-.09,.14-.14,.17-.19,.26-.39,.3-.56,.02-.15,.04-.31,.06-.47,0-.06,.01-.11,.02-.17,0-.04,0-.08,0-.12,.01-.13,0-.26,0-.39Zm-57.53-7.77h0Z"/></clipPath><clipPath id="uuid-ccbff546-e53c-463f-8118-bad9bd346d9f"><path class="uuid-ed41c6db-cb3d-4ef4-aa5c-966664f5bec3" d="M51.18,147.15c-.06-.21-.12-.42-.2-.63,0,0,0-.02,0-.03-.03-.07-.07-.13-.11-.19-.04-.06-.09-.12-.13-.17-.17-.18-.37-.36-.49-.58-.02-.04-.04-.08-.05-.12,0-.02-.01-.04-.02-.06-.01-.04-.02-.09-.03-.14-.02-.25,.05-.53,.12-.8,.04-.19,.08-.39,.07-.59-.01-.38-.07-.92-.33-1.32-.05-.09-.12-.16-.18-.22-.02,0-.03-.03-.05-.04-.13-.11-.33-.13-.52-.16-.11-.01-.21-.04-.29-.08-.13-.07-.15-.18-.15-.3,0-.12,0-.27-.02-.4-.03-.16-.09-.31-.18-.45-.07-.12-.16-.22-.25-.31-.21-.19-.48-.34-.75-.39-.31-.07-.63-.05-.9,.05-.23,.07-.23,.11-.43,.24,0,0-.02,.01-.03,.03-.01,0-.02,.03-.04,.04-.08,.01-.17,.02-.26,.03-.07-.09-.14-.17-.22-.25-.04-.04-.09-.07-.13-.1-.04-.03-.09-.06-.15-.09-.06-.04-.11-.04-.15-.07,0,0-.01,0-.02,0-.01,0-.01,0-.02,0h-.01s-.02,0-.03-.01c-.01,0-.04-.01-.06-.02-.08-.02-.16-.06-.23-.1-.23-.12-.43-.32-.69-.52-.08-.05-.16-.11-.24-.16-.17-.1-.35-.18-.55-.22-.09-.02-.19-.02-.27-.02-.1,0-.19,.02-.27,.04-.08,.03-.17,.06-.25,.1-.08,.04-.15,.09-.22,.14-.05,.03-.09,.08-.13,.12-.07,.07-.14,.13-.23,.17-.08,.04-.18,.07-.27,.09-.08,.02-.16,.02-.23,.03-.08,0-.17-.01-.25-.02-.17-.03-.33-.05-.49-.09-.08-.01-.17-.03-.25-.04-.91-.14-1.75-.38-2.61-.46-.2-.02-.4-.04-.61-.03-.22,0-.44,0-.67,.04h-.02c-.59,.08-1.18,.18-1.76,.39-.05,.02-.1,.04-.15,.05-.06,.02-.12,.05-.18,.07-.66-.03-1.34-.06-2.01-.08-.21-.12-.43-.25-.63-.38-.48-.29-.94-.53-1.53-.55-.29-.02-.64,.05-.98,.14-.2,.05-.4,.12-.58,.2-.16,.07-.31,.15-.43,.22-.09,.05-.18,.12-.28,.19-.47-.02-.92-.03-1.36-.04-.03,0-.05,.01-.08,.02-.12-.06-.25-.12-.37-.18-.47-.24-.92-.45-1.39-.64-.2-.08-.41-.16-.63-.21-.23-.07-.46-.11-.71-.16-.13-.02-.24-.04-.38-.04-.12-.01-.25-.01-.38-.01-.36,0-.72,.02-1.07,.07-.34,.04-.68,.1-1.01,.17-.67,.14-1.31,.32-1.94,.55-.47,.17-.92,.35-1.37,.53-.1,.05-.21,.09-.31,.13-.48,.03-.96,.07-1.43,.11-.17-.04-.34-.09-.52-.16-.46-.15-.93-.3-1.41-.41-.24-.06-.47-.11-.72-.16-.12-.02-.24-.03-.37-.04-.12,0-.25-.01-.38-.02-.12,0-.23,0-.35,0-.12,0-.24,0-.35,.02-.19,.02-.38,.06-.57,.1-.48,.08-.95,.33-1.37,.59-.11,.06-.21,.15-.31,.23-.1,.08-.19,.17-.28,.25-.15,.14-.3,.28-.45,.42-.14,.14-.3,.27-.47,.38-.08,.05-.16,.09-.24,.12-.05,.01-.09,.03-.14,.04h-.02c-.43,.04-.83-.05-1.25-.08-.02-.01-.05-.02-.07-.03-.27-.14-.5-.31-.83-.49-.04-.03-.08-.05-.14-.07-.09-.04-.18-.09-.28-.11-.1-.02-.21-.04-.32-.05-.1,0-.21,0-.32,0-.1,.02-.2,.04-.3,.07-.11,.03-.19,.07-.27,.11-.09,.04-.17,.08-.25,.15-.15,.11-.29,.27-.4,.44-.04,.07-.09,.15-.13,.22-.03,.07-.07,.14-.11,.21-.13,.25-.24,.49-.38,.72-.14,.22-.31,.42-.56,.63-.27,.22-.51,.44-.71,.69-.16,.19-.28,.4-.38,.64-.05,.13-.09,.27-.11,.43-.06,.36,0,.69,.09,1.01,.11,.45,.01,.46-.15,.82-.02,.06-.05,.12-.06,.19-.16,.57-.01,1.33,0,1.87,0,.02,0,.05,0,.08,0,.02,.01,.04,.01,.06,.01,.04,.02,.08,.03,.12,.03,.11,.08,.21,.15,.31,.07,.11,.13,.21,.21,.31,.04,.06,.08,.13,.12,.19-.04,.53-.07,1.06-.11,1.6-.02,.02-.03,.05-.05,.07-.12,.16-.25,.31-.37,.47-.02,.02-.04,.04-.05,.06-.1,.14-.18,.3-.25,.47-.09,.23-.17,.48-.23,.74-.03,.23-.06,.5-.06,.76-.01,.13,.02,.26,.03,.39,.01,.13,.03,.26,.06,.39,.05,.16,.1,.31,.15,.44,.18,.47,.41,.85,.7,1.16,.03,.4,.06,.8,.12,1.21,0,.01,.01,.03,.01,.05-.1,.1-.2,.21-.33,.34-.07,.08-.12,.16-.17,.25-.24,.45-.3,.93-.34,1.38-.03,.36-.03,.71-.01,1.07,0,.11,.01,.21,.03,.31,.01,.2,.04,.39,.07,.57,.06,.36,.17,.7,.31,1.06,.02,.06,.05,.12,.08,.19,.1,.21,.13,.42,.11,.63-.02,.35-.16,.69-.27,1.06-.03,.09-.05,.18-.07,.27-.12,.53-.24,1.02-.32,1.53-.05,.25-.08,.5-.11,.75-.01,.12-.02,.25-.03,.38,0,.03,0,.06,0,.09,0,0,0,0,0,.01,0,0,0,.02,0,.03,0,.02,0,.04,0,.06,0,.03,0,.05,0,.08,0,.1,.02,.22,.04,.32,.02,.04,.03,.08,.04,.13,0,.04,.02,.08,.03,.11,.01,.04,.03,.07,.04,.11,0,.03,.02,.07,.03,.1,.05,.12,.11,.24,.16,.35,.06,.12,.12,.23,.18,.33,.01,.03,.02,.05,.04,.08,.01,0,.02,.02,.02,.03,.01,.01,.01,.01,.01,.02,.02,.02,.03,.03,.04,.05t0,0s.09,.11,.13,.18c.03,.07,.02,.15,0,.24-.01,.04-.02,.08-.04,.13,0,.01,0,.02,0,.03,0,.01,0,.03-.02,.04-.02,.04-.05,.08-.07,.12-.11,.19-.21,.4-.24,.61,0,.07,0,.14,0,.22,0,0,0,.01,0,.02,.01,.05,.02,.11,.03,.16,0,.05,.02,.09,.02,.15,.02,.09,.04,.18,.06,.27,.05,.17,.09,.35,.12,.52,.06,.34,.06,.69-.07,1.07-.07,.19-.15,.38-.22,.57-.08,.19-.16,.38-.23,.57-.11,.29-.22,.57-.28,.87-.07,.3-.1,.59-.09,.91,0,.31,.11,.68,.2,1.06,.06,.21,.14,.43,.22,.63,.07,.18,.15,.34,.22,.49,.13,.23,.36,.5,.46,.76-.03,.09-.08,.19-.08,.28v.35s0,.09,0,.13c-.03,.08-.06,.17-.09,.25-.07,.19-.13,.38-.2,.57-.02,.07-.04,.14-.06,.21-.02,.07-.04,.13-.06,.2-.04,.14-.08,.28-.11,.41-.08,.28-.16,.56-.2,.84-.05,.24-.09,.48-.12,.74-.03,.28-.05,.53-.04,.81,0,.28,0,.56,.05,.85,.1,.79,.27,1.56,.48,2.3,.21,.73,.46,1.44,.72,2.13,.09,.25,.18,.5,.28,.74,0,.03-.02,.05-.01,.08,0,.16,.02,.32,.02,.48,0,.08,0,.16,.01,.24,0,.17,.02,.34,.02,.5,0,.05,0,.1,0,.15,0,.13,0,.25,.01,.38,0,.38,.02,.75,.04,1.12,0,.14,0,.28,.01,.42,0,.07,0,.15,0,.23-.39,.94-.75,1.91-.9,2.95-.03,.26-.06,.52-.08,.78,0,.21,0,.43,.02,.65,0,.14,.02,.28,.04,.41,0,.07,.02,.14,.03,.21,.01,.06,.03,.13,.05,.2,.07,.27,.16,.54,.26,.8,.1,.27,.24,.51,.37,.73,.12,.2,.23,.4,.34,.6,.11,.2,.22,.4,.3,.62,.03,.07,.04,.15,.06,.22,.05,.51,.1,1.01,.16,1.51h0c-.02,.42-.07,.81-.18,1.23-.02,.05-.03,.1-.04,.15-.05,.17-.1,.34-.12,.51-.02,.17-.04,.34-.03,.5,0,.33,.1,.66,.29,.98,.07,.13,.14,.26,.21,.4,.26,.48,.38,.98,.16,1.57-.13,.32-.25,.6-.36,.89-.07,.22-.13,.45-.16,.69-.01,.14-.02,.28,0,.44,.02,.35,.13,.68,.26,1.01,.17,.45,.07,.47-.05,.89-.02,.07-.04,.14-.04,.21-.11,.64,.09,1.49,.18,2.13,.02,.13,.04,.25,.08,.35,.13,.33,.38,.57,.61,.85,.05,.56,.14,1.11,.27,1.63-.03,.09-.07,.17-.11,.26-.1,.21-.2,.42-.28,.63,0,.03-.02,.05-.03,.08-.06,.19-.11,.39-.14,.59-.04,.28-.05,.57-.04,.87,.02,.51,.12,1.05,.28,1.55,.06,.16,.13,.31,.19,.45,.27,.6,.59,1.12,1.04,1.52,.11,.09,.21,.17,.32,.25,.05,.03,.09,.06,.14,.09,.08,.15,.17,.31,.28,.41,.13,.12,.23,.2,.33,.27,.07,.18,.16,.34,.28,.48,.17,.2,.37,.36,.58,.47,.33,.21,.7,.34,1.08,.42,.11,.02,.23,.04,.34,.04,.22,.02,.43,.02,.62-.01,.1-.01,.2-.02,.29-.04,.09-.02,.18-.04,.27-.07,.18-.05,.36-.11,.54-.19,.07-.03,.13-.05,.19-.07,.23-.09,.44-.1,.66-.07,.36,.05,.71,.23,1.06,.37,.09,.03,.19,.07,.27,.11,1.02,.34,1.98,.73,3.03,.92,.24,.04,.49,.08,.74,.09,.26,.01,.54,.02,.82,0,0,0,.01,0,.02,0,.73-.05,1.43-.17,2.1-.41,.06-.02,.12-.04,.18-.07,.71-.28,1.35-.6,2.15-.39,.2,.06,.4,.12,.6,.19,.2,.07,.4,.13,.6,.19,.62,.17,1.26,.27,1.98,.05,.09-.03,.18-.06,.27-.1,.1-.04,.19-.08,.28-.14,.19-.09,.37-.22,.55-.35,.1-.07,.19-.16,.29-.24,.09-.08,.18-.17,.25-.26,.13-.16,.25-.3,.33-.46,.06-.11,.12-.24,.17-.38,.2-.13,.37-.26,.55-.42,.01,0,.03-.02,.03-.03,.1-.14,.17-.29,.23-.44h.03c.07-.04,.14-.08,.2-.12,.18-.09,.34-.21,.52-.33,.47-.36,.87-.86,1.13-1.44,.07-.13,.1-.25,.16-.37,.04-.12,.08-.25,.12-.39,.08-.29,.12-.6,.13-.93,0-.33-.04-.66-.12-.99-.12-.44-.27-.83-.41-1.18-.15-.36-.29-.7-.41-1.05-.04-.08-.07-.18-.1-.27-.03-.09-.06-.17-.09-.25-.03-.09-.06-.18-.08-.26-.03-.08-.05-.17-.07-.26-.11-.36-.18-.72-.27-1.09-.08-.35-.15-.68-.23-1.02-.08-.75-.16-1.51-.23-2.28,.07-.32,.19-.63,.34-.98,.21-.51,.41-1.03,.52-1.59,.01-.07,.03-.15,.05-.22,0-.07,.02-.15,.02-.23,0-.17-.01-.33-.05-.5-.07-.33-.23-.64-.39-.91-.16-.24-.33-.46-.49-.65-.06-.08-.12-.16-.17-.22-.01-.02-.02-.03-.03-.04,0,0-.02-.02-.02-.03-.01-.02-.02-.05-.04-.07-.07-.1-.12-.24-.11-.38,0-.08,.01-.15,.03-.22,0,0,0-.02,.01-.03,0-.01,.01-.03,.02-.06,.01-.03,.03-.08,.04-.11,.03-.08,.05-.17,.07-.24,.08-.34,.07-.64,.03-.92-.07-.47-.19-.92-.24-1.38-.02-.24-.03-.48,0-.73,0-.08,.02-.16,.04-.24,.17-.75,.41-1.35,.86-1.88,.03-.04,.06-.07,.09-.11,.24-.25,.46-.47,.62-.69,.04-.05,.08-.11,.11-.16,0-.01,.01-.03,.03-.04,.01-.02,.03-.03,.03-.05,.02-.03,.04-.07,.07-.1,.03-.07,.06-.14,.09-.22,.03-.08,.06-.16,.09-.25,.04-.13,.08-.27,.13-.4,.04-.13,.1-.23,.17-.34,.03-.05,.07-.1,.1-.16,.04-.04,.08-.09,.13-.13,.1-.08,.2-.16,.32-.21,.12-.05,.26-.09,.41-.11,.33-.02,.6,0,.88,0,.21,0,.42,0,.65-.04,.12-.02,.25-.05,.38-.09,.32-.09,.6-.26,.89-.44,.2-.12,.32-.16,.44-.16,.12,0,.23,.04,.44,.07,.07,0,.14,.02,.21,.02,.33,0,.69-.07,1.08-.17,.18-.05,.37-.11,.55-.16,.09-.03,.18-.05,.27-.08,.08-.02,.16-.05,.24-.07,.12-.03,.23-.08,.32-.13,.56-.29,.76-.81,1.33-1.16,.42-.25,.9-.16,1.38-.05,.23,.05,.47,.11,.69,.15,.03,0,.06,0,.09,.02,.2,.03,.41,.04,.62,.03,.28,0,.59-.06,.9-.13,.26-.06,.52-.13,.78-.23,.27-.11,.54-.24,.8-.4,.15-.11,.29-.21,.43-.32,.14-.11,.28-.25,.4-.37,.06-.07,.11-.14,.17-.21,.06-.06,.11-.13,.15-.21,.2-.29,.33-.63,.36-.96,0-.08,0-.15,0-.22,0-.07-.01-.15-.02-.22-.01-.11-.05-.21-.09-.3-.02-.04-.05-.08-.07-.12,0,0,0-.01,.01-.02,.04-.08,.07-.16,.09-.24,.02-.01,.04-.02,.06-.03,.22-.13,.41-.3,.66-.56,.07-.08,.13-.16,.17-.25,.24-.46,.29-.94,.32-1.39,.02-.36,.02-.72,0-1.08,0-.11-.02-.21-.04-.32-.03-.2-.06-.4-.11-.58-.08-.36-.2-.69-.37-1.05-.02-.06-.05-.12-.08-.19-.1-.21-.13-.42-.11-.63,.02-.34,.15-.7,.23-1.07,.02-.1,.04-.19,.04-.29,.06-.55,.07-1.1-.03-1.67-.11-.57-.34-1.17-.77-1.67-.09-.11-.21-.22-.32-.32-.1-.08-.19-.16-.28-.23-.21-.16-.43-.32-.67-.45,0,0-.01,0-.02,0-.62-.36-1.28-.64-1.98-.77-.06,0-.12-.02-.17-.03-.38-.05-.76-.07-1.1-.13-.35-.06-.66-.15-1.01-.36-.18-.1-.37-.19-.57-.27-.05-.02-.11-.04-.16-.05-.06-.01-.11-.03-.17-.04-.06-.02-.12-.02-.18-.03-.03,0-.06,0-.08-.01-.03,0-.05-.01-.08-.02-.59-.11-1.15-.21-1.78-.08-.16,.02-.32,.07-.49,.14-.17,.06-.36,.14-.53,.22-.21,.09-.42,.2-.6,.3-.17,.09-.32,.19-.45,.28-.08,.05-.17,.13-.26,.2-.56,.03-1.13,.07-1.7,.09-.13-.05-.27-.1-.39-.16-.54-.22-1.05-.46-1.55-.69-.22-.1-.44-.19-.65-.28-.47-.2-.93-.37-1.42-.54-.67-.23-1.27-.5-1.74-.87-.12-.09-.23-.19-.32-.31-.1-.11-.19-.24-.26-.38-.16-.28-.26-.61-.31-.96-.04-.26-.05-.53-.05-.79,0-.28-.1-.52-.2-.76-.06-.14-.13-.28-.2-.4-.12-.2-.21-.38-.29-.55-.11-.25-.17-.47-.27-.68-.04-.06-.07-.12-.11-.18,0-.17,0-.34,0-.51,0-.04,.01-.09,0-.14,0-.1,.01-.2,.01-.3,0-.12,0-.24,0-.36,0-.09,0-.18,0-.27,.08-.03,.17-.05,.29-.1,.12-.05,.25-.12,.35-.2,.05-.04,.1-.1,.13-.16,.03-.07,.06-.13,.08-.19,.02-.08,.05-.15,.08-.23,.01-.03,.03-.09,.04-.11,0-.03,.03-.06,.03-.09,.04-.12,.08-.24,.11-.36,.04-.13,.07-.26,.1-.39,.02-.13,.05-.26,.06-.39,.03-.22,.05-.43,.07-.65,.02-.27,0-.54,0-.81-.01-.26-.04-.53-.08-.79-.04-.27-.07-.54-.13-.79-.02-.11-.03-.21-.04-.32,0-.06,0-.12-.01-.17,0-.06,0-.11,.01-.17,0-.06,0-.12,.01-.18,0-.02,0-.04,.01-.07,.02-.01,.05-.01,.06-.03,.05-.07,.11-.13,.16-.2,.06-.08,.13-.14,.18-.21,.21-.24,.44-.43,.68-.61,.34-.05,.64-.05,.93-.01,.34,.03,.67,.11,1.04,.18,.05,.01,.1,.02,.15,.03,.19,.04,.38,.06,.58,.06,.05,0,.1,0,.14,0,.03,0,.05,0,.07,0,.03,0,.04,0,.06,0,.08,0,.15,0,.22-.02,.03,0,.07-.01,.1-.02,.04,0,.07-.01,.11-.02,.07-.02,.14-.04,.21-.07,.15-.05,.29-.12,.45-.21,.13-.07,.25-.14,.38-.2,.48-.23,.99-.33,1.56-.05,.3,.15,.56,.31,.84,.43,.21,.1,.43,.18,.67,.24,.14,.03,.28,.05,.43,.06,.37,.02,.7-.05,1.04-.14,.47-.11,.49,0,.87,.16,.07,.02,.13,.05,.21,.07,.63,.18,1.51,.08,2.15,.07,.13,0,.24-.02,.35-.05,.62-.14,.93-.62,1.55-.85,.44-.16,.9,0,1.35,.2,.22,.09,.44,.18,.65,.26,.02,.01,.06,.02,.08,.03,.2,.06,.4,.09,.62,.12,.28,.02,.58,.02,.89,0,.26-.03,.52-.08,.78-.14,.26-.07,.51-.15,.76-.24,.16-.07,.3-.14,.44-.21,.58-.29,1.06-.61,1.47-1.04,.09-.1,.18-.19,.27-.29,.12-.13,.22-.27,.32-.41,.02,0,.05,0,.07-.01,.26-.07,.46-.13,.63-.22,.18-.08,.33-.18,.52-.3,.12-.08,.23-.17,.32-.25,.41-.34,.76-.78,1.03-1.25,.2-.38,.36-.77,.46-1.18,.04-.15,.08-.29,.1-.45,0-.06,.02-.13,.03-.19,.04-.2,.03-.4,.03-.6-.01-.36-.09-.73-.21-1.08,0-.03-.03-.06-.04-.09,.04-.35,.04-.7-.02-1.07-.1-.57-.24-.85-.26-1.28,.01-.02,.03-.03,.04-.05,.34-.45,.46-.93,.55-1.43,.02-.06,.02-.11,.04-.17,.15-.88,.17-1.79-.05-2.65Z"/></clipPath><clipPath id="uuid-0c6640d6-af83-411d-98fd-f17107a51c3d"><path class="uuid-ed41c6db-cb3d-4ef4-aa5c-966664f5bec3" d="M404.02,208.5c-.35-.85-.77-1.78-1.22-2.56-.1-.21-.17-.51-.19-.72,.17-.17,.05-.43-.03-.62,.06-.6,.06-1.32-.24-1.9-.67-1.75-2.59-2.65-4.48-2.65-1.2-.07-2.07,.94-3.12,1.25-5.29,.41-22.7,4.27-25.14-.26-.59-.52-.81-1.53-1.51-1.77,0-.74-.43-1.38-.64-2.1,1.31-1.53,2.39-3.67,4.63-3.84,1.55,.04,2.99-.41,4.31-1.19,1.42-.36,2.98-.19,4.22-1.15,.51-.37,1-.09,1.55-.06,1.24,.23,2.25-.37,3.14-1.12,1.81-.27,1.54-2.01,1.36-3.37,.8-1.56,.06-3.78-.45-5.36,.25-1.67-.11-3.77-1.16-5.2-.57-1.04-1.75-.57-2.69-.83-1.94-1.2-4.11,.01-6.09-.39-2.27-.87-4.76-.6-7.09-.9-.95-.95-2.27-1.52-3.3-2.32-.91-.93-1.18-2.37-2.01-3.38-.19-2.95-1.47-7.61,1.44-9.25,8.23-3.26,18.5,0,26.64-3.6,2.17-.08,5.2-2.04,4.07-4.54,.82-1.14,.89-2.69,.61-4.12-1.77-2.9,.71-6.67-3.49-7.91h-.02c-.5-.95-1.41-1.24-2.43-1.49-1.72-.35-4.46-1.43-5.87-.85-.61-.12-1.2-.78-1.83-.86-2.89-.07-9.91-1.57-12.58-.65-8.64-.44-13.68,1.1-20.79,4.45-3.87,1.81-5.27,2.63-7.32,4.05-1.97,.64-3.97,2.19-5.05,4.04-3.01,2.28-2.15,8.27-3.06,11.8,.12,10.61-.4,13.45,1.52,26.38,1.89,12.29,2.49,23.77,8.24,33.81,1.18,2.29,3.82,2.25,5.49,3.84,3.04,.69,5.76,1.96,8.97,2.1,8.06,1.57,12.52,1.78,20.71-.41,9.67-.86,26.62-3.39,24.9-16.33Z"/></clipPath><clipPath id="uuid-cab5ee5a-2933-4673-8877-05dced425507"><path class="uuid-ed41c6db-cb3d-4ef4-aa5c-966664f5bec3" d="M495.09,157.06c-.03-.47-.48-.65-.75-.95,.17-1.11,.47-2.58-.87-3.23-.13-2.32-.93-4.54-3.7-4.5-3.51-1.91-7.71-.35-11.13-2.11,.03,0-.04,0-.03,0-1.57-.5-3.16,.39-4.25,1.47-1.06,.06-2.25,.34-2.59,1.52h0c-.94,1.84-1.18,4.05-.98,6.09h0v.02h0s0,0,0,0h0c.11,.67,.24,1.33,.34,2.01-.38,3.1-3.41,5.9-2,9.22,1.1,2.1-1.29,3.82-.76,5.82,.69,1.1,0,2.16-.47,3.18h0s0,.01-.02,.03c-.16,.53-.11,1.14,.07,1.65,0,1.26-.67,2.76,.11,3.98,0,0,0,0,0,.01h0s0-.02,0,0c.78,.84,.32,1.89-.27,2.7,0,0,0,.02,0,.03h0c-.3,.62-.4,1.4-.31,2.1-.18,.07-.23,.28-.32,.42,0,.02,0-.06,0,.06-.61,.83-.16,1.77,.51,2.44-.06,.16-.14,.31-.23,.45-.29-.15-.73-.33-.91-.54,.02,.06,.03,.07,.08,.08,0,0,0,0-.02,0-.02,0-.04,0-.06,0,0,0,0,0-.01,0,0-.03,0-.05,0-.08h0c0-.12,.01-.18,.01-.22h0s0-.02,0,0c-.23-.16-.46,.38-.76,.29-.35-1.06,.18-2.03-1.47-2.3-.15-.51-.45-1.01-.65-1.51,.37-.24,.69-.63,.66-1.06h0s.01-.03,0-.05c-.08-.85-1.07-1.28-.83-2.22,.29-1-.58-1.3-1.38-1.02,.02-.07-.02-.12-.04-.19,.53-.61,.32-1.41-.56-1.5-.08-.22-.17-.45-.25-.68,1.33-2.5-2.01-3.92-2.19-6.05,0,0,0-.03,0-.03-.13-2.12-.69-4.1-2.1-5.74-1.08-.89-.99-2.11-.85-3.38h0s-.01-.02,0-.03c.07-1.58-1.33-2.62-2.6-3.27-.5-3.59-1.26-7.45-4.54-9.68-2.36-2.54-.45-8.25-6.07-7.4-.62-.34-1.05-1-1.75-1.2-1.25-2.13-2.64-.78-4.42-1.22-.89-.45-1.87-.77-2.81-.32-.4,.14-.45,.04-.8-.1-1.42-.4-2.82,0-3.94,.9-.88,.29-1.67-.51-2.55-.51-1.66-.09-3.82,.88-4.12,2.66-.21,.27-.44,.53-.54,.86-2.37,.4-2.82,3.77-2.26,5.62-1.72,1.35-1.15,3.72-1.86,5.5-.48,1.44-.4,2.96-.37,4.44-1.05,2.74-3.3,4.31-1.59,7.63-3.11,4.69-2.22,10.07-3.13,15.32-3.58,4.24-1.08,8.22-3.22,12.27-1.29,1.36,.05,3.16-.74,4.66-1.24,1.42-.52,2.89-.85,4.38-.26,.81-.16,1.73-.02,2.57h0c.05,.52,.32,.97,.73,1.28,.04,.07,.09,.12,.13,.19,0,0,0,0,0,.01,0-.04,0-.01,0-.02h0s.01,.02,.02,.03c.11,.19,.22,.4,.22,.64-.08,1.05-.99,1.78-1.19,2.81,0,.02,0,.02,0,.04-.26,1.25-.11,2.76,.75,3.81,0,.02,.02,.02,.02,.04,0,0,.04,.07,.02,.04h0s0,.01,0,.01c.3,.35,.65,.67,1.04,.91,.02,2.14,2.08,3.76,4.05,4.12,1.67,.25,3.1-1.08,4.77-.41,1.4,1.33,3.34,2.44,5.33,2.49h0s.05,.01,.07,0c0,0,0,0,.02,0,.03,0,.06,0,.09-.02,.63-.04,1.1-.55,1.67-.72,1.23-.08,2.88,.74,3.76-.59-.15-1.29,1.4-.95,1.81-1.96,.48-.78,.31-1.83-.51-2.25,.05-.15,.09-.3,.13-.45,.79-.14,1.39-.96,1.46-1.75h0c.17-.96-.66-1.77-.85-2.63v.03c.93-2.95-.27-5.64,.26-8.65,1.22-2.41,2.11-5.4,1.6-8.1,.03-1.16,.77-2.12,.81-3.32h0s0-.02,0-.02c.15-.75-.14-1.33-.62-1.86,.49-1.41,1.46-3.26,.18-4.64,.03-.24,.06-.49,.08-.72,1.5-1.16,1.65-3.66,1.1-5.34h0s0,.02,0,.01h0c-.98-1.64,.19-1.62,1.18-2.43,.13,.29,.41,.63,.64,.9,.27,.24,.7,.3,.93,.57,.31,3.82,1.96,1.22,1.48,3.12v.03h0s0,0,0,0c-.02,.71,.53,1.42,1.28,1.45,.09,.24,.19,.5,.29,.78-.84,1.62,.17,3.44,1.28,4.59,.17,1.06,.26,2.22,.61,3.24-.01-.02,0,.03-.02-.03,0,0,0,0,0,.01,.29,1.01,.71,1.99,1.58,2.69,0,0,0,0,0,0h0c2,1.17-.57,3.95,2.06,5.17,2.05,1.09-.99,4.81,4.45,8.79h0s0,.01,0,.01h0s0,.01,.01,.01c1.17,1.58,.32,3.45,1.04,5.17,.45,1.4,2.07,1.8,2.68,3.05,.57,1.03-.12,2.52,1.03,3.21,1.71,.68,.63,2.93,2.48,3.65h0s0,0,0,.01c.88,2.04,2.48,1.68,4.18,1.52,1.62,1.63,4.35,1.51,5.7-.42,.51-.24,.87-.18,1.36,0,1.33,1.57,3.56,.85,5.19,.36,.84,.18,1.73,.49,2.6,.58-.03,0,.07,0,.09,0,3.08,.16,2.9-3.03,3.98-4.84,1.8-.98,2.53-2.86,1.59-4.72,4.62-5.26,.71-8.29,3.65-12.76,1.51-1.96,.59-4.24,.79-6.39,.37-1.32,2.08-2.15,1.43-3.67-.45-1.43,1.73-2.28,1.08-3.8,.46-1.53,.92-2.78-.11-4.3-.13-.62,.53-1.1,.87-1.57,.92-1.43,.71-3.37-.02-4.85,1.4-1.06,2.03-2.9,2.01-4.63h0c-.13-2.18-.79-4.34-.12-6.46,.54-.5,.74-1.24,.86-1.94,0,0,0,.03,0,.02-.03-.39,.3-.3,.55-.5,.56-.39,.75-1.1,.81-1.74,0-.03,0,.03,0,.04,0,0,0-.01,0-.02,.33-1.09-.21-2.18,.02-3.27,0,0,0-.01,0-.02h0c.41-.91,.81-1.85,.62-2.9Zm-63.61,54.96s0,0,0,0h0Zm0-.01h0Zm5.04-35.35c-.07,.17-.3,.16-.42,.24,.07-.08,.15-.14,.22-.22t0,0s0,.02-.01,.03h0s.09-.09,.12-.14c.05,.01,.1,.02,.08,.1Z"/></clipPath><clipPath id="uuid-6a1cd89d-ab85-48eb-be36-b2f4fa3dc18c"><path class="uuid-ed41c6db-cb3d-4ef4-aa5c-966664f5bec3" d="M274.82,152.14c-.71-.82-.03-.67,.2-1.28-.54-1.11,.34-2.48-.98-3.22-1.11-1.22,1.91-2.71,.66-4.42-.5-.78-1.2-1.59-2.04-1.98-.84-2.08-2.93-3.01-5.02-2.54-2.75-1.22-5.7-2.55-8.76-1.54-3.07,1.18-5.34-2.78-8.57,.11-4.78-1.2-9.45-1.69-14.28-.16-5.18-1.24-6.63-1.78-11.92-.15-1.27-.02-2.27-.74-3.45-.96-1.17-.16-2.27,.88-3.47,.36-1.66-1.01-2.9,.02-4.44-.03-1.55-.08-3.08,.44-4.19,1.52-4.02-.35-6.21-.95-8.49,3.2-3.28,.74-.1,2.96-.68,4.84-2.9,1.65-.86,4.19,.19,6.12-.58,.85-1.23,1.89-.6,2.9-2.35,3.03,2.06,8.27,5.29,6.01,.34,.02,.68,.03,1.02,.03,.29,.96,1.64,.85,2,0,1.82-.23,3.49,.61,5.3,.51,2.06-.69,4.63,.17,6.51,.74,1.33,.52,3.06-.17,3.68,1.53,.3,1.99-1.37,3.92,.23,5.94,.21,.51,.73,.86,.87,1.38-.7,2.62-2.1,5.2-1.37,8.07,2.54,8.04-1.94,7.94,.42,15.96,0,1.67-1.68,2.85-1.14,4.52,.24,.71,.49,1.42,.09,2.14-.6,.95-1.04,2.01-.62,3.11,.13,.4,.03,.55-.14,.94-.28,.87-.05,1.97,.07,2.83,.23,.76,1.24,1.31,.94,2.23-1.71,2.27-1.89,5.2,.03,7.46,.31,.94-.92,2.29,.26,2.96,1.5,1.45,3.41,2.59,5.57,2.57,1.24-.23,1.59,1.18,2.44,1.68,.62,.28,1.28,.06,1.88-.18,1.93-.76,3.2,2.05,5.25,1.28,.68-.2,1.3-1.06,1.96-.33,.69,.14,1.23-.68,1.91-.71,1.17,.04,1.93-.65,2.71-1.41,1.81-.35,4.12-.1,5.16-2.07,2.1-3.43-.43-4.12,.76-6.06,.68-1.94,.14-3.91-.3-5.78,.56-2.01,1.35-4.07,.94-6.18-2.76-5.84,1.45-5.48-.88-9.82-.51-.54-.78-1.17-.39-1.86,1.86-3.89,1.02-8.15-.31-12.05-.02-2.26,1.46-4.31,1.31-6.64,.14-1.68-1.09-3.22-.69-4.89,.42-1.66,2.45-2.91,1.28-4.72-.51-1.4,1.45-.68,2.15-1.11,.46,.04,1.41-1.3,1.34-.6,1.46,.99,3.18,.69,4.51-.27,.95-.29,1.77,.62,2.66,.82,1.91,.56,4.12,.17,5.73-1,.22,0,.44,0,.66-.01,1.35,1.77,4.11,.17,4.43-1.69,.09-1.24,1.52-1.86,2.02-2.86-.42-2.13-2.02-1.44,.22-3.76,.28-.43,.33-1.04,.09-1.5Z"/></clipPath><clipPath id="uuid-60c32991-8e5b-4cc0-a349-2b6a50adf480"><path class="uuid-ed41c6db-cb3d-4ef4-aa5c-966664f5bec3" d="M570.27,183.16c.12-1.81-.3-3.39-1.33-4.86,.35-3.45,.67-6.51-1.73-9.46,1.15-2.4-.32-5.09-1.8-6.96-.64-3.68-2.43-7.12-6.01-8.67-1.66-1.54-1.74-4.55-4.44-5.09-2.85-.03-3.71-3.29-6.2-4.32-2.73-1.47-5.87-1.48-8.87-1.46-2.73-1-5.59-2.66-8.6-1.58-2.62,1.9-6.09,.26-8.64,1.94-1.16,1.05-2.85-.13-4.21,.38-1.51,.91-3.23,.91-4.67,1.97-.81,.43-.91,1.24-1.47,1.91-1.69,1.02-3.94,1.15-4.97,3.19-.88,1.15-.82,2.62-1.81,3.65-1.17,.39-2.08,1.33-2.85,2.26-1.08,1.09-1.46,2.56-2.09,3.87-1.35,1.43-2.54,3.09-3.09,5.01-.99,2.49-.04,5.2-.99,7.64-.55,.99-1.23,1.93-1.43,3.08-.61,2.2,1.65,3.97,1.08,6.01-2.58,6.43,1.67,12.23,2.11,18.43-.29,5.61,4.6,9.02,6.34,13.95,.58,.85,1.67,1.13,2.39,1.84,.8,.75,.93,2.06,1.71,2.85,.49,.72,1.54,1.04,2.18,1.51,.43,.58,1.11,1.17,1.82,1.47,3.45,1.71,3.25-.11,6.52,3.19,1.65,1.07,3.56,.31,5.33,.23,3.27-.07,5.84,2.3,9.09,1.87,4.1-1.5,9.11,.7,12.65-2.72,2.33-1.53,5.97-.39,7.29-3.63,.24-.78,.74-1.39,1.57-1.53,5.16-1.27,7.93-6.06,9.05-10.9,3.13-3.51,4.8-7.52,4.35-12.28,.21-1.82,1.64-3.11,1.2-4.99-.21-.87-.42-1.66-.03-2.58,1.13-1.67,.25-3.47,.55-5.2Zm-44.15,18.1c-1.1-.35-1.46-1.28-2.16-2.02-.52-.17-1.35-.21-1.35-.96,0-.74,0-1.53-.73-1.93-.26-.19-.18-.27-.17-.57-.11-1.13-.85-1.85-1.82-2.39-.36-.43,.06-1.07,.2-1.54,.35-1.44-.49-2.92-1.55-3.86,.96-1.76,.4-3.77,.07-5.58,.6-1.58,1.64-3.04,1.92-4.7-.17-6.09,3.25-3.13,2.58-8.56,.97-1.26,2.87-1.39,4.12-2.34,1.93-1.03,3.6-3.42,5.9-3.37,1.61,.48,2.85,1.6,4.32,2.27,2.15,.55,3.81,2.13,3.98,4.39,1.32,1.47,1.61,1.49,1.56,3.63,.17,.76,1.05,1.11,.89,1.95,.23,1.27,.91,2.13,1.92,2.89,.45,.72-.26,1.56-.27,2.33-.08,1.5,.49,2.98,1.34,4.19,0,.15,0,.3,.02,.44-1.11,1.19-.94,2.89-.82,4.34-.76,1.2-1.86,2.34-1.96,3.84,.83,5-1.45,2.34-2.07,5.87-.57,.49-1.19,.95-1.83,1.35-2.89-.52-5.28,1.86-7.99,1.67-2.08-1.51-3.64-2.28-6.08-1.35Z"/></clipPath><clipPath id="uuid-e93b9bb0-2604-440a-a942-5181b51afda1"><path class="uuid-ed41c6db-cb3d-4ef4-aa5c-966664f5bec3" d="M653.27,176.8c2.06-3.22,1.14-6.65,.52-10.06,.44-2.09,1.56-3.72,.65-5.87,.22-1.41,1.65-2.59,1.04-4.15,.1-1.14,.64-2.26,.46-3.48,.08-.97-.87-1.53-.91-2.51,1.06-2.73,1.19-6.38-1.68-8.02,.16-1.01-.17-1.94-1.05-2.63-.92-.4-1.58,.26-2.53,.18-.28-.18-.58-.42-.92-.54-.46-2.28-3.34-1.63-4.25-.04-.36,.04-.71,.14-1.06,.13-1.96-1.9-8.06-2.72-9.46,.17-.27,.1-.53,.19-.8,.31-.72-1.05-1.92-.14-1.66,.94-1.18,1.38-3.07,3.31-1.74,5.26,.28,1.65-1.18,3.37-.59,5.09,2.92,4.99-2.35,3.97,.92,7.63-2.91,8.8,1.47,7.14-1.9,14.31-.48,1.96,1.52,3.99-.4,5.62-.47,.47-.78,1.05-.49,1.69,.9,1.21-.61,2.02-.72,3.16-.05,.53,.53,1.02,.06,1.48-.26,.8-.34,1.98,.3,2.63,1.5,1.53-2.09,2.3-1.14,5.38-.07,.1-.15,.2-.23,.3-1.39,.01-1.94,1.38-2.28,2.45-1,.35-2.37,.29-3.07,1.23-1.56,4.42-2.85-.77-4.23,3.22-.29-.09-.6,.04-.89,.04-2.1-2.08-4.7-.17-7.01-1.28-.73-1.49-1.52-2.6-3.21-2.85-1.42-1.53,.53-2.41-1.6-3.28-.3-.63,.69-1.66-.34-2.03-.25-.15-.15-.21-.08-.44,.07-1.05-.85-1.41-1.68-1.74,.05-1.34,1.09-2.3-.61-3.4-.01-.23-.02-.46-.03-.69,.64-.88,.37-2.28-.4-3.01-.42-1.5,1.34-2.72,.84-4.27-2.64-4.23,2.47-3.28-.93-6.58,2.69-4.06,.76-5.13,.65-9.21,3.07-3.27-.72-4.8,1.29-7.29,.41-.43,.64-.94,.3-1.43-1.03-.95,.41-1.63,.48-2.59-.05-.51-.53-.85-.03-1.29,.15-.49,.15-1.13,0-1.59-.18-.38-.71-.66-.64-1.13,1.64-1.23,2.49-2.9,.58-4.47-.05-.65-.64-1.08-.49-1.78,1.61-1.19-.47-1.62-.97-2.55-.19-.64-.83-1.13-1.25-1.65-.62-.69-1.8-.87-2.47-.12-.29-.09-.58-.16-.88-.21-.03-.65-.47-1.08-.96-1.21-.45-.14-.88,.48-1.35,.25-1.14-.94-2.51-1.9-3.93-.85-.4,.32-.72,.78-1.09,1.15-1.16-.03-2.26-.04-3.42,.23-2.37-1.81-2.62,.86-4.29,1.31t0,0s0-.01,0-.01c0,0,0-.01-.01-.01-.04-.02-.08-.04-.13-.04-.87-.55-1.99,.74-1.11,1.44-.1,.2-.21,.41-.31,.64-.6,.11-.89,.9-.53,1.39-.92,1.13-.51,2.68-1.2,3.96-.13,1.07,.38,2.07-.33,3.07-1.83,3.29-.43,6.87-.96,10.21-1.89,2.06-1.8,4.71,.06,6.73-1.19,4.74-.91,9.63-.21,14.46-1.57,3.55-1.34,7.27,.18,10.82,.5,2.12-1.4,3.82-.61,5.87,.39,.77,1.06,1.37,.96,2.28-.27,1.14-.44,2.33,.27,3.36,.28,.51,.18,.55,.16,1.08,.1,1.8,1.58,3.07,2.99,3.94-.28,3.23,1.97,6.43,5.07,7.55,.32,.49,.75,.84,1.23,1.13-.21,1.83,1.17,3.23,2.72,3.85,1.5,2.66,4.39,3.54,7.27,3.24,2.01,.9,3.18,3.55,5.8,1.92,6.98,3.59,5.29,1.45,12.59,1.46,3.27,2.33,5.76,.38,8.6-1.21,1.36-.35,2.91,.93,4-.31,.45-.52,.81-1.06,1.61-1.07,1.2,.15,2.09-.37,2.87-1.15,1.78,.12,2.73-1.12,3.38-2.56,2.66-.74,5.18-1.54,5-5.01,2.15-.2,4.34-1.92,4.34-4.23,.93-1.85,2.7-3.25,3.34-5.27,.58-2.06,.66-4.12,1.34-6.17,1.43-1.32,1.83-3.43,.93-5.17,.08-.3,.17-.59,.27-.88-.2-2.01,1.68-3.53,1.82-5.55,.94-3.25-.98-6.59,.14-9.67Z"/></clipPath><clipPath id="uuid-dbc56dde-e8c8-41f5-9878-01f77683a7f0"><path class="uuid-ed41c6db-cb3d-4ef4-aa5c-966664f5bec3" d="M816.96,199.1c-.05-1.74,.05-3.03-1.39-4.34-.31-.61,.25-1.24,.44-1.82,.41-1.55-.25-3.27-1.23-4.46-.01-.18-.02-.35-.04-.53,.97-1.51,.53-3.35,.04-4.9,.41-1.09,1-2.23,1.03-3.42,.32-1.98-2.45-3.43-.97-5.28,.93-1.4-.24-2.74-1.22-3.67,1.49-3.36,.82-6.64-.85-9.82,2.7-6.5-1.33-5.89,.34-9.9,.9-1.15-.88-1.98-.28-3.07,.91-.85,.76-1.98,.19-2.94,.26-1.43-1.39-3.2-2.84-2.53,.29-1.9-2.61-4.31-4.41-3.18-1.19,.18-2.03-1.08-3.01-1.38-2.71,1.13-1.08,1.63-4.09-.06-.62-.17-1.38-.07-1.88,.37-.2,.2-.44,.69-.79,.5-.35-.55-.65-.05-1.07,.11-1.57-.18-2.01,.48-3.01,1.41-3.23-.37-4.26,1.86-3.45,4.69-.24,.07-.35,.34-.4,.57-.06,.12-.04,.26-.09,.38-.73,2.57,3.04,2.65-.47,5.57,.75,2.28,1.62,.69-.04,3.43-.19,.61,.08,1.36,.7,1.6,.48,.24-.34,.36-.21,.64,.76,1.02-.36,1.43,1.17,2.51,.16,.94-1.12,1.49-1.13,2.5,.02,1.03,.68,2.39,1.57,2.99,0,.37,.02,.73,0,1.09-1.15,.68,.17,1.83-.44,2.7-.92,.96-1.65,2.29-1.08,3.61-.17,.21-.36,.41-.57,.62-.58-.23-1.13,0-1.42,.46-.02,.25,0,.68-.29,.81-2.73-.99-2.51,.4-4.89,1.17-2.39,.14-2.42-2.46-5.05-1.82-1.08-.24-.74-2.43-2.18-1.85-.11-.19-.21-.38-.31-.58,.15-.47-.19-1.01-.67-1.16-.28-.57-.08-1.31-.35-1.94,.94-1.21,.29-3.02-.27-4.28-.18-1.77,1.33-3.59,.72-5.46-.08-1.25-1.37-2.28-1-3.53,1.1-1.63,.94-3.71-.89-4.72-.45-1.74,1.05-3.49,.08-5.27-1.25-2.92-4.62-1.45-6.87-2.33-2.38-1.72-4.96-.83-7.45-.13-1.52-.25-3.26-1.22-4.38,.41-1.33,.55-3.66,.59-3.24,2.72-.18,1.15-1.48,2.29-.8,3.6,.41,.76-.26,1.39-.65,1.99-.79,1.47-.26,3.36,.74,4.6l.02,.27c-1.34,1.72-.48,3.9,.24,5.61-1.07,2.43-2.06,5.26-.16,7.57,2.33,2.5-3.18,4.46,1.32,7.12-1.58,7.56,.33,6.73,.97,13.48-2.72,3.55-.79,5.49,.62,8.71-.23,2.25-1.77,3.05,.12,5.11,.09,1.23-1.56,2.4-.4,3.62,.24,.39,.11,.43-.08,.79-.49,1.5,.29,2.73,1.29,3.78,.3,.98-1.03,1.57-1.17,2.5-.42,1.81,.17,3.99,2.02,4.72,.06,.29,.09,.58,.23,.84-1.98,2.63,.11,3.23,2.11,4.47,.29,2.86,3.4,3.1,5.23,1.31,.56,.02,1.11,.03,1.67,0,2.86,2.39,10.44,1.84,10.44-2.85,.53-.27,.73-1.07,.85-1.66,.82-.63,.75-1.87,.54-2.78,.1-.96,.21-1.92,.02-2.89,.2-1.92,1.01-3.85,.25-5.81-.94-2.5,2.6-4.03-.14-6.64-.42-2.35,6.66-8.29,8.83-7.14,2.62,1.9,8.03-.38,8.58,3.2-.15,1.3,1.58,1.7,1.3,2.98-.27,.87-.47,1.74,.07,2.55,.19,.36,.1,.39,.01,.75-.13,.72,.18,1.57,.35,2.25,.48,.73,1.52,1.28,.92,2.32-1.18,2.82,1.61,5.1,1.3,7.97,.44,.96,.87,1.75,.6,2.85,.11,1.55,1.63,2.66,3,3.07,1.19,.5,2.38-.05,3.55-.17,1.4,.23,2.55,1.58,4.09,.81,.69-.2,1.16-.75,1.6-1.27,1.8-.74,3.86,.47,5.57-.62,2.29-1.29,1.85-3.97,2.22-6.12,.61-2.78,1.43-5.5-.07-8.23-.48-1.78,1.77-3.24,.65-4.93-.72-1.41,1.17-2.83,.1-4.24Z"/></clipPath><clipPath id="uuid-ce08914d-fb8e-454a-b900-41b24e156dc9"><path class="uuid-ed41c6db-cb3d-4ef4-aa5c-966664f5bec3" d="M741.49,196.3c-.05-.55-.29-1.04-.56-1.49-.02-.65,.15-1.25,.09-1.93h0v-.04s0-.02-.01-.02c-.08-.54-.48-.91-.56-1.44,.37-.35,.63-.84,.47-1.32t-.01-.01c-.24-.66-1.01-.81-1.62-.81-2.06-.51-3.9-2.84-6.32-1.72-.31-.12-.63,.08-.91,.09-.27-.08-.42-.35-.73-.37-.59-1.26-2.04-.96-3.12-.77-1.74-1.16-3.86-2.11-5.88-.87,0,0,0,0-.02,0h.01c-.22,.12-.43,.26-.65,.39-1.24-.09-2.41-.13-3.68-.29-1.68-1.68-3.75-1.83-5.82-.89-1.04,.2-4.42-1.26-3.49,1.05,0,0,0,0,0,0,0,0,.04-.04,.02-.03,.02,.14-.11,.25-.25,.26-.67,.13-1.04,.75-.95,1.42-1.98,1.04-.52,3.6-1.12,5.26-1,1.16-.51,2.73,.79,3.42t.02,.01h0s0,0,0,.01c0,0,.01,0,.02,0h0c.68,.39,1.46,.57,2.17,.76,.28,.08,.57,.2,.8,.38-.01-.01,0,0,0,0h0c4.74,2.8-.14,3.61-1.74,6.37-3.43-.13-7.01-.07-10.5-.25-3.95-.66-4.18-5.62-7.16-7.86-.47-.4-.9-.89-1.11-1.48,.09-.15,0-.34-.13-.44-.36-1.23,.42-2.39,.13-3.58-.3-.79-1.02-1.52-.61-2.43,.33-.79,.77-1.57,.53-2.44-.11-.5-.32-.88,.02-1.32,.5-1.38,.27-2.8-.28-4.1-.05-.77,.69-1.24,1.12-1.76,1.3-1.73,1.49-4.11,1.22-6.2,1.13-.33,2.23-.65,3.09-1.47h0s.21-.23,.28-.31c0,0,0,0,0,0,1.96-2.98,1.34-2.6,4.81-2.8,3.11-2.13,1.39-2.18,5.36-.97h0c11.16,.84,4.71,2.64,8.79,6.44h.02c.93,.43,1.99,.27,2.92-.09,.76,.2,1.6,.33,2.34,.11,.31,.12,.65,.28,.94,.48,.02,0-.02,0,0,0,0,0,0,0,0,0,.02,0,.03,.02,.04,.02,1.9,.95,2.09-1.08,4.43,.69h0c.44,.16,.94,.09,1.38-.09,1.15,.01,2.66,.52,3.62-.49,0,0,.06,0,.03,0,0,0,0,0,0-.01,1.26-1.99,3.94,1.16,5.96-2.54,.1-.39,.1-.78-.18-1.09,.44-.97,1.35-1.68,1.45-2.77h0s0-.02,0-.02h0c0-1.25-.69-2.36-1.31-3.36-.22-1.31-.05-2.71-.43-4.02-.67-3.85-4.9-5.15-6-8.8,.01,0-.04-.04-.02-.02-.81-1.34-2.58-2.1-4.13-2.02-3.16-2.33-6.27-4.9-10.4-5.2-.02,0-.01-.01-.01,0-7.79,.5-8.16-3.62-16.65-.96-1.86,.08-3.81-1.27-5.49-.03-.68,.54-1.28,1.04-2.26,1.01-1.29-.08-2.59,.05-3.6,.95-1.47,.61-3.34,.9-4.37,2.31,0,0,0,.01,0,.02-.01,0,.02-.02-.02,0h0c-1.78,3.38-6.03,1.46-6.98,8.15-2.26,2.34-5.89,3.2-7.17,6.5,0,0,0,.01-.01,.02-.07,.18-.13,.37-.21,.56-.27,.87-.45,1.81-.46,2.72,.45,2.87-3.25,4.11-2.91,7.02-.08,.95,.36,1.74,.49,2.62-1.14,2.72-2.65,5.43-2.38,8.55-.02,2.36,.74,4.62,1.28,6.87-.17,2.78-.98,5.67,.17,8.38,.52,1.55,1.83,2.68,2.2,4.29,.57,1.76-.16,3.66,1.3,5.07,1.38,.89,1.57,2.54,2.25,3.92h.01s.01,.03,.02,.04c0,0,.01,.03,.02,.04,.52,.95,1.81,1.2,2.22,2.16,1.12,1.53,2.82,2.45,4.67,2.65,1.81,1.53,3.09,3.86,5.74,4.28h0c.08,.05,.03,.01,.05,.02h.01c.64,.21,1.39,.14,2.01-.02,2,1.28,3.88,3.28,6.56,3,2.11,.49,3.89,2.23,6.2,2.3,1.8,.28,3.49-.54,5.23-.73,1.37,.14,2.59,1.09,4.03,.85,1.32-.17,2.32-1.05,3.28-1.85,3.94,.12,6.31-.41,9.01-3.47h-.01s.01,0,.02-.01c.88-.92,2.5-.66,3.18-1.82h0c1.47-2.4,4.24-1.94,6.39-3.16h.02s.02-.03,.03-.04c1.84-2.28,.69-5.2,3.4-7.29,1.55-1.5-.17-3.85,1.71-5.25,.35-.42,.65-.9,.77-1.44h0s-.02,.02-.03,.05c0-.03,.02-.07,.04-.09,.07-.16,0-.42,.21-.48,.95,0,1.97-.22,2.92-.41,1.17-.38,1.61-1.63,2.22-2.57,.72-.51,1.92-.76,1.68-1.97Zm-5.13-29.31h0Zm-8.93,47.7h.02s0,0-.01,0c0,0,0,0,0,0Zm13.49-19.9h0v-.02s0,.01,0,.02Zm-.02-.02h0s0-.02,0,0Zm.03,.11s0-.05,0-.07c0,.03,.02,.07,.02,.1,0,0-.02,0-.02-.03Zm.02-.02h0s.02,0,0,0Z"/></clipPath><clipPath id="uuid-ba90ec39-5668-4f7f-adeb-42436bf49c93"><path class="uuid-ed41c6db-cb3d-4ef4-aa5c-966664f5bec3" d="M655.4,21.72c-.07-.19,0-.48,.05-.61,.07-.15,.14-.3,.2-.46,.04-.11,.08-.22,.11-.34,.15-.56,0-1.12,.21-1.68,.11-.29,.27-.56,.47-.82,.17-.22,.37-.44,.57-.63,.03-.02,.05-.04,.07-.06,.04-.03,.08-.06,.11-.1,.08-.07,.17-.14,.25-.21,.11-.08,.21-.17,.31-.25,.02-.02,.03-.03,.05-.05,.22-.2,.25-.29,.31-.63,0-.01,0-.03,0-.04,.13-.74,.4-1.48,.77-2.12,.23-.38,.57-.74,.85-1.12,.18-.23,.34-.49,.42-.75,.25-.77,.32-1.53,.73-2.22,.3-.5,.6-1.01,.97-1.47,.12-.15,.25-.3,.38-.44,.07-.06,.12-.13,.16-.19,.15-.2,.25-.4,.3-.61,.1-.34,.11-.69,.23-1.12,0,0,0-.01,0-.02,.11-.43,.19-.89,.16-1.36-.02-.17-.05-.35-.1-.51-.03-.12-.07-.25-.11-.38-.1-.34-.21-.7-.29-1.08-.03-.14-.05-.27-.07-.4-.02-.21-.04-.4-.03-.59,.01-.28,.14-.66,.4-.6,.16,.02,.29,.02,.41,.04,.21,.05,.38,.09,.62,.21,.1,.05,.2,.1,.32,.15,.7,.33,1.37,.82,2.04,1.22,.03,.02,.06,.03,.09,.05,.48,.29,.91,.64,1.33,1,.33,.3,.66,.6,.98,.92,.43,.42,.86,.84,1.3,1.22,.34,.3,.68,.6,1.01,.91,.29,.27,.59,.54,.9,.81,.34,.31,.7,.6,1.05,.9,.19,.16,.39,.32,.59,.47,.38,.29,.76,.56,1.14,.81,.35,.23,.7,.46,1.04,.67,.6,.39,1.2,.78,1.79,1.21,1.01,.75,2.03,1.41,3.06,2.04,.29,.17,.57,.33,.85,.5,.79,.46,1.61,.92,2.42,1.41,.54,.33,1.06,.68,1.55,1.05,.52,.4,1.04,.81,1.43,1.33,0,.01,.01,.03,.03,.04,.22,.32,.41,.6,.61,.94,.01,.02,.02,.03,.04,.05,.17,.26-.58,.09-.91,.03-.27-.04-.54-.11-.81-.19-.25-.07-.5-.15-.73-.22-.33-.1-.63-.19-.91-.24-.03,0-.06-.01-.1-.01-.25-.04-.48-.05-.7-.04-.4,.03-.77,.14-1.22,.28-.63,.2-1.24,.47-1.92,.52-.14,0-.3,.01-.44,.02-.17,0-.34,.04-.49,.09-.09,.04-.16,.09-.24,.15-.19,.15-.33,.36-.5,.54-.05,.05-.1,.11-.16,.17-.21,.22-.43,.45-.65,.67-.23,.22-.46,.45-.71,.67-.6,.55-1.17,1.15-1.83,1.66-.12,.1-.24,.18-.36,.27-.3,.2-.62,.4-.95,.58-.07,.04-.14,.09-.22,.13-.39,.21-.57,.26-.76,.58,0,.02-.02,.04-.04,.06-.05,.09-.1,.19-.16,.28-.06,.11-.13,.22-.19,.33-.32,.52-.68,1.05-1.09,1.5-.13,.16-.27,.3-.42,.44-.29,.28-.6,.53-.94,.75-.31,.2-.61,.3-.92,.46-.32,.16-.47,.35-.64,.57-.06,.08-.13,.16-.21,.26-.02,.02-.04,.04-.06,.07-.29,.31-.65,.5-1.04,.64-.18,0-.36,0-.55-.04-.41-.06-.87-.13-1.27-.25-.04-.01-.07-.03-.12-.03-.15-.05-.31-.12-.47-.2-.25-.12-.5-.28-.74-.44-.24-.17-.47-.33-.69-.48-.33-.22-.6-.44-.93-.66-.15-.09-.27-.22-.4-.34-.09-.09-.08-.25-.18-.32-.05-.05-.1-.08-.16-.11-.28-.13-.62-.11-.89-.25-.03-.02-.07-.04-.1-.07-.03,0-.05-.03-.06-.03-.09-.07-.2-.14-.29-.21-.21-.17-.43-.33-.66-.48-.63-.42-1.35-.9-1.91-1.41-.07-.06-.11-.12-.14-.17-.11-.2-.07-.38-.19-.63,0,0-.01,0-.02-.02-.17-.28-.61-.43-.88-.61h0c-.31-.2-.57-.5-.82-.85-.15-.24-.21-.24-.31-.52Z"/></clipPath><clipPath id="uuid-9d251a78-a037-48b5-9e99-05ae13a8dfc5"><path class="uuid-ed41c6db-cb3d-4ef4-aa5c-966664f5bec3" d="M864.4,212.33c-.03-.26-.08-.52-.18-.74,0-.01,0-.02,0-.03-.04-.09-.08-.19-.11-.29-.17-.49-.27-.99-.5-1.5-.28-.65-.72-1.2-1.08-1.79-.18-.3-.36-.62-.56-.91-.2-.28-.42-.4-.64-.6-.23-.21-.37-.38-.64-.56-.3-.21-.55-.46-.86-.65-.08-.05-.15-.1-.23-.14-.11-.06-.22-.12-.33-.17-.15-.07-.32-.13-.46-.22-.19-.11-.33-.25-.55-.36-.03-.02-.06-.03-.09-.04-.56-.26-1.16-.46-1.73-.72-.27-.12-.59-.24-.87-.29-.32-.06-.51-.22-.84-.3-.61-.15-1.41-.16-2.04-.13-.7,.03-1.39,.08-2.08,.2-.6,.11-1.41,.11-1.92,.44-.1,.06-.2,.12-.31,.18-.06,.03-.1,.08-.15,.12-.06,.06-.11,.12-.2,.16-.08,.04-.26,.03-.35,.07-.63,.3-1.25,.61-1.87,.96-.3,.17-.59,.34-.88,.52-.27,.15-.6,.31-.8,.55-.1,.12-.18,.26-.29,.37-.04,.05-.09,.09-.14,.13-.04,.03-.08,.06-.12,.08-.19,.12-.36,.21-.55,.42-.22,.24-.4,.52-.57,.8-.34,.58-.63,1.19-.9,1.81-.12,.28-.22,.55-.27,.85,0,.01,0,.02-.01,.03-.03,.18-.05,.31-.08,.43-.02,.1-.05,.18-.11,.28-.05,.08-.11,.16-.16,.23-.3,.51-.24,1.22-.28,1.8-.09,1.34-.1,2.8,.19,4.07,.17,.72,.5,1.49,.88,2.23,.14,.26,.27,.52,.42,.76,.09,.16,.19,.31,.27,.45,.09,.15,.19,.29,.29,.43,.59,.87,1.3,1.7,2.09,2.38,.21,.18,.4,.36,.58,.51,.2,.17,.41,.31,.67,.43,.02,0,.03,0,.04,.02,.68,.28,1.38,.56,2.08,.78,.71,.22,1.43,.49,2.16,.68,.34,.09,.69,.18,1.04,.21,.29,.03,.73-.08,.95,.09,.38-.04,.75-.1,1.13-.14l.14-.02c.56-.07,1.17,.07,1.71-.09,.42-.12,.8-.31,1.21-.44,.22-.06,.44-.14,.65-.22,.45-.16,.9-.36,1.35-.52,.48-.18,1.05-.36,1.45-.72,.04-.04,.08-.07,.12-.11,.42-.48,.71-1.08,1.1-1.6,.18-.24,.42-.41,.6-.64,.19-.24,.27-.52,.51-.73,.04-.03,.07-.06,.11-.09,.12-.1,.22-.18,.33-.28,.07-.07,.14-.15,.2-.26,.03-.05,.05-.09,.08-.14,.16-.29,.3-.59,.43-.89,.28-.63,.49-1.33,.62-2,.04-.19,.03-.38,.04-.57,0-.11,.02-.23,.06-.34,.01-.04,.02-.08,.04-.13,.02-.06,.04-.12,.06-.18,.04-.12,.07-.24,.1-.37,.02-.08,.03-.15,.04-.24,.09-.69,.09-1.38,.05-2.08-.02-.39-.02-.82-.06-1.22Z"/></clipPath><clipPath id="uuid-0286158a-e806-4ff2-a3f4-640b89402f49"><path class="uuid-ed41c6db-cb3d-4ef4-aa5c-966664f5bec3" d="M883.6,144.73c-.02-.11-.04-.23-.05-.34-.02-.14-.03-.28-.03-.41,0-.11,0-.21,0-.32,0-.05,0-.08,.01-.14,0-.02,0-.04,0-.05,.07-.64,.13-1.3,.17-1.97,.1-1.72,.04-3.49-.36-5.17-.14-.58-.31-1.15-.51-1.73-.04-.1-.21-.22-.24-.32-.05-.13,.03-.24-.01-.36-.68-1.75-1.57-3.47-2.34-5.15-.53-1.16-1.01-2.29-1.89-3.25-.05-.06-.11-.11-.16-.17-.1-.09-.2-.18-.31-.27-.12-.09-.24-.18-.36-.27-.12-.08-.24-.17-.37-.25-.14-.1-.28-.2-.43-.31-.47-.37-.88-.98-1.24-1.49-.77-1.09-1.6-2.06-2.5-2.98-1-1.03-2.08-1.98-3.27-2.92-1.01-.8-2.17-1.09-3.18-1.74-.11-.07-.22-.15-.32-.22-.03-.02-.05-.04-.08-.06-.12-.1-.24-.19-.35-.28-.96-.75-2.01-1.49-3.06-2.13-2.32-1.4-4.73-2.69-7.07-4.11-.09-.05-.18-.1-.26-.15-3.06-1.87-6.38-3.51-9.82-4.42-.32-.08-.64-.18-.96-.26-.16-.04-.32-.08-.48-.12-.11-.03-.21-.05-.32-.07-.13-.02-.25-.05-.38-.07-.06,0-.12-.02-.18-.04-.57-.13-1.03-.41-1.56-.64-.76-.34-1.55-.64-2.36-.92-.16-.05-.31-.1-.46-.16-.15-.05-.3-.1-.44-.15-.26-.08-.52-.17-.79-.24-1.47-.45-3-.72-4.47-1.07-.75-.18-1.5-.43-2.25-.65-.15-.04-.29-.08-.44-.12-.17-.05-.34-.09-.51-.13-.23-.05-.45-.09-.68-.12-1.37-.17-2.72-.06-4.07-.17-.09,0-.18,0-.27-.02-.53-.05-.97-.07-1.42,0-.24,.03-.44,.07-.64,.13-.23,.08-.46,.14-.77,.23-.46,.16-.9,.52-1.17,.78-.3,.28-.55,.58-.75,.9-.1,.17-.19,.33-.26,.51-.02,.05-.03,.1-.04,.15-.03,.11-.04,.23-.06,.35-.01,.12-.04,.24-.07,.35,0,0,0,.01-.02,.03-.12,.28-.43,.43-.57,.64-.35,.52-.44,1.27-.58,1.87-.21,.9,.06,1.61,.21,2.41,.02,.12,.04,.23,.05,.36,.02,.16,.03,.32,.03,.49,0,1.22-.16,2.53-.14,3.77,.02,.97,.08,2.04,.21,3.09,.02,.14-.21,.22-.19,.36,.06,.38,.13,.77,.23,1.14,.08,.3,.18,.61,.29,.91,.22,.61,.51,1.18,.89,1.69,.35,.47,.76,.83,1.21,1.22,.05,.04,.09,.08,.14,.12,.24,.2,.39,.39,.53,.59,.05,.03,.09,.05,.14,.08,.2,.12,.4,.25,.59,.38,.35,.22,.72,.43,1.15,.53,.03,0,.08,.01,.12,.02,.31,.05,.6-.01,.89-.04,.15-.02,.31-.03,.47-.02,.03,0,.06,.01,.09,.01,.16,.02,.32,.07,.49,.13,.36,.12,.73,.29,1.07,.37,.56,.13,1.1,.18,1.66,.16,.41-.02,.86-.13,1.28-.13,.15,0,.29,.02,.42,.05,.07,.02,.12,.04,.18,.06,.19,.06,.36,.14,.54,.22,.26,.11,.52,.21,.83,.27,.47,.08,.96,.17,1.43,.3,.15,.04,.31,.08,.47,.12,.16,.04,.32,.08,.48,.13,.1,.02,.19,.05,.29,.08,.18,.04,.34,.09,.52,.14,1.84,.49,3.67,.99,5.48,1.59,1.44,.47,2.87,1.17,4.25,1.96,1.08,.63,2.14,1.32,3.14,2.03,2.19,1.54,4.26,3.24,6.51,4.69,.08,.05,.16,.1,.24,.15,.06,.04,.13,.08,.19,.12,.03,.02,.07,.04,.1,.06,.66,.41,1.47,.92,2.19,1.46,.43,.31,.82,.64,1.14,.96,.05,.05,.1,.1,.15,.16,.05,.05,.09,.1,.13,.14,.2,.22,.21,.26,.2,.36,0,.07-.03,.18,0,.43,0,.01,0,.02,0,.03,.02,.2,.09,.44,.18,.67,.04,.12,.09,.24,.14,.36,.04,.09,.07,.18,.12,.27,.07,.18,.15,.34,.21,.49,.02,.04,.03,.07,.04,.1,.11,.27,.18,.51,.2,.73,0,.07,.02,.14,.02,.21,0,.11,.05,.3,.04,.41-.01,.11-.08,.13-.11,.24-.02,.1-.05,.19-.08,.29-.03,.09-.06,.17-.1,.26-.07,.16-.15,.33-.23,.5-.04,.09-.08,.18-.12,.27,0,0,0,.02,0,.03-.05,.1,.07,.27,0,.36-.04,.05-.25,.02-.29,.07-.07,.08-.15,.17-.24,.26-.2,.18-.42,.36-.66,.53-.11,.08-.24,.16-.35,.23-.06,.04-.06,.27-.12,.31-.1,.06-.25-.08-.35-.02-.47,.27-.93,.51-1.28,.7-.57,.31-1.16,.57-1.76,.79-.11,.04-.23,.08-.36,.12-.42,.13-.84,.24-1.27,.31-.08,.01-.17,.02-.25,.03-.24,0-.47-.03-.71-.03-.28,0-.55,0-.83,.02-.32,.02-.64,.03-.97,.05-.02,0-.04,0-.05,0h0c-.3,.03-.59,.05-.87,.11-.26,.05-.49,.15-.73,.22-.07,.02-.14,.05-.21,.06-.12,.02-.24,.04-.37,.04-.06,0-.13,0-.2-.01-.08,0-.15-.03-.23-.05-.17-.05-.33-.1-.52-.11-.34-.01-.68,.07-1.01,.14-.2,.04-.39,.1-.57,.16-.18,.06-.35,.13-.52,.21-.23,.1-.46,.22-.68,.35-.15,.08-.29,.18-.41,.28-.08,.07-.16,.14-.24,.22-.15,.16-.22,.32-.39,.46-.07,.05-.12,.1-.17,.13-.1,.08-.2,.15-.3,.28-.14,.19-.24,.38-.39,.58-.16,.21-.43,.58-.62,.9-.08,.24-.13,.34-.17,.58-.05,.29-.08,.58-.08,.88,0,.02,0,.05,0,.07,0,.11,0,.22,0,.33,.01,.14,.02,.28,.04,.42,.04,.39,.09,.79,.09,1.17,0,.24,0,.46-.05,.67-.01,.08-.04,.16-.06,.24-.02,.05-.04,.11-.06,.16-.18,.46-.33,.76-.33,1.3,0,.55,.02,1.09,.06,1.62,.07,1.05,.09,2.11,.32,3.12,.08,.33,.2,.71,.24,1.06,0,.1,.02,.21,0,.31,0,.06-.02,.13-.03,.19-.03,.1-.07,.2-.11,.3-.04,.08-.07,.17-.11,.25-.05,.13-.1,.28-.11,.44-.07,.9,.03,1.87,.09,2.77,0,.09,0,.19,.02,.28,.05,.91,.14,1.93,.35,2.8,.01,.04,.02,.09,.03,.13,.03,.17,.04,.31,.03,.44,0,.1-.02,.19-.05,.29-.02,.07-.04,.13-.05,.21-.03,.09-.05,.2-.09,.31-.1,.41-.02,1.04,0,1.5,.07,1.17,.11,2.33,.16,3.5,.08,1.96,.15,3.91,.38,5.86,0,.06,.01,.12,.02,.18,.01,.1,.02,.2,.03,.31,.01,.14,.01,.28,.01,.43,0,.13,0,.25,0,.38-.02,.51-.05,1.01-.02,1.54,0,.09,.01,.18,.02,.27,.11,.95,.29,1.89,.4,2.87,0,.07,.01,.15,.02,.22,.02,.16,.02,.33,.03,.48,0,.14,0,.27,0,.41-.01,.63-.08,1.26-.12,1.88-.06,1.04,.12,2.02,.23,3,.07,.56,.24,1.07,.38,1.59,.05,.17,.09,.35,.13,.53,.02,.13,.05,.27,.06,.41,0,.05,0,.1,.01,.15,0,.03,0,.07,0,.1,0,.14,0,.27,0,.41,0,.26,.07,.75,.29,1,.07,.07,.11,.12,.13,.14,.28,.29,.43,.46,.79,.75,.15,.12,.31,.23,.47,.33,.06,.04,.12,.07,.19,.11,.15,.09,.31,.18,.47,.26,.19,.1,.39,.19,.59,.28,.66,.27,1.34,.45,2.07,.46,.19,0,.29-.09,.45-.16t.01,0c.13-.04,.26-.02,.39,0,.1,.02,.2,.04,.31,.06,.05,.01,.12,.03,.18,.05,.25,.06,.5,.13,.76,.16,.61,.07,1.23,.15,1.85,.2,.44,.04,.88,.06,1.32,.05,.46,0,.96-.05,1.36-.27,.15-.08,.29-.13,.43-.17,.05-.01,.1-.02,.15-.03,.11-.02,.23-.04,.36-.06,.01,0,.02,0,.04,0,.13-.02,.27-.04,.41-.06,.48-.08,.97-.17,1.46-.27,.18-.04,.36-.07,.53-.11,.04,0,.08-.01,.12-.02,.09-.02,.18-.05,.28-.07,.21-.05,.42-.12,.62-.21,.2-.08,.4-.18,.59-.3,.06-.04,.13-.08,.2-.12,.36-.45,.63-.97,.86-1.5,.12-.3,.23-.6,.32-.9,.17-.51,.3-1.02,.42-1.49,.02-.08,.04-.15,.05-.23,.04-.2,.08-.39,.11-.59,.02-.2,.05-.4,.06-.61,.05-.54,.06-1.08,.11-1.63,.03-.51-.05-.95-.14-1.41,0-.05-.01-.09-.02-.13-.02-.15-.02-.29,0-.44,0-.15,.03-.29,.05-.44,.02-.12,.04-.25,.06-.38,.19-1.42,.35-2.88,.48-4.33,.08-.89,.15-1.77,.2-2.65,.01-.23,.03-.45,.04-.67,.01-.14,.02-.29,.03-.44,0-.14,0-.28,.01-.43,.01-.29,.01-.58,.02-.89,0-.69,.05-1.39,.1-2.08,.02-.34,.03-.69,.04-1.03,0-.56,.13-1.14,.06-1.68-.02-.13-.03-.26-.06-.39-.01-.07-.02-.14-.04-.21-.02-.1-.04-.2-.06-.31-.03-.16-.05-.3-.07-.45v-.02c-.12-1.02,.11-2.21,.23-3.23,.02-.16,.03-.32,.05-.48,.13-1.27,.19-2.57,.21-3.86,.14-.27,.33-.5,.6-.67,.17-.1,.36-.18,.6-.22,.31-.07,.6-.03,.89,.03,.22,.04,.44,.1,.66,.14,.03,0,.06,0,.09,.01,.37,.05,.72,0,1.05-.11,.26-.09,.51-.19,.77-.31,1.06-.46,2.03-1.09,3.04-1.58,.11-.05,.21-.1,.31-.14,.04-.02,.07-.03,.11-.06,.03,0,.06-.02,.09-.04,.13-.06,.26-.11,.39-.17,.82-.36,1.63-.75,2.37-1.26,1.02-.7,2.06-1.41,2.9-2.3,.26-.28,.52-.6,.82-.88,.1-.09,.21-.18,.32-.26,.06-.04,.11-.08,.17-.11,0,0,0,0,.01,0,.1-.07,.2-.12,.29-.18,.09-.05,.17-.11,.25-.16,.28-.19,.51-.41,.77-.79,.74-1.05,1.52-2.12,2.09-3.26,.24-.48,.21-1.01,.34-1.52,.03-.11,.06-.21,.11-.33,.24-.53,.57-1.05,.81-1.59,.45-1.01,1.02-2.22,1.07-3.41,.03-.66-.14-1.31-.25-1.95Z"/></clipPath><image id="uuid-ceeca340-ae88-434e-a947-09c667fb87d8" width="180" height="350" xlink:href="included_images/symbol/symbol_question 2.16.43 PM.jpg"/><image id="uuid-77f939f1-5609-4f08-a1c8-06251a12041e" width="254" height="350" xlink:href="included_images/letters/letter_E.jpg"/><image id="uuid-47864494-b819-4827-8ddf-4aa9afe5a972" width="273" height="350" xlink:href="included_images/letters/letter_H.jpg"/><image id="uuid-e03b6922-bd65-4826-b53c-582be6673539" width="357" height="350" xlink:href="included_images/letters/letter_N.jpg"/><image id="uuid-7b17facd-7a3b-4812-b7f0-1c7f0266b3d7" width="305" height="350" xlink:href="included_images/letters/letter_O.jpg"/><image id="uuid-e549d04b-913a-42fe-b148-33b81989cbb2" width="300" height="353" xlink:href="included_images/letters/letter_T.jpg"/><image id="uuid-246fe345-839f-4597-83e4-6acdd008ea60" width="308" height="350" xlink:href="included_images/letters/letter_U.jpg"/></defs>

<g id="uuid-8ce54c68-611a-4c1f-9d66-9f3628e119f9"><g class="uuid-dfe2ff41-1fd5-4229-91b2-9d53200bfe9f cls-5 swinging"><use transform="translate(31.52 5.23) scale(.26)" xlink:href="#uuid-e549d04b-913a-42fe-b148-33b81989cbb2"/></g></g><g id="uuid-2582ad9e-86eb-49ea-88c1-471992bece68">
<g class="uuid-dc7b973d-6777-4201-a3e6-a42ad14326e2 cls-3 swinging"><image width="118" height="350" transform="translate(173.43 9.32) scale(.25)" xlink:href="included_images/letters/letter_I.jpg"/></g></g><g id="uuid-0f15b250-e246-46d1-ad9d-d01700ba8568">
<g class="uuid-49c3ce99-55b1-49df-aa25-3a03a6a6dc2f cls-10 swinging"><use transform="translate(756.98 5.24) rotate(-4.37) scale(.27)" xlink:href="#uuid-77f939f1-5609-4f08-a1c8-06251a12041e"/></g></g><g id="uuid-5b076bfa-3ca4-43f8-b3b2-192d06911e01">
<g class="uuid-4a861dfe-5593-4e89-8d22-2c7ca570fa10 cls-5 swinging"><image width="284" height="350" transform="translate(134.17 130.06) rotate(10.44) scale(.26)" xlink:href="included_images/letters/letter_S.jpg"/></g></g><g id="uuid-e3e0e572-9e1c-4de8-8dea-79f3e219a681">
<g class="uuid-b8846352-f437-4834-b70a-127d5215bd9c cls-11 swinging" style="transform-origin: 45% 1%"><use transform="translate(568.59 3.05) rotate(3.26) scale(.26)" xlink:href="#uuid-246fe345-839f-4597-83e4-6acdd008ea60"/></g></g><g id="uuid-80a0d086-c645-468c-95c4-57b89089255f">
<g class="uuid-7ddf58ed-6b5b-4c7b-96b4-006dd5213210 cls-12 swinging"><image width="271" height="350" transform="translate(680.9 .17) scale(.27)" xlink:href="included_images/letters/letter_R.jpg"/></g></g><g id="uuid-5a74abc8-249e-48ae-9022-86145ad9bf24">
<g class="uuid-2d08ad1c-2622-463c-b72a-8b1667acb5d6 cls-4 swinging" style="transform-origin: 40% 61%;animation-direction: alternate;animation-duration: 21s;"><image width="305" height="350" transform="translate(43.94 134.72) scale(.26)" xlink:href="included_images/letters/letter_A.jpg"/></g></g><g id="uuid-6f8ebb0b-877f-495a-8a4d-9d496d73827f">
<g class="uuid-f385e05b-998c-42b0-a98c-76087656bf29 cls-6 swinging"><use transform="translate(488.5 13.11) rotate(-4.08) scale(.24)" xlink:href="#uuid-7b17facd-7a3b-4812-b7f0-1c7f0266b3d7"/></g></g><g id="uuid-6bde1f8d-cc26-43af-8adf-6079cf7cd145">
<g class="uuid-76525946-5a65-4164-9513-5c7eeb5f4599 cls-7 swinging" style="transform-origin: 45% 1%"><use transform="translate(113.17 -2.75) rotate(14.77) scale(.25)" xlink:href="#uuid-47864494-b819-4827-8ddf-4aa9afe5a972"/></g></g><g id="uuid-0b11c6e3-b3e1-4117-8f3b-a69945cedefb">
<g class="uuid-4c67144c-5422-42aa-953d-bd64eb493d88 cls-8 swinging"><use transform="translate(207.21 10.72) scale(.24)" xlink:href="#uuid-e03b6922-bd65-4826-b53c-582be6673539"/></g></g><g id="uuid-516116cc-7551-4dca-bca6-d7f984a307ab">
<g class="uuid-1af1a512-c22d-4982-af2c-3c2148513c8f cls-9 swinging"><image width="275" height="350" transform="translate(292.54 17.6) rotate(-7.49) scale(.23)" xlink:href="included_images/letters/letter_K.jpg"/></g></g><g id="uuid-00c66f6d-23f4-4de5-83a6-0d07399cba86">
<g class="uuid-c325dbee-e8fe-4b38-99d4-0cc7034ba17c cls-2 swinging"><image width="281" height="350" transform="translate(424.67 5.35) scale(.26)" xlink:href="included_images/letters/letter_Y.jpg"/></g></g>
<g class="uuid-3e06d185-10a3-4be2-ada0-af2c46cefe6d cls-3 swinging" style="transform-origin: 25% 35%;"><image width="207" height="350" transform="translate(-1.16 138.74) rotate(-1.65) scale(.25)" xlink:href="included_images/letters/letter_F.jpg"/></g><g id="uuid-ee68ad44-1a2c-459e-b5ed-4a028336ffb1">
<g class="uuid-6033b4a2-baed-4c47-b07b-3fdc75615ae9 cls-4 swinging" style="transform-origin: 0% 61%;animation-direction: alternate;animation-duration: 14s;"><use transform="translate(331.47 137.53) rotate(-4.64) scale(.26)" xlink:href="#uuid-77f939f1-5609-4f08-a1c8-06251a12041e"/></g></g><g id="uuid-d037590a-47b9-46a0-bf29-99c87ad9beeb">
<g class="uuid-45bfd5e1-fc54-409d-8486-9cfb48c9e230 cls-5 swinging"><use transform="translate(407.74 139.91) scale(.24)" xlink:href="#uuid-e03b6922-bd65-4826-b53c-582be6673539"/></g></g><g id="uuid-ca0610b5-ce3b-46a1-ae96-6e851ea34663">
<g class="uuid-27ec37d7-c1c1-4935-9651-f06e92798b30 cls-9 swinging"><use transform="translate(197.78 135.73) scale(.26)" xlink:href="#uuid-e549d04b-913a-42fe-b148-33b81989cbb2"/></g></g><g id="uuid-7658c580-886e-4024-9e78-4f40acebac55">
<g class="uuid-16d1ea9a-69af-4696-b79b-a1f62089d8f8 cls-7 swinging" style="transform-origin: 17% 21%;animation-direction: alternate;animation-duration: 12s;"><use transform="translate(493 142.85) rotate(-3.03) scale(.25)" xlink:href="#uuid-7b17facd-7a3b-4812-b7f0-1c7f0266b3d7"/></g></g><g id="uuid-38df0ac5-2020-4d5e-9de7-6155e48de9e4">
<g class="uuid-ab364966-90d7-41f8-914f-553c3177b64e cls-8 swinging"><use transform="translate(577.57 132.45) rotate(4.19) scale(.26)" xlink:href="#uuid-246fe345-839f-4597-83e4-6acdd008ea60"/></g></g><g id="uuid-0286e25d-e92e-4f24-a40f-e3c60b24a87e">
<g class="uuid-109da4af-565c-4bdb-9051-6107b6f6b864 cls-11 swinging"><use transform="translate(745.84 140.79) rotate(-3.31) scale(.25)" xlink:href="#uuid-47864494-b819-4827-8ddf-4aa9afe5a972"/></g></g><g id="uuid-374a87e4-71f7-4e44-aa36-62833945e9fc">
<g class="uuid-d3fddf7c-b872-43ad-8ad5-804696a2221e cls-10 swinging"><image width="326" height="350" transform="translate(662.73 141.59) scale(.24)" xlink:href="included_images/letters/letter_G.jpg"/></g></g><g id="uuid-41245ab4-2bd4-40a4-9735-679cd8c593de">
<g class="uuid-fe0e2e94-b65a-4bdc-9721-e67c13f4d1b7 cls-11 swinging"><image width="285" height="350" transform="translate(620.7 -33.12) scale(.29)" xlink:href="included_images/symbol/symbol_apostrophe 2.16.43 PM.jpg"/></g></g><g>
<g class="uuid-3a58574f-2c8b-4ed9-89d1-7cdf7034ed2b cls-12 swinging"><use transform="translate(818.51 98.78) scale(.36)" xlink:href="#uuid-ceeca340-ae88-434e-a947-09c667fb87d8"/></g>
<g class="uuid-29b1cd97-c3f9-4053-b0d4-aa29ed260388 cls-10 swinging"><use transform="translate(818.51 98.78) scale(.36)" xlink:href="#uuid-ceeca340-ae88-434e-a947-09c667fb87d8"/></g></g></svg>