<svg id="letters" xmlns="http://www.w3.org/2000/svg" xmlns:xlink="http://www.w3.org/1999/xlink" viewBox="0 0 801.11 117.3"><defs><style>.cls-1{fill:none;}.cls-2{clip-path:url(#clip-path);}.cls-3{clip-path:url(#clip-path-2);}.cls-4{clip-path:url(#clip-path-3);}.cls-5{clip-path:url(#clip-path-4);}.cls-6{clip-path:url(#clip-path-5);}.cls-7{clip-path:url(#clip-path-6);}.cls-8{clip-path:url(#clip-path-7);}.cls-9{clip-path:url(#clip-path-8);}.cls-10{clip-path:url(#clip-path-9);}.cls-11{clip-path:url(#clip-path-10);}.cls-12{clip-path:url(#clip-path-11);}.cls-13{clip-path:url(#clip-path-12);}.cls-14{clip-path:url(#clip-path-13);}.cls-15{clip-path:url(#clip-path-14);}.cls-16{clip-path:url(#clip-path-15);}.cls-17{clip-path:url(#clip-path-16);}.cls-18{clip-path:url(#clip-path-17);}.cls-19{clip-path:url(#clip-path-18);}.cls-20{clip-path:url(#clip-path-19);}.cls-21{clip-path:url(#clip-path-20);}</style><clipPath id="clip-path"><path class="cls-1" d="M441,32.63c-.8-.92,0-.75.23-1.44-.61-1.25.38-2.79-1.11-3.63-1.24-1.37,2.15-3,.75-5a5.86,5.86,0,0,0-2.3-2.23,4.78,4.78,0,0,0-5.65-2.86c-3.11-1.38-6.43-2.87-9.87-1.73-3.46,1.32-6-3.14-9.65.12-5.38-1.36-10.64-1.91-16.08-.18-5.82-1.39-7.47-2-13.42-.16-1.43,0-2.55-.84-3.88-1.08s-2.56,1-3.9.4c-1.87-1.13-3.27,0-5,0a6.27,6.27,0,0,0-4.72,1.71c-4.53-.39-7-1.07-9.56,3.61-3.68.83-.11,3.33-.77,5.45-3.26,1.85-1,4.71.22,6.89-.65,1-1.39,2.12-.68,3.27-2.65,3.41,2.32,9.3,5.95,6.76.39,0,.77,0,1.15,0a1.21,1.21,0,0,0,2.25,0c2-.26,3.94.69,6,.58,2.32-.77,5.21.19,7.33.83,1.5.58,3.45-.19,4.14,1.73.35,2.24-1.54,4.41.26,6.69.24.57.82,1,1,1.55-.79,3-2.37,5.86-1.55,9.08,2.86,9.06-2.18,8.94.48,18,0,1.88-1.89,3.2-1.29,5.09a2.76,2.76,0,0,1,.1,2.41,3.87,3.87,0,0,0-.7,3.5c.15.45,0,.62-.16,1.06a7.62,7.62,0,0,0,.08,3.19c.26.85,1.39,1.46,1.06,2.5a6.53,6.53,0,0,0,0,8.4c.35,1.06-1,2.58.29,3.33a9.12,9.12,0,0,0,6.27,2.9c1.39-.26,1.79,1.32,2.75,1.89a2.68,2.68,0,0,0,2.12-.2c2.17-.85,3.6,2.32,5.91,1.44.76-.22,1.46-1.19,2.2-.37.78.16,1.38-.77,2.16-.8a4.11,4.11,0,0,0,3-1.59c2-.39,4.64-.1,5.81-2.32,2.36-3.87-.49-4.64.85-6.83.77-2.18.17-4.4-.33-6.51.63-2.26,1.52-4.58,1-7-3.11-6.58,1.63-6.17-1-11.06a1.66,1.66,0,0,1-.43-2.09c2.1-4.38,1.15-9.18-.35-13.57,0-2.55,1.65-4.85,1.47-7.47.16-1.89-1.22-3.63-.78-5.51s2.76-3.27,1.44-5.31c-.58-1.57,1.63-.76,2.42-1.24.53,0,1.59-1.47,1.52-.67a4.35,4.35,0,0,0,5.07-.3c1.07-.33,2,.7,3,.92a7.6,7.6,0,0,0,6.44-1.13,6.26,6.26,0,0,0,.75,0c1.52,2,4.63.19,5-1.9.1-1.4,1.71-2.1,2.28-3.22-.48-2.4-2.27-1.63.25-4.24A1.75,1.75,0,0,0,441,32.63Z"/></clipPath><clipPath id="clip-path-2"><path class="cls-1" d="M272.63,95.75a23.51,23.51,0,0,0-1.48-2.92,3.63,3.63,0,0,1-.24-.82c.19-.2,0-.5,0-.72a4,4,0,0,0-.33-2.17c-.81-2-3-3-5.22-2.93-1.38,0-2.35,1.14-3.55,1.51-6.07.61-26,5.49-28.9.36-.68-.58-1-1.74-1.77-2a8.94,8.94,0,0,0-.79-2.39c1.46-1.79,2.65-4.28,5.22-4.54a9.12,9.12,0,0,0,4.92-1.47c1.63-.46,3.43-.29,4.82-1.43.58-.44,1.15-.13,1.79-.11a4.32,4.32,0,0,0,3.58-1.37c2.07-.36,1.71-2.36,1.47-3.91.88-1.81,0-4.34-.66-6.14a8.52,8.52,0,0,0-1.47-6c-.67-1.18-2-.61-3.11-.88-2.26-1.33-4.73.12-7-.3-2.63-.94-5.48-.57-8.17-.85a37.59,37.59,0,0,0-3.86-2.58c-1.06-1-1.41-2.69-2.4-3.84-.3-3.38-1.88-8.7,1.42-10.66,9.37-4,21.25-.48,30.51-4.83,2.49-.14,5.92-2.48,4.55-5.31a6.14,6.14,0,0,0,.6-4.75c-2.11-3.29.64-7.69-4.22-9h0a3.83,3.83,0,0,0-2.84-1.64c-2-.36-5.16-1.53-6.76-.82-.71-.13-1.41-.87-2.13-.95-3.32,0-11.43-1.54-14.48-.41-9.93-.29-15.69,1.62-23.76,5.65A48.63,48.63,0,0,0,200,22.42a10.93,10.93,0,0,0-5.69,4.77c-3.4,2.7-2.26,9.55-3.21,13.63.41,12.19-.11,15.46,2.44,30.27C196,85.16,197,98.33,203.9,109.72c1.41,2.6,4.44,2.49,6.41,4.27,3.5.71,6.67,2.1,10.35,2.17,9.31,1.6,14.43,1.72,23.79-1C255.54,113.92,275,110.56,272.63,95.75Z"/></clipPath><clipPath id="clip-path-3"><path class="cls-1" d="M99.23,78.74a4.56,4.56,0,0,0-.7-1.87c0-.81.19-1.56.11-2.41h0v0s0,0,0,0c-.1-.67-.6-1.15-.7-1.8a1.65,1.65,0,0,0,.59-1.66h0c-.3-.83-1.27-1-2-1-2.57-.64-4.88-3.56-7.91-2.16-.39-.15-.79.1-1.15.12s-.52-.44-.91-.47c-.74-1.58-2.56-1.2-3.91-1-2.18-1.45-4.83-2.65-7.36-1.09h0c-.28.14-.55.31-.82.47-1.56-.12-3-.16-4.61-.37a6.09,6.09,0,0,0-7.29-1.11c-1.3.25-5.54-1.58-4.37,1.31h0s0-.06,0,0a.32.32,0,0,1-.31.33,1.51,1.51,0,0,0-1.19,1.77c-2.48,1.31-.65,4.51-1.4,6.59a2.75,2.75,0,0,0,1,4.29h.07a11.4,11.4,0,0,0,2.72.94,3,3,0,0,1,1,.48s0,0,0,0h0c5.94,3.51-.17,4.52-2.18,8-4.3-.16-8.78-.08-13.16-.32-4.94-.83-5.24-7-9-9.84A4.56,4.56,0,0,1,34.34,76a.45.45,0,0,0-.16-.55c-.45-1.54.53-3,.16-4.48-.38-1-1.28-1.91-.76-3s1-2,.66-3.06c-.13-.63-.4-1.1,0-1.66a7,7,0,0,0-.35-5.14c-.07-1,.86-1.55,1.39-2.21,1.63-2.16,1.87-5.15,1.53-7.76a9,9,0,0,0,3.88-1.83h0l.35-.39h0c2.45-3.73,1.68-3.25,6-3.5,3.89-2.67,1.74-2.73,6.72-1.22h0c14,1,5.91,3.3,11,8.06h0a4.86,4.86,0,0,0,3.67-.12,5.43,5.43,0,0,0,2.93.14,6.56,6.56,0,0,1,1.18.6h0l0,0c2.39,1.19,2.62-1.35,5.55.87h0A2.47,2.47,0,0,0,80,50.65c1.44,0,3.34.65,4.54-.61h0c1.57-2.5,4.94,1.44,7.47-3.18a1.42,1.42,0,0,0-.22-1.37c.54-1.22,1.69-2.1,1.82-3.47h0A8.38,8.38,0,0,0,92,37.76c-.28-1.65-.07-3.4-.54-5-.84-4.82-6.14-6.45-7.52-11,0,0,0,0,0,0a5.87,5.87,0,0,0-5.18-2.53c-4-2.92-7.86-6.14-13-6.51,0,0,0,0,0,0-9.76.62-10.22-4.53-20.85-1.2-2.34.1-4.78-1.59-6.89,0a4.18,4.18,0,0,1-2.82,1.27,5.88,5.88,0,0,0-4.51,1.18c-1.85.77-4.19,1.14-5.48,2.9v0s0,0,0,0h0C22.89,21,17.57,18.61,16.37,27c-2.83,2.92-7.37,4-9,8.14,0,0,0,0,0,0-.09.22-.16.47-.26.7a12.31,12.31,0,0,0-.58,3.4c.57,3.6-4.07,5.15-3.64,8.79-.1,1.2.45,2.19.61,3.28C2.08,54.74.18,58.13.53,62c0,3,.93,5.78,1.61,8.61-.22,3.48-1.23,7.1.21,10.49.65,1.94,2.3,3.36,2.76,5.38.71,2.2-.21,4.58,1.62,6.35,1.73,1.12,2,3.18,2.81,4.91v0h0s0,0,0,0a.11.11,0,0,1,0,0c.66,1.19,2.26,1.5,2.78,2.71a8.22,8.22,0,0,0,5.84,3.31c2.28,1.92,3.87,4.84,7.19,5.37v0h0c.09,0,0,0,.06,0h0a4.79,4.79,0,0,0,2.52,0c2.51,1.6,4.86,4.1,8.21,3.75,2.65.62,4.87,2.79,7.77,2.88,2.25.36,4.38-.67,6.55-.91,1.71.18,3.24,1.37,5.05,1.07a8.32,8.32,0,0,0,4.1-2.31c4.93.14,7.9-.52,11.29-4.36h0s0,0,0,0c1.11-1.15,3.14-.83,4-2.29h0c1.84-3,5.31-2.41,8-3.94h0s0,0,0,0c2.31-2.85.87-6.52,4.26-9.14,2-1.88-.21-4.82,2.14-6.57a4.18,4.18,0,0,0,1-1.81h0l0,.06a.54.54,0,0,1,.05-.11c.08-.2,0-.52.26-.59a19,19,0,0,0,3.65-.51c1.47-.48,2-2.05,2.78-3.23C98,80.56,99.53,80.26,99.23,78.74ZM92.8,42ZM81.62,101.78h0Zm16.9-24.93h0s0,0,0,0Zm0,0h0S98.48,76.8,98.5,76.83Zm0,.14a.28.28,0,0,1,0-.09.31.31,0,0,1,0,.13S98.53,77,98.53,77Zm0,0h0S98.58,77,98.56,77Z"/></clipPath><clipPath id="clip-path-4"><path class="cls-1" d="M186.15,46.33a34.48,34.48,0,0,1-1.38-4.4c1.38-4.82-2.22-7.5-2.86-11.88a.08.08,0,0,0,0-.07c-1.94-5.73-4.65-.16-8-10.7a5.27,5.27,0,0,0-3.44-1.73c-1.68-1.13-2.44-3.1-4-4.39-3.88-3.73-9.59-2.05-14.12-3.49-5.06-3.39-10.68,1.22-15.82-.86-1.87-.94-3.45.74-5.15,1.22-1.69.1-3.67.11-4.68,1.73-1.51.76-4.36.75-5.18,2.85-.53,3.8-8,.3-7.91,8.28-1.35,1.26-3.73,1.66-4.27,3.75a6.09,6.09,0,0,1-.32,2.91c-3.35,4.3-1.67,5.81-1.44,10.38-1.93,2.31-2.45,4.79-.54,7.34a29.09,29.09,0,0,0-1.64,12.59c1.31,4.52-2.66,8.94-.33,13.58.47,2.2-2.08,3.82-1.3,6,1.16,1.65-.51,3.08-.63,4.73,0,.77.63,1.5.1,2.2a5.55,5.55,0,0,0,.89,4.9c.29,1-.69,1.78-1,2.59-.92,2.1.37,4.36.87,6.35a4.58,4.58,0,0,0-.34,1.38c-2.13,1.95-.64,4.79,2,5.15h0c.51,0,.65.63,1.1.75h0c.89.46.66,1.58,1.13,2.33a5.42,5.42,0,0,0,7,2.39,9.7,9.7,0,0,0,2,.52,5.7,5.7,0,0,0,8.29-.29c.08-.07.08,0,.1,0,2,.55,4.59.54,5.56-1.7a6.13,6.13,0,0,0,.32-.7c.66-.69,1.42-1.51,1.2-2.55a2,2,0,0,0,.27-1.57c1.86-.49,1.16-3.15-.48-3.48a2.11,2.11,0,0,1-.09-.56c1.25-1.49,2.19-1,.76-3.18-1.72-2.6,2.65-3.24-.38-6.46,0-1,0-2.13,0-3.26,2.58-2.55,3.14-8.41.23-10.85,0-.34,0-.67,0-1a1.46,1.46,0,0,0,.82-.53,9.49,9.49,0,0,1,1.61,2.26c-.28,2.12.77,4.8,3.19,5l.58,1c-1.88,2.49,1.54,2.48,1.4,4-1.27,4.31,4.4,4.87,5.39,8.25-.15.22-.27.44-.4.67a0,0,0,0,1,0,0h0a3.33,3.33,0,0,0,1.49,4.49,4,4,0,0,1,1.35.94c1,1,.57,3.6,2.62,3.22.16.27.26.45.42.69-1,.83-.5,2.65.95,2.25a2.46,2.46,0,0,0,.11.51c-.53,3.43,1,4.2,4.21,4,.69.84.49,2.07,1.34,2.91,1.08.09,2.3-.7,3.28.23a5.9,5.9,0,0,1,1.3-.87c1.26,0,3-.19,3.81-1.26a6.05,6.05,0,0,1,3,0c2.33.1,3.92-2.32,6.07-3a7.81,7.81,0,0,0,4-6.56c-.26-1-1.39-1.56-1.3-2.66a1.68,1.68,0,0,0-.34-3.1,3.38,3.38,0,0,0-.27-.36c.5-2-1-3.66-2.28-5-.31-1.94-.48-4.14-1.92-5.65-6.22-3.72-.61-5.57-6.1-7.73a6.28,6.28,0,0,1-.7-4.16c.24-1,1.68-.88,2.08-1.83,1.79-5.12,3.79-4.37,7.89-6.41,1.63-1.06,1.59-3.28,2.9-4.52,1.26-1,3.7-1.32,3.25-3.44-.25-1.59,1.91-1.58,2.33-2.88.27-.49.06-1.22.25-1.67a3.37,3.37,0,0,0,0-4.25,1.72,1.72,0,0,1,.36-1.81A4.08,4.08,0,0,0,186.15,46.33ZM154.36,49c-1.68.5-1.1,2.61-2.82,2.84a3.31,3.31,0,0,0-2.89.91c-.38.41-.63.13-1.1.18A5.71,5.71,0,0,0,144,55.18c-2.84-.18-5-3.85-8.25-.54a8.81,8.81,0,0,0-2.18,0c.11-2.55,1.55-4.93.6-7.53,1-2,2.54-4.81,1.59-7.06a1.54,1.54,0,0,1,.2-.76c.58-4,3.75-1.37,4.77-5,4.1-1.82,2-1.52,6.15-.51,1.81.08,3.37,1.3,5.21,1.26.5.46,1.08,1,1.66,1.47s.49,1.45,1.18,1.92c.37,2-.44,4,.49,5.91C156.81,46.09,156.26,48,154.36,49Z"/></clipPath><clipPath id="clip-path-5"><path class="cls-1" d="M366.14,102.5c-.26-.45,0-.58.1-1A3.76,3.76,0,0,0,364.66,98c-.37-.6.25-1.35.44-1.94a4.66,4.66,0,0,0-1.44-4.51c-.08-2,1.69-3.94.09-5.8-.57-2.37.87-5.11-.41-7.49-4.67-5.59-.21-6.25-4.17-9.86-1.28-5.79-.12-9.52-4.6-14.64.28-5.21-3.75-7.42-5.27-11.91,1.24-3.41-1-3.11-1.8-5.59a3.72,3.72,0,0,0-1.25-3.2c-.4-.36-.31-.44-.37-.89A5.34,5.34,0,0,0,343,28.46c-.74-2.81-.64-5.68-4-7-.53-.13-.74-.68-1.09-1.08a1.32,1.32,0,0,1-.95-1.22h0c-.62-1.55-1.48-3.06-3.43-3-3.29-2.63-7.13-5.19-11.49-3-3.06-.28-6-2.58-8.36,1.1-6.12.51-9.4,5.31-10.76,10.66a2.4,2.4,0,0,1-.27.47c-4.69,3.76-5.47,6.31-6.85,11.84-.57,1.17-2,1.85-2.35,3.14-.27,1.06-.09,2.28-1,3.08a4.25,4.25,0,0,0-1.88,3.35c0,.6-.16.59-.5,1-1.21,1.65-1.08,3.52-1,5.4-2.15,2.22-4.69,5.25-3,8.58-.16.29,0,.48.17.69-2,.74-2.24,3-2.18,4.75-1.63,1.94-3.17,4.3-2.27,6.93,1.12,2.61-3.36,3.67-1.05,6.6-1.85,4.89-2.05,7.82-1.29,13-1.14,1.72-2.45,3.57-2.16,5.74.12.94.62,1.92.17,2.84-.74,1.5-2.6,2.83-1.07,4.55.56,1.1-.38,2.47.53,3.49.28.46,1,.63,1.34,1a3.21,3.21,0,0,0,4.28,1.42c.74,0,1.1.81,1.59,1.25a4.47,4.47,0,0,0,5.06,0,2.3,2.3,0,0,0,3.15,1c.48.06.21.77.69.79,1-.29,1.72.67,2.65.7,2.43-1.53,4.72,1.48,6.9-.66l0,0c.74-1,1.81-2.41,1.41-3.78l.2-.27c8.23-1.9-.87-9.1,4.76-10.24,3.12-.89.21-4.06,5.43-3.36,1.2,0,1.75-1.07,2.63-1.44.38,0,.39.5.72.41,1.55-.54,3.31,1,4.7-.59,2.43-1.17,2.65,3.14,10.46,2a8,8,0,0,1,.9.76c-.25,2,1,3.82,2,5.43-.19,1.84-.63,3.91.48,5.56.57,1,1.67,1.53,2.44,2.35.69,1.15,1.62,2.7,3.19,2.54,1.18,0,2.05-1.24,3.27-1.13,6.45,2.5,4.22,1,10.27-1,2.74-1.21,7.15,2.76,8.47-1.31.84-2,3.05-3.25,1.71-5.68C365.72,104.91,367.1,103.77,366.14,102.5ZM310.61,65.94c1.68-1.88,4.34-3.49,2.77-6.57.86-2.14,3.15-3.4,3.81-5.72,1.28-2.13,2.18-8.92,5.75-6.36,1.33,1.41,1.61,3.32,2.67,4.89.79,1.41,2.5,2.23,2.88,3.86.54,1.62-.66,3.38.57,4.76A3.26,3.26,0,0,1,330,64c-.28,1.28,1.29,2,1.14,3.1,1.88,8.74-1.48.39-7.88,6-2.07.08-4.08-1-6.18-.35-2,.18-4.46-1.47-5.45-3.11a11,11,0,0,1-1-3.57A1.05,1.05,0,0,1,310.61,65.94Z"/></clipPath><clipPath id="clip-path-6"><path class="cls-1" d="M555.94,30.64a4,4,0,0,1-.65-3.42c1.7-1.41,1.38-4.1.1-5.72a3.19,3.19,0,0,0-.28-1.16c.66-1.28-1.17-1.54-1.17-2.53-1.58-3.3-6-5.71-9.54-3.94-.26-.08-.53-.14-.79-.21a1.32,1.32,0,0,0-2.32-.59c-.6-.14-1.18-.34-1.82-.48-1.49-2.38-4.86-2.37-7.25-1.55-1.65.68-3.17-.55-4.56-1.07-3.26,1.26-1.77,2.09-5.68.46-1.29-.38-2.16.62-3.13,1.13-.82-.56-1.25-.17-2,.3-1,.34-2.2.18-2.74,1.21a16.37,16.37,0,0,0-2.12.26,2.36,2.36,0,0,0-1.07-.37l-.23-.05h-.07c-2.9-1.82-6.51,2-4.91,4.89-2.56,1.12-.58,3.88-1.16,5.86-1.44,3.32-.49,7.42,3.11,8.6-1.19,2.83,2.25,3.42,4.29,3.2,1.21.67,2.26,1.89,3.46,2.51l.1,0h0l-.09.05c3,3.43,2.65,8.29.71,12.13-.61,2.38,1.36,4.43.33,6.78-.77,2.14-.62,2.57.69,4.12-1.08,1.3-1.59,3.11-.35,4.57l-.12,1.2c-2.63,1.17-2,4.69-.9,6.75-.25,1.55-.54,3.09-.93,4.62-5.12,2.76-.63,6.71-4.56,9-1.39.51-2.89.38-4.21,1.07s-2.3,1.68-3.65,1.76c-7.59-3.74,1.37-8.86-7-14.43,0,0,0,0,0,0-2.32-2.75-7-5.07-9.78-1.68-1.88.63-3.75,1-5.63,1.53a2.94,2.94,0,0,0-4.24,1.49c-.5,1.51-2,2.32-2.65,3.7A4.21,4.21,0,0,0,473.2,84a8.93,8.93,0,0,0,.72,4.63c4.18,3.56-1,7.53,5.82,10.66.22.29.43.59.64.88-.39,2.57,2.48,4.05,4.3,5.18,1.45,5.61,5.06,4.44,8.86,6.38.64,1,1.1,2.19,2.24,2.67s2.67.06,3.82-.38a12.18,12.18,0,0,0,13.91.56c5.26,1,6.79,0,10.5-3.39,1.44-.79,3.55.21,4.53-1.36.68-1.89,2.84-1.19,4.11-2.26.48-.33.61-1.15,1-1.46a3,3,0,0,0,1.14-.67c1.41-1.15,1.27-2.64,1.62-4.18,2.41-1.15,4.7-3.46,3.84-6.39A6.1,6.1,0,0,0,542.34,91c1.2-1.59,2.4-3.46,2.22-5.55.11-1.52-1.38-2.86-.8-4.31,1.39-1.67,1.77-4,0-5.55,2.14-5.84.33-9.23.14-15a8.45,8.45,0,0,0,0-7.71c-.54-2,2.07-3.61.79-5.5-.78-1.26.81-2.21.92-3.4-.42-1.63.83-2.38.95-4-1.1-3.67,4.57.6,6.12-5.67a4.63,4.63,0,0,0,1.13-1C554.94,33.2,556.59,32,555.94,30.64ZM541.1,90.38a1.54,1.54,0,0,1-.15.35l.24-.71C541.16,90.14,541.14,90.26,541.1,90.38Z"/></clipPath><clipPath id="clip-path-7"><path class="cls-1" d="M648.48,62.79a8.8,8.8,0,0,0-1.58-5.88c.44-4.16.84-7.85-2-11.43,1.39-2.9-.36-6.15-2.13-8.42-.75-4.45-2.89-8.61-7.19-10.5-2-1.87-2.07-5.5-5.32-6.18-3.42-.05-4.45-4-7.44-5.24-3.28-1.79-7.06-1.83-10.67-1.81-3.29-1.23-6.72-3.25-10.35-2-3.16,2.27-7.33.28-10.41,2.3-1.4,1.26-3.43-.18-5.06.44-1.82,1.09-3.9,1.08-5.64,2.35-1,.52-1.11,1.49-1.78,2.29-2,1.23-4.75,1.37-6,3.82-1.06,1.38-1,3.17-2.19,4.4a8.09,8.09,0,0,0-3.44,2.72c-1.31,1.31-1.77,3.08-2.54,4.67a15.17,15.17,0,0,0-3.75,6c-1.2,3-.07,6.27-1.22,9.22A12.12,12.12,0,0,0,558,53.32c-.75,2.66,2,4.8,1.26,7.26-3.14,7.76,2,14.78,2.45,22.27-.38,6.77,5.49,10.91,7.56,16.87.7,1,2,1.38,2.87,2.24s1.11,2.49,2,3.44c.59.88,1.85,1.27,2.61,1.84A5.66,5.66,0,0,0,579,109c4.15,2.09,3.92-.12,7.83,3.89,2,1.31,4.28.39,6.41.31,3.94-.07,7,2.8,10.95,2.3,4.94-1.79,11,.89,15.24-3.21,2.82-1.84,7.2-.44,8.8-4.35a2.4,2.4,0,0,1,1.9-1.83c6.21-1.51,9.58-7.28,10.95-13.11,3.78-4.23,5.81-9.06,5.3-14.81.26-2.19,2-3.74,1.47-6a4.73,4.73,0,0,1,0-3.11C649.16,67.06,648.11,64.88,648.48,62.79ZM595.23,84.41c-1.32-.43-1.76-1.55-2.59-2.45C592,81.75,591,81.7,591,80.8s0-1.84-.88-2.33c-.31-.24-.21-.33-.2-.69a3.74,3.74,0,0,0-2.18-2.89c-.42-.52.08-1.29.26-1.85a5,5,0,0,0-1.85-4.67c1.17-2.12.5-4.55.11-6.74.74-1.91,2-3.65,2.33-5.66-.17-7.35,3.93-3.76,3.15-10.33,1.17-1.52,3.46-1.66,5-2.8,2.33-1.23,4.36-4.11,7.12-4,1.94.59,3.42,1.94,5.18,2.76a6,6,0,0,1,4.78,5.32c1.58,1.78,1.93,1.8,1.86,4.4.2.92,1.26,1.34,1.07,2.35a5.41,5.41,0,0,0,2.29,3.5c.54.87-.32,1.88-.34,2.81A8.28,8.28,0,0,0,620.28,65c0,.17,0,.35,0,.53-1.35,1.44-1.15,3.49-1,5.24-.92,1.45-2.25,2.82-2.38,4.63,1,6-1.75,2.81-2.52,7.07a19.67,19.67,0,0,1-2.21,1.63c-3.48-.65-6.37,2.22-9.64,2C600.05,84.24,598.17,83.31,595.23,84.41Z"/></clipPath><clipPath id="clip-path-8"><path class="cls-1" d="M738.52,88.74c2.74-2.11.21-4.71-.23-7.18,2.4-6.33-4.84-11-8.22-15.36-1-3.72,3.3-3.86,3.34-6.7,0-1.6,2-1.22,2.67-2.31.46-.68.41-1.49,1.26-1.85,1.42-1.39,1.1-3,.69-4.67,1.86-2,2.63-5.3.24-7.31-.12-.56,0-1.21-.4-1.66a8.84,8.84,0,0,0-1.16-7.3A14,14,0,0,0,733.44,27a15.87,15.87,0,0,0-3.61-2.76c-2.05-2.64-2.67-6.35-7-6-6.1-7.53-12.12-4.51-20.14-7.4-4.93-3.52-8.73,1-13.4-.81-1.85-1.13-3.66.73-5.6.07a5.66,5.66,0,0,0-4.95.08c-1.29-.29-2.7.38-3.86.92s-1.34,2.21-2.67,2.64c-5,.37-6.24,5.19-7.12,9.23-1.79,1.22-1.95,3.41-1.74,5.33-1,1.93-2.09,4-1.91,6.23v0c2.6,7.24-3.45,5.49.45,11.22-1.83,3.9-2.52,8.19-.78,12.36a88.8,88.8,0,0,0-.28,15.47c-1.28,2.36,1.07,3.21-1.1,6.09-.33.89.59,1.79,0,2.57a4.81,4.81,0,0,0,1,4.6c-.83,3.09-2.3,5.81,1.23,8.19a5.64,5.64,0,0,0,.22,1.13c-.94,2.12-.06,4.33,1.31,6a10.57,10.57,0,0,0,2.18,5.12,8.61,8.61,0,0,0,4.9,2.57c1.89.67,2.44,2.61,4.3,3.35,1.53.75,3.18-.5,4.59,0,4.33,3.36,10,1.6,14.81.63,9.64,4.23,9.45-1.14,16.07,1.49,1.71.64,2.77-1.37,4.46-1.21a4.23,4.23,0,0,0,3.58-.73c2.09-.32,5-.46,5.12-3.32a3.31,3.31,0,0,0,1.36-1c2.82.4,6-1.48,6.17-4.48a7.43,7.43,0,0,0,1.25-1.67,6.24,6.24,0,0,0,2.91-4.51,7.68,7.68,0,0,0,2.77-8.5A2.12,2.12,0,0,0,738.52,88.74ZM698.89,33.67c2.86.93,3.74,4,7.12,2.23,4.28.23,6.45,3.5,5.89,7.6,0,1.25,1.35,2.53.85,3.66a11.3,11.3,0,0,1-4.94,3.63c-.77.5-.94,1.67-1.89,2a7.81,7.81,0,0,0-4.39.39,6.58,6.58,0,0,0-4.56.43c-2.67-.52-4.82-3.11-7.88-2.14a13.83,13.83,0,0,0-1.82-.6,9.7,9.7,0,0,0,.9-4,3.62,3.62,0,0,1,0-3.07c1.48-2.58,0-6,1.68-8.28,2.2-1.48,5.33.49,7.38-2C697.74,33.56,698.31,33.61,698.89,33.67Zm13.86,13.5Zm-25.66-.24H687C687.18,46.94,687.27,47,687.09,46.93Zm5.82,42.66c-1.23-1.49-4.06.46-4.25-2a2.63,2.63,0,0,0-.78-1.54c-.38-.63.18-1.28-.11-2a4.8,4.8,0,0,0-1.31-3c-.13-1.92,1.42-3.67.4-5.79a5.76,5.76,0,0,1,1.88-1.89,8,8,0,0,0,5,0,2.52,2.52,0,0,1,2.67-.75,16.4,16.4,0,0,0,8.06,1.46c1.56.29,1.74,2.3,3,3.09,3.16,1.34,4.41,1.4,3.58,5.39.34,3.19-2.19,4.27-4.12,6.2-1.52,1.77-4.34.83-6.36,1.12C698,90,695.21,91.39,692.91,89.59Z"/></clipPath><clipPath id="clip-path-9"><path class="cls-1" d="M766.68,28.28a3,3,0,0,0,.35.4c-3.54,9.17,1,10.2-2.25,18.75-.22,1.3.53,2.52.76,3.76.33,2-2.95,3.48-1.31,5.44,1.1,1.53-1.71,2.84-.55,4.44.26.47-.1.54-.3.92a3.86,3.86,0,0,0,.68,4c-.91,3-2,4,.75,7a3,3,0,0,0,.09.77c-.76,3.56,4.59,6.63,7.38,4.3a20,20,0,0,0,2.53.77,5.13,5.13,0,0,0,7.34,1.27c1.69.49,4.32,1,4.5-1.44a2.52,2.52,0,0,0,2.43-2.2,3.62,3.62,0,0,0,1.84-4.37c2.31-5.43,2.58-3.82,1.66-9.84,1.68-1.35,2.94-3.34,1.1-5.22,3-6.76,2-6.63,1.8-13.77,3.14-2.87,2-5,1.92-8.48,1-2.06,2.72-2.32,1.45-4.94.21-1.24,2.08-1.93,1.28-3.42-.2-.51.17-.57.38-1a3.45,3.45,0,0,0-1.09-4c-.34-.66.58-1.28,1-1.74a4.31,4.31,0,0,0-.92-5.69c0-.09,0-.18,0-.27,2.82-.93,1.36-4.65-.92-5.34s-4.1-2.4-5.71-4.16c-3.78.06-2,2.21-5.29-1.58-1.17-.95-2.46-.33-3.64-.06-.89-1.27-2.16.09-3.44-.27C778.92,2,778.63,4,777.26,4c-2.81-2.82-8.85-.14-7.62,3.94a3.85,3.85,0,0,0-1.24,3.36c0,.9,1,1.62.61,2.54-1,1.28-2.71,2.15-3,4a5.19,5.19,0,0,0,.9,3.52C769.28,23.79,764.14,25.38,766.68,28.28Z"/></clipPath><clipPath id="clip-path-10"><path class="cls-1" d="M793,99.89v0c-.06-1.36-1.05-2.35-1.23-3.65.19-2.26,1.3-4.89-2-5.58a3.58,3.58,0,0,0-.91-1.33c-.23-5-5.12-5.31-8.75-6-2.64-.28-5.21-2.66-7.9-1.24-2.87,3.18-5.77.1-7.22,2.83-.58,1.46-2.61.79-3.47,2-.4.38-.38,1.17-.68,1.54a3.24,3.24,0,0,0-1.1,4.34,3.33,3.33,0,0,0-.64,1.72c-2,1.6-.64,4.06-.54,6.09-1.63.89-.34,2.33.27,3.41-.47,2.3.19,5.93,3.36,5.25.22.29.44.56.68.83-1,1.89,1,2.47,2.43,2.57a3.83,3.83,0,0,0,6.17,2.27c.46.2,1.21,0,1.57.35a18.47,18.47,0,0,1,2.68.08c1.58,2.08,3.79,1.56,5.35-.17,1-.61,3.86.14,3.26-2a7.12,7.12,0,0,0,.58-.64,1.16,1.16,0,0,0,1.41-1.54,7.05,7.05,0,0,0,1.27-1.29,4.26,4.26,0,0,0,3-4.31C791.74,103.8,793.15,102,793,99.89Z"/></clipPath><clipPath id="clip-path-11"><path class="cls-1" d="M440.46,30.58c-.8-.93,0-.76.23-1.44-.61-1.25.37-2.79-1.11-3.63-1.24-1.38,2.15-3.06.75-5A6.08,6.08,0,0,0,438,18.3a4.79,4.79,0,0,0-5.66-2.86c-3.1-1.37-6.42-2.87-9.86-1.73-3.46,1.33-6-3.13-9.65.12-5.38-1.35-10.64-1.9-16.08-.18-5.83-1.39-7.47-2-13.42-.16-1.43,0-2.55-.83-3.88-1.08s-2.56,1-3.9.41c-1.87-1.14-3.27,0-5,0a6.26,6.26,0,0,0-4.72,1.72c-4.53-.4-7-1.07-9.56,3.6-3.69.84-.11,3.33-.77,5.45-3.27,1.86-1,4.72.22,6.89-.65,1-1.39,2.13-.68,3.27-2.65,3.42,2.32,9.31,5.95,6.76.38,0,.77,0,1.15,0a1.21,1.21,0,0,0,2.25,0c2.05-.26,3.93.69,6,.58,2.32-.78,5.21.19,7.33.83,1.5.58,3.45-.19,4.14,1.72.34,2.25-1.54,4.42.26,6.69.24.57.82,1,1,1.55-.78,3-2.36,5.86-1.54,9.09,2.86,9-2.18,8.93.48,18,0,1.89-1.89,3.21-1.29,5.1a2.81,2.81,0,0,1,.1,2.4,3.86,3.86,0,0,0-.7,3.51c.15.44,0,.62-.16,1.06a7.57,7.57,0,0,0,.08,3.18c.26.85,1.39,1.47,1.06,2.51a6.52,6.52,0,0,0,0,8.4c.35,1.06-1,2.57.29,3.33a9,9,0,0,0,6.27,2.89c1.39-.26,1.78,1.33,2.75,1.9a2.73,2.73,0,0,0,2.11-.2c2.18-.86,3.61,2.31,5.91,1.44.77-.22,1.47-1.19,2.21-.38.77.17,1.38-.77,2.16-.79a4.18,4.18,0,0,0,3.05-1.59c2-.4,4.64-.11,5.81-2.33,2.36-3.86-.49-4.63.85-6.82.76-2.19.16-4.41-.33-6.52.62-2.26,1.52-4.58,1.05-7-3.11-6.57,1.63-6.16-1-11a1.68,1.68,0,0,1-.43-2.1c2.1-4.38,1.15-9.17-.35-13.57,0-2.54,1.65-4.85,1.47-7.47.16-1.88-1.22-3.62-.78-5.5s2.76-3.27,1.44-5.31c-.58-1.58,1.63-.77,2.42-1.25.53,0,1.59-1.46,1.51-.67a4.33,4.33,0,0,0,5.08-.3c1.07-.33,2,.7,3,.92a7.57,7.57,0,0,0,6.44-1.12,4.7,4.7,0,0,0,.75,0c1.51,2,4.63.2,5-1.9.1-1.39,1.71-2.09,2.28-3.22-.48-2.4-2.27-1.62.25-4.24A1.73,1.73,0,0,0,440.46,30.58Z"/></clipPath><clipPath id="clip-path-12"><path class="cls-1" d="M272.14,93.69a24.1,24.1,0,0,0-1.48-2.91,3.79,3.79,0,0,1-.24-.82c.19-.21.05-.5,0-.72a4,4,0,0,0-.33-2.18c-.81-2-3-3-5.22-2.93-1.38,0-2.35,1.14-3.55,1.52-6.07.61-26,5.49-28.9.36-.69-.59-1-1.74-1.77-2a8.83,8.83,0,0,0-.79-2.39c1.46-1.79,2.65-4.28,5.22-4.54A9.29,9.29,0,0,0,240,75.61c1.62-.46,3.42-.3,4.82-1.43.58-.44,1.15-.14,1.79-.12a4.26,4.26,0,0,0,3.57-1.37c2.08-.35,1.72-2.35,1.48-3.91.88-1.81,0-4.34-.66-6.14a8.48,8.48,0,0,0-1.47-5.94c-.68-1.18-2-.61-3.11-.89-2.26-1.32-4.73.13-7-.29-2.63-.94-5.48-.57-8.18-.85a36.49,36.49,0,0,0-3.85-2.59c-1.07-1-1.41-2.69-2.4-3.83-.3-3.38-1.88-8.71,1.42-10.67,9.37-4,21.25-.48,30.5-4.82,2.5-.15,5.93-2.48,4.56-5.32a6.11,6.11,0,0,0,.6-4.74c-2.11-3.3.64-7.69-4.22-9h0A3.82,3.82,0,0,0,255,12c-2-.36-5.16-1.53-6.77-.82-.7-.12-1.4-.86-2.12-.94-3.33,0-11.43-1.55-14.48-.42-9.93-.28-15.69,1.62-23.76,5.66a47.66,47.66,0,0,0-8.31,4.84,11,11,0,0,0-5.7,4.77c-3.39,2.7-2.26,9.56-3.2,13.64C191,51,190.51,54.23,193.06,69c2.49,14.07,3.48,27.25,10.35,38.64,1.41,2.6,4.44,2.48,6.41,4.26,3.5.72,6.67,2.11,10.35,2.18,9.31,1.59,14.43,1.72,23.79-1C255.05,111.86,274.46,108.51,272.14,93.69Z"/></clipPath><clipPath id="clip-path-13"><path class="cls-1" d="M98.74,76.69a4.51,4.51,0,0,0-.7-1.87c0-.81.19-1.56.11-2.42h0v-.05s0,0,0,0c-.1-.67-.6-1.14-.7-1.8A1.65,1.65,0,0,0,98,68.88s0,0,0,0a2,2,0,0,0-2-1c-2.57-.64-4.88-3.56-7.91-2.15-.39-.15-.79.09-1.15.11s-.52-.43-.92-.46c-.73-1.58-2.55-1.2-3.9-1-2.18-1.45-4.83-2.64-7.36-1.09h0c-.28.13-.55.31-.82.47-1.56-.12-3-.17-4.61-.37A6.08,6.08,0,0,0,62,62.3c-1.3.26-5.54-1.57-4.37,1.31v0s.05-.06,0,0a.31.31,0,0,1-.32.32,1.53,1.53,0,0,0-1.18,1.78c-2.49,1.3-.65,4.5-1.4,6.58a2.74,2.74,0,0,0,1,4.29s0,0,0,0h0a11.55,11.55,0,0,0,2.72.94,2.94,2.94,0,0,1,1,.48s0,0,0,0h0c5.94,3.51-.18,4.52-2.18,8-4.3-.16-8.79-.09-13.16-.32-4.94-.83-5.24-7-9-9.84A4.63,4.63,0,0,1,33.85,74a.44.44,0,0,0-.16-.55c-.45-1.54.53-3,.16-4.49-.38-1-1.28-1.9-.76-3s1-2,.66-3.07c-.14-.62-.4-1.1,0-1.65A6.93,6.93,0,0,0,33.42,56c-.06-1,.87-1.55,1.4-2.21,1.63-2.16,1.87-5.15,1.53-7.76a9.06,9.06,0,0,0,3.88-1.84h0s.26-.28.35-.39a0,0,0,0,0,0,0c2.45-3.74,1.68-3.26,6-3.51,3.89-2.67,1.74-2.73,6.72-1.21h0c14,1,5.91,3.3,11,8.06h0A4.82,4.82,0,0,0,68,47.07a5.63,5.63,0,0,0,2.93.14,6.91,6.91,0,0,1,1.18.6s0,0,0,0,0,0,0,0l0,0c2.39,1.19,2.62-1.35,5.55.87h0a2.47,2.47,0,0,0,1.73-.11c1.44,0,3.34.65,4.54-.62h0c1.57-2.5,4.93,1.45,7.46-3.18a1.43,1.43,0,0,0-.21-1.37c.54-1.21,1.68-2.09,1.82-3.47h0s0,0,0,0h0a8.31,8.31,0,0,0-1.63-4.2c-.28-1.65-.07-3.4-.55-5-.84-4.82-6.13-6.46-7.51-11,0,0,0,0,0,0a5.86,5.86,0,0,0-5.18-2.52c-4-2.93-7.86-6.14-13-6.52h0c-9.76.63-10.23-4.53-20.86-1.2-2.33.11-4.77-1.58-6.88,0a4.16,4.16,0,0,1-2.83,1.27,5.91,5.91,0,0,0-4.5,1.19c-1.85.77-4.19,1.13-5.48,2.89v0s0,0,0,0h0C22.4,19,17.08,16.55,15.88,24.93c-2.84,2.93-7.38,4-9,8.14,0,0,0,0,0,0-.09.21-.16.46-.26.69a12.44,12.44,0,0,0-.58,3.41C6.62,40.8,2,42.36,2.41,46c-.11,1.19.45,2.18.61,3.28C1.59,52.69-.31,56.08,0,60c0,3,.93,5.79,1.61,8.61-.22,3.49-1.23,7.11.21,10.5.65,1.94,2.3,3.35,2.76,5.37.7,2.21-.21,4.58,1.62,6.35C8,91.93,8.21,94,9.05,95.72c0,0,0,0,0,0h0l0,0s0,0,0,0c.65,1.18,2.26,1.5,2.77,2.7a8.25,8.25,0,0,0,5.85,3.32c2.27,1.92,3.87,4.84,7.19,5.37h0c.1,0,0,0,.07,0h0a4.69,4.69,0,0,0,2.52,0c2.51,1.6,4.86,4.11,8.21,3.76,2.65.61,4.87,2.79,7.77,2.88,2.25.36,4.37-.67,6.55-.91,1.71.18,3.24,1.37,5,1.06a8.33,8.33,0,0,0,4.1-2.31c4.93.15,7.9-.51,11.29-4.35h0s0,0,0,0c1.1-1.15,3.14-.83,4-2.28h0c1.84-3,5.31-2.42,8-4h0a.1.1,0,0,1,0,0c2.31-2.85.86-6.51,4.26-9.13,2-1.88-.21-4.83,2.14-6.57a4.24,4.24,0,0,0,1-1.81h0l0,.07a.37.37,0,0,1,0-.11c.08-.2,0-.52.26-.6a19,19,0,0,0,3.65-.51c1.47-.47,2-2.05,2.78-3.22C97.53,78.51,99,78.2,98.74,76.69ZM92.31,40h0ZM81.12,99.72l0,0h0S81.13,99.72,81.12,99.72ZM98,74.8h0s0,0,0,0S98,74.78,98,74.8Zm0,0h0S98,74.75,98,74.77Zm0,.14a.22.22,0,0,1,0-.09.79.79,0,0,1,0,.13S98,75,98,74.91Zm0,0h0S98.09,74.9,98.07,74.89Z"/></clipPath><clipPath id="clip-path-14"><path class="cls-1" d="M185.66,44.27a34.48,34.48,0,0,1-1.38-4.4c1.38-4.81-2.23-7.49-2.86-11.88a.06.06,0,0,0,0-.06c-1.94-5.73-4.65-.16-8-10.71a5.34,5.34,0,0,0-3.44-1.73c-1.68-1.12-2.44-3.09-4-4.38-3.89-3.73-9.59-2-14.12-3.5-5.07-3.38-10.68,1.23-15.82-.86-1.87-.93-3.45.75-5.15,1.23-1.69.1-3.67.1-4.68,1.73-1.51.76-4.36.75-5.19,2.85-.52,3.79-8,.3-7.9,8.28-1.35,1.26-3.73,1.66-4.27,3.74a6.15,6.15,0,0,1-.32,2.92c-3.35,4.3-1.67,5.81-1.44,10.37-1.93,2.31-2.45,4.79-.55,7.34a29.29,29.29,0,0,0-1.63,12.6c1.31,4.51-2.67,8.93-.34,13.58.48,2.2-2.07,3.81-1.29,5.94,1.16,1.65-.51,3.08-.63,4.74,0,.77.63,1.5.09,2.2a5.59,5.59,0,0,0,.9,4.9c.29,1-.69,1.77-1,2.58-.92,2.11.37,4.36.87,6.36a4.59,4.59,0,0,0-.35,1.38c-2.12,1.94-.64,4.79,2,5.15h0s0,0,0,0c.51,0,.65.62,1.1.74,0,0,0,0,0,0,.89.45.66,1.57,1.13,2.32a5.44,5.44,0,0,0,7,2.4,9.67,9.67,0,0,0,2,.51,5.71,5.71,0,0,0,8.29-.28c.08-.07.08,0,.1,0,2,.55,4.59.54,5.56-1.69a6.25,6.25,0,0,0,.32-.71,3,3,0,0,0,1.2-2.55,1.89,1.89,0,0,0,.26-1.56c1.86-.49,1.16-3.16-.47-3.48a2.12,2.12,0,0,1-.09-.57c1.25-1.49,2.19-1,.76-3.18C130.66,94,135,93.39,132,90.16c0-1,0-2.13.05-3.26,2.57-2.54,3.14-8.4.23-10.84q0-.53,0-1a1.4,1.4,0,0,0,.82-.52,9.43,9.43,0,0,1,1.61,2.25c-.28,2.13.77,4.81,3.19,5,.19.31.38.64.58,1-1.88,2.48,1.54,2.48,1.4,3.94-1.27,4.32,4.39,4.87,5.39,8.25-.15.23-.27.45-.4.68h0v0h0v0a3.34,3.34,0,0,0,1.5,4.49,4.29,4.29,0,0,1,1.35.95c1,1,.57,3.6,2.62,3.22.16.26.26.45.42.68-1,.84-.51,2.66,1,2.25a1.79,1.79,0,0,0,.11.51c-.53,3.43,1,4.21,4.21,4,.68.85.49,2.07,1.33,2.91,1.09.09,2.31-.7,3.29.24A6.31,6.31,0,0,1,162,114c1.26,0,3-.18,3.81-1.25a5.9,5.9,0,0,1,3,0c2.34.09,3.93-2.33,6.08-3a7.83,7.83,0,0,0,4-6.57c-.26-1-1.39-1.55-1.3-2.65a1.69,1.69,0,0,0-.34-3.11c-.08-.12-.18-.24-.27-.36.49-2.05-1-3.65-2.28-5-.31-2-.48-4.15-1.92-5.65-6.22-3.72-.61-5.57-6.1-7.73a6.23,6.23,0,0,1-.7-4.16c.24-1,1.68-.89,2.08-1.84,1.79-5.11,3.79-4.37,7.89-6.4,1.62-1.07,1.58-3.28,2.9-4.53,1.26-1,3.7-1.31,3.25-3.43-.25-1.59,1.9-1.58,2.32-2.89.28-.48.07-1.21.26-1.67a3.37,3.37,0,0,0,0-4.25,1.72,1.72,0,0,1,.36-1.81A4.11,4.11,0,0,0,185.66,44.27ZM153.87,47c-1.68.5-1.1,2.62-2.82,2.85a3.3,3.3,0,0,0-2.89.9c-.38.41-.63.14-1.1.19a5.63,5.63,0,0,0-3.59,2.2c-2.84-.17-4.95-3.84-8.25-.53a8.8,8.8,0,0,0-2.18,0c.11-2.56,1.54-4.94.59-7.54,1-2,2.55-4.81,1.6-7.05a1.44,1.44,0,0,1,.2-.76c.57-4,3.74-1.38,4.77-5,4.1-1.82,2-1.51,6.14-.5,1.82.08,3.38,1.3,5.22,1.25.5.47,1.08,1,1.65,1.48s.49,1.45,1.19,1.92c.37,2-.44,4,.49,5.9C156.32,44,155.77,45.93,153.87,47Z"/></clipPath><clipPath id="clip-path-15"><path class="cls-1" d="M365.65,100.45c-.27-.45,0-.59.1-1a3.79,3.79,0,0,0-1.58-3.49c-.37-.59.25-1.34.44-1.93a4.67,4.67,0,0,0-1.44-4.51c-.08-2,1.69-3.94.09-5.81-.57-2.36.87-5.11-.41-7.49-4.67-5.58-.21-6.24-4.17-9.86-1.28-5.79-.12-9.52-4.6-14.63.28-5.22-3.75-7.42-5.27-11.91,1.23-3.42-1-3.12-1.8-5.6A3.69,3.69,0,0,0,345.75,31c-.39-.36-.3-.44-.36-.89a5.32,5.32,0,0,0-2.92-3.71c-.74-2.81-.64-5.68-4-7-.53-.13-.75-.67-1.09-1.07a1.32,1.32,0,0,1-.95-1.23h0c-.62-1.55-1.48-3.06-3.44-3-3.29-2.63-7.12-5.19-11.48-3-3.06-.27-6-2.58-8.37,1.11-6.11.5-9.4,5.31-10.75,10.66a2.32,2.32,0,0,1-.27.46c-4.69,3.77-5.47,6.31-6.85,11.85-.58,1.16-2,1.85-2.35,3.14-.27,1.06-.09,2.28-1,3.07A4.24,4.24,0,0,0,290,44.7c0,.6-.17.59-.5,1-1.21,1.65-1.08,3.52-1,5.4-2.15,2.22-4.69,5.25-3,8.58-.16.3,0,.49.17.7-2,.74-2.24,3-2.18,4.75-1.63,1.93-3.17,4.3-2.28,6.93,1.13,2.61-3.35,3.67-1,6.6-1.85,4.89-2.06,7.82-1.29,13-1.14,1.71-2.45,3.56-2.17,5.74.13.94.63,1.91.18,2.84-.74,1.5-2.6,2.83-1.07,4.54.56,1.11-.38,2.48.53,3.5.28.46,1,.63,1.34,1a3.21,3.21,0,0,0,4.28,1.42c.74,0,1.1.81,1.58,1.24a4.46,4.46,0,0,0,5.07,0,2.31,2.31,0,0,0,3.15,1c.48,0,.21.76.69.79,1-.3,1.72.67,2.65.7,2.43-1.54,4.72,1.48,6.9-.67h0c.74-1,1.81-2.42,1.41-3.79l.19-.27c8.24-1.89-.86-9.09,4.77-10.23,3.12-.89.21-4.07,5.42-3.36,1.21,0,1.76-1.07,2.64-1.45.38,0,.38.51.72.42,1.55-.55,3.31,1,4.7-.6,2.43-1.17,2.65,3.15,10.46,2a9.38,9.38,0,0,1,.9.77c-.25,2,1,3.81,2,5.43-.19,1.84-.64,3.91.48,5.55.57,1,1.67,1.53,2.44,2.35.69,1.15,1.62,2.71,3.19,2.55,1.18,0,2.05-1.25,3.26-1.14,6.46,2.51,4.23,1,10.28-1,2.74-1.21,7.15,2.75,8.47-1.31.84-2,3-3.25,1.71-5.69C365.23,102.86,366.61,101.72,365.65,100.45ZM310.12,63.88c1.68-1.87,4.34-3.48,2.77-6.57.86-2.14,3.15-3.39,3.81-5.71,1.28-2.13,2.18-8.92,5.75-6.36,1.33,1.41,1.61,3.32,2.67,4.88.79,1.42,2.5,2.23,2.88,3.87.54,1.61-.66,3.38.57,4.76a3.23,3.23,0,0,1,.91,3.22c-.29,1.29,1.29,2,1.14,3.11,1.87,8.73-1.48.39-7.88,6-2.08.07-4.08-1-6.19-.35-1.95.17-4.45-1.48-5.44-3.12a10.71,10.71,0,0,1-1-3.57A1.8,1.8,0,0,1,310.12,63.88Z"/></clipPath><clipPath id="clip-path-16"><path class="cls-1" d="M555.45,28.59a4,4,0,0,1-.65-3.42c1.7-1.42,1.38-4.1.1-5.73a3.1,3.1,0,0,0-.29-1.16c.67-1.28-1.16-1.54-1.16-2.53-1.58-3.29-6-5.7-9.54-3.94-.26-.08-.53-.13-.8-.2A1.31,1.31,0,0,0,540.8,11c-.61-.15-1.18-.35-1.82-.48-1.49-2.38-4.86-2.38-7.25-1.56-1.65.69-3.17-.54-4.57-1.06-3.25,1.26-1.76,2.09-5.68.45-1.28-.37-2.16.63-3.12,1.14-.82-.56-1.25-.18-2,.3-1,.34-2.2.18-2.74,1.21a13.21,13.21,0,0,0-2.12.26,2.36,2.36,0,0,0-1.07-.37l-.23-.06h-.07c-2.9-1.83-6.51,2-4.92,4.89-2.55,1.12-.57,3.87-1.15,5.86-1.45,3.31-.49,7.42,3.11,8.6-1.19,2.83,2.25,3.42,4.29,3.2,1.21.67,2.26,1.89,3.46,2.51l.1-.05,0,0h0l-.08,0c3,3.44,2.65,8.3.71,12.14-.61,2.37,1.36,4.43.32,6.78-.76,2.14-.61,2.57.7,4.12-1.08,1.29-1.59,3.11-.35,4.56l-.12,1.21c-2.63,1.16-2,4.69-.9,6.75-.25,1.55-.55,3.09-.93,4.62-5.12,2.76-.63,6.71-4.56,9-1.39.51-2.89.37-4.22,1.07s-2.29,1.68-3.65,1.76c-7.58-3.74,1.38-8.86-7-14.44h0c-2.32-2.76-7-5.08-9.78-1.69-1.88.64-3.75,1-5.63,1.53a2.94,2.94,0,0,0-4.24,1.5c-.5,1.51-2,2.32-2.65,3.69a4.17,4.17,0,0,0,.08,3.39,9,9,0,0,0,.72,4.64c4.18,3.55-1,7.52,5.82,10.66l.64.87c-.4,2.58,2.47,4.05,4.3,5.18,1.45,5.61,5.06,4.44,8.85,6.39.65,1,1.11,2.19,2.25,2.66s2.67.06,3.82-.38a12.15,12.15,0,0,0,13.91.56c5.26,1,6.79,0,10.5-3.38,1.44-.79,3.55.2,4.53-1.36.67-1.9,2.83-1.19,4.11-2.26.48-.34.6-1.15,1-1.46a3.14,3.14,0,0,0,1.14-.68c1.41-1.14,1.27-2.63,1.62-4.17,2.41-1.15,4.7-3.46,3.84-6.4a6.2,6.2,0,0,0,2.08-3.84c1.2-1.6,2.4-3.46,2.22-5.56.11-1.51-1.38-2.86-.8-4.31,1.39-1.67,1.77-4,0-5.55,2.14-5.84.33-9.22.14-15a8.43,8.43,0,0,0,0-7.7c-.54-2,2.07-3.62.79-5.51-.79-1.25.81-2.2.92-3.39-.42-1.64.82-2.39.94-4-1.09-3.66,4.58.61,6.12-5.67a4.31,4.31,0,0,0,1.14-1C554.45,31.14,556.1,29.94,555.45,28.59ZM540.61,88.33a1.68,1.68,0,0,1-.15.34l.24-.7C540.67,88.09,540.65,88.2,540.61,88.33Z"/></clipPath><clipPath id="clip-path-17"><path class="cls-1" d="M648,60.73a8.79,8.79,0,0,0-1.58-5.87c.44-4.17.84-7.85-2-11.44,1.39-2.89-.36-6.15-2.13-8.41-.75-4.45-2.89-8.62-7.19-10.51-2-1.86-2.07-5.5-5.32-6.17-3.42-.06-4.45-4-7.44-5.25-3.28-1.79-7.06-1.82-10.68-1.81-3.28-1.22-6.71-3.24-10.34-2-3.16,2.28-7.34.28-10.41,2.3-1.4,1.26-3.43-.17-5.06.44-1.82,1.09-3.9,1.08-5.64,2.35-1,.52-1.11,1.5-1.78,2.3-2,1.22-4.75,1.37-6,3.82-1.07,1.38-1,3.16-2.19,4.4a7.94,7.94,0,0,0-3.44,2.72c-1.31,1.31-1.77,3.08-2.54,4.66a15.16,15.16,0,0,0-3.75,6c-1.2,3-.08,6.27-1.22,9.21a12.28,12.28,0,0,0-1.74,3.72c-.75,2.65,2,4.8,1.26,7.26-3.14,7.75,2,14.78,2.45,22.26-.38,6.78,5.49,10.92,7.56,16.88.7,1,2,1.37,2.87,2.23s1.11,2.5,2,3.45c.58.87,1.85,1.27,2.61,1.83a5.59,5.59,0,0,0,2.19,1.79c4.14,2.09,3.91-.12,7.83,3.88,2,1.31,4.28.4,6.41.31,3.94-.06,7,2.81,10.94,2.31,5-1.79,11,.89,15.25-3.22,2.81-1.83,7.2-.44,8.8-4.34a2.4,2.4,0,0,1,1.9-1.84c6.21-1.51,9.58-7.27,10.95-13.11,3.78-4.22,5.81-9.06,5.3-14.81.26-2.19,2-3.74,1.47-6a4.76,4.76,0,0,1,0-3.12C648.67,65,647.61,62.83,648,60.73ZM594.73,82.35c-1.31-.42-1.75-1.55-2.58-2.44-.63-.21-1.62-.27-1.62-1.16s0-1.85-.88-2.34c-.31-.23-.22-.33-.2-.68a3.71,3.71,0,0,0-2.18-2.89c-.43-.52.08-1.29.25-1.86a5,5,0,0,0-1.84-4.67c1.17-2.11.5-4.55.11-6.73.73-1.91,2-3.66,2.33-5.66-.17-7.36,3.93-3.77,3.15-10.33,1.17-1.52,3.46-1.67,5-2.8,2.33-1.23,4.35-4.11,7.12-4,1.93.59,3.42,1.95,5.18,2.77a6,6,0,0,1,4.77,5.31c1.59,1.78,1.94,1.81,1.87,4.4.2.93,1.26,1.35,1.06,2.36a5.38,5.38,0,0,0,2.3,3.49c.54.88-.32,1.88-.34,2.81A8.2,8.2,0,0,0,619.79,63c0,.18,0,.36,0,.54-1.35,1.43-1.15,3.49-1,5.24-.93,1.44-2.25,2.82-2.38,4.62,1,6.05-1.75,2.82-2.52,7.08a20.53,20.53,0,0,1-2.21,1.62c-3.48-.64-6.37,2.22-9.64,2C599.56,82.18,597.68,81.25,594.73,82.35Z"/></clipPath><clipPath id="clip-path-18"><path class="cls-1" d="M738,86.69c2.73-2.12.2-4.71-.23-7.18,2.39-6.33-4.84-11-8.23-15.36-1-3.73,3.31-3.86,3.35-6.7,0-1.6,2-1.23,2.66-2.31.46-.69.42-1.49,1.27-1.85,1.42-1.39,1.1-3,.69-4.67,1.86-2,2.63-5.3.23-7.32-.12-.55,0-1.2-.39-1.65a8.87,8.87,0,0,0-1.16-7.3A14.14,14.14,0,0,0,733,24.93a16.16,16.16,0,0,0-3.61-2.76c-2.05-2.63-2.67-6.34-7-6-6.1-7.54-12.12-4.51-20.14-7.4-4.94-3.52-8.73,1.05-13.4-.81-1.85-1.13-3.66.72-5.6.07a5.62,5.62,0,0,0-4.95.08c-1.29-.29-2.7.37-3.87.92s-1.33,2.2-2.66,2.64c-5,.36-6.25,5.19-7.12,9.22-1.8,1.23-2,3.41-1.74,5.34-1,1.92-2.09,4-1.91,6.23h0c2.6,7.25-3.45,5.5.45,11.22-1.83,3.9-2.52,8.2-.78,12.36a88.81,88.81,0,0,0-.28,15.47c-1.28,2.37,1.07,3.21-1.1,6.1-.33.89.58,1.78,0,2.57a4.81,4.81,0,0,0,1,4.59c-.82,3.1-2.29,5.81,1.24,8.2a5.41,5.41,0,0,0,.22,1.12c-.94,2.12-.06,4.33,1.31,6a10.58,10.58,0,0,0,2.18,5.11,8.5,8.5,0,0,0,4.9,2.57c1.89.68,2.44,2.61,4.29,3.36,1.54.75,3.19-.51,4.6-.05,4.33,3.35,10,1.6,14.81.63,9.63,4.22,9.44-1.14,16.07,1.49,1.71.64,2.77-1.38,4.46-1.21a4.23,4.23,0,0,0,3.58-.74c2.09-.31,5-.45,5.12-3.31a3.42,3.42,0,0,0,1.36-1c2.81.4,6-1.47,6.16-4.48a6.89,6.89,0,0,0,1.26-1.66,6.27,6.27,0,0,0,2.91-4.51,7.68,7.68,0,0,0,2.77-8.5A2.21,2.21,0,0,0,738,86.69ZM698.4,31.61c2.85.94,3.74,4,7.12,2.23,4.28.24,6.45,3.5,5.89,7.61,0,1.25,1.35,2.53.85,3.66a11.26,11.26,0,0,1-4.94,3.62c-.77.51-.94,1.68-1.89,2-1.52-.12-3-.32-4.39.39a6.57,6.57,0,0,0-4.56.44c-2.67-.52-4.82-3.11-7.88-2.15a17.6,17.6,0,0,0-1.82-.6,9.5,9.5,0,0,0,.89-4,3.62,3.62,0,0,1,0-3.07c1.48-2.58,0-6,1.67-8.28,2.21-1.47,5.34.5,7.39-1.95C697.25,31.51,697.82,31.55,698.4,31.61Zm13.86,13.51Zm-25.66-.24h0Zm5.82,42.65c-1.23-1.49-4.06.46-4.25-2a2.69,2.69,0,0,0-.78-1.53c-.39-.64.18-1.29-.12-2a4.79,4.79,0,0,0-1.3-3c-.13-1.91,1.42-3.67.4-5.79a5.76,5.76,0,0,1,1.88-1.89,8,8,0,0,0,5,0,2.5,2.5,0,0,1,2.67-.75A16.38,16.38,0,0,0,703.93,72c1.55.29,1.73,2.3,3,3.09,3.16,1.34,4.41,1.39,3.58,5.39.34,3.18-2.19,4.26-4.12,6.19-1.52,1.77-4.34.84-6.36,1.13C697.46,87.94,694.72,89.34,692.42,87.53Z"/></clipPath><clipPath id="clip-path-19"><path class="cls-1" d="M766.19,26.23a3,3,0,0,0,.35.39c-3.54,9.17,1,10.21-2.25,18.75-.22,1.3.53,2.52.75,3.76.34,2-2.94,3.49-1.3,5.45,1.1,1.52-1.71,2.83-.55,4.43.26.48-.1.55-.3.93a3.85,3.85,0,0,0,.67,4c-.9,3.06-2,4,.76,7a3.54,3.54,0,0,0,.08.77c-.75,3.55,4.6,6.63,7.38,4.29a19.08,19.08,0,0,0,2.54.78,5.14,5.14,0,0,0,7.34,1.27c1.69.49,4.31,1,4.5-1.44a2.53,2.53,0,0,0,2.43-2.21A3.62,3.62,0,0,0,790.43,70c2.3-5.43,2.58-3.82,1.66-9.84,1.67-1.36,2.94-3.35,1.1-5.22,3-6.76,2-6.64,1.8-13.78,3.14-2.87,2-5,1.92-8.47,1-2.07,2.72-2.33,1.45-4.95.21-1.24,2.08-1.92,1.27-3.41-.19-.51.18-.57.39-1a3.43,3.43,0,0,0-1.09-4c-.34-.66.58-1.29,1-1.74A4.31,4.31,0,0,0,799,12c0-.09,0-.18,0-.27,2.82-.94,1.36-4.66-.92-5.34S794,4,792.37,2.19c-3.77.07-2,2.22-5.29-1.57-1.16-.95-2.45-.33-3.63-.07-.89-1.27-2.16.1-3.44-.26-1.58-.4-1.87,1.65-3.24,1.61-2.82-2.83-8.85-.14-7.62,3.94a3.83,3.83,0,0,0-1.24,3.35c0,.91,1,1.63.61,2.55-1,1.28-2.72,2.15-3,4a5.15,5.15,0,0,0,.9,3.51C768.79,21.74,763.65,23.33,766.19,26.23Z"/></clipPath><clipPath id="clip-path-20"><path class="cls-1" d="M792.47,97.84s0,0,0,0c-.06-1.37-1.05-2.35-1.23-3.66.19-2.25,1.3-4.88-2-5.57a3.51,3.51,0,0,0-.91-1.33c-.23-5-5.12-5.32-8.76-6-2.63-.28-5.2-2.66-7.89-1.23-2.87,3.18-5.77.09-7.22,2.82-.58,1.46-2.61.8-3.47,2-.4.38-.38,1.17-.68,1.54a3.23,3.23,0,0,0-1.1,4.34,3.28,3.28,0,0,0-.64,1.73c-2,1.59-.64,4.06-.54,6.08-1.63.9-.34,2.34.27,3.41-.47,2.31.19,5.93,3.36,5.26a10.56,10.56,0,0,0,.68.82c-1,1.89,1,2.47,2.42,2.58a3.84,3.84,0,0,0,6.18,2.27c.46.2,1.21,0,1.57.35a18.46,18.46,0,0,1,2.68.07c1.58,2.09,3.79,1.57,5.35-.16,1-.61,3.86.13,3.26-2,.2-.2.4-.42.58-.64a1.16,1.16,0,0,0,1.41-1.54,7.32,7.32,0,0,0,1.26-1.29,4.29,4.29,0,0,0,3.05-4.31C791.25,101.74,792.66,99.91,792.47,97.84Z"/></clipPath><image id="image" width="110" height="350" xlink:href="included_images/symbol/symbol_exclamation%202.16.43%20PM.jpg"/><image id="image-2" width="300" height="353" xlink:href="included_images/letters/letter_T.jpg"/><image id="image-3" width="254" height="350" xlink:href="included_images/letters/letter_E.jpg"/><image id="image-4" width="326" height="350" xlink:href="included_images/letters/letter_G.jpg"/><image id="image-5" width="271" height="350" xlink:href="included_images/letters/letter_R.jpg"/><image id="image-6" width="305" height="350" xlink:href="included_images/letters/letter_A.jpg"/><image id="image-7" width="258" height="350" xlink:href="included_images/letters/letter_J.jpg"/><image id="image-8" width="305" height="350" xlink:href="included_images/letters/letter_O.jpg"/><image id="image-9" width="266" height="350" xlink:href="included_images/letters/letter_B.jpg"/></defs><g id="t"><g class="cls-2"><use transform="translate(354.22 14.16) scale(0.29)" xlink:href="#image-2"/></g></g><g id="e"><g class="cls-3"><use transform="matrix(0.3, -0.03, 0.03, 0.3, 187.43, 16.09)" xlink:href="#image-3"/></g></g><g id="g"><g class="cls-4"><use transform="translate(0.57 10.21) scale(0.3)" xlink:href="#image-4"/></g></g><g id="r"><g class="cls-5"><use transform="translate(102.53 8.57) scale(0.31)" xlink:href="#image-5"/></g></g><g id="a"><g class="cls-6"><use transform="translate(275.65 12.25) scale(0.3)" xlink:href="#image-6"/></g></g><g id="j"><g class="cls-7"><use transform="translate(477.86 6.75) rotate(3.7) scale(0.31)" xlink:href="#image-7"/></g></g><g id="o"><g class="cls-8"><use transform="matrix(0.3, -0.01, 0.01, 0.3, 555.65, 13.69)" xlink:href="#image-8"/></g></g><g id="b"><g class="cls-9"><use transform="translate(662.42 7.43) rotate(2.82) scale(0.3)" xlink:href="#image-9"/></g></g><g id="_" data-name="!"><g class="cls-10"><use transform="translate(768.38 0.09) rotate(6.78) scale(0.33)" xlink:href="#image"/></g><g class="cls-11"><use transform="translate(768.38 0.09) rotate(6.78) scale(0.33)" xlink:href="#image"/></g></g><g id="t-2" data-name="t"><g class="cls-12"><use transform="translate(353.72 12.11) scale(0.29)" xlink:href="#image-2"/></g></g><g id="e-2" data-name="e"><g class="cls-13"><use transform="matrix(0.3, -0.03, 0.03, 0.3, 186.94, 14.04)" xlink:href="#image-3"/></g></g><g id="g-2" data-name="g"><g class="cls-14"><use transform="translate(0.08 8.16) scale(0.3)" xlink:href="#image-4"/></g></g><g id="r-2" data-name="r"><g class="cls-15"><use transform="translate(102.04 6.52) scale(0.31)" xlink:href="#image-5"/></g></g><g id="a-2" data-name="a"><g class="cls-16"><use transform="translate(275.16 10.2) scale(0.3)" xlink:href="#image-6"/></g></g><g id="j-2" data-name="j"><g class="cls-17"><use transform="translate(477.37 4.7) rotate(3.7) scale(0.31)" xlink:href="#image-7"/></g></g><g id="o-2" data-name="o"><g class="cls-18"><use transform="matrix(0.3, -0.01, 0.01, 0.3, 555.16, 11.64)" xlink:href="#image-8"/></g></g><g id="b-2" data-name="b"><g class="cls-19"><use transform="translate(661.93 5.38) rotate(2.82) scale(0.3)" xlink:href="#image-9"/></g></g><g id="_2" data-name="!"><g class="cls-20"><use transform="translate(767.89 -1.96) rotate(6.78) scale(0.33)" xlink:href="#image"/></g><g class="cls-21"><use transform="translate(767.89 -1.96) rotate(6.78) scale(0.33)" xlink:href="#image"/></g></g></svg>