<svg id="letters" xmlns="http://www.w3.org/2000/svg" overflow="visible" xmlns:xlink="http://www.w3.org/1999/xlink" viewBox="0 0 251.21 57.51"><defs><style>.cls-1{fill:none;}.cls-2{clip-path:url(#clip-path);}.cls-3{clip-path:url(#clip-path-2);}.cls-4{clip-path:url(#clip-path-3);}.cls-5{clip-path:url(#clip-path-4);}.cls-6{clip-path:url(#clip-path-5);}.cls-7{clip-path:url(#clip-path-6);}</style><clipPath id="clip-path"><path class="cls-1" d="M150.33,46c-.69-3.3-1.06-2.18-.08-5.53-1.41-3.73-.24-2.47-.15-6-.31-2.38-.94-4.34-.73-6.88.62-1.93-.23-3.72-.45-5.6,0-1.06.87-1.89.41-3a1.83,1.83,0,0,1-.25-1.41,3.07,3.07,0,0,0,0-2.45,3.68,3.68,0,0,0,.14-1.37,2,2,0,0,0-.44-1.49c0-.43,0-.87,0-1.28,0,0,0,0,0,0a4.11,4.11,0,0,0-.06-2.5h0c-.07-.29-.07-.74-.26-.93a6,6,0,0,0-.54-1.35c.35-.93-.79-.91-1.29-1.29-.58-.87-1.94-1.54-2.75-.59a.42.42,0,0,1-.22,0h0a1,1,0,0,0-.26-.12c.12-1-1-1-1.59-.56-.41-.06-.78-.45-1.24-.48h0a2.92,2.92,0,0,0-2.4,1c-.62.17-1.21,0-1.83.12-1.39-.88-2,1-3.33,1.3h0a.54.54,0,0,0,.12.9.62.62,0,0,0-.18.35.59.59,0,0,0-.08,1,1.57,1.57,0,0,0,0,.37,4.37,4.37,0,0,0-.52,3.74c.22,1-.33,2-.36,3h0a5.55,5.55,0,0,0,0,1.47c.31,1.47,1,2.74.18,4.19a3,3,0,0,0,.94,2.62c-1.42,5.7.22,5.57.3,10.49-.78,2.42.8,4.83-.09,7.19-.71,1.72.57,1.64-.63,4-.1.4.15.87.14,1.23a3.75,3.75,0,0,0,0,1.91c.17.77,1.13,1.3.52,2.18h0v0a3.18,3.18,0,0,0-.18,2.71s0,0,0,0A2.37,2.37,0,0,0,134,54.1a4.35,4.35,0,0,0,.25.63.76.76,0,0,0-.2.36,3.51,3.51,0,0,0,.35,1.14c.7.92,1.94-.32,2.7.38.79,1,2,0,2.87.2a.42.42,0,0,0,.55-.15c.38.11.86,0,1.09.41h0c.25.36.72.16,1,.36h.05a7.79,7.79,0,0,0,1.93,0c.27,0,1.84-.88,1.17-.77.48-.1,1.1,0,1.53-.09,0,0,0,0,0,0,.64.11.77-.55,1-.95.8.77,1.58-.6,1-1.3a1.91,1.91,0,0,0,.05-.53,3.74,3.74,0,0,0,.5-3.75C149.83,48.74,150.59,47.4,150.33,46ZM149,55.18Zm0,0Z"/></clipPath><clipPath id="clip-path-2"><path class="cls-1" d="M42.59,19.34a18.12,18.12,0,0,1-.7-2.24c.7-2.46-1.14-3.82-1.46-6.06v0c-1-2.92-2.37-.08-4.1-5.46a2.72,2.72,0,0,0-1.76-.88c-.85-.57-1.24-1.58-2-2.23-2-1.91-4.89-1-7.2-1.78-2.58-1.73-5.44.62-8.06-.44-.95-.48-1.76.38-2.63.62-.86.05-1.86.05-2.38.88-.77.39-2.22.39-2.64,1.46-.27,1.93-4.1.15-4,4.22-.69.64-1.9.84-2.18,1.9a3,3,0,0,1-.16,1.49c-1.71,2.19-.85,3-.73,5.29a2.76,2.76,0,0,0-.28,3.74,14.71,14.71,0,0,0-.83,6.42c.66,2.3-1.36,4.55-.18,6.92.25,1.12-1,1.94-.66,3,.59.84-.25,1.57-.32,2.41,0,.39.33.77,0,1.12a2.84,2.84,0,0,0,.46,2.5c.14.49-.35.91-.53,1.32-.47,1.07.19,2.22.44,3.24a2.11,2.11,0,0,0-.17.7c-1.09,1-.33,2.44,1,2.63h0c.26,0,.33.32.56.38h0c.46.23.34.8.58,1.18a2.77,2.77,0,0,0,3.58,1.22,5.3,5.3,0,0,0,1,.27A2.9,2.9,0,0,0,11.54,53s.05,0,.06,0c1,.28,2.33.28,2.83-.86a2.83,2.83,0,0,0,.16-.36,1.51,1.51,0,0,0,.61-1.3,1,1,0,0,0,.14-.8c.94-.24.59-1.6-.25-1.77a1.35,1.35,0,0,1,0-.29c.63-.76,1.12-.51.39-1.62-.88-1.32,1.34-1.65-.2-3.29,0-.53,0-1.09,0-1.66,1.31-1.3,1.6-4.29.11-5.53,0-.18,0-.34,0-.5a.83.83,0,0,0,.42-.27,4.72,4.72,0,0,1,.82,1.15c-.15,1.08.39,2.45,1.63,2.54l.29.51c-1,1.27.78,1.26.71,2-.64,2.2,2.24,2.48,2.75,4.2-.08.12-.14.23-.21.35h0s0,0,0,0a1.71,1.71,0,0,0,.76,2.29,2,2,0,0,1,.69.48c.51.5.29,1.84,1.34,1.64.08.14.13.23.21.35-.52.43-.25,1.35.49,1.15a.82.82,0,0,0,.06.26c-.28,1.75.52,2.14,2.14,2,.35.43.25,1,.68,1.48.55.05,1.17-.36,1.67.12a3.11,3.11,0,0,1,.67-.44,2.47,2.47,0,0,0,1.94-.64,3,3,0,0,1,1.51,0c1.18.05,2-1.18,3.09-1.51a4,4,0,0,0,2-3.34c-.13-.5-.7-.79-.66-1.35a.86.86,0,0,0-.17-1.58,1.33,1.33,0,0,0-.14-.19,2.79,2.79,0,0,0-1.16-2.52,5,5,0,0,0-1-2.88c-3.17-1.9-.31-2.84-3.11-3.94a3.14,3.14,0,0,1-.35-2.12c.12-.51.85-.45,1.06-.94.91-2.61,1.92-2.23,4-3.26.82-.55.8-1.68,1.47-2.31s1.89-.67,1.66-1.75c-.12-.81,1-.81,1.19-1.47.14-.25,0-.62.13-.85a1.73,1.73,0,0,0,0-2.17.86.86,0,0,1,.18-.92A2.08,2.08,0,0,0,42.59,19.34Zm-16.2,1.38c-.86.25-.56,1.33-1.44,1.45a1.68,1.68,0,0,0-1.47.46c-.19.21-.32.07-.56.1a2.87,2.87,0,0,0-1.83,1.12c-1.45-.09-2.53-2-4.21-.27a4.57,4.57,0,0,0-1.11,0c.06-1.3.79-2.51.31-3.84.52-1,1.29-2.45.81-3.59a.78.78,0,0,1,.1-.39c.29-2,1.91-.7,2.43-2.54,2.09-.92,1-.77,3.13-.25.93,0,1.72.66,2.66.64.26.23.55.51.84.75s.25.74.61,1c.19,1-.22,2,.25,3A1.44,1.44,0,0,1,26.39,20.72Z"/></clipPath><clipPath id="clip-path-3"><path class="cls-1" d="M127.69,7.91a1.8,1.8,0,0,0-.08-.21,2.22,2.22,0,0,0-.33-.61.46.46,0,0,0-.07-.07V6.93c0-.08,0-.14,0-.21l0-.09,0-.08s0-.08,0-.11a.92.92,0,0,0,0-.45c0-.12,0-.23-.08-.35l0-.14,0-.08A1,1,0,0,0,126.8,5l-.19-.09-.18,0a2,2,0,0,0-.55,0c-.12,0-.24,0-.37,0l-.08,0h0a6.45,6.45,0,0,0-1.07-.27l-.16-.14L124,4.2c-.11-.14-.21-.31-.32-.47a1,1,0,0,0-.42-.34.78.78,0,0,0-.26,0,.79.79,0,0,0-.22.06,1.66,1.66,0,0,0-.39.26.65.65,0,0,1-.45.17,1.8,1.8,0,0,1-.8-.41,1.38,1.38,0,0,0-.42-.21h0a1.17,1.17,0,0,0-.76,0,.61.61,0,0,0-.21.11c-.09.07-.17.19-.28.23a.16.16,0,0,1-.1,0c-.13,0-.17-.15-.25-.2a.16.16,0,0,0-.14,0h0c-.15,0-.28.17-.44.2a1.91,1.91,0,0,1-.53.05.76.76,0,0,0-.5.14,1.21,1.21,0,0,0-.31.35l-.07.11a.5.5,0,0,1-.72.17l-.24-.11-.3-.13a2.07,2.07,0,0,0-.33-.1A2.14,2.14,0,0,0,115,4a2,2,0,0,0-.35,0h-.09l-.15,0h0a1.54,1.54,0,0,0-.57.43,4.25,4.25,0,0,0-.37.53.25.25,0,0,0,0,.07,1.58,1.58,0,0,0-.18.5,1.23,1.23,0,0,0,0,.2,1,1,0,0,0,0,.34v0s0,.07,0,.11a.29.29,0,0,0,0,.09l-.12.07-.12.1a2.53,2.53,0,0,0-.31.33.5.5,0,0,0-.08.12,2.26,2.26,0,0,0-.15.7,5,5,0,0,0,0,.55c0,.06,0,.11,0,.16a2.68,2.68,0,0,0,0,.3,2,2,0,0,0,.2.53l0,.09a.61.61,0,0,1,.08.32,2.29,2.29,0,0,1-.1.55l0,.14c-.09.53-.21,1-.28,1.47,0,.11,0,.22,0,.32a.06.06,0,0,0,0,0v.06a.41.41,0,0,1,0,.11v.22h0a2.54,2.54,0,0,0,0,.29,1.17,1.17,0,0,0,0,.27,2.43,2.43,0,0,0,.17.52.3.3,0,0,0,0,.08,3.74,3.74,0,0,1,.22.51.86.86,0,0,1,0,.55c0,.1-.07.2-.11.29s0,.09-.07.14l-.06.14a1.93,1.93,0,0,0-.26.88,2.07,2.07,0,0,0,.1.56q.06.18.12.33c0,.09.07.18.11.25a1.61,1.61,0,0,1,.25.44s0,0,0,0a.37.37,0,0,1,0,.11h0a1.75,1.75,0,0,1-.12.32l-.12.28c-.13.27-.25.52-.36.78l-.12.34a4.16,4.16,0,0,0-.18.81,7.9,7.9,0,0,0,0,1.19,8.93,8.93,0,0,0,.11,1.16c0,.29.11.56.16.84l0,.16c0,.3,0,.59-.08.88,0,.08-.07.17-.12.25a8.81,8.81,0,0,0-.65,1.51l-.09.37a2.87,2.87,0,0,0-.05.31,3.82,3.82,0,0,0,0,.83,2.7,2.7,0,0,0,.06.41,4,4,0,0,1,.08.7,1.39,1.39,0,0,1,0,.35s0,.08,0,.11a2.69,2.69,0,0,1-.53.88l-.05.06a1.11,1.11,0,0,0-.34,1l0,.24a1.4,1.4,0,0,1,0,.41.76.76,0,0,1-.17.39c-.1.14-.21.25-.3.38a1.23,1.23,0,0,0-.17.32.79.79,0,0,0-.06.22,1.35,1.35,0,0,0,0,.53c0,.24,0,.24-.14.4l0,.09a6.58,6.58,0,0,0-.24.92.4.4,0,0,0,0,.15,1.92,1.92,0,0,0,.05.41,1.12,1.12,0,0,1,0,.21.93.93,0,0,1,0,.23.31.31,0,0,1-.07.14.57.57,0,0,1-.11.11,1,1,0,0,1-.3.09h-.32l-.23,0-.16,0-.16,0-.49.15-.07,0h-.08a4.15,4.15,0,0,1-.69.09h-.14a2,2,0,0,1-.23-.28l-.06-.09c-.07-.1-.11,0-.18-.15s-.08-.24-.1-.27a1.63,1.63,0,0,0-.11-.17c-.07-.41-.11-.81-.21-1.21a2,2,0,0,0-.09-.33c0-.12-.09-.24-.14-.36h0a3.25,3.25,0,0,0-.55-.88s0,0-.06-.07a1.25,1.25,0,0,1-.55-.89c0-.21,0-.41,0-.62a2,2,0,0,0-.15-.93,1.67,1.67,0,0,0-.33-.45l-.24-.23a1.37,1.37,0,0,0-.21-.15,2.1,2.1,0,0,1-.41-.24v0a.77.77,0,0,1-.1-.45c0-.1,0-.21,0-.31,0-.29,0-.58-.08-.86,0-.12,0-.24,0-.36a3.93,3.93,0,0,0-.23-.79,5,5,0,0,0-.23-.53c-.08-.17-.17-.34-.26-.51a9.28,9.28,0,0,0-.58-.95l-.47-.66-.14-.19a1.38,1.38,0,0,1-.17-.31,1.89,1.89,0,0,1-.08-.73,7.58,7.58,0,0,0-.09-1.65c0-.13,0-.25-.07-.37l-.09-.31a3,3,0,0,0-.35-.72,4,4,0,0,0-.23-.34,2.69,2.69,0,0,1-.38-.55,1.2,1.2,0,0,1-.13-.33.74.74,0,0,0,0-.12,3.3,3.3,0,0,1,0-1s0-.05,0-.07a1.2,1.2,0,0,0-.19-1l-.14-.18a1,1,0,0,1-.22-.77c0-.18,0-.33.07-.49a1.45,1.45,0,0,0,0-.36.75.75,0,0,0,0-.2,2.54,2.54,0,0,0-.21-.43c-.11-.2-.07-.22,0-.42,0,0,0-.07,0-.1a2.29,2.29,0,0,0,0-.25,2.51,2.51,0,0,0,0-.27c0-.08,0-.17-.07-.26s0-.17,0-.25a.43.43,0,0,0-.06-.17,1,1,0,0,0-.27-.35,1.59,1.59,0,0,1-.29-.33.63.63,0,0,1-.09-.33c0-.12,0-.24,0-.37l0-.18s0-.06,0-.09,0-.05,0-.08a.43.43,0,0,0,0-.05,1.55,1.55,0,0,0,0-.3,1.47,1.47,0,0,0-.1-.44,2.3,2.3,0,0,0-.46-.79A1.5,1.5,0,0,0,96.87,9l-.15-.08-.15-.05-.13,0h0c0-.07,0-.15-.08-.23s0-.09,0-.14l0-.09a.51.51,0,0,0,0-.13.83.83,0,0,0-.07-.46,2.38,2.38,0,0,0-.18-.3l-.09-.1-.06-.07A1.09,1.09,0,0,0,95.58,7a1,1,0,0,0-.34,0,1.84,1.84,0,0,0-.53.09l-.21.07-.2.11c-.13.06-.25.15-.38.22a.31.31,0,0,1-.1,0h0a.76.76,0,0,0-.26,0h-.47l-.36,0a.1.1,0,0,0,0,0,1.54,1.54,0,0,1-.19-.17l-.09-.09-.1-.07a.58.58,0,0,0-.21-.07.41.41,0,0,0-.22,0,.64.64,0,0,0-.18.1,2,2,0,0,0-.33.32.56.56,0,0,1-.4.22.78.78,0,0,1-.4-.11c-.13-.06-.27-.15-.41-.23a1.33,1.33,0,0,0-.43-.17h0l-.19,0-.2,0a1.06,1.06,0,0,0-.39.13.73.73,0,0,0-.18.17,1.11,1.11,0,0,0-.12.16.77.77,0,0,1-.12.13.16.16,0,0,1-.09,0c-.13,0-.18-.12-.26-.16a.12.12,0,0,0-.13,0l0,0c-.12.06-.21.22-.35.28a1.94,1.94,0,0,1-.49.11.66.66,0,0,0-.44.18,1.53,1.53,0,0,0-.26.4l-.06.11,0,0-.18.08h0L86,9l-.08.06a.83.83,0,0,1-.18,0L85.46,9l-.3-.11-.33-.08a1.35,1.35,0,0,0-.45,0l-.2,0a1,1,0,0,0-.2.08L83.79,9h0l-.11.08-.1.11-.1.1-.1.12a1.25,1.25,0,0,0-.09.12l-.09.12L83,9.9A.25.25,0,0,0,83,10a1.51,1.51,0,0,0-.12.26,1.64,1.64,0,0,0-.07.28v.23a1.16,1.16,0,0,0,0,.18.75.75,0,0,0,0,.16s0,0,0,.05,0,.27,0,.41,0,.21,0,.32,0,.07,0,.11a1.42,1.42,0,0,0,0,.2,6.75,6.75,0,0,0,0,.9q0,.35.06.69l0,.2a3.61,3.61,0,0,0,.08.38,2.45,2.45,0,0,0,.3.66l.07.1a.8.8,0,0,1,.16.38,4.05,4.05,0,0,1,0,.71c0,.06,0,.12,0,.18a12.71,12.71,0,0,0,.3,2l.13.43c.05.15.11.31.17.46h0a7.44,7.44,0,0,0,.59,1.16s0,.07.06.1a5.13,5.13,0,0,1,.38.57,1.41,1.41,0,0,1,.16.69c0,.26,0,.52,0,.78s0,.4,0,.6a2.33,2.33,0,0,0,.14.61,2.9,2.9,0,0,0,.36.63,3.17,3.17,0,0,0,.28.34,2.4,2.4,0,0,0,.24.22,4.41,4.41,0,0,1,.43.35c.05.12.1.25.14.38L87,26c0,.13,0,.26,0,.39,0,.37.08.74.14,1.1a3.89,3.89,0,0,0,.09.47c0,.17.09.34.14.51s.13.34.2.5.2.45.32.67l.08.17s0,.11.08.16.11.22.17.33l.34.63.36.62c.18.31.36.6.55.88l.17.27a2.14,2.14,0,0,1,.2.4,2.07,2.07,0,0,1,.1.43.85.85,0,0,1,0,.23c0,.09,0,.17,0,.25s0,.35,0,.53l0,.26a2.56,2.56,0,0,0,.05.27c0,.17.07.34.11.52a5.08,5.08,0,0,0,.15.52c0,.16.11.31.17.46s.11.25.17.37a5,5,0,0,0,.56.87,3.22,3.22,0,0,0,.35.38,7,7,0,0,1,.57.64,2.46,2.46,0,0,1,.22.39l.06.14a5.07,5.07,0,0,1,.3,1.31.38.38,0,0,0,0,.1,2,2,0,0,0,.14.66,1.08,1.08,0,0,0,.16.3,1.16,1.16,0,0,0,.24.26l.21.19a2,2,0,0,1,.33.38,1.29,1.29,0,0,1,.21.52c0,.21.08.43.1.6a1.55,1.55,0,0,0,0,.21l.06.21a1.87,1.87,0,0,0,.12.25,1.78,1.78,0,0,0,.17.27,2.62,2.62,0,0,0,.22.25c.2.22.16.26.21.53l0,.14a2.7,2.7,0,0,0,.3.62l.37.59a.79.79,0,0,0,.14.17c.27.29.6.29.9.56a.81.81,0,0,1,.25.35,2.83,2.83,0,0,1,.13.44c0,.15.07.29.11.43s0,0,0,.06a2,2,0,0,0,.16.37,4.13,4.13,0,0,0,.31.46l.08.1.08.09.18.17c.13.11.24.22.38.32l.25.15a2.52,2.52,0,0,0,.49.25,3.06,3.06,0,0,0,.49.15l.23,0,.17,0h.2l.07.09h0v.13a1.42,1.42,0,0,0,.2.58,2.55,2.55,0,0,0,.24.39l.09.1.17.17a1,1,0,0,0,.18.13l.21.1.08,0a.41.41,0,0,1,.21.15,2.44,2.44,0,0,1,.2.43l.06.12a4.45,4.45,0,0,0,.38.58,1.71,1.71,0,0,0,.22.25,1.37,1.37,0,0,0,.25.23l.25.16a2.71,2.71,0,0,0,.3.13h0a3,3,0,0,0,.41.09,2,2,0,0,0,.42,0h.07a2.22,2.22,0,0,1,.43,0,.5.5,0,0,1,.4.17c.13.12.24.25.37.39a1.81,1.81,0,0,0,.3.25,1,1,0,0,0,.17.1l.19,0a1.07,1.07,0,0,0,.46-.05l.26-.1a.91.91,0,0,0,.19-.13c.11-.08.22-.23.33-.27h0c.12,0,.23.06.34.12l.22.11a5.17,5.17,0,0,0,.64.28,1.61,1.61,0,0,0,.29.09,2,2,0,0,0,.65,0,2.46,2.46,0,0,0,.46-.08,3.22,3.22,0,0,0,.44-.14l.42-.18.19-.11.2-.12c.09-.07.19-.13.27-.2l.26-.2.16-.13a.84.84,0,0,1,.24-.14,1.12,1.12,0,0,1,.55,0,4.91,4.91,0,0,0,.66.06,3.43,3.43,0,0,0,.64,0l.29,0,.24-.08a1.69,1.69,0,0,0,.56-.38,1.44,1.44,0,0,0,.22-.27,4.45,4.45,0,0,1,.32-.48.86.86,0,0,1,.13-.14l.16-.11a1.24,1.24,0,0,0,.18-.14l.14-.09a2.08,2.08,0,0,1,.4-.15h.06a.91.91,0,0,0,.38-.19.68.68,0,0,0,.22-.39c0-.07,0-.14,0-.2a.67.67,0,0,1,.4-.53l.37-.15a.78.78,0,0,0,.24-.16.81.81,0,0,0,.12-.14,1.08,1.08,0,0,0,.16-.42c0-.21.09-.19.24-.28l.07,0a3.22,3.22,0,0,0,.46-.73,1.21,1.21,0,0,0,0-.14c.07-.26-.06-.52,0-.81a.35.35,0,0,1,.14-.23,1,1,0,0,1,.25-.15l.26-.11,0,0a1,1,0,0,0,.2-.15,1.47,1.47,0,0,0,.23-.26,2.72,2.72,0,0,0,.27-.57l.06-.19a2.53,2.53,0,0,0,.07-.38,1.7,1.7,0,0,0,0-.39,1.09,1.09,0,0,0,0-.18,1.36,1.36,0,0,0,0-.2,5.2,5.2,0,0,0,.28-.63h0l.11,0,.1,0a1.74,1.74,0,0,0,.25-.11l.13-.09.14-.14.12-.16a2.68,2.68,0,0,0,.18-.33,1.69,1.69,0,0,0,.13-.27c0-.09.07-.18.11-.28a1.09,1.09,0,0,1,0-.17c0-.11,0-.21.07-.32a1.63,1.63,0,0,0,0-.31,1.83,1.83,0,0,0,0-.33s0-.07,0-.11a.76.76,0,0,1,0-.37,2.93,2.93,0,0,1,.33-.51l.08-.13c.15-.25.3-.5.43-.75a5.4,5.4,0,0,0,.36-.77c0-.12.08-.25.11-.37a2.26,2.26,0,0,0,.08-.44h0a5.17,5.17,0,0,0,0-1.18s0-.07,0-.11a3.34,3.34,0,0,1-.06-.62.94.94,0,0,1,.17-.58c.13-.18.28-.35.43-.53a2.2,2.2,0,0,0,.28-.44,2.56,2.56,0,0,0,.11-.24,2.33,2.33,0,0,0,0-.28,2.09,2.09,0,0,0,0-.65l-.09-.38c0-.11-.07-.21-.11-.3a2.08,2.08,0,0,1-.25-.52c0-.1,0-.21.07-.31l.11-.2c.06-.1.12-.2.17-.3q.24-.42.45-.84c.06-.12.12-.24.17-.37a4.16,4.16,0,0,0,.24-.89,8.51,8.51,0,0,0,.1-1.33,11.2,11.2,0,0,0-.08-1.3l-.09-.62.18-1.54,0-.23c.15-.26.3-.51.43-.78a6.49,6.49,0,0,0,.33-.87,1.66,1.66,0,0,0,.06-.21,1.6,1.6,0,0,0,0-.21c0-.12,0-.24,0-.36s0-.3,0-.46,0-.16,0-.24a.91.91,0,0,0,0-.23,3.56,3.56,0,0,0-.1-.47,3.92,3.92,0,0,1-.18-.77,1.7,1.7,0,0,1,0-.39.68.68,0,0,1,0-.14,3.83,3.83,0,0,1,.44-1.08s0,0,0-.08a1.25,1.25,0,0,0,.2-1.14l-.09-.26a1.1,1.1,0,0,1,0-.92c.1-.17.19-.32.27-.47a1.79,1.79,0,0,0,.13-.39,1,1,0,0,0,0-.24,1.66,1.66,0,0,0-.1-.59c-.07-.27,0-.28.08-.49a.76.76,0,0,0,0-.11,2.27,2.27,0,0,0,.06-.59c0-.22,0-.43,0-.61a1,1,0,0,0,0-.19,1.5,1.5,0,0,0-.22-.46,1.31,1.31,0,0,1-.25-.45.7.7,0,0,1,0-.38,1.34,1.34,0,0,1,.16-.37c.06-.12.13-.24.18-.35l0-.05c0-.11.08-.2.11-.31a1.18,1.18,0,0,0,0-.2c0-.07,0-.14,0-.22a1.23,1.23,0,0,0,0-.19,1.5,1.5,0,0,1,0-.2V9.16c0-.09,0-.18,0-.26A3.79,3.79,0,0,0,127.69,7.91ZM113.55,12.2a.37.37,0,0,1,0,.15v0c0-.08,0-.16,0-.24A.27.27,0,0,1,113.55,12.2ZM97.26,14.11s0,0,0,.06l0,0a.44.44,0,0,1,0-.25Z"/></clipPath><clipPath id="clip-path-4"><path class="cls-1" d="M251.14,31.89c0-.2-.1-.38-.15-.56l-.09-.27c0-.08-.06-.17-.1-.26l0-.1-.09-.19c0-.21,0-.41,0-.62a4,4,0,0,0-.12-.71c0-.11.05-.22.08-.33l.06-.25a2,2,0,0,0,.06-.23,2.38,2.38,0,0,0,0-.49,2.75,2.75,0,0,0-.13-.62,1.49,1.49,0,0,0-.14-.37,1.63,1.63,0,0,0-.15-.27,1.24,1.24,0,0,0-.19-.21l-.14-.18-.06-.41,0-.17,0-.34c0-.33.05-.65.06-1a2.94,2.94,0,0,0,0-.42,1.62,1.62,0,0,0,0-.22,1.85,1.85,0,0,0,0-.23c0-.15,0-.3-.07-.45-.09-.43-.19-.86-.31-1.27-.06-.21-.12-.41-.19-.62s-.14-.4-.22-.59l-.18-.44-.19-.42-.12-.25a1.45,1.45,0,0,1-.12-.37h0a1.67,1.67,0,0,1,0-.39c0-.13,0-.27,0-.42s0-.3.06-.46a3.65,3.65,0,0,0,0-.47,4.39,4.39,0,0,0-.16-.95,2.83,2.83,0,0,0-.14-.41,3.45,3.45,0,0,0-.14-.34,3.93,3.93,0,0,0-.52-.76,3.34,3.34,0,0,0-.32-.33,4.75,4.75,0,0,1-.4-.38c-.05-.09-.09-.19-.13-.28l-.27-.54-.12-.23,0-.14,0-.14a.76.76,0,0,0,0-.15v-.29s0,0,0-.08a1.85,1.85,0,0,0,0-.58,1.25,1.25,0,0,0-.26-.53l-.16-.2a1.19,1.19,0,0,1-.31-.88,5.33,5.33,0,0,0,0-.56,1.68,1.68,0,0,0-.07-.44,1.3,1.3,0,0,0-.1-.25,1.78,1.78,0,0,0-.39-.47c-.19-.19-.15-.23-.19-.48l0-.11a5.55,5.55,0,0,0-.62-1,1,1,0,0,0-.12-.15c-.24-.24-.55-.23-.83-.47A.79.79,0,0,1,243.3,6h0a1.35,1.35,0,0,1-.11-.57V5a.43.43,0,0,1,0,0,.25.25,0,0,0,0-.08s0-.06,0-.09,0-.12,0-.18a1.86,1.86,0,0,0-.1-.25,1.27,1.27,0,0,0-.12-.23,3.19,3.19,0,0,0-.56-.7l-.2-.16a3.2,3.2,0,0,0-.82-.51l-.2-.07-.11,0,0,0a3.52,3.52,0,0,0-.56-.64,2.16,2.16,0,0,0-.31-.24l-.17-.1a.56.56,0,0,0-.05-.23.75.75,0,0,0-.29-.32l-.14-.06-.14,0a1.15,1.15,0,0,0-.38,0,1.69,1.69,0,0,0-.27.1,1.25,1.25,0,0,1-.61.15h-.14l-.57,0a3.77,3.77,0,0,0-.48,0h-.18l-.09,0h-.09l-.09,0-.1,0-.1,0-.11.05-.1.05a1.06,1.06,0,0,0-.21.16l0,0,0,0a.27.27,0,0,0-.07.08l-.09.13a1.15,1.15,0,0,0-.12.25,1.07,1.07,0,0,0-.07.27h0a5.38,5.38,0,0,0-.48.59.83.83,0,0,0-.16-.09.81.81,0,0,0-.68.09l-.2.14a1.38,1.38,0,0,0-.32.61.93.93,0,0,1-.1.2l0,0-.06,0a1.19,1.19,0,0,1-.5,0l-.32,0a3,3,0,0,0-.58.11,1.5,1.5,0,0,0-.54.34,2.85,2.85,0,0,0-.23.26l-.08.12a1,1,0,0,0-.12.16l-.1.16a1.11,1.11,0,0,0-.09.19,1.05,1.05,0,0,0-.05.19,1.5,1.5,0,0,0,0,.24,4.29,4.29,0,0,0,0,.5,1.93,1.93,0,0,1,0,.24.49.49,0,0,0,0,.12s0,.08,0,.13,0,.11,0,.2a4.26,4.26,0,0,0-.54,1.2l-.09.1-.1.11a1.72,1.72,0,0,0-.28.47,4.72,4.72,0,0,0-.18.53l0,.35a1.33,1.33,0,0,0,.05.53,1.6,1.6,0,0,0,.1.23l.06.11.07.13.12.17.13.15a.1.1,0,0,0,0,.05l.16.18.14.18a2.18,2.18,0,0,1,.31.73v0c0,.08,0,.15.05.24a1.71,1.71,0,0,0,.09.27,2.13,2.13,0,0,0,.16.25l.1.1.12.07a.42.42,0,0,0,.15,0h.19l0,0a3.92,3.92,0,0,0,.37.46c.1.1.23.21.36.32v.28c0,.05,0,.11,0,.16a2.92,2.92,0,0,0,.28.72c.08.17.17.34.26.51l.09.15.17.26a2.13,2.13,0,0,0,.42.43l.08.07a.65.65,0,0,1,.21.28,2.8,2.8,0,0,1,.1.59l0,.16c.06.28.09.57.15.84s.05.27.08.4.07.26.1.4l.12.36a2.64,2.64,0,0,0,.18.38h0a5.46,5.46,0,0,0,.27.48,4.73,4.73,0,0,0,.32.46l.06.07a3.73,3.73,0,0,1,.33.48,1,1,0,0,1,.12.59c0,.22-.09.44-.13.65a4.17,4.17,0,0,0-.08.49,1.77,1.77,0,0,0,0,.51,3.36,3.36,0,0,0,.21.57l.18.32.17.24a1.61,1.61,0,0,1,.34.4.06.06,0,0,1,0,0,.94.94,0,0,1,0,.5c0,.11-.05.22-.07.33-.07.3-.14.61-.2.91,0,.14,0,.27-.05.41s0,.29,0,.44a1.85,1.85,0,0,0,0,.23,1,1,0,0,0,0,.24,6.37,6.37,0,0,0,.31,1.27c.13.39.29.77.44,1.15.06.14.12.28.17.42l.09.21a1.8,1.8,0,0,1,.08.21l.09.26a1.94,1.94,0,0,1,0,.2,1.36,1.36,0,0,1,0,.2,1.28,1.28,0,0,1-.07.42,1.1,1.1,0,0,1-.26.4,2,2,0,0,1-.37.25,1.22,1.22,0,0,0-.19.12.27.27,0,0,0-.08.07l-.05,0,0,.05c-.1.11-.19.24-.27.34l-.12.13-.06,0-.09.06a3.65,3.65,0,0,0-.3.27l-.12.13,0,0h0s0,0,0,0,0,0,0,0a1.46,1.46,0,0,1-.22.2,2.16,2.16,0,0,1-.3.18,3.92,3.92,0,0,1-.36.16l-.21.07-.16,0-.25-.07s-.14.08-.18.07-.07-.14-.14-.16l-.78-.28-.27-.33a.43.43,0,0,1,0-.07,1.24,1.24,0,0,0-.86-.62l-.22,0a1.11,1.11,0,0,1-.37-.15.79.79,0,0,1-.26-.35c0-.17-.08-.32-.11-.46l0-.16c0-.05,0-.1,0-.15a1,1,0,0,0-.07-.15.41.41,0,0,0,0-.09.56.56,0,0,0-.05-.08c0-.05-.08-.09-.12-.16A.3.3,0,0,1,230,32a.11.11,0,0,1,0-.08.87.87,0,0,1,.06-.21l0-.1a2.13,2.13,0,0,0,0-.27c0-.05,0-.1,0-.15a.92.92,0,0,0,0-.16c0-.05,0-.11,0-.16l0-.17s0-.05,0-.08,0-.06,0-.08l0-.13a.6.6,0,0,0-.06-.19,3.62,3.62,0,0,0-.48-.63c0-.23-.06-.47-.1-.7a.75.75,0,0,1,0-.16c0-.13.08-.25.11-.36s0,0,0-.05a1.86,1.86,0,0,0,0-.34.88.88,0,0,0,0-.23,1.77,1.77,0,0,0,0-.23,2.63,2.63,0,0,0-.06-.39c0-.07,0-.14,0-.2a.3.3,0,0,1,0-.1s0,0,0,0a.08.08,0,0,0,0,0v0s0,0,0,0v0a.11.11,0,0,1,0-.05c0-.08,0-.16-.05-.25s0-.13,0-.19,0-.13,0-.19a.5.5,0,0,1-.05-.13.39.39,0,0,0-.08-.1.48.48,0,0,0-.17-.12l0-.15.15-.21a.78.78,0,0,0,.1-.36,1.32,1.32,0,0,0,0-.3.74.74,0,0,0,0-.14,1.09,1.09,0,0,0-.08-.15,1.14,1.14,0,0,0-.3-.32l-.15-.07a2.67,2.67,0,0,0-.34-.11c-.13,0-.26-.06-.39-.11a1.9,1.9,0,0,1-.4-.14,1.18,1.18,0,0,1-.19-.11,2.51,2.51,0,0,0-.23-.11h-.05l-.14,0h-.21a.2.2,0,0,0-.11,0l-.11,0-.37.11h-.22l0,0h-.05s0,0,0,0h-.42a2.21,2.21,0,0,0-.55.16,4.6,4.6,0,0,0-.87.47l-.16.1a1.6,1.6,0,0,0-.44.37l-.77.15-.26.07a.79.79,0,0,0-.13.13,1.34,1.34,0,0,0-.72-.39l-.18,0-.18,0a.89.89,0,0,0-.29,0,1.2,1.2,0,0,0-.27.08l-.12.06-.06,0,0,0-.2.14a2.49,2.49,0,0,1-.28.15l0,0-.11,0a2.3,2.3,0,0,1-.69-.1l-.41-.05-.36-.05-.37-.05a2.43,2.43,0,0,0-.44,0,1.86,1.86,0,0,0-.58.17,2.19,2.19,0,0,0-.3.16l-.13.11,0,0h0l0,0,0,0-.05.05-.31.28a2.53,2.53,0,0,0-.31.33l-.2.26-.11.19a1.63,1.63,0,0,0-.09.19.83.83,0,0,0,0,.38,1,1,0,0,0,.07.28.5.5,0,0,0,.05.13.61.61,0,0,1,.05.12,4.72,4.72,0,0,0,.31.53v0a2.92,2.92,0,0,0,0,.5,1.42,1.42,0,0,0,0,.2c0,.1,0,.2.05.3s0,.16,0,.25,0,.07,0,.11l0,.1,0,.12v0s0,0,0,0,0,0,0,0a.57.57,0,0,0,0,.18.62.62,0,0,0,0,.2c0,.21.1.43.13.64a1.46,1.46,0,0,1,0,.29.86.86,0,0,1-.06.23l0,.1a.3.3,0,0,1,0,.1l0,.1a.3.3,0,0,1,0,.1l0,.08a3.35,3.35,0,0,0-.17.62,4.11,4.11,0,0,0-.07.73c0,.09,0,.18,0,.26a2.51,2.51,0,0,0,0,.27.28.28,0,0,0,0,.09c0,.23.1.45.13.66a2.32,2.32,0,0,1,0,.53,3.7,3.7,0,0,1-.09.55l0,0-.17.65,0,.18a1.12,1.12,0,0,0,0,.2,1.05,1.05,0,0,0,0,.36.66.66,0,0,0,.06.2.82.82,0,0,0,.12.2.8.8,0,0,0,.23.16.28.28,0,0,1,.09.1,1.09,1.09,0,0,1,0,.26v0a1.23,1.23,0,0,1-.22.29.43.43,0,0,0-.22.09l0,0s0,0,0,0h-.08l-.14,0a1.17,1.17,0,0,0-.28.11l-.25.12-.2.09-.2.09-.11,0,0,0-.06,0-.1,0-.2.09a.91.91,0,0,1-.22.11l-.08,0-.15,0a.35.35,0,0,1-.14,0,.67.67,0,0,1-.19-.14,1.66,1.66,0,0,1-.16-.21l-.07-.09a3.68,3.68,0,0,1-.32-.57,4.75,4.75,0,0,0-.25-.56c0-.09-.09-.17-.13-.25l-.18-.26h0a5.83,5.83,0,0,0-.58-.66l-.06,0-.18-.16c-.1-.27-.19-.53-.26-.74a3.86,3.86,0,0,1,.1-.49,1.5,1.5,0,0,0,0-.84.3.3,0,0,0,0-.1.41.41,0,0,0-.05-.09c0-.06-.08-.12-.12-.2l-.09-.11-.08-.12-.16-.2-.05,0a5.73,5.73,0,0,0-.16-.69l0-.06.13-.24a5.79,5.79,0,0,0,.34-.71,2.07,2.07,0,0,0,.1-.33,1.29,1.29,0,0,0,0-.19.38.38,0,0,0,0-.1.28.28,0,0,0,0-.09,2.54,2.54,0,0,0,0-.39,3.4,3.4,0,0,0-.08-.53,4.7,4.7,0,0,0-.12-.51,7.93,7.93,0,0,0-.37-1c-.11-.24-.23-.45-.34-.67v0c0-.42-.05-.83-.07-1.23.07-.2.13-.41.19-.61a6.6,6.6,0,0,0,.13-.73c0-.11,0-.22,0-.34v-.27a3,3,0,0,0-.14-.71,2.09,2.09,0,0,0-.13-.35.61.61,0,0,1-.05-.12,2.48,2.48,0,0,1,0-.38,11.07,11.07,0,0,1,.23-1.28.21.21,0,0,1,0-.06l0-.05a1.16,1.16,0,0,0,.26-.39.78.78,0,0,0,0-.48c0-.07,0-.13-.06-.21l0-.17c0-.09,0-.19,0-.28a.34.34,0,0,0,0-.1,1.3,1.3,0,0,1,.1-.15c.1-.12.21-.22.29-.33a1.24,1.24,0,0,0,.17-.27.78.78,0,0,0,.05-.18.55.55,0,0,0,0-.22.13.13,0,0,0,0-.06v-.06a.68.68,0,0,1,0-.14.42.42,0,0,1,0-.23l.12-.18a.59.59,0,0,0,0-.08.66.66,0,0,0,.06-.2.63.63,0,0,0,0-.19s0,0,0-.05h0s0,0,0,0h0v0s0,0,0,0v0s0,0,0,0a.94.94,0,0,0,0-.09.24.24,0,0,0,0-.09s0-.06,0-.09a.41.41,0,0,0,0-.11s0-.07,0-.1a1.68,1.68,0,0,1,.05-.45.45.45,0,0,1,.17-.25,1.89,1.89,0,0,1,.28-.17A1.38,1.38,0,0,0,212,16l0,0a1.14,1.14,0,0,0,.2-.23.78.78,0,0,0,.11-.18,1.67,1.67,0,0,0,.08-.2,1.33,1.33,0,0,0,.05-.19c0-.06,0-.13,0-.19a2.54,2.54,0,0,0,0-.39,1.43,1.43,0,0,0,0-.22,1.84,1.84,0,0,0-.3-.79l-.1-.14v0s0-.07,0-.11a1.93,1.93,0,0,0,0-.24.78.78,0,0,0,.17-.21.61.61,0,0,0,.06-.35.53.53,0,0,0-.06-.24,1.2,1.2,0,0,0-.16-.27c-.05-.08-.11-.14-.15-.21a.68.68,0,0,1-.12-.54.5.5,0,0,1,0-.12,5.52,5.52,0,0,0,.07-.55,1.51,1.51,0,0,0-.05-.52.2.2,0,0,0,0-.08,1.36,1.36,0,0,0-.13-.3,1.49,1.49,0,0,0-.5-.53l-.13-.06L210.84,9a1,1,0,0,0-.25,0,1,1,0,0,0-.29.11L210,8.9a1.53,1.53,0,0,0,.07-.29,1.05,1.05,0,0,0,0-.36c0-.05,0-.09,0-.13a.15.15,0,0,0,0-.06s0,0,0-.06-.11-.12-.17-.17a.6.6,0,0,0-.15-.09.5.5,0,0,0-.17,0h-.55l-.07,0a.6.6,0,0,1-.15-.19,1.26,1.26,0,0,0-.13-.23,1.88,1.88,0,0,0-.18-.24c-.06-.07-.11-.14-.17-.2a.28.28,0,0,0-.1-.09s-.06-.06-.09-.09a.5.5,0,0,0-.19-.11.78.78,0,0,0-.23-.07h-.71l-.19,0a7.54,7.54,0,0,0-.83.06l-.16,0-.16,0c-.39-.16-.68-.48-1.07-.65l-.29-.09h0a3.75,3.75,0,0,1-.24-.36l-.19-.19a.86.86,0,0,0-.44-.21,1,1,0,0,0-.53.09l-.08,0-.08,0-.07,0s0,0,0,.05l0,0a.9.9,0,0,1-.32.17,1.36,1.36,0,0,1-.64,0h0a1.29,1.29,0,0,0-.44,0,.6.6,0,0,0-.38.26.24.24,0,0,0-.05.14.59.59,0,0,0,0,.19.93.93,0,0,0,.1.25l-.08.08-.08.14h-.23l-.1,0-.07,0a.52.52,0,0,0-.1.11.36.36,0,0,0-.08.12l0,.09s0,.07,0,.1a.55.55,0,0,0,0,.22l.08.14-.19.36a.76.76,0,0,0-.3,0,.68.68,0,0,0-.34.21l-.06.07,0,.07a1.25,1.25,0,0,0-.08.12,2.15,2.15,0,0,0-.14.26,1.22,1.22,0,0,0-.07.17,1,1,0,0,0,0,.16.94.94,0,0,0,0,.16c0,.1,0,.21,0,.31a2.91,2.91,0,0,0,0,.31.36.36,0,0,0,0,.11.62.62,0,0,1-.05.36,1.28,1.28,0,0,1-.15.25l-.2.23-.09.12c-.17.23-.34.45-.51.65l-.13.18a1.76,1.76,0,0,0-.12.2,2.68,2.68,0,0,0-.19.42,2.75,2.75,0,0,0-.11.41l0,.23a1.85,1.85,0,0,0,0,.23h0a3.9,3.9,0,0,0,.16,1.15l0,.1a3.1,3.1,0,0,1,.15.58,1,1,0,0,1-.11.59,5.22,5.22,0,0,1-.38.54,2.73,2.73,0,0,0-.26.43,1.43,1.43,0,0,0-.15.52,1.71,1.71,0,0,0,0,.32c0,.12,0,.24.06.35a3.82,3.82,0,0,0,.13.36,1.69,1.69,0,0,0,.13.27,1.56,1.56,0,0,1,.27.47v0a.59.59,0,0,1,0,.26c0,.08-.09.15-.13.22s-.12.2-.18.29-.17.26-.25.4l-.21.43c-.05.13-.09.26-.13.4l0,.11,0,.12,0,.24s0,.08,0,.12a.49.49,0,0,0,0,.12c0,.07,0,.15,0,.23s0,.42,0,.64l0,.31c0,.11,0,.22,0,.33s.07.42.1.62.05.21.07.31,0,.2.08.3c.08.3.17.59.27.88l.07.25,0,.1c0,.24,0,.49,0,.73s-.06.22-.1.34a8.63,8.63,0,0,0-.28.86c0,.15-.06.29-.09.45s0,.15,0,.22a2,2,0,0,0,0,.23c0,.15,0,.28,0,.43s0,.23,0,.35a3.5,3.5,0,0,0,.07.45c0,.14.08.29.12.43a4.08,4.08,0,0,0,.18.42,4.3,4.3,0,0,1,.29.7,2.2,2.2,0,0,1,.07.37.66.66,0,0,1,0,.14v.15a.66.66,0,0,1,0,.14c0,.1,0,.19,0,.28a2.85,2.85,0,0,1,0,.29v.29a.22.22,0,0,0,0,.08.59.59,0,0,1,0,.14.57.57,0,0,1,0,.13s0,.08,0,.11v.2a.15.15,0,0,1,0,.07s0,.05,0,.07a1.31,1.31,0,0,0,.11.29l.12.23a2.19,2.19,0,0,1,.15.43,1.11,1.11,0,0,1,0,.47c-.05.18-.1.35-.14.52a1.9,1.9,0,0,0,0,.41,1.13,1.13,0,0,0,0,.25,1.73,1.73,0,0,0,.23.54c.14.23.08.26.05.49v.12a1.41,1.41,0,0,0,0,.28,1.13,1.13,0,0,0,0,.15,1.09,1.09,0,0,0,.05.17,1.75,1.75,0,0,0,.12.32c0,.1.08.19.11.28a.77.77,0,0,0,.1.18,1.45,1.45,0,0,0,.17.18l.2.12a1.46,1.46,0,0,1,.39.29.4.4,0,0,1,.1.15h0a.48.48,0,0,1,.05.17,1.21,1.21,0,0,1,0,.19V40c0,.14,0,.27,0,.39v0a1.86,1.86,0,0,0,.06.34,2.54,2.54,0,0,0,.15.44,4.08,4.08,0,0,0,.44.72l.16.18a3.54,3.54,0,0,0,.5.46c0,.1,0,.21.08.32s.14.36.22.55l0,.14a.75.75,0,0,0,0,.15,2.14,2.14,0,0,0,.17.65,3.76,3.76,0,0,0,.2.46l.06.13.15.24a1.56,1.56,0,0,0,.16.2l.21.17.09.05a.6.6,0,0,1,.2.22,1.69,1.69,0,0,1,.08.24c0,.09,0,.18.08.27a.5.5,0,0,0,.05.13,4,4,0,0,0,.17.36l.17.32.18.31a3.13,3.13,0,0,0,.2.3l.21.25a2.2,2.2,0,0,0,.28.24h0a3.24,3.24,0,0,0,.83.47l.08,0a2.29,2.29,0,0,1,.48.19.67.67,0,0,1,.33.37c.07.19.12.4.18.6a1.72,1.72,0,0,1,.07.21,1.54,1.54,0,0,0,.08.19,1,1,0,0,0,.25.37,1.51,1.51,0,0,0,.47.29L206,51l.16,0a1.32,1.32,0,0,0,.27,0l.24,0,.19-.05a.66.66,0,0,0,.2.14.2.2,0,0,0,.11,0l.08.09a2.09,2.09,0,0,1,.2.22c.19.2.37.4.56.59a3,3,0,0,0,.26.24,2.44,2.44,0,0,0,.31.22l.17.1.18.08.27.1.27.06a3.5,3.5,0,0,0,.55.09h.29l.27,0a2.73,2.73,0,0,0,.51-.14l.64-.19h0l.12,0c.35.07.69.12,1,.17l.06,0a2.73,2.73,0,0,0,.67.37l.19.06.18,0,.38.07.34,0H215a2.65,2.65,0,0,0,.71-.18,2.16,2.16,0,0,0,.34-.18,2.77,2.77,0,0,1,.56-.3,1.73,1.73,0,0,1,.31-.07h.11a3,3,0,0,1,1,.22l.07,0a.81.81,0,0,0,1-.18l.16-.17.14-.15.15-.12,0,0h0l.11-.06.11-.06.13-.06a2.38,2.38,0,0,1,.42-.16c.09,0,.13,0,.19,0l.05,0a.09.09,0,0,0,.06,0,1.29,1.29,0,0,0,.27-.26.36.36,0,0,1,.18-.11l.22,0h.11a.78.78,0,0,0,.25-.07,1.3,1.3,0,0,0,.26-.14c.08-.06.17-.11.24-.17l.21-.18a.86.86,0,0,0,.13-.14c.19-.28.1-.6.22-.9a.56.56,0,0,1,.51-.32l.3,0h0l.11,0h.11l.07,0,.1-.05.2-.1.17-.12.15-.13.13-.15.12-.15.11-.2a.93.93,0,0,0,.1-.2l.09-.2a1.8,1.8,0,0,0,.1-.4,1.42,1.42,0,0,1,0-.2v-.07a3.07,3.07,0,0,0,.25-.26l0,0,.24-.23a.91.91,0,0,1,.21-.15.48.48,0,0,1,.37,0l.11,0,.09,0,.1.06.22.12.13,0,.13,0h.09a.32.32,0,0,1,.14,0s0,0,.08,0v0l0,0a1.47,1.47,0,0,0,.47.43h0l.24.27.26.28a3.66,3.66,0,0,0,.58.46l.31.16a2.89,2.89,0,0,0,.35.11h0a2.82,2.82,0,0,0,1,.07h.08l.34,0c.24.11.48.21.73.3s.21.22.31.34a1.43,1.43,0,0,0,.71.5,1.52,1.52,0,0,0,.53,0l.32-.06.24-.09.22-.12.14-.07.24,0h0a2.39,2.39,0,0,1,.21.13l.25.14a6.16,6.16,0,0,0,.73.36,2.08,2.08,0,0,0,.32.12.32.32,0,0,0,.09,0l.09,0,.2,0,.2,0h.2l.29,0,.28-.06.27-.07a1.34,1.34,0,0,0,.26-.09l.25-.09.24-.12a1.77,1.77,0,0,0,.46-.31c.11-.11.2-.23.3-.34s.37-.25.56-.35l.2-.08.53-.13h.11a5,5,0,0,0,.76.1,2.59,2.59,0,0,0,.78-.08l.18-.05.17-.07a1.51,1.51,0,0,0,.28-.15,1.94,1.94,0,0,0,.31-.26,2.09,2.09,0,0,0,.14-.17l0,0,0,0,.07-.11a2.34,2.34,0,0,0,.12-.41,2,2,0,0,1,.06-.32l0-.12.14-.18.13-.15,0-.05,0,0,.1,0,.46-.15c.16,0,.31-.07.49-.09H245a1.23,1.23,0,0,0,.48-.15.78.78,0,0,0,.32-.39l.09-.21a.82.82,0,0,1,.57-.51,3.43,3.43,0,0,0,.46-.11,1.1,1.1,0,0,0,.48-.32,1.29,1.29,0,0,0,.24-.5c.08-.25.13-.22.31-.36A.3.3,0,0,0,248,44l.09-.1.07-.13.07-.14a.88.88,0,0,0,0-.15,1.71,1.71,0,0,0,.09-.3l0-.13,0-.1a.77.77,0,0,0,0-.15,1.53,1.53,0,0,0-.1-.41,1.53,1.53,0,0,1-.08-.37c.07-.16.15-.31.22-.46l.15-.12.15-.09.12-.06,0,0,.09,0,.1-.06.13-.11.13-.12a2.27,2.27,0,0,0,.44-.7s0-.09,0-.14l0-.15a1.37,1.37,0,0,0,0-.28v-.12s0-.08,0-.12a1.62,1.62,0,0,0-.12-.43s-.05-.12-.08-.18l0,0c.1-.22.18-.45.26-.68l0,0a1.79,1.79,0,0,0,.25-.31l.06-.07,0-.09,0,0s0,0,0,0a.36.36,0,0,0,0-.09,1.93,1.93,0,0,0,.1-.63,1.15,1.15,0,0,0,0-.19,1.75,1.75,0,0,0,0-.33,2.64,2.64,0,0,0-.2-.6l0-.1a.68.68,0,0,1-.05-.37,1.14,1.14,0,0,1,.09-.3c0-.09.1-.18.14-.27l.08-.14c.13-.26.27-.51.4-.78l.09-.2a.3.3,0,0,1,0-.1,147612277074,147612277074,0,0,0,0-.12l.06-.25a2,2,0,0,0,0-.24s0-.08,0-.12v-.33c0-.15,0-.31-.07-.46Z"/></clipPath><clipPath id="clip-path-5"><path class="cls-1" d="M85.37,46a12.71,12.71,0,0,0-.73-1.48,1.66,1.66,0,0,1-.12-.42c.1-.1,0-.25,0-.36a2,2,0,0,0-.15-1.1,2.69,2.69,0,0,0-2.63-1.51c-.7,0-1.19.56-1.8.75-3.07.27-13.16,2.64-14.61,0-.35-.3-.48-.88-.89-1A4.5,4.5,0,0,0,64,39.65c.75-.9,1.36-2.15,2.66-2.27a4.67,4.67,0,0,0,2.5-.72,6,6,0,0,0,2.45-.7c.29-.22.58-.06.9-.05a2.19,2.19,0,0,0,1.82-.67c1-.17.87-1.18.76-2,.46-.91,0-2.2-.3-3.11a4.31,4.31,0,0,0-.71-3c-.34-.6-1-.32-1.57-.47-1.14-.68-2.39,0-3.54-.18A16.94,16.94,0,0,0,64.87,26a18,18,0,0,0-1.94-1.33c-.53-.53-.7-1.37-1.19-1.95-.13-1.71-.91-4.41.77-5.39,4.76-1.95,10.75-.13,15.45-2.28,1.27-.06,3-1.23,2.34-2.67A3.08,3.08,0,0,0,80.62,10c-1.05-1.68.36-3.89-2.09-4.58h0a2,2,0,0,0-1.43-.85c-1-.19-2.6-.8-3.42-.45-.35-.06-.7-.44-1.07-.48-1.68,0-5.77-.84-7.31-.29a22.16,22.16,0,0,0-12,2.74A24.14,24.14,0,0,0,49,8.52a5.51,5.51,0,0,0-2.9,2.38c-1.73,1.35-1.19,4.82-1.69,6.88.14,6.17-.14,7.82,1.08,15.32,1.18,7.12,1.62,13.79,5,19.59.7,1.32,2.24,1.28,3.22,2.19C55.53,55.26,57.12,56,59,56c4.7.85,7.29.94,12-.39C76.64,55.07,86.47,53.48,85.37,46Z"/></clipPath><clipPath id="clip-path-6"><path class="cls-1" d="M192.39,50.1a12,12,0,0,0-.43-1.59,1.59,1.59,0,0,1,0-.43c.11-.08.07-.24,0-.36a2.09,2.09,0,0,0,.07-1.11,2.71,2.71,0,0,0-2.28-2c-.68-.17-1.28.32-1.92.38-3.06-.33-13.42,0-14.34-2.83-.27-.36-.29-1-.67-1.17a4.24,4.24,0,0,0-.14-1.27c.91-.73,1.76-1.84,3.06-1.7a4.58,4.58,0,0,0,2.59-.22,6,6,0,0,0,2.53-.2c.34-.16.58,0,.9.13a2.17,2.17,0,0,0,1.91-.31c1.06,0,1.09-1,1.14-1.78.62-.8.43-2.15.31-3.11a4.23,4.23,0,0,0-.11-3.09c-.21-.66-.93-.52-1.44-.76-1-.9-2.36-.44-3.44-.88a17.18,17.18,0,0,0-4-1.27,20.06,20.06,0,0,0-1.64-1.68c-.42-.63-.42-1.48-.79-2.15.2-1.7,0-4.51,1.81-5.13,5-1,10.57,2,15.6.79,1.25.19,3.19-.61,2.81-2.16a3.07,3.07,0,0,0,.79-2.28c-.7-1.85,1.12-3.74-1.15-4.9h0a1.9,1.9,0,0,0-1.23-1.11c-.94-.39-2.39-1.3-3.26-1.11-.34-.14-.6-.58-1-.69-1.64-.35-5.49-2-7.12-1.71-4.88-1.18-7.93-.84-12.34.32a24.8,24.8,0,0,0-4.62,1.53A5.63,5.63,0,0,0,160.77,8c-2,1-2.11,4.49-3,6.41-1.07,6.08-1.67,7.64-2,15.23-.23,7.22-1.11,13.85,1.1,20.2.43,1.44,1.94,1.69,2.73,2.78,1.66.72,3.08,1.74,4.9,2.16,4.43,1.75,7,2.35,11.87,2C182,57.32,192,57.68,192.39,50.1Z"/></clipPath><image id="image" width="254" height="350" xlink:href="included_images/letters/letter_E.jpg"/></defs>
<g id="i"><g class="swinging cls-2" style="transform-origin: center;"><image width="118" height="350" transform="translate(131.99 3.16) scale(0.16)" xlink:href="included_images/letters/letter_I.jpg"/></g></g><g id="r"><g class="swinging cls-3" style="animation-duration: 20s;transform-origin: center;"><image width="271" height="350" transform="translate(-0.03 0.1) scale(0.16)" xlink:href="included_images/letters/letter_R.jpg"/></g></g><g class="swinging cls-4"><image width="310" height="350" transform="translate(82.32 7.7) rotate(-6.81) scale(0.15 0.15)" xlink:href="included_images/letters/letter_V.jpg"/></g><g class="swinging cls-5" style="animation-duration: 6s"><image width="387" height="350" transform="matrix(0.14, -0.02, 0.02, 0.14, 193.65, 6.11)" xlink:href="included_images/letters/letter_W.jpg"/></g><g id="e"><g class="swinging cls-6"><use transform="translate(42.69 5.25) rotate(-5.36) scale(0.15)" xlink:href="#image"/></g></g><g id="e-2" data-name="e"><g class="swinging cls-7" style="transform-origin: right;"><use transform="matrix(0.15, 0.02, -0.02, 0.15, 158.52, 1.81)" xlink:href="#image"/></g></g></svg>