<svg id="letters" xmlns="http://www.w3.org/2000/svg" xmlns:xlink="http://www.w3.org/1999/xlink" viewBox="0 0 209.88 164.25"><defs><style>.cls-1{fill:none;}.cls-2{clip-path:url(#clip-path);}.cls-3{clip-path:url(#clip-path-2);}.cls-4{clip-path:url(#clip-path-3);}.cls-5{clip-path:url(#clip-path-4);}.cls-6{clip-path:url(#clip-path-5);}.cls-7{clip-path:url(#clip-path-6);}.cls-8{clip-path:url(#clip-path-7);}</style>
<clipPath id="clip-path"><path class="cls-1" d="M177.29,67.22c-.06-.4,0-.4.21-.69a.8.8,0,0,0,.08-.16,6.63,6.63,0,0,0,.28-1.65,1.22,1.22,0,0,0,0-.27,1.65,1.65,0,0,0-.25-.66,2,2,0,0,1-.26-.68,1.16,1.16,0,0,1,.46-1l.2-.21a1.84,1.84,0,0,0,.19-.2l0-.06a2.14,2.14,0,0,0,.26-.46,3.23,3.23,0,0,0,.23-.66,5.6,5.6,0,0,0,.11-1.22c0-.13,0-.26,0-.37a5.14,5.14,0,0,0-.3-1.38.59.59,0,0,0,0-.08l.09-.32,0-.15c.15-.14.27-.28.47-.44l.14-.18a3.37,3.37,0,0,0,.25-.45c.07-.15.12-.3.17-.44a7,7,0,0,0,.24-.69l.06-.21c0-.13.06-.26.08-.39a2.55,2.55,0,0,0,0-.78c0-.06,0-.1,0-.15a.63.63,0,0,1,.07-.45,2.87,2.87,0,0,1,.52-.6l.13-.15a6.86,6.86,0,0,0,1.21-1.88,4.13,4.13,0,0,0,.15-.5,3.43,3.43,0,0,0,.06-.57h0a5.19,5.19,0,0,0-.16-1.46l0-.11c-.16-.53-.34-1,0-1.5a7.84,7.84,0,0,1,.64-.65,1.85,1.85,0,0,0,.65-1.92,2.72,2.72,0,0,0-.13-.49c-.05-.14-.1-.26-.15-.37a2.58,2.58,0,0,1-.36-.67s0,0,0,0c0-.22.18-.39.31-.57l.27-.34c.26-.33.52-.65.75-1,.09-.15.19-.29.28-.45a3.94,3.94,0,0,0,.44-1,9,9,0,0,0,.23-1.63,9.5,9.5,0,0,0,0-1.6c0-.4-.09-.79-.14-1.18,0-.11,0-.23,0-.35a1.19,1.19,0,0,1,0-.5,2.09,2.09,0,0,1,.52-.88,9,9,0,0,0,1.34-1.93c.08-.16.14-.32.21-.49l.12-.43a3.51,3.51,0,0,0,.1-1.13,2.9,2.9,0,0,0-.09-.59,4.08,4.08,0,0,1-.15-1,1.85,1.85,0,0,1,.08-.48l.06-.16a4.11,4.11,0,0,1,.38-.65,3.64,3.64,0,0,1,.49-.59l.08-.08a1.29,1.29,0,0,0,.46-1.35c0-.12-.06-.22-.09-.32a1.35,1.35,0,0,1,0-.28.82.82,0,0,1,0-.27.89.89,0,0,1,.09-.26,1.46,1.46,0,0,1,.21-.23c.18-.15.38-.26.55-.38l.08-.07a.12.12,0,0,0,0-.05l.05-.06a1.2,1.2,0,0,0,.18-.26,1.35,1.35,0,0,0,.14-.35,2,2,0,0,0,0-.9.8.8,0,0,1,0-.39c0-.1.09-.18.16-.36a1.16,1.16,0,0,0,0-.18,1.93,1.93,0,0,0-.11-1,4.26,4.26,0,0,0-.43-.91,1.05,1.05,0,0,0-.23-.27,1.19,1.19,0,0,0-.7-.26l-.35,0-.09,0,.07-.11a.27.27,0,0,1,.09-.12,1.06,1.06,0,0,0,.06-.19,1.14,1.14,0,0,0,0-.63c0-.08-.05-.15-.07-.23l-.08-.21-.06-.16s0-.07,0-.11a3.25,3.25,0,0,0-.3-.51l0-.13a3.27,3.27,0,0,0-.14-.33,2.11,2.11,0,0,0-.18-.33,3.36,3.36,0,0,0-.24-.29l-.27-.24-.19-.12-.18-.1a2.3,2.3,0,0,0-.38-.15l-.21-.06-.2,0a1.84,1.84,0,0,0-.53.06,2.7,2.7,0,0,1-1.2-.81c-.32-.39-.53-1.06-1-1.24a.91.91,0,0,0-.35-.07,1,1,0,0,0-.33.05c-.21.06-.39.18-.62.27a.89.89,0,0,1-.72.06c-.38-.14-.62-.59-.92-1a2.05,2.05,0,0,0-.53-.53h0A2.61,2.61,0,0,0,179,9.3a1.93,1.93,0,0,0-.34-.11,1.35,1.35,0,0,0-.35-.06,1,1,0,0,0-.35,0,1.07,1.07,0,0,0-.39.1,3.06,3.06,0,0,1-.53.29.37.37,0,0,1-.18,0,.24.24,0,0,1-.11-.08.41.41,0,0,1-.05-.09.84.84,0,0,0-.09-.19.19.19,0,0,0-.16-.07h0a1.08,1.08,0,0,0-.29.09,1.2,1.2,0,0,1-.33.05A2.9,2.9,0,0,1,175,9a1.23,1.23,0,0,0-1.14,0,1.9,1.9,0,0,0-.35.21l-.17.11a1.08,1.08,0,0,1-.59.23,1.46,1.46,0,0,1-.65-.2l-.22-.08-.23-.08a2.84,2.84,0,0,0-.31-.06,3,3,0,0,0-.31,0,2.19,2.19,0,0,0-.36,0l-.35.08a2.71,2.71,0,0,0-.86.48c-.1.09-.2.2-.3.31a3.17,3.17,0,0,0-.23.36,2.74,2.74,0,0,0-.15.4,0,0,0,0,1,0,0,3.07,3.07,0,0,0-.06.68,2.74,2.74,0,0,0-.13.29c-.05.25-.1.49-.13.72a.34.34,0,0,1,0,.1h-.09a.11.11,0,0,0-.08,0l-.08,0-.19.19a.35.35,0,0,0,0,.08v0l0,0a.56.56,0,0,0-.05.08l0,.09a.47.47,0,0,0-.06.09l0,0v0l0,0a.23.23,0,0,1-.07.07,1.07,1.07,0,0,0-.28.63,1.4,1.4,0,0,0,0,.46,2.66,2.66,0,0,0,.08.33,2.83,2.83,0,0,0,.11.31,2.76,2.76,0,0,0,.08.27c0,.09.05.18.07.27a2.18,2.18,0,0,1,0,.57.65.65,0,0,1,0,.19c-.07.12-.15.23-.22.34s-.14.28-.21.42a1.62,1.62,0,0,1-.29.19c-.38.2-1,.22-1.22.55a.44.44,0,0,0-.09.27.63.63,0,0,0,0,.27A2.88,2.88,0,0,0,166,19a.69.69,0,0,1,.09.6,1,1,0,0,1-.34.4l-.53.37a2.73,2.73,0,0,0-.25.2,1.5,1.5,0,0,0-.2.24s0,0,0,0a1.27,1.27,0,0,0-.19.48,1.23,1.23,0,0,0,0,.54,1.55,1.55,0,0,0,.14.29,1,1,0,0,0,.16.2s0,0,0,0l0,0s0,0,0,0a.15.15,0,0,1,.05.07.08.08,0,0,1,0,.09c-.08.1-.26.1-.36.15a.14.14,0,0,0-.08.1v0c0,.13.15.29.13.45a1.24,1.24,0,0,1-.2.51.67.67,0,0,0-.12.55,2,2,0,0,0,.27.57.55.55,0,0,1,.09.14,1.65,1.65,0,0,1,.11.26c0,.13,0,.25-.08.38a1.1,1.1,0,0,1-.27.22l-.31.18a3.47,3.47,0,0,0-.37.26,1.62,1.62,0,0,0-.35.34l-.09.13,0,.07a.1.1,0,0,0,0,.05,1.27,1.27,0,0,0-.13.19l-.09.17a1.17,1.17,0,0,0,0,.2.79.79,0,0,0,0,.22h0c0,.36.16.78.15,1.19a.22.22,0,0,1,0,.08v.14c0,.06,0,.12,0,.16a1.46,1.46,0,0,0,.08.27,2,2,0,0,0,.11.2,1.66,1.66,0,0,0,.23.31.21.21,0,0,0,0,.06c-.08.25-.15.49-.23.73l-.08.21a1.19,1.19,0,0,0-.32.14,1,1,0,0,0-.32.35,2.11,2.11,0,0,0-.1.3,3.22,3.22,0,0,0,0,.43c0,.11,0,.23,0,.33a.77.77,0,0,1-.36.63l-.14.1-.62.37a2.31,2.31,0,0,0-.47.4.27.27,0,0,0-.07.08l-.11.13-.1.14a.6.6,0,0,0-.09.15.47.47,0,0,0-.07.12,2.16,2.16,0,0,0-.16.34s0,.09,0,.14a1.91,1.91,0,0,0-.07.28,1.69,1.69,0,0,0,0,.33c0,.05,0,.13,0,.2a7.16,7.16,0,0,1-.68.37.39.39,0,0,0-.1-.08,1,1,0,0,0-.83-.14l-.25.09a.61.61,0,0,0-.16.12s0,.07-.05.12a.84.84,0,0,1-.15.3.41.41,0,0,1-.17.15l0,0h-.08c-.18,0-.36-.2-.51-.31l-.3-.19a2.92,2.92,0,0,0-.52-.32,1,1,0,0,0-.55-.07.82.82,0,0,0-.28.06l-.11,0a3.49,3.49,0,0,0-.57.2l-.2.1a.86.86,0,0,1-.36.08l-.37,0h-.36l-.24,0-.14,0-.22-.08a4.44,4.44,0,0,1-.49-.24,2.49,2.49,0,0,1-.28-.15l-.18-.1-.05,0c-.05-.08-.09-.17-.13-.23a1.54,1.54,0,0,1-.09-.19c-.11-.2-.19-.4-.29-.59a5.71,5.71,0,0,0-.33-.55l-.26-.27a.82.82,0,0,0-.41-.29,2.75,2.75,0,0,0-.45-.09l-.35-.06-.06,0-.12,0-.1-.06a.69.69,0,0,1-.18-.16.57.57,0,0,1-.11-.16.82.82,0,0,1-.09-.19,2,2,0,0,1-.07-.44.1.1,0,0,1,0,0,3.58,3.58,0,0,0,0-.56,2.41,2.41,0,0,0-.08-.25.51.51,0,0,0-.16-.23,1,1,0,0,0-.15-.1,1.23,1.23,0,0,0-.23-.08,1.11,1.11,0,0,0-.26,0c0-.19-.07-.39-.09-.59l0-.06a.35.35,0,0,0,.06-.14.3.3,0,0,0,0-.1.91.91,0,0,0,0-.37,1,1,0,0,0-.26-.46l-.07,0a.47.47,0,0,1-.05-.1.29.29,0,0,1,0-.09.77.77,0,0,1,.07-.28,1,1,0,0,0,.15-.33v-.05c0-.31.06-.62.1-.92l.25-.16a1.21,1.21,0,0,0,.16-.16,2.39,2.39,0,0,0,.27-.49,2.44,2.44,0,0,0,.1-.24c0-.08.05-.17.08-.25a4.36,4.36,0,0,0,.16-.8,1.94,1.94,0,0,0,0-.24,3.1,3.1,0,0,0,0-.42v-.4a3.13,3.13,0,0,0,0-.43.77.77,0,0,0,0-.15.81.81,0,0,1,.07-.49,3.82,3.82,0,0,1,.5-.68,1.15,1.15,0,0,0,.14-.17,10.13,10.13,0,0,0,1.21-2.05c.06-.16.12-.34.17-.51a3.7,3.7,0,0,0,.1-.58h0a6.26,6.26,0,0,0,0-1.56c0-.05,0-.09,0-.14a1.77,1.77,0,0,1,.19-1.6c.2-.24.44-.46.65-.7a3.09,3.09,0,0,0,.44-.57,1.84,1.84,0,0,0,.26-.7,1.45,1.45,0,0,0,0-.42,2.54,2.54,0,0,0-.07-.47,4,4,0,0,0-.15-.52,2.84,2.84,0,0,0-.18-.39,5.08,5.08,0,0,1-.38-.53.07.07,0,0,1,0-.05c0-.17,0-.34,0-.5l.15-.29.24-.4c.23-.39.48-.74.69-1.13a4.12,4.12,0,0,0,.24-.52,3.14,3.14,0,0,0,.25-1.34,2.17,2.17,0,0,0,0-.26c0-.09,0-.18,0-.26a3.19,3.19,0,0,0-.16-.55,2.94,2.94,0,0,0-.57-.9,4,4,0,0,0-1.55-1A7.2,7.2,0,0,0,150,4.54l-.21,0a6.76,6.76,0,0,0-1.24-.67l-.22-.23A7.13,7.13,0,0,0,146.33,2c-.17-.1-.35-.18-.52-.26l-.46-.16a4.12,4.12,0,0,0-1.21-.18,3.35,3.35,0,0,0-.64,0,4.6,4.6,0,0,1-1.05,0,1.94,1.94,0,0,1-.51-.14l-.17-.08c-.48-.28-.87-.54-1.38-.87l-.1-.07a2.48,2.48,0,0,0-.39-.21,2.28,2.28,0,0,0-.41-.11,1.41,1.41,0,0,0-.41,0,1.42,1.42,0,0,0-.41.14l-.31.16-.14.07-.15,0a1.73,1.73,0,0,1-.31.07,1.75,1.75,0,0,1-.7-.06,3.59,3.59,0,0,0-.87-.13,1.91,1.91,0,0,0-.75.2,2,2,0,0,0-.42.31,1.88,1.88,0,0,0-.51,1c0,.33-.12.32-.36.47l-.11.08a1.39,1.39,0,0,0-.21.21c-.06.08-.14.16-.2.25l-.09.13,0,0a.15.15,0,0,1-.05.06l0,.06-.06.07-.13.12a.92.92,0,0,0-.18.22,1.53,1.53,0,0,0-.23.75,1.27,1.27,0,0,0,0,.2.54.54,0,0,0,0,.18,2.42,2.42,0,0,1,0,.38.92.92,0,0,1-.08.25,1.16,1.16,0,0,1-.16.21,2.26,2.26,0,0,1-.44.35l-.44.33a.12.12,0,0,1-.05,0,1.56,1.56,0,0,0-.31.37,4.13,4.13,0,0,0-.33.58,3.74,3.74,0,0,0-.17.57,2.91,2.91,0,0,0-.1.59c0,.12,0,.24,0,.35a5.24,5.24,0,0,0,0,.7,4,4,0,0,0,.16.66l.09.29h0c0,.08,0,.15-.06.24l-.39.29a1.34,1.34,0,0,0-.21.2,3.63,3.63,0,0,0-.55,1.07,6.14,6.14,0,0,0-.27.86l-.06.26a2.86,2.86,0,0,0-.06.48,3.08,3.08,0,0,0,.11,1,1,1,0,0,1,.05.18.65.65,0,0,1,0,.55,3.36,3.36,0,0,1-.64.75,1.63,1.63,0,0,0-.17.2,9.76,9.76,0,0,0-1.49,2.27,4.91,4.91,0,0,0-.18.58,2.93,2.93,0,0,0-.08.67h0a5.92,5.92,0,0,0,.2,1.81.88.88,0,0,1,.05.15c.22.66.48,1.3-.05,1.83-.26.28-.58.51-.87.77a2.38,2.38,0,0,0-.92,1.37,2.71,2.71,0,0,0,.09,1,3.89,3.89,0,0,0,.22.6,2.49,2.49,0,0,0,.25.46c.09.14.24.3.36.46-.12.45-.24.9-.35,1.35l-.16.2c-.33.42-.65.81-.93,1.23a6,6,0,0,0-.33.54A4.12,4.12,0,0,0,124,33a8.62,8.62,0,0,0-.15,1c0,.32,0,.66,0,1a7.89,7.89,0,0,0,0,1,2.11,2.11,0,0,1,0,.25c0,.08,0,.16,0,.24s0,.32,0,.48l0,.56c0,.15-.07.3-.11.45s0,.19-.08.3,0,.2-.08.31,0,.2-.07.3c-.12.46-.24.91-.35,1.37-.07,0-.12.11-.2.16a7,7,0,0,0-1.09,1,4.83,4.83,0,0,0-.43.61c-.13.2-.25.41-.37.63a4.67,4.67,0,0,0-.24.62,4.58,4.58,0,0,0-.14.53c0,.11,0,.23,0,.35s0,.24,0,.35a4.41,4.41,0,0,0,.08.72,3,3,0,0,0,.21.72,4.58,4.58,0,0,1,.34,1.17,1.46,1.46,0,0,1,0,.59.76.76,0,0,1-.06.2,4.17,4.17,0,0,1-1,1.56l-.1.1a1.42,1.42,0,0,0-.53,1.68c.06.13.11.26.16.39a1.52,1.52,0,0,1,.13.68,1,1,0,0,1-.33.65c-.23.23-.47.42-.67.62a2,2,0,0,0-.36.5,1.17,1.17,0,0,0-.11.33,1.3,1.3,0,0,0,0,.44,3.82,3.82,0,0,0,.09.44c.1.4,0,.4-.29.66a.77.77,0,0,0-.12.13,5.4,5.4,0,0,0-.44,1.63.86.86,0,0,0,0,.27c0,.53.54,1,.61,1.58a.68.68,0,0,1-.2.54,3.77,3.77,0,0,1-.52.41,5,5,0,0,0-.56.38s0,0-.07,0a2.53,2.53,0,0,0-.38.42,3.37,3.37,0,0,0-.19.32,1.84,1.84,0,0,0-.15.35,2.81,2.81,0,0,0-.1.31l0,.16s0,0,0,.07l-.09.49c0,.07,0,.14,0,.22s0,.16,0,.24a2.23,2.23,0,0,0,0,.27v.13a.86.86,0,0,0,0,.15,1.64,1.64,0,0,0,.1.55,2.66,2.66,0,0,0,.42.71c.08.1.15.2.23.29s.2.25.31.37a4.43,4.43,0,0,0-.06.51,1.22,1.22,0,0,0,0,.27l0,0a2.68,2.68,0,0,1-.28.18,10.15,10.15,0,0,0-.91,1.19.88.88,0,0,0,0,.15,1.08,1.08,0,0,0,0,.67.92.92,0,0,0,.09.23l.14.21c.18.23.41.44.64.68a4,4,0,0,0,.29.29c.08.1.19.19.26.27a2.25,2.25,0,0,1,.26.31l.12.23v0a1.93,1.93,0,0,1,0,.27,1.39,1.39,0,0,1,0,.27,2.45,2.45,0,0,0,.06,1.15,1.56,1.56,0,0,0,.66.8,2.2,2.2,0,0,0,.26.15l.28.11.14,0,.13,0,.26.06a3.49,3.49,0,0,0,1.07.05,5.55,5.55,0,0,0,1-.29l.18-.06c.47.18.94.35,1.42.49,0,0,0,.08.07.13a4.32,4.32,0,0,0,.44.67l.3.28a5.36,5.36,0,0,0,.49.34c.17.1.34.18.5.26l.62.26.2.08.19.08.38.16a7.33,7.33,0,0,0,.91.37,6.07,6.07,0,0,0,.79.21l.31.06a5.68,5.68,0,0,0,.93,0,4.17,4.17,0,0,0,.93-.13,6,6,0,0,0,1-.33,4.33,4.33,0,0,0,1.09-.7,4,4,0,0,0,.35-.37,1.66,1.66,0,0,0,.31-.85l0,0,.17,0a2.12,2.12,0,0,0,.69-.63,3,3,0,0,0,.23-.35,1.09,1.09,0,0,1,.08-.15.63.63,0,0,0,.3-.12,1.11,1.11,0,0,0,.4-.49l0,0a1.73,1.73,0,0,0,.35-.54A1.88,1.88,0,0,0,135,72c0-.07,0-.14,0-.22a.25.25,0,0,0,0-.08s0-.06,0-.1,0-.12,0-.19.09-.24.14-.36.25-.47.37-.75c0,0,0,0,0,0a.24.24,0,0,0,0-.08c0-.16.09-.29.12-.43s.06-.23.09-.37l.09-.43,0-.2a1.54,1.54,0,0,1,.09-.24s0-.07.06-.1a.48.48,0,0,0,.09-.11l.33-.5.15-.23.15-.26a4.85,4.85,0,0,0,.29-.49l.22-.49a3.45,3.45,0,0,0,.18-.57h0a7.47,7.47,0,0,0,.27-1.57v-.14a2,2,0,0,1,.46-1.58c.23-.22.49-.42.74-.62a3.68,3.68,0,0,0,.5-.54,2,2,0,0,0,.36-.69,2.74,2.74,0,0,0,.07-.88,4.29,4.29,0,0,0-.06-.53,2.58,2.58,0,0,0-.1-.42c0-.13-.12-.3-.18-.46.14-.33.28-.66.43-1a2.54,2.54,0,0,1,.29-.28,4.74,4.74,0,0,1,1.05-.71l.23-.12.23-.1a2.44,2.44,0,0,1,.24-.1l.25-.11.25-.1s0,0,.06,0l.07,0,.13,0,.18-.08.2-.08.4-.16.39-.16.2-.08.19-.07c.52-.2,1.05-.38,1.6-.54s.84-.22,1.26-.29l.39-.07a1.54,1.54,0,0,1,.57,0,2.35,2.35,0,0,1,1,.53,24.84,24.84,0,0,0,2,1.5,5.09,5.09,0,0,0,.5.3l.2.11.21.11a6.61,6.61,0,0,0,1.13.43,4,4,0,0,0,.59.17,3.22,3.22,0,0,1,1,.4c.07.06.15.11.22.18l.18.21a.78.78,0,0,1,.1.15,2.25,2.25,0,0,1,.29,1.54.35.35,0,0,1,0,.11,1.8,1.8,0,0,0,.12,1.44c.06.1.11.2.16.3A1.72,1.72,0,0,1,156,62a1.35,1.35,0,0,1,.05.29,1,1,0,0,1-.18.61c-.13.22-.28.42-.4.61a2.42,2.42,0,0,0-.25.48,1.52,1.52,0,0,0-.06.32,2.35,2.35,0,0,0,0,.79c.06.36,0,.36-.2.64a1,1,0,0,0-.08.14,6,6,0,0,0-.26,1.62.83.83,0,0,0,0,.27c0,.49.42.78.51,1.29a1.25,1.25,0,0,1-.39,1c-.11.14-.24.28-.33.42s0,0-.05.05a2.37,2.37,0,0,0-.22.42,2.5,2.5,0,0,0-.2.62,5,5,0,0,0-.13,1.15c0,.13,0,.24,0,.36a4.38,4.38,0,0,0,.27,1.36.93.93,0,0,1,.05.1,3.72,3.72,0,0,0,0,.58,5,5,0,0,0-.24.6c-.09.27-.17.54-.24.83,0,.08,0,.16,0,.24a3.87,3.87,0,0,0-.06.46,2.75,2.75,0,0,0,.08.9.94.94,0,0,0,0,.16.92.92,0,0,1,0,.52,7.81,7.81,0,0,1-.36.81,1.55,1.55,0,0,0-.08.23c0,.06,0,.13-.05.2a.52.52,0,0,1,0,.11.34.34,0,0,0,0,.1,1.3,1.3,0,0,0,0,.48,4.07,4.07,0,0,0,.83,1.75,3.54,3.54,0,0,0,.41.45,3.9,3.9,0,0,0,.51.4h0l.18.12.19.12a3.11,3.11,0,0,0,.41.2,3,3,0,0,0,.42.16,3.43,3.43,0,0,0,.44.09l.14,0c.32,0,.62,0,.9.06a1.07,1.07,0,0,1,.4.1,1,1,0,0,1,.39.24,3.9,3.9,0,0,1,.38.33l.35.35a2.8,2.8,0,0,0,1.21.85,2.74,2.74,0,0,0,.94.1,2.79,2.79,0,0,0,.58-.07,1.41,1.41,0,0,0,.22-.06l.21-.08a2.77,2.77,0,0,0,.36-.21,1.9,1.9,0,0,1,.32-.19l0,0h.12l.29,0h.06l.22,0a4.37,4.37,0,0,1,.5.09,3.4,3.4,0,0,1,.64.2,6.36,6.36,0,0,1,.59.28l.53.24.31.11.35.09.18,0,.19,0a2.67,2.67,0,0,0,.4,0l.29,0,.28,0a4,4,0,0,0,.55-.17l.27-.12.24-.14a1.7,1.7,0,0,0,.22-.15l.21-.17a4.6,4.6,0,0,0,1.17-1.53,5.18,5.18,0,0,0,.4-1.27v-.06a4.63,4.63,0,0,0,.59-1c.11-.25.2-.51.29-.77A8.37,8.37,0,0,0,173.47,79l.23-.56a4.5,4.5,0,0,0,.16-.48,5,5,0,0,0,.19-1.29c0-.22,0-.45,0-.67a5.14,5.14,0,0,1,0-1.11,1.72,1.72,0,0,1,.14-.54.67.67,0,0,1,.07-.18,5,5,0,0,1,1-1.34.27.27,0,0,0,.1-.08,2,2,0,0,0,.54-.67,1.49,1.49,0,0,0,.15-.85,2.58,2.58,0,0,1,0-.38,2,2,0,0,1,0-.65,1.36,1.36,0,0,1,.33-.61,7.72,7.72,0,0,0,.54-.62,1.62,1.62,0,0,0,.31-.51,2.92,2.92,0,0,0,.1-.35A2.26,2.26,0,0,0,177.29,67.22Z"/></clipPath><clipPath id="clip-path-2"><path class="cls-1" d="M124.35,40.48c-.14-.34,0-.37.06-.68a1.54,1.54,0,0,0,0-.17,5.66,5.66,0,0,0-.1-1.64,1,1,0,0,0-.06-.26c-.17-.47-.63-.68-.84-1.16a1.18,1.18,0,0,1,.2-1c.09-.17.19-.33.27-.49l0-.07a3.39,3.39,0,0,0,.15-.45,3.51,3.51,0,0,0,.08-.66,5.1,5.1,0,0,0-.11-1.17c0-.12-.08-.24-.11-.35s-.15-.45-.23-.66a4,4,0,0,0-.33-.61l-.18-.26a1.57,1.57,0,0,0-.19-.26l0,0a2.81,2.81,0,0,0,.57-.8,6.7,6.7,0,0,0,.38-1.25c0-.15.06-.29.08-.41a5.35,5.35,0,0,0,0-1.79c0-.06,0-.12,0-.19l0-.1a.11.11,0,0,0,0,0h0l-.1-.3c0-.1-.06-.21-.1-.31s-.06-.18-.08-.27-.09-.28-.13-.42a1.8,1.8,0,0,0,0-.19c-.06-.19-.11-.38-.17-.57-.12-.35-.23-.71-.38-1.08-.06-.17-.17-.35-.26-.54,0-.59,0-1.17,0-1.72v-.47a.31.31,0,0,0,.07-.09,2.53,2.53,0,0,0,.3-.79c0-.14,0-.28,0-.42a2.06,2.06,0,0,0,0-.43v-.18h0s0,0,0,0h0V18a.27.27,0,0,1,0-.09s.2-.1.26-.15a.92.92,0,0,0,.15-.14.86.86,0,0,0,.14-.18l.12-.19a.23.23,0,0,1,0-.1l0-.09a1.67,1.67,0,0,0,0-.18c0-.1,0-.22,0-.32a2.26,2.26,0,0,0,0-.26.47.47,0,0,0,0-.12.49.49,0,0,1,0-.12s0-.08,0-.11,0-.05,0-.06h0s0,0,0,0h0v0c0-.06,0-.12,0-.18a.25.25,0,0,0,0-.09v-.08a.66.66,0,0,0,0-.14s0-.09,0-.16,0-.23,0-.34v0a1.65,1.65,0,0,0-.12-.46,6.65,6.65,0,0,1-.33-.84,1.22,1.22,0,0,0,0-.17.22.22,0,0,0,0-.08c0-.06,0-.12,0-.18V12.9a0,0,0,0,1,0,0s0,0,0,0h0a.37.37,0,0,1,0-.11.29.29,0,0,1,0-.09,4.5,4.5,0,0,1,.1-.44,3.52,3.52,0,0,0,.1-.65,3.72,3.72,0,0,0-.21-1.49,1.65,1.65,0,0,0-.14-.26l0,0a1.12,1.12,0,0,0-.44-.27.89.89,0,0,1-.25-.16c-.19-.21,0-.49,0-.74a2.42,2.42,0,0,0,0-.47c0-.06,0-.12,0-.18l-.06-.18a2.92,2.92,0,0,0-.17-.36l-.12-.17a1.27,1.27,0,0,0-.14-.17,1,1,0,0,0-.19-.17l-.21-.16-.24-.13-.18-.05-.09-.11a3.88,3.88,0,0,1-.23-.49c0-.09,0-.19,0-.31a2.56,2.56,0,0,0,0-.27,3.17,3.17,0,0,0-.6-1.12,3.43,3.43,0,0,0-.72-.7l-.12-.09-.12-.06a2,2,0,0,0-.51-.24,2,2,0,0,0-1-.09l-.18,0a1.27,1.27,0,0,1-.58,0c-.29,0-.62-.16-1-.24l-.26,0a9.89,9.89,0,0,0-2.89.12l-.27,0-.27.06-.29.06-.31.06h0c-.37.08-.77.13-1.18.19a10.11,10.11,0,0,0-1.83.11c-.08,0-.13.13-.2.17h-.1c-.08,0-.16-.06-.22,0h0a.92.92,0,0,1-.26-.07l-.27-.07a1.47,1.47,0,0,0-.28-.08l-.3,0-.15,0-.15,0h-.2l-.11,0h0s0,0,0,0h0s0,0,0,0,0,0,0,0h-.4a2.69,2.69,0,0,0-.82.15,4.74,4.74,0,0,0-.91.48c-.17.12-.34.26-.49.39a2.93,2.93,0,0,0-.35.36,6.39,6.39,0,0,1-.5.71l0,0a2.07,2.07,0,0,1-.75.24,2.3,2.3,0,0,0-.48.22,1.73,1.73,0,0,0-.57.6,1.24,1.24,0,0,0-.1.2,1,1,0,0,0-.08.21.35.35,0,0,0,0,.11l0,.1a.29.29,0,0,0,0,.09s0,0,0,.05v0h0c0,.1,0,.2-.07.3s0,.21-.07.31a6.71,6.71,0,0,0-.16,1.45,13.19,13.19,0,0,0,.16,2.09l.09.51q.06.27.12.51a3.5,3.5,0,0,0,.14.49.42.42,0,0,0,0,.06s0,0,0,0h0a0,0,0,0,1,0,0,.56.56,0,0,1,0,.12,2.29,2.29,0,0,1,.1.23c.08.23.19.46.28.69l.25.69h0a1.24,1.24,0,0,0-.1.35c0,.07,0,.2,0,.38s0,.52.06.9c0,.15,0,.33,0,.5a1.27,1.27,0,0,0-.06.18c-.18.46-.36.92-.51,1.39-.07.24-.14.48-.19.72s-.1.49-.13.74,0,.45-.06.67a.75.75,0,0,1,0,.15V21c0,.1,0,.19,0,.29a5.46,5.46,0,0,0,.32,1.44c.1.24.21.46.32.68s.09.17.15.26l.14.27a4.91,4.91,0,0,1,.25.57,3.06,3.06,0,0,1,.13.6,1.8,1.8,0,0,1,0,.22,5.65,5.65,0,0,1-.25,1.84.65.65,0,0,0,0,.13,2,2,0,0,0,.14,1.83l.22.36a1.68,1.68,0,0,1,.25,1.41c-.09.29-.18.56-.25.83A1.88,1.88,0,0,0,102,32s0,.06,0,.08h0v0a0,0,0,0,1,0,0c0,.06,0,.12,0,.17a1.84,1.84,0,0,0,0,.4,3.16,3.16,0,0,0,.34.89c.21.38.13.41.06.79a1.1,1.1,0,0,0,0,.18,3.57,3.57,0,0,0,.11.9l.12.46c0,.15.07.3.09.44a2.13,2.13,0,0,0,.09.3A1,1,0,0,0,103,37l.12.14.07.08h0l0,0a2.33,2.33,0,0,1,.5.64s0,.08,0,.13,0,.27,0,.4v.06a2.86,2.86,0,0,1-.15.61c-.07.2-.15.39-.21.59a.08.08,0,0,1,0,0h0v0a2.7,2.7,0,0,0-.08.52,3.58,3.58,0,0,0,0,.79,1.7,1.7,0,0,0,0,.22.5.5,0,0,1,0,.12l0,.11a1.07,1.07,0,0,0,.07.19.32.32,0,0,0-.09.08.41.41,0,0,1-.05.09.12.12,0,0,0,0,.07.19.19,0,0,0,0,.08.09.09,0,0,0,0,0s0,0,0,0v0h0s0-.06,0,0h0v0a.67.67,0,0,0-.07.24s0,.06,0,.08a1,1,0,0,0,0,.3,1.22,1.22,0,0,0,.17.61.83.83,0,0,0,.08.12,2.42,2.42,0,0,0,.39.42c.09.07.24.17.36.28s0,0,0,0a3,3,0,0,1-.12.45l-.54-.15a.88.88,0,0,1-.39-.18h0v0l0,0s0,0,0,0h0s0,0,0,0h0v-.07h0c0-.1,0-.17,0-.19h0l0,0s-.08,0-.14.13l-.09.11a1.2,1.2,0,0,1-.12.11.48.48,0,0,1-.19.09h0l-.07,0c-.11-.08-.12-.35-.16-.51s0-.21-.07-.3a2.77,2.77,0,0,0-.17-.51.72.72,0,0,0-.39-.32l-.28-.07a.27.27,0,0,0-.12,0,3.27,3.27,0,0,0-.51-.07.41.41,0,0,0,0-.08c-.13-.19-.28-.39-.42-.58s-.29-.41-.43-.6h0a2.4,2.4,0,0,0,.28-.37.91.91,0,0,0,.13-.65s0,0,0-.07h0s0,0,0,0v0c0-.06,0-.1-.06-.15a1.45,1.45,0,0,0-.17-.26q-.15-.16-.3-.3l-.06,0a1.62,1.62,0,0,1-.19-.17l-.15-.18a1.22,1.22,0,0,1-.23-.73,0,0,0,0,0,0,0c0-.31-.07-.76-.43-.87a.34.34,0,0,0-.18,0,.74.74,0,0,0-.25,0,1.61,1.61,0,0,0-.38.16.38.38,0,0,1-.21.06.17.17,0,0,0,0-.07.56.56,0,0,0-.05-.08,2.37,2.37,0,0,1,.15-.45.39.39,0,0,0,0-.15v-.1a.86.86,0,0,0-.13-.29.67.67,0,0,0-.39-.25l-.3,0h-.13l-.36-.58a.29.29,0,0,0,0-.09,3.73,3.73,0,0,0,.08-.41,1.22,1.22,0,0,0,0-.27,1.07,1.07,0,0,0-.06-.31c0-.1-.06-.19-.1-.29a2.93,2.93,0,0,0-.27-.53,4.81,4.81,0,0,0-.51-.76l-.18-.21a2.93,2.93,0,0,0-.36-.35,3.41,3.41,0,0,0-.8-.54l-.16-.07a1.64,1.64,0,0,1-.22-.14l-.37-.56s0-.05,0-.08-.09-.3-.14-.46a.43.43,0,0,0,0-.05.1.1,0,0,0,0,0v0a.56.56,0,0,0,0-.12c-.14-.43-.27-.86-.42-1.27-.08-.2-.16-.4-.25-.6a5.48,5.48,0,0,0-.29-.6c-.1-.17-.2-.34-.32-.51s-.27-.35-.42-.52l0,0a13.84,13.84,0,0,0-1.22-1.19l-.11-.09a5.55,5.55,0,0,1-.72-.62,1.5,1.5,0,0,1-.39-.84l-.06-.53,0-.27c0-.09,0-.18,0-.27a.63.63,0,0,0,0-.19s0-.07,0-.1v0h0s0,0,0,0h0v-.05c0-.13-.07-.26-.11-.38a2.39,2.39,0,0,0-.4-.71,3,3,0,0,0-.73-.63c-.17-.11-.35-.21-.52-.3a2.27,2.27,0,0,0-.44-.18,3.15,3.15,0,0,1-.77-.25L85.65,20a3.57,3.57,0,0,0-.1-.35c0-.17-.09-.34-.14-.51-.15-.47-.27-.94-.44-1.4,0-.1-.07-.19-.11-.3s-.07-.19-.11-.29A6.22,6.22,0,0,0,84.06,16a12.8,12.8,0,0,0-1.3-1.53c-.24-.23-.47-.45-.72-.67l-.18-.16-.09-.08-.11-.08-.4-.29a3.13,3.13,0,0,0-.3-.2l-.32-.17a3.07,3.07,0,0,0-.31-.17L80,12.44l-.37-.19L79.4,12c-.25-.29-.48-.53-.69-.74a5.36,5.36,0,0,1-.16-.52,11.5,11.5,0,0,0-.4-1.35,5.55,5.55,0,0,0-.66-1.28,4.51,4.51,0,0,0-.44-.54,3.28,3.28,0,0,0-.43-.4,3.18,3.18,0,0,0-1.41-.63l-.2,0h-.19a2.42,2.42,0,0,0-.39,0,8.48,8.48,0,0,0-1.18.26l-.14,0h0l-.21-.07c-.28-.13-.54-.29-.81-.43A2.08,2.08,0,0,0,71.31,6h0l-.39-.29-.11-.08a2,2,0,0,0-.41-.28l-.11,0-.1,0-.22-.07-.07,0H69.8l-.13,0H69.4l-.27,0a1.14,1.14,0,0,0-.26.09,3.89,3.89,0,0,0-.41.18A2.15,2.15,0,0,1,67,5.74l-.85-.18a2.64,2.64,0,0,0-.63,0,1.68,1.68,0,0,0-.37.06,2.81,2.81,0,0,0-.78.37c-.34.21-.41.13-.75.06l-.19,0a6.44,6.44,0,0,0-1.83.39,1.1,1.1,0,0,0-.29.11c-.49.26-.65.75-1.13,1.07a.53.53,0,0,1-.24.11l-.07,0a2.15,2.15,0,0,1-.87,0c-.21,0-.42-.08-.61-.1H58.3a3.33,3.33,0,0,0-.54,0,4.23,4.23,0,0,0-.76.19,4.53,4.53,0,0,0-1.26.68c-.12.11-.23.2-.33.31a2.89,2.89,0,0,0-.87,1.42c0,.11,0,.24-.06.35a2.44,2.44,0,0,0,0,.27c-.08.16-.17.32-.24.48a1.62,1.62,0,0,0-.09.38h0c-.14.07-.29.13-.45.22a2.13,2.13,0,0,0-1,1.48,6.4,6.4,0,0,0-.09,1.14c0,.1,0,.21,0,.31s0,.4,0,.59,0,.18,0,.27,0,.19,0,.29a4,4,0,0,0,.09.57.48.48,0,0,0,.1.17,1.31,1.31,0,0,0,.11.12A.55.55,0,0,0,53,17a.56.56,0,0,1,.1.28c0,.35-.7,1-.76,1.37a2.81,2.81,0,0,0,0,.29c0,1.09.25,2.05.16,3l0,.29c0,.13,0,.25,0,.37v.06h0s0,.07,0,.11a1.5,1.5,0,0,1,0,.2c0,.14,0,.28,0,.42s0,0,0,0a9.37,9.37,0,0,0,.23,2.12l0,.17a7.42,7.42,0,0,1,.25,1.09,2.16,2.16,0,0,1-.13,1.11c-.16.39-.36.76-.54,1.14a4.4,4.4,0,0,0-.5,1.87A5,5,0,0,0,52,32c.06.23.15.46.22.66s.16.36.24.5a4.94,4.94,0,0,1,.5.83v.07a2.06,2.06,0,0,1-.17.94c-.05.19-.11.39-.17.6-.17.57-.34,1.13-.47,1.7-.06.24-.1.49-.14.74a8.66,8.66,0,0,0-.13,1.71,18.86,18.86,0,0,0,.26,2.42c.07.39.13.77.2,1.15s.15.75.24,1.13.24,1,.37,1.44c0,.88,0,1.78,0,2.68l-.06.21a17.77,17.77,0,0,0-.92,3.27c0,.26-.07.52-.1.79s0,.44,0,.66A8.49,8.49,0,0,0,52,55.17l.11.43c0,.14.08.27.13.4a8.66,8.66,0,0,1,.41,1.34,4.4,4.4,0,0,1,.07.73,1.93,1.93,0,0,1,0,.24,7.14,7.14,0,0,1-.44,2.09.58.58,0,0,1,0,.14,2.71,2.71,0,0,0-.06,2.13c.07.15.13.3.18.44a2.93,2.93,0,0,1,.21.81,2,2,0,0,1-.09.88c-.1.33-.23.64-.3,1a3.67,3.67,0,0,0-.1.76A3.94,3.94,0,0,0,52,67,3.84,3.84,0,0,0,52.39,68c.21.45.12.5.06.92a1.36,1.36,0,0,0,0,.21.76.76,0,0,0,0,.26,2.45,2.45,0,0,0,0,.27c0,.17.07.38.11.58,0,0,0,.11,0,.16a1.27,1.27,0,0,0,.06.18,3.09,3.09,0,0,0,.09.31c0,.09.06.17.1.26s0,0,0,.06a0,0,0,0,1,0,0,.2.2,0,0,1,0,0h0v0l0,0a1,1,0,0,0,.06.14,1.11,1.11,0,0,0,.09.19.78.78,0,0,0,.1.15,1.29,1.29,0,0,0,.15.17l.15.12a.83.83,0,0,0,.15.11l.15.08,0,0a.08.08,0,0,0,0,0,.6.6,0,0,0,.08.08s0,0,0,0a0,0,0,0,0,0,0s0,0,0,0h0s0,0,0,0l.07.08a1.36,1.36,0,0,1,.24.39.19.19,0,0,1,0,.08.63.63,0,0,0,0,.16,2,2,0,0,1,0,.43s0,.1,0,.15a3.86,3.86,0,0,1-.19.54l-.14.33c0,.12-.08.23-.11.35l0,.1c0,.1,0,.22-.06.33l0,.32v.08h0v0h0v0a.34.34,0,0,1,0,.1,1.64,1.64,0,0,1,0,.22c0,.14,0,.31,0,.46a5,5,0,0,0,.59,1.66,4.21,4.21,0,0,0,.35.48.94.94,0,0,1,.09.12l.09.09.17.15,0,0h0s0,0,0,0,0,0,0,0h0l.09.07.2.14a3.78,3.78,0,0,0,.82.43h0s0,.09,0,.14a1.84,1.84,0,0,0,0,.25,1.47,1.47,0,0,0,.1.22,4,4,0,0,0,.77,1,2.35,2.35,0,0,0,.3.27,5,5,0,0,0,1.47.84,5.42,5.42,0,0,0,1.33.27h.52l.19,0h.17l.17,0,.18,0,.15,0a6.19,6.19,0,0,0,1-.49l.23-.15.25-.17a1.87,1.87,0,0,1,.31-.17l.06,0,1.48-.06a3.12,3.12,0,0,0,.3.24,5.12,5.12,0,0,0,.71.34c.23.09.47.15.7.23l.16,0,.63.2a5.9,5.9,0,0,0,.67.19,5,5,0,0,0,1.48.14l.2,0,.2,0,.21,0s0,0,0,0h.1l.08,0h0l.21-.09a1.4,1.4,0,0,0,.26-.16,1.71,1.71,0,0,0,.37-.32c.12-.09.22-.19.33-.27L71.9,82,72,82l.14,0a1.36,1.36,0,0,1,.39-.08,1.19,1.19,0,0,1,.38,0h.27a1.51,1.51,0,0,0,.3,0l.35-.06.2-.05.2-.06.22-.08.2-.11A1.82,1.82,0,0,0,75,81.2a1.14,1.14,0,0,0,.21-.28l0,0a1.12,1.12,0,0,0,.05-.13.65.65,0,0,0,0-.14,2.23,2.23,0,0,0,0-.27,1.26,1.26,0,0,1,0-.27.35.35,0,0,1,.22-.29c.11-.07.23-.1.33-.17a2,2,0,0,0,.34-.26,2.88,2.88,0,0,0,.22-.27,2.31,2.31,0,0,0,.18-.35l0,0v0s0,0,0,0l0-.08,0-.15a1.71,1.71,0,0,0-.06-.94,1.35,1.35,0,0,0-.12-.22L76.33,77l0,0a1.77,1.77,0,0,0-.56-.35h0c0-.15,0-.3,0-.44l.16-.08a2.2,2.2,0,0,0,.39-.32,2.13,2.13,0,0,0,.3-.47,1.76,1.76,0,0,0,.15-.61c0-.08,0-.16,0-.24v-.15h0v0s0,0,0,0a1.42,1.42,0,0,0-.06-.28l0-.07a.08.08,0,0,0,0-.05s0-.08,0-.12a3.7,3.7,0,0,0-.46-.72l-.29-.36a2.64,2.64,0,0,1-.23-.29l0-.06a.33.33,0,0,0,0-.06l0,0s0,0,0,0l0,0h0v0l0-.22c0-.09,0-.13,0-.18v-.08a.28.28,0,0,1,0-.09c0-.42,0-.89,0-1.43,0-.09,0-.18,0-.29s0-.21,0-.32a.85.85,0,0,1,0-.23c0-.24-.11-.47-.17-.7a9.22,9.22,0,0,0-.48-1.27,5.07,5.07,0,0,0-.33-.59l0,0c-.07-.75-.15-1.59-.23-2.5a.43.43,0,0,0,0-.07,6.08,6.08,0,0,0,.37-1.83,1.48,1.48,0,0,1,0-.21l.06-.81c0-.27,0-.54,0-.81s0-.27,0-.4,0-.27,0-.4a1.33,1.33,0,0,0,0-.2v-.22c0-.13,0-.28,0-.41s0-.57-.07-.84a0,0,0,0,1,0,0,2.39,2.39,0,0,0-.15-.54,8.11,8.11,0,0,1-.36-.93l0-.18s0-.06,0-.09,0-.12,0-.19a5.28,5.28,0,0,1,.13-1,4.78,4.78,0,0,0,.08-.76c0-.24,0-.53,0-.82v-.11h0v0h0a.13.13,0,0,1,0-.06c0-.06,0-.14,0-.21l-.09-.4a2.55,2.55,0,0,0-.13-.29l0-.06a1.27,1.27,0,0,0-.41-.35.7.7,0,0,1-.21-.21c-.16-.27.06-.53.13-.79a4.21,4.21,0,0,0,.12-.48l0-.37a3.4,3.4,0,0,0,0-.78,4,4,0,0,0-.22-.87,2.3,2.3,0,0,0-.22-.48l0,0a1.93,1.93,0,0,0-.48-.46l-.06-.68a1.4,1.4,0,0,0,.41-.51,3.49,3.49,0,0,0,.23-.83,2.6,2.6,0,0,0,0-.26,5.17,5.17,0,0,0,0-1,8.09,8.09,0,0,0-.09-.83,2.87,2.87,0,0,1,0-.31.7.7,0,0,1,0-.12,4.26,4.26,0,0,0-.11-.42,3,3,0,0,0-.17-.37,2.71,2.71,0,0,0-.21-.37s0,0,0,0h0l0,0a.71.71,0,0,1-.07-.09,1.29,1.29,0,0,1-.15-.17l-.15-.22L72.06,41l0-.38c0-.14,0-.26,0-.38a.25.25,0,0,1,.12-.13c.1-.07.26-.12.42-.22a1.91,1.91,0,0,0,.47-.42l.14-.22a1,1,0,0,0,.16.19,3.45,3.45,0,0,0,.27.25l.32.26h0a.83.83,0,0,0,.29.1,3.06,3.06,0,0,1,.56.18l.09.06,0,0a.27.27,0,0,1,.07.08,1.6,1.6,0,0,1,.18.56,1.56,1.56,0,0,0,.12.4,2.82,2.82,0,0,0,.21.38,1.1,1.1,0,0,0,.33.35.51.51,0,0,0,.18.09h0a1.1,1.1,0,0,0,.43,0,.94.94,0,0,1,.23,0c.21.06.1.3.1.46v.15s0,.05,0,.07,0,0,0,0h0s0,0,0,0h0c0,.08,0,.15,0,.21a1.18,1.18,0,0,0,.23.39,1.53,1.53,0,0,0,.18.18,2.07,2.07,0,0,0,.24.17,1.2,1.2,0,0,0,.33.13h0a1.58,1.58,0,0,0,.38,0l.41.65c0,.2-.08.38-.13.61a1.77,1.77,0,0,0,0,.23,3.07,3.07,0,0,0,.3,1,6.3,6.3,0,0,0,.34.69l.06.11s0,.06.06.1a3,3,0,0,0,.25.34,1.28,1.28,0,0,0,.29.28,1.78,1.78,0,0,0,.36.25l.14.07a.74.74,0,0,1,.34.31,3.48,3.48,0,0,1,.26.77,1.18,1.18,0,0,0,.07.2c.14.37.29.73.43,1.07l.12.26a2.56,2.56,0,0,1,.11.24c0,.08.09.16.13.24l0,.06h0s0,0,0,0h0s0,0,0,0a.83.83,0,0,1,.07.13l.07.1,0,.1a.82.82,0,0,0,.11.17,4,4,0,0,0,.3.46h0a4,4,0,0,0,1.18,1.08l.13.07,0,0h0l0,0,.11.05.18.08a2,2,0,0,1,.34.22,1,1,0,0,1,.38.69c0,.31,0,.62,0,.94a3.08,3.08,0,0,0,.07.68c0,.11.07.22.11.33a2.1,2.1,0,0,0,.15.3,1.69,1.69,0,0,0,.26.28,3.11,3.11,0,0,0,.33.29,4.08,4.08,0,0,0,.44.28,2.18,2.18,0,0,0,.38.18,3,3,0,0,1,.73.27l0,0a1.17,1.17,0,0,1,.19.64c0,.16.05.3.07.45s.08.43.11.64.11.41.17.62.06.18.1.27a1.44,1.44,0,0,0,.09.24,3.65,3.65,0,0,0,.25.53,3.09,3.09,0,0,0,.32.51,8.56,8.56,0,0,0,1.13,1.28,9.59,9.59,0,0,0,1.33,1.05c.18.12.35.23.53.33s.36.2.54.3l.07,0,0,0h0s0,0,0,0h0l.94,1.24c0,.07,0,.14,0,.22.06.41.11.81.19,1.2a5.84,5.84,0,0,0,.15.6,5.71,5.71,0,0,0,.21.58,4.19,4.19,0,0,0,.27.51.27.27,0,0,0,.06.1s0,0,0,0l0,0,0,0,.14.18a5.36,5.36,0,0,0,.4.43l.23.19.26.18a3.37,3.37,0,0,0,.56.3l.47.22a4,4,0,0,1,.45.26,2,2,0,0,1,.37.34l.1.15a4,4,0,0,1,.59,1.43l0,.11a1.41,1.41,0,0,0,.92,1.21l.34.11a1.25,1.25,0,0,1,.88.82,6.39,6.39,0,0,0,.22.7,1.61,1.61,0,0,0,.26.48,1.26,1.26,0,0,0,.22.24,2.43,2.43,0,0,0,.72.36.64.64,0,0,1,.2.08l.06,0h0l0,0h0s0,0,0,0a.35.35,0,0,1,.07.12l.15.21.08.08a.46.46,0,0,0,.07.07,1.74,1.74,0,0,0,.37.26,3.43,3.43,0,0,0,.44.19c.31.11.63.16.89.23a1.46,1.46,0,0,0,.29,0,1.06,1.06,0,0,0,.37-.08l.32-.16.31-.18a2.07,2.07,0,0,1,.34-.15.6.6,0,0,1,.26,0l.12,0,.13,0a2.08,2.08,0,0,1,.5.24,3.89,3.89,0,0,0,.5.25l.07,0a1.6,1.6,0,0,0,.48.11,3.29,3.29,0,0,0,.7,0,3.92,3.92,0,0,0,.59-.15,2.38,2.38,0,0,0,.57-.24c.11-.06.21-.14.31-.2a3.1,3.1,0,0,0,1-1l.17-.25c0-.09.09-.19.13-.28l.24-.12.16-.09a.67.67,0,0,1,.27-.13c.12,0,.21.1.33.09h.25a1.4,1.4,0,0,0,.18.13c.1.06.21.14.34.21a2,2,0,0,0,.22.09,3.18,3.18,0,0,0,1.14,0,6.42,6.42,0,0,0,.86-.14l.24-.07a2.84,2.84,0,0,0,.44-.15,2.92,2.92,0,0,0,.78-.45l.13-.1a.86.86,0,0,1,.48-.2,3.35,3.35,0,0,1,.88,0h.24c.21,0,.43,0,.64,0h.8l.16,0a2.07,2.07,0,0,0,.42-.14,2,2,0,0,0,.37-.17,2.26,2.26,0,0,0,.31-.23,3.19,3.19,0,0,0,.49-.48,3.55,3.55,0,0,0,.37-.61v0a3.93,3.93,0,0,0,.36-1.69v-.14c0-.61-.16-1.17.26-1.67.21-.26.46-.5.66-.77a2.73,2.73,0,0,0,.69-1.31,2.86,2.86,0,0,0,0-.91,4.1,4.1,0,0,0-.14-.53,2.51,2.51,0,0,0-.18-.4,3.58,3.58,0,0,1-.41-.69s0,0,0,0a1.25,1.25,0,0,1,.24-.68c.08-.15.14-.29.21-.44a12.8,12.8,0,0,0,.53-1.28c.07-.17.13-.37.18-.54a4.9,4.9,0,0,0,.18-1.29,11.31,11.31,0,0,0-.13-1.84,12.67,12.67,0,0,0-.37-1.73c-.12-.44-.25-.84-.38-1.25l-.12-.36v-.13c0-.2,0-.55,0-1a3.78,3.78,0,0,1,.19-.49c.09-.2.18-.41.25-.61a6.26,6.26,0,0,0,.21-.61,7.84,7.84,0,0,0,.31-1.27c0-.2.06-.4.07-.6a4,4,0,0,0,0-.49,4.28,4.28,0,0,0-.21-1.27,5.5,5.5,0,0,0-.23-.61,4.11,4.11,0,0,1-.38-1,2.05,2.05,0,0,1,0-.55c0-.07,0-.13,0-.19a4.46,4.46,0,0,1,.55-1.57l.06-.1a1.61,1.61,0,0,0,.18-1.61l-.16-.34a1.33,1.33,0,0,1,0-1.27c.12-.25.26-.48.36-.71a2,2,0,0,0,.16-.55,1.32,1.32,0,0,0,0-.35A2.1,2.1,0,0,0,124.35,40.48ZM75.48,72.12h0Zm-2-33.21a.13.13,0,0,1,0,.07s-.07.08-.13.1,0,0,0,0h-.06s0,0,0,0l.16-.24h0v0h0s0,0,0,0l0,0,0,0,0-.05h0l0,0s0,0,0,0A.05.05,0,0,1,73.5,38.91Z"/></clipPath><clipPath id="clip-path-3"><path class="cls-1" d="M60.75,30.87a1.94,1.94,0,0,1,0-.24,2.18,2.18,0,0,1,.16-.47l.21-.51a.19.19,0,0,1,0-.07,2.21,2.21,0,0,0,.07-.46,2.66,2.66,0,0,0,0-.63,4,4,0,0,0-.31-1.09c-.06-.12-.11-.22-.17-.32a4.51,4.51,0,0,0-.8-1.09l-.23-.22c-.15-.14-.32-.27-.49-.4l0,0a9.06,9.06,0,0,0-.5-1.1c0-.05,0-.09.05-.15a2.91,2.91,0,0,0,0-.31,2.54,2.54,0,0,0,0-.39c0-.12,0-.23,0-.35s0-.45,0-.68a3.76,3.76,0,0,0,0-.57.8.8,0,0,0,0-.15.25.25,0,0,0,0-.08s0-.05,0-.07l0-.13a.17.17,0,0,1,0-.07v0h0s0,0,0,0l-.12-.31c-.1-.19-.18-.38-.29-.55a3.69,3.69,0,0,0-.74-.89l-.15-.15a1.32,1.32,0,0,1-.4-.54,4.61,4.61,0,0,1-.15-.53c0-.19-.07-.38-.11-.57s0-.19-.07-.29-.09-.26-.13-.39l-.15-.39c-.1-.27-.23-.51-.34-.77a8,8,0,0,0-.91-1.4c-.17-.2-.34-.38-.52-.56a.23.23,0,0,1-.07-.07h0l0,0-.17-.13a2.88,2.88,0,0,0-.35-.26h0a7.89,7.89,0,0,0-1.94-1l-.17-.07c-.28-.09-.56-.19-.83-.3-.46-.49-.92-1-1.39-1.48-.08-.16-.16-.34-.25-.51A3.74,3.74,0,0,0,48,8.4a3.2,3.2,0,0,0-.52-.29,6.32,6.32,0,0,0-.61-.22,4.92,4.92,0,0,0-.72-.16c-.21,0-.41-.07-.57-.08h-.76l0,0a.49.49,0,0,0-.21,0h0a1,1,0,0,1-.36-.19c-.13-.1-.25-.21-.38-.3l-.51-.37a11,11,0,0,0-1.57-1A6.66,6.66,0,0,0,41,5.47a6.84,6.84,0,0,0-1.73-.41A15.26,15.26,0,0,0,36.73,5a18.23,18.23,0,0,0-2.38.27c-.6.13-1.15.24-1.7.4l-.46.13a.86.86,0,0,0-.27,0l-1,.11-.31,0h-.17l-.19,0-.4-.09-.42-.09c-.13,0-.28-.05-.42-.06s-.57-.09-.86-.12a14.6,14.6,0,0,0-1.75,0,7.59,7.59,0,0,0-.81.07c-.22,0-.45.06-.66.11a7.59,7.59,0,0,0-1.65.54c-.27.13-.53.28-.77.42a9,9,0,0,1-1.28.77,4.66,4.66,0,0,1-.73.3l-.25,0a9.55,9.55,0,0,1-2.2.06h-.15a3.54,3.54,0,0,0-1.13,0,2.6,2.6,0,0,0-1,.52l-.09.08,0,0h0l-.05,0-.18.18c-.11.1-.23.19-.35.28l-.36.24a2.19,2.19,0,0,1-.87.32c-.37.08-.7.14-1,.23a3,3,0,0,0-.74.32,3.24,3.24,0,0,0-.4.28,5.35,5.35,0,0,0-.41.42,3.46,3.46,0,0,0-.31.47c-.27.44-.36.39-.77.6l-.2.11a4.56,4.56,0,0,0-.43.36c-.14.14-.26.28-.39.43L9,12.9l-.18.23c-.11.13-.22.26-.33.37s-.14.19-.2.28c-.33.52-.25,1.06-.59,1.64a2.17,2.17,0,0,1-1.19.81l-.35.13-.33.16-.09,0a4,4,0,0,0-.55.4L5,17.13a1,1,0,0,0-.17.18l-.17.21a.61.61,0,0,0-.07.1l-.07.09c0,.06-.07.12-.11.17s0,0,0,0l0,0,0,0h0a.93.93,0,0,1-.05.1c-.06.13-.13.25-.19.38s0,.14-.08.2a1.07,1.07,0,0,0-.07.19c-.05.13-.09.25-.13.38a.53.53,0,0,0,0,.12l0,.12c0,.07,0,.13,0,.2s-.06.3-.1.45l-.09.44c0,.26-.08.53-.11.83l0,.28a3.22,3.22,0,0,1-.56,1.09,1.75,1.75,0,0,1-.24.11c-.08.06-.17.1-.24.16a5,5,0,0,0-.92.91,4.7,4.7,0,0,0-.55.82c0,.08-.09.19-.13.27a1.88,1.88,0,0,0-.16.56.76.76,0,0,0,0,.15.57.57,0,0,0,0,.13c0,.1,0,.17,0,.25a2.92,2.92,0,0,0,.19.49c0,.05.05.11.08.17a1.19,1.19,0,0,1,.1.32c0,.11-.05.22-.07.32a1.59,1.59,0,0,0,0,.36.06.06,0,0,1,0,0c-.05.16-.11.32-.16.48s-.06.17-.08.25-.06.23-.09.35l-.11.29c-.05.11-.09.22-.14.32s-.08.22-.13.34-.07.25-.1.38,0,.27-.07.41,0,.5,0,.75a2,2,0,0,0,0,.34c0,.1,0,.21.05.33s.05.23.08.35.07.23.11.35v0a10,10,0,0,0,.78,1.65l.08.14a3.61,3.61,0,0,1,.23.44,3.57,3.57,0,0,1,.16.46,1.5,1.5,0,0,1-.08,1c-.07.17-.14.35-.23.52s-.08.17-.12.26L1,37.5a1.8,1.8,0,0,0-.08.21.23.23,0,0,0,0,.11l0,.11a3.55,3.55,0,0,0-.06.47.37.37,0,0,0,0,.11s0,.06,0,.1v.2a2,2,0,0,0,.07.42,3.28,3.28,0,0,0,.15.44c.07.15.14.31.23.47s.22.36.32.52.21.29.3.4a3,3,0,0,1,.62.67s0,0,0,.05a1.41,1.41,0,0,1-.09.83c0,.17-.08.35-.12.53a9.34,9.34,0,0,0-.12,1.58c0,.22,0,.44,0,.66a9.5,9.5,0,0,0,.23,1.4c.08.32.15.62.2.91,0,.07,0,.15,0,.21s0,.08,0,.11a.41.41,0,0,0,0,.11.34.34,0,0,0,0,.1s0,0,0,.06v.07a2.53,2.53,0,0,1,0,.27,4.51,4.51,0,0,0,0,.54c0,.18.05.35.08.53s0,.17.05.26A1,1,0,0,1,3,50.2c.06.17.1.33.15.49l.28.71c.11.23.21.45.33.67l.21.37a2.75,2.75,0,0,1,.23.59,3.72,3.72,0,0,1,0,1.29,15.5,15.5,0,0,0-.11,3c0,.22,0,.44,0,.67s0,.36.08.53a5.6,5.6,0,0,0,.41,1.41,4.67,4.67,0,0,0,.34.67,8.33,8.33,0,0,1,.58,1.11,2.18,2.18,0,0,1,.15.61c0,.08,0,.14,0,.22a6.17,6.17,0,0,1-.26,1.87s0,.09,0,.13a2,2,0,0,0,.19,1.87,3.53,3.53,0,0,1,.24.34,1.63,1.63,0,0,1,.34,1.43c0,.15-.07.3-.11.45s-.08.27-.11.41a2.73,2.73,0,0,0-.06.64,1.43,1.43,0,0,0,.06.39,2.84,2.84,0,0,0,.39.85c.21.36.12.41,0,.78,0,.06,0,.13,0,.19a3.11,3.11,0,0,0,.13.93c.09.32.18.64.24.91a1.17,1.17,0,0,0,.11.3c.25.5.77.69,1.07,1.21a1.38,1.38,0,0,1,0,1.22c-.07.21-.15.39-.22.57a.24.24,0,0,1,0,.08l-.06.25a1.93,1.93,0,0,0,0,.27,2.15,2.15,0,0,0,0,.44c0,.07,0,.16,0,.23a1.6,1.6,0,0,0,0,.21,3.91,3.91,0,0,0,.2.68c.08.2.16.41.25.6s.13.25.18.35A9.71,9.71,0,0,0,9,81.38a1,1,0,0,1,.14.2l0,.07a.61.61,0,0,1,.05.12,4.53,4.53,0,0,0,0,.52c-.1.23-.21.46-.31.71a3.92,3.92,0,0,0-.13.49,2.46,2.46,0,0,0,0,.28,1.13,1.13,0,0,0,0,.3,1.81,1.81,0,0,0,.09.31c0,.07.07.14.12.22l0,0s0,0,0,0l0,0s0,0,0,.08a.64.64,0,0,0,.1.13,1.25,1.25,0,0,0,.23.23,1.79,1.79,0,0,0,.26.2,2.64,2.64,0,0,0,.29.15,3.64,3.64,0,0,0,1.22.3h.37s0,0,0,0h.13a.59.59,0,0,1,.22,0,.86.86,0,0,1,.2.13.9.9,0,0,0,.19.14l.19,0h0a0,0,0,0,0,0,0h0l.08,0,.08,0,.08,0a.92.92,0,0,1,.29.26,1.49,1.49,0,0,1,.18.3,4.25,4.25,0,0,0,.32.64l.12.14.06.08s0,0,.05.06a2.19,2.19,0,0,0,.2.22,2.28,2.28,0,0,0,.4.35,3.23,3.23,0,0,0,.53.3A7.49,7.49,0,0,0,16.3,89l.35.07.17,0H17a2,2,0,0,0,.35,0,2,2,0,0,0,.35,0,3.35,3.35,0,0,0,1.21-.51l.61-.39c.39.05.79.09,1.21.12l.26,0a6.46,6.46,0,0,0,1,.47,2.68,2.68,0,0,0,.49.11,5.57,5.57,0,0,0,1.47,0,3.55,3.55,0,0,0,.47-.06.78.78,0,0,0,.22,0,1.06,1.06,0,0,0,.19-.06l.18-.06a2.64,2.64,0,0,0,.92-.61,1.8,1.8,0,0,0,.19-.2l.15-.17.13-.17.12-.16c.15-.19.27-.37.38-.5a.22.22,0,0,1,.07-.09l0,0s0,0,0,0,.05,0,.05,0,0,0,0,0h.32l.48,0,.35,0,.45-.07a2.91,2.91,0,0,0,.82-.25,2.13,2.13,0,0,0,1-.81c.07-.13.14-.24.21-.36a.34.34,0,0,1,0-.12c0-.1.07-.19.1-.29s0-.09.05-.14a.14.14,0,0,0,0-.07l0,0s0,0,0,0,0-.08,0-.13a.3.3,0,0,0,0-.1c0-.12,0-.21.05-.29a.06.06,0,0,1,0,0s0,0,0,0l0-.08a.7.7,0,0,1,.06-.09.6.6,0,0,1,.06-.11l.1-.17a1.24,1.24,0,0,0,.1-.2c0-.07.06-.15.1-.23a1.27,1.27,0,0,0,.07-.24,1.5,1.5,0,0,0,0-.47.85.85,0,0,0,0-.22v0a1.08,1.08,0,0,0,.1-.27,1.57,1.57,0,0,0,.08-.31,2.07,2.07,0,0,0-.06-.79s-.08-.1-.14-.16a1.22,1.22,0,0,0,.17-.15.89.89,0,0,0,.31-.75,1.15,1.15,0,0,0,0-.26,1.87,1.87,0,0,0-.07-.22,2,2,0,0,0-.22-.41l-.19-.21-.19-.13a3.22,3.22,0,0,0-.45-.21l-.11,0c0-.07.06-.14.1-.21a1.2,1.2,0,0,1,.31-.37l.17-.12s0,0,0,0,0,0,0,0a.21.21,0,0,0,0-.11.45.45,0,0,0,0-.11.69.69,0,0,0,0-.25,2,2,0,0,0-.21-.36c-.16-.2-.38-.42-.59-.66s-.34-.4-.47-.58a.75.75,0,0,1-.07-.12c0-.23-.09-.46-.14-.69a1.43,1.43,0,0,1,.11-.21,4.86,4.86,0,0,0,.27-.49,1.58,1.58,0,0,0,.17-.47,1.18,1.18,0,0,0-.09-.82,4.33,4.33,0,0,0-1.09-1.45l-.06,0c-.19-.87-.37-1.74-.57-2.6l.11-.14A2.58,2.58,0,0,0,29,68a3.56,3.56,0,0,0,.33-1,4.53,4.53,0,0,0,.07-.62,9.8,9.8,0,0,0,0-1.71c0-.21,0-.41-.07-.62a2.23,2.23,0,0,0,0-.23,6.43,6.43,0,0,0-.35-1.21c-.08-.21-.17-.42-.25-.62a8.76,8.76,0,0,0-.39-.82A2.92,2.92,0,0,0,28,60.8a1.29,1.29,0,0,0-.32-.29,1.24,1.24,0,0,0,.14-.18l.13,0a2.41,2.41,0,0,0,.6,0,2,2,0,0,0,.39-.1l.27-.1.25-.1a3.69,3.69,0,0,1,.42-.17,1.36,1.36,0,0,1,1,0l.2.09.45.17.47.13a3.41,3.41,0,0,0,.46.05h.25l.23,0,.18,0,.29-.09.26-.1.25-.12h0s0,0,.06,0l.07,0h0s0,0,0,0l.08-.05.1-.06.1-.05.17-.1.16-.1a.87.87,0,0,0,.18-.11l.08-.07.05,0h0s0,0,0,0A1.07,1.07,0,0,0,35.3,59l.06-.1a.54.54,0,0,0,.07-.13c0-.08.08-.18.11-.26a1.27,1.27,0,0,1,.18-.35l.39,0,0,0a3.05,3.05,0,0,0,.41.46,1.28,1.28,0,0,0,1.08.23,2.26,2.26,0,0,0,.37-.11c.37-.15.53-.48.73-.76a1.66,1.66,0,0,1,.26-.27l0,0a.6.6,0,0,1,.11-.06,2.73,2.73,0,0,1,.84.07c.16,0,.33,0,.49,0h.87l.16,0,.08,0h.07s0,0,.05,0h0l0,0,.25-.1a2.71,2.71,0,0,0,.41-.23l.13-.08a5.45,5.45,0,0,0,.63-.52l.09-.1a1.7,1.7,0,0,1,.14-.1l.14-.1a1.67,1.67,0,0,1,.16-.12l.3-.21a5.4,5.4,0,0,0,.56-.48l.22-.2.15-.16,0,0h0s0,0,0,0l.09-.11a.43.43,0,0,0,.09-.21.34.34,0,0,1,0-.1l.24-.15.18-.11a2.07,2.07,0,0,0,.49.07l.54-.08.25,0A10.1,10.1,0,0,0,48.49,54l.43-.25a1.9,1.9,0,0,0,.87-1.17,4,4,0,0,0,.16-.49L50,52a2,2,0,0,1,.32-.58,1.84,1.84,0,0,1,.2-.19,1.18,1.18,0,0,1,.22-.14l.12-.06h.06l0,0h0l.3,0h0a2.58,2.58,0,0,0,.37-.06,3.1,3.1,0,0,0,.4-.13,1.24,1.24,0,0,0,.61-.49.47.47,0,0,0,.09-.22,1.06,1.06,0,0,0,0-.31,1.1,1.1,0,0,0-.11-.32l.5-.44h.22a.58.58,0,0,0,.19,0l.12-.06a1.19,1.19,0,0,0,.41-.32,1.28,1.28,0,0,0,.28-.65,3.49,3.49,0,0,0-.07-.37.38.38,0,0,0,0-.1,3.73,3.73,0,0,1,.56-.32,8.1,8.1,0,0,0,2.2-1.29c.14-.14.28-.3.42-.46s.19-.27.28-.41a5.52,5.52,0,0,0,.26-.55c.07-.2.13-.38.18-.57a6.38,6.38,0,0,0,.12-.63,5.94,5.94,0,0,1,.17-1,1.68,1.68,0,0,1,.22-.47c0-.06.07-.1.1-.15A3.87,3.87,0,0,1,59.4,41a2.55,2.55,0,0,1,.3-.26l.17-.14.17-.15.1-.07a1.79,1.79,0,0,0,.54-.7,1.75,1.75,0,0,0,.09-.41,1.33,1.33,0,0,0-.05-.43c0-.12-.07-.24-.1-.35l-.06-.3a1.43,1.43,0,0,1,0-.29.86.86,0,0,1,.29-.54l.14-.13.14-.13a3.5,3.5,0,0,0,.27-.28,2.14,2.14,0,0,0,.32-.5,1.53,1.53,0,0,0,.11-.79,3.39,3.39,0,0,0-.08-.44.83.83,0,0,1,0-.39c0-.1.1-.18.17-.35l.06-.17L62,34a.89.89,0,0,0,0-.23,2.5,2.5,0,0,0,0-.47c0-.15-.07-.32-.11-.46s-.07-.25-.1-.36a.76.76,0,0,0-.08-.23,1.08,1.08,0,0,0-.21-.22c-.06-.06-.15-.12-.22-.18a1.31,1.31,0,0,1-.12-.11.49.49,0,0,1-.11-.14,1.2,1.2,0,0,1-.18-.31.61.61,0,0,1,0-.13s0-.09,0-.13ZM25.07,41.3a3.13,3.13,0,0,0-.44,0c-.36,0-.73,0-1.1,0a1.2,1.2,0,0,0-.28,0,1.44,1.44,0,0,1,.07-.23,1.07,1.07,0,0,0,.07-.19,3.12,3.12,0,0,0,.09-1c0-.26,0-.52,0-.79a1.87,1.87,0,0,0,0-.25,2.07,2.07,0,0,0-.1-.43,2.61,2.61,0,0,0-.41-.77l-.1-.13a.7.7,0,0,1-.14-.47,3,3,0,0,1,.21-.83,1.72,1.72,0,0,0,.07-.21l.12-.62c0-.22.06-.4.08-.61a7.4,7.4,0,0,0,.07-1.15,2.45,2.45,0,0,1,0-.27v-.24a2.41,2.41,0,0,0-.14-.63v0c-.17-.56-.31-.48-.39-.71a1,1,0,0,1,0-.18,1.31,1.31,0,0,1,0-.23.89.89,0,0,0,0-.15,1,1,0,0,0,0-.23,1.55,1.55,0,0,1,0-.22,2.85,2.85,0,0,1,0-.42,2.11,2.11,0,0,1,.11-.38,2.9,2.9,0,0,1,.17-.39,1.11,1.11,0,0,1,.26-.36.64.64,0,0,1,.37-.16l.14,0a.56.56,0,0,0,.19-.07,2.15,2.15,0,0,0,.37-.19,2.07,2.07,0,0,0,.6-.58,2.4,2.4,0,0,0,.32-.8c0-.15,0-.27.06-.38a.66.66,0,0,1,.16-.34,7.19,7.19,0,0,1,.37-.69s0,0,0,0a.74.74,0,0,1,.27-.16,2,2,0,0,0,.35-.11l.46-.2c.14,0,.27-.1.41-.13a.72.72,0,0,1,.19,0,.55.55,0,0,1,.18,0,.58.58,0,0,1,.19,0l.09,0a.19.19,0,0,0,.09,0,1.71,1.71,0,0,0,.29.08l.19,0h.15a3.25,3.25,0,0,0,.71,0l.2,0,.16,0,.28,0a2.48,2.48,0,0,1,.66-.05l.36.05.46.08a5.27,5.27,0,0,0,1,.1c.17,0,.34,0,.5,0l.44-.09a1.13,1.13,0,0,1,.32,0l.33.06c.23,0,.44.11.65.16l.4.1a2,2,0,0,1,.46.23,3.94,3.94,0,0,0,.44.62l.15.12c0,.09.09.17.13.27.15.4.32.8.43,1.2S37,29,37,29.36c0,.18.06.36.11.55s.08.3.13.45a3.51,3.51,0,0,0,.61,1.14,4,4,0,0,0,.44.47,2.41,2.41,0,0,1,.53.66h0a2.56,2.56,0,0,0-.05.27c-.06.37-.1.74-.14,1.1a6,6,0,0,1-.78,1l-.09.1c-.42.39-.68.64-.7,1.18a1.76,1.76,0,0,1,0,.33,1.08,1.08,0,0,1-.7.91c-.25.08-.47.14-.68.22l-.24.11a.82.82,0,0,0-.2.12,1.68,1.68,0,0,0-.21.18,2.29,2.29,0,0,0-.36.61c-.19.3-.26.24-.55.29a.43.43,0,0,0-.16.05,14,14,0,0,0-1.47.83,1.28,1.28,0,0,0-.23.14,2.24,2.24,0,0,0-.42.54,1.65,1.65,0,0,1-.49.54,1.28,1.28,0,0,1-1.19,0l-.55-.25-.07,0a4,4,0,0,0-.45-.16c-.21-.06-.41-.1-.6-.14l-.25-.05-.28,0a5,5,0,0,0-.69,0l-.45,0a3.18,3.18,0,0,0-.84.27,2.55,2.55,0,0,0-.61.38l-.23.18-.05,0ZM45,55.25h0Z"/></clipPath><clipPath id="clip-path-4"><path class="cls-1" d="M71,107.23a4.3,4.3,0,0,0-1-5.64,8.32,8.32,0,0,0-.4-1.19,8.67,8.67,0,0,0,.22-3h0c-.13-1.09-1-1.77-1.45-2.68a9.06,9.06,0,0,0-2-5.2h0a0,0,0,0,1,0,0,5,5,0,0,0-.53-.5h0c-4.71-2-3.67-6.36-8.68-6.64-3.52-4.21-8.92-3.3-13.71-3.19h0c-3.48-1.44-7-.86-10.24.75-1.67.32-3.46-.88-4.92.29h0s0,0,0,0a0,0,0,0,1,0,0h0c-1.13,1.18-2.89.62-4.18,1.48C23,83,21.42,83.5,20.35,84.84c-.64,2.77-3,1.82-4.34,3.81a9.69,9.69,0,0,0-1.33,3.58c-.65,1.52-2.83,1.83-3.18,3.63.82,3.59-2.65,4.88-.41,8.87,1.28,2-1.69,3.66-.42,5.71.25.94,1.55,1.54.92,2.58a18.38,18.38,0,0,0,.69,10.58c-.64,3.22-.78,6.31.56,9.38.12,1.44-1.26,2.69-.52,4.07,1.07,1.15-.1,2.41,0,3.69.06.59.62,1.09.28,1.68a4.32,4.32,0,0,0,1.17,3.68c.33.7-.36,1.42-.55,2.08-.43,1.56.52,3.17,1.2,4.49.23.86-.74,1.49-.6,2.38a2.6,2.6,0,0,0,2.6,2h0c.38-.05.53.38.87.45h.06c.72.27.65,1.14,1.07,1.66a4.13,4.13,0,0,0,5.62,1.1,7.67,7.67,0,0,0,1.46.24,4.26,4.26,0,0,0,6.18-.95c0-.06.1-.08.12,0,1.57.24,3.49,0,4-1.76.15-.87,1.08-1.46.89-2.41.25-.43.46-1.17.14-1.53,1.06-.56.5-2.17-.53-2.44,1.95-1.67-.54-1.89-.45-3.75,1.11-1.11.74-2.53-.34-3.55l-.3-2.65c1.62-2.18,1.31-5.81-.18-8a1.29,1.29,0,0,0,.16-.17,3.46,3.46,0,0,0,2.1-.24c.88-.24,1.67.7,2.56.73H40a3.21,3.21,0,0,0,1.37-.25h0s.1,0,.16-.06h0c.33-.19.71-.29,1-.51h0c.35-.18.47-.68.71-1l.4,0c.88,1.62,2.15.72,3.09-.17a13.67,13.67,0,0,0,2.49.3l.06,0h0A13.38,13.38,0,0,0,52.81,130h0a.7.7,0,0,0,.28-.44l.45-.21c1.47.25,3.7,0,4.36-1.52.25-.59.55-1.33,1.26-1.43s2.41-.22,2-1.42l.53-.39a1.14,1.14,0,0,0,1.29-1.42c3.45-.88,3.94-2.42,5.09-5.41.66-.78,2-1,2.17-2.1-.52-1.88.74-1.81,1.38-3.18.16-.39,0-.93,0-1.29a2.75,2.75,0,0,0,.23-2.25C71.71,108.26,70.85,108,71,107.23ZM34.35,114a9.23,9.23,0,0,0-1.82-.21c.77-1.41.35-3-.16-4.32.55-1.57,1.45-3.73.53-5.28a.84.84,0,0,1,0-.41c.3-3.38,2.44-1.17,3.31-4.39a2.52,2.52,0,0,1,3.23-.87c1.75,0,3.46.56,5.22.53,3.93.59,1.86,5.5,4.28,7.69,0,1.65-1.65,2.12-2.12,3.43-.08.51-.26,1-.86,1.16a2.07,2.07,0,0,0-1.81,1.07c-.22.27-.28.21-.58.23a6.08,6.08,0,0,0-3,1.82c-2,.08-4.07-2.34-6.26-.45ZM52.78,130h0Z"/></clipPath><clipPath id="clip-path-5"><path class="cls-1" d="M174.83,110.52a4.24,4.24,0,0,0-.32-5.63,10,10,0,0,0-.26-1.21,8.65,8.65,0,0,0,.55-2.86,0,0,0,0,1,0,0c0-1.07-.79-1.84-1.12-2.78a9,9,0,0,0-1.32-5.32h0a6.22,6.22,0,0,0-.46-.56h0c-4.38-2.5-2.87-6.64-7.74-7.48-3-4.52-8.35-4.24-13.05-4.67h0c-3.24-1.8-6.74-1.63-10.11-.43-1.67.13-3.29-1.25-4.84-.27h0s0,0,0,0h0c-1.24,1-2.9.28-4.25,1-1.25,1.11-2.84,1.44-4,2.63-1,2.64-3.11,1.45-4.69,3.24a9.65,9.65,0,0,0-1.7,3.35c-.81,1.42-3,1.47-3.53,3.19.39,3.61-3.14,4.47-1.41,8.63,1,2.07-2.06,3.4-1,5.55.13,1,1.34,1.68.61,2.62a18,18,0,0,0-.53,10.43c-1,3.08-1.47,6.09-.51,9.25,0,1.42-1.55,2.48-1,3.92.91,1.24-.37,2.34-.44,3.61,0,.58.48,1.14.09,1.67a4.25,4.25,0,0,0,.72,3.74c.24.72-.51,1.35-.77,2-.61,1.48.14,3.16.66,4.53.13.87-.9,1.37-.85,2.26,0,1.25,1.24,2.06,2.31,2.24h0c.38,0,.48.44.8.54h0l0,0h0c.67.34.5,1.19.86,1.74a4.06,4.06,0,0,0,5.37,1.71,7.08,7.08,0,0,0,1.4.41,4.21,4.21,0,0,0,6.16-.23c.05-.06.11-.07.12,0,1.51.4,3.42.38,4.12-1.27.25-.84,1.22-1.31,1.15-2.26.29-.4.58-1.09.31-1.48,1.1-.43.74-2.07-.25-2.45,2.1-1.41-.3-1.91,0-3.72,1.21-1,1-2.4.07-3.51,0-.88,0-1.75,0-2.63,1.84-1.94,2-5.54.74-7.83a1.14,1.14,0,0,0,.17-.15,3.36,3.36,0,0,0,2.08,0c.89-.13,1.55.88,2.42,1h.11a3,3,0,0,0,1.37-.09h0c.06,0,.11,0,.16,0h0a10.14,10.14,0,0,0,1-.38h0c.37-.14.54-.61.8-.87l.4.06c.67,1.69,2,.94,3,.18a12.84,12.84,0,0,0,2.41.58h.08a13.17,13.17,0,0,0,3.66-1.67h0a.7.7,0,0,0,.31-.39l.47-.17c1.4.42,3.61.43,4.43-1,.32-.55.69-1.24,1.4-1.26s2.38.07,2.09-1.16l.57-.32a1.11,1.11,0,0,0,1.41-1.24c3.49-.47,4.14-1.92,5.6-4.72.74-.68,2-.77,2.36-1.81-.3-1.9.93-1.69,1.72-3,.19-.36.05-.91.16-1.25a2.66,2.66,0,0,0,.49-2.18C175.39,111.61,174.58,111.23,174.83,110.52ZM138.18,113a9.47,9.47,0,0,0-1.75-.41c.91-1.29.67-2.85.33-4.24.72-1.47,1.84-3.49,1.12-5.11a.67.67,0,0,1,.08-.4c.67-3.27,2.51-.87,3.73-3.92a2.48,2.48,0,0,1,3.26-.48c1.7.23,3.32.94,5.05,1.1,3.77,1,1.19,5.6,3.31,8-.15,1.61-1.85,1.89-2.46,3.11-.14.49-.38,1-1,1a2.08,2.08,0,0,0-1.9.84c-.25.24-.3.17-.59.16a5.92,5.92,0,0,0-3.12,1.44c-2-.15-3.72-2.75-6.08-1.15Zm16.23,17.69h0Z"/></clipPath><clipPath id="clip-path-6"><path class="cls-1" d="M182.84,98.7c0,.1.13.21.2.33-3.72,6.2-.54,7.53-4,13.31-.33.91.06,1.89.07,2.82,0,1.51-2.58,2.16-1.64,3.79.61,1.24-1.59,1.83-1,3.14.13.38-.14.39-.33.64a2.83,2.83,0,0,0,0,3c-1,2.1-1.93,2.67-.33,5.16a2.6,2.6,0,0,0,0,.57c-1,2.48,2.5,5.39,4.81,4.05a15.75,15.75,0,0,0,1.74.88,3.79,3.79,0,0,0,5.17,1.85c1.16.56,3,1.27,3.44-.48a1.87,1.87,0,0,0,2-1.29,2.68,2.68,0,0,0,1.89-2.93c2.35-3.65,2.35-2.45,2.44-6.93,1.39-.77,2.56-2,1.46-3.65,3-4.52,2.26-4.56,3-9.75,2.64-1.69,2.1-3.39,2.47-5.91,1-1.37,2.26-1.34,1.67-3.4.31-.87,1.75-1.13,1.36-2.32-.08-.39.2-.39.4-.66a2.54,2.54,0,0,0-.28-3c-.17-.52.58-.86.93-1.14a3.17,3.17,0,0,0,0-4.24l.06-.19c2.16-.32,1.57-3.21,0-4a9.57,9.57,0,0,1-3.62-3.74c-2.74-.43-1.72,1.35-3.63-1.81-.73-.84-1.74-.55-2.63-.51-.49-1-1.58-.2-2.46-.63-1.1-.48-1.57,1-2.55.76-1.69-2.4-6.4-1.22-6,1.9a2.81,2.81,0,0,0-1.32,2.27c-.1.66.49,1.3.12,1.92-.92.8-2.24,1.22-2.65,2.53a3.76,3.76,0,0,0,.2,2.66C185.29,95.77,181.37,96.28,182.84,98.7Z"/></clipPath><clipPath id="clip-path-7"><path class="cls-1" d="M192.85,153.94h0c.12-1-.47-1.84-.44-2.81.42-1.61,1.56-3.38-.74-4.29a2.61,2.61,0,0,0-.49-1.08c.46-3.66-3.05-4.5-5.59-5.48-1.88-.53-3.44-2.58-5.57-1.89-2.48,1.94-4.2-.66-5.59,1.14-.6,1-2,.24-2.76,1-.34.22-.43.8-.69,1a2.38,2.38,0,0,0-1.35,3,2.29,2.29,0,0,0-.68,1.17c-1.68.89-1,2.86-1.16,4.34-1.3.44-.54,1.65-.24,2.51-.63,1.61-.61,4.32,1.77,4.23l.39.68c-.94,1.25.42,1.92,1.44,2.18a2.82,2.82,0,0,0,4.19,2.42c.31.21.87.18,1.09.46a12.45,12.45,0,0,1,1.93.39c.89,1.71,2.56,1.61,3.91.55.83-.3,2.78.59,2.61-1a6.12,6.12,0,0,0,.5-.39.86.86,0,0,0,1.22-.94,5.21,5.21,0,0,0,1.08-.78,3.12,3.12,0,0,0,2.75-2.73C191.47,156.62,192.73,155.46,192.85,153.94Z"/></clipPath><image id="image" width="266" height="350" xlink:href="included_images/letters/letter_P.jpg"/><image id="image-2" width="110" height="350" xlink:href="included_images/symbol/symbol_exclamation%202.16.43%20PM.jpg"/></defs><g class="cls-2"><image width="270" height="350" transform="matrix(0.22, 0.06, -0.06, 0.22, 133.14, -3.22)" xlink:href="included_images/letters/letter_H_pink.jpg"/></g><g class="cls-3"><image width="319" height="350" transform="translate(51.77 2.8) scale(0.23 0.23)" xlink:href="included_images/letters/letter_N_pink.jpg"/></g><g class="cls-4"><image width="265" height="350" transform="matrix(0.23, -0.04, 0.04, 0.23, -4.75, 10.93)" xlink:href="included_images/letters/letter_P_pink.jpg"/></g><g id="p"><g class="cls-5"><use transform="translate(7.69 80.95) rotate(-4.41) scale(0.23)" xlink:href="#image"/></g></g><g id="p-2" data-name="p"><g class="cls-6"><use transform="translate(115.85 77.63) rotate(2.2) scale(0.23)" xlink:href="#image"/></g></g><g id="_" data-name="!"><g class="cls-7"><use transform="translate(187.63 78.47) rotate(16.66) scale(0.24)" xlink:href="#image-2"/></g><g class="cls-8"><use transform="translate(187.63 78.47) rotate(16.66) scale(0.24)" xlink:href="#image-2"/></g></g><image width="728" height="901" transform="translate(55.85 69.42) scale(0.1)" xlink:href="included_images/medallion_pink.png"/></svg>