<svg id="time-is-up" xmlns="http://www.w3.org/2000/svg" xmlns:xlink="http://www.w3.org/1999/xlink" viewBox="0 0 792.42 120.79"><defs><style>.uuid-51cf9bf2-3cb8-4f66-bf11-d87374089fa1{fill:none;}.uuid-3313ac6f-a54b-4773-96a1-432acfdf1678{clip-path:url(#uuid-0e803f1a-acc5-4d51-a192-f026f87d6d8a);}.uuid-c1ef48b5-792d-409f-aff4-ac1cbd882999{clip-path:url(#uuid-bf216cfe-1ad3-4439-9aff-5193065f037a);}.uuid-cf1c9cdb-71b9-4032-8e8d-b1a1d7e7b206{clip-path:url(#uuid-fba1f56c-dadc-49a8-985d-56b4b1165433);}.uuid-4bd91b84-ab57-4d67-bd91-d109e0acad7a{clip-path:url(#uuid-225636f4-cdf0-4bc5-b1ab-3c64ae75cdeb);}.uuid-8c3aa65f-ef1d-4dac-8152-894b32a41d80{clip-path:url(#uuid-2f402fde-5f27-4ad4-b680-35daead46cdb);}.uuid-a968d1cc-8c0c-42cd-a177-19a17c7f7018{clip-path:url(#uuid-471375c9-41c2-48f8-8bf4-195068eb7785);}.uuid-01ac5ba6-d3c4-4e69-8bf2-2079348ada8f{clip-path:url(#uuid-2cc50f4c-11cb-4bdd-b8b0-3c0a127b82f8);}.uuid-5f437afb-4fcb-4038-b2dd-b5548df599fe{clip-path:url(#uuid-1c583218-8629-445b-a745-b2c8c7f11ead);}.uuid-edb8f716-1a5c-4eb4-a053-f5ccf4de379a{clip-path:url(#uuid-8f3fd993-e920-4a51-8772-c8e442b36af0);}.uuid-9e471f1f-5a92-4be4-b1ee-a5f80ac52159{clip-path:url(#uuid-c629e76d-5746-4193-b744-960536dde5ea);}</style><clipPath id="uuid-c629e76d-5746-4193-b744-960536dde5ea"><path class="uuid-51cf9bf2-3cb8-4f66-bf11-d87374089fa1" d="M92.97,27.16c-.78-.9-.03-.74,.22-1.41-.59-1.22,.37-2.73-1.08-3.55-1.22-1.34,2.1-2.99,.73-4.87-.55-.86-1.32-1.75-2.25-2.18-.93-2.29-3.23-3.32-5.53-2.79-3.03-1.35-6.28-2.81-9.65-1.69-3.38,1.3-5.88-3.06-9.44,.12-5.27-1.33-10.41-1.87-15.73-.18-5.7-1.36-7.31-1.96-13.13-.16-1.4-.02-2.5-.81-3.8-1.05-1.29-.18-2.5,.97-3.82,.39-1.82-1.11-3.19,.02-4.89-.03-1.7-.09-3.39,.48-4.61,1.68-4.43-.39-6.84-1.05-9.35,3.52-3.61,.82-.11,3.26-.75,5.33-3.2,1.82-.95,4.61,.21,6.74-.64,.93-1.36,2.08-.66,3.2-2.59,3.34,2.27,9.11,5.82,6.62,.37,.03,.75,.03,1.12,.03,.32,1.06,1.81,.93,2.2,0,2.01-.25,3.85,.67,5.84,.57,2.27-.76,5.1,.18,7.17,.81,1.46,.57,3.37-.18,4.05,1.69,.33,2.2-1.51,4.32,.25,6.54,.24,.56,.8,.94,.96,1.52-.77,2.89-2.31,5.73-1.51,8.88,2.79,8.86-2.13,8.74,.47,17.58,0,1.84-1.85,3.13-1.26,4.98,.27,.78,.54,1.56,.1,2.36-.66,1.04-1.15,2.21-.69,3.43,.15,.44,.04,.61-.15,1.04-.31,.96-.06,2.17,.07,3.11,.26,.83,1.36,1.44,1.04,2.45-1.88,2.5-2.08,5.73,.03,8.22,.34,1.03-1.01,2.52,.28,3.26,1.65,1.6,3.75,2.86,6.13,2.83,1.36-.25,1.75,1.3,2.69,1.85,.69,.31,1.41,.06,2.07-.2,2.13-.84,3.52,2.26,5.78,1.41,.75-.22,1.43-1.17,2.16-.37,.76,.16,1.35-.75,2.11-.78,1.29,.05,2.12-.72,2.98-1.55,2-.39,4.54-.11,5.68-2.28,2.31-3.78-.48-4.54,.84-6.68,.75-2.14,.16-4.31-.33-6.37,.61-2.21,1.49-4.48,1.03-6.81-3.04-6.43,1.6-6.03-.97-10.82-.56-.6-.86-1.28-.43-2.05,2.05-4.28,1.13-8.98-.34-13.28-.02-2.49,1.61-4.75,1.44-7.31,.15-1.85-1.2-3.54-.76-5.38,.46-1.83,2.7-3.2,1.4-5.19-.56-1.54,1.59-.75,2.37-1.22,.51,.04,1.56-1.44,1.48-.66,1.6,1.09,3.5,.76,4.97-.29,1.05-.32,1.95,.68,2.93,.9,2.1,.61,4.53,.19,6.31-1.1,.24,0,.49,0,.73-.02,1.48,1.95,4.53,.19,4.88-1.86,.1-1.37,1.68-2.05,2.23-3.15-.46-2.35-2.22-1.59,.24-4.15,.3-.48,.36-1.14,.09-1.65Z"/></clipPath><clipPath id="uuid-471375c9-41c2-48f8-8bf4-195068eb7785"><path class="uuid-51cf9bf2-3cb8-4f66-bf11-d87374089fa1" d="M237.99,94.82c-.79-3.72-1.61-6.36,.16-9.95-1.31-3.59-.64-6.13,.45-9.74-1.49-6.86,.47-12.98,.59-19.69-.77-2.14-1.02-4.44,.19-6.47,1.24-2-.92-4.25,.64-6.28,.65-3.44-.39-6.91-.76-10.26,1.3-2.39,2.05-5.91-.15-8.04-1.06-7.81-2.61-2.28-6.17-6.29-2.39,1.04-2.46-2.08-4.69-2.06-1.86-.24-3.28,1.44-5.15,.78-3.85-3.26-4.4-.97-8.11,.98-.37,.45-.23,1.06,.17,1.44,.05,.71-2.1,.59-1.52,1.98-2.73-.58-4.05,5.99-7.99,8.21-1.2,1.06-.98,2.98-2.26,3.9-1.09,.55-2.46,.85-2.95,2.14-.67,4.69-6.84,6.79-11.04,7.63-3.05-2.12-2.29-7.27-6.49-8.85-1.61-1.37-.47-4.18-2.62-5.04-1.61-.81-.61-3.35-2.43-4.07-1.11-3.39-3.98-2.6-4.42-4.74-.04-3.59-4.5-3.56-5.12-6.39-.73-1.02-1.96-.89-2.97-.46-2.04-.58-4.2-1.65-6.26-.54-2.09,1.14-4.43-2.89-6.02,.6-5.72-.48-6.93-1.93-9.23,4.35-1.68,1.94,.44,4.64,.13,6.8-1.83,2.43-1.7,2.27-1.22,5.05-.96,.92-.2,1.91-.6,2.81-.82,1.44,.31,2.49,.63,3.75-2.77,1.99-.07,4.73-1.31,6.65-1.15,2.55,.21,5-1.62,7.33-.83,2.29,.28,4.53,.31,6.67-2.37,2.09-.19,4.21-.47,6.34-4.15,3.97,.71,9.37-1.95,13.46-2.12,3.27,.75,6.76-1.51,10.03,.22,1.33,1.85,2.34,.4,3.66-.31,1.25,.06,2.83,.37,4.06,1.52,1.94-.81,4.16,.7,6,1.5,.82,1.25,1.47,1.96,2.79,1.23,2.08,3.61,.84,5.34,1.93,1.3,1.75,2.15,.82,3.49-.11,1.37,.41,2.56,2.27,4.02,.77,.81,.7,3.61,.73,4.27-.59,1.89-.66,4.97,1.5,5.78-1.83,.77-2.05,.04-2.51,1.84-4.21,.55-4.9-3.55-9.5,.45-14.38-.61-2.79-1.34-4.84,.47-7.48,.93-1.63-1.05-3.58,.11-4.87-.26-2.26,.47-4.85-.97-6.83-.22-2.41,1.58-4.08,1.43-6.46,.08-1.79-1.88-4.54,.68-5.33,1.37-.63,2.28,2.15,3.34,2.95,1.14,1.08,.87,3.15,2.53,3.73,1.33,.7-.2,2.38,.81,3.3,3.43,.97,1.37,4.67,3.86,6.33,1.02,.18,.74,.85,.91,1.54,1.45,.86,1.61,2.95,3.5,3.14,2.03,1.69,.89,5.64,4.2,6.95,6.02,5.47,5.77-3.4,9.66-5.51,2.41,.08,2.45-1.72,2.88-3.48,4.85-2.06,2.41-2.7,4.52-4.21,1.36-1.66,1.78-3.66,2.58-5.5,2.1-.86,3.53-2.43,5.06-4.08,4.32-1.93,1.32,4.94,2.04,7.04,1.16,1.81-.06,3.19-.44,4.96,.11,1.26,1.2,2.24,.1,3.37-2.26,4.99,1.95,10.27-1.95,15.13,1.54,5.14-1.46,8,.42,9.05,.64,.94-1.84,1.93-.91,3.4,1.67,2.01-1.3,4.71,1.52,6.48,5.9,1.64,1.71,2.97,7.64,2.59,.97,1.42,2.48,1.93,3.97,1.08,.49,.79,1.05,.5,1.83,.21,1.04-.14,2.06,.02,2.57-1.13,1.7-.68,3.45,.79,5.05-.26,2.48-1.71,3.33-4.8,2.65-7.66-.06-.71,.87-.24,1.03-.8,.17-2.65,2.34-4.92,2.04-7.74Z"/></clipPath><clipPath id="uuid-225636f4-cdf0-4bc5-b1ab-3c64ae75cdeb"><path class="uuid-51cf9bf2-3cb8-4f66-bf11-d87374089fa1" d="M322.99,89.55c-.41-.93-.9-1.96-1.43-2.81-.11-.24-.2-.56-.24-.8,.18-.2,.05-.48-.05-.69,.05-.67,.03-1.47-.32-2.1-.79-1.93-2.95-2.88-5.05-2.82-1.34-.05-2.27,1.11-3.43,1.47-5.86,.6-25.1,5.36-27.94,.41-.67-.56-.94-1.68-1.72-1.93-.02-.83-.51-1.52-.77-2.31,1.41-1.73,2.56-4.14,5.04-4.4,1.73,0,3.31-.53,4.76-1.44,1.57-.44,3.31-.29,4.66-1.39,.56-.43,1.11-.13,1.72-.11,1.38,.22,2.49-.47,3.46-1.34,2-.35,1.65-2.28,1.42-3.78,.85-1.75-.04-4.2-.65-5.94,.23-1.87-.23-4.19-1.43-5.74-.66-1.14-1.96-.59-3.01-.85-2.19-1.28-4.57,.13-6.77-.27-2.54-.9-5.3-.54-7.9-.81-1.08-1.03-2.56-1.62-3.73-2.49-1.03-1.01-1.37-2.6-2.33-3.7-.3-3.27-1.84-8.42,1.35-10.32,9.05-3.85,20.55-.51,29.49-4.73,2.41-.15,5.72-2.41,4.4-5.15,.88-1.29,.92-3.02,.56-4.59-2.04-3.18,.61-7.43-4.09-8.69h-.02c-.58-1.04-1.6-1.34-2.75-1.59-1.92-.34-4.99-1.47-6.54-.78-.69-.12-1.36-.84-2.06-.91-3.21,0-11.05-1.47-13.99-.37-9.61-.26-15.17,1.6-22.97,5.52-4.25,2.11-5.78,3.06-8.02,4.7-2.17,.77-4.35,2.54-5.5,4.63-3.28,2.62-2.16,9.24-3.07,13.19,.42,11.78-.08,14.95,2.42,29.26,2.44,13.6,3.42,26.34,10.09,37.33,1.37,2.51,4.3,2.4,6.21,4.11,3.39,.69,6.45,2.02,10.02,2.08,9,1.52,13.96,1.63,23-1.03,10.72-1.22,29.48-4.5,27.2-18.83Z"/></clipPath><clipPath id="uuid-2cc50f4c-11cb-4bdd-b8b0-3c0a127b82f8"><path class="uuid-51cf9bf2-3cb8-4f66-bf11-d87374089fa1" d="M492.99,83.36c.23-1.54-.1-3.26,.39-4.82,.21-1.34-1.06-2.37-1.24-3.57,.14-1.51,.16-2.92-.77-4.3,0-.17,.06-.3,.11-.44,.44-3.43-3.69-6.14-6.17-7.8-1.85,.29-1.76-1.89-3.04-2.74-1.42-3.91-6.11-1.57-8.48-6.98-.63-.35-1.25-.13-1.89,.08-2.08,.63-2.21-2.74-4.28-2.71-.69-.05-1.57,.52-1.69-.52-.04-.08-.11-.14-.24-.18-1.55,.15-2.77-1.49-4.28-.47-1.63,.53-1.97-1.98-3.13-2.69-1.5-1.02-3.46-1.33-5.2-1.76-.05-.25-.59-.25-.71-.42,.09-.18,.42-.29,.18-.56,.62-.86,.43-2.09-.18-2.88-.49-.31,0-1.01-.12-1.5,0-.22-.06-.44-.06-.66,.29-.37,.74-.66,1.19-.93,1.15,.55,2.74,.01,3.65-.37,.85-1.58,1.45,1.02,2.74,.4,.01-.01,.03-.03,.04-.02,.35-.26,.57-1.1,.92-.3,.45,.58,1.33,.58,1.86,.11,1.7,1.25,4.18,1.78,6.21,1.07,.7,.19,1.4,.41,2.09,.64,1.14,1.72,2.77,2.86,4.73,3.08,.58,.73,1.27,2.37,2.46,1.6,.62-.4,.5,.47,.76,.78,.41,.66,1.32,1.01,2.06,.7,.32,.19,.73,.45,1.21,.53,1.79,2.28,6.82,.35,6.12-2.63h0c-.07-.34,.12-.63,.36-.89,1.21,.19,2.35-.89,3.07-1.73,1.79-.74,3.3-2.62,2.97-4.65,0,0,0,0,0-.01,0-.03-.02-.06-.04-.08-.33-1.7,2.55-3.41,.88-5.41-.27-.32-1.09-.18-1.01-.77,.31-1.21-.56-2.58-1.76-2.88-.7-.79-1.45-1.69-2.58-1.76-1.16-1.12-2.02-2.51-3.33-3.44-1.43-1.04-3.42-.8-4.4-2.49-1.39-1.44-2.98-2.93-4.97-3.47-1.44-.01-2.28-.22-3.58-.78-3.76,.01-6.32-4.85-10.31-2.47-.93,.88-1.93-.02-2.97-.13-9.16-4.85-12.66,1.93-21.53,1.62-4.37,1.01-4.15,1.06-7.32,4.04-2.14,1.58-5.19,1.8-6.53,4.27-1.29,1.99-4.21,2.56-4.65,5.17-1.47,2.32-1.89,5.05-.53,7.54-.03,2.02-1.73,3.81-1.29,6,.16,1.68,1.32,3.03,2.25,4.35,.24,1.22,.14,2.63,.91,3.72,1.85,1.88,1.37,2.1,1.37,4.38,.89,2.25,2.9,3.61,4.92,4.74,1.91,2.71,5.16,3.75,7,6.5,3.56,1.17,4.74,.16,6.99,4,0,0,.02,.03,.02,.03,1.15,1.72,3.19,1.6,4.82,2.27,.36,.9,1.43,.7,2.18,.95,1.13,.55,1.73,1.9,3.01,2.18,.86,.35,1.9-.31,2.66,.18,1.26,1.2,1.19,3.02,1.42,4.61,.03,.49,.1,.98,.15,1.46,.41,2.15-1.59,4.16-2.9,5.64-3.24,0-7.19,2.67-9.08-1.29-3.08,.06-2.27,1.2-4.1-2.05,0,0-.01,0-.02-.01-.66-1-1.77-.59-2.63-.76-.18-.97-.57-.84-1.41-.96-1.04-.59-1.84-1.33-3.05-.62-2.75,.35-1.08-5.74-8.33-2.26-.36-.03-.65,0-.93,.14-3.48-1.58-4.64,1.07-6.22,3.62-4,.06-1.42,1.46-3.11,3.49-1.32,1.13-1.65,2.44-.72,3.83-.94,.51-.24,.87-.31,1.73-.31,1.99,.48,2.01,1.76,2.99,.16,1.22-.52,2.64,.34,3.78,.91,.95,2.54,1.64,3.86,1.39,2.07,.74,2.81,3.52,5.16,3.6,1.43,.74,1.95,3.04,3.79,3.48,3.19,.77,2.63-1.25,5.26,1.79,1.03,.46,2-.23,2.85-.68,2.67,2.33,6.1,2.99,9.43,1.47,4.4,1.73,3.74,2.09,8.42,.72,1.28,.23,2.34,1.99,3.61,.8,.97-.84,1.94,.62,2.99,.35,.55-.08,.88-.79,1.47-.45,1.3,.18,2.32-.69,2.9-1.78,.47-.4,1.18,.12,1.71,.26,1.75,.39,3.45-1.13,3.78-2.78,3.5,.38,6.6-1.6,8.62-4.45,1.75-2.43,4.86-3.63,7.17-5.62,1.08-1.22,1.06-3.17,2.3-4.25,.91-.71,1.28-1.93,2-2.71,.78-.68,1.36-1.82,1.41-2.89-.12-.83-.17-1.81,.58-2.31Z"/></clipPath><clipPath id="uuid-fba1f56c-dadc-49a8-985d-56b4b1165433"><path class="uuid-51cf9bf2-3cb8-4f66-bf11-d87374089fa1" d="M133.5,89.32c-1.31-6.31-2.01-4.17-.14-10.57-2.71-7.13-.47-4.73-.29-11.46-.59-4.55-1.81-8.29-1.41-13.15,1.2-3.69-.43-7.12-.86-10.72,.04-2.01,1.66-3.61,.78-5.62-.4-.87-.8-1.69-.46-2.71,.76-1.54,.55-3.17,.02-4.68,.29-.77,.29-1.77,.26-2.61,.11-1.08-.2-2.04-.84-2.86,.06-.81-.02-1.66-.04-2.43,.02,0,0-.04,0-.03,.64-1.51,.23-3.27-.11-4.78v.03s0,0,0,0c0,0,0-.01,0-.02-.13-.54-.14-1.42-.5-1.77-.16-.92-.64-1.75-1.03-2.58,.68-1.77-1.5-1.74-2.47-2.47-1.1-1.66-3.7-2.94-5.25-1.12-.15,0-.28-.02-.41-.09h0c-.16-.09-.32-.18-.5-.24,.23-1.88-1.91-1.8-3.04-1.06-.78-.12-1.5-.86-2.38-.92-.02,0-.02,0-.02,0h-.01c-1.12-.26-4.1,.7-4.59,1.85-1.18,.33-2.32,.02-3.5,.22-2.66-1.68-3.88,1.83-6.37,2.5,0,0,0,0,0,0h0s-.01,.01-.01,.01c-.56,.5-.46,1.4,.24,1.7-.19,.16-.29,.43-.34,.68-.68,.31-.79,1.4-.17,1.84,.02,.24,.05,.48,.1,.71-1.14,2.1-2.03,4.85-.98,7.16,.42,1.84-.64,3.81-.7,5.69,0,0,0,.02,0,.02h0c-.13,.93-.16,1.86-.04,2.8,.58,2.82,1.97,5.25,.34,8.03-.41,1.77,.51,3.74,1.8,5.01-2.72,10.88,.41,10.65,.57,20.05-1.5,4.62,1.53,9.24-.18,13.74-1.35,3.3,1.1,3.15-1.21,7.67-.18,.77,.3,1.66,.28,2.35-.47,1.09-.16,2.53,.01,3.64,.32,1.48,2.16,2.5,.98,4.17h0s-.02,.03-.02,.04c-.88,1.53-1.02,3.53-.34,5.18,0,.02,0,.03,0,.05,.37,.88,.89,1.65,1.66,2.18,.12,.42,.31,.81,.48,1.19-.14,.21-.36,.42-.38,.68,.03,.69,.4,1.58,.67,2.2,1.35,1.75,3.72-.62,5.17,.72,1.5,1.86,3.75,.05,5.49,.38,.37,.16,.85,.09,1.05-.27,.72,.2,1.65,.04,2.08,.78,0,0,0,0,.02,0h.01s0,.01,0,.02c.48,.68,1.39,.3,2.01,.69,.01,0,.04,.02,.05,.02h0c.07-.01,.05,0,.05,0h0c1.22,.18,2.46,.13,3.69,0,.51,.08,3.52-1.68,2.23-1.48,.93-.18,2.12-.04,2.93-.17,.03,0,.05,0,.06-.01,1.23,.21,1.47-1.06,1.93-1.83,1.53,1.47,3.01-1.15,1.85-2.48,.1-.36,.1-.68,.1-1.03,1.71-1.82,1.82-4.9,.96-7.16-.22-2.52,1.23-5.08,.73-7.7Zm-2.52,17.5h0Zm0,0h.03s-.02,0-.03,0Z"/></clipPath><clipPath id="uuid-2f402fde-5f27-4ad4-b680-35daead46cdb"><path class="uuid-51cf9bf2-3cb8-4f66-bf11-d87374089fa1" d="M406.72,92.41c-1.31-6.31-2.01-4.17-.14-10.57-2.71-7.13-.47-4.73-.29-11.46-.59-4.55-1.81-8.29-1.41-13.15,1.2-3.69-.43-7.12-.86-10.72,.04-2.01,1.66-3.61,.78-5.62-.4-.87-.8-1.69-.46-2.71,.76-1.54,.55-3.17,.02-4.68,.29-.77,.29-1.77,.26-2.61,.11-1.08-.2-2.04-.84-2.86,.06-.81-.02-1.66-.04-2.43,.02,0,0-.04,0-.03,.64-1.51,.23-3.27-.11-4.78v.03s0,0,0,0c0,0,0-.01,0-.02-.13-.54-.14-1.42-.5-1.77-.16-.92-.64-1.75-1.03-2.58,.68-1.77-1.5-1.74-2.47-2.47-1.1-1.66-3.7-2.94-5.25-1.12-.15,0-.28-.02-.41-.09h0c-.16-.09-.32-.18-.5-.24,.23-1.88-1.91-1.8-3.04-1.06-.78-.12-1.5-.86-2.38-.92-.02,0-.02,0-.02,0h-.01c-1.12-.26-4.1,.7-4.59,1.85-1.18,.33-2.32,.02-3.5,.22-2.66-1.68-3.88,1.83-6.37,2.5,0,0,0,0,0,0h0s-.01,.01-.01,.01c-.56,.5-.46,1.4,.24,1.7-.19,.16-.29,.43-.34,.68-.68,.31-.79,1.4-.17,1.84,.02,.24,.05,.48,.1,.71-1.14,2.1-2.03,4.85-.98,7.16,.42,1.84-.64,3.81-.7,5.69,0,0,0,.02,0,.02h0c-.13,.93-.16,1.86-.04,2.8,.58,2.82,1.97,5.25,.34,8.03-.41,1.77,.51,3.74,1.8,5.01-2.72,10.88,.41,10.65,.57,20.05-1.5,4.62,1.53,9.24-.18,13.74-1.35,3.3,1.1,3.15-1.21,7.67-.18,.77,.3,1.66,.28,2.35-.47,1.09-.16,2.53,.01,3.64,.32,1.48,2.16,2.5,.98,4.17h0s-.02,.03-.02,.04c-.88,1.53-1.02,3.53-.34,5.18,0,.02,0,.03,0,.05,.37,.88,.89,1.65,1.66,2.18,.12,.42,.31,.81,.48,1.19-.14,.21-.36,.42-.38,.68,.03,.69,.4,1.58,.67,2.2,1.35,1.75,3.72-.62,5.17,.72,1.5,1.86,3.75,.05,5.49,.38,.37,.16,.85,.09,1.05-.27,.72,.2,1.65,.04,2.08,.78,0,0,0,0,.02,0h.01s0,.01,0,.02c.48,.68,1.39,.3,2.01,.69,.01,0,.04,.02,.05,.02h0c.07-.01,.05,0,.05,0h0c1.22,.18,2.46,.13,3.69,0,.51,.08,3.52-1.68,2.23-1.48,.93-.18,2.12-.04,2.93-.17,.03,0,.05,0,.06-.01,1.23,.21,1.47-1.06,1.93-1.83,1.53,1.47,3.01-1.15,1.85-2.48,.1-.36,.1-.68,.1-1.03,1.71-1.82,1.82-4.9,.96-7.16-.22-2.52,1.23-5.08,.73-7.7Zm-2.52,17.5h0Zm0,0h.03s-.02,0-.03,0Z"/></clipPath><clipPath id="uuid-8f3fd993-e920-4a51-8772-c8e442b36af0"><path class="uuid-51cf9bf2-3cb8-4f66-bf11-d87374089fa1" d="M639.86,56.42c2.23-3.58,1.17-7.35,.45-11.1,.46-2.31,1.67-4.12,.65-6.48,.23-1.56,1.79-2.87,1.09-4.59,.09-1.25,.67-2.5,.47-3.84,.07-1.07-.98-1.67-1.04-2.75,1.13-3.03,1.24-7.05-1.95-8.82,.17-1.12-.21-2.13-1.19-2.88-1.02-.43-1.74,.31-2.79,.23-.31-.2-.65-.45-1.02-.58-.54-2.51-3.7-1.75-4.69,0-.39,.04-.78,.16-1.17,.15-2.18-2.06-8.92-2.9-10.42,.31-.29,.11-.58,.22-.87,.35-.8-1.15-2.12-.13-1.82,1.06-1.28,1.54-3.34,3.68-1.85,5.82,.33,1.82-1.25,3.73-.59,5.62,3.28,5.47-2.54,4.4,1.11,8.4-3.1,9.73,1.71,7.85-1.91,15.8-.5,2.16,1.73,4.37-.37,6.2-.51,.53-.85,1.16-.52,1.87,1,1.32-.65,2.23-.75,3.49-.05,.59,.59,1.12,.09,1.63-.28,.88-.34,2.19,.36,2.89,1.67,1.66-2.27,2.56-1.19,5.95-.08,.11-.16,.22-.25,.34-1.54,.03-2.13,1.55-2.48,2.73-1.1,.4-2.61,.35-3.37,1.4-1.66,4.89-3.15-.81-4.62,3.6-.32-.1-.66,.05-.98,.05-2.34-2.26-5.18-.13-7.74-1.33-.83-1.63-1.71-2.84-3.57-3.1-1.59-1.67,.55-2.66-1.81-3.59-.34-.69,.74-1.83-.4-2.23-.28-.16-.17-.23-.1-.49,.06-1.16-.96-1.54-1.87-1.9,.04-1.48,1.17-2.55-.71-3.73-.02-.25-.03-.51-.04-.76,.69-.98,.38-2.52-.48-3.32-.49-1.65,1.45-3.01,.87-4.72-2.96-4.63,2.68-3.65-1.1-7.24,2.91-4.5,.77-5.67,.6-10.16,3.34-3.64-.86-5.29,1.33-8.05,.44-.48,.7-1.04,.31-1.58-1.15-1.03,.43-1.81,.5-2.86-.06-.56-.59-.93-.05-1.42,.16-.54,.15-1.25-.02-1.75-.2-.42-.79-.71-.72-1.23,1.79-1.37,2.71-3.23,.59-4.93-.06-.71-.72-1.19-.56-1.95,1.76-1.33-.54-1.78-1.11-2.8-.21-.7-.93-1.24-1.4-1.8-.7-.75-2-.93-2.72-.11-.32-.09-.64-.17-.97-.22-.05-.72-.53-1.19-1.08-1.32-.5-.15-.97,.54-1.48,.29-1.27-1.03-2.79-2.06-4.34-.88-.43,.36-.78,.87-1.19,1.28-1.28-.01-2.49-.01-3.76,.3-2.63-1.96-2.87,.98-4.72,1.5t0,0s0-.02,0-.02c0,0,0-.01-.01-.01-.05-.02-.09-.04-.15-.04-.97-.6-2.18,.84-1.21,1.6-.11,.23-.23,.45-.34,.7-.66,.13-.97,1-.56,1.54-1,1.26-.52,2.96-1.27,4.38-.13,1.18,.44,2.28-.33,3.39-1.98,3.65-.39,7.58-.93,11.27-2.06,2.29-1.92,5.21,.15,7.41-1.25,5.24-.88,10.62-.05,15.94-1.69,3.94-1.38,8.03,.33,11.92,.58,2.33-1.5,4.23-.59,6.48,.44,.84,1.18,1.5,1.09,2.5-.28,1.26-.45,2.57,.34,3.7,.31,.55,.2,.61,.19,1.19,.13,1.99,1.78,3.37,3.35,4.3-.27,3.56,2.26,7.06,5.68,8.26,.36,.53,.84,.91,1.37,1.23-.2,2.02,1.33,3.55,3.05,4.21,1.68,2.91,4.88,3.85,8.05,3.48,2.22,.97,3.55,3.87,6.41,2.04,7.74,3.87,5.84,1.53,13.9,1.45,3.63,2.53,6.36,.35,9.47-1.45,1.49-.4,3.21,.99,4.4-.39,.49-.58,.88-1.18,1.76-1.2,1.32,.15,2.3-.43,3.15-1.31,1.96,.11,3-1.27,3.69-2.86,2.93-.85,5.69-1.76,5.45-5.59,2.37-.25,4.76-2.18,4.74-4.72,1.01-2.05,2.93-3.61,3.62-5.85,.61-2.28,.67-4.55,1.4-6.81,1.56-1.47,1.98-3.81,.96-5.71,.08-.33,.18-.65,.29-.98-.25-2.21,1.81-3.91,1.93-6.14,1-3.59-1.16-7.25,.04-10.66Z"/></clipPath><clipPath id="uuid-1c583218-8629-445b-a745-b2c8c7f11ead"><path class="uuid-51cf9bf2-3cb8-4f66-bf11-d87374089fa1" d="M723.71,48.46c1.54-2.21,1.34-5.07-.67-6.97-.06-.5-.24-1-.37-1.49,.4-1.11,.54-2.39,.54-3.58,0-.01,0-.02,0-.02-.06-1.33-1.07-2.25-1.53-3.39-.08-2.29-.45-4.66-1.89-6.53,0,0-.01-.01-.02-.01,0,0,0-.02-.01-.02-.18-.23-.39-.45-.59-.66,0,0-.01-.02-.02-.02-5.54-2.89-3.88-8.1-9.95-8.91-3.9-5.46-10.56-4.86-16.42-5.17,0,0-.01,0,.01,0-4.1-2.08-8.43-1.7-12.56-.05-2.06,.23-4.14-1.39-6.02-.11h0s-.02,0-.02,0c0,0-.01,0-.01,0,0,0-.01,.01-.02,0-1.49,1.34-3.58,.49-5.23,1.41-1.49,1.43-3.45,1.92-4.88,3.46-1.04,3.31-3.78,1.94-5.65,4.23-1.01,1.24-1.49,2.73-1.95,4.25-.94,1.79-3.62,1.96-4.23,4.12,.66,4.45-3.68,5.7-1.33,10.77,1.37,2.52-2.4,4.31-1.04,6.93,.21,1.17,1.75,2.03,.88,3.23-1.42,4.08-1.28,8.85-.16,12.96-1.08,3.87-1.54,7.62-.2,11.5,.02,1.76-1.79,3.15-1.02,4.91,1.19,1.5-.35,2.93-.36,4.5,0,.73,.65,1.39,.18,2.07-.43,1.66,.05,3.27,1.08,4.6,.33,.89-.57,1.7-.86,2.49-.68,1.86,.32,3.92,1.04,5.59,.2,1.07-1.05,1.74-.95,2.85,.03,1.55,1.64,2.5,2.98,2.66h0s.02,0,.02,.01c.47-.02,.62,.52,1.02,.63,.01,0,.03,0,.04,0,0,0,.01,.01,.02,.02h.01c.85,.39,.68,1.45,1.15,2.12,1.28,2.26,4.49,3.24,6.75,1.86,.55,.16,1.15,.39,1.75,.44,2.25,2.04,5.77,1.81,7.63-.58,.05-.07,.12-.09,.15-.02,1.89,.43,4.25,.31,5.04-1.78,.27-1.05,1.46-1.68,1.32-2.86,.35-.5,.67-1.37,.32-1.85,1.34-.59,.82-2.6-.43-3.03,2.53-1.85-.47-2.36-.19-4.61,1.46-1.25,1.14-3.02-.08-4.36-.04-1.09-.07-2.18-.12-3.26,2.19-2.5,2.15-6.96,.54-9.74,.07-.05,.14-.12,.2-.19,.84,.37,1.73,.07,2.58-.1,1.09-.21,1.96,1.01,3.05,1.13h.03s.08,0,.1,0c.56,.11,1.15-.04,1.7-.18h.01c.06-.04,.13-.03,.19-.08h.02c.42-.19,.89-.28,1.29-.52h.01c.45-.2,.64-.79,.95-1.13,.16,.02,.33,.04,.5,.06,.91,2.05,2.55,1.07,3.78,.08,.95,.14,2,.65,3.01,.6,.02,0,.05,0,.07-.02,.01,0,.02,0,.03,0h0c1.62-.42,3.07-1.38,4.46-2.26h-.01c.19-.14,.32-.3,.37-.51,.19-.08,.38-.15,.57-.22,1.77,.45,4.51,.36,5.46-1.44,.36-.7,.79-1.57,1.67-1.62,1.01,.09,2.96-.04,2.53-1.54,.23-.14,.46-.28,.69-.42,.94,.32,1.92-.66,1.7-1.61,4.3-.75,5.04-2.58,6.72-6.12,.88-.89,2.47-1.06,2.84-2.37-.46-2.34,1.08-2.13,1.99-3.75,.22-.45,.02-1.14,.15-1.56,.69-.7,.59-1.82,.49-2.73-.09-.78-1.11-1.21-.84-2.1Zm-45.34,4.83c-.7-.21-1.46-.36-2.2-.43,1.07-1.64,.71-3.57,.22-5.28,.82-1.86,2.12-4.41,1.13-6.39,0-.19,0-.29,.08-.5,.68-4.09,3.08-1.2,4.45-5.04,.79-1.33,2.75-1.43,4.01-.75,2.13,.21,4.17,1.01,6.32,1.13,4.73,1.1,1.75,6.89,4.49,9.79-.11,2.01-2.2,2.43-2.9,3.97-.15,.62-.42,1.22-1.16,1.34-.94,.08-1.83,.24-2.31,1.13-.29,.32-.36,.23-.73,.23-1.51,.2-2.68,.99-3.8,1.93-2.51-.1-4.74-3.23-7.6-1.13h0Zm20.98,21.16h0s0,0,0,0Z"/></clipPath><clipPath id="uuid-0e803f1a-acc5-4d51-a192-f026f87d6d8a"><path class="uuid-51cf9bf2-3cb8-4f66-bf11-d87374089fa1" d="M753.78,27.2c.08,.12,.2,.25,.33,.37-3.41,8.6,.87,9.62-2.28,17.63-.22,1.22,.47,2.38,.67,3.55,.29,1.91-2.8,3.26-1.28,5.12,1.02,1.44-1.63,2.65-.56,4.17,.24,.45-.1,.51-.29,.87-.55,1.37-.3,2.66,.6,3.79-.88,2.87-1.89,3.77,.65,6.59,0,.22,0,.48,.07,.72-.74,3.34,4.27,6.28,6.91,4.11,.79,.25,1.55,.61,2.38,.75,1.42,2.42,4.75,2.79,6.9,1.26,1.58,.48,4.05,.99,4.25-1.31,1.16-.15,2.19-.8,2.31-2.05,1.43-.59,2.37-2.64,1.77-4.09,2.22-5.09,2.46-3.57,1.65-9.25,1.59-1.26,2.8-3.12,1.08-4.91,2.9-6.34,1.91-6.23,1.82-12.95,2.98-2.68,1.94-4.71,1.89-7.96,.97-1.94,2.58-2.16,1.41-4.64,.21-1.17,1.97-1.79,1.23-3.2-.18-.48,.17-.53,.37-.92,.56-1.43,.13-2.79-.98-3.76-.32-.63,.56-1.21,.94-1.63,1.24-1.57,.7-4.15-.82-5.37,0-.09,.02-.17,.02-.26,2.66-.85,1.32-4.37-.82-5.04-2.27-.71-3.84-2.3-5.34-3.98-3.56,.03-1.89,2.07-4.97-1.53-1.09-.91-2.3-.33-3.42-.1-.83-1.21-2.04,.07-3.23-.28-1.49-.39-1.78,1.54-3.07,1.49-2.63-2.69-8.33-.21-7.22,3.64-.98,.69-1.25,2.05-1.2,3.15,.02,.85,.89,1.54,.55,2.4-.99,1.2-2.57,2-2.83,3.73-.15,1.15,.15,2.36,.81,3.32,2.18,2.37-2.67,3.82-.31,6.58Z"/></clipPath><clipPath id="uuid-bf216cfe-1ad3-4439-9aff-5193065f037a"><path class="uuid-51cf9bf2-3cb8-4f66-bf11-d87374089fa1" d="M777.88,94.88s0-.01,0-.02c-.04-1.29-.97-2.22-1.13-3.45,.2-2.12,1.27-4.59-1.83-5.27-.18-.48-.49-.95-.84-1.26-.18-4.71-4.78-5.05-8.19-5.75-2.48-.29-4.87-2.55-7.42-1.23-2.73,2.97-5.43,.03-6.83,2.59-.55,1.37-2.46,.72-3.28,1.82-.38,.36-.37,1.1-.66,1.44-1.32,.75-1.95,2.78-1.07,4.08-.4,.42-.52,1.02-.62,1.62-1.94,1.48-.64,3.82-.57,5.72-1.55,.83-.34,2.2,.22,3.22-.46,2.16,.12,5.58,3.11,4.98,.2,.27,.41,.53,.63,.78-.92,1.77,.92,2.34,2.26,2.45,.69,2.68,3.41,3.87,5.79,2.19,.44,.2,1.14,.05,1.48,.35,.84,.02,1.68-.05,2.52,.09,1.47,1.98,3.56,1.51,5.04-.11,.99-.56,3.63,.16,3.09-1.83,.19-.19,.38-.39,.55-.6,.81,.33,1.73-.65,1.34-1.44,.5-.31,.82-.8,1.21-1.21,1.83-.58,2.98-2.17,2.9-4.03,1.1-1.47,2.44-3.19,2.29-5.14Z"/></clipPath><image id="uuid-fd9e9e31-38d2-4d5c-b755-5e663a8614f1" width="110" height="350" xlink:href="included_images/symbol/symbol_exclamation 2.16.43 PM.jpg"/><image id="uuid-86a16880-10b7-4bc1-919c-514110db1454" width="118" height="350" xlink:href="included_images/letters/letter_I.jpg"/></defs>
<g id="uuid-e557a183-54bc-404c-8483-814c1ce715fc"><g class="swinging cls-5 uuid-9e471f1f-5a92-4be4-b1ee-a5f80ac52159"><image width="300" height="353" transform="translate(8.12 9.09) scale(.28)" xlink:href="included_images/letters/letter_T.jpg"/></g></g><g id="uuid-e50e73c4-7a5e-47fe-a638-525bd37adbf4"><g class="swinging cls-4 uuid-a968d1cc-8c0c-42cd-a177-19a17c7f7018"><image width="368" height="350" transform="translate(142.28 9) rotate(4.46) scale(.28)" xlink:href="included_images/letters/letter_M.jpg"/></g></g><g id="uuid-64f87ea2-b7ba-4298-ad6b-fafb89804e67"><g class="swinging uuid-4bd91b84-ab57-4d67-bd91-d109e0acad7a"><image width="254" height="350" transform="translate(240.44 12.71) rotate(-6.06) scale(.29)" xlink:href="included_images/letters/letter_E.jpg"/></g></g><g id="uuid-0aa43bd2-338a-4267-8413-7361861d0112"><g class="swinging cls-6 uuid-01ac5ba6-d3c4-4e69-8bf2-2079348ada8f"><image width="284" height="350" transform="translate(423.31 4.5) rotate(9.36) scale(.29)" xlink:href="included_images/letters/letter_S.jpg"/></g></g><g id="uuid-fd56ff7a-ab02-46f2-99bb-75702b3658a4"><g class="swinging uuid-cf1c9cdb-71b9-4032-8e8d-b1a1d7e7b206"><use transform="translate(98.44 7.34) scale(.3)" xlink:href="#uuid-86a16880-10b7-4bc1-919c-514110db1454"/></g></g><g id="uuid-80501138-81db-4545-bfa8-c6dc522c8b25"><g class="swinging cls-8 uuid-8c3aa65f-ef1d-4dac-8152-894b32a41d80"><use transform="translate(371.66 10.44) scale(.3)" xlink:href="#uuid-86a16880-10b7-4bc1-919c-514110db1454"/></g></g><g id="uuid-617ac532-dbe1-457b-a3a2-fe1688460f29"><g class="swinging cls-10 uuid-edb8f716-1a5c-4eb4-a053-f5ccf4de379a"><image width="308" height="350" transform="translate(555.87 8.49) rotate(3.54) scale(.29)" xlink:href="included_images/letters/letter_U.jpg"/></g></g><g id="uuid-ed022dae-0e26-43c7-bca9-304f50b7e748"><g class="swinging cls-11 uuid-5f437afb-4fcb-4038-b2dd-b5548df599fe"><image width="266" height="350" transform="translate(648.98 10.47) scale(.28)" xlink:href="included_images/letters/letter_P.jpg"/></g></g><g id="uuid-cec1a9f0-b1ec-46f7-b482-3eced1757813"><g class="swinging cls-12 uuid-3313ac6f-a54b-4773-96a1-432acfdf1678"><use transform="translate(755.64 .67) rotate(7.34) scale(.31)" xlink:href="#uuid-fd9e9e31-38d2-4d5c-b755-5e663a8614f1"/></g><g class="swinging cls-10 uuid-c1ef48b5-792d-409f-aff4-ac1cbd882999"><use transform="translate(755.64 .67) rotate(7.34) scale(.31)" xlink:href="#uuid-fd9e9e31-38d2-4d5c-b755-5e663a8614f1"/></g></g></svg>