<svg id="letters" xmlns="http://www.w3.org/2000/svg" xmlns:xlink="http://www.w3.org/1999/xlink" viewBox="0 0 480.31 242.6" overflow="visible">
<defs>
<style>.cls-1-tiu{fill:none;}.cls-2-tiu{clip-path:url(#clip-path-i);}.cls-3-tiu{clip-path:url(#clip-path-2);}.cls-4-tiu{clip-path:url(#clip-path-3);}.cls-5-tiu{clip-path:url(#clip-path-4);}.cls-6-tiu{clip-path:url(#clip-path-5);}.cls-7-tiu{clip-path:url(#clip-path-6);}.cls-8-tiu{clip-path:url(#clip-path-7);}.cls-9-tiu{clip-path:url(#clip-path-8);}.cls-10-tiu{clip-path:url(#clip-path-9);}.cls-11-tiu{clip-path:url(#clip-path-10);}.cls-12-tiu{clip-path:url(#clip-path-11);}
</style>
<clipPath id="clip-path-i"><path class="cls-1-tiu" d="M293.42,19.31c-.81-.93,0-.76.22-1.45-.61-1.25.38-2.81-1.11-3.65-1.25-1.38,2.16-3.07.75-5A6,6,0,0,0,291,7a4.8,4.8,0,0,0-5.68-2.87c-3.12-1.38-6.45-2.88-9.91-1.74-3.48,1.33-6-3.15-9.7.12C260.27,1.12,255,.57,249.52,2.3,243.67.9,242,.29,236,2.14c-1.44,0-2.57-.84-3.9-1.08s-2.57,1-3.92.4c-1.88-1.14-3.28,0-5,0a6.25,6.25,0,0,0-4.73,1.72c-4.56-.4-7-1.07-9.61,3.62-3.71.84-.11,3.35-.77,5.48-3.29,1.87-1,4.74.21,6.92-.65,1-1.39,2.13-.68,3.29-2.66,3.43,2.33,9.35,6,6.79.39,0,.77,0,1.16,0a1.21,1.21,0,0,0,2.26,0c2.06-.26,4,.69,6,.58,2.34-.78,5.24.19,7.37.83,1.51.59,3.47-.19,4.16,1.74.35,2.25-1.55,4.44.26,6.72.24.57.83,1,1,1.56-.79,3-2.37,5.88-1.55,9.12,2.87,9.1-2.19,9,.48,18.06,0,1.89-1.9,3.22-1.3,5.11a2.78,2.78,0,0,1,.1,2.42,3.89,3.89,0,0,0-.7,3.52c.15.45,0,.63-.16,1.07a7.67,7.67,0,0,0,.08,3.2c.26.86,1.4,1.48,1.07,2.52a6.55,6.55,0,0,0,0,8.44c.35,1.06-1,2.59.29,3.35a9.13,9.13,0,0,0,6.3,2.91c1.4-.26,1.79,1.33,2.76,1.9a2.74,2.74,0,0,0,2.13-.2c2.18-.86,3.62,2.32,5.94,1.45.77-.22,1.47-1.2,2.21-.38.78.16,1.39-.77,2.17-.8a4.16,4.16,0,0,0,3.07-1.6c2.05-.4,4.66-.11,5.83-2.33,2.38-3.89-.49-4.66.86-6.86.77-2.2.16-4.43-.34-6.55.64-2.27,1.53-4.6,1.06-7-3.12-6.61,1.64-6.2-1-11.11a1.69,1.69,0,0,1-.44-2.11c2.11-4.4,1.16-9.22-.35-13.63,0-2.56,1.66-4.88,1.48-7.51.16-1.9-1.23-3.64-.78-5.53s2.77-3.29,1.44-5.34c-.58-1.58,1.64-.76,2.44-1.25.52,0,1.6-1.47,1.52-.67a4.36,4.36,0,0,0,5.1-.3c1.08-.33,2,.7,3,.92A7.62,7.62,0,0,0,285,30.42a6.26,6.26,0,0,0,.75,0c1.52,2,4.65.19,5-1.91.1-1.41,1.72-2.11,2.29-3.24-.48-2.41-2.28-1.63.25-4.26A1.75,1.75,0,0,0,293.42,19.31Z"/></clipPath><clipPath id="clip-path-2"><path class="cls-1-tiu" d="M287.43,220.65c-1.31-6.31-2-4.17-.14-10.57-2.71-7.13-.48-4.73-.29-11.46-.59-4.54-1.81-8.29-1.41-13.14,1.2-3.7-.43-7.13-.85-10.72,0-2,1.66-3.61.78-5.63a3.52,3.52,0,0,1-.47-2.71,5.86,5.86,0,0,0,0-4.68,7.11,7.11,0,0,0,.26-2.61,3.8,3.8,0,0,0-.84-2.86c.06-.82,0-1.67,0-2.44,0,0,0,0,0,0,.64-1.51.22-3.27-.12-4.78v0h0s0,0,0,0c-.13-.54-.13-1.42-.5-1.77a10.46,10.46,0,0,0-1-2.58c.68-1.77-1.5-1.74-2.47-2.47-1.1-1.66-3.7-2.94-5.25-1.13a.73.73,0,0,1-.41-.09h0a2.88,2.88,0,0,0-.5-.24c.22-1.88-1.92-1.8-3-1.06-.79-.11-1.51-.86-2.38-.92h0c-1.12-.26-4.1.71-4.59,1.85-1.18.33-2.32,0-3.51.22-2.66-1.67-3.88,1.83-6.37,2.5h0s0,0,0,0a1,1,0,0,0,.24,1.7,1.19,1.19,0,0,0-.34.69,1.1,1.1,0,0,0-.17,1.83,5.29,5.29,0,0,0,.09.71c-1.14,2.1-2,4.86-1,7.17.42,1.84-.64,3.81-.7,5.68,0,0,0,0,0,0h0a10.17,10.17,0,0,0,0,2.81c.58,2.82,2,5.26.34,8a5.72,5.72,0,0,0,1.8,5c-2.73,10.88.41,10.65.57,20.05-1.5,4.62,1.53,9.23-.18,13.74-1.35,3.3,1.09,3.15-1.21,7.67-.18.77.3,1.66.28,2.35a7.06,7.06,0,0,0,0,3.65c.31,1.48,2.16,2.49,1,4.17h0a0,0,0,0,0,0,0,6.07,6.07,0,0,0-.35,5.18.43.43,0,0,1,0,0,4.82,4.82,0,0,0,1.66,2.18,9.54,9.54,0,0,0,.48,1.19,1.67,1.67,0,0,0-.38.69,7,7,0,0,0,.67,2.19c1.35,1.75,3.71-.61,5.17.72,1.5,1.86,3.74.05,5.49.38a.82.82,0,0,0,1.05-.28c.72.2,1.65.05,2.08.79h0c.47.68,1.38.3,2,.68l0,0h0c.07,0,.05,0,.05,0h0a15.19,15.19,0,0,0,3.69,0c.5.08,3.51-1.68,2.22-1.48.93-.18,2.12,0,2.94-.17h.06c1.22.21,1.46-1.06,1.93-1.83,1.53,1.48,3-1.14,1.85-2.47a3.64,3.64,0,0,0,.1-1c1.71-1.81,1.81-4.9.95-7.15C286.47,225.83,287.92,223.27,287.43,220.65Zm-2.52,17.5Zm0,0Z"/></clipPath><clipPath id="clip-path-3"><path class="cls-1-tiu" d="M203.57,87.18a23.59,23.59,0,0,0-1-3,3,3,0,0,1-.12-.83c.21-.16.12-.47.06-.69a4,4,0,0,0,0-2.14A5.17,5.17,0,0,0,197.89,77c-1.33-.25-2.42.76-3.64,1-5.92-.26-25.76,1.64-27.85-3.71-.58-.66-.69-1.81-1.43-2.17a8.57,8.57,0,0,0-.43-2.42c1.66-1.51,3.16-3.74,5.67-3.63a8.91,8.91,0,0,0,4.94-.72c1.63-.22,3.34.19,4.84-.7.62-.34,1.12,0,1.74.14a4.17,4.17,0,0,0,3.63-.82c2-.05,2-2,2-3.55,1.1-1.62.58-4.18.23-6A8.23,8.23,0,0,0,187,48.4c-.49-1.23-1.86-.88-2.87-1.29-2-1.6-4.57-.55-6.7-1.27-2.4-1.27-5.19-1.32-7.74-2a36.79,36.79,0,0,0-3.35-3c-.88-1.15-1-2.78-1.77-4,.19-3.3-.59-8.65,2.86-10.07,9.57-2.49,20.52,2.53,30-.35,2.42.2,6.05-1.56,5.13-4.48a5.93,5.93,0,0,0,1.24-4.49c-1.56-3.46,1.7-7.3-2.79-9.25h0a3.68,3.68,0,0,0-2.49-2c-1.86-.62-4.75-2.2-6.4-1.74-.66-.22-1.23-1-1.91-1.21C187,2.77,179.43.15,176.34.81,166.81-.86,161,.16,152.67,2.91A46.58,46.58,0,0,0,144,6.41a10.66,10.66,0,0,0-6.15,3.79c-3.64,2.12-3.52,8.88-5,12.67-1.31,11.79-2.28,14.86-1.91,29.47.42,13.89-.47,26.71,4.54,38.63,1,2.71,3.93,3,5.57,5,3.27,1.18,6.12,3,9.66,3.55,8.73,2.84,13.64,3.68,23,2.37C184.58,102.27,203.73,101.77,203.57,87.18Z"/></clipPath><clipPath id="clip-path-4"><path class="cls-1-tiu" d="M405,77.53c.3-1.58,0-3.38.58-5,.27-1.38-1-2.49-1.15-3.74a6.34,6.34,0,0,0-.63-4.48,1.08,1.08,0,0,1,.13-.45c.59-3.53-3.59-6.49-6.1-8.31-1.93.23-1.75-2-3-2.95-1.33-4.1-6.26-1.85-8.52-7.55a2.35,2.35,0,0,0-2,0c-2.18.58-2.19-2.91-4.33-3-.71-.07-1.64.48-1.73-.59a.32.32,0,0,0-.24-.19c-1.61.09-2.81-1.65-4.42-.65-1.7.5-2-2.13-3.14-2.9-1.52-1.11-3.53-1.5-5.31-2,0-.27-.6-.28-.72-.47.1-.18.45-.28.2-.57a2.57,2.57,0,0,0-.07-3c-.5-.34,0-1.05-.07-1.56,0-.22,0-.45,0-.69a4.49,4.49,0,0,1,1.27-.91c1.16.61,2.83.11,3.79-.25.94-1.6,1.46,1.11,2.82.51l0,0c.37-.25.64-1.12,1-.27a1.32,1.32,0,0,0,1.91.18,7.32,7.32,0,0,0,6.39,1.34c.72.23,1.43.47,2.14.74a6.8,6.8,0,0,0,4.78,3.37c.57.78,1.23,2.5,2.49,1.75.65-.39.5.5.76.84a1.8,1.8,0,0,0,2.11.8,3.52,3.52,0,0,0,1.23.59c1.76,2.43,7,.62,6.43-2.5h0a1.05,1.05,0,0,1,.41-.9c1.24.23,2.47-.84,3.24-1.68,1.87-.7,3.51-2.59,3.25-4.69a0,0,0,0,1,0,0s0-.06,0-.08c-.28-1.77,2.77-3.43,1.11-5.56-.27-.35-1.12-.23-1-.84a2.58,2.58,0,0,0-1.71-3.05,4.23,4.23,0,0,0-2.61-1.92c-1.16-1.21-2-2.68-3.33-3.69s-3.51-.95-4.45-2.74a12,12,0,0,0-5-3.78,8.29,8.29,0,0,1-3.67-.94c-3.9-.13-6.36-5.26-10.58-2.94-1,.88-2-.1-3.07-.25-9.3-5.36-13.18,1.52-22.34.87-4.56.88-4.34.94-7.73,3.91-2.27,1.55-5.43,1.66-6.92,4.17-1.42,2-4.46,2.49-5,5.18a7.5,7.5,0,0,0-.83,7.79c-.11,2.09-1.93,3.88-1.56,6.16.1,1.75,1.25,3.18,2.16,4.58.2,1.28,0,2.73.8,3.89,1.85,2,1.34,2.22,1.26,4.58.83,2.36,2.86,3.85,4.92,5.09,1.88,2.88,5.2,4.07,7,7,3.64,1.35,4.91.35,7.08,4.4a.14.14,0,0,1,0,0c1.13,1.83,3.24,1.77,4.91,2.53.34.95,1.46.78,2.22,1.06,1.14.61,1.72,2,3,2.38.88.39,2-.26,2.75.28,1.26,1.29,1.12,3.18,1.3,4.83,0,.51.07,1,.11,1.52.34,2.24-1.81,4.24-3.22,5.72-3.36-.11-7.54,2.5-9.35-1.67-3.19-.05-2.4,1.16-4.17-2.28h0c-.64-1.06-1.81-.67-2.7-.88-.14-1-.56-.9-1.42-1-1.05-.65-1.85-1.44-3.13-.75-2.86.25-.9-6-8.54-2.66a1.65,1.65,0,0,0-1,.11c-3.55-1.77-4.85.93-6.58,3.51-4.14-.09-1.53,1.46-3.35,3.5-1.41,1.12-1.8,2.47-.89,3.94-1,.49-.29.89-.39,1.78-.4,2,.43,2.1,1.71,3.16.12,1.27-.64,2.71.21,3.93a4.86,4.86,0,0,0,3.95,1.58c2.11.84,2.78,3.76,5.21,3.93,1.45.82,1.9,3.22,3.79,3.74,3.28.91,2.78-1.2,5.38,2,1.05.51,2.07-.16,3-.6a8.77,8.77,0,0,0,9.7,1.87c4.5,2,3.8,2.31,8.69,1.06,1.32.28,2.35,2.14,3.71,1,1-.83,2,.71,3.09.48.57-.07.94-.79,1.53-.41a3.05,3.05,0,0,0,3.08-1.74c.5-.4,1.21.18,1.76.34a3.54,3.54,0,0,0,4-2.74c3.61.53,6.89-1.41,9.09-4.28,1.9-2.46,5.16-3.58,7.63-5.55,1.16-1.21,1.21-3.23,2.54-4.31,1-.71,1.39-1.95,2.17-2.74a4.42,4.42,0,0,0,1.57-2.93C404.26,79,404.25,78,405,77.53Z"/></clipPath><clipPath id="clip-path-5"><path class="cls-1-tiu" d="M81.43,169.62a34.34,34.34,0,0,1-1.34-4.29c1.34-4.69-2.17-7.3-2.78-11.58,0,0,0-.05,0-.06-1.9-5.58-4.54-.16-7.84-10.43a5.2,5.2,0,0,0-3.36-1.69c-1.63-1.09-2.37-3-3.86-4.27-3.79-3.64-9.35-2-13.76-3.41-4.94-3.3-10.41,1.2-15.42-.83-1.82-.91-3.36.72-5,1.19-1.65.1-3.57.1-4.55,1.69-1.48.74-4.26.73-5.06,2.77-.51,3.7-7.83.29-7.7,8.07-1.32,1.23-3.64,1.62-4.17,3.65a5.94,5.94,0,0,1-.3,2.84c-3.27,4.19-1.63,5.66-1.41,10.11-1.88,2.25-2.39,4.67-.53,7.15a28.3,28.3,0,0,0-1.59,12.28c1.27,4.4-2.6,8.71-.33,13.24.46,2.14-2,3.71-1.27,5.79,1.13,1.6-.49,3-.6,4.61,0,.75.61,1.46.08,2.14a5.42,5.42,0,0,0,.88,4.78c.28.93-.67,1.73-1,2.52-.9,2.05.36,4.25.84,6.19A4.38,4.38,0,0,0,1,223.43c-2.07,1.89-.63,4.66,1.94,5H3c.49,0,.63.61,1.07.72l0,0c.87.44.65,1.53,1.1,2.26A5.29,5.29,0,0,0,12,233.78a9.21,9.21,0,0,0,2,.5,5.56,5.56,0,0,0,8.08-.28c.08-.07.08,0,.1,0,2,.53,4.47.52,5.42-1.66a7,7,0,0,0,.31-.69,2.9,2.9,0,0,0,1.17-2.48,1.85,1.85,0,0,0,.25-1.53c1.82-.47,1.13-3.07-.46-3.39a2,2,0,0,1-.09-.55c1.22-1.45,2.14-1,.74-3.1-1.67-2.52,2.58-3.15-.37-6.29,0-1,0-2.08.05-3.18,2.51-2.48,3.06-8.19.22-10.57,0-.33,0-.65,0-1a1.34,1.34,0,0,0,.79-.51,9,9,0,0,1,1.57,2.2c-.27,2.07.75,4.68,3.11,4.85l.57,1c-1.83,2.42,1.49,2.42,1.36,3.84-1.23,4.21,4.28,4.75,5.26,8-.15.23-.27.44-.4.66h0s0,0,0,0a3.24,3.24,0,0,0,1.45,4.37,4,4,0,0,1,1.32.93c1,.94.56,3.5,2.56,3.13.15.26.25.44.41.67-1,.81-.5,2.59.92,2.19a2.24,2.24,0,0,0,.11.5c-.52,3.34,1,4.1,4.1,3.9.67.82.48,2,1.3,2.83,1.06.09,2.25-.68,3.2.23a6.26,6.26,0,0,1,1.27-.85c1.23,0,3-.18,3.72-1.22a5.7,5.7,0,0,1,2.87,0c2.27.09,3.83-2.27,5.92-2.88a7.6,7.6,0,0,0,3.87-6.39c-.25-1-1.35-1.52-1.27-2.59a1.64,1.64,0,0,0-.33-3c-.08-.12-.17-.23-.26-.35.48-2-1-3.56-2.22-4.83-.31-1.89-.47-4-1.87-5.5-6.07-3.63-.59-5.43-6-7.54a6.07,6.07,0,0,1-.68-4.05c.24-1,1.64-.86,2-1.79,1.74-5,3.69-4.26,7.69-6.24,1.58-1,1.54-3.2,2.82-4.41,1.23-1,3.6-1.28,3.17-3.35-.24-1.55,1.86-1.54,2.27-2.81.27-.47.06-1.19.24-1.63a3.28,3.28,0,0,0,0-4.14,1.63,1.63,0,0,1,.35-1.76A4,4,0,0,0,81.43,169.62Zm-31,2.64c-1.63.49-1.06,2.55-2.74,2.77a3.24,3.24,0,0,0-2.82.88c-.37.4-.61.14-1.07.18a5.58,5.58,0,0,0-3.5,2.15c-2.77-.17-4.82-3.74-8-.52a8.91,8.91,0,0,0-2.13.05c.12-2.49,1.51-4.81.59-7.34,1-2,2.48-4.69,1.55-6.88a1.5,1.5,0,0,1,.2-.74c.56-3.85,3.65-1.34,4.65-4.85,4-1.77,1.93-1.47,6-.49,1.77.08,3.29,1.27,5.08,1.23.49.45,1,1,1.62,1.43S50.3,161.55,51,162c.36,1.94-.43,3.9.47,5.76C52.85,169.38,52.31,171.24,50.45,172.26Z"/></clipPath><clipPath id="clip-path-6"><path class="cls-1-tiu" d="M293.68,26.55a1,1,0,0,1,.05-.66c.08-.16.15-.32.22-.49a3.19,3.19,0,0,0,.13-.37,14,14,0,0,1,.22-1.8,3.89,3.89,0,0,1,.5-.88,5,5,0,0,1,.62-.68l.07-.06.12-.1c.08-.08.18-.15.27-.23l.33-.27.05-.05c.24-.21.26-.31.34-.68a0,0,0,0,1,0-.05,7.1,7.1,0,0,1,.83-2.28c.25-.4.61-.79.91-1.2a2.59,2.59,0,0,0,.46-.8,11.15,11.15,0,0,1,.78-2.39A13.53,13.53,0,0,1,300.63,12a6,6,0,0,1,.41-.47,2.61,2.61,0,0,0,.17-.2,2,2,0,0,0,.32-.65c.1-.36.12-.74.24-1.21v0A5,5,0,0,0,302,8a3.57,3.57,0,0,0-.11-.55,3,3,0,0,0-.12-.4c-.1-.37-.22-.76-.3-1.16,0-.15-.06-.3-.08-.44a4.64,4.64,0,0,1,0-.64c0-.29.15-.7.43-.64s.31,0,.44.05a2.61,2.61,0,0,1,.67.22c.1.06.22.11.34.17.75.35,1.47.88,2.19,1.3l.1.06A10.94,10.94,0,0,1,306.92,7c.36.32.71.64,1.05,1s.92.9,1.4,1.31l1.09,1c.32.3.64.58,1,.87s.76.65,1.14,1l.63.51c.4.31.81.59,1.22.87l1.12.72c.65.42,1.29.84,1.92,1.31,1.09.8,2.19,1.51,3.29,2.18l.91.54c.85.5,1.73,1,2.6,1.52.57.35,1.13.73,1.66,1.13a7.4,7.4,0,0,1,1.53,1.42l0,0c.24.35.44.65.66,1l0,.06c.18.27-.62.09-1,0a6.87,6.87,0,0,1-.87-.21c-.26-.08-.53-.17-.78-.23a8.15,8.15,0,0,0-1-.26h-.1a3.94,3.94,0,0,0-.75,0,5.75,5.75,0,0,0-1.31.31,9.81,9.81,0,0,1-2.06.56l-.48,0a1.91,1.91,0,0,0-.53.1,1.22,1.22,0,0,0-.26.16,6.06,6.06,0,0,0-.54.58l-.17.17-.7.72c-.24.24-.49.48-.76.71-.64.59-1.25,1.24-2,1.78-.12.11-.26.2-.38.29-.32.22-.67.43-1,.63l-.23.13c-.41.22-.61.28-.81.62l0,.06c-.06.1-.11.2-.18.3a4.05,4.05,0,0,1-.21.35,10.43,10.43,0,0,1-1.17,1.62c-.14.16-.3.32-.45.47a5.92,5.92,0,0,1-1,.8c-.33.21-.66.32-1,.5a1.89,1.89,0,0,0-.69.61l-.23.28a.22.22,0,0,0-.06.07,2.71,2.71,0,0,1-1.12.68,5.85,5.85,0,0,1-.59,0,10.7,10.7,0,0,1-1.37-.27.61.61,0,0,0-.13,0,4.25,4.25,0,0,1-.5-.22,9,9,0,0,1-.79-.46l-.74-.52c-.35-.23-.64-.47-1-.7a3.09,3.09,0,0,1-.43-.37c-.1-.1-.09-.27-.19-.35a.57.57,0,0,0-.18-.12c-.3-.14-.67-.12-1-.27a.26.26,0,0,1-.1-.07l-.07,0-.31-.22c-.23-.18-.47-.35-.71-.51a18,18,0,0,1-2-1.51.85.85,0,0,1-.16-.19c-.12-.21-.08-.41-.21-.68h0c-.18-.3-.66-.46-.95-.66h0a3.48,3.48,0,0,1-.88-.91A2.17,2.17,0,0,1,293.68,26.55Z"/></clipPath><clipPath id="clip-path-7"><path class="cls-1-tiu" d="M125.1,95.37a5.48,5.48,0,0,1-1.3.91,10,10,0,0,1-2.12.83,11.3,11.3,0,0,1-2.34.34h0a2.91,2.91,0,0,1-.31,0,4.7,4.7,0,0,1-.45-.17,3.31,3.31,0,0,0-.65-.27,1.07,1.07,0,0,0-.5,0,2,2,0,0,0-.39.22,3.05,3.05,0,0,1-.55.36,6.82,6.82,0,0,1-1,.25,13.06,13.06,0,0,1-2.36.38c-.48,0-2.6.22-5.48.47l-.91.08-.55,0-.45,0L92.84,100l-.48,0c-.13,0-.26-.12-.39-.11s-.17.16-.26.17l-6.25.59a3.44,3.44,0,0,1-1.18.07c-.38-.08-.54-.35-.9-.46-.65-.21-.75.21-1.44.29-1.56.2-4.08,0-5.71.07a3.76,3.76,0,0,1-2.14-.71c-.26-.19-.29-.1-.61-.3s-.56-.08-1-.15a2.78,2.78,0,0,1-1.62-1.78,3.88,3.88,0,0,1-.14-.53c0-.07,0-.14,0-.23a.94.94,0,0,0-.1-.26c-.07-.1-.16-.16-.25-.27a.74.74,0,0,1-.1-.16.8.8,0,0,1-.08-.16c-.06-.12-.11-.23-.16-.35a9.73,9.73,0,0,1-.37-1.61c-.14-.81,0-.64-.38-1.31a17.71,17.71,0,0,1-1.62-5.37c-.06-.52-.16-1-.26-1.57s-.31-4-.59-9c0-.21,0-.43,0-.63s0-.26,0-.38,0-.25,0-.37a2.44,2.44,0,0,1,0-.27c0-.11,0-.22,0-.33-.5-8.93-.81-21.22-1.16-28.73-.16-3.58-.57-19.28-.32-22.85a2.51,2.51,0,0,1,0-.31,5.08,5.08,0,0,1,.29-.77c.06-.17,0-.24,0-.4a.74.74,0,0,0,0-.21,2.72,2.72,0,0,0,0-.3c-.08-.79-.4-.62-.4-1.64,0-1.5-.08-5.06,0-6.88,0-.16,0-.31,0-.44a.66.66,0,0,0,0-.14c0-.14.12-.25.12-.37s-.13-.26-.14-.37a5.45,5.45,0,0,1-.26-2A3.81,3.81,0,0,1,65,9a9.71,9.71,0,0,1,.23-1.06c0-.13.08-.27.12-.41.11-.35.22-.7.35-1a4.77,4.77,0,0,1,.84-1.15L67,4.76a7.59,7.59,0,0,1,.6-.66,4.28,4.28,0,0,1,.71-.54l.57-.31a9.53,9.53,0,0,1,.93-.38,8.34,8.34,0,0,1,1.11-.35,8.7,8.7,0,0,1,1.24-.22c.49,0,1-.08,1.48-.11A3.87,3.87,0,0,0,74.78,2l.4-.19a4.15,4.15,0,0,1,.71-.32,9.75,9.75,0,0,1,3.28-.31c.64,0,1.28.07,1.88.13.93.08,1.72.66,2.55.76l.18,0a2.18,2.18,0,0,0,.44,0h.38A3.74,3.74,0,0,1,86,2.2,5.28,5.28,0,0,1,88.1,3.58l.35.36a1.91,1.91,0,0,0,.35.27A5.47,5.47,0,0,1,90.21,5a4.59,4.59,0,0,1,.33.44,12.53,12.53,0,0,1,.9,1.75A3.8,3.8,0,0,1,91.7,8c.06.3.09.58.12.84s.05.6.09.95c0,.17,0,.35,0,.52A6.93,6.93,0,0,1,92,11.6a4,4,0,0,0,0,.77,1.72,1.72,0,0,0,.07.37c0,.11,0,.23,0,.38l0,.08a3.43,3.43,0,0,1,.23.52,30.66,30.66,0,0,1,.37,4.65,34.1,34.1,0,0,1,.1,4.95.37.37,0,0,1,0,.11,2.42,2.42,0,0,1,0,.47.37.37,0,0,1-.08.18l-.08.17c-.13.32.12.31.11.78v0c0,.32.21,10.19.44,20.07s.44,19.66.44,20.16v.08c0,.25,0,.35,0,.41a.42.42,0,0,0,0,.19c0,.07-.07.17,0,.35,0,0,0,0,0,0a3.24,3.24,0,0,1,.2.33q.1.33.21.6c.25.62.53,1.09.86,1.92a.16.16,0,0,1,0,.07,1.69,1.69,0,0,0,.13.3,2.26,2.26,0,0,0,.15.44c.07.11.21.1.3.18l.38.33.14.1c.35.29.77.76,1.16,1.06.09.07.16.19.24.26a.28.28,0,0,0,.09.07c.11,0,.25,0,.39,0a4.11,4.11,0,0,0,.65.17l1.23.25a13.56,13.56,0,0,0,1.49.3c.14,0,.35.12.51.13h0c.17,0,.28-.14.48-.14l.94,0c.36,0,.71,0,1,0,.8,0,10.41-1.62,14.13-2l.22,0a3.71,3.71,0,0,1,.89,0c.62.07.71.34,1.21.39.1,0,.2,0,.31,0l.23,0a4.11,4.11,0,0,1,1-.08l.4,0a4.67,4.67,0,0,1,1.12.33,1.77,1.77,0,0,1,.53.44c.23.23.42.48.6.67s.57.58.84.86a4.76,4.76,0,0,1,.62.8c.07.12.12.24.19.35a12.83,12.83,0,0,1,.79,2.82,11.46,11.46,0,0,1,0,4.21,1.21,1.21,0,0,0,0,.18l-.09.3c0,.13-.09.27-.14.4a2.43,2.43,0,0,0-.16.63h0a1.54,1.54,0,0,0,.36,1,2.17,2.17,0,0,1,.3.61c.08.29.14.56.19.82a11.56,11.56,0,0,1,.14,1.69q0,.31,0,.66a3.74,3.74,0,0,1-.08.74,7.88,7.88,0,0,1-.39,1.49,2.54,2.54,0,0,0-.13.39,4.44,4.44,0,0,0-.09,1.26,3.33,3.33,0,0,1-.13.94,3.8,3.8,0,0,1-.8,1.42,2.67,2.67,0,0,1-.46.43C125.42,94.79,125.36,95,125.1,95.37Z"/></clipPath><clipPath id="clip-path-8"><path class="cls-1-tiu" d="M244.15,147.77c-.05-.13-.1-.27-.16-.41a4,4,0,0,0-.63-1.17l-.13-.13a1.09,1.09,0,0,0,0-.18c0-.14,0-.26-.05-.4l.1-.16a.65.65,0,0,1,.1-.15l.09-.22a1.77,1.77,0,0,0,.09-.86,4.33,4.33,0,0,0-.16-.67l-.09-.26-.08-.16a1.93,1.93,0,0,0-.78-.88,1.47,1.47,0,0,0-.36-.17,2.05,2.05,0,0,0-.34-.07,3.68,3.68,0,0,0-1.05,0L240,142l-.15-.05h0a11,11,0,0,0-2-.5,2.8,2.8,0,0,1-.31-.28,4.51,4.51,0,0,1-.4-.47c-.21-.25-.4-.59-.63-.89a1.66,1.66,0,0,0-.79-.64,1.41,1.41,0,0,0-.49,0,1.39,1.39,0,0,0-.44.13,3.27,3.27,0,0,0-.74.49,1.21,1.21,0,0,1-.86.32,3.39,3.39,0,0,1-1.53-.78,3.13,3.13,0,0,0-.79-.41s0,0,0,0a2.35,2.35,0,0,0-1.46,0,1.71,1.71,0,0,0-.4.21c-.17.14-.33.37-.53.45a.34.34,0,0,1-.2,0c-.25-.06-.32-.28-.47-.38a.36.36,0,0,0-.28,0l-.08,0c-.28.08-.53.33-.82.4a4.55,4.55,0,0,1-1,.1,1.5,1.5,0,0,0-1,.25,2.84,2.84,0,0,0-.59.69,1.62,1.62,0,0,0-.13.19,1,1,0,0,1-1.37.34l-.47-.21c-.19-.09-.39-.18-.58-.25a3.45,3.45,0,0,0-.62-.2,3.87,3.87,0,0,0-.81-.12,2.46,2.46,0,0,0-.67,0l-.07,0h-.05l-.07,0a1.61,1.61,0,0,0-.29.09h0a2.87,2.87,0,0,0-1.08.82,10.11,10.11,0,0,0-.72,1l-.07.13a3,3,0,0,0-.34.95,1.67,1.67,0,0,0,0,.39,2.81,2.81,0,0,0,0,.65v0a1.65,1.65,0,0,0-.09.22.84.84,0,0,0,0,.18,1,1,0,0,0-.23.13,2.31,2.31,0,0,0-.23.18,7.28,7.28,0,0,0-.59.62,1.28,1.28,0,0,0-.15.25,3.62,3.62,0,0,0-.28,1.34,5.25,5.25,0,0,0,0,1c0,.1,0,.2,0,.3a4.37,4.37,0,0,0,.09.56,3.88,3.88,0,0,0,.38,1l.09.17a1.12,1.12,0,0,1,.16.61,4.43,4.43,0,0,1-.2,1c0,.09,0,.19-.05.27-.17,1-.4,2-.54,2.83,0,.2-.06.4-.08.6a.22.22,0,0,0,0,.08.41.41,0,0,1,0,.11,1.48,1.48,0,0,1,0,.21v.45c0,.19,0,.37.06.55a4,4,0,0,0,.1.52,5.38,5.38,0,0,0,.33,1,.8.8,0,0,0,.08.16,8.25,8.25,0,0,1,.42,1,1.7,1.7,0,0,1,0,1c-.07.19-.14.37-.22.56s-.07.17-.12.27l-.12.25a3.88,3.88,0,0,0-.49,1.69,4.17,4.17,0,0,0,.19,1.08c.06.21.14.43.22.63s.15.34.22.47a3.74,3.74,0,0,1,.47.85.15.15,0,0,1,0,.07.74.74,0,0,1,0,.21h0a2.75,2.75,0,0,1-.24.62c-.08.19-.15.36-.24.54-.23.5-.46,1-.67,1.48-.08.22-.16.44-.23.66a7,7,0,0,0-.34,1.54,16,16,0,0,0-.06,2.29,20.43,20.43,0,0,0,.23,2.21c.09.55.2,1.07.3,1.59l.06.33c-.05.56-.11,1.12-.16,1.68-.07.15-.13.31-.22.47a14.72,14.72,0,0,0-1.24,2.88c-.07.23-.13.47-.18.71s-.07.39-.1.59a7,7,0,0,0,0,1.58,6.55,6.55,0,0,0,.1.79,6,6,0,0,1,.16,1.34,2.63,2.63,0,0,1-.08.68c0,.07,0,.15-.07.21a5.45,5.45,0,0,1-1,1.68l-.1.11a2.2,2.2,0,0,0-.66,1.85c0,.15.05.3.07.45a2.61,2.61,0,0,1,0,.79,1.5,1.5,0,0,1-.34.74c-.2.26-.4.48-.57.72a3,3,0,0,0-.33.61,4.21,4.21,0,0,0-.12.42,3.42,3.42,0,0,0,0,1c.06.46,0,.46-.25.78a.86.86,0,0,0-.1.16,13.89,13.89,0,0,0-.46,1.76,1.59,1.59,0,0,0-.06.3,3,3,0,0,0,.1.77,2.5,2.5,0,0,1,.07.41,1.59,1.59,0,0,1,0,.43.62.62,0,0,1-.14.28.67.67,0,0,1-.21.2,1.36,1.36,0,0,1-.57.18l-.28,0a2.43,2.43,0,0,0-.27,0h-.07l-.44,0-.3.07-.3.06-.94.29-.14,0-.15,0a8,8,0,0,1-1.32.16l-.28,0a5.52,5.52,0,0,1-.43-.53l-.12-.18c-.13-.19-.2-.07-.34-.28,0-.06-.14-.46-.18-.52l-.21-.32c-.15-.79-.22-1.56-.4-2.32-.06-.21-.12-.42-.19-.63a4.92,4.92,0,0,0-.27-.69v0a7,7,0,0,0-1.06-1.69l-.11-.11a2.41,2.41,0,0,1-1-1.71c0-.4,0-.8,0-1.19a3.73,3.73,0,0,0-.3-1.77,3.5,3.5,0,0,0-.62-.87,6.29,6.29,0,0,0-.47-.43,2,2,0,0,0-.4-.29,3.18,3.18,0,0,1-.77-.47.1.1,0,0,1,0,0,1.65,1.65,0,0,1-.18-.86c0-.2,0-.39-.05-.59,0-.56-.08-1.11-.14-1.64,0-.24-.06-.47-.11-.7a7.18,7.18,0,0,0-.42-1.5c-.13-.34-.28-.69-.44-1l-.5-1a17.53,17.53,0,0,0-1.11-1.81c-.3-.45-.6-.86-.9-1.27-.09-.13-.18-.25-.28-.37a2.4,2.4,0,0,1-.31-.59,3.83,3.83,0,0,1-.16-1.39,15.19,15.19,0,0,0-.16-3.16c0-.24-.09-.48-.15-.71a5.54,5.54,0,0,0-.17-.58,5.71,5.71,0,0,0-.66-1.39,7.33,7.33,0,0,0-.45-.64,5.34,5.34,0,0,1-.72-1.06,2.22,2.22,0,0,1-.24-.62c0-.07,0-.15-.05-.23a6,6,0,0,1,0-2c0-.05,0-.1,0-.15a2.23,2.23,0,0,0-.35-1.94c-.09-.12-.18-.23-.26-.35a1.87,1.87,0,0,1-.44-1.48c0-.33.11-.62.13-.92a2.58,2.58,0,0,0,0-.68,2.5,2.5,0,0,0-.06-.38,1.57,1.57,0,0,0-.18-.42,2.78,2.78,0,0,0-.22-.42c-.22-.37-.14-.41,0-.8a1.36,1.36,0,0,1,0-.2,3.83,3.83,0,0,0,0-.47,5,5,0,0,0-.09-.51c0-.17-.08-.34-.11-.5s-.08-.33-.11-.48a1.69,1.69,0,0,0-.11-.32,2,2,0,0,0-.51-.67,3,3,0,0,1-.57-.64,1.14,1.14,0,0,1-.16-.63,4.48,4.48,0,0,1,.07-.7c0-.11,0-.23.05-.35l0-.17c0-.05,0-.1,0-.15s0-.06,0-.09a2.29,2.29,0,0,0,0-.58,3.5,3.5,0,0,0-.18-.85,4.65,4.65,0,0,0-.34-.77,3.78,3.78,0,0,0-.55-.73,4,4,0,0,0-.47-.37c-.09-.06-.2-.11-.29-.16l-.29-.09-.25,0h0a2.68,2.68,0,0,0-.14-.43l.09-.27a1.22,1.22,0,0,0,.07-.17,2.21,2.21,0,0,0,0-.25,1.49,1.49,0,0,0-.14-.87,3.08,3.08,0,0,0-.35-.58,1.62,1.62,0,0,0-.17-.19.49.49,0,0,0-.12-.13,2,2,0,0,0-.88-.54,2.6,2.6,0,0,0-.66-.11,4.27,4.27,0,0,0-1,.17l-.4.15-.38.2c-.25.13-.48.28-.72.43l-.19.1h0a2.16,2.16,0,0,0-.51,0l-.89,0c-.23,0-.45,0-.68.06l-.1-.07c-.13-.1-.25-.22-.37-.33l-.17-.16c0-.05-.12-.09-.18-.14a1.09,1.09,0,0,0-.41-.13.84.84,0,0,0-.42.05,1.33,1.33,0,0,0-.35.19,4.53,4.53,0,0,0-.62.62,1.11,1.11,0,0,1-.78.42,1.43,1.43,0,0,1-.75-.2c-.25-.13-.51-.3-.79-.45a2.54,2.54,0,0,0-.81-.32h0l-.37,0a2.58,2.58,0,0,0-.39,0,2.06,2.06,0,0,0-.72.25,1.89,1.89,0,0,0-.37.32l-.22.3a1,1,0,0,1-.22.26.3.3,0,0,1-.18.06c-.24,0-.34-.24-.5-.31a.25.25,0,0,0-.25,0l-.06,0c-.24.13-.41.42-.68.54a3.3,3.3,0,0,1-.93.21,1.31,1.31,0,0,0-.85.36,2.63,2.63,0,0,0-.5.75,1.39,1.39,0,0,1-.11.21s0,0,0,.06l-.36.16h0a2.69,2.69,0,0,0-.32.19l-.15.12a2.1,2.1,0,0,1-.36-.09l-.47-.19-.58-.21a4.34,4.34,0,0,0-.62-.16,3.51,3.51,0,0,0-.86,0l-.38.08a3,3,0,0,0-.38.15,2.2,2.2,0,0,0-.37.23,0,0,0,0,0,0,0,1.56,1.56,0,0,0-.2.16l-.2.2-.19.19-.18.23-.18.23-.17.24c-.12.15-.23.34-.34.5l-.09.13a2.81,2.81,0,0,0-.22.5,2.56,2.56,0,0,0-.13.53c0,.15,0,.29,0,.43a2,2,0,0,0,.07.35,1.6,1.6,0,0,0,.1.31l.05.09a5.21,5.21,0,0,0,0,.79c0,.2,0,.4.07.6s0,.15-.05.22,0,.25-.07.38a11.09,11.09,0,0,0,0,1.73c0,.43.05.87.11,1.32l.06.38a7,7,0,0,0,.16.72,4.33,4.33,0,0,0,.57,1.26l.13.19a1.7,1.7,0,0,1,.31.72,8.58,8.58,0,0,1,.08,1.36c0,.12,0,.24,0,.35a24.31,24.31,0,0,0,.59,3.8c.07.28.16.56.24.83s.22.58.34.87c0,0,0,0,0,0a14.15,14.15,0,0,0,1.13,2.23l.12.18c.24.37.52.72.72,1.1a2.54,2.54,0,0,1,.31,1.31c0,.5-.05,1-.08,1.5a8.67,8.67,0,0,0,0,1.14,4.7,4.7,0,0,0,.27,1.17,5.33,5.33,0,0,0,.69,1.21,6.87,6.87,0,0,0,.52.64,4.45,4.45,0,0,0,.46.43,6.49,6.49,0,0,1,.83.66l.27.72c0,.17,0,.34,0,.5s.05.5.08.75c.07.72.15,1.41.26,2.11a8.76,8.76,0,0,0,.18.89c.08.33.17.65.28,1a8.08,8.08,0,0,0,.37,1c.18.44.39.87.6,1.28.06.11.11.22.17.32l.15.31c.1.21.21.42.32.62l.66,1.21c.21.4.45.8.68,1.18.35.6.7,1.15,1.06,1.7l.32.5a4.58,4.58,0,0,1,.38.77,3.78,3.78,0,0,1,.2.82c0,.15,0,.3,0,.45s0,.32,0,.48c0,.33,0,.66.09,1,0,.17,0,.34.06.51a4.54,4.54,0,0,0,.09.51,9.47,9.47,0,0,0,.22,1c.08.33.17.67.28,1a9.4,9.4,0,0,0,.34.88,7.4,7.4,0,0,0,.32.71,9.77,9.77,0,0,0,1.07,1.66,6.68,6.68,0,0,0,.66.73,9.86,9.86,0,0,1,1.09,1.22,3.83,3.83,0,0,1,.42.74,2.36,2.36,0,0,1,.12.28,9.53,9.53,0,0,1,.57,2.5c0,.06,0,.12,0,.18a4.5,4.5,0,0,0,.28,1.28,2.82,2.82,0,0,0,.31.56,2.34,2.34,0,0,0,.45.5l.41.37a4.09,4.09,0,0,1,.64.73,2.55,2.55,0,0,1,.39,1c.07.42.14.84.18,1.16l.09.39a2.77,2.77,0,0,0,.12.41,4.59,4.59,0,0,0,.21.47,2.92,2.92,0,0,0,.34.52l.41.48c.39.41.32.5.4,1l.06.26a6.42,6.42,0,0,0,.57,1.19l.71,1.11a2.52,2.52,0,0,0,.27.34c.52.56,1.14.56,1.73,1.06a1.79,1.79,0,0,1,.48.67,5,5,0,0,1,.24.85c.07.28.13.56.21.83l0,.11a3.85,3.85,0,0,0,.31.69,7.31,7.31,0,0,0,.6.89l.15.19c.06,0,.1.11.16.17s.23.23.34.33a8,8,0,0,0,.72.61l.47.29a8.37,8.37,0,0,0,.94.48,5.69,5.69,0,0,0,.95.28l.43.08.34,0h.37l.14.17h0a1.13,1.13,0,0,0,0,.26,2.71,2.71,0,0,0,.38,1.1,3.57,3.57,0,0,0,.47.74,1,1,0,0,0,.16.19,2.61,2.61,0,0,0,.32.34,2.31,2.31,0,0,0,.36.25,3.54,3.54,0,0,0,.39.19l.15,0a.73.73,0,0,1,.4.3,5.21,5.21,0,0,1,.4.82c0,.08.07.15.1.22a9.61,9.61,0,0,0,.72,1.11,5,5,0,0,0,.43.49,3.2,3.2,0,0,0,.47.43,3.12,3.12,0,0,0,.49.31,2.64,2.64,0,0,0,.57.24h0a4.26,4.26,0,0,0,.79.16,3.48,3.48,0,0,0,.79,0l.14,0a4.12,4.12,0,0,1,.83-.09,1.05,1.05,0,0,1,.76.32c.24.23.46.49.7.75a2.74,2.74,0,0,0,.58.49,2.55,2.55,0,0,0,.33.17,1.48,1.48,0,0,0,.36.1,2.13,2.13,0,0,0,.88-.1l.49-.2a1.48,1.48,0,0,0,.37-.24c.2-.15.42-.44.63-.51l.05,0c.23-.05.44.12.65.23l.42.22a11,11,0,0,0,1.23.54l.56.17a3.85,3.85,0,0,0,1.23.08,7,7,0,0,0,1.73-.43,6.26,6.26,0,0,0,.8-.35c.13-.07.25-.13.37-.21s.25-.15.37-.23.36-.24.53-.37l.5-.4.29-.23a1.68,1.68,0,0,1,.46-.27,2.33,2.33,0,0,1,1.06,0,10.6,10.6,0,0,0,1.25.13,5.63,5.63,0,0,0,1.23-.05,3.66,3.66,0,0,0,.56-.1,4.11,4.11,0,0,0,.46-.15,3.14,3.14,0,0,0,1.06-.71,3.56,3.56,0,0,0,.43-.53c.2-.32.39-.64.6-.92l.25-.27.32-.2.34-.27.27-.17a3.33,3.33,0,0,1,.75-.28l.12,0a1.71,1.71,0,0,0,.74-.36,1.41,1.41,0,0,0,.42-.74c0-.13.05-.26.08-.38a1.29,1.29,0,0,1,.76-1c.26-.1.5-.19.71-.29a2.07,2.07,0,0,0,.48-.31,1.52,1.52,0,0,0,.22-.27,2,2,0,0,0,.3-.8c.08-.4.17-.36.45-.53a.55.55,0,0,0,.14-.09,5.24,5.24,0,0,0,.88-1.41,1.06,1.06,0,0,0,.1-.26c.13-.51-.12-1,0-1.54a.76.76,0,0,1,.26-.46,2,2,0,0,1,.48-.27l.5-.22.07,0a3,3,0,0,0,.37-.28,2.63,2.63,0,0,0,.43-.5,4.43,4.43,0,0,0,.54-1.09c0-.12.07-.25.1-.37a6.1,6.1,0,0,0,.14-.72,3,3,0,0,0,0-.74c0-.12,0-.23,0-.35s0-.25-.05-.38c.19-.38.37-.77.54-1.21l.1,0,.2-.06.2-.09.46-.2a1.14,1.14,0,0,0,.25-.18,1.79,1.79,0,0,0,.28-.27,3.46,3.46,0,0,0,.22-.31,4.26,4.26,0,0,0,.35-.62c.09-.17.17-.34.25-.51s.14-.36.2-.54.07-.22.1-.33a3.56,3.56,0,0,0,.14-.61,4.07,4.07,0,0,0,.06-.6c0-.2,0-.41,0-.62l0-.23a1.24,1.24,0,0,1,.07-.69,5.73,5.73,0,0,1,.63-1l.16-.26c.29-.48.57-1,.83-1.43a10.36,10.36,0,0,0,.68-1.47c.09-.23.15-.47.22-.72a7.36,7.36,0,0,0,.14-.84v0a10,10,0,0,0,0-2.26l0-.19a8.45,8.45,0,0,1-.13-1.2,1.79,1.79,0,0,1,.34-1.1c.25-.36.54-.68.81-1a4.78,4.78,0,0,0,.55-.83,3.43,3.43,0,0,0,.19-.48,2.65,2.65,0,0,0,.11-.52,4.45,4.45,0,0,0-.06-1.24c-.05-.25-.11-.5-.17-.73a4.54,4.54,0,0,0-.22-.57,4.43,4.43,0,0,1-.46-1c0-.21.09-.41.13-.61s.15-.25.21-.38.22-.38.32-.57c.3-.54.6-1.06.86-1.6a5.83,5.83,0,0,0,.32-.72,6.84,6.84,0,0,0,.46-1.7,16.61,16.61,0,0,0,.19-2.54,20.52,20.52,0,0,0-.16-2.48c0-.4-.11-.79-.17-1.18.13-1,.24-2,.36-2.94,0-.15,0-.3.05-.45.29-.49.57-1,.82-1.5a11.41,11.41,0,0,0,.64-1.66c0-.13.09-.26.12-.39s.06-.27.08-.41.08-.45.1-.69a6.42,6.42,0,0,0,0-.88c0-.15,0-.3,0-.45l-.06-.45a7.74,7.74,0,0,0-.2-.89,8.25,8.25,0,0,1-.34-1.47,3.87,3.87,0,0,1,0-.76,1.84,1.84,0,0,1,.05-.25,6.63,6.63,0,0,1,.33-1.09,7.08,7.08,0,0,1,.5-1l.09-.14a2.44,2.44,0,0,0,.37-2.2,4,4,0,0,1-.16-.49,2,2,0,0,1,.07-1.75c.19-.32.36-.61.51-.91a3,3,0,0,0,.26-.74,2.31,2.31,0,0,0,.05-.46,3.63,3.63,0,0,0-.18-1.14c-.15-.5,0-.52.15-.93a1.72,1.72,0,0,0,.07-.21,4.09,4.09,0,0,0,.11-1.13c0-.4,0-.81,0-1.15a2.06,2.06,0,0,0-.05-.38,2.65,2.65,0,0,0-.42-.86,3.13,3.13,0,0,1-.49-.88,1.26,1.26,0,0,1,0-.72,2.79,2.79,0,0,1,.31-.71c.11-.23.25-.45.35-.67l0-.09a5.92,5.92,0,0,0,.21-.58,2.88,2.88,0,0,0,.09-.4c0-.13.05-.27.07-.41s0-.25,0-.37l0-.38c0-.26,0-.52,0-.79s0-.33,0-.49A7.54,7.54,0,0,0,244.15,147.77Zm-27,8.2a1.11,1.11,0,0,1-.1.29s0,0,0-.08,0-.31,0-.46A.53.53,0,0,1,217.12,156ZM186,159.61a.5.5,0,0,1,0,.12l0,0a.79.79,0,0,1-.06-.47Z"/></clipPath><clipPath id="clip-path-9"><path class="cls-1-tiu" d="M480.18,193.62c-.09-.38-.18-.73-.29-1.08-.05-.17-.11-.34-.17-.51l-.19-.5c0-.07,0-.13-.07-.19s-.11-.25-.17-.37c0-.39,0-.78,0-1.17a7.29,7.29,0,0,0-.22-1.36c0-.22.1-.44.16-.65s.07-.31.11-.47a2.23,2.23,0,0,0,.1-.43,3.09,3.09,0,0,0,.1-.94,5.38,5.38,0,0,0-.23-1.19,5,5,0,0,0-.28-.71,3.11,3.11,0,0,0-.29-.52,4.18,4.18,0,0,0-.36-.4,2.06,2.06,0,0,1-.27-.33c0-.27-.07-.53-.1-.79,0-.11,0-.22,0-.33l.06-.65c.07-.63.11-1.24.12-1.86,0-.26,0-.53,0-.79s0-.29,0-.43,0-.28,0-.43-.07-.57-.14-.87c-.16-.82-.36-1.63-.59-2.43-.12-.39-.24-.78-.37-1.17s-.27-.77-.42-1.14-.22-.56-.34-.84-.25-.53-.37-.81-.14-.31-.22-.47a3.17,3.17,0,0,1-.23-.7v0a3,3,0,0,1,0-.74,6,6,0,0,1,.08-.8c0-.29.08-.59.11-.88a6.89,6.89,0,0,0,0-.91,8.69,8.69,0,0,0-.56-2.6c-.09-.22-.18-.43-.28-.64a6.83,6.83,0,0,0-1-1.46c-.19-.22-.41-.43-.61-.62a8.86,8.86,0,0,1-.77-.73c-.08-.18-.16-.37-.25-.55-.18-.34-.34-.68-.51-1-.07-.15-.15-.29-.23-.44a2.61,2.61,0,0,1-.06-.27,2.56,2.56,0,0,1-.05-.27c0-.09,0-.18,0-.28s0-.37,0-.56,0-.1,0-.16a3.64,3.64,0,0,0,0-1.1,2.52,2.52,0,0,0-.5-1l-.31-.38a2.29,2.29,0,0,1-.59-1.68,10.11,10.11,0,0,0,0-1.09,3,3,0,0,0-.13-.83,2.14,2.14,0,0,0-.2-.47,3.24,3.24,0,0,0-.74-.9c-.36-.37-.29-.45-.37-.92a.9.9,0,0,0-.06-.22,10.13,10.13,0,0,0-1.18-1.95,1.64,1.64,0,0,0-.23-.28c-.46-.45-1.06-.45-1.59-.91a1,1,0,0,1-.22-.28h0A2.47,2.47,0,0,1,465,143c0-.26,0-.51,0-.73,0,0,0-.07,0-.1a1,1,0,0,0,0-.16,1.22,1.22,0,0,0,0-.17l-.09-.35a3.8,3.8,0,0,0-.18-.47c-.07-.15-.15-.3-.23-.45a6.41,6.41,0,0,0-1.08-1.33L463,139a6.29,6.29,0,0,0-1.57-1l-.38-.14-.22-.07,0-.06a7.31,7.31,0,0,0-1.08-1.23,4.08,4.08,0,0,0-.6-.45l-.32-.19a1,1,0,0,0-.1-.45,1.32,1.32,0,0,0-.56-.61.88.88,0,0,0-.26-.1.82.82,0,0,0-.27-.06,1.85,1.85,0,0,0-.72.06,2.65,2.65,0,0,0-.52.18,2.4,2.4,0,0,1-1.16.28h-.27l-1.1,0a6.9,6.9,0,0,0-.92,0l-.18,0-.15,0-.17,0-.17,0-.18,0-.19.05-.2.07-.2.09-.2.11a2.52,2.52,0,0,0-.4.29l-.09.08-.06.07a1.83,1.83,0,0,0-.13.16l-.17.24a2.16,2.16,0,0,0-.24.48,4,4,0,0,0-.13.52v0a9.68,9.68,0,0,0-.91,1.12,2.28,2.28,0,0,0-.3-.17,1.58,1.58,0,0,0-1.3.16,3,3,0,0,0-.39.28,2.45,2.45,0,0,0-.61,1.17,2.12,2.12,0,0,1-.2.37l0,0a.54.54,0,0,1-.12.09,2.53,2.53,0,0,1-1,.06c-.2,0-.4,0-.6,0a5.45,5.45,0,0,0-1.11.22,2.76,2.76,0,0,0-1,.65,5.24,5.24,0,0,0-.44.5l-.16.22c-.08.11-.15.2-.22.31l-.19.31a2.91,2.91,0,0,0-.18.35c0,.12-.06.23-.09.36s-.05.3-.07.48a6.1,6.1,0,0,0,0,1c0,.15,0,.31,0,.46a1.77,1.77,0,0,0,0,.23l0,.23c0,.08,0,.23,0,.39a7.45,7.45,0,0,0-.39.65,7.26,7.26,0,0,0-.65,1.65l-.17.19c-.09.11-.16.17-.2.22a3.34,3.34,0,0,0-.53.9,5.74,5.74,0,0,0-.35,1c0,.23,0,.46-.06.66a2.41,2.41,0,0,0,.11,1,2.25,2.25,0,0,0,.19.45,2.12,2.12,0,0,0,.11.21l.14.25a3.62,3.62,0,0,0,.22.32l.24.29.08.1a3.38,3.38,0,0,1,.31.35,2.78,2.78,0,0,1,.26.34,3.79,3.79,0,0,1,.6,1.39v.06c0,.14,0,.28.09.45a3,3,0,0,0,.19.52,2.09,2.09,0,0,0,.3.47c.06.07.13.13.19.19l.23.14a.69.69,0,0,0,.28.08.87.87,0,0,0,.36,0,.15.15,0,0,0,.07,0,6.43,6.43,0,0,0,.69.87c.21.21.46.42.7.63v.52a1.64,1.64,0,0,0,.05.32,6.3,6.3,0,0,0,.51,1.37c.16.33.33.66.51,1l.17.27a4,4,0,0,0,.34.5,3.87,3.87,0,0,0,.79.83l.16.13a1.16,1.16,0,0,1,.39.54,4.69,4.69,0,0,1,.2,1.14c0,.09,0,.2.05.29.11.55.19,1.09.29,1.61.06.25.1.51.16.77s.12.5.19.75.14.47.23.7a6.81,6.81,0,0,0,.33.73v0c.18.31.33.62.52.92a7.34,7.34,0,0,0,.6.86l.12.15a6.91,6.91,0,0,1,.64.92,1.8,1.8,0,0,1,.22,1.11c-.06.43-.16.85-.25,1.26s-.11.61-.15.93a3.28,3.28,0,0,0,.06,1,5,5,0,0,0,.4,1.08c.11.22.23.42.35.62a3.51,3.51,0,0,0,.33.45,4.41,4.41,0,0,1,.65.78.15.15,0,0,1,0,.07,1.75,1.75,0,0,1-.08,1c-.05.21-.09.42-.13.62-.14.59-.28,1.17-.38,1.75,0,.25-.07.51-.1.77a7.81,7.81,0,0,0,0,.85c0,.14,0,.29,0,.44a3.8,3.8,0,0,0,.05.46,13.49,13.49,0,0,0,.6,2.43c.24.75.55,1.47.84,2.19q.18.41.33.81c.06.13.12.26.17.39a4.14,4.14,0,0,1,.15.41c.06.17.11.34.17.5a2.79,2.79,0,0,1,.1.39,2.19,2.19,0,0,1,0,.36,2.09,2.09,0,0,1-.13.81,1.87,1.87,0,0,1-.49.77,3.76,3.76,0,0,1-.72.48,2.64,2.64,0,0,0-.35.23,1,1,0,0,0-.17.14l-.08.08-.07.08c-.2.22-.37.47-.52.66l-.24.24-.12.09-.16.12c-.19.16-.38.33-.57.52l-.24.24s0,0-.06.06l0,0s0,0,0,0a.6.6,0,0,0-.08.08,3.23,3.23,0,0,1-.43.38,4,4,0,0,1-.57.36l-.69.3a3.79,3.79,0,0,1-.4.12l-.31,0-.47-.13c-.08,0-.28.15-.36.13s-.12-.28-.25-.31c-.56-.19-1.07-.38-1.49-.54a4.06,4.06,0,0,1-.52-.62l-.09-.13a2.38,2.38,0,0,0-1.63-1.2c-.15,0-.29-.05-.43-.09a1.94,1.94,0,0,1-.71-.29,1.31,1.31,0,0,1-.48-.67,7.53,7.53,0,0,1-.22-.88,1.59,1.59,0,0,0-.06-.3c0-.09-.05-.19-.08-.28a1.94,1.94,0,0,0-.13-.3.51.51,0,0,0-.09-.16c0-.06-.08-.11-.1-.16a2,2,0,0,1-.23-.3.48.48,0,0,1-.11-.21.33.33,0,0,1,0-.17,2.42,2.42,0,0,1,.13-.39,1.8,1.8,0,0,1,0-.19,4,4,0,0,0,0-.51c0-.09,0-.19,0-.29s0-.19,0-.3,0-.21,0-.31,0-.22-.05-.33l0-.16c0-.05,0-.1,0-.14s0-.18-.05-.26a1.89,1.89,0,0,0-.11-.36,6.27,6.27,0,0,0-.92-1.2c-.05-.45-.11-.9-.2-1.35,0-.1.06-.2.1-.3s.16-.47.22-.69a.44.44,0,0,1,0-.1,3.19,3.19,0,0,0,.09-.63,3.53,3.53,0,0,0,0-.46c0-.15,0-.28,0-.43s-.07-.51-.12-.75l-.09-.38a1.05,1.05,0,0,1-.05-.19l0-.09s0,0,0,0l0-.06a.29.29,0,0,1,0-.09l0-.08a.29.29,0,0,1,0-.09c0-.14-.06-.31-.09-.49s0-.24,0-.35a3.21,3.21,0,0,0-.08-.36,1.73,1.73,0,0,0-.1-.24.6.6,0,0,0-.14-.21,1.19,1.19,0,0,0-.33-.22l-.09-.3a1.84,1.84,0,0,0,.27-.38,1.5,1.5,0,0,0,.21-.71,2.34,2.34,0,0,0-.06-.56,1.34,1.34,0,0,0-.09-.26c0-.1-.09-.19-.14-.3a2.06,2.06,0,0,0-.58-.6,1.34,1.34,0,0,0-.29-.15l-.65-.2-.74-.2a5.52,5.52,0,0,1-.77-.29c-.12,0-.24-.12-.37-.19a2.87,2.87,0,0,0-.43-.22l-.09,0a1.17,1.17,0,0,0-.27,0h-.2l-.21,0-.21,0-.21,0c-.26.08-.5.16-.69.2h-.34l-.1,0-.1,0-.08,0H431a2.07,2.07,0,0,0-.35,0,4.22,4.22,0,0,0-1.06.29,10.26,10.26,0,0,0-1.66.9,3,3,0,0,1-.31.19,3.47,3.47,0,0,0-.84.72l-1.47.29a2.34,2.34,0,0,0-.49.13c-.09,0-.17.16-.25.24a2.55,2.55,0,0,0-1.39-.74,3.43,3.43,0,0,0-.34-.06,2.07,2.07,0,0,0-.35,0,2,2,0,0,0-.55,0,2.18,2.18,0,0,0-.51.17l-.23.11-.11.06-.09.06-.37.26c-.18.1-.35.2-.55.29l-.06,0-.22.06a4.94,4.94,0,0,1-1.32-.18l-.78-.11c-.24,0-.5,0-.69-.09s-.45-.07-.71-.09a3.59,3.59,0,0,0-.83.05,3.75,3.75,0,0,0-1.12.33,4.53,4.53,0,0,0-.56.31l-.26.2-.07,0a0,0,0,0,1,0,0h0a.17.17,0,0,1,0,.05l-.07.07a.76.76,0,0,1-.09.09c-.19.19-.4.36-.59.53a6.38,6.38,0,0,0-.61.64c-.11.14-.23.3-.36.5s-.16.24-.22.35a2,2,0,0,0-.17.37,1.63,1.63,0,0,0-.09.72,2.11,2.11,0,0,0,.14.55l.09.25a1.63,1.63,0,0,1,.11.23,7,7,0,0,0,.58,1v.08a6.22,6.22,0,0,0,.09,1c0,.13.06.26.08.39s.07.38.1.57.06.32.08.48a1.55,1.55,0,0,1,0,.21l-.06.18-.06.23a.08.08,0,0,1,0,.06s0,0,0,0l0,.09a1.26,1.26,0,0,0,0,.33,1.61,1.61,0,0,0,0,.4c0,.39.18.81.25,1.21a2.1,2.1,0,0,1,0,.55,1.35,1.35,0,0,1-.11.44l-.07.2c0,.07,0,.13,0,.2s0,.13-.05.19l-.06.18a1,1,0,0,1-.05.16,6.64,6.64,0,0,0-.33,1.18,8.57,8.57,0,0,0-.12,1.39c0,.18,0,.34,0,.51a4.46,4.46,0,0,0,.07.51l0,.17c.08.45.18.85.25,1.26a4.26,4.26,0,0,1,.07,1,6.55,6.55,0,0,1-.17,1.05l0,.07c-.11.37-.22.81-.33,1.25l-.06.33a3.43,3.43,0,0,0,0,.38,2.27,2.27,0,0,0,.05.7,2.4,2.4,0,0,0,.12.38,2.06,2.06,0,0,0,.23.37,1.36,1.36,0,0,0,.44.32.45.45,0,0,1,.18.18,2.64,2.64,0,0,1-.06.51v0a2.22,2.22,0,0,1-.43.55.69.69,0,0,0-.4.17s0,0-.06.07a.36.36,0,0,0,0,.11h-.17l-.25,0a2.52,2.52,0,0,0-.55.21l-.48.24-.38.16-.37.17-.22.09-.1.05-.1,0a1.21,1.21,0,0,0-.2.09c-.13.06-.26.1-.39.17s-.27.14-.41.21l-.16.08a.66.66,0,0,1-.27.06.6.6,0,0,1-.27-.06,1.26,1.26,0,0,1-.38-.27,2.88,2.88,0,0,1-.3-.39,1.24,1.24,0,0,0-.14-.18,7.37,7.37,0,0,1-.6-1.09,11.57,11.57,0,0,0-.48-1.07,3.54,3.54,0,0,0-.26-.47,5.5,5.5,0,0,0-.34-.5h0a11.85,11.85,0,0,0-1.12-1.27l-.11-.1a3.26,3.26,0,0,1-.33-.31c-.2-.52-.38-1-.52-1.41.05-.32.13-.63.19-.93a2.79,2.79,0,0,0,0-1.62l-.08-.18-.1-.17c-.07-.12-.16-.24-.24-.38s-.1-.15-.16-.22l-.16-.23-.29-.38-.1-.09c-.08-.44-.19-.89-.3-1.33l0-.1c.08-.16.16-.32.25-.47.23-.44.46-.88.65-1.35.07-.21.14-.42.19-.64a2.09,2.09,0,0,0,.07-.36l0-.19c0-.06,0-.12,0-.18a4.46,4.46,0,0,0,0-.73,6.82,6.82,0,0,0-.14-1,7.94,7.94,0,0,0-.24-1,12.43,12.43,0,0,0-.7-1.84c-.21-.44-.43-.86-.65-1.28l0,0c0-.81-.08-1.6-.12-2.36.13-.39.25-.78.35-1.18a9.45,9.45,0,0,0,.26-1.39c0-.21,0-.42.05-.64v-.53a5.83,5.83,0,0,0-.25-1.35,6.5,6.5,0,0,0-.27-.66l-.09-.23a6.06,6.06,0,0,1,0-.73c.09-.83.26-1.64.43-2.46l.08-.1.09-.1a2.07,2.07,0,0,0,.49-.74,1.58,1.58,0,0,0,0-.92c0-.13-.08-.26-.11-.4a1.91,1.91,0,0,1-.06-.33c0-.18.06-.36.08-.54s0-.13,0-.19a1.53,1.53,0,0,1,.18-.29c.2-.22.4-.42.56-.63a2.43,2.43,0,0,0,.32-.51,2.72,2.72,0,0,0,.11-.34,2.06,2.06,0,0,0,0-.43s0-.07,0-.11a.45.45,0,0,1,0-.12c0-.09,0-.18,0-.26a.78.78,0,0,1,0-.45,3,3,0,0,1,.22-.34,1.19,1.19,0,0,0,.08-.16,1.46,1.46,0,0,0,.12-.37,2.2,2.2,0,0,0,.06-.37.28.28,0,0,1,0-.09,0,0,0,0,1,0,0v-.12a.08.08,0,0,0,0,0l0,0a1.47,1.47,0,0,0,.07-.17c0-.05,0-.11,0-.17l0-.18a1.36,1.36,0,0,0,0-.2c0-.07,0-.14,0-.21a3.09,3.09,0,0,1,.1-.85.86.86,0,0,1,.32-.48,4.53,4.53,0,0,1,.54-.32,3.34,3.34,0,0,0,.55-.33.2.2,0,0,0,.07-.06,2,2,0,0,0,.39-.43c.07-.11.14-.22.21-.35a3.53,3.53,0,0,0,.15-.39,1.89,1.89,0,0,0,.1-.36,2.09,2.09,0,0,0,.07-.36,4.51,4.51,0,0,0,0-.73c0-.16,0-.3-.06-.44a3.73,3.73,0,0,0-.59-1.51l-.18-.26v0l0-.22c0-.16,0-.31,0-.47a1.22,1.22,0,0,0,.32-.38,1.29,1.29,0,0,0,.13-.69,1.45,1.45,0,0,0-.12-.44,3.36,3.36,0,0,0-.31-.53c-.11-.14-.2-.27-.29-.4a1.31,1.31,0,0,1-.23-1c0-.08,0-.16,0-.24a9.44,9.44,0,0,0,.14-1.05,2.51,2.51,0,0,0-.11-1l-.06-.17a3.15,3.15,0,0,0-.26-.56,2.58,2.58,0,0,0-1-1l-.23-.12a2.52,2.52,0,0,0-.47-.13,1.56,1.56,0,0,0-.48,0,1.89,1.89,0,0,0-.54.2l-.65-.46a3.45,3.45,0,0,0,.15-.57,1.66,1.66,0,0,0,0-.68,2,2,0,0,0-.08-.26,1.34,1.34,0,0,0-.06-.12.9.9,0,0,0-.07-.11,3.31,3.31,0,0,0-.33-.32.79.79,0,0,0-.29-.17,1.06,1.06,0,0,0-.31-.05h-.61a1.33,1.33,0,0,1-.4,0h-.05a.27.27,0,0,1-.12-.06A.89.89,0,0,1,399,147c-.08-.15-.17-.32-.25-.44a3.87,3.87,0,0,0-.35-.45,4.69,4.69,0,0,0-.33-.4l-.18-.17a.85.85,0,0,0-.17-.16,1.28,1.28,0,0,0-.36-.22,1.57,1.57,0,0,0-.45-.13h-.21l-.16,0H396a4.54,4.54,0,0,0-.47,0l-.36,0c-.51,0-1.07,0-1.58.12l-.3.06-.3-.09c-.75-.3-1.31-.92-2.05-1.23a3.74,3.74,0,0,0-.57-.17l0,0c-.18-.23-.33-.46-.48-.68l-.36-.37a1.44,1.44,0,0,0-.84-.4,2,2,0,0,0-1,.16l-.15.07-.15.1a1.1,1.1,0,0,0-.14.09c-.05,0-.06.06-.1.09l-.07.06a1.87,1.87,0,0,1-.62.33,2.6,2.6,0,0,1-1.22.05h0a2.37,2.37,0,0,0-.84,0,1.09,1.09,0,0,0-.74.49.63.63,0,0,0-.1.27,1.12,1.12,0,0,0,0,.37,1.85,1.85,0,0,0,.19.48l-.16.14c0,.09-.1.18-.15.27a2.06,2.06,0,0,0-.43,0,.39.39,0,0,0-.2.05l-.13.08a.76.76,0,0,0-.2.2,1.14,1.14,0,0,0-.15.23,1,1,0,0,0-.06.18,1.29,1.29,0,0,0,0,.19,1,1,0,0,0,0,.42,2.4,2.4,0,0,0,.16.27c-.12.23-.25.46-.38.68a1.51,1.51,0,0,0-.56,0,1.17,1.17,0,0,0-.66.4,1.27,1.27,0,0,1-.11.13l-.08.13-.15.23a4.82,4.82,0,0,0-.27.5c-.05.11-.09.21-.13.32a1.86,1.86,0,0,0-.1.31,1.73,1.73,0,0,0-.07.31,3.9,3.9,0,0,0,0,.59c0,.2,0,.39.07.6a1.52,1.52,0,0,0,0,.21,1.27,1.27,0,0,1-.08.68,2.41,2.41,0,0,1-.3.48c-.12.15-.24.3-.37.44l-.18.23c-.32.44-.65.85-1,1.25-.08.09-.16.21-.25.33a3.44,3.44,0,0,0-.22.38,6.48,6.48,0,0,0-.38.8,7.62,7.62,0,0,0-.2.79c0,.15,0,.3-.06.44s0,.3,0,.45v0a7.6,7.6,0,0,0,.31,2.2c0,.06,0,.12.05.18a5.6,5.6,0,0,1,.29,1.12,1.74,1.74,0,0,1-.21,1.12c-.22.37-.48.7-.72,1a4.9,4.9,0,0,0-.51.82,3.36,3.36,0,0,0-.29,1,3.31,3.31,0,0,0,0,.62,3.53,3.53,0,0,0,.11.65,3.6,3.6,0,0,0,.24.7,4,4,0,0,0,.25.51,3.52,3.52,0,0,1,.52.9.22.22,0,0,0,0,.08,1.19,1.19,0,0,1-.1.49c-.07.15-.16.3-.24.44l-.34.54c-.16.26-.32.51-.47.77s-.28.54-.4.83a5.65,5.65,0,0,0-.26.76l-.06.21c0,.07,0,.15-.05.22l-.06.46,0,.23c0,.08,0,.15,0,.23s0,.29,0,.44c0,.41,0,.81.05,1.22q0,.3.06.6a6.18,6.18,0,0,0,.07.62c.06.41.13.81.2,1.2,0,.2.08.39.13.59s.09.38.15.57c.16.58.33,1.13.51,1.68,0,.16.1.33.15.49a1.16,1.16,0,0,0,0,.18c0,.47,0,.93,0,1.4a4.77,4.77,0,0,1-.2.65c-.19.53-.37,1.08-.52,1.64-.07.28-.12.56-.18.86,0,.14-.05.28-.07.43a3.13,3.13,0,0,0,0,.44c0,.27,0,.54-.05.81s0,.45.05.68a5.11,5.11,0,0,0,.13.86,6.35,6.35,0,0,0,.24.82,8.34,8.34,0,0,0,.33.8,8.65,8.65,0,0,1,.55,1.33,3.06,3.06,0,0,1,.14.72,2.35,2.35,0,0,1,0,.26,1.31,1.31,0,0,0,0,.28v.28c0,.18,0,.36,0,.54s0,.37,0,.55a5.23,5.23,0,0,1,0,.56.76.76,0,0,0,0,.15c0,.1,0,.18,0,.26s0,.17,0,.25l0,.22s0,.07,0,.1a.31.31,0,0,0,0,.1,1.09,1.09,0,0,0,0,.18s0,.08,0,.12,0,.1,0,.14a3.52,3.52,0,0,0,.21.56c.08.15.16.29.23.44a3.57,3.57,0,0,1,.29.81,2,2,0,0,1,0,.91c-.1.35-.21.67-.28,1a2.91,2.91,0,0,0-.08.78,2.78,2.78,0,0,0,.07.48,3.36,3.36,0,0,0,.43,1c.26.45.16.5.1.94a1.77,1.77,0,0,0,0,.23,2.55,2.55,0,0,0,.06.54c0,.1,0,.18.07.29s.06.21.1.32a4,4,0,0,0,.23.61c.07.2.15.37.22.54a2.17,2.17,0,0,0,.19.34,2.13,2.13,0,0,0,.33.34,3.73,3.73,0,0,0,.37.23,3,3,0,0,1,.75.55,1,1,0,0,1,.19.3h0a1.68,1.68,0,0,1,.09.32,1.54,1.54,0,0,1,0,.37c0,.15,0,.28,0,.41s0,.51,0,.74v.1a3.44,3.44,0,0,0,.12.64,3.92,3.92,0,0,0,.3.85,6.81,6.81,0,0,0,.82,1.37l.32.36a6.9,6.9,0,0,0,.95.86c.05.21.09.41.16.62a10.2,10.2,0,0,0,.41,1c0,.09,0,.18-.05.28a1.4,1.4,0,0,0,0,.29,3.82,3.82,0,0,0,.32,1.24,8.64,8.64,0,0,0,.38.88,2,2,0,0,0,.13.25,3.35,3.35,0,0,0,.27.45,3,3,0,0,0,.32.39,2.44,2.44,0,0,0,.4.32l.16.1a1,1,0,0,1,.39.42,2.76,2.76,0,0,1,.15.46c0,.17.09.34.15.51l.09.26c.1.23.22.46.34.68l.32.62c.12.2.23.4.34.6s.25.37.38.56.27.33.41.48a4.73,4.73,0,0,0,.53.46h0a6.15,6.15,0,0,0,1.6.9.94.94,0,0,0,.15.06,6.16,6.16,0,0,1,.91.36,1.38,1.38,0,0,1,.64.72c.13.37.22.75.34,1.13,0,.14.09.27.13.4s.09.26.14.38a2.25,2.25,0,0,0,.48.7,3.21,3.21,0,0,0,.9.55l.31.11a2.06,2.06,0,0,0,.32.07,2.37,2.37,0,0,0,.52,0,2.93,2.93,0,0,0,.45-.11,3,3,0,0,1,.36-.08,1.29,1.29,0,0,0,.37.27.79.79,0,0,0,.22.05l.16.18c.14.13.26.26.39.4.36.39.69.78,1.06,1.15a4.06,4.06,0,0,0,.49.44,4.25,4.25,0,0,0,.59.43,3.37,3.37,0,0,0,.32.19c.12.05.24.11.36.15l.5.19.53.13a7.76,7.76,0,0,0,1.06.16h.54a3,3,0,0,0,.53-.06,7.81,7.81,0,0,0,1-.25c.4-.13.8-.27,1.22-.38h.05l.24.05c.66.14,1.31.25,2,.34l.1.07a4.77,4.77,0,0,0,1.29.71l.36.12.35.09c.24,0,.47.1.71.13l.66.06.54,0a4.81,4.81,0,0,0,1.38-.34,4.48,4.48,0,0,0,.65-.35,5.18,5.18,0,0,1,1.06-.57,2.4,2.4,0,0,1,.59-.13H415a5.72,5.72,0,0,1,1.82.42l.13,0a1.57,1.57,0,0,0,1.86-.34q.16-.16.3-.33a3.69,3.69,0,0,1,.27-.28,2.34,2.34,0,0,1,.3-.25l.07,0,0,0,0,0,.21-.11.22-.12.23-.11a4.71,4.71,0,0,1,.82-.31c.16,0,.25,0,.36,0l.09,0,.11-.05a2.74,2.74,0,0,0,.52-.51.61.61,0,0,1,.35-.2c.11,0,.22,0,.43,0h.2a2.35,2.35,0,0,0,.48-.14,3.36,3.36,0,0,0,.49-.27,3.83,3.83,0,0,0,.46-.33l.4-.33a2.05,2.05,0,0,0,.25-.27c.36-.54.2-1.15.41-1.73a1.11,1.11,0,0,1,1-.61c.21,0,.4,0,.58-.05h.07a.78.78,0,0,0,.22,0l.21,0,.13,0,.2-.08.38-.2a2.49,2.49,0,0,0,.31-.23,3.47,3.47,0,0,0,.29-.25,3.33,3.33,0,0,0,.25-.28,3.25,3.25,0,0,0,.23-.29c.09-.13.15-.26.22-.38s.14-.25.2-.38l.15-.38a3.89,3.89,0,0,0,.21-.78,2.38,2.38,0,0,1,.06-.37s0-.09,0-.13l.46-.5.09-.07c.17-.16.31-.31.45-.43a2,2,0,0,1,.4-.29,1,1,0,0,1,.71,0l.2.07.19.09.19.1a3.3,3.3,0,0,0,.42.23l.23.1a2,2,0,0,0,.26.06l.17,0a.78.78,0,0,1,.28.05l.13.07,0,.05.06.08a2.81,2.81,0,0,0,.89.83h0l.45.52c.16.18.33.37.5.53a6.29,6.29,0,0,0,1.12.88,4,4,0,0,0,.58.3,3.51,3.51,0,0,0,.67.22h0a5.7,5.7,0,0,0,1.84.13l.16,0,.63-.08q.69.31,1.41.57c.2.21.4.43.59.65a2.91,2.91,0,0,0,1.36,1,2.78,2.78,0,0,0,1,0,3.87,3.87,0,0,0,.61-.12,4.29,4.29,0,0,0,.47-.16l.41-.23a1.22,1.22,0,0,1,.28-.14l.46,0h0c.14.07.27.17.41.25s.31.19.47.27a12.19,12.19,0,0,0,1.4.7l.61.22a.76.76,0,0,0,.16.06l.18,0,.37.08.39,0h.39l.55,0a4.51,4.51,0,0,0,.53-.1,4.94,4.94,0,0,0,.52-.13l.5-.17.47-.19.47-.22a3.06,3.06,0,0,0,.88-.6,6.8,6.8,0,0,0,.57-.65c.37-.2.7-.47,1.08-.66a1.79,1.79,0,0,1,.37-.15c.33-.1.67-.18,1-.27l.21,0a8,8,0,0,0,1.45.18,5,5,0,0,0,1.49-.15,2.79,2.79,0,0,0,.34-.09l.33-.14a4,4,0,0,0,.54-.28,4.06,4.06,0,0,0,.6-.51c.09-.1.17-.21.25-.31l.07-.09.06-.1.12-.19a2.49,2.49,0,0,0,.22-.78,4.75,4.75,0,0,1,.14-.63.85.85,0,0,1,.09-.22l.26-.34c.08-.11.17-.21.25-.3l.08-.08.07-.06.19-.1a7.51,7.51,0,0,1,.88-.29,6.55,6.55,0,0,1,.94-.17h.14a2.12,2.12,0,0,0,.92-.29,1.44,1.44,0,0,0,.61-.73c.06-.14.11-.27.17-.4a1.53,1.53,0,0,1,1.08-1,7.73,7.73,0,0,0,.89-.21,1.94,1.94,0,0,0,.6-.32,1.71,1.71,0,0,0,.32-.29,2.59,2.59,0,0,0,.46-1c.14-.48.23-.43.58-.69a.75.75,0,0,0,.16-.15,1.63,1.63,0,0,0,.17-.2l.14-.24c0-.09.09-.17.13-.26s.07-.2.1-.29a4.36,4.36,0,0,0,.17-.59L475,215c0-.07,0-.13,0-.19a.75.75,0,0,0,0-.29,2.38,2.38,0,0,0-.17-.78,2.37,2.37,0,0,1-.16-.71c.14-.3.28-.59.41-.88l.3-.22.28-.18.24-.12s0,0,.06,0l.18-.1.18-.11.25-.2a2,2,0,0,0,.25-.25,3.8,3.8,0,0,0,.84-1.34,2.58,2.58,0,0,0,.08-.26l.06-.29a2.37,2.37,0,0,0,0-.52,1.93,1.93,0,0,0,0-.24l0-.22a2.92,2.92,0,0,0-.23-.83c-.05-.1-.1-.22-.15-.35l0-.06c.18-.42.34-.85.49-1.29l.06-.05a5.23,5.23,0,0,0,.5-.59l.1-.15a1.62,1.62,0,0,0,.1-.18.2.2,0,0,0,0-.08.73.73,0,0,0,0-.09l.06-.18a3.57,3.57,0,0,0,.2-1.21c0-.12,0-.24,0-.35A4.44,4.44,0,0,0,479,202a5.13,5.13,0,0,0-.39-1.14.82.82,0,0,0-.09-.19,1.27,1.27,0,0,1-.09-.71,1.9,1.9,0,0,1,.17-.56c.08-.18.18-.36.27-.53s.1-.18.14-.27c.25-.5.53-1,.77-1.48.06-.13.12-.26.17-.39s.05-.13.08-.19,0-.08,0-.11l0-.12a3.59,3.59,0,0,0,.12-.47c0-.16,0-.32.07-.47s0-.14,0-.22a1.47,1.47,0,0,0,0-.21c0-.14,0-.28,0-.42a5.19,5.19,0,0,0-.13-.88Z"/></clipPath><clipPath id="clip-path-10"><path class="cls-1-tiu" d="M163.23,220.54a23.26,23.26,0,0,0-1.4-2.83,3.09,3.09,0,0,1-.22-.8c.18-.2,0-.48,0-.69a3.85,3.85,0,0,0-.29-2.11,5.15,5.15,0,0,0-5-2.89c-1.34-.06-2.28,1.08-3.45,1.43-5.87.53-25.16,5.06-27.94.07-.66-.57-.92-1.7-1.7-1.95a8.59,8.59,0,0,0-.74-2.32c1.43-1.72,2.61-4.11,5.09-4.34a9,9,0,0,0,4.78-1.37c1.57-.43,3.31-.25,4.67-1.34.57-.42,1.11-.12,1.73-.09a4.15,4.15,0,0,0,3.47-1.29c2-.33,1.68-2.26,1.46-3.77.87-1.74,0-4.19-.57-5.94a8.27,8.27,0,0,0-1.36-5.76c-.65-1.15-2-.61-3-.89-2.17-1.3-4.57.07-6.76-.35-2.54-.94-5.3-.61-7.9-.91a36.65,36.65,0,0,0-3.7-2.53c-1-1-1.34-2.62-2.28-3.73-.26-3.27-1.74-8.44,1.47-10.3,9.1-3.74,20.55-.26,29.55-4.37,2.41-.12,5.75-2.34,4.46-5.09a6,6,0,0,0,.62-4.59c-2-3.2.69-7.42-4-8.74h0a3.68,3.68,0,0,0-2.72-1.62c-1.91-.36-5-1.53-6.54-.86-.68-.12-1.34-.85-2-.93-3.22,0-11-1.61-14-.54-9.61-.38-15.19,1.41-23,5.23a46.67,46.67,0,0,0-8.08,4.6,10.66,10.66,0,0,0-5.55,4.56c-3.31,2.58-2.28,9.22-3.23,13.16.28,11.78-.26,14.94,2.06,29.28,2.27,13.63,3.1,26.38,9.63,37.46,1.34,2.53,4.27,2.45,6.15,4.18,3.39.73,6.43,2.11,10,2.21,9,1.63,13.93,1.8,23-.74C146.53,237.94,165.33,234.89,163.23,220.54Z"/></clipPath><clipPath id="clip-path-11"><path class="cls-1-tiu" d="M367.85,228.44a25.79,25.79,0,0,0-.81-3.05,2.62,2.62,0,0,1-.07-.83c.22-.15.15-.46.1-.68a3.94,3.94,0,0,0,.13-2.13,5.19,5.19,0,0,0-4.36-3.81c-1.3-.32-2.45.61-3.67.73-5.85-.64-25.66,0-27.41-5.42-.53-.69-.56-1.84-1.28-2.24a8.69,8.69,0,0,0-.27-2.42c1.74-1.41,3.36-3.52,5.85-3.26a8.89,8.89,0,0,0,4.95-.41c1.62-.11,3.29.4,4.84-.39.64-.3,1.11.1,1.71.25a4.19,4.19,0,0,0,3.66-.59c2,.07,2.09-1.89,2.18-3.4,1.19-1.54.83-4.12.6-5.95a8.26,8.26,0,0,0-.21-5.91c-.41-1.25-1.8-1-2.77-1.46-1.87-1.71-4.5-.83-6.57-1.68-2.3-1.41-5.07-1.63-7.56-2.43a36.52,36.52,0,0,0-3.13-3.21c-.8-1.2-.8-2.83-1.51-4.11.39-3.25-.05-8.61,3.46-9.81,9.66-1.88,20.21,3.78,29.83,1.52,2.39.35,6.1-1.17,5.38-4.13a5.92,5.92,0,0,0,1.5-4.37c-1.34-3.54,2.14-7.14-2.19-9.36h0a3.69,3.69,0,0,0-2.35-2.12c-1.81-.73-4.58-2.47-6.24-2.12-.65-.26-1.16-1.1-1.83-1.32-3.14-.66-10.5-3.74-13.61-3.27-9.34-2.25-15.17-1.6-23.61.61a46.89,46.89,0,0,0-8.83,2.93A10.66,10.66,0,0,0,307.4,148c-3.75,1.88-4,8.59-5.74,12.27-2,11.61-3.19,14.6-3.73,29.12-.44,13.81-2.13,26.47,2.1,38.61.82,2.75,3.71,3.24,5.22,5.32,3.17,1.38,5.89,3.32,9.36,4.12,8.49,3.36,13.32,4.5,22.71,3.78C348.06,242.23,367.09,242.92,367.85,228.44Z"/></clipPath><image id="image" width="254" height="350" xlink:href="included_images/letters/letter_E.jpg"/></defs>
<g id="t"><g class="cls-2-tiu cls-2 swinging"><image width="300" height="353" transform="translate(206.26 0.75) scale(0.29)" xlink:href="included_images/letters/letter_T.jpg"/></g></g><g id="i"><g class="cls-3-tiu cls-3 swinging"><image width="118" height="350" transform="translate(252.37 138.68) scale(0.3)" xlink:href="included_images/letters/letter_I.jpg"/></g></g><g id="e"><g class="cls-4-tiu cls-4 swinging"><use transform="translate(132.78 -1.45) rotate(2.37) scale(0.29)" xlink:href="#image"/></g></g><g id="s"><g class="cls-5-tiu cls-5 swinging"><image width="284" height="350" transform="matrix(0.29, 0.06, -0.06, 0.29, 335.86, -6.71)" xlink:href="included_images/letters/letter_S.jpg"/></g></g><g id="r"><g class="cls-6-tiu cls-6 swinging"><image width="271" height="350" transform="translate(-0.06 132.83) scale(0.3)" xlink:href="included_images/letters/letter_R.jpg"/></g></g><g id="_" data-name="&apos;"><g class="cls-7-tiu cls-7 swinging"><image width="285" height="350" transform="translate(256.42 -32.34) scale(0.31 0.3)" xlink:href="included_images/symbol/symbol_apostrophe%202.16.43%20PM.jpg"/></g></g><g class="cls-8-tiu cls-8 swinging"><image width="214" height="350" transform="matrix(0.28, -0.02, 0.02, 0.28, 62.22, 2.13)" xlink:href="included_images/letters/letter_L.jpg"/></g><g class="cls-9-tiu cls-9 swinging"><image width="310" height="350" transform="translate(157.4 147.37) rotate(-6.81) scale(0.28 0.28)" xlink:href="included_images/letters/letter_V.jpg"/></g><g class="cls-10-tiu cls-10 swinging"><image width="387" height="350" transform="translate(370.26 144.32) rotate(-6.42) scale(0.27 0.27)" xlink:href="included_images/letters/letter_W.jpg"/></g><g id="e-2" data-name="e"><g class="cls-11-tiu swinging cls-11"><use transform="translate(81.63 142.69) rotate(-5.36) scale(0.29)" xlink:href="#image"/></g></g><g id="e-3" data-name="e"><g class="cls-12-tiu cls-12 swinging"><use transform="translate(303.1 136.1) rotate(5.95) scale(0.29)" xlink:href="#image"/></g></g></svg>