<?xml version="1.0" encoding="UTF-8"?><svg id="uuid-98004b1b-e7b5-4c01-ab28-866d42f4b13e" xmlns="http://www.w3.org/2000/svg" xmlns:xlink="http://www.w3.org/1999/xlink" viewBox="0 0 208.4 47.04"><defs><style>.uuid-ee82db58-7c7b-4adc-9e68-21d82d55206c{fill:none;}.uuid-274bc860-eada-4b21-9a53-fdbd1d79b9ff{clip-path:url(#uuid-6f2bae46-fa6a-4ad6-a3aa-5d9afaed4cf2);}.uuid-4eccdc29-cce7-4d1c-a670-30a668f0724c{clip-path:url(#uuid-a6b28414-4b03-419a-a766-79e510d5eae7);}.uuid-56ed7f51-d0e2-4929-8026-9fa32bae9b90{clip-path:url(#uuid-8e26d9be-c834-4ed8-92e4-d016ed6bffbf);}.uuid-a9787657-ae34-457b-afd6-a91758ad74a6{clip-path:url(#uuid-d2224a81-3d28-4184-a4c8-db0a860995c8);}.uuid-39cd0197-547e-4de7-b6ca-1b1967d33463{clip-path:url(#uuid-7d729612-473e-45c6-b694-a527f9825b06);}.uuid-851963da-5cee-4546-a66c-13dc5e28bec5{clip-path:url(#uuid-ab99d16e-e6e5-46cf-85fc-61f6b36b3543);}</style><clipPath id="uuid-d2224a81-3d28-4184-a4c8-db0a860995c8"><path class="uuid-ee82db58-7c7b-4adc-9e68-21d82d55206c" d="M104.47,32.33c-.08-.2-.03-.21,.03-.39,0-.03,.02-.06,.02-.09,.06-.28-.04-.64-.06-.9,0-.06-.02-.1-.03-.14-.04-.13-.13-.22-.21-.31-.08-.09-.17-.19-.22-.33-.08-.19,.02-.38,.12-.57,.03-.04,.05-.09,.08-.13,.02-.04,.05-.08,.07-.13,0-.01,.01-.02,.02-.04,.04-.09,.06-.19,.08-.28,.02-.12,.04-.25,.03-.37,0-.22-.03-.44-.09-.65-.02-.07-.04-.13-.06-.19-.09-.26-.18-.48-.33-.69l-.03-.04c0-.06,0-.12,0-.18v-.08c.06-.09,.11-.18,.19-.29,.02-.04,.04-.07,.05-.11,.03-.09,.06-.18,.08-.27,.02-.09,.02-.17,.04-.25,.02-.13,.03-.26,.04-.39,0-.04,0-.08,0-.12,0-.07,0-.15,0-.22-.01-.14-.04-.27-.1-.41-.01-.03-.02-.05-.03-.08-.04-.08-.04-.16-.02-.24,.04-.13,.13-.25,.2-.38,.02-.03,.04-.07,.05-.1,.18-.37,.35-.74,.4-1.14,0-.09,.01-.18,.02-.28,0-.1-.02-.2-.04-.3t0,0c-.06-.25-.14-.5-.26-.74-.01-.02-.02-.04-.03-.06-.15-.26-.31-.51-.17-.79,.07-.15,.17-.28,.25-.42,.13-.21,.24-.42,.22-.67,0-.12-.05-.27-.12-.41-.04-.08-.08-.16-.13-.24-.04-.06-.09-.12-.13-.17-.08-.09-.23-.2-.27-.31,0,0,0-.02,0-.03-.03-.12,.05-.23,.1-.34,.03-.07,.06-.14,.1-.21,.1-.2,.19-.4,.27-.61,.03-.09,.07-.18,.09-.27,.06-.19,.1-.39,.1-.6,0-.3-.02-.59-.08-.88-.05-.28-.12-.56-.21-.84-.07-.21-.15-.41-.22-.6-.02-.06-.05-.12-.07-.18-.04-.09-.05-.18-.05-.26,0-.17,.06-.34,.16-.52,.2-.38,.38-.77,.47-1.18,.02-.1,.04-.19,.05-.28,0-.08,.01-.16,.01-.24,0-.19-.03-.41-.09-.61-.03-.1-.07-.2-.12-.3-.08-.16-.16-.32-.2-.49-.02-.09-.03-.17-.02-.26,0-.03,0-.06,.01-.09,.03-.14,.07-.26,.12-.38,.05-.12,.11-.24,.19-.37,0-.02,.02-.03,.03-.05,.16-.26,.23-.51,.08-.77-.03-.05-.06-.11-.08-.15-.03-.05-.05-.1-.06-.14-.02-.05-.03-.09-.03-.14,0-.05,0-.1,.02-.15,.02-.05,.04-.09,.08-.15,.08-.1,.17-.18,.24-.27,.01-.02,.02-.03,.04-.05,0,0,.02-.02,.02-.03,0,0,.01-.02,.02-.03,.03-.05,.05-.1,.06-.16,.02-.06,.03-.13,.03-.2,0-.17-.05-.32-.12-.47-.05-.1-.06-.15-.06-.2,0-.05,.03-.11,.04-.21,0-.03,0-.06,0-.1,0-.16-.07-.34-.18-.49-.1-.16-.23-.31-.34-.42-.05-.05-.1-.09-.15-.11-.14-.07-.28-.07-.4-.05-.06,0-.12,.02-.19,.03-.02,0-.03,0-.05,0,0-.02,.01-.04,.02-.07,0-.03,.02-.05,.03-.07,0-.03,.01-.07,.01-.1,0-.13-.02-.26-.07-.34-.02-.04-.04-.07-.06-.11-.02-.03-.05-.07-.07-.1-.02-.03-.03-.05-.05-.08-.01-.02-.03-.03-.03-.05-.07-.09-.14-.16-.22-.23-.01-.02-.02-.04-.03-.07-.03-.05-.07-.11-.11-.16-.04-.05-.09-.1-.14-.15-.05-.04-.1-.09-.16-.12-.06-.03-.11-.07-.17-.09-.04-.02-.08-.03-.11-.04-.04-.01-.07-.02-.11-.03-.08-.02-.15-.02-.21-.03-.03,0-.08,0-.12,0-.04,0-.07,0-.11,0-.11,.02-.19,.05-.27,.1-.25-.03-.5-.1-.73-.28-.21-.17-.4-.49-.66-.53-.07-.01-.14,0-.19,0-.06,.01-.11,.04-.17,.07-.1,.06-.18,.14-.29,.22-.13,.1-.25,.14-.37,.12-.22-.03-.4-.23-.61-.41-.1-.08-.21-.17-.34-.21,0,0,0,0-.01,0-.05-.02-.11-.04-.17-.05-.06-.01-.12-.01-.19-.02-.06,0-.13,0-.19,0-.06,0-.12,.03-.18,.05-.07,.02-.14,.06-.19,.1-.08,.06-.15,.17-.24,.22-.03,.01-.06,.02-.09,.02-.04,0-.05-.02-.07-.03-.01-.01-.03-.03-.04-.04-.03-.03-.04-.07-.07-.09-.02-.02-.05-.03-.09-.02,0,0-.01,0-.02,0-.05,.02-.09,.05-.14,.08-.05,.03-.1,.06-.16,.07-.13,.02-.28,0-.41-.03-.18-.03-.31-.02-.44,.04-.05,.02-.1,.06-.16,.1-.05,.04-.11,.09-.16,.16-.02,.03-.05,.05-.07,.08-.1,.1-.18,.17-.28,.19-.09,.02-.2,.01-.36-.02-.04,0-.08-.01-.13-.02-.04,0-.09,0-.13,0-.05,0-.11,0-.17,0-.05,0-.11,.02-.17,.02-.06,.01-.12,.04-.18,.06-.06,.03-.12,.05-.18,.09-.15,.1-.28,.21-.39,.36-.04,.06-.08,.13-.12,.2-.03,.07-.06,.14-.08,.22-.02,.07-.03,.15-.03,.23,0,0,0,.01,0,.02,0,.12,.02,.25,.05,.37-.02,.07-.03,.13-.03,.16,0,.14,0,.27,.02,.39,0,.02,0,.04,0,.06-.02,0-.03,0-.05,.01-.01,0-.03,.01-.04,.03-.01,0-.02,.02-.03,.03-.03,.04-.06,.08-.08,.12,0,.01-.01,.03-.02,.05h0s0,.02,0,.02c0,.01,0,.03-.01,.05,0,.02-.01,.04-.01,.06,0,.02-.01,.03-.02,.05h0v.03l-.02,.02s-.02,.03-.03,.05c-.07,.11-.09,.24-.07,.37,0,.09,.04,.17,.07,.24,.02,.06,.05,.11,.08,.16,.03,.05,.06,.1,.09,.15,.03,.04,.05,.09,.07,.13,.02,.04,.05,.09,.07,.13,.04,.09,.07,.2,.08,.29,0,.04,0,.07,0,.11-.03,.07-.05,.13-.07,.2-.03,.08-.04,.16-.06,.24-.04,.05-.08,.09-.13,.14-.17,.15-.51,.24-.58,.44-.02,.05-.02,.1-.01,.15,0,.05,.03,.1,.05,.14,.05,.09,.13,.18,.21,.27,.1,.11,.14,.21,.12,.3-.02,.09-.06,.17-.13,.25-.07,.08-.15,.17-.23,.26-.04,.04-.07,.09-.11,.14-.03,.05-.06,.1-.07,.15h0c-.03,.09-.05,.19-.04,.29,0,.1,.02,.19,.07,.28,.03,.05,.06,.1,.11,.14,.03,.03,.07,.06,.11,.09,0,0,.01,.01,.02,.01h.01s.02,.01,.02,.02c.02,0,.03,.02,.03,.03,.01,.01,.01,.03,0,.05-.03,.07-.13,.09-.17,.13-.02,.01-.03,.03-.03,.06,0,0,0,.01,0,.02,.02,.07,.11,.14,.12,.22,.01,.09-.01,.19-.04,.29-.04,.12-.04,.21,0,.3,.04,.08,.11,.16,.21,.27,.03,.02,.04,.04,.06,.06,.04,.05,.07,.09,.09,.13,0,.07,0,.14,0,.2-.02,.05-.06,.09-.12,.15-.04,.05-.09,.09-.14,.14-.06,.06-.12,.12-.16,.18-.06,.07-.11,.14-.14,.22-.01,.03-.02,.05-.03,.08,0,.01-.01,.03-.02,.04,0,0-.01,.02-.02,.03-.02,.04-.03,.08-.04,.12-.01,.03-.02,.07-.02,.1,0,.04,0,.07,0,.11,0,.04,0,.08,.02,.12h0c.05,.19,.18,.4,.23,.61,0,.02,0,.03,.01,.04,0,.01,0,.03,0,.03,0,.01,0,.03,.01,.04,0,.03,.02,.06,.03,.08,.02,.05,.05,.09,.08,.13,.02,.03,.05,.06,.08,.09,.05,.05,.1,.09,.16,.13,.01,0,.02,.02,.03,.03,0,.14-.02,.28-.03,.41,0,.04-.01,.08-.02,.12-.06,.04-.12,.07-.15,.11-.06,.08-.1,.13-.12,.22-.01,.05-.02,.11-.02,.17,0,.08,.02,.15,.03,.23,.01,.06,.03,.12,.03,.18,.02,.13,0,.25-.11,.38-.02,.02-.05,.05-.06,.07-.09,.09-.19,.18-.27,.27-.08,.09-.15,.17-.2,.27-.01,.02-.02,.04-.03,.05-.01,.03-.03,.06-.04,.08-.02,.03-.03,.06-.04,.09-.01,.03-.02,.06-.03,.09,0,.02-.02,.05-.02,.07-.02,.06-.03,.12-.04,.19v.08s0,.1,0,.16c0,.06,0,.11,.02,.18,0,.03,.02,.07,.03,.1-.09,.09-.2,.19-.31,.28-.02,0-.04-.02-.06-.03-.19-.07-.33-.04-.45,.03-.04,.02-.08,.05-.12,.08-.03,.02-.05,.05-.07,.08-.01,.03,0,.04-.01,.07,0,.05-.02,.11-.04,.17-.02,.04-.04,.08-.07,.1h-.01s-.03,.03-.04,.03c-.09,.02-.21-.06-.31-.1-.06-.02-.12-.05-.18-.07-.11-.04-.21-.08-.31-.1-.09-.02-.19-.01-.3,.03-.05,.02-.1,.04-.14,.07-.02,0-.04,.02-.05,.03-.11,.06-.18,.09-.28,.17-.03,.02-.06,.05-.09,.08-.05,.04-.11,.07-.18,.09-.07,.01-.13,.02-.2,.03-.06,.01-.12,.02-.19,.04-.03,.01-.07,.02-.12,.04-.02,0-.05,.02-.07,.03-.04,0-.08,0-.12-.01-.1-.02-.2-.04-.29-.07-.06-.01-.11-.02-.17-.04-.04-.01-.07-.02-.11-.03-.01,0-.02,0-.03-.01-.03-.04-.07-.08-.09-.11-.03-.03-.06-.07-.08-.09-.08-.1-.15-.19-.22-.28-.08-.09-.16-.17-.24-.25-.06-.04-.12-.07-.17-.11-.09-.07-.17-.1-.25-.1-.08,0-.16,0-.25,0-.06,0-.13,.01-.19,0-.02,0-.02,0-.04,0-.02,0-.04,0-.07,0-.02,0-.04,0-.06-.02-.04-.01-.08-.04-.11-.06-.03-.02-.06-.04-.08-.07-.03-.03-.05-.06-.07-.09-.04-.07-.07-.14-.09-.22v-.02c-.02-.09-.04-.19-.08-.29-.02-.04-.05-.08-.07-.13-.03-.04-.07-.07-.11-.1-.03-.01-.06-.03-.09-.03-.04-.01-.08-.02-.13-.02-.05,0-.09,.02-.14,.03-.04-.1-.09-.2-.12-.3,0-.01,.01-.02,.02-.04,0-.02,.02-.05,.01-.08,0-.02,0-.04,0-.06,0-.07-.03-.13-.06-.19-.04-.08-.1-.15-.19-.21-.02,0-.03-.01-.04-.02-.01-.02-.03-.03-.04-.05,0-.01-.02-.03-.02-.05-.01-.06,0-.11,0-.15,.02-.07,.05-.14,.04-.19,0,0,0-.02,0-.03-.03-.16-.05-.33-.06-.49,.04-.03,.07-.07,.11-.11,.02-.03,.05-.07,.06-.11,.04-.1,.07-.19,.08-.29,0-.05,.02-.09,.02-.14,0-.04,0-.09,.02-.14,0-.15,0-.3-.02-.44,0-.04,0-.09-.02-.13-.01-.08-.03-.16-.04-.22-.02-.07-.03-.14-.05-.21-.02-.07-.04-.15-.07-.22-.01-.03-.02-.05-.03-.08-.04-.09-.04-.18-.02-.26,.03-.14,.11-.28,.18-.42,.02-.03,.04-.07,.05-.11,.16-.4,.32-.8,.38-1.22,.01-.1,.02-.19,.02-.29,0-.1,0-.21-.02-.31h0c-.04-.29-.09-.56-.2-.83,0-.02-.02-.05-.03-.07-.12-.29-.25-.56-.1-.86,.08-.15,.18-.3,.26-.45,.06-.11,.12-.23,.16-.35,.04-.13,.06-.26,.05-.4,0-.07-.02-.15-.04-.22-.03-.08-.06-.16-.09-.24-.04-.09-.09-.18-.14-.25-.04-.07-.1-.13-.15-.18-.08-.07-.19-.15-.26-.24v-.03c-.02-.09-.04-.18-.06-.26,.01-.06,.03-.11,.04-.17,.02-.08,.05-.16,.07-.24,.08-.23,.16-.45,.22-.68,.03-.1,.05-.2,.07-.3,.03-.22,.04-.47-.03-.73-.01-.05-.02-.09-.04-.14-.02-.05-.04-.09-.05-.13-.05-.09-.09-.19-.15-.27-.12-.16-.26-.3-.41-.4-.3-.2-.63-.29-.94-.33-.23-.03-.46-.03-.68-.03-.04,0-.08,0-.12,0-.24-.09-.48-.16-.73-.2-.05-.03-.09-.06-.14-.09-.36-.26-.78-.48-1.22-.59-.1-.03-.2-.05-.31-.07-.08-.01-.17-.02-.26-.03-.22-.02-.45,0-.66,.05-.12,.02-.23,.05-.33,.09-.17,.06-.36,.13-.55,.15-.09,.01-.19,0-.29,0-.03,0-.06-.01-.1-.02-.29-.09-.52-.17-.83-.29-.02,0-.04-.01-.06-.02-.07-.03-.15-.06-.23-.06-.08-.01-.15-.01-.23,0-.07,0-.14,.02-.21,.05-.07,.03-.13,.07-.19,.13-.05,.04-.1,.08-.14,.12-.02,.02-.04,.03-.07,.05-.02,.01-.05,.03-.07,.05-.05,.03-.1,.05-.15,.08-.11,.04-.23,.06-.38,.05-.16,0-.31,0-.47,.04-.13,.04-.25,.1-.37,.2-.06,.06-.13,.13-.18,.21-.12,.19-.15,.41-.14,.59,.02,.18-.03,.19-.13,.29-.02,.01-.03,.03-.05,.05-.03,.04-.06,.09-.08,.14-.03,.05-.05,.1-.07,.16-.01,.03-.02,.05-.03,.08,0,0,0,.02-.01,.03,0,.01-.01,.03-.02,.04,0,.01-.02,.03-.02,.04,0,.02-.02,.03-.03,.04-.02,.03-.03,.05-.05,.08-.03,.05-.05,.09-.07,.14-.05,.13-.05,.28-.03,.42,0,.03,.01,.07,.02,.11,0,.03,.01,.07,.02,.1,.02,.07,.03,.13,.04,.2,0,.05,0,.1-.01,.14-.02,.05-.03,.09-.06,.13-.05,.08-.11,.16-.19,.24-.06,.07-.13,.15-.19,.23,0,.01-.01,.02-.02,.03-.05,.07-.09,.15-.12,.23-.05,.11-.07,.23-.1,.35-.02,.1-.02,.21-.02,.32,0,.11,0,.22,.02,.32,.01,.07,.03,.13,.04,.19,.03,.13,.06,.25,.1,.36,.04,.11,.09,.22,.16,.33,.03,.04,.05,.09,.08,.14h0v.13c-.05,.06-.11,.13-.17,.2-.03,.04-.06,.09-.08,.13-.11,.22-.13,.43-.16,.63-.02,.16-.04,.32-.04,.49v.14c0,.1,.01,.18,.03,.26,.03,.17,.09,.33,.18,.5,.01,.03,.03,.05,.05,.08,.06,.1,.07,.2,.05,.29-.03,.16-.15,.31-.24,.47-.02,.04-.05,.08-.06,.12-.22,.46-.43,.91-.5,1.38-.02,.11-.02,.21-.03,.33,0,.12,.01,.24,.04,.36h0c.07,.32,.16,.63,.33,.93,.02,.02,.03,.05,.04,.07,.2,.32,.41,.62,.2,.97-.11,.18-.24,.34-.37,.51-.18,.25-.33,.52-.31,.83,.01,.15,.08,.33,.17,.51,.06,.1,.12,.2,.19,.29,.06,.08,.13,.15,.19,.21,.07,.06,.16,.13,.24,.2,0,.25-.01,.5-.02,.75l-.06,.12c-.12,.26-.24,.51-.34,.76-.04,.11-.08,.22-.11,.33-.07,.24-.11,.48-.1,.74,0,.18,.02,.36,.04,.53,.02,.17,.06,.35,.09,.52,.03,.17,.08,.34,.14,.51,.01,.04,.03,.08,.04,.13,.01,.04,.02,.08,.04,.12,.03,.08,.05,.16,.08,.25,.03,.1,.06,.19,.08,.29,0,.08,0,.16,0,.25,0,.06,0,.11,0,.17,0,.06,0,.12,0,.18,0,.06,0,.11,0,.17,0,.25-.01,.51-.02,.76-.03,.04-.05,.07-.08,.11-.17,.2-.33,.42-.45,.66-.07,.12-.11,.24-.15,.37-.04,.12-.08,.25-.11,.38-.03,.12-.04,.24-.05,.36,0,.1,0,.2,0,.3,0,.06,0,.12,.02,.19,.01,.06,.03,.12,.04,.19,.03,.12,.08,.25,.13,.37,.05,.13,.12,.24,.2,.35,.13,.18,.25,.37,.32,.57,.04,.1,.06,.21,.06,.32,0,.04,0,.07,0,.11-.05,.35-.15,.63-.35,.95l-.04,.06c-.22,.32-.29,.63-.07,.95,.05,.06,.09,.13,.13,.18,.07,.11,.13,.23,.15,.34,.02,.12,0,.25-.09,.38-.09,.15-.19,.27-.27,.4-.06,.09-.1,.2-.13,.3-.01,.06-.02,.12-.02,.19,0,.08,.02,.15,.05,.23,.03,.07,.06,.15,.1,.22,.1,.2,.03,.21-.07,.38-.02,.03-.03,.06-.04,.09-.1,.27-.03,.63-.03,.91,0,.05,0,.1,.02,.15,.09,.27,.4,.45,.51,.75,.04,.11,.02,.21-.04,.31-.05,.09-.14,.19-.22,.28-.09,.09-.18,.18-.25,.27-.01,0-.02,.03-.03,.04-.06,.08-.1,.17-.14,.27-.02,.06-.04,.12-.07,.19-.01,.06-.03,.13-.03,.2,0,.06-.01,.12-.02,.18,0,.03,0,.06,0,.09,0,.01,0,.02,0,.04,0,.06,0,.15,.01,.27,0,.04,0,.08,0,.12,0,.04,0,.09,.02,.13,0,.05,.01,.1,.02,.15,0,.02,.01,.05,.02,.07,0,.03,.01,.06,.02,.08,.03,.11,.07,.21,.12,.27,.09,.13,.19,.23,.31,.32,.05,.04,.1,.08,.16,.12,.06,.05,.13,.1,.2,.15,0,.09,.02,.18,.03,.27,0,.05,.02,.1,.04,.15l-.02,.02s-.08,.09-.13,.13c-.09,.24-.28,.49-.33,.74,0,.03,0,.05,0,.08,0,.14,.03,.26,.09,.35,.02,.04,.05,.08,.08,.11,.03,.03,.06,.06,.1,.09,.12,.1,.27,.18,.42,.28,.06,.04,.13,.08,.19,.12,.06,.04,.12,.07,.17,.11,.07,.04,.12,.09,.17,.13,.03,.03,.06,.07,.09,.1h0c.02,.05,.04,.09,.05,.15,0,.04,.02,.09,.02,.15,.02,.22,.06,.43,.17,.6,.09,.14,.23,.27,.44,.34,.05,.02,.11,.03,.16,.04,.05,.01,.11,.02,.16,.03,.02,0,.05,.01,.08,0,.02,0,.05,0,.07,0,.05,0,.1,0,.15,0,.19,0,.38-.04,.57-.11,.18-.07,.35-.17,.51-.28,.03-.02,.06-.04,.09-.05,.27,.04,.54,.07,.81,.08,.02,.02,.04,.04,.05,.06,.11,.11,.22,.23,.31,.3,.06,.04,.13,.08,.19,.11,.1,.04,.19,.08,.3,.11,.1,.04,.2,.06,.29,.08,.13,.03,.25,.05,.36,.06,.04,0,.08,.01,.12,.02,.04,0,.08,.01,.11,.02,.08,.01,.15,.02,.22,.04,.12,.03,.33,.07,.52,.08,.14,.01,.29,.02,.44,.02,.06,0,.11,0,.17,0,.16-.02,.33-.04,.49-.09,.16-.04,.32-.1,.47-.18,.16-.09,.32-.18,.46-.29,.19-.15,.36-.32,.49-.5,.05-.08,.1-.16,.14-.24,.07-.16,.07-.32,.06-.49h.02s.05-.04,.08-.05c.1-.06,.22-.27,.28-.41,.03-.07,.06-.14,.08-.21,0-.03,.02-.06,.03-.09,.05-.02,.1-.05,.14-.1,.09-.09,.13-.2,.15-.31v-.02c.06-.1,.1-.21,.12-.33,0-.08,.01-.17,0-.25,0-.04-.01-.08-.02-.12v-.04s0-.04-.01-.05c0-.04,0-.07,0-.11,0-.07,.02-.14,.03-.2,.03-.14,.07-.28,.1-.44,0-.01,0-.02,0-.03,0-.02,0-.03,0-.05,0-.09,0-.16,0-.24,0-.06,0-.13,0-.21,0-.08,0-.16,0-.24,0-.04,0-.08,0-.11,0-.05,0-.1,.02-.14,0-.02,.02-.04,.02-.06,.01-.02,.02-.05,.03-.07,.04-.1,.08-.2,.11-.3,.02-.05,.03-.1,.05-.14,.02-.05,.03-.1,.05-.15,.03-.1,.06-.2,.09-.3,.02-.09,.04-.19,.06-.28,.02-.1,.02-.21,.03-.32h0c0-.29,0-.58-.05-.86,0-.02-.01-.05-.01-.07-.06-.31-.15-.6,.05-.89,.09-.14,.21-.28,.31-.42,.08-.11,.14-.22,.2-.34,.03-.06,.05-.13,.07-.19,.02-.07,.03-.14,.03-.21,0-.14-.02-.31-.07-.47-.03-.1-.06-.19-.1-.27-.03-.08-.07-.14-.1-.2-.04-.07-.1-.14-.15-.22,.03-.19,.06-.38,.1-.57,.04-.06,.07-.13,.12-.18,.14-.2,.3-.37,.47-.5,.04-.03,.07-.06,.1-.09,.04-.03,.07-.05,.11-.08,.03-.03,.08-.06,.12-.08,.04-.03,.07-.06,.12-.09,.04-.03,.08-.05,.12-.08,.01,0,.02-.02,.03-.02,0,0,.02-.01,.03-.02,.02-.02,.05-.03,.06-.04,.03-.02,.06-.05,.09-.07,.03-.03,.06-.04,.09-.07,.06-.04,.13-.09,.19-.13,.06-.04,.12-.09,.18-.13,.03-.02,.06-.04,.09-.07,.03-.02,.06-.04,.09-.06,.25-.17,.5-.33,.77-.48,.21-.11,.41-.22,.63-.31,.06-.03,.13-.05,.2-.08,.1-.04,.2-.06,.3-.06,.2,0,.39,.05,.6,.15,.42,.2,.84,.39,1.26,.54,.1,.04,.2,.07,.3,.09,.04,.01,.08,.02,.12,.03,.04,.01,.08,.02,.12,.03,.2,.05,.42,.08,.64,.09,.11,.01,.22,.01,.33,.02,.18,0,.38,.02,.56,.09,.05,.02,.09,.04,.14,.06,.04,.02,.08,.06,.12,.09,.02,.02,.05,.04,.07,.07,.21,.24,.32,.48,.34,.77,0,.02,0,.04,0,.06,0,.29,.03,.52,.24,.74,.04,.04,.08,.09,.12,.14,.04,.05,.07,.09,.09,.14,.03,.04,.05,.1,.06,.15,.02,.1,.03,.22-.02,.34-.04,.14-.1,.25-.14,.37-.03,.09-.06,.18-.07,.28,0,.06,0,.11,0,.17,.01,.15,.06,.27,.12,.41,.08,.18,.03,.19-.03,.36,0,.02-.02,.06-.02,.08-.05,.26,.04,.62,.06,.88,0,.05,.02,.1,.03,.14,.09,.25,.32,.36,.42,.61,.08,.18,0,.37-.08,.56-.04,.09-.09,.18-.12,.26,0,.01,0,.02-.02,.03-.03,.08-.05,.16-.07,.24-.02,.11-.03,.23-.03,.35,0,.21,.03,.42,.07,.62,.02,.07,.04,.12,.05,.19,.08,.25,.17,.47,.31,.68l.04,.05c.01,.1,.04,.2,.07,.3-.02,.12-.04,.23-.05,.35-.02,.15-.02,.3-.03,.46,0,.04,0,.09,0,.13,0,.09,.01,.17,.03,.25,.03,.16,.07,.31,.15,.46,.01,.03,.02,.05,.04,.08,.05,.09,.07,.18,.07,.27,0,.15-.06,.31-.09,.47,0,.04-.01,.09-.01,.13,0,.04,0,.07,0,.11,0,.02,0,.04,0,.06,0,.02,0,.04,0,.06,0,.08,.03,.17,.07,.25,.16,.34,.38,.61,.65,.82,.09,.07,.17,.13,.27,.18,.1,.06,.2,.11,.32,.15h0s.07,.03,.11,.04c.04,.01,.08,.03,.12,.04,.08,.02,.16,.05,.24,.06,.08,.01,.16,.03,.24,.03,.08,0,.16,0,.24,0,.02,0,.05,0,.08,0,.17-.02,.33-.07,.48-.08,.07-.01,.15,0,.22,0,.08,0,.16,.03,.24,.08,.08,.04,.16,.08,.24,.13,.08,.04,.15,.09,.23,.14,.22,.14,.44,.28,.74,.3,.15,0,.33-.01,.5-.06,.1-.03,.2-.07,.3-.11,.04-.02,.07-.04,.11-.06,.04-.02,.07-.04,.1-.06,.05-.04,.11-.1,.16-.15,.05-.06,.1-.11,.14-.14h.02s.04-.03,.06-.04c.05,0,.1,0,.16-.01,.01,0,.02,0,.03,0,.04,0,.08,0,.12,0,.09,0,.18-.01,.27-.01,.12,0,.25,0,.36,.03,.12,.02,.23,.05,.35,.07,.1,.02,.2,.04,.31,.06,.06,.01,.12,.02,.18,.02,.06,0,.13,0,.19,0,.03,0,.07,0,.1,0,.03,0,.07,0,.1-.01,.07,0,.14-.02,.21-.04,.05-.01,.1-.03,.15-.05,.05-.02,.1-.03,.14-.06,.1-.05,.19-.1,.27-.16,.05-.03,.08-.06,.12-.09,.04-.03,.07-.07,.11-.1,.03-.03,.07-.07,.1-.1,.03-.04,.06-.08,.09-.11,.22-.29,.36-.62,.43-.95,.05-.25,.06-.48,.05-.71v-.03c.08-.18,.15-.38,.19-.6,.03-.15,.04-.29,.06-.44,.23-.41,.41-.87,.51-1.33,.02-.11,.04-.22,.05-.32,.01-.09,.02-.18,.02-.27,.01-.22-.01-.47-.06-.7-.03-.12-.06-.24-.09-.35-.06-.19-.13-.38-.15-.58-.01-.1-.01-.2,0-.3,0-.03,0-.07,.02-.1,.09-.31,.19-.56,.37-.83,.02-.02,.03-.04,.04-.05,.1-.14,.17-.27,.2-.42,.03-.15,.03-.3-.03-.47-.03-.07-.05-.13-.07-.19-.04-.12-.06-.23-.06-.35,0-.12,.03-.23,.1-.36,.07-.13,.15-.26,.21-.39,.05-.09,.08-.19,.1-.31,.01-.06,.01-.12,.01-.2,0-.16-.06-.31-.11-.45Z"/></clipPath><clipPath id="uuid-ab99d16e-e6e5-46cf-85fc-61f6b36b3543"><path class="uuid-ee82db58-7c7b-4adc-9e68-21d82d55206c" d="M70.51,21.61c-.08-.18-.03-.2,.03-.36,0-.03,.02-.06,.02-.09,.06-.26-.03-.6-.05-.86,0-.05-.02-.1-.03-.14-.09-.24-.33-.35-.44-.6-.08-.18,0-.37,.1-.55,.05-.09,.1-.17,.14-.26l.02-.03c.03-.08,.06-.16,.08-.24,.03-.11,.04-.23,.05-.34,0-.2-.02-.41-.06-.61-.02-.06-.04-.13-.05-.18-.04-.12-.08-.24-.12-.35-.05-.11-.1-.21-.17-.32-.03-.05-.06-.09-.09-.14-.03-.05-.07-.09-.1-.14h.01c.09-.1,.24-.28,.3-.43,.11-.27,.15-.42,.2-.65,.02-.08,.03-.15,.04-.22,.05-.29,.07-.59,0-.93,0-.03-.01-.07-.02-.1l-.02-.05s0-.02,0-.03h0c-.02-.06-.04-.12-.05-.17-.02-.05-.03-.11-.05-.16-.01-.05-.03-.1-.04-.14-.02-.07-.05-.14-.07-.22,0-.03-.02-.07-.03-.1-.03-.1-.06-.2-.09-.3-.06-.18-.12-.37-.2-.56-.03-.09-.09-.19-.14-.29,0-.31,0-.61-.01-.9v-.25s.02-.03,.03-.05c.08-.13,.13-.27,.15-.41,.01-.07,.02-.15,.03-.22,0-.07,0-.15,0-.22,0-.02,0-.04,0-.06v-.02s0,0,0-.01h0s0,0,0,0h0s0-.07,0-.1c0-.02,0-.03,0-.05,0-.02,.11-.05,.14-.08,.03-.02,.05-.04,.08-.07,.03-.03,.05-.06,.08-.09,.02-.03,.04-.07,.06-.1,0-.02,.01-.04,.02-.05,0-.02,.01-.03,.02-.05,.01-.03,.02-.07,.03-.1,.01-.05,.02-.11,.03-.17,0-.04,0-.09,0-.14,0-.02,0-.04,0-.06,0-.02,0-.04,0-.06,0-.02,0-.04,0-.06,0-.01,0-.02,0-.03h0s0,.01,0,.01h0s0-.01,0-.02c0-.03,0-.06,0-.1,0-.02,0-.03,0-.05,0-.02,0-.03,0-.04,0-.02,0-.05,0-.07,0-.02,0-.05,0-.08,0-.06,0-.12-.02-.18h0c0-.09-.03-.17-.07-.25-.06-.15-.13-.29-.17-.44,0-.03-.01-.06-.02-.09v-.04s0-.06,0-.1c0-.02,0-.04,0-.07,0,0,0-.02,0-.03,0,0,0-.01,0-.02,0,0,0,0,0,0h0s0-.04,0-.06c0-.01,0-.03,0-.05,.01-.07,.04-.15,.05-.23,.02-.11,.05-.23,.05-.35,0-.23,0-.54-.11-.78-.02-.05-.04-.09-.08-.14l-.02-.03c-.05-.07-.15-.1-.23-.14-.05-.03-.1-.04-.13-.08-.1-.11-.02-.26,0-.39,0-.08,0-.17-.01-.25,0-.03-.01-.06-.02-.09,0-.03-.02-.06-.03-.09-.02-.06-.06-.13-.09-.19-.02-.03-.04-.06-.07-.09-.02-.03-.04-.06-.07-.09-.03-.03-.06-.06-.1-.09-.04-.03-.07-.06-.11-.08-.04-.02-.08-.04-.13-.07-.03-.01-.06-.02-.09-.03-.02-.02-.03-.03-.05-.06-.04-.06-.08-.16-.12-.25,0-.05,0-.1,0-.17,0-.05-.01-.09-.02-.14-.06-.23-.18-.42-.32-.59-.11-.13-.23-.26-.38-.37-.02-.01-.04-.03-.06-.04l-.07-.04c-.09-.06-.18-.1-.26-.13-.18-.06-.36-.07-.54-.05-.03,0-.06,.01-.09,.02-.11,.03-.2,.03-.3,0-.16-.02-.33-.09-.5-.13-.05,0-.09-.02-.14-.02-.52-.06-1.04-.03-1.51,.06-.05,.01-.1,.02-.15,.03-.04,.01-.09,.02-.14,.03-.05,0-.1,.02-.15,.03-.05,0-.1,.02-.16,.03h0c-.19,.04-.4,.07-.62,.1-.32,0-.65,0-.96,.06-.04,0-.07,.07-.11,.09-.02,0-.04,0-.05,0-.04-.01-.08-.03-.11-.02h-.02s-.09-.02-.14-.03c-.05-.02-.09-.03-.14-.04-.05-.01-.1-.03-.15-.04-.05-.01-.1-.02-.16-.03-.03,0-.06-.01-.08-.01-.03,0-.05,0-.07,0-.03,0-.07,0-.11,0-.02,0-.04,0-.06,0h0s-.02,0-.01,0h0s0,0-.01,0c0,0-.02,0-.03,0-.07,0-.14,0-.21,0-.14,0-.29,.03-.43,.08-.15,.05-.31,.14-.47,.25-.09,.06-.18,.13-.26,.2-.07,.06-.13,.13-.18,.18-.09,.11-.17,.29-.27,.38,0,0-.02,0-.02,.02-.11,.09-.26,.08-.39,.12-.08,.03-.17,.07-.25,.12-.12,.07-.22,.18-.3,.31-.02,.03-.04,.07-.05,.1-.01,.04-.03,.07-.04,.11,0,.02-.01,.04-.02,.06,0,.02-.01,.04-.02,.06,0,.01,0,.03,0,.05,0,0,0,.02,0,.02v.02h0s0,0,0,.01h0c-.01,.06-.03,.11-.04,.16-.01,.05-.02,.11-.03,.16-.05,.24-.09,.49-.09,.76,0,.37,.03,.74,.08,1.1,.01,.09,.03,.18,.05,.27,.02,.09,.04,.18,.06,.27,.02,.09,.05,.17,.08,.26,0,.01,0,.02,0,.03h0v.02h0v.02s.02,.04,.03,.06c.02,.04,.03,.08,.05,.12,.05,.12,.1,.24,.15,.36,.04,.12,.09,.24,.13,.36h0c-.02,.07-.05,.13-.05,.19,0,.04,0,.1,0,.19,0,.12,.02,.28,.03,.48,0,.08,.02,.17,.02,.26-.01,.03-.02,.06-.03,.09-.09,.24-.19,.48-.26,.73-.04,.12-.07,.25-.1,.38-.03,.13-.05,.26-.07,.39-.01,.12-.02,.24-.03,.35,0,.03,0,.05,0,.08,0,.01,0,.02,0,.04,0,0,0,0,0,0,0,0,0,.01,0,.01,0,0,0,.01,0,.02,0,.05,0,.1,.01,.15,.02,.25,.07,.52,.17,.76,.05,.12,.11,.24,.16,.35,.03,.05,.05,.09,.08,.14,.02,.04,.05,.09,.07,.14,.05,.1,.1,.19,.13,.3,.03,.1,.06,.21,.07,.32,0,.04,0,.07,0,.11,0,.35-.03,.63-.13,.97,0,.02-.01,.04-.02,.07-.11,.33-.13,.65,.07,.96,.04,.06,.08,.12,.12,.19,.13,.22,.22,.45,.13,.74-.05,.16-.1,.3-.13,.44-.01,.06-.02,.11-.03,.17,0,.02,0,.03,0,.04h0s0,.01,0,.02c0,0,0,.01,0,.02,0,.03,0,.06,0,.09,0,.07,0,.14,.02,.21,.03,.17,.1,.32,.18,.46,.11,.2,.07,.22,.03,.42,0,.03,0,.06-.01,.1,0,.15,.02,.31,.06,.47,.02,.08,.04,.16,.06,.24,.02,.08,.04,.16,.05,.23,0,.06,.03,.11,.05,.15,.03,.07,.06,.12,.11,.17,.02,.03,.04,.05,.06,.07,.01,.01,.02,.03,.04,.04h0s0,0,0,0h0s.01,.02,.02,.03c.09,.1,.19,.19,.26,.33,.01,.02,.01,.05,.02,.07l.02,.21s0,.02,0,.03c0,.11-.04,.21-.08,.32-.03,.11-.07,.21-.11,.31,0,0,0,.01,0,.02h0v.02h0c-.02,.09-.04,.18-.04,.28,0,.13,0,.26,.02,.41,0,.04,.01,.08,.02,.11,0,.02,0,.04,.01,.06,0,.02,0,.04,.02,.06,.01,.03,.02,.06,.03,.09-.01,.02-.03,.03-.04,.04,0,.02-.02,.03-.03,.05,0,0,0,.02-.01,.04,0,.01,0,.03-.01,.04,0,0,0,.02,0,.02h0s0,.02,0,.03h0s0-.02,0,.04h0v.03s-.04,.08-.04,.13c0,.01,0,.03,0,.05,0,.05-.01,.1,0,.15,0,.11,.03,.22,.09,.32,.01,.02,.02,.04,.04,.06,.05,.07,.11,.14,.21,.22,.05,.04,.12,.09,.19,.15,0,0,.01,.01,.02,.02-.02,.08-.04,.16-.07,.23-.09-.02-.2-.06-.28-.08-.1-.03-.17-.06-.2-.09h0s0,.02,0,.03c0,0,0,0,.01,0h.02s0,0,0,0c0,0-.02,0-.02,0h-.01v-.04h0l-.02-.1h0s0-.01,0,0h-.02s-.02-.01-.02-.01c-.03,0-.04,.03-.07,.06-.01,.02-.03,.04-.05,.06-.02,.02-.04,.04-.06,.06-.03,.03-.06,.04-.1,.05,0,0,0,0-.01,0-.01,0-.02,0-.03-.01-.06-.04-.07-.18-.09-.27-.01-.05-.02-.11-.04-.16-.02-.1-.05-.19-.09-.27-.03-.07-.1-.13-.2-.17-.05-.02-.1-.03-.15-.04-.02,0-.04,0-.06-.01-.1-.02-.18-.03-.27-.03,0-.01,0-.03-.01-.04-.07-.1-.15-.21-.22-.31-.08-.11-.16-.21-.23-.31h0c.06-.07,.1-.13,.14-.2,.07-.11,.09-.23,.07-.34v-.03h0s0,0,0,0h0s0-.01,0-.01c0,0,0-.02,0-.02,0-.03-.02-.05-.03-.08-.03-.05-.05-.1-.09-.14-.05-.06-.1-.11-.16-.16l-.03-.03s-.07-.06-.1-.09c-.03-.03-.05-.06-.08-.09-.08-.11-.11-.23-.12-.38h0c0-.18-.04-.41-.23-.47-.03-.01-.06-.02-.09-.02-.04,0-.09,0-.13,.02-.07,.01-.14,.05-.2,.08-.05,.02-.08,.04-.11,.03,0-.01,0-.03,0-.04l-.03-.04c0-.07,.05-.16,.08-.24,0-.03,.01-.05,0-.08,0-.02,0-.03,0-.05-.01-.06-.03-.11-.07-.15-.04-.06-.11-.11-.2-.13-.06,0-.11,0-.16-.01-.02,0-.05,0-.07,0-.06-.1-.12-.2-.19-.3,0-.02,0-.03,.01-.05,.02-.06,.03-.13,.04-.21,0-.05,0-.09,0-.14,0-.06-.02-.11-.03-.16-.02-.05-.03-.1-.05-.15-.04-.1-.09-.19-.14-.28-.08-.14-.17-.28-.27-.4-.03-.04-.06-.08-.09-.11-.06-.07-.12-.13-.19-.18-.12-.11-.26-.2-.42-.28-.03-.01-.05-.03-.08-.04-.04-.02-.08-.04-.12-.07-.06-.1-.13-.2-.2-.3,0-.01-.01-.02-.02-.04-.03-.08-.05-.16-.07-.24,0,0,0-.02,0-.03,0,0,0-.01,0-.01v-.02s-.02-.04-.03-.06c-.07-.22-.14-.45-.22-.66-.04-.11-.08-.21-.13-.32-.04-.11-.09-.21-.15-.31-.05-.09-.11-.18-.17-.27-.06-.1-.14-.19-.22-.27h0c-.19-.21-.4-.44-.64-.64-.02-.02-.04-.04-.06-.05-.13-.1-.27-.21-.37-.32-.11-.12-.18-.26-.21-.44-.01-.09-.02-.18-.03-.28,0-.05,0-.1-.02-.14,0-.05-.01-.09-.02-.14,0-.04,0-.07-.02-.1,0-.02,0-.03,0-.05h0v-.03h-.01v-.04c-.02-.07-.04-.13-.06-.2-.05-.13-.11-.26-.21-.37-.09-.11-.23-.23-.39-.33-.09-.06-.18-.11-.27-.16-.08-.04-.16-.07-.23-.1-.12-.04-.29-.06-.4-.13-.05-.07-.11-.15-.16-.22-.02-.06-.03-.12-.05-.18-.03-.09-.05-.18-.08-.26-.07-.25-.14-.5-.23-.73-.02-.05-.04-.1-.06-.16-.02-.05-.04-.1-.06-.15-.09-.22-.2-.43-.36-.64-.21-.29-.44-.55-.68-.8-.12-.12-.25-.24-.37-.35-.03-.03-.06-.06-.1-.09-.01-.01-.03-.02-.05-.04-.02-.02-.04-.03-.06-.04-.07-.05-.14-.1-.21-.15-.06-.04-.1-.07-.16-.1-.06-.03-.11-.06-.17-.09-.05-.03-.11-.06-.16-.09-.06-.03-.11-.05-.17-.08-.07-.04-.13-.07-.2-.1-.04-.05-.08-.1-.12-.14-.13-.15-.25-.28-.36-.39-.03-.09-.06-.17-.09-.27-.06-.24-.12-.47-.21-.71-.09-.23-.2-.46-.35-.67-.07-.1-.14-.19-.23-.28-.07-.07-.14-.14-.23-.21-.2-.16-.47-.28-.74-.33-.04,0-.07,0-.11-.01-.03,0-.07,0-.1,0-.07,0-.14,0-.2,0-.21,.03-.43,.09-.62,.14-.02,0-.05,.01-.07,.02h-.01s-.07-.02-.11-.04c-.15-.06-.28-.15-.42-.22-.12-.07-.26-.12-.4-.14,0,0-.01,0-.02,0-.07-.05-.13-.1-.2-.16-.02-.01-.04-.03-.06-.04-.07-.06-.14-.11-.22-.14-.02-.01-.04-.02-.06-.03-.02,0-.04-.02-.05-.03-.04-.01-.07-.03-.11-.04-.01,0-.03,0-.04,0h-.03s-.04-.01-.07-.02c-.02,0-.05,0-.07,0-.02,0-.05,0-.07,0-.05,0-.09,0-.14,.02-.05,.01-.09,.03-.14,.05-.08,.03-.15,.07-.21,.1-.25,.11-.47,.21-.77,.14-.16-.03-.3-.07-.44-.09-.11-.02-.22-.02-.33-.01-.06,0-.13,.01-.19,.03-.15,.04-.29,.12-.41,.19-.18,.11-.21,.07-.39,.03-.03,0-.06-.01-.1-.01-.3-.01-.68,.13-.96,.21-.06,.02-.11,.03-.15,.06-.26,.14-.34,.39-.59,.56-.04,.03-.08,.04-.13,.06h-.04c-.14,.04-.3,.02-.46,0-.11-.02-.22-.04-.32-.05-.02,0-.03,0-.04,0-.09,0-.19,0-.29,.01-.13,.02-.26,.05-.4,.1-.23,.08-.46,.21-.66,.36-.06,.06-.12,.1-.17,.16-.22,.22-.4,.46-.46,.75-.02,.06-.02,.12-.03,.19,0,.05,0,.09,0,.14-.04,.08-.09,.17-.13,.25-.03,.06-.04,.13-.05,.2h0c-.07,.04-.15,.07-.24,.12-.05,.03-.09,.06-.14,.1-.21,.18-.34,.43-.39,.68-.04,.2-.05,.4-.05,.59,0,.05,0,.11,0,.16,0,.11,0,.21,0,.31,0,.05,0,.1,0,.15,0,.05,0,.1,0,.15,0,.09,.03,.2,.05,.3,.01,.04,.03,.07,.05,.09,.02,.02,.04,.05,.06,.06,.02,.02,.04,.04,.05,.06,.03,.04,.05,.09,.05,.14,0,.18-.37,.51-.4,.72,0,.05,0,.1,0,.15,0,.57,.13,1.07,.09,1.56,0,.05-.01,.1-.01,.15,0,.07-.02,.13-.02,.19,0,0,0,.02,0,.03h0s0,.04,0,.06c0,.03,0,.07,0,.11,0,.07,0,.15,0,.22,0,0,0,0,0,.01,0,.38,.04,.75,.12,1.11l.02,.09c.05,.19,.11,.38,.13,.57,.02,.19,0,.38-.07,.58-.08,.2-.19,.4-.28,.6-.14,.3-.26,.61-.26,.98,0,.19,.04,.4,.09,.61,.03,.12,.08,.24,.12,.35,.04,.09,.08,.19,.12,.26,.08,.13,.21,.29,.26,.44,0,.01,0,.02,0,.03,.03,.17-.04,.33-.09,.49-.03,.1-.06,.21-.09,.31-.09,.3-.18,.6-.24,.89-.03,.13-.06,.26-.08,.39-.05,.29-.07,.58-.06,.89,.02,.43,.06,.86,.13,1.27,.04,.2,.07,.4,.11,.6,.03,.2,.08,.4,.12,.59,.06,.26,.13,.5,.19,.75,0,.47,0,.94,0,1.41-.01,.04-.02,.07-.03,.1-.2,.55-.38,1.12-.48,1.72-.03,.14-.04,.27-.05,.41,0,.11-.01,.23-.01,.34,0,.28,.03,.59,.09,.87,.02,.08,.03,.15,.05,.22,.02,.07,.04,.14,.07,.21,.08,.23,.17,.46,.21,.71,.02,.12,.04,.25,.04,.38,0,.04,0,.09,0,.13-.03,.41-.1,.73-.23,1.1,0,.02-.02,.05-.03,.07-.15,.36-.19,.73-.03,1.12,.03,.08,.07,.15,.09,.23,.05,.14,.1,.28,.11,.42,.02,.14,0,.3-.05,.46-.05,.18-.12,.34-.16,.5-.03,.13-.05,.26-.06,.4,0,.08,0,.16,.01,.25,.03,.2,.1,.37,.18,.55,.11,.24,.06,.26,.03,.48,0,.03,0,.07,0,.11,0,.05,0,.09,0,.14,0,.04,0,.09,.01,.14,0,.09,.03,.2,.05,.31,0,.02,.02,.06,.02,.09,0,.03,.02,.06,.03,.09,.02,.06,.03,.13,.05,.16,.02,.05,.03,.09,.05,.13,0,0,0,.02,.01,.03h0v.03h.01s0,.02,0,.03c.01,.03,.02,.05,.03,.07,.01,.04,.03,.07,.05,.1,.02,.03,.03,.05,.05,.08,.03,.04,.05,.06,.08,.09,.02,.03,.05,.05,.08,.06,.03,.02,.05,.04,.08,.06,.03,.02,.05,.03,.08,.05,0,0,.01,0,.02,0,0,0,.01,.01,.02,.02,.01,.01,.03,.03,.04,.04,0,0,.01,.01,.02,.02h0s0,0,0,0h.01s.02,.04,.04,.05c.05,.06,.09,.12,.12,.21,0,.01,0,.03,0,.04,0,.02-.01,.05-.01,.08,0,.06,0,.14,0,.23,0,.02,0,.05,0,.07-.03,.09-.06,.19-.1,.29-.02,.06-.05,.12-.07,.18-.02,.06-.04,.12-.06,.18,0,.02-.01,.04-.02,.05-.01,.05-.02,.12-.03,.17,0,.05,0,.11-.01,.16v.03s0,.01,0,.01h0s0,.01,0,.02c0,0,0,0,0,0,0,0,0,0,0,0,0,.02,0,.04,0,.06,0,.04,0,.07,0,.11,0,.08,.02,.16,.02,.24,.05,.28,.14,.59,.31,.87,.05,.08,.12,.18,.18,.25,.02,.02,.03,.04,.05,.06,.01,.02,.03,.03,.05,.05,.03,.03,.06,.05,.09,.08,0,0,.02,.02,.02,.02h0v.02s.03,.03,.02,.02h0s.03,.03,.05,.04c.03,.03,.07,.05,.1,.07,.14,.09,.28,.17,.43,.22h0s0,.05,0,.08c0,.05,.02,.09,.03,.13,.01,.04,.03,.08,.05,.11,.14,.25,.23,.37,.4,.54,.05,.06,.11,.1,.16,.14,.22,.19,.48,.34,.77,.44,.22,.08,.46,.12,.7,.14,.04,0,.09,0,.13,0,.02,0,.04,0,.06,0h.03s.01,0,.02,0c0,0,.02,0,.03,0,.03,0,.07,0,.1-.01,.01,0,.03,0,.04,0,.02,0,.03,0,.05,0,.03,0,.06-.02,.09-.02,.03,0,.06-.01,.09-.02,.02,0,.05-.02,.08-.03,.19-.07,.36-.16,.52-.26,.04-.03,.08-.05,.12-.08,.04-.03,.09-.06,.13-.09,.05-.03,.1-.06,.16-.09h.03c.26-.03,.52-.04,.77-.05,.04,.04,.09,.08,.16,.12,.12,.07,.25,.13,.37,.18,.12,.05,.25,.08,.37,.12l.08,.03c.12,.03,.22,.07,.33,.11,.11,.04,.23,.07,.35,.1,.24,.05,.49,.09,.78,.08,.04,0,.07,0,.11,0,.03,0,.07,0,.11-.02,.04,0,.07-.01,.11-.02,0,0,.02,0,.03,0h.02s.02,0,.03,0h0s0,0,0,0c.01,0,.03,0,.04-.02,0,0,.01,0,.01,0,.04-.01,.07-.03,.11-.05,.05-.02,.09-.05,.14-.08,.09-.05,.13-.11,.19-.17,.06-.05,.11-.1,.17-.14,.03-.02,.05-.03,.07-.04,0,0,.02-.01,.03-.02,.02,0,.05-.02,.07-.03,.07-.02,.14-.04,.21-.04,.07,0,.14,0,.19,0,.02,0,.05,0,.07,0,0,0,.02,0,.03,0,.02,0,.03,0,.04,0,.05,0,.11,0,.16,0,.06,0,.12-.02,.18-.03,.03,0,.07-.02,.1-.03,.03,0,.07-.02,.11-.03,.03-.01,.07-.03,.11-.04,.04-.02,.07-.03,.11-.06,.07-.04,.14-.1,.2-.15,.05-.04,.08-.09,.11-.15,0-.01,.01-.02,.02-.03,.01-.02,.02-.04,.03-.07,0-.02,0-.05,0-.07,0-.05-.01-.1-.02-.14,0-.05,0-.1,0-.15,.01-.08,.05-.12,.11-.15,.06-.03,.12-.05,.17-.09,.06-.04,.12-.09,.18-.14,.04-.04,.08-.09,.12-.14,.04-.06,.07-.12,.09-.18,0-.01,.01-.02,.01-.03,0,0,0,0,0-.01,0,0,0-.01,0-.02,0-.01,.01-.02,.02-.04,0-.03,0-.05,.02-.08,.03-.19,.02-.35-.03-.49-.02-.06-.04-.08-.06-.11-.02-.02-.04-.05-.07-.1v-.02c-.06-.06-.23-.16-.31-.18,0,0-.02,0-.03,0,0-.08,.01-.15,.02-.23,.03-.01,.06-.03,.08-.04,.07-.04,.14-.1,.21-.17,.05-.05,.11-.14,.16-.24,.04-.11,.08-.22,.08-.32,0-.04,0-.09,0-.13,0-.02,0-.04,0-.06,0,0,0-.01,0-.02h0s0-.02,0-.03c0,0,0-.02,0-.02,0-.02-.02-.09-.03-.14,0-.02,0-.02-.01-.04,0-.01,0-.02-.01-.03,0-.02-.02-.04-.02-.06-.07-.15-.15-.26-.24-.37-.06-.07-.11-.14-.15-.19-.05-.06-.09-.11-.12-.16,0-.01-.01-.02-.02-.03,0-.01-.01-.02-.02-.03,0-.01,0-.02-.01-.02v-.02s-.01-.01-.01-.02h0s0-.08-.02-.12c0-.04,0-.07,0-.09,0-.01,0-.03,0-.04,0-.01,0-.03,0-.05,0-.22,.01-.47,0-.75,0-.05,0-.1,0-.15,0-.06-.01-.11-.01-.17,0-.04-.02-.08-.02-.12-.02-.12-.05-.24-.09-.37-.07-.23-.15-.45-.25-.66-.04-.1-.11-.2-.17-.31v-.02c-.05-.39-.09-.83-.13-1.31,0-.01,.02-.02,.02-.04,.13-.31,.16-.63,.19-.96,0-.04,0-.07,0-.11,.01-.14,.02-.29,.03-.43,0-.14,.02-.28,.02-.42,0-.07,0-.14,0-.21,0-.07,0-.14,0-.21,0-.03,0-.07,0-.1,0-.02,0-.03,0-.05,0-.02,0-.04,0-.06,0-.07,0-.15,0-.22,0-.15-.02-.3-.04-.44v-.02c-.02-.1-.05-.19-.08-.28-.06-.17-.14-.32-.18-.49,0-.03-.01-.06-.01-.1,0-.01,0-.03,0-.04,0-.03,0-.07-.01-.1,0-.18,.03-.36,.07-.54,.02-.13,.04-.26,.04-.4,0-.13,0-.28,0-.43v-.06h0v-.04s-.02-.08-.02-.11c-.01-.07-.03-.14-.05-.21-.02-.05-.04-.11-.07-.15,0-.01-.01-.02-.01-.03-.05-.08-.14-.13-.21-.18-.05-.03-.09-.06-.11-.11-.08-.14,.03-.28,.07-.41,.03-.09,.04-.17,.06-.25,0-.06,.01-.12,.02-.19,0-.14,0-.27-.02-.41-.02-.15-.06-.31-.12-.46-.04-.13-.06-.13-.12-.25,0,0,0-.01-.01-.02-.04-.07-.17-.19-.25-.24-.01-.12-.02-.24-.03-.35,.08-.07,.18-.18,.21-.27,.07-.19,.09-.28,.12-.43,0-.05,.01-.1,.02-.14,.02-.18,.02-.36,.01-.55,0-.14-.02-.29-.05-.44,0-.05-.02-.11-.03-.16,0-.02-.01-.05-.01-.07-.02-.08-.04-.15-.06-.22-.02-.07-.05-.13-.08-.19-.03-.07-.07-.13-.11-.19,0,0,0,0,0-.01h0v-.03s-.04-.03-.05-.05c-.02-.03-.05-.06-.08-.09-.03-.04-.06-.08-.08-.12-.02-.03-.02-.06-.04-.08,0-.07,0-.14-.01-.2,0-.07,0-.14-.01-.2,.01-.03,.03-.05,.06-.07,.06-.03,.14-.06,.22-.11,.1-.06,.18-.14,.24-.22,.03-.04,.05-.08,.07-.12,0,.02,.04,.05,.08,.1,.04,.04,.09,.08,.14,.13,.05,.05,.11,.09,.17,.14h0s.09,.05,.15,.06c.1,.03,.21,.05,.3,.09,.01,.01,.03,.02,.05,.03,0,0,.01,.01,.01,.02,.01,.01,.03,.03,.03,.04,.06,.08,.08,.19,.1,.29,.02,.08,.03,.15,.06,.21,.03,.06,.07,.13,.11,.2,.05,.07,.11,.14,.17,.18,.03,.02,.06,.04,.09,.05,0,0,.01,0,.02,0,.06,.02,.15,0,.22-.02,.05,0,.09-.01,.12,0,.11,.03,.05,.16,.05,.24,0,.03,0,.05,0,.08,0,.01,0,.03,0,.04v.02h0c0,.05,.02,.09,.03,.12,.03,.08,.07,.14,.12,.2,.03,.04,.06,.07,.1,.1,.03,.03,.08,.06,.12,.09,.07,.04,.09,.04,.17,.07h.02s.12,.01,.2,0c.07,.11,.14,.22,.21,.34-.02,.1-.04,.2-.06,.32,0,.04,0,.08,0,.12,.02,.2,.09,.36,.16,.51,.05,.12,.11,.24,.18,.36,.01,.02,.02,.04,.03,.06,0,.01,.02,.03,.03,.05,.04,.07,.09,.13,.13,.18,.04,.06,.1,.1,.15,.15,.06,.05,.12,.09,.19,.13,.02,.01,.05,.03,.07,.04,.09,.04,.14,.1,.18,.16,.07,.11,.09,.26,.14,.4,0,.04,.02,.07,.03,.11,.08,.19,.15,.38,.23,.56,.02,.04,.04,.09,.06,.13,.02,.04,.04,.09,.06,.13,.02,.04,.04,.08,.07,.12,0,.01,0,.02,.02,.03,0,0,0,0,0,0,0,0,0,.01-.01-.01h0s0,.02,0,.02c.01,.02,.02,.05,.04,.07,.01,.02,.02,.04,.03,.06,0,.02,.02,.04,.02,.05,.01,.03,.03,.06,.05,.09,.05,.08,.1,.16,.16,.24h0c.16,.21,.35,.43,.61,.57,.02,.01,.04,.03,.07,.04h.02s-.01,0,0,0h0s.02,.01,.02,.02c.02,0,.03,.01,.05,.02,.03,.01,.07,.03,.1,.04,.06,.03,.13,.07,.18,.11,.1,.09,.18,.21,.2,.36,.02,.16,.01,.33,.02,.49,0,.12,.01,.24,.04,.36,.01,.06,.04,.12,.06,.17,.02,.05,.05,.11,.08,.16,.04,.05,.08,.1,.13,.15,.05,.05,.11,.1,.17,.15,.07,.05,.15,.11,.23,.15,.07,.04,.13,.07,.2,.1,.11,.04,.29,.06,.38,.14,0,0,.01,0,.02,.02,.08,.09,.08,.22,.1,.33,.01,.08,.02,.16,.03,.24,.02,.11,.04,.22,.06,.33,.02,.11,.06,.22,.09,.33,.02,.05,.03,.1,.05,.14,.01,.04,.03,.09,.05,.13,.04,.09,.08,.18,.13,.28,.05,.09,.1,.18,.17,.26,.18,.24,.38,.47,.59,.67,.22,.21,.45,.39,.69,.55,.09,.06,.19,.12,.28,.17,.1,.05,.19,.1,.28,.15,.01,0,.03,.01,.04,.02,0,0,.02,0,.02,.01h.02c.17,.23,.33,.45,.49,.66,0,.04,.02,.07,.03,.11,.03,.21,.06,.43,.1,.63,.02,.11,.05,.21,.08,.31,.03,.1,.07,.21,.11,.3,.04,.09,.09,.18,.14,.27,0,.02,.02,.04,.03,.05,0,.01,.01,.02,.02,.03,0,0,0,0,0,.01,0,0,.01,.01,.02,.02,.03,.03,.05,.06,.07,.1,.06,.08,.13,.16,.21,.23,.04,.03,.08,.07,.12,.1,.04,.03,.09,.06,.13,.09,.09,.06,.2,.12,.29,.16,.09,.04,.17,.07,.25,.11,.08,.04,.16,.08,.24,.13,.07,.05,.14,.11,.2,.18,.02,.02,.04,.05,.05,.08,.15,.24,.25,.46,.31,.75,0,.02,0,.04,.01,.06,.05,.29,.18,.53,.48,.63l.18,.06c.21,.08,.38,.18,.46,.43,.04,.13,.07,.25,.12,.37,.03,.09,.08,.17,.14,.25,.03,.04,.07,.08,.12,.12,.11,.09,.24,.14,.38,.19,.05,.01,.08,.03,.1,.04,.01,0,.02,.01,.03,.02h0v.02h.02v.02s.04,.04,.05,.06c.02,.03,.04,.07,.08,.11,.01,.01,.02,.03,.04,.04,.01,.01,.03,.02,.04,.04,.05,.05,.12,.1,.19,.14,.07,.04,.15,.07,.23,.1,.16,.06,.33,.08,.46,.12,.06,0,.11,.01,.16,.01,.07,0,.13-.02,.19-.04,.06-.03,.12-.06,.17-.09,.05-.03,.11-.07,.16-.09,.06-.03,.11-.06,.18-.08,.05-.02,.09-.02,.13-.02,.02,0,.04,0,.06,0,.02,0,.04,.01,.07,.01,.09,.02,.18,.07,.26,.13,.09,.05,.17,.09,.26,.13,.01,0,.02,.01,.04,.01,.08,.03,.17,.06,.25,.06,.12,0,.24,0,.36,0,.11-.01,.21-.05,.31-.08,.1-.03,.21-.07,.3-.12,.06-.04,.11-.07,.16-.11,.22-.14,.38-.3,.52-.5,.03-.04,.06-.09,.09-.13,.03-.05,.05-.1,.07-.15,.04-.02,.08-.05,.12-.06,.03,0,.06-.03,.09-.05,.05-.03,.09-.06,.14-.07,.06,0,.11,.06,.17,.05,.03,0,.07,0,.1,0h.03s.06,.04,.09,.06c.05,.03,.11,.07,.18,.11,.04,.02,.08,.03,.12,.05,.21,.05,.41,.04,.6,.03,.15-.01,.3-.04,.45-.07,.05-.01,.09-.02,.13-.03,.08-.02,.16-.05,.23-.08,.14-.06,.28-.13,.41-.23,.02-.02,.04-.04,.07-.05,.08-.06,.16-.09,.25-.11,.14-.02,.3,0,.46,.03,.04,0,.08,0,.13,0,.11,0,.23,0,.34,0,.06,0,.12,0,.17,0,.05,0,.1,0,.16,0,.01,0,.03,0,.04,0h.01s0,0,.02,0h.02s.05,0,.08-.01c.08-.02,.16-.04,.22-.07,.07-.02,.12-.06,.19-.09,.06-.04,.12-.07,.17-.12,.1-.08,.18-.16,.25-.25,.08-.1,.14-.21,.19-.32h0c.13-.3,.19-.6,.19-.89,0-.02,0-.05,0-.07-.02-.32-.08-.61,.14-.87,.11-.13,.24-.26,.35-.4,.17-.2,.32-.41,.36-.69,.02-.13,.01-.31-.02-.47-.02-.09-.05-.19-.07-.28-.03-.08-.06-.15-.09-.21-.06-.11-.19-.24-.21-.36,0,0,0-.02,0-.03-.02-.13,.07-.24,.13-.36,.04-.08,.07-.15,.11-.23,.11-.22,.2-.44,.28-.67,.04-.09,.07-.19,.09-.29,.06-.21,.1-.43,.1-.67,0-.32-.02-.65-.07-.96-.04-.31-.11-.61-.19-.91-.06-.23-.13-.44-.2-.65-.02-.06-.04-.13-.06-.19v-.07c0-.1,0-.29,0-.54,.03-.08,.06-.17,.1-.26,.05-.11,.09-.21,.13-.32,.04-.11,.08-.21,.11-.32,.07-.21,.13-.44,.16-.66,.02-.1,.03-.21,.04-.31,0-.08,0-.17,0-.26,0-.22-.05-.45-.11-.66-.03-.11-.08-.22-.12-.32-.08-.17-.16-.35-.2-.53-.02-.09-.03-.19-.03-.29,0-.03,0-.07,.01-.1,.05-.3,.13-.55,.29-.82,0-.02,.02-.04,.03-.05,.16-.27,.23-.55,.09-.84-.03-.06-.06-.12-.08-.18-.09-.21-.15-.42-.02-.66,.07-.13,.14-.25,.19-.37,.04-.09,.07-.18,.09-.29,0-.06,.01-.12,0-.18,0-.15-.06-.28-.12-.42Zm-25.6,16.57h0Zm-1.04-17.39s-.01,.02-.02,.03c-.02,.02-.04,.04-.07,.05,0,0-.02,.01-.03,.02h-.02s-.01,.01-.02,.01c-.02,0-.02,.01-.02,.02,.03-.04,.06-.08,.08-.13h0s0,0,0,0h0v-.02s.02-.02,.03-.03v-.03s.03,0,.03,0c0,0,.01,0,.02,0,0,0,.01,0,0,.03,0,0,0,.01,0,.02Z"/></clipPath><clipPath id="uuid-a6b28414-4b03-419a-a766-79e510d5eae7"><path class="uuid-ee82db58-7c7b-4adc-9e68-21d82d55206c" d="M31.65,16.68s0-.08,.01-.12c.02-.08,.05-.16,.08-.25,.04-.09,.07-.18,.11-.26,0-.01,0-.02,.01-.04,.02-.08,.03-.16,.04-.24,0-.11,0-.22-.01-.33-.03-.19-.09-.39-.16-.57-.03-.06-.06-.11-.09-.16-.12-.22-.24-.4-.42-.57-.04-.04-.08-.07-.12-.11-.08-.08-.17-.15-.26-.21v-.02c-.07-.2-.18-.38-.27-.57l.02-.08c.01-.06,.02-.11,.02-.17,0-.07,0-.13,0-.2,0-.06,0-.12,0-.18,0-.12,0-.23,0-.35,0-.1,0-.19-.02-.29,0-.03,0-.05-.01-.08,0-.01,0-.03,0-.04,0,0,0-.02,0-.03,0-.02-.01-.05-.02-.07,0-.01,0-.02,0-.03h0v-.02s0-.01,0-.02c-.02-.06-.04-.11-.06-.16-.05-.1-.09-.2-.15-.29-.11-.18-.23-.33-.39-.47-.02-.03-.05-.05-.08-.07-.1-.08-.16-.18-.2-.28-.04-.09-.06-.18-.08-.28-.02-.1-.04-.2-.06-.3-.01-.05-.02-.1-.04-.15-.02-.07-.05-.14-.07-.21-.03-.07-.05-.13-.08-.2-.05-.14-.12-.27-.18-.4-.13-.26-.28-.5-.47-.73-.09-.11-.18-.2-.27-.29-.01-.01-.03-.02-.04-.04,0,0,0,0,0,0h-.01s-.01-.03-.02-.04c-.03-.02-.06-.05-.09-.07-.06-.05-.12-.09-.18-.14h0c-.32-.24-.66-.41-1.01-.54-.03-.01-.06-.03-.09-.04-.15-.05-.29-.1-.43-.16-.24-.26-.48-.52-.73-.77-.04-.09-.09-.18-.13-.27-.15-.29-.33-.58-.66-.8-.08-.06-.17-.1-.27-.15-.1-.04-.21-.08-.32-.11-.12-.04-.25-.07-.37-.09-.11-.01-.21-.04-.3-.04-.08,0-.17,0-.27,0-.04,0-.09,0-.13,0h-.03s-.07-.02-.11-.02h0c-.08-.02-.12-.06-.19-.1-.07-.05-.13-.11-.2-.15-.09-.07-.18-.13-.27-.19-.26-.18-.53-.37-.82-.5-.12-.06-.25-.12-.38-.16-.28-.1-.58-.18-.9-.21-.45-.05-.89-.05-1.31-.03-.42,.02-.84,.07-1.24,.14-.31,.06-.6,.12-.88,.21-.08,.02-.16,.04-.24,.07-.05-.01-.1-.02-.14-.02-.17,.02-.33,.04-.5,.06-.05,0-.11-.01-.16-.02h0s0,0,0,0c0,0,0,0,0,0,0,0-.02,0-.02,0-.02,0-.03,0-.05,0-.03,0-.07,0-.1-.01-.07-.01-.14-.03-.21-.05-.07-.01-.15-.03-.22-.05-.07-.01-.15-.03-.22-.03-.14-.02-.3-.04-.45-.06-.3-.02-.61-.03-.91-.02-.14,0-.27,.02-.42,.04-.11,.01-.23,.03-.35,.06-.29,.05-.59,.16-.86,.28-.14,.06-.28,.14-.4,.22-.21,.13-.44,.3-.67,.4-.12,.05-.26,.13-.38,.15-.04,.01-.09,.02-.13,.03-.41,.05-.74,.08-1.14,.03-.02,0-.05,0-.08,0-.2-.02-.4-.01-.59,.03-.18,.05-.36,.13-.52,.27-.01,.02-.03,.03-.05,.04,0,0,0,0-.01,.01h-.02s-.01,.03-.02,.03c-.03,.03-.06,.06-.1,.09-.06,.05-.12,.1-.18,.15-.06,.04-.13,.08-.19,.13-.13,.08-.27,.14-.46,.17-.19,.04-.36,.07-.54,.12-.13,.04-.26,.09-.39,.17-.07,.04-.14,.09-.21,.15-.08,.07-.15,.14-.21,.22-.06,.08-.12,.16-.16,.24-.14,.23-.19,.2-.4,.31-.03,.02-.07,.04-.1,.06-.08,.06-.15,.11-.22,.19-.08,.07-.14,.14-.21,.22-.03,.04-.07,.08-.1,.11-.04,.04-.06,.08-.1,.12-.06,.07-.11,.14-.17,.2-.04,.05-.08,.1-.11,.14-.17,.27-.13,.55-.3,.86-.13,.22-.37,.32-.62,.42-.07,.02-.12,.05-.18,.07-.06,.03-.12,.05-.17,.08-.02,0-.03,.02-.05,.02-.1,.06-.19,.13-.29,.21-.03,.03-.06,.06-.09,.09-.03,.03-.06,.06-.09,.09-.03,.04-.06,.07-.09,.11-.01,.02-.03,.04-.04,.05-.01,.02-.03,.03-.04,.05-.02,.03-.04,.06-.06,.09,0,0,0,.01-.01,.02h0v.03h-.02s-.02,.04-.03,.06c-.03,.07-.07,.13-.1,.2-.01,.03-.03,.07-.04,.1-.01,.03-.03,.06-.04,.1-.03,.07-.05,.13-.07,.2,0,.02-.01,.04-.02,.06,0,.02-.01,.04-.01,.06,0,.04-.02,.07-.02,.11-.02,.08-.03,.15-.05,.23-.02,.08-.03,.16-.05,.23-.01,.14-.04,.28-.06,.43,0,.04-.01,.1-.02,.14-.05,.22-.17,.4-.29,.57-.04,.02-.08,.04-.12,.06-.04,.03-.08,.05-.12,.08-.2,.14-.34,.31-.48,.48-.1,.13-.21,.27-.29,.42-.03,.04-.05,.1-.07,.14-.04,.1-.07,.19-.08,.29,0,.03,0,.05,0,.08,0,.02,0,.05,0,.07,0,.05,.02,.09,.03,.13,.03,.08,.05,.17,.09,.25,.02,.03,.03,.06,.04,.09,.03,.06,.04,.11,.05,.17-.01,.06-.03,.11-.04,.17-.01,.07-.02,.13-.02,.19,0,0,0,.01,0,.02-.03,.08-.06,.17-.09,.25-.01,.05-.03,.09-.04,.13-.02,.06-.03,.12-.05,.18-.02,.06-.04,.1-.06,.16-.02,.06-.05,.11-.07,.16-.02,.06-.04,.12-.07,.18-.02,.06-.04,.13-.05,.2-.02,.07-.03,.14-.03,.21-.01,.14-.01,.26-.01,.39,0,.06,0,.12,.01,.18,0,.06,.02,.11,.03,.17,.01,.06,.02,.12,.04,.19,.02,.06,.04,.12,.06,.18,0,0,0,0,0,0,.11,.31,.26,.6,.41,.86,.01,.03,.03,.05,.04,.08,.04,.07,.08,.15,.12,.23,.03,.08,.06,.16,.09,.24,.04,.16,.04,.33-.04,.5-.04,.09-.08,.18-.12,.27-.02,.05-.04,.09-.06,.14-.02,.05-.04,.09-.05,.14-.02,.04-.03,.07-.04,.11,0,.02-.01,.04-.02,.06,0,.02,0,.04-.01,.06-.01,.08-.02,.16-.03,.24,0,.02,0,.04,0,.06,0,.02,0,.03,0,.05,0,.03,0,.07,0,.11,0,.07,.02,.15,.03,.22,.01,.08,.05,.15,.08,.23,.03,.08,.07,.16,.12,.25,.05,.09,.11,.18,.17,.27,.05,.08,.11,.15,.16,.2,.1,.1,.26,.22,.32,.35,0,0,0,.02,0,.03,.05,.14-.01,.29-.05,.43-.03,.09-.04,.19-.06,.28-.05,.27-.07,.55-.06,.82,0,.12,.01,.23,.02,.35,.02,.25,.07,.49,.12,.73,.04,.17,.08,.32,.1,.47,0,.04,.01,.08,.02,.11,0,.02,0,.04,0,.06,0,.02,0,.04,0,.06,0,.02,0,.04,0,.05,0,0,0,.02,0,.03,0,.01,0,.03,0,.04,0,.05,0,.1,0,.14,0,.1,.01,.19,.02,.28,0,.1,.02,.19,.04,.28,0,.05,.01,.09,.02,.14,.02,.04,.03,.09,.04,.13,.03,.09,.05,.17,.08,.26,.05,.13,.1,.25,.15,.37,.06,.12,.11,.23,.17,.35,.04,.07,.07,.13,.11,.2,.06,.11,.1,.21,.12,.31,.05,.21,.03,.42,0,.67-.07,.51-.09,1.04-.06,1.54,0,.12,.02,.23,.03,.35,0,.09,.03,.19,.04,.28,.03,.23,.11,.5,.21,.73,.05,.12,.11,.24,.18,.35,.11,.18,.22,.37,.3,.58,.04,.1,.07,.21,.08,.32,0,.04,0,.07,0,.11,0,.35-.04,.64-.14,.98,0,.02-.01,.05-.02,.07-.11,.34-.12,.66,.1,.97,.05,.06,.09,.12,.13,.18,.15,.22,.25,.44,.18,.74-.02,.08-.04,.16-.06,.23-.02,.07-.04,.14-.06,.21-.03,.11-.04,.22-.03,.33,0,.06,.01,.13,.03,.2,.04,.16,.12,.3,.2,.44,.11,.19,.07,.22,.03,.41,0,.03,0,.06-.01,.1-.01,.15,.03,.32,.07,.48,.04,.17,.09,.33,.13,.48,.01,.06,.03,.11,.05,.15,.13,.26,.4,.36,.56,.63,.12,.19,.06,.42-.02,.64-.04,.11-.08,.2-.11,.3,0,.01,0,.03-.01,.04-.01,.04-.02,.08-.03,.13,0,.04-.02,.09-.02,.14-.01,.06,0,.14,0,.23,0,.04,0,.08,.01,.12,0,.03,.02,.07,.02,.11,.03,.12,.06,.26,.1,.35,.04,.11,.08,.21,.13,.31,.03,.07,.07,.13,.1,.18,.13,.25,.27,.46,.42,.66,.03,.03,.05,.06,.07,.1,0,.01,.01,.02,.02,.04,0,.02,.02,.04,.03,.06,0,.09,0,.18,.01,.27-.05,.12-.11,.24-.16,.37-.03,.08-.05,.17-.07,.26,0,.05-.01,.09-.01,.14,0,.05,0,.09,.02,.16,.01,.05,.03,.11,.05,.16,.02,.04,.04,.08,.06,.12,0,0,0,.01,.01,.02h0s0,.02,.01,.03l.02,.04s.03,.05,.05,.07c.04,.05,.07,.08,.12,.12,.04,.04,.08,.07,.14,.1,.05,.03,.1,.06,.15,.08,.19,.09,.41,.14,.64,.16,.05,0,.09,0,.14,0,0,0,.02,0,.03,0,0,0,.01,0,.02,0,0,0,0,0,0,0h.01s.05,0,.06,0c.04,0,.08,0,.11,.02,.03,.02,.07,.04,.1,.07,.04,.03,.07,.06,.1,.07,.03,0,.06,.01,.1,.02,0,0,0,0,.01,0h0s0,0,0,0h.01s.03,.01,.04,.02c.01,0,.03,0,.04,.02,.01,0,.03,.02,.04,.02,.07,.04,.11,.08,.15,.13,.03,.05,.07,.1,.09,.16,.05,.12,.1,.23,.17,.33,.02,.02,.04,.05,.06,.07,.01,.01,.02,.03,.03,.04l.03,.03s.07,.08,.1,.12c.06,.06,.13,.13,.21,.18,.08,.06,.17,.1,.28,.15,.21,.09,.44,.17,.67,.22,.06,.01,.12,.02,.18,.03,.03,0,.06,0,.09,.01,.03,0,.06,0,.1,0,.06,0,.12,0,.18,0,.06,0,.12,0,.19-.02,.23-.04,.44-.14,.63-.27,.11-.07,.21-.14,.32-.2,.2,.03,.41,.05,.63,.06,.04,0,.09,0,.13-.01,.18,.1,.37,.2,.54,.25,.08,.02,.17,.04,.25,.05,.25,.04,.51,.03,.77,0,.08,0,.16-.02,.24-.03,.04,0,.08,0,.12-.02,.03,0,.07-.02,.1-.03,.03-.01,.06-.02,.09-.03,.17-.07,.34-.18,.48-.32,.04-.03,.07-.07,.1-.11,.03-.03,.05-.06,.08-.09,.02-.03,.05-.06,.07-.09,.02-.03,.04-.05,.06-.08,.08-.1,.14-.2,.2-.26,.01-.02,.02-.04,.04-.05,0,0,0-.02,.02-.02,0,0,.01-.01,.01-.02,.02-.03,.02-.01,.03-.01,.01,0,.02,.01,.02,.02,.02,0,.04,0,.07,0,.03,0,.07,0,.1,0,.07,0,.16,0,.25-.01,.06,0,.12,0,.18-.01,.08,0,.16-.02,.24-.03,.16-.03,.3-.07,.43-.13,.14-.07,.26-.15,.36-.25,.05-.05,.09-.11,.13-.17,.04-.06,.07-.12,.11-.19,0-.02,.01-.04,.02-.06,.02-.05,.04-.1,.06-.15,0-.02,.02-.05,.02-.07,0-.01,.01-.02,.01-.04,0,0,0-.01,0-.02t0-.01s.01-.04,.01-.07c0-.02,0-.03,.01-.05,.01-.07,.01-.11,.02-.15,0,0,0-.01,0-.02,0,0,0,0,.01-.02,0-.02,.01-.03,.02-.04,0-.02,.02-.03,.03-.05,.01-.02,.02-.03,.03-.06,.02-.03,.04-.06,.05-.09,.02-.03,.04-.07,.05-.1,.02-.04,.03-.08,.05-.12,.02-.04,.03-.09,.04-.12,.02-.08,.02-.17,.01-.24,0-.04-.01-.08-.02-.12h0c.02-.05,.04-.1,.06-.15,.02-.05,.03-.11,.04-.16,.01-.2,0-.29-.03-.41,0-.03-.04-.05-.07-.08,.03-.03,.06-.05,.09-.08,.1-.09,.17-.21,.16-.39,0-.04,0-.09-.02-.14-.01-.04-.02-.08-.04-.12-.03-.08-.07-.15-.12-.21-.04-.05-.07-.08-.1-.11-.03-.03-.06-.05-.1-.07-.07-.04-.14-.07-.24-.11-.02,0-.04,0-.06-.01,.02-.04,.03-.08,.05-.11,.05-.08,.11-.16,.16-.19,.03-.02,.06-.04,.09-.06,0,0,.01-.01,.02-.02,0,0,0-.01,.01-.03,0-.02,.02-.04,.02-.06,0-.02,0-.04,0-.06,0-.04,0-.09-.02-.13-.02-.06-.06-.12-.11-.19-.08-.11-.2-.22-.31-.34-.09-.1-.18-.21-.24-.3-.02-.02-.03-.04-.04-.06-.02-.12-.05-.24-.07-.36,.01-.04,.03-.07,.05-.11,.06-.09,.1-.17,.14-.25,.04-.08,.08-.17,.09-.24,.03-.14,.02-.28-.05-.43-.13-.29-.32-.53-.57-.76,0,0-.02-.01-.03-.02-.1-.45-.19-.9-.3-1.36,.02-.02,.04-.05,.06-.07,.04-.06,.07-.11,.1-.17,.09-.17,.14-.35,.17-.52,.02-.11,.03-.22,.04-.32,.01-.29,.01-.59-.02-.89,0-.11-.02-.21-.04-.32,0-.04-.01-.08-.02-.12-.04-.22-.1-.43-.18-.63-.04-.11-.09-.22-.13-.32-.06-.14-.12-.29-.2-.42-.03-.06-.07-.11-.11-.17-.04-.06-.1-.11-.16-.15,.03-.03,.05-.06,.07-.1,.02,0,.05,0,.07,.01,.13,0,.19,.02,.31,0,.07,0,.13-.03,.2-.05,.05-.02,.09-.03,.14-.05,.04-.02,.09-.04,.13-.06,.08-.04,.15-.06,.22-.09,.16-.05,.31-.07,.52,.01,.03,.02,.07,.03,.11,.04,.08,.03,.15,.06,.23,.09,.08,.03,.16,.05,.24,.07,.08,.01,.16,.02,.24,.03,0,0,.01,0,.02,0h.01s0,0,.01,0h0s.02,0,.03,0c.02,0,.04,0,.06,0,.04,0,.07,0,.12-.01,.03,0,.06-.02,.09-.02,.05-.01,.11-.03,.15-.05,.05-.02,.09-.04,.14-.05,.04-.02,.09-.04,.13-.06h.01s.02-.02,.03-.03c0,0,.02-.01,.03-.02,0,0,0,0,0,0h0s.02-.01,.02-.02c.01,0,.03-.01,.04-.02,.02-.01,.03-.02,.05-.03,.01,0,.03-.02,.05-.03,.03-.02,.06-.03,.09-.05,.03-.01,.06-.03,.09-.05,.03-.01,.06-.03,.09-.06,.02-.01,.03-.02,.05-.04l.02-.02h.02v-.02s.06-.06,.08-.09c.01-.02,.02-.04,.03-.05,.01-.02,.02-.04,.04-.07,.02-.04,.04-.09,.06-.14,.03-.07,.06-.13,.09-.18,.07,0,.13,0,.2-.01,0,0,.02,.01,.03,.02,.07,.08,.14,.18,.21,.24,.18,.14,.38,.15,.56,.12,.07-.02,.13-.03,.19-.06,.2-.08,.28-.25,.38-.4,.04-.05,.08-.1,.13-.14h.02s.04-.03,.06-.04c.12-.04,.29,.02,.44,.03,.08,0,.17,0,.26,.01,.08,0,.16,0,.24,0,.08,0,.15,0,.22,0,.03,0,.06,0,.08-.01,.01,0,.03,0,.04,0,.01,0,.02,0,.03,0,0,0,.02,0,.03-.01h.01s.01,0,.02-.01c.04-.01,.08-.03,.13-.05,.08-.03,.15-.08,.22-.12,.02-.02,.05-.03,.07-.05,.14-.1,.22-.15,.33-.27,.02-.02,.03-.03,.05-.05,.02-.02,.05-.03,.07-.05,.02-.02,.05-.04,.07-.05,.03-.02,.06-.04,.08-.06,.06-.04,.11-.07,.16-.11,.11-.08,.2-.16,.29-.25,.02-.02,.07-.06,.11-.11,.02-.03,.05-.05,.08-.08,0,0,0,0,.01-.01h0s.01-.02,.02-.03c.02-.02,.03-.04,.04-.05,.03-.04,.04-.08,.05-.11,0-.02,0-.03,0-.05,.04-.03,.08-.05,.12-.08,.03-.02,.06-.04,.1-.06,.08,.03,.17,.03,.25,.04,.1,0,.2-.02,.28-.04,.05,0,.1-.02,.13-.03,.29-.06,.57-.14,.83-.24,.08-.05,.15-.09,.22-.13,.25-.13,.37-.36,.45-.61,.03-.08,.06-.17,.08-.25,0-.02,.01-.03,.02-.05,.02-.06,.04-.11,.07-.16,.03-.05,.06-.1,.1-.14,.03-.03,.06-.07,.1-.1,.03-.03,.08-.05,.12-.08,.02-.01,.04-.02,.06-.03h.03s.01-.01,.02-.01h0s0,0,0,0h.01c.05-.01,.11-.02,.16-.03,0,0,.01,0,.03,0,.06,0,.13-.02,.19-.03,.07-.02,.14-.04,.2-.07,.13-.06,.25-.14,.32-.26,.02-.04,.04-.07,.05-.12,.01-.05,.02-.1,0-.16,0-.06-.03-.12-.05-.17,.09-.08,.17-.15,.26-.23,.04,0,.08,0,.12,0,.04,0,.07,0,.1-.02,.03-.01,.05-.02,.07-.03,.08-.04,.15-.1,.21-.17,.07-.09,.14-.21,.14-.34-.01-.07-.02-.13-.03-.19,0-.02-.01-.04-.02-.06,.09-.06,.18-.11,.29-.16,.41-.18,.81-.38,1.14-.68,.07-.07,.15-.16,.22-.24,.06-.07,.1-.14,.15-.21,.05-.09,.1-.19,.14-.29,.04-.1,.07-.2,.1-.3,.02-.1,.05-.22,.06-.33,.03-.18,.03-.37,.09-.54,.03-.08,.06-.17,.11-.25,.02-.03,.04-.05,.05-.08,.1-.12,.19-.22,.29-.3,.05-.05,.1-.09,.16-.14,.03-.02,.05-.05,.09-.07,.03-.02,.06-.05,.09-.08,.02-.01,.03-.03,.05-.04,.13-.1,.22-.23,.28-.36,.02-.07,.04-.14,.05-.21,0-.07,0-.14-.03-.23-.02-.06-.04-.12-.05-.18-.01-.05-.02-.1-.03-.16,0-.05,0-.1,0-.15,.01-.1,.06-.19,.15-.28,.02-.02,.05-.05,.07-.07,.03-.02,.05-.05,.08-.07,.05-.05,.1-.1,.14-.14,.07-.08,.12-.16,.17-.26,.02-.05,.04-.11,.05-.18,.01-.08,.02-.15,0-.23-.01-.08-.03-.15-.04-.23-.03-.1-.03-.15-.02-.2,.02-.05,.05-.09,.09-.18,.01-.03,.02-.06,.03-.09,0-.04,.01-.07,.02-.11,0-.04,0-.08,0-.12,0-.08,0-.17-.03-.25-.02-.08-.04-.16-.06-.23-.02-.07-.04-.13-.05-.19,0-.05-.03-.1-.04-.12-.03-.04-.06-.08-.11-.11-.03-.03-.08-.06-.12-.1-.02-.02-.04-.04-.06-.06-.02-.02-.04-.04-.06-.07-.04-.05-.07-.1-.09-.16,0-.02-.01-.04-.02-.07,0-.02,0-.05,0-.07,0-.02,0-.04,0-.06Zm-18.59,5.44c-.08-.01-.15-.02-.23-.02-.19,0-.38,0-.57,0-.05,0-.1,0-.14,.01,0-.04,.01-.07,.04-.12,.02-.03,.02-.06,.03-.1,.05-.17,.05-.35,.05-.53,0-.13,0-.27-.02-.41,0-.04-.01-.09-.02-.13-.01-.08-.03-.15-.06-.23-.05-.14-.11-.27-.21-.4-.01-.02-.03-.04-.05-.07-.06-.08-.08-.16-.08-.25,0-.14,.07-.28,.11-.43,.01-.04,.02-.07,.03-.11,.02-.11,.05-.22,.07-.32,.01-.11,.03-.21,.04-.31,.02-.2,.04-.4,.03-.6,0-.05,0-.09,0-.14v-.12c-.02-.1-.04-.21-.08-.33h0c-.09-.3-.16-.26-.2-.38-.01-.03-.01-.06-.02-.1,0-.03,0-.06,.01-.12,0-.02,.01-.05,.01-.08,0-.05,0-.08,0-.12,0-.04,0-.08,0-.11,0-.07,0-.14,.02-.22,.01-.07,.04-.14,.06-.2,.02-.06,.05-.13,.09-.2,.04-.08,.08-.15,.14-.19,.06-.05,.13-.08,.19-.09,.03,0,.05,0,.07,0,.02,0,.07-.02,.1-.04,.07-.03,.13-.06,.19-.1,.12-.08,.23-.18,.31-.3,.08-.11,.13-.27,.17-.42,.02-.08,.02-.14,.03-.2,0-.06,.04-.12,.08-.17,.07-.11,.13-.28,.2-.36,0,0,0-.01,.01-.02,.04-.04,.08-.06,.14-.08,.06-.02,.12-.03,.18-.06,.08-.03,.16-.07,.24-.1,.07-.02,.14-.06,.21-.07,.03,0,.07-.02,.1-.02,.03,0,.06,0,.09,0,.04,0,.07,0,.1,.02,.01,0,.03,0,.05,.01,.02,0,.02,0,.04,.02,.04,.01,.09,.03,.15,.04,.03,0,.06,.01,.1,.01,.03,0,.05,0,.08,0,.11,.01,.23,.02,.37,.01,.03,0,.07,0,.11-.02,.03,0,.06,0,.08-.01,.05,0,.1-.02,.14-.02,.13-.02,.22-.03,.34-.02,.06,0,.12,.01,.19,.02,.08,.01,.16,.03,.24,.04,.16,.03,.34,.05,.52,.05,.09,0,.18,0,.26-.02,.08-.01,.16-.03,.23-.04,.05-.01,.11-.01,.16,0,.06,0,.11,.02,.18,.03,.12,.02,.23,.06,.34,.09,.07,.02,.13,.03,.2,.05,.09,.03,.17,.07,.24,.12,.07,.1,.13,.22,.23,.32,.02,.02,.05,.04,.08,.06,.02,.05,.05,.09,.07,.14,.08,.21,.17,.42,.22,.62,.06,.2,.08,.4,.11,.61,.02,.09,.03,.19,.06,.29,.02,.08,.04,.16,.07,.24,.06,.2,.17,.41,.32,.59,.07,.09,.15,.17,.23,.25,.1,.1,.21,.21,.27,.34h0s-.02,.09-.03,.14c-.03,.19-.05,.38-.07,.57-.11,.18-.24,.32-.41,.5-.02,.02-.03,.03-.05,.05-.22,.2-.35,.34-.36,.62,0,.06,0,.11-.02,.17-.03,.21-.13,.39-.36,.48-.13,.04-.24,.07-.35,.12-.04,.02-.08,.04-.12,.06-.04,.01-.07,.04-.1,.06-.04,.03-.08,.06-.11,.09-.08,.09-.13,.2-.19,.32-.1,.15-.13,.12-.29,.15-.03,0-.05,.01-.08,.02-.26,.09-.54,.32-.76,.44-.05,.02-.08,.05-.12,.07-.09,.08-.15,.18-.22,.28-.06,.1-.13,.2-.26,.28-.17,.12-.42,.08-.62,0-.1-.04-.2-.09-.28-.13-.01,0-.02-.01-.04-.02-.08-.03-.16-.06-.24-.08-.11-.03-.21-.05-.31-.08-.04,0-.09-.02-.13-.02-.05,0-.09-.01-.14-.02-.11-.02-.23-.03-.36-.03-.08,0-.16,.01-.23,.03-.16,.03-.31,.07-.44,.14-.13,.06-.23,.13-.32,.2-.04,.04-.08,.07-.12,.1l-.03,.02h0Zm10.36,7.27h0Z"/></clipPath><clipPath id="uuid-6f2bae46-fa6a-4ad6-a3aa-5d9afaed4cf2"><path class="uuid-ee82db58-7c7b-4adc-9e68-21d82d55206c" d="M138.28,15.16c.59-1,.4-2.21-.52-2.96-.04-.21-.14-.42-.21-.62,.14-.49,.15-1.04,.11-1.55,0,0,0,0,0-.01-.07-.57-.53-.93-.77-1.4-.11-.98-.35-1.98-1.02-2.73,0,0,0,0,0,0h0c-.09-.1-.18-.19-.28-.27h0c-2.47-1.06-1.93-3.34-4.56-3.49-1.85-2.21-4.68-1.73-7.2-1.67,0,0,0,0,0,0-1.83-.76-3.67-.45-5.38,.39-.87,.17-1.82-.46-2.58,.15h-.02c-.59,.63-1.52,.34-2.19,.79-.59,.66-1.41,.94-1.97,1.64-.34,1.45-1.56,.95-2.28,2-.39,.56-.55,1.22-.7,1.88-.34,.8-1.49,.96-1.67,1.9,.43,1.88-1.39,2.56-.21,4.66,.67,1.03-.88,1.92-.22,3,.13,.5,.82,.81,.48,1.35-.48,1.79-.26,3.83,.36,5.56-.33,1.69-.41,3.31,.3,4.93,.07,.75-.66,1.41-.27,2.13,.56,.6-.05,1.26,0,1.94,.03,.31,.32,.57,.15,.88-.13,.73,.13,1.4,.61,1.93,.17,.37-.19,.75-.29,1.09-.23,.82,.27,1.67,.63,2.36,.12,.45-.39,.78-.31,1.25,.07,.66,.79,1.01,1.36,1.04h.01c.2-.02,.28,.21,.46,.24,0,0,.01,0,.02,0,0,0,0,0,0,0h0c.38,.14,.34,.6,.56,.87,.62,.92,2.03,1.24,2.95,.58,.24,.05,.5,.13,.76,.13,1.03,.8,2.53,.59,3.25-.5,.02-.03,.05-.04,.06-.01,.82,.12,1.83,0,2.1-.93,.08-.46,.57-.77,.47-1.27,.13-.23,.24-.61,.07-.8,.56-.3,.26-1.14-.28-1.28,1.02-.87-.28-.99-.23-1.97,.58-.59,.39-1.33-.18-1.86-.05-.46-.1-.93-.16-1.39,.85-1.14,.69-3.05-.09-4.19,.03-.03,.06-.06,.08-.09,.37,.13,.74-.03,1.1-.13,.46-.13,.87,.37,1.34,.38,0,0,0,0,.01,0,0,0,.04,0,.04,0,.24,.03,.49-.06,.72-.13h0s.05-.02,.08-.04c0,0,0,0,0,0,.17-.1,.37-.15,.54-.27h0c.19-.1,.25-.36,.37-.52,.07,0,.14,0,.21,.01,.46,.85,1.13,.37,1.62-.09,.41,.03,.88,.21,1.31,.16,0,0,.02,0,.03-.01,0,0,0,0,.01,0h0c.68-.23,1.27-.69,1.83-1.11h0c.08-.06,.13-.14,.14-.23,.08-.04,.16-.08,.24-.11,.77,.14,1.94,0,2.29-.8,.13-.31,.29-.7,.66-.75,.44,0,1.26-.11,1.03-.75,.09-.07,.19-.13,.28-.2,.41,.11,.8-.34,.67-.74,1.82-.46,2.07-1.27,2.67-2.84,.35-.41,1.02-.53,1.14-1.11-.27-.99,.39-.95,.73-1.67,.08-.2-.03-.49,.01-.67,.27-.32,.19-.8,.12-1.18-.06-.33-.51-.48-.43-.87Zm-19.25,3.57c-.31-.07-.64-.11-.96-.11,.41-.74,.18-1.55-.08-2.27,.29-.82,.76-1.96,.28-2.77,0-.08-.01-.12,.02-.22,.16-1.77,1.28-.61,1.74-2.3,.29-.6,1.13-.7,1.69-.46,.92,.02,1.82,.29,2.74,.28,2.06,.31,.98,2.89,2.25,4.04,.02,.86-.86,1.11-1.11,1.8-.04,.27-.14,.53-.45,.61-.4,.07-.77,.16-.95,.56-.12,.14-.15,.11-.3,.12-.64,.13-1.11,.51-1.56,.95-1.08,.04-2.14-1.23-3.29-.23h0Zm9.68,8.37h0Z"/></clipPath><clipPath id="uuid-7d729612-473e-45c6-b694-a527f9825b06"><path class="uuid-ee82db58-7c7b-4adc-9e68-21d82d55206c" d="M207.9,19.11c.71-.94,.67-2.2-.17-3.06-.02-.22-.09-.44-.14-.66,.2-.48,.28-1.04,.3-1.56,0,0,0,0,0-.01,0-.58-.43-1-.61-1.51,0-1-.12-2.05-.72-2.89,0,0,0,0,0,0h0c-.08-.11-.16-.21-.25-.31h0c-2.38-1.37-1.56-3.62-4.21-4.08-1.62-2.45-4.54-2.31-7.1-2.54,0,0,0,0,0,0-1.76-.98-3.66-.89-5.5-.23-.91,.07-1.79-.68-2.63-.15h-.02s0,0,0,0c-.68,.56-1.58,.15-2.31,.53-.68,.6-1.54,.78-2.19,1.43-.51,1.43-1.69,.78-2.55,1.76-.46,.52-.7,1.17-.93,1.83-.44,.77-1.62,.8-1.92,1.73,.21,1.96-1.71,2.43-.76,4.69,.56,1.13-1.12,1.84-.57,3.01,.07,.52,.73,.92,.33,1.43-.69,1.76-.71,3.85-.29,5.67-.54,1.68-.8,3.31-.28,5.03-.02,.77-.84,1.35-.53,2.13,.5,.68-.2,1.28-.24,1.96,0,.32,.26,.62,.05,.91-.22,.72-.03,1.43,.39,2.03,.13,.39-.28,.73-.42,1.07-.33,.8,.08,1.72,.36,2.46,.07,.47-.49,.74-.47,1.23-.01,.68,.68,1.12,1.26,1.22h.01c.21,0,.26,.24,.43,.3,0,0,.01,0,.02,0,0,0,0,0,0,0h0c.37,.18,.27,.65,.47,.95,.52,1.01,1.91,1.5,2.92,.93,.24,.08,.49,.19,.76,.22,.95,.93,2.5,.89,3.35-.13,.03-.03,.06-.04,.06,0,.82,.22,1.86,.21,2.24-.69,.14-.45,.67-.71,.62-1.23,.16-.21,.32-.59,.17-.8,.6-.24,.4-1.12-.14-1.33,1.14-.77-.17-1.04,0-2.02,.66-.52,.55-1.3,.04-1.91,0-.48,0-.95,0-1.43,1-1.06,1.06-3.01,.4-4.26,.03-.02,.06-.05,.09-.08,.36,.18,.76,.06,1.13,0,.48-.07,.84,.47,1.31,.55h.01s.04,0,.04,0c.24,.06,.51,0,.75-.05h0s.06-.01,.09-.03h0c.18-.08,.4-.11,.57-.21h0c.2-.08,.29-.34,.44-.48,.07,.01,.14,.02,.22,.04,.37,.91,1.1,.51,1.65,.1,.41,.08,.86,.32,1.31,.31,0,0,.02,0,.03,0,0,0,0,0,.01,0h0c.72-.15,1.37-.55,1.99-.91h0c.09-.06,.15-.13,.17-.22,.08-.03,.17-.06,.25-.09,.77,.23,1.97,.23,2.41-.54,.17-.3,.37-.67,.76-.68,.44,.06,1.29,.03,1.13-.63,.1-.06,.21-.11,.31-.17,.41,.16,.85-.25,.77-.67,1.89-.26,2.25-1.05,3.04-2.56,.4-.37,1.1-.42,1.28-.99-.16-1.03,.51-.92,.93-1.61,.11-.19,.03-.5,.09-.68,.31-.29,.29-.79,.26-1.19-.03-.34-.46-.55-.33-.93Zm-19.93,1.35c-.3-.1-.63-.18-.95-.22,.5-.7,.37-1.55,.18-2.31,.39-.8,1-1.9,.6-2.78,0-.08,0-.13,.04-.22,.37-1.78,1.37-.47,2.03-2.13,.37-.57,1.23-.58,1.77-.26,.93,.13,1.81,.51,2.75,.6,2.05,.56,.65,3.04,1.8,4.36-.08,.88-1.01,1.03-1.34,1.69-.08,.27-.2,.53-.53,.57-.41,.02-.8,.07-1.03,.46-.13,.13-.16,.09-.32,.09-.67,.06-1.19,.39-1.69,.78-1.1-.08-2.02-1.5-3.31-.62h0Zm8.83,9.62h0Z"/></clipPath><clipPath id="uuid-8e26d9be-c834-4ed8-92e4-d016ed6bffbf"><path class="uuid-ee82db58-7c7b-4adc-9e68-21d82d55206c" d="M174.18,22.99c.11-.85-.05-1.61-.5-2.34,.26-1.63,.49-3.06-.56-4.53,.61-1.11-.01-2.42-.66-3.34-.2-1.76-.95-3.44-2.6-4.27-.74-.77-.7-2.2-1.96-2.53-1.34-.09-1.66-1.66-2.81-2.21-1.25-.77-2.73-.86-4.15-.93-1.26-.55-2.57-1.41-4.02-.98-1.29,.83-2.88-.04-4.13,.69-.58,.46-1.34-.14-2,.07-.74,.39-1.55,.34-2.26,.8-.39,.18-.46,.56-.74,.86-.82,.44-1.89,.44-2.43,1.38-.45,.52-.46,1.22-.95,1.68-.56,.15-1.02,.57-1.41,.99-.54,.49-.76,1.17-1.09,1.78-.67,.64-1.28,1.39-1.6,2.29-.53,1.15-.16,2.46-.67,3.59-.29,.45-.63,.88-.76,1.42-.35,1.03,.67,1.92,.35,2.88-1.39,2.98,.46,5.84,.5,8.78-.29,2.65,1.93,4.4,2.62,6.78,.25,.42,.76,.58,1.08,.94,.36,.38,.38,1,.73,1.39,.21,.35,.7,.54,.99,.77,.19,.28,.49,.59,.82,.75,1.58,.91,1.54,.04,2.99,1.69,.75,.55,1.67,.24,2.51,.25,1.55,.06,2.7,1.25,4.24,1.13,1.98-.6,4.28,.58,6.05-.95,1.14-.66,2.83-.02,3.54-1.52,.13-.36,.39-.64,.78-.68,2.47-.46,3.91-2.66,4.57-4.92,1.57-1.58,2.47-3.43,2.38-5.7,.15-.85,.86-1.43,.7-2.33-.07-.42-.15-.8,.05-1.22,.58-.76,.21-1.64,.4-2.45Zm-21.34,7.38c-.51-.19-.66-.64-.96-1.01-.24-.1-.63-.14-.61-.49,.02-.35,.05-.72-.29-.93-.12-.1-.08-.13-.07-.27-.02-.54-.35-.9-.79-1.18-.16-.21,.06-.5,.14-.72,.2-.67-.15-1.4-.63-1.87,.5-.81,.29-1.78,.18-2.64,.33-.73,.86-1.39,1.03-2.17,.08-2.89,1.62-1.4,1.45-3.99,.49-.57,1.39-.58,2.01-1,.94-.43,1.79-1.52,2.88-1.44,.75,.27,1.3,.83,1.98,1.19,1,.32,1.74,1.11,1.76,2.18,.59,.73,.72,.75,.64,1.76,.06,.37,.47,.55,.37,.95,.07,.61,.37,1.03,.83,1.42,.19,.35-.16,.73-.19,1.09-.08,.71,.15,1.43,.52,2.02,0,.07,0,.14,0,.21-.56,.53-.52,1.35-.5,2.04-.39,.55-.94,1.06-1.03,1.76,.26,2.39-.75,1.07-1.14,2.72-.28,.21-.59,.42-.9,.59-1.35-.33-2.54,.74-3.82,.57-.94-.77-1.66-1.18-2.84-.81Z"/></clipPath><image id="uuid-eefeb9b9-76c3-45b0-bfb9-c1f7822d555f" width="266" height="350" xlink:href="included_images/letters/letter_P.jpg"/></defs><g class="uuid-a9787657-ae34-457b-afd6-a91758ad74a6"><image width="270" height="350" transform="translate(72.67 .79) rotate(2.1) scale(.12)" xlink:href="included_images/letters/letter_H_pink.jpg"/></g><g class="uuid-851963da-5cee-4546-a66c-13dc5e28bec5"><image width="319" height="350" transform="translate(32.5 1.87) scale(.12)" xlink:href="included_images/letters/letter_N_pink.jpg"/></g><g class="uuid-4eccdc29-cce7-4d1c-a670-30a668f0724c"><image width="265" height="350" transform="translate(-2.47 6.29) rotate(-10.22) scale(.12)" xlink:href="included_images/letters/letter_P_pink.jpg"/></g><g id="uuid-445e39cf-332a-468a-b1ab-5bdde6bf70fb"><g class="uuid-274bc860-eada-4b21-9a53-fdbd1d79b9ff"><use transform="translate(105.02 1.36) rotate(-4.41) scale(.12)" xlink:href="#uuid-eefeb9b9-76c3-45b0-bfb9-c1f7822d555f"/></g></g><g id="uuid-46eb17ae-3445-4ba2-8254-5e82b002d55f"><g class="uuid-39cd0197-547e-4de7-b6ca-1b1967d33463"><use transform="translate(175.83 1.23) rotate(2.2) scale(.12)" xlink:href="#uuid-eefeb9b9-76c3-45b0-bfb9-c1f7822d555f"/></g></g><g id="uuid-98c28f05-174d-4de3-b2ec-6f0f09887b41"><g class="uuid-56ed7f51-d0e2-4929-8026-9fa32bae9b90"><image width="305" height="350" transform="translate(138.78 1.81) rotate(.24) scale(.12)" xlink:href="included_images/letters/letter_O.jpg"/></g></g></svg>