<svg id="letters" xmlns="http://www.w3.org/2000/svg" xmlns:xlink="http://www.w3.org/1999/xlink" viewBox="0 0 821 217.89"><defs><style>.cls-1{fill:none;}.cls-2{clip-path:url(#clip-path);}.cls-3{clip-path:url(#clip-path-2);}.cls-4{clip-path:url(#clip-path-3);}.cls-5{clip-path:url(#clip-path-4);}.cls-6{clip-path:url(#clip-path-5);}.cls-7{clip-path:url(#clip-path-6);}.cls-8{clip-path:url(#clip-path-7);}.cls-9{clip-path:url(#clip-path-8);}</style><clipPath id="clip-path"><path class="cls-1" d="M819.71,72.8c-.8-1.15,0-.86.42-1.61-.55-1.49.75-3.13-.84-4.25-1.25-1.71,2.79-3.23,1.42-5.57a6.9,6.9,0,0,0-2.35-2.8,5.47,5.47,0,0,0-6.1-3.89c-3.36-1.92-7-4-11-3.1-4.08,1.11-6.47-4.25-11-1-6-2.16-11.86-3.39-18.24-2-6.46-2.25-8.26-3.13-15.23-1.73-1.62-.19-2.8-1.24-4.28-1.67s-3,.83-4.48,0c-2-1.51-3.71-.35-5.68-.61a7.11,7.11,0,0,0-5.55,1.4c-5.1-1-7.82-2-11.27,3-4.29.52-.51,3.77-1.5,6.1-3.93,1.73-1.64,5.25-.55,7.85-.85,1-1.82,2.25-1.14,3.63-3.41,3.58,1.56,10.85,6,8.37.43.08.87.12,1.3.17a1.38,1.38,0,0,0,2.56.26c2.36-.06,4.38,1.23,6.71,1.34,2.72-.61,5.89.82,8.23,1.79,1.64.83,3.94.18,4.51,2.44.13,2.59-2.26,4.84-.48,7.62.21.68.82,1.19.94,1.88-1.23,3.26-3.35,6.38-2.8,10.14,2.21,10.61-3.5,9.9-1.52,20.46-.22,2.14-2.51,3.42-2,5.64a3.17,3.17,0,0,1-.16,2.74,4.4,4.4,0,0,0-1.2,3.9c.12.53,0,.71-.3,1.19a8.54,8.54,0,0,0-.28,3.62c.2,1,1.41,1.83.92,3a7.46,7.46,0,0,0-.93,9.55c.28,1.24-1.47,2.8-.06,3.81a10.38,10.38,0,0,0,6.79,4c1.62-.13,1.88,1.71,2.91,2.47a3.1,3.1,0,0,0,2.43,0c2.56-.72,3.82,3,6.54,2.31.9-.16,1.81-1.18,2.55-.17.86.27,1.66-.72,2.54-.66,1.49.21,2.55-.58,3.65-1.45,2.37-.22,5.29.41,6.87-2,3.13-4.12,0-5.32,1.75-7.65,1.12-2.4.69-5,.37-7.44,1-2.49,2.25-5,2-7.78-2.78-7.83,2.56-6.82.14-12.68A1.89,1.89,0,0,1,782,121c2.89-4.74,2.36-10.3,1.16-15.46.28-2.89,2.43-5.32,2.53-8.31.4-2.13-1-4.26-.25-6.34S789,87.5,787.7,85c-.47-1.86,1.94-.68,2.9-1.14.59.11,2-1.48,1.79-.59a5,5,0,0,0,5.81.25c1.25-.25,2.18,1,3.29,1.39a8.67,8.67,0,0,0,7.45-.54,6.22,6.22,0,0,0,.85.07c1.5,2.44,5.24.75,5.89-1.59.27-1.57,2.19-2.18,3-3.39-.27-2.78-2.4-2.11.77-4.79A2,2,0,0,0,819.71,72.8Z"/></clipPath><clipPath id="clip-path-2"><path  stroke="blue" fill="purple"  stroke-width="20" class="cls-1" d="M36.93,131.68c-1.37-6.62-2.11-4.38-.14-11.1-2.85-7.48-.5-5-.3-12-.63-4.77-1.9-8.71-1.48-13.81,1.26-3.87-.45-7.48-.9-11.25,0-2.12,1.74-3.79.82-5.91a3.69,3.69,0,0,1-.49-2.85,6.16,6.16,0,0,0,0-4.91,7.83,7.83,0,0,0,.28-2.74,4,4,0,0,0-.89-3c.06-.85,0-1.75,0-2.56,0,0,0,0,0,0,.68-1.59.24-3.43-.11-5v0a0,0,0,0,0,0,0v0c-.15-.57-.15-1.49-.53-1.86a10.61,10.61,0,0,0-1.09-2.71c.71-1.86-1.57-1.83-2.59-2.59-1.15-1.75-3.88-3.09-5.51-1.18a.84.84,0,0,1-.44-.1h0a4.16,4.16,0,0,0-.52-.25c.24-2-2-1.89-3.19-1.11-.83-.12-1.58-.9-2.5-1h0c-1.18-.28-4.31.74-4.82,1.94-1.24.34-2.44,0-3.68.23C6,46.1,4.71,49.78,2.1,50.49h0a1.07,1.07,0,0,0,.25,1.79A1.34,1.34,0,0,0,2,53,1.17,1.17,0,0,0,1.8,55a4.52,4.52,0,0,0,.1.75c-1.2,2.2-2.13,5.09-1,7.52.44,1.93-.67,4-.74,6,0,0,0,0,0,0h0a11.2,11.2,0,0,0,0,3c.61,3,2.07,5.52.37,8.43a6,6,0,0,0,1.88,5.26c-2.86,11.43.44,11.18.61,21.06-1.58,4.85,1.6,9.7-.2,14.43-1.41,3.47,1.15,3.31-1.27,8-.18.81.32,1.75.3,2.47-.49,1.15-.16,2.66,0,3.83.33,1.56,2.27,2.62,1,4.38h0l0,0a6.4,6.4,0,0,0-.36,5.44s0,0,0,.06a5,5,0,0,0,1.74,2.28,10,10,0,0,0,.51,1.26,1.71,1.71,0,0,0-.4.72,7.13,7.13,0,0,0,.7,2.3c1.42,1.84,3.9-.64,5.43.76,1.58,1.95,3.93,0,5.76.39a.86.86,0,0,0,1.11-.28c.76.21,1.73,0,2.18.82h0c.5.71,1.46.32,2.11.72l.05,0h.06a16.16,16.16,0,0,0,3.87,0c.53.08,3.7-1.77,2.34-1.56,1-.19,2.22,0,3.08-.17h.06c1.29.22,1.54-1.12,2-1.92,1.61,1.54,3.16-1.21,1.94-2.6a3.68,3.68,0,0,0,.11-1.08c1.8-1.91,1.91-5.15,1-7.52C35.93,137.12,37.46,134.43,36.93,131.68Zm-2.64,18.38Zm0,0Z"/></clipPath><clipPath id="clip-path-3"><path class="cls-1" d="M636.58,141.85a25.77,25.77,0,0,0-1.11-3.35,3.33,3.33,0,0,1-.12-.92c.24-.19.13-.53.06-.78a4.37,4.37,0,0,0,0-2.38c-.56-2.26-2.78-3.68-5.13-4-1.47-.28-2.69.84-4,1.05-6.59-.32-28.68,1.72-31-4.25-.65-.73-.76-2-1.59-2.42a9.38,9.38,0,0,0-.46-2.69c1.85-1.68,3.53-4.15,6.32-4a10,10,0,0,0,5.51-.79c1.81-.23,3.71.23,5.39-.76.69-.38,1.25,0,1.93.17a4.63,4.63,0,0,0,4-.9c2.28,0,2.21-2.24,2.21-4,1.23-1.79.66-4.65.27-6.68a9.18,9.18,0,0,0-.62-6.6c-.53-1.37-2.07-1-3.19-1.45-2.2-1.78-5.08-.62-7.45-1.44C605,94.3,601.84,94.24,599,93.5c-1-1.32-2.57-2.22-3.72-3.38-1-1.29-1.08-3.11-1.95-4.49.22-3.67-.63-9.63,3.22-11.19,10.67-2.75,22.83,2.89,33.44-.28,2.7.24,6.75-1.71,5.74-5a6.58,6.58,0,0,0,1.39-5c-1.72-3.87,1.93-8.13-3.07-10.32h0c-.48-1.24-1.55-1.74-2.78-2.21-2.06-.71-5.28-2.47-7.11-2-.74-.24-1.36-1.15-2.13-1.35-3.55-.53-12-3.48-15.43-2.76-10.59-1.9-17.06-.78-26.35,2.24a53.1,53.1,0,0,0-9.68,3.86,11.89,11.89,0,0,0-6.86,4.2c-4.07,2.35-4,9.87-5.62,14.09-1.51,13.12-2.59,16.54-2.24,32.8.42,15.46-.63,29.73,4.9,43,1.1,3,4.36,3.38,6.18,5.6,3.64,1.33,6.8,3.32,10.74,4,9.71,3.2,15.18,4.15,25.63,2.73C615.37,158.57,636.7,158.09,636.58,141.85Z"/></clipPath><clipPath id="clip-path-4"><path class="cls-1" d="M470.61,84.27a37.92,37.92,0,0,1-1.48-4.72c1.48-5.17-2.39-8-3.07-12.76a.06.06,0,0,0,0-.06c-2.08-6.15-5-.18-8.63-11.49a5.75,5.75,0,0,0-3.69-1.86c-1.8-1.2-2.62-3.32-4.26-4.7-4.17-4-10.29-2.2-15.15-3.75-5.43-3.63-11.46,1.32-17-.92-2-1-3.69.79-5.52,1.31-1.82.11-3.94.11-5,1.86-1.62.81-4.68.8-5.56,3.06-.57,4.07-8.63.32-8.48,8.88-1.46,1.35-4,1.78-4.59,4a6.64,6.64,0,0,1-.34,3.13c-3.59,4.61-1.79,6.23-1.55,11.13-2.07,2.48-2.63,5.14-.58,7.87A31.17,31.17,0,0,0,384,98.79c1.4,4.84-2.87,9.59-.37,14.57.52,2.36-2.22,4.09-1.39,6.38,1.25,1.77-.54,3.3-.67,5.08,0,.82.68,1.61.1,2.36a6,6,0,0,0,1,5.26c.31,1-.74,1.9-1.11,2.77-1,2.26.4,4.68.93,6.82a4.88,4.88,0,0,0-.37,1.48c-2.28,2.09-.69,5.14,2.13,5.53h0c.55,0,.7.67,1.18.8h0c.95.49.71,1.69,1.21,2.49a5.82,5.82,0,0,0,7.53,2.57,9.93,9.93,0,0,0,2.19.56,6.12,6.12,0,0,0,8.89-.31c.09-.08.09,0,.11,0,2.19.59,4.93.58,6-1.82.14-.22.23-.55.34-.76.71-.73,1.52-1.62,1.29-2.73a2.11,2.11,0,0,0,.28-1.68c2-.53,1.25-3.39-.51-3.74a2.35,2.35,0,0,1-.1-.6c1.34-1.6,2.36-1.09.82-3.42-1.85-2.78,2.84-3.47-.41-6.93,0-1.1,0-2.28.06-3.49,2.76-2.73,3.36-9,.24-11.64,0-.37,0-.72,0-1.06a1.49,1.49,0,0,0,.87-.56,9.63,9.63,0,0,1,1.73,2.42c-.3,2.28.83,5.16,3.43,5.34l.62,1.08c-2,2.67,1.65,2.66,1.5,4.23-1.36,4.63,4.72,5.23,5.79,8.85-.17.25-.3.49-.44.73h0s0,0,0,0a3.56,3.56,0,0,0,1.6,4.81,4.38,4.38,0,0,1,1.45,1c1.07,1,.61,3.86,2.81,3.45.17.29.28.49.45.74-1.11.89-.54,2.85,1,2.41a2.71,2.71,0,0,0,.12.55c-.57,3.68,1.11,4.51,4.52,4.29.73.9.52,2.22,1.43,3.12,1.17.1,2.47-.75,3.52.25a6.82,6.82,0,0,1,1.4-.93c1.35,0,3.24-.2,4.09-1.35a6.31,6.31,0,0,1,3.17,0c2.5.1,4.21-2.49,6.52-3.17a8.36,8.36,0,0,0,4.25-7c-.27-1.06-1.49-1.67-1.39-2.85,1.55-.72,1.1-2.78-.37-3.33-.08-.13-.19-.26-.29-.39.54-2.2-1-3.92-2.44-5.31-.34-2.09-.51-4.45-2.06-6.06-6.68-4-.65-6-6.55-8.3a6.67,6.67,0,0,1-.74-4.46c.25-1.07,1.79-1,2.23-2,1.91-5.49,4.06-4.69,8.46-6.87,1.74-1.15,1.7-3.52,3.11-4.86,1.35-1.09,4-1.41,3.49-3.68-.26-1.71,2-1.7,2.49-3.1.3-.52.08-1.31.28-1.79a3.63,3.63,0,0,0,0-4.56,1.82,1.82,0,0,1,.38-1.94A4.43,4.43,0,0,0,470.61,84.27Zm-34.12,2.9c-1.79.54-1.17,2.81-3,3.06-1.16,0-2.33,0-3.11,1-.4.45-.67.15-1.18.2a6.12,6.12,0,0,0-3.85,2.37c-3-.19-5.31-4.13-8.85-.57a9.22,9.22,0,0,0-2.35,0c.13-2.74,1.67-5.29.65-8.08,1.09-2.17,2.73-5.17,1.7-7.58a1.68,1.68,0,0,1,.22-.81c.62-4.25,4-1.47,5.12-5.34,4.4-2,2.14-1.62,6.59-.54,1.95.09,3.63,1.39,5.6,1.35.54.49,1.15,1.07,1.78,1.58s.52,1.56,1.27,2.06c.4,2.13-.47,4.29.53,6.33C439.13,84,438.54,86.05,436.49,87.17Z"/></clipPath><clipPath id="clip-path-5"><path class="cls-1" d="M248.62,113.87a5.32,5.32,0,0,0-2.11-2.57,1.11,1.11,0,0,0-.61-.66c.63-1.37.65-3.72-.78-4.54-1.38.6-2.07-.67-3.38-.91,0-.06,0-.14-.07-.21h0a2.85,2.85,0,0,0-1.84-1.28,3.2,3.2,0,0,0-3.5,1.49,18.2,18.2,0,0,0-2.71.66c-1.57-1.44-3.74-.46-4.57,1.31l-1.24.34c-3.5-1.78-6.72.17-8.57,3.17-.88,1-2.88,1.07-3.82,2.31a7,7,0,0,0,1.08,6.27c.52,5-2.48,2.28-3,5.3-.22,1.7-2.24.49-3.23,1.08-.54.24-.62,1.3-1.4.87-.68-.16-1.39.39-2,.59-3.46,4.79-1.8-.83-8.09,1.34-2.93-.46-4-4-6.31-5.56-1.24-1.18-3.13-1.61-4.09-3.08a.47.47,0,0,0-.29-.5c-.81-1.45-.2-3.17-.93-4.6-.61-.92-1.74-1.64-1.48-2.92a4.68,4.68,0,0,0-.39-3.84c-.29-.53-.18-.59-.07-1.1a7.43,7.43,0,0,0-1.59-5.14c-.3-1,.46-1.78.85-2.57,1.08-2.6.61-5.67-.36-8.24a9,9,0,0,0,3.39-2.77c1.89-4,.41-4.28,5.41-5.49,3.17-3.61,1.12-3.17,6.37-2.81,0,0,0,0,0,0s.05,0,.07,0c3.11,0,7.34-2,9.7.86h0c.64,1.81.74,4.33,3.1,4.72h.05c2.75.37,5.09-2.68,7.81-1.2h0c2.2.69,3-2,5.51-.42a2.63,2.63,0,0,0,1.94-.51c1.43-.33,3.45-.13,4.34-1.68l0,0h0v0c.88-2.84,5.36.2,6.6-4.93l0-.06h0v0a1.48,1.48,0,0,0-.55-1.32c.28-1.35,1.15-2.51,1-3.93a0,0,0,0,1,0,0s0,0,0,0h0c-.52-2.43-3.15-3.48-3.29-6-1-6.54-8.08-7.43-11.2-12.25h0l0,0c-2.18-2.5-5.56-.74-8.17-2.23-5.63-4.13-12.45-2.5-18.61-1.44-7.52-2.91-12,3.15-19,2.76-2.21.17-2.64,2.77-4.74,3.22a5.78,5.78,0,0,0-4.18,2.26c-1.69,1.2-3.92,2.17-4.75,4.25,0,0,0,0,0,0-1.25,4.83-7.1,3.79-6.21,12.42C155.48,78.83,150.1,82.37,152,89c1.2,5.08-4.26,7.22-.09,13-2.88,10.49,1.1,13.27,3.64,22.2-.27,5.46,3.19,9.33,6.44,13.17,2.08,7.36,3.61,4.72,7.13,10.4,0,0,0,0,0,0l0,0c.9,1.09,2.6,1,3.39,2.11a8.32,8.32,0,0,0,6.6,2c2.72,1.43,5,4,8.43,3.78h0l.06,0a4.84,4.84,0,0,0,2.48-.62c2.11,1.22,3,2.45,5.58,1.42,3.83,1.74,8.11,2.88,11.63-.24,3.15-.4,5.82,2.36,8.2-1.69,10.29-.51,10.13-3.74,17.73-9.42,3-.44,6.27-2.39,5.8-5.85a3.27,3.27,0,0,0,1.15-2.63c3.3-2.19,3.58-1.17,4.48-5.65.58-1.35,2.46-1.76,2.12-3.6,0-.7.37-.71.79-1.13a3.88,3.88,0,0,0,.63-3.31,0,0,0,0,1,0,0h0C246.16,119.81,250.36,117.12,248.62,113.87ZM238.17,71.52l0,0h0l.1,0Z"/></clipPath><clipPath id="clip-path-6"><path class="cls-1" d="M156.66,70.56c0-.62-.62-.85-1-1.24.22-1.46.61-3.38-1.14-4.23-.17-3-1.22-5.94-4.84-5.88-4.6-2.51-10.09-.46-14.57-2.76,0,0,0,0,0,0-2.06-.66-4.15.51-5.57,1.92-1.39.08-3,.45-3.39,2h0a14.52,14.52,0,0,0-1.28,8h0v0h0c.14.87.32,1.74.44,2.62-.49,4.06-4.46,7.72-2.62,12.08,1.44,2.75-1.68,5-1,7.62.9,1.44,0,2.82-.62,4.16h0v0s0,0,0,0a3.54,3.54,0,0,0,.1,2.16c0,1.64-.88,3.61.15,5.21a0,0,0,0,0,0,0h0s0,0,0,0c1,1.09.41,2.48-.35,3.54,0,0,0,0,0,0h0a4.92,4.92,0,0,0-.41,2.74c-.23.09-.3.36-.42.54v.08c-.8,1.09-.2,2.32.68,3.2a4.51,4.51,0,0,1-.3.58,4.17,4.17,0,0,1-1.19-.71.13.13,0,0,0,.1.11h-.1s0,0,0,0a.41.41,0,0,1,0-.11h0c0-.15,0-.24,0-.28h0c-.3-.21-.61.5-1,.38-.45-1.39.24-2.66-1.93-3a21.27,21.27,0,0,0-.85-2,1.69,1.69,0,0,0,.87-1.39h0a.07.07,0,0,0,0-.06c-.1-1.11-1.4-1.67-1.09-2.9s-.76-1.7-1.81-1.34a.4.4,0,0,0,0-.24,1.11,1.11,0,0,0-.73-2l-.33-.89c1.74-3.26-2.63-5.13-2.86-7.92,0,0,0,0,0,0a12.2,12.2,0,0,0-2.76-7.52c-1.41-1.17-1.3-2.77-1.11-4.43h0s0,0,0,0c.09-2.08-1.74-3.43-3.4-4.28-.66-4.71-1.66-9.76-6-12.68-3.09-3.32-.59-10.8-8-9.69-.82-.44-1.38-1.31-2.3-1.56-1.63-2.8-3.46-1-5.78-1.6a4.09,4.09,0,0,0-3.69-.42c-.52.19-.59.06-1-.13a5.65,5.65,0,0,0-5.16,1.18c-1.15.39-2.19-.67-3.34-.67-2.18-.11-5,1.15-5.39,3.48a3.62,3.62,0,0,0-.7,1.14c-3.11.52-3.7,4.93-3,7.35-2.25,1.77-1.51,4.88-2.44,7.2a17,17,0,0,0-.48,5.82c-1.39,3.59-4.33,5.64-2.09,10-4.07,6.14-2.91,13.19-4.09,20.06-4.7,5.56-1.43,10.76-4.23,16.07-1.69,1.79.06,4.13-1,6.1-1.63,1.85-.68,3.79-1.11,5.73a7.47,7.47,0,0,0,0,3.36h0a2.41,2.41,0,0,0,1,1.68c0,.09.12.16.17.25h0c0-.05,0,0,0,0h0a.08.08,0,0,1,0,0,1.63,1.63,0,0,1,.29.84c-.1,1.38-1.29,2.34-1.55,3.69v0a6,6,0,0,0,1,5s0,0,0,0l0,.05h0a5.71,5.71,0,0,0,1.36,1.19c0,2.8,2.72,4.93,5.3,5.39,2.19.33,4.06-1.41,6.24-.53a11.1,11.1,0,0,0,7,3.26h0s.07,0,.08,0h0l.12,0c.82-.06,1.43-.72,2.18-.94,1.62-.11,3.78,1,4.92-.77-.2-1.69,1.84-1.24,2.37-2.57a2.06,2.06,0,0,0-.67-2.95c.06-.19.12-.39.17-.59a2.59,2.59,0,0,0,1.92-2.29h0c.22-1.26-.86-2.32-1.11-3.44v0c1.23-3.86-.34-7.38.35-11.33,1.6-3.16,2.76-7.07,2.09-10.61,0-1.52,1-2.78,1.06-4.34h0a2.7,2.7,0,0,0-.81-2.44c.64-1.84,1.9-4.27.24-6.07,0-.32.07-.64.11-1,2-1.52,2.15-4.79,1.44-7h0v0h0c-1.29-2.14.24-2.1,1.54-3.16a5.64,5.64,0,0,0,.84,1.17c.35.31.92.39,1.23.75.4,5,2.56,1.6,1.94,4.08v0h0s0,0,0,0a1.84,1.84,0,0,0,1.67,1.9c.12.32.24.66.38,1-1.1,2.11.22,4.51,1.68,6a24.5,24.5,0,0,0,.8,4.25l0,0s0,0,0,0A6.63,6.63,0,0,0,90,119.3h0c2.61,1.54-.75,5.19,2.69,6.77,2.68,1.43-1.29,6.3,5.83,11.52h0c1.53,2.07.41,4.52,1.36,6.77.58,1.84,2.71,2.36,3.5,4,.75,1.35-.15,3.31,1.35,4.21,2.24.9.82,3.84,3.24,4.78h0v0c1.15,2.67,3.25,2.2,5.47,2a4.87,4.87,0,0,0,7.47-.56,2.06,2.06,0,0,1,1.78,0c1.74,2.05,4.66,1.11,6.79.47a32.33,32.33,0,0,0,3.41.75H133c4,.22,3.79-4,5.21-6.33a4.49,4.49,0,0,0,2.09-6.19c6-6.89.93-10.86,4.78-16.7,2-2.57.77-5.56,1-8.37.48-1.73,2.72-2.82,1.88-4.81-.59-1.88,2.26-3,1.41-5,.6-2,1.21-3.65-.14-5.63-.16-.81.7-1.45,1.14-2.06a6.6,6.6,0,0,0,0-6.35,7.49,7.49,0,0,0,2.63-6.06h0c-.18-2.85-1-5.68-.16-8.46A4.26,4.26,0,0,0,154,81.56s0,0,0,0c0-.51.39-.39.72-.65a3,3,0,0,0,1.06-2.28v0c.43-1.43-.27-2.85,0-4.27,0,0,0,0,0,0h0A6.47,6.47,0,0,0,156.66,70.56Zm-83.3,72Zm0,0v0ZM80,96.23c-.09.22-.39.22-.55.32a4,4,0,0,0,.28-.3h0s0,0,0,0h0c0-.06.12-.12.16-.18S80,96.14,80,96.23Z"/></clipPath><clipPath id="clip-path-7"><path class="cls-1" d="M550.83,75.19a37.76,37.76,0,0,1-2.36-4.38c.47-5.4-3.9-7.51-5.48-12a.08.08,0,0,0,0-.06c-3.24-5.69-5,.78-10.74-9.72a5.76,5.76,0,0,0-4-1.12c-2-.85-3.22-2.79-5.11-3.84-4.89-3.17-10.6-.21-15.71-.81-6.06-2.56-11.08,3.49-17,2.33-2.17-.6-3.51,1.5-5.22,2.36-1.77.46-3.87.87-4.6,2.8-1.46,1.12-4.48,1.69-4.92,4.09.21,4.14-8.47,2-6.69,10.41-1.18,1.62-3.63,2.53-3.77,4.86a6.53,6.53,0,0,1,.26,3.16c-2.67,5.25-.58,6.5.6,11.3-1.57,2.85-1.61,5.59.93,7.9a31.48,31.48,0,0,0,.86,13.71c2.31,4.52-1,10,2.43,14.48,1,2.24-1.42,4.48-.16,6.58,1.57,1.51.1,3.37.31,5.15.12.82,1,1.47.55,2.32a6,6,0,0,0,2,5c.5,1-.37,2-.57,3-.55,2.43,1.29,4.55,2.22,6.57a5.26,5.26,0,0,0-.08,1.54c-1.85,2.49.31,5.21,3.17,5.05h0c.55-.06.82.53,1.32.56h0c1,.3,1,1.54,1.68,2.23a5.87,5.87,0,0,0,7.94,1.11,10.18,10.18,0,0,0,2.27.12,6.16,6.16,0,0,0,8.74-2c.08-.1.09,0,.12,0,2.28.16,5-.37,5.55-2.94a6.3,6.3,0,0,0,.19-.81c.57-.87,1.2-1.9.76-3a2.11,2.11,0,0,0-.05-1.72c1.88-.9.59-3.59-1.22-3.6a2.1,2.1,0,0,1-.21-.58c1-1.84,2.12-1.52.16-3.53-2.36-2.4,2.14-4-1.74-6.78-.19-1.1-.4-2.27-.61-3.47,2.21-3.23,1.6-9.56-2-11.56-.06-.37-.11-.72-.16-1a1.55,1.55,0,0,0,.75-.72,9.69,9.69,0,0,1,2.18,2.06c.14,2.31,1.81,4.94,4.41,4.63l.82,1c-1.48,3,2.14,2.31,2.3,3.89-.46,4.84,5.66,4.27,7.42,7.65-.12.28-.2.54-.3.8h0v0h0v0a3.61,3.61,0,0,0,2.51,4.46,4.42,4.42,0,0,1,1.62.73c1.27.83,1.35,3.71,3.45,2.88.22.25.37.42.59.64-.93,1.1,0,2.92,1.47,2.19a2,2,0,0,0,.22.52c.14,3.75,2,4.25,5.29,3.38.9.76.94,2.1,2,2.82,1.18-.13,2.31-1.22,3.54-.43a6.15,6.15,0,0,1,1.2-1.19c1.34-.26,3.17-.82,3.79-2.12a6.43,6.43,0,0,1,3.13-.6c2.5-.37,3.69-3.27,5.85-4.38a8.45,8.45,0,0,0,2.86-7.78c-.48-1-1.79-1.36-1.93-2.55,1.4-1,.56-3-1-3.22a3.8,3.8,0,0,0-.37-.33c.11-2.28-1.79-3.68-3.43-4.79-.73-2-1.36-4.3-3.2-5.6-7.37-2.67-1.79-5.79-8.06-7a6.7,6.7,0,0,1-1.6-4.27c.05-1.1,1.6-1.28,1.83-2.37.85-5.8,3.12-5.42,7.06-8.42,1.51-1.47,1-3.81,2.15-5.4,1.12-1.34,3.65-2.16,2.74-4.31-.59-1.64,1.7-2.07,1.88-3.54.19-.58-.18-1.31-.07-1.83a3.66,3.66,0,0,0-.92-4.5,1.86,1.86,0,0,1,0-2A4.42,4.42,0,0,0,550.83,75.19ZM517.65,84.6c-1.68.87-.63,3-2.41,3.6a3.59,3.59,0,0,0-2.89,1.55c-.31.51-.63.27-1.12.42a6.16,6.16,0,0,0-3.36,3.08c-3.05.4-6-3.06-8.86,1.13a9.8,9.8,0,0,0-2.31.5c-.41-2.74.63-5.56-.91-8.12.66-2.35,1.71-5.63.23-7.82a1.64,1.64,0,0,1,.07-.84c-.21-4.32,3.69-2.23,4-6.27,4-2.77,1.8-2,6.42-1.79,1.94-.29,3.85.68,5.79.26.62.39,1.35.84,2.06,1.22s.82,1.44,1.65,1.8c.8,2,.36,4.33,1.74,6.16C519.65,81,519.45,83.09,517.65,84.6Z"/></clipPath><clipPath id="clip-path-8"><path class="cls-1" d="M725.11,121.71a5.17,5.17,0,0,0-1.65-2.8,1.06,1.06,0,0,0-.49-.73c.82-1.23,1.19-3.5-.07-4.51-1.42.38-1.9-1-3.12-1.39,0-.07,0-.15,0-.21v0a2.77,2.77,0,0,0-1.6-1.51,3.12,3.12,0,0,0-3.6.91,16.83,16.83,0,0,0-2.72.22c-1.31-1.63-3.55-1-4.62.57l-1.26.15c-3.11-2.26-6.52-.86-8.76,1.76-1,.85-3,.59-4.05,1.65a6.83,6.83,0,0,0,.09,6.22c-.26,4.92-2.75,1.84-3.68,4.68-.46,1.61-2.24.13-3.28.56-.56.15-.8,1.16-1.49.62-.63-.25-1.4.17-2,.27-4.07,4.11-1.6-1.07-8,.07-2.76-.9-3.22-4.45-5.25-6.34-1-1.33-2.78-2-3.49-3.6a.47.47,0,0,0-.2-.53c-.57-1.53.28-3.1-.21-4.59-.45-1-1.43-1.85-1-3a4.57,4.57,0,0,0,.22-3.77c-.21-.56-.1-.6.09-1.08a7.27,7.27,0,0,0-.75-5.21c-.15-1,.71-1.65,1.21-2.35,1.44-2.36,1.45-5.4.91-8A8.93,8.93,0,0,0,670,87.51C672.39,84,671,83.44,676,83c3.62-3,1.57-2.9,6.59-1.76,0,0,0,0,0,0h.06c3,.46,7.4-.79,9.26,2.31h0c.34,1.85.06,4.31,2.28,5h0l0,0c2.6.77,5.32-1.83,7.73,0l0,0c2,1,3.21-1.47,5.39.43a2.51,2.51,0,0,0,2-.2c1.43-.1,3.35.4,4.46-1,0,0,.07,0,0,0h0v0c1.29-2.61,5.15,1,7.13-3.75,0,0,0-.06,0-.06h0v0a1.43,1.43,0,0,0-.33-1.36c.48-1.26,1.5-2.25,1.55-3.65v0h0c-.13-2.42-2.51-3.84-2.26-6.34.06-6.46-6.68-8.41-9-13.54h0l0,0c-1.73-2.75-5.26-1.56-7.56-3.39-4.81-4.86-11.66-4.32-17.78-4.22-6.83-4-12.08,1.21-18.84-.23-2.16-.17-3,2.28-5.06,2.39a5.69,5.69,0,0,0-4.39,1.55c-1.81.91-4.12,1.5-5.24,3.39,0,0,0,0,0,0-1.94,4.47-7.44,2.58-7.89,11.06-3.87,4-9.61,6.59-8.81,13.26.38,5.08-5.22,6.32-2.07,12.52-4.38,9.71-1,13,.15,22-1.09,5.24,1.66,9.51,4.22,13.71.9,7.44,2.78,5.12,5.31,11.15,0,0,0,0,.05,0s0,0,0,0c.7,1.19,2.37,1.35,3,2.55a8.18,8.18,0,0,0,6.08,2.94c2.42,1.79,4.2,4.6,7.58,4.93h0c.11,0,0,0,0,0a4.71,4.71,0,0,0,2.5-.22c1.85,1.5,2.48,2.81,5.17,2.22,3.45,2.26,7.41,4,11.29,1.53,3.11.09,5.27,3.17,8.18-.39,10,1.08,10.37-2.07,18.58-6.4,3,0,6.43-1.36,6.5-4.78a3.19,3.19,0,0,0,1.51-2.37c3.53-1.61,3.65-.58,5.19-4.78.78-1.22,2.66-1.33,2.6-3.16.08-.68.47-.63.94-1a3.78,3.78,0,0,0,1.11-3.1,0,0,0,0,1,0,0l0,0C721.83,127.09,726.3,125.13,725.11,121.71Zm-3.66-42.53h-.06l.1,0Z"/></clipPath><image id="image" width="271" height="350" xlink:href="included_images/letters/letter_R.jpg"/><image id="image-2" width="304" height="350" xlink:href="included_images/letters/letter_C.jpg"/></defs><g id="t"><g class="cls-2"><image width="300" height="353" transform="translate(723.31 41.85) rotate(5.78) scale(0.33)" xlink:href="included_images/letters/letter_T.jpg"/></g></g><g id="i"><g class="cls-3"><image width="118" height="350" transform="translate(0.12 45.6) scale(0.31)" xlink:href="included_images/letters/letter_I.jpg"/></g></g><g id="e"><g class="cls-4"><image width="254" height="350" transform="matrix(0.33, 0.01, -0.01, 0.33, 558.12, 42.9)" xlink:href="included_images/letters/letter_E.jpg"/></g></g><g id="r"><g class="cls-5"><use transform="translate(380.88 43.75) scale(0.33)" xlink:href="#image"/></g></g><g id="c"><g class="cls-6"><use transform="translate(142.4 56.29) rotate(-8.94) scale(0.32 0.31)" xlink:href="#image-2"/></g></g><g id="n"><g class="cls-7"><image width="357" height="350" transform="translate(42.27 48.11) scale(0.32 0.32)" xlink:href="included_images/letters/letter_N.jpg"/></g></g><image width="728" height="901" transform="translate(225.35) scale(0.24)" xlink:href="included_images/medallion_pink.png"/><g id="r-2" data-name="r"><g class="cls-8"><use transform="translate(454.32 52.29) rotate(-10.95) scale(0.33)" xlink:href="#image"/></g></g><g id="c-2" data-name="c"><g class="cls-9"><use transform="translate(631.15 49.89) scale(0.31 0.31)" xlink:href="#image-2"/></g></g></svg>