<svg id="uuid-6358c17d-14f6-436c-81d8-96b915234c63" overflow="visible" xmlns="http://www.w3.org/2000/svg" xmlns:xlink="http://www.w3.org/1999/xlink" viewBox="0 0 800.7 125.61"><defs><style>.uuid-cb17cdf2-57eb-49f4-83c8-5c482ddd7679{fill:none;}.uuid-928111e4-2c6f-4c2b-ac72-258865f7ab32{clip-path:url(#uuid-70cbb790-7782-4ee9-a319-4be5a1462341);}.uuid-beae8a39-1e06-4273-89ae-409c8e10361d{clip-path:url(#uuid-0836eb23-1d34-47f7-b9f5-a21bf98df8ac);}.uuid-497394ad-ffba-4e45-9d6f-e58338ee7076{clip-path:url(#uuid-65a8f821-0cb5-4533-a85f-fef3ca4678ec);}.uuid-87643d9f-5217-46c9-977e-0a5b6833342a{clip-path:url(#uuid-a511a655-8b39-4c3b-9e84-9cf7819eba9b);}.uuid-4ffd6ab7-141d-4ae7-bec8-eb5c671733d8{clip-path:url(#uuid-dbc2ddf8-fb56-40b7-a555-11c21f6dc7ee);}.uuid-97adb797-5941-44ae-8f87-94e85eb254e3{clip-path:url(#uuid-77c76b02-5b8b-4e8d-a1a4-bcc20cc43850);}.uuid-d6b4a3d4-bdf5-4e26-aaa2-b2f9d317a2ab{clip-path:url(#uuid-98989a87-1c3b-4d3f-8b6e-e0a971a8d238);}.uuid-2022363e-2378-45b2-a0b9-d90778ac4c59{clip-path:url(#uuid-31fc0262-2303-47c3-a089-c243c7b5fae8);}.uuid-9315f567-68ca-4e21-aca1-cc9d49d10f19{clip-path:url(#uuid-3c268c30-2169-4fdc-bca5-95a2d7b9f641);}.uuid-29f032d3-b11d-4874-9227-6f24e5a0e06f{clip-path:url(#uuid-8ed36cf2-6e2d-4cfa-ba05-bad163f33610);}.uuid-98d7fea2-7402-4145-a06e-6ced8f6f71f1{clip-path:url(#uuid-17deaaee-57d8-4b39-9333-6b540611f9aa);}.uuid-cbbc231c-40fe-4428-96cc-b3bd87ad76b6{clip-path:url(#uuid-6d362ca8-e0b7-4ba0-8934-b8262af0324a);}</style><clipPath id="uuid-31fc0262-2303-47c3-a089-c243c7b5fae8"><path class="uuid-cb17cdf2-57eb-49f4-83c8-5c482ddd7679" d="M98.95,96.28c-1.4-4.88-1.83-3.16-.74-8.31-2.56-5.45-.66-3.69-.91-9-.74-3.54-1.92-6.42-1.89-10.26,.72-2.98-.77-5.58-1.31-8.38-.09-1.58,1.09-2.94,.28-4.47-.36-.66-.73-1.28-.53-2.11,.51-1.25,.24-2.53-.26-3.68,.18-.62,.12-1.41,.05-2.07,.03-.86-.28-1.59-.83-2.2,0-.64-.12-1.31-.18-1.91,.01,0,0-.03,0-.02,.41-1.23-.02-2.59-.37-3.76v.02s0,0,0,0c0,0,0-.01,0-.02-.14-.42-.19-1.11-.5-1.36-.18-.72-.61-1.34-.97-1.97,.43-1.43-1.29-1.28-2.09-1.8-.97-1.24-3.09-2.09-4.2-.57-.12,0-.22,0-.33-.05h0c-.13-.06-.26-.12-.41-.16,.07-1.49-1.61-1.3-2.46-.65-.62-.04-1.23-.59-1.93-.58h-.02c-.9-.14-3.18,.8-3.5,1.73-.91,.33-1.82,.15-2.74,.39-2.19-1.16-2.94,1.67-4.86,2.35,0,0,0,0,0,0h0s0,0,0,.01c-.41,.42-.28,1.13,.29,1.33-.14,.14-.2,.36-.23,.56-.51,.28-.54,1.15-.02,1.46,.03,.19,.07,.37,.12,.55-.77,1.72-1.3,3.94-.34,5.7,.44,1.42-.27,3.04-.21,4.52,0,0,0,.02,0,.02h0c-.05,.74-.01,1.47,.14,2.21,.62,2.18,1.87,4.02,.75,6.29-.21,1.41,.62,2.91,1.71,3.83-1.49,8.73,.96,8.35,1.65,15.74-.91,3.72,1.75,7.18,.68,10.83-.86,2.68,1.05,2.41-.49,6.11-.1,.62,.33,1.29,.36,1.83-.31,.89,.03,2,.23,2.87,.34,1.15,1.85,1.84,1.02,3.23h0s-.01,.02-.01,.03c-.6,1.26-.59,2.84,.04,4.1,0,.01,0,.03,0,.04,.35,.67,.8,1.24,1.44,1.61,.12,.32,.29,.62,.45,.91-.1,.17-.26,.35-.26,.56,.06,.54,.41,1.22,.66,1.69,1.17,1.3,2.89-.71,4.11,.26,1.3,1.37,2.95-.19,4.34-.03,.3,.1,.68,.02,.81-.28,.58,.11,1.3-.07,1.68,.49,0,0,0,0,.01,0h0s0,0,0,0c0,0,0,0,0,0,.42,.51,1.11,.16,1.62,.42,0,0,.03,0,.04,.01h0c.06-.02,.04,0,.04,0h0c.97,.07,1.94-.04,2.9-.22,.4,.03,2.67-1.54,1.66-1.3,.72-.2,1.66-.16,2.3-.31,.02,0,.04,0,.05-.01,.98,.09,1.09-.92,1.41-1.55,1.29,1.07,2.3-1.08,1.31-2.06,.06-.29,.04-.54,.02-.81,1.24-1.53,1.14-3.97,.32-5.69-.32-1.97,.66-4.07,.12-6.1Zm-.94,13.92h0Zm0,0h.02s-.01,0-.02,0Z"/></clipPath><clipPath id="uuid-a511a655-8b39-4c3b-9e84-9cf7819eba9b"><path class="uuid-cb17cdf2-57eb-49f4-83c8-5c482ddd7679" d="M391.8,66.91c1.98-3.16,1.04-6.48,.42-9.79,.41-2.04,1.48-3.64,.58-5.72,.2-1.38,1.59-2.53,.97-4.05,.08-1.11,.6-2.2,.42-3.39,.07-.95-.86-1.48-.91-2.43,1-2.67,1.1-6.22-1.71-7.79,.15-.99-.18-1.88-1.04-2.55-.9-.38-1.54,.27-2.46,.2-.28-.18-.57-.4-.9-.51-.47-2.22-3.26-1.55-4.14,0-.35,.04-.69,.14-1.03,.13-1.92-1.83-7.87-2.57-9.2,.26-.26,.1-.52,.19-.77,.31-.71-1.02-1.87-.12-1.61,.93-1.13,1.35-2.95,3.24-1.64,5.14,.29,1.61-1.11,3.29-.53,4.96,2.88,4.83-2.25,3.88,.97,7.42-2.75,8.58,1.5,6.94-1.72,13.94-.45,1.91,1.52,3.86-.34,5.48-.45,.47-.75,1.02-.46,1.65,.88,1.17-.57,1.97-.67,3.08-.04,.52,.52,.99,.08,1.44-.25,.78-.31,1.93,.32,2.56,1.47,1.47-2.01,2.26-1.06,5.25-.07,.1-.14,.2-.22,.3-1.36,.02-1.88,1.36-2.2,2.4-.97,.35-2.3,.31-2.97,1.23-1.47,4.32-2.78-.72-4.08,3.17-.28-.09-.58,.04-.87,.04-2.06-2-4.57-.12-6.83-1.19-.73-1.44-1.5-2.51-3.15-2.74-1.4-1.48,.49-2.35-1.59-3.18-.3-.61,.65-1.62-.35-1.97-.24-.14-.15-.2-.09-.43,.06-1.02-.84-1.36-1.65-1.68,.04-1.31,1.04-2.25-.62-3.3-.01-.22-.02-.45-.03-.67,.61-.87,.34-2.22-.42-2.93-.43-1.46,1.28-2.66,.78-4.17-2.61-4.09,2.37-3.22-.96-6.4,2.58-3.97,.69-5,.55-8.97,2.95-3.21-.75-4.67,1.19-7.1,.39-.42,.62-.92,.28-1.4-1.01-.92,.38-1.59,.45-2.53-.05-.49-.52-.82-.04-1.25,.14-.47,.14-1.1-.01-1.54-.18-.37-.69-.63-.64-1.09,1.58-1.21,2.4-2.85,.53-4.36-.05-.63-.63-1.05-.49-1.72,1.55-1.17-.47-1.58-.97-2.47-.19-.62-.82-1.1-1.24-1.59-.61-.67-1.76-.83-2.4-.1-.28-.08-.56-.15-.85-.19-.04-.63-.47-1.05-.95-1.17-.44-.13-.85,.47-1.31,.26-1.12-.91-2.45-1.83-3.83-.79-.38,.32-.69,.76-1.05,1.12-1.13-.01-2.2-.02-3.32,.26-2.32-1.74-2.54,.86-4.17,1.32t0,0s0-.01,0-.01c0,0,0-.01-.01-.01-.04-.02-.08-.03-.13-.04-.85-.53-1.93,.74-1.07,1.41-.1,.2-.2,.4-.3,.62-.58,.11-.86,.88-.5,1.36-.88,1.11-.47,2.61-1.13,3.87-.12,1.04,.39,2.01-.29,2.99-1.75,3.22-.36,6.69-.84,9.95-1.82,2.02-1.71,4.6,.12,6.54-1.11,4.63-.8,9.38-.08,14.07-1.5,3.47-1.23,7.09,.27,10.53,.51,2.06-1.33,3.73-.54,5.72,.38,.74,1.04,1.32,.96,2.21-.25,1.11-.4,2.27,.29,3.27,.27,.49,.18,.54,.17,1.05,.11,1.75,1.57,2.98,2.95,3.81-.24,3.14,1.98,6.24,5,7.3,.31,.47,.74,.81,1.21,1.08-.18,1.78,1.17,3.13,2.69,3.72,1.48,2.58,4.3,3.41,7.1,3.09,1.96,.86,3.12,3.42,5.66,1.81,6.83,3.43,5.16,1.36,12.27,1.3,3.2,2.24,5.61,.32,8.36-1.26,1.32-.35,2.84,.88,3.88-.34,.43-.51,.78-1.04,1.56-1.06,1.16,.13,2.03-.38,2.78-1.15,1.73,.1,2.65-1.11,3.26-2.52,2.58-.74,5.03-1.55,4.82-4.92,2.09-.22,4.21-1.91,4.19-4.16,.89-1.81,2.6-3.19,3.21-5.16,.55-2.01,.6-4.02,1.25-6.01,1.38-1.29,1.75-3.36,.85-5.04,.08-.29,.16-.58,.26-.86-.21-1.95,1.6-3.45,1.72-5.42,.89-3.17-1.01-6.41,.05-9.41Z"/></clipPath><clipPath id="uuid-dbc2ddf8-fb56-40b7-a555-11c21f6dc7ee"><path class="uuid-cb17cdf2-57eb-49f4-83c8-5c482ddd7679" d="M318.21,73.38c.12-1.73-.28-3.24-1.25-4.64,.34-3.3,.66-6.21-1.62-9.04,1.1-2.29-.29-4.86-1.69-6.65-.6-3.52-2.29-6.81-5.69-8.3-1.57-1.47-1.64-4.35-4.21-4.88-2.71-.04-3.52-3.15-5.89-4.14-2.6-1.42-5.58-1.44-8.44-1.43-2.6-.97-5.31-2.56-8.18-1.54-2.5,1.8-5.8,.23-8.23,1.83-1.11,1-2.71-.14-4.01,.35-1.44,.86-3.08,.86-4.46,1.86-.77,.41-.87,1.18-1.4,1.82-1.61,.97-3.76,1.09-4.74,3.03-.84,1.09-.79,2.5-1.73,3.48-1.11,.37-1.99,1.26-2.72,2.15-1.03,1.04-1.4,2.44-2,3.69-1.29,1.36-2.43,2.94-2.96,4.77-.95,2.37-.06,4.96-.96,7.29-.53,.95-1.18,1.84-1.37,2.94-.59,2.1,1.56,3.8,1.01,5.74-2.48,6.13,1.55,11.68,1.95,17.6-.3,5.36,4.35,8.63,5.99,13.34,.55,.82,1.59,1.09,2.27,1.77,.76,.72,.88,1.97,1.62,2.72,.46,.69,1.47,1,2.07,1.45,.4,.55,1.05,1.12,1.73,1.41,3.28,1.65,3.1-.1,6.2,3.07,1.57,1.03,3.39,.31,5.07,.24,3.11-.05,5.55,2.21,8.65,1.81,3.91-1.42,8.67,.7,12.06-2.55,2.22-1.45,5.69-.35,6.95-3.44,.23-.74,.71-1.32,1.5-1.45,4.91-1.2,7.57-5.76,8.65-10.37,2.99-3.34,4.59-7.17,4.18-11.71,.21-1.73,1.57-2.96,1.16-4.77-.19-.83-.39-1.58-.03-2.46,1.08-1.59,.25-3.31,.54-4.97Zm-42.1,17.13c-1.04-.34-1.39-1.22-2.05-1.93-.5-.17-1.28-.21-1.28-.92,0-.71,.01-1.46-.69-1.85-.25-.19-.17-.26-.16-.54-.1-1.08-.81-1.77-1.72-2.29-.34-.41,.06-1.02,.2-1.47,.33-1.37-.46-2.79-1.46-3.69,.92-1.67,.4-3.6,.08-5.33,.58-1.51,1.57-2.89,1.84-4.48-.14-5.81,3.1-2.98,2.48-8.17,.92-1.2,2.73-1.32,3.93-2.22,1.84-.97,3.44-3.25,5.63-3.2,1.53,.47,2.71,1.54,4.1,2.18,2.04,.53,3.62,2.04,3.78,4.2,1.25,1.41,1.53,1.43,1.48,3.48,.16,.73,1,1.06,.85,1.86,.21,1.21,.86,2.04,1.82,2.76,.43,.69-.25,1.49-.27,2.22-.08,1.43,.46,2.85,1.26,4.01,0,.14,0,.28,.01,.42-1.06,1.13-.91,2.76-.79,4.15-.73,1.14-1.78,2.23-1.88,3.66,.78,4.78-1.38,2.23-1.99,5.6-.55,.46-1.14,.9-1.75,1.29-2.75-.51-5.03,1.76-7.62,1.56-1.97-1.45-3.46-2.19-5.79-1.31Z"/></clipPath><clipPath id="uuid-98989a87-1c3b-4d3f-8b6e-e0a971a8d238"><path class="uuid-cb17cdf2-57eb-49f4-83c8-5c482ddd7679" d="M574.02,50.24c-.03-.45-.46-.62-.72-.91,.16-1.07,.45-2.48-.84-3.1-.12-2.23-.9-4.36-3.55-4.32-3.38-1.84-7.41-.33-10.7-2.02,.03,0-.03,0-.03,0-1.51-.48-3.04,.38-4.08,1.41-1.02,.06-2.17,.33-2.49,1.46h0c-.9,1.77-1.14,3.9-.94,5.85h0v.02h0c.1,.65,.24,1.29,.33,1.93-.36,2.98-3.28,5.67-1.93,8.87,1.05,2.02-1.24,3.67-.73,5.59,.66,1.06,0,2.07-.46,3.06h0s0,.01-.02,.03c-.16,.51-.1,1.1,.07,1.58,0,1.21-.65,2.65,.11,3.83,0,0,0,0,0,.01h0s0-.02,0,0c.75,.8,.3,1.82-.26,2.6,0,0,0,.02,0,.02h0c-.29,.6-.39,1.34-.29,2.02-.17,.07-.22,.27-.31,.4,0,.02,0-.06,0,.05-.59,.8-.15,1.7,.49,2.35-.06,.16-.14,.3-.22,.43-.28-.14-.7-.32-.87-.52,.02,.05,.03,.07,.08,.08,0,0,0,0-.02,0-.02,0-.04,0-.06,0,0,0,0,0-.01,0,0-.03,0-.05,0-.08h0c0-.12,0-.18,.01-.21h0s0-.02,0,0c-.22-.15-.45,.37-.73,.28-.33-1.02,.18-1.95-1.42-2.21-.14-.49-.43-.97-.63-1.45,.36-.23,.66-.6,.64-1.02h0s.01-.03,0-.05c-.08-.82-1.03-1.23-.8-2.13,.28-.97-.56-1.25-1.33-.98,.01-.06-.02-.12-.04-.18,.51-.59,.31-1.36-.53-1.44-.08-.22-.16-.43-.24-.65,1.28-2.4-1.93-3.77-2.1-5.82,0,0,0-.03,0-.03-.12-2.04-.66-3.94-2.02-5.52-1.04-.86-.95-2.03-.82-3.25h0s-.01-.02,0-.03c.07-1.52-1.28-2.52-2.5-3.14-.48-3.46-1.21-7.17-4.37-9.31-2.26-2.44-.43-7.93-5.84-7.11-.6-.33-1.01-.97-1.69-1.15-1.2-2.05-2.54-.75-4.25-1.17-.85-.44-1.8-.74-2.71-.3-.38,.14-.44,.04-.77-.1-1.36-.38-2.71,0-3.79,.87-.84,.28-1.6-.49-2.45-.49-1.6-.09-3.67,.84-3.96,2.55-.2,.26-.42,.51-.51,.83-2.28,.39-2.71,3.62-2.17,5.4-1.65,1.29-1.1,3.58-1.79,5.28-.47,1.39-.39,2.85-.36,4.27-1.01,2.63-3.17,4.14-1.53,7.34-2.99,4.51-2.14,9.68-3.01,14.72-3.44,4.08-1.04,7.9-3.1,11.8-1.24,1.31,.04,3.03-.71,4.48-1.2,1.36-.5,2.78-.82,4.21-.25,.78-.15,1.67-.02,2.47h0c.05,.5,.31,.94,.7,1.23,.04,.07,.09,.12,.12,.18,0,0,0,0,0,.01,0-.04,0-.01,0-.02h0s.01,.02,.02,.03c.11,.18,.21,.38,.21,.62-.08,1.01-.95,1.71-1.14,2.7,0,.02,0,.02,0,.04-.25,1.2-.1,2.65,.72,3.66,0,.02,.02,.02,.02,.04,0,0,.04,.06,.02,.04h0s0,.01,0,.01c.29,.34,.62,.65,1,.88,.02,2.06,2,3.62,3.89,3.96,1.61,.24,2.98-1.04,4.58-.39,1.35,1.28,3.21,2.35,5.13,2.4h0s.05,.01,.06,0c0,0,0,0,.02,0,.03,0,.05,0,.08-.02,.61-.04,1.05-.53,1.6-.69,1.18-.08,2.77,.71,3.61-.56-.14-1.24,1.35-.91,1.74-1.89,.46-.75,.3-1.76-.49-2.16,.05-.14,.09-.29,.13-.44,.76-.14,1.34-.93,1.41-1.68h0c.16-.92-.63-1.71-.82-2.53v.03c.9-2.83-.26-5.42,.25-8.32,1.17-2.32,2.02-5.19,1.54-7.79,.03-1.12,.74-2.04,.77-3.19h0s0-.02,0-.02c.14-.72-.13-1.28-.6-1.79,.47-1.35,1.4-3.14,.18-4.46,.03-.23,.05-.47,.08-.69,1.44-1.11,1.58-3.52,1.06-5.14h0s0,.02,0,.01h0c-.95-1.58,.18-1.55,1.14-2.33,.12,.28,.4,.61,.62,.86,.26,.23,.67,.29,.9,.55,.3,3.67,1.88,1.17,1.43,3v.03h0s0,0,0,0c-.02,.68,.51,1.36,1.23,1.4,.09,.23,.18,.48,.28,.75-.8,1.55,.16,3.31,1.23,4.41,.16,1.02,.25,2.14,.59,3.12,0-.02,0,.03-.02-.03,0,0,0,0,0,0,.28,.97,.68,1.91,1.52,2.59h0c1.92,1.13-.55,3.81,1.98,4.97,1.97,1.05-.95,4.62,4.28,8.45h0s0,.01,0,.01h.01c1.12,1.53,.3,3.33,1,4.98,.43,1.35,1.99,1.73,2.58,2.93,.55,.99-.12,2.43,.99,3.09,1.64,.65,.6,2.81,2.38,3.51h0s0,0,0,.01c.85,1.96,2.39,1.62,4.02,1.46,1.56,1.57,4.18,1.45,5.48-.41,.49-.23,.83-.17,1.31,0,1.28,1.51,3.42,.82,4.99,.35,.8,.18,1.67,.47,2.5,.55-.03,0,.07,0,.08,0,2.96,.16,2.78-2.92,3.83-4.65,1.73-.94,2.43-2.75,1.53-4.54,4.44-5.06,.69-7.97,3.51-12.26,1.45-1.88,.56-4.08,.76-6.14,.36-1.27,2-2.07,1.38-3.53-.43-1.38,1.66-2.19,1.04-3.65,.44-1.47,.89-2.68-.1-4.13-.12-.6,.51-1.06,.83-1.51,.89-1.38,.69-3.24-.02-4.66,1.34-1.02,1.95-2.78,1.93-4.45h0c-.13-2.1-.76-4.17-.11-6.21,.52-.48,.71-1.19,.83-1.86,0,0,0,.03,0,.02-.02-.38,.29-.29,.53-.48,.54-.38,.72-1.06,.78-1.67,0-.03,0,.03,0,.03,0,0,0-.01,0-.02,.32-1.05-.2-2.09,.02-3.14,0,0,0-.01,0-.02h0c.39-.88,.78-1.78,.6-2.79Zm-61.15,52.84s0,0,0,0h0Zm0-.01h0Zm4.84-33.98c-.07,.16-.29,.16-.4,.23,.07-.07,.15-.14,.21-.22t0,0s0,.02-.01,.03h0s.09-.09,.12-.13c.05,.01,.1,.02,.08,.09Z"/></clipPath><clipPath id="uuid-0836eb23-1d34-47f7-b9f5-a21bf98df8ac"><path class="uuid-cb17cdf2-57eb-49f4-83c8-5c482ddd7679" d="M494.22,100c-.11-.36-.38-.52-.59-.84,1.85-4.38-5.42-4.95-6.78-8.24-.34-1.01-.61-2.26-1.79-2.59-2.52-.05-2.74-2.42-4.08-3.98-.55-.91-2.26-.72-2.17-1.96-1.31-.95-2.48-2.64-4.2-2.93-1.71-1.31-2.39-3.3-3.71-4.9-.24-.23-.46-.51-.72-.69-.62-1.11-.53-2.76-1.63-3.63,0-.46-.07-.93-.01-1.39,1.35-.83,1.72-2.53,2.19-3.9,1.78-1.29,2.95-3.14,3.17-5.32,.36-2.21,4.05-2.09,3.28-4.93,5.62-4.27,3.43-5.45,6.59-9.96,1.05-.95,2.67-1.59,3.05-3.06,.14-.63-.25-1.22-.44-1.77-.72-1.51,1.42-2.78,.38-4.17-1.26-.82-1.22-2.71-2.67-3.2-.44-.09-.81-.07-1.05-.49-.9-.74-2.16-.96-3.23-.47-1.74-1.22-3.73-2.86-5.94-1.41-.45-.11-.82-.15-1.34-.02-1.21-.76-2.79-.35-3.29,.94-1.2,.43-2.63,.91-3.25,2.13-.51,4.14-3.53,2.06-3,5.45-3.47,3.04-3.39,3.69-5.03,7.88-2.15,.88-2.8,2.71-3.28,4.75-.53,.87-2.15,.73-2.26,1.87-.03,.47-.04,.95-.58,1.17-.76,.21-1.46,.77-1.36,1.62-.12,.58-.76,.85-.78,1.55,.81,1.93-.8,2.19-.27-.02-.27-.69-.67-1.33-1.25-1.8-.01-.08-.03-.17-.04-.25,1.01-1.59,.28-3.52-.19-5.13,.76-2.11,1.51-4.73-.22-6.59-1.89-1.12-.15-3.17-1.2-4.69-.26-.77-1.32-.96-1.42-1.72,.22-2.54-2.1-4.68-4.61-4.14-3.9,1.39-6.41-2.08-9.73,.21-1.55,2.39-4.82,.23-5.84,2.62-.26,.83-1.04,1.18-1.65,1.69-.75,.62-.6,1.67-.47,2.48-.55,1.35,.04,2.79,1.06,3.74-.43,2.49-1.35,4.53,1.36,6.42-.53,1.48-1.27,2.96-.81,4.52,.22,1.03,1.04,1.89,1.73,2.64,.54,2.07-1.97,3.77,.96,5.43,.57,2.58-1.35,4.92-.11,7.47,2.08,3.2,.89,6.51,.88,9.91,3.58,5.57,.03,4.03,1.04,7.25,.9,.73,.65,1.72,.06,2.57-.74,1,.73,1.77,.27,2.64-.31,1.5,.63,2.61,1.82,3.37,.23,1.64-1.81,2.72-.28,4.85,.22,.34,.4,.73,.69,1.03,0,.05,0,.1,0,.15-2.28,1.99,.33,4.68,.76,6.86,.21,1.26-1.14,2.97,.49,3.74,2.77-.08,3.93,3.66,6.58,1.71,.46-.15,.58,.49,1.01,.31,1.11-.7,2.53,.07,3.42-1.05,1.42-.83,3.15,1.73,5.17,.18,1.03-.86,2.15-1.69,2.99-2.75,1.46,.3,3.71-.53,2.99-2.34,.59-1.79,1.71-3.68,.75-5.7-2.89-3.49,.31-5.34-2.17-8.11-.55-2.12,.87-4.04,.38-6.2-.05-.92-.53-1.8-.39-2.73,2.91-1.67,2.72,4.13,4.44,5.37,.91,1.05,2.42,1.08,3.43,1.96,1.12,1.36,1.25,3.1,3.07,3.79,.56,1.18,.59,2.61,1.94,3.28,.44,1.42,1.78,2.28,3.19,2.52,1.22,2.46,2.05,4.61,5.44,4.54l.2,.13c1.3,3.73,6.2,3.01,8.74,1.1,1.16,.08,2.47,.65,3.62-.23,1.31-.75,1.69-2.2,2.65-3.15,.69-.31,1.52-.17,2.18-.63,.99-.46,1.02-1.2,.99-2.1,.89-.58,1.3-1.68,.89-2.69Zm-41.72-15.05c0-.23,0-.46,0-.68,.14,.16,.27,.29,.4,.39-.16,.06-.29,.18-.41,.3Z"/></clipPath><clipPath id="uuid-65a8f821-0cb5-4533-a85f-fef3ca4678ec"><path class="uuid-cb17cdf2-57eb-49f4-83c8-5c482ddd7679" d="M256.9,37.9c-.01-.12-.03-.25-.06-.36-.02-.09-.05-.18-.08-.26-.03-.08-.07-.16-.11-.25-.13-.26-.29-.51-.51-.72-.36-.34-.79-.54-1.19-.78h0c-.09-.11-.18-.24-.28-.34-.14-.14-.29-.27-.44-.4-.12-.1-.26-.2-.39-.3-.04-.06-.08-.12-.12-.19-.22-.46-.29-1.18-.72-1.46-.12-.07-.24-.12-.36-.13-.12-.02-.24-.02-.36,0-.23,.04-.48,.13-.72,.22-.3,.12-.53,.1-.72,.02-.19-.08-.33-.26-.44-.45-.12-.19-.21-.41-.32-.64-.1-.22-.21-.42-.35-.59,0,0-.01,0-.02-.02-.25-.28-.6-.52-1.02-.59-.12-.02-.25-.02-.37,0-.18,.02-.41,.12-.59,.09-.06,0-.12-.03-.16-.07-.16-.15-.11-.34-.2-.48-.04-.06-.09-.11-.2-.14-.02-.01-.04-.01-.07-.01-.26-.05-.55,.03-.81-.02-.15-.03-.29-.07-.44-.12-.14-.05-.28-.11-.42-.16-.18-.07-.34-.1-.48-.12-.13-.01-.25,0-.37,.05-.21,.06-.38,.18-.62,.37-.06,.04-.1,.07-.16,.11-.05,.03-.09,.04-.13,.07-.29-.07-.57-.15-.84-.28,0-.01-.02-.02-.02-.03-.06-.12-.12-.24-.19-.37-.04-.08-.07-.15-.12-.24-.05-.08-.09-.15-.15-.23-.11-.17-.26-.33-.45-.47-.13-.1-.28-.19-.44-.25-.08-.04-.16-.07-.25-.1-.07-.02-.13-.04-.2-.06-.06-.02-.12-.03-.18-.04-.03,0-.06-.01-.09-.02-.03,0-.05,0-.08-.01-.11-.01-.23-.02-.34-.02-.11,0-.22,.02-.33,.05h-.02c-.26,.06-.5,.17-.75,.27-.12,.05-.24,.11-.37,.16-.13,.05-.26,.1-.39,.14-.03,0-.07,.02-.11,.03-.1,.04-.2,.07-.3,.12-.18,.09-.34,.2-.45,.32-.07,.07-.14,.16-.2,.25-.09,.14-.16,.3-.2,.46-.03,.11-.06,.2-.08,.3,0,0,0,0-.01,.01-.06,.05-.1,.11-.16,.16-.04,0-.08-.01-.12-.01-.06,0-.13,0-.19,0-.07,.01-.14,.01-.21,.02-.08,.01-.16,.05-.24,.08-.39,.18-.65,.49-.88,.76-.18,.23-.35,.47-.49,.72-.04,.08-.08,.15-.12,.22-.07,.14-.14,.28-.2,.42-.06,.13-.1,.27-.14,.41-.05,.14-.08,.29-.1,.45,0,.05-.02,.1-.02,.16-.02,.19-.1,.34-.22,.47-.09,.11-.21,.2-.33,.29-.13,.09-.26,.18-.39,.27-.07,.05-.13,.1-.19,.15-.16,.15-.33,.3-.48,.46-.07,.08-.16,.16-.23,.24-.07,.09-.14,.18-.21,.27-.14,.18-.26,.36-.37,.54-.12,.18-.22,.37-.31,.56-.08,.17-.15,.35-.21,.54-.06,.2-.12,.4-.16,.61v.02c-.05,.26-.09,.54-.11,.81-.02,.27-.03,.55-.02,.82,0,.05,.01,.09,.01,.14,.04,.6,.09,1.21-.4,1.66-.25,.23-.53,.43-.8,.64-.4,.32-.78,.66-.97,1.17-.09,.25-.14,.58-.15,.91,0,.19,.01,.38,.03,.56,.02,.16,.04,.31,.08,.44,.06,.24,.24,.55,.22,.79,0,.02,0,.04,0,.05-.04,.25-.26,.42-.43,.61-.12,.12-.24,.24-.34,.37-.17,.17-.33,.35-.5,.52-.08,.09-.16,.17-.24,.26-.07,.08-.15,.16-.22,.24-.13,.14-.26,.26-.38,.39-.28,.27-.54,.53-.82,.84-.1,.11-.2,.22-.3,.33-.1,.11-.21,.22-.3,.34-.1,.12-.21,.24-.3,.36-.06,.07-.12,.15-.18,.23-.05,.08-.09,.16-.14,.23-.17,.3-.28,.59-.39,.85-.03,.07-.06,.13-.09,.19-.03,.06-.06,.12-.09,.18-.02,.03-.04,.06-.05,.09-.02,.03-.04,.06-.06,.09-.05,.06-.09,.12-.13,.18-.27,.35-.59,.69-.93,.99-.05,.05-.11,.09-.17,.14-.06,.04-.12,.09-.18,.13-.1,.06-.2,.12-.31,.16-.05,.02-.1,.04-.16,.06-.04,0-.07,.01-.1,.02-.07-.01-.13-.03-.21-.03-.18-.02-.37-.05-.56-.09-.14-.03-.28-.07-.42-.11-.05-.02-.09-.05-.14-.07-.41-.25-.75-.55-1.07-.84-.32-.3-.6-.6-.9-.9-.13-.13-.26-.27-.4-.41-.1-.11-.22-.22-.33-.33-.29-.27-.61-.54-.95-.79-.17-.14-.35-.26-.53-.38-.15-.1-.3-.22-.44-.34-.14-.13-.28-.26-.39-.4-.05-.06-.08-.13-.12-.19,0-.1,0-.21-.04-.3-.1-.2-.21-.41-.33-.61-.09-.4-.15-.78-.14-1.22,0-.04,0-.08,0-.13,.04-.61-.09-1.14-.61-1.54-.1-.08-.21-.16-.3-.24-.36-.3-.63-.61-.63-1.14,0-.28,.01-.55,0-.8-.01-.19-.04-.39-.11-.58-.04-.11-.09-.21-.15-.32-.15-.25-.36-.44-.59-.63-.3-.25-.24-.32-.27-.66-.01-.05-.02-.11-.04-.17-.13-.49-.56-1-.81-1.43-.05-.08-.11-.16-.17-.22-.35-.35-.87-.36-1.28-.72-.29-.26-.3-.65-.28-1.06,.02-.2,.02-.39,.02-.57,0-.02,0-.05,0-.08-.01-.16-.04-.33-.08-.49-.06-.22-.14-.45-.25-.66-.19-.36-.43-.7-.71-1.01-.1-.1-.2-.19-.28-.27-.2-.18-.38-.33-.58-.48-.09-.07-.21-.14-.32-.2-.11-.06-.22-.1-.34-.15-.1-.03-.2-.07-.31-.11-.13-.04-.26-.07-.39-.11-.03-.05-.06-.1-.09-.14-.16-.25-.34-.48-.55-.7-.07-.07-.15-.14-.23-.2,0-.03,.02-.07,.02-.1,0-.11-.02-.19-.05-.27-.01-.08-.05-.15-.12-.23-.03-.05-.08-.09-.13-.13-.05-.03-.09-.07-.16-.1-.14-.07-.3-.12-.45-.14-.07,0-.13-.02-.19-.02-.06,0-.13,0-.18-.01-.06,0-.12,0-.18-.01-.06-.01-.12-.02-.17-.04-.06-.02-.12-.03-.18-.07-.03-.01-.07-.03-.1-.05-.03-.02-.07-.03-.11-.05-.05-.02-.11-.05-.17-.07-.13-.05-.28-.08-.43-.11-.14-.02-.28-.05-.41-.06-.25-.03-.48-.05-.65-.03-.03,0-.06,0-.09,0-.01,0-.04,0-.04,0h0s0,0-.02,0c-.02,0-.04,0-.05,0h0s-.09,0-.13,.01c-.18,.02-.38,.06-.55,.13-.17,.07-.33,.16-.46,.27-.05,.04-.1,.08-.14,.13-.17,.17-.29,.38-.37,.63-.04,.13-.06,.32-.09,.5,0,.01,0,.02,0,.04-.15,.08-.29,.16-.44,.23-.02,0-.03,.01-.05,.02-.12-.15-.23-.34-.36-.47-.15-.15-.3-.25-.43-.31-.14-.06-.26-.1-.39-.1-.02,0-.05,0-.09,0-.03,0-.06,0-.1,.01-.06,.01-.13,.03-.18,.05-.36,.11-.49,.43-.66,.7-.05,.09-.12,.17-.19,.24-.01,0-.01,.02-.03,.02-.02,.03-.06,.04-.09,.05-.2,.06-.5-.07-.74-.09-.15-.02-.3-.03-.44-.04-.27,0-.54,0-.79,.05-.22,.04-.46,.18-.67,.38-.09,.09-.17,.21-.24,.31-.04,.05-.06,.09-.09,.13-.17,.26-.29,.43-.38,.75-.03,.09-.05,.18-.08,.29-.05,.21-.1,.42-.14,.63-.02,.08-.04,.15-.06,.23-.64,.46-1.22,.9-1.77,1.44-.04,0-.08,0-.11-.01-.1-.01-.18-.02-.23-.03-.5-.08-.98-.15-1.44-.16-.15,.03-.29,.05-.4,.07-.23,.03-.42,.13-.58,.26-.16,.14-.28,.33-.38,.52-.07,.14-.13,.29-.18,.43-.01,.03-.03,.05-.04,.08-.08,.18-.17,.36-.28,.5-.05,.06-.1,.11-.16,.17-.06,.06-.12,.12-.18,.17-.12,.11-.26,.22-.41,.32,0,.01-.02,.02-.03,.02-.17,.12-.35,.27-.48,.46-.13,.19-.21,.42-.16,.64,.02,.07,.04,.13,.09,.2,.05,.07,.11,.14,.19,.21,.12,.09,.27,.14,.39,.19,.06,.02,.11,.05,.15,.07-.04,.09-.07,.18-.11,.28v.02c-.12,.06-.25,.13-.35,.21-.05,.04-.09,.08-.11,.13-.02,.03-.03,.07-.05,.1-.06,.14-.07,.28-.04,.42,.03,.17,.14,.38,.34,.49,.03,0,.04,.01,.07,.02,.02,.05,.04,.11,.07,.19,.13,.33,.27,.66,.42,.99-.02,.02-.04,.04-.05,.07-.04,.06-.09,.13-.14,.21-.04,.08-.09,.17-.13,.26-.03,.09-.07,.19-.08,.29-.02,.09-.03,.19-.02,.28,.04,.33,.06,.5,.24,.79,.09,.16,.21,.31,.35,.46,.18,.18,.38,.34,.56,.48,.17,.13,.33,.24,.48,.37,.32,.27,.59,.58,.72,1.09,.02,.09,.05,.18,.07,.26,.04,.2,.08,.39,.12,.58,.03,.19,.06,.38,.11,.56,.03,.17,.07,.34,.12,.51,.05,.16,.09,.33,.16,.5,.03,.06,.06,.12,.08,.18,.1,.22,.21,.43,.33,.64,.26,.46,.59,.87,.97,1.21,.07,.06,.14,.13,.22,.19,.28,.21,.59,.38,.93,.5,.18,.06,.43,.09,.65,.13,.26,.04,.5,.1,.65,.25,.04,.04,.06,.08,.07,.12,.03,.1-.02,.22-.09,.34-.11,.18-.29,.37-.37,.57-.18,.47-.07,.94,.13,1.35,.07,.16,.16,.3,.25,.44,.29,.44,.74,.59,1.14,.81,.14,.08,.27,.17,.39,.27,.02,.02,.03,.03,.04,.04,.05,.04,.08,.09,.1,.13,.18,.29,.17,.7,.24,1.04,.05,.21,.1,.42,.17,.62,.05,.19,.12,.39,.19,.58,.04,.09,.08,.19,.12,.28,.02,.08,.06,.17,.1,.25,.06,.14,.15,.3,.27,.45,.1,.17,.24,.33,.39,.49,.15,.14,.3,.28,.45,.41,.06,.05,.12,.1,.18,.15,.18,.15,.33,.29,.49,.41,.16,.12,.32,.23,.52,.34,.12,.06,.25,.13,.39,.2,.54,.28,1.1,.55,1.65,.81,.11,.06,.33,.16,.61,.27,.46,.66,.94,1.33,1.44,2,.01,.22,.03,.42,.04,.59,.01,.13,.02,.25,.02,.32,.03,.36,.06,.7,.1,1.05,.05,.35,.11,.69,.18,1.02,.08,.22,.16,.42,.22,.61,.23,.69,.73,1.17,1.29,1.56,.19,.13,.38,.25,.58,.37,.03,.02,.07,.05,.11,.07,.26,.17,.49,.36,.67,.58,.17,.19,.31,.39,.43,.62,.12,.22,.22,.46,.29,.73,0,.02,.01,.04,.02,.06,.08,.28,.17,.61,.31,.92,.13,.31,.31,.61,.57,.82,.08,.06,.16,.11,.26,.15,.1,.05,.22,.09,.35,.1,.17,.03,.34-.02,.48-.05,.21-.04,.36-.04,.43,.26,.05,.23-.06,.52-.09,.79,0,.08,0,.16,0,.24,.01,.06,.03,.12,.04,.17,.06,.21,.15,.43,.26,.61,.08,.12,.16,.24,.28,.37,.11,.13,.25,.22,.4,.3,.33,.1,.56,.17,.92,.26,.04,0,.09,.02,.13,.03,.05,.08,.1,.17,.14,.25,.09,.14,.18,.29,.26,.44,.05,.08,.16,.18,.23,.28,0,.13,0,.26-.03,.4-.02,.07-.05,.14-.07,.21-.12,.3-.28,.57-.39,.87-.12,.28-.22,.58-.22,.96,0,.07,0,.13,.01,.19,.01,.21,.03,.44,.08,.63,.03,.11,.06,.22,.09,.32,.03,.11,.07,.2,.12,.3,.08,.19,.17,.37,.28,.54,.05,.07,.09,.13,.13,.18,.08,.11,.17,.21,.27,.3,.09,.1,.19,.2,.31,.29,.06,.05,.14,.1,.22,.15,.05,.03,.09,.06,.14,.09,0,.28,0,.59,0,.94-.1,.04-.2,.08-.28,.13-.19,.12-.32,.26-.41,.43-.1,.15-.16,.32-.2,.49-.03,.13-.05,.26-.06,.38-.03,.41,.18,.71,.33,1.05,.05,.12,.09,.24,.11,.37,0,.02,0,.04,0,.05,0,.04,0,.09,0,.14-.05,.27-.31,.51-.46,.76-.09,.15-.18,.31-.26,.48-.16,.3-.28,.63-.37,.96-.03,.14-.05,.32-.06,.5,0,.19,.02,.39,.06,.59,.04,.17,.1,.34,.16,.49,.02,.06,.04,.13,.07,.18,.15,.37,.24,.62,.47,.93,.06,.09,.13,.19,.22,.29,.24,.3,.48,.6,.72,.91,0,.29,0,.57,0,.86,0,.09,.12,.27,.12,.36,0,.09-.1,.18-.1,.27,0,.08,0,.16,0,.25,0,.72,0,1.43,0,2.12-.2,.34-.39,.69-.57,1.04-.05,.18-.1,.35-.16,.5-.19,.55-.07,1.08,.13,1.6,.07,.17,.13,.34,.21,.52,.02,.03,.02,.06,.03,.09,.09,.23,.16,.47,.17,.7,.03,.41-.05,.8-.22,1.23,0,.01-.01,.03-.01,.05-.09,.22-.2,.49-.25,.77-.05,.28-.04,.58,.07,.83,.03,.08,.07,.15,.13,.22,.06,.07,.13,.15,.23,.21,.07,.05,.15,.07,.23,.09,0,.02,0,.04,0,.05,.04,.11,.03,.24,0,.38-.02,.13-.06,.25-.1,.37-.02,.09-.04,.18-.05,.25,0,.1,0,.23,0,.38,0,.12,0,.24,.02,.36,.02,.08,.04,.16,.07,.25,.05,.27,.12,.56,.21,.86,.06,.21,.13,.42,.21,.62,0,0,0,.01,.02,.02,.24,.22,.46,.45,.7,.67,.07,.06,.14,.12,.21,.18,.01,.11,.02,.24,.03,.38,.01,.08,.03,.15,.05,.22,.06,.17,.15,.32,.26,.45,.11,.13,.23,.23,.35,.34,.09,.09,.2,.16,.31,.24,.05,.04,.1,.07,.17,.1,.06,.03,.12,.07,.17,.09,.08,.03,.14,.06,.21,.09,.07,.02,.14,.05,.21,.07,.07,.02,.14,.02,.21,.04,.14,.02,.27,.02,.4,.02,.13-.02,.26-.04,.4-.08,.05-.02,.09-.03,.14-.04,.04,0,.08,.03,.13,.02-.01,.01-.02,.02-.04,.03,.05,0,.08,0,.1,.02,.08-.02,.25-.03,.28-.04h.01c.21,.09,.41,.26,.62,.41,.06,.04,.12,.08,.18,.12,.67,.39,1.32,.76,2,.93,.15,.04,.31,.08,.47,.09,.17,.02,.34,.03,.53,.03h.01c.47-.02,.94-.06,1.44-.19,.04-.01,.09-.03,.13-.04,.23-.07,.46-.15,.68-.19,.11,0,.21,.01,.32,.01,.07,0,.14,0,.22,0,.09,.03,.19,.07,.28,.14,.25,.18,.5,.38,.78,.55,.11,.06,.22,.12,.33,.17,.12,.04,.24,.09,.37,.12,.13,.02,.26,.04,.4,.03,.07,0,.13,0,.2-.02,.03-.01,.07-.02,.1-.02,.03,0,.06-.02,.09-.03,.23-.07,.47-.24,.7-.44,.13-.12,.25-.24,.36-.37,.09-.11,.17-.23,.24-.34,.12-.2,.21-.53,.37-.68,.01,0,.03-.01,.04-.02,.04-.03,.09-.05,.14-.06h.04c.15-.02,.32,.02,.48,.04,.15,.02,.29,.04,.44,.06,.43,.06,.83,.14,1.25,.16,.18,.01,.37,0,.55,0,.2-.01,.4-.05,.59-.09,.2-.05,.39-.13,.59-.22,.53-.27,1.02-.61,1.41-1.02,.1-.1,.2-.2,.28-.31,.09-.1,.18-.22,.25-.32,.15-.21,.3-.44,.44-.67,.06-.11,.12-.21,.18-.32,.13-.14,.29-.31,.43-.48,.15-.17,.27-.33,.35-.46,.21-.15,.4-.33,.57-.53,.15-.4,.22-.84,.26-1.28,0,0,0,0,0-.01,0,0,0-.02,.01-.03,.03-.1,.06-.19,.09-.28,.12-.37,.2-.75,.24-1.13,.02-.17,.04-.35,.03-.52,0-.15,0-.29-.02-.43-.04-.36-.15-.73-.32-1.07-.09-.18-.19-.35-.3-.51-.13-.18-.25-.36-.35-.56-.05-.41-.09-.85-.14-1.33,.08-.35,.21-.66,.43-1,.02-.03,.04-.06,.06-.1,.31-.48,.43-.94,.1-1.41-.07-.09-.14-.19-.2-.28-.22-.33-.36-.67-.12-1.1,.13-.22,.26-.43,.36-.64,.07-.16,.13-.32,.15-.5,.01-.09,0-.19,0-.3-.03-.25-.16-.46-.29-.68-.2-.29-.1-.32,.01-.61,.02-.05,.03-.1,.05-.14,.08-.44-.13-1-.21-1.42-.02-.09-.05-.16-.08-.23-.22-.39-.73-.52-1-.92-.02-.03-.02-.07-.04-.1,0-.12-.02-.24-.03-.36,.04-.15,.13-.3,.23-.45,.1-.14,.21-.29,.29-.42,.01-.02,.03-.04,.03-.06,.07-.12,.13-.25,.17-.39,.06-.18,.09-.37,.1-.57,.01-.35-.04-.72-.14-1.05-.04-.11-.07-.2-.12-.29-.17-.4-.35-.73-.62-1.07-.06-.07-.12-.15-.18-.23-.04-.05-.08-.1-.12-.16,0-.04,0-.08,0-.12,0-.14-.02-.28-.03-.41,0-.1-.05-.15-.09-.22,.02-.07,.05-.13,.07-.19,.11-.24,.2-.44,.36-.71,.03-.07,.07-.15,.09-.22,.13-.37,.16-.71,.2-1.04,.03-.26,.05-.53,.05-.8,0-.08,0-.16,0-.24,0-.15-.02-.3-.05-.44-.06-.28-.15-.53-.29-.8-.02-.05-.05-.09-.08-.14-.09-.16-.11-.32-.08-.48,.02-.13,.07-.27,.13-.4,.07-.13,.13-.26,.2-.39,.04-.07,.07-.13,.1-.2,.07-.19,.16-.37,.24-.54,.09-.17,.17-.35,.25-.51,.09-.17,.17-.34,.26-.45,.01-.03,.03-.06,.05-.1,0-.02,.02-.03,.03-.04,.01-.02,.02-.04,.03-.05,.05-.07,.09-.13,.13-.2,.03-.06,.08-.13,.11-.2,.04-.07,.07-.13,.12-.21,.09-.17,.16-.33,.22-.52,0,0,0,0,0-.01,.17-.49,.34-1.05,.32-1.62,0-.05,0-.09-.01-.14-.03-.28-.06-.57-.02-.84,.03-.27,.15-.52,.41-.71,.25-.2,.54-.37,.81-.56,.2-.13,.41-.27,.58-.45,.17-.18,.32-.38,.41-.63,.05-.12,.09-.25,.1-.4,.02-.14,.03-.3,.03-.45,0-.18-.01-.36-.03-.53-.02-.15-.05-.3-.09-.42-.07-.23-.24-.54-.24-.77,0-.02,0-.03,.01-.05,.03-.24,.27-.38,.44-.55,.13-.1,.24-.21,.36-.32,.34-.3,.68-.59,.99-.9,.13-.13,.27-.26,.4-.4,.27-.3,.51-.62,.7-1.01,.26-.53,.51-1.05,.69-1.61,.09-.27,.17-.55,.25-.83,.07-.28,.14-.56,.2-.84,.04-.21,.08-.41,.11-.61,.17-.29,.35-.57,.51-.87,.04-.07,.08-.14,.12-.2,.08-.14,0-.46,.07-.59,.12-.21,.39-.24,.51-.45,.13-.23,.26-.47,.39-.7,.47-.4,.91-.83,1.28-1.31,.12-.15,.23-.31,.33-.47,.09-.14,.16-.28,.24-.42,.18-.36,.3-.76,.38-1.17,.03-.21,.05-.43,.06-.63,0-.08,0-.17,.01-.25,.21-.4,.42-.79,.63-1.19,.15-.3,.31-.59,.47-.89,.18-.14,.37-.27,.59-.39,.04-.02,.07-.03,.11-.05,.54-.27,.92-.63,.95-1.24,0-.12,.01-.24,.02-.36,.04-.43,.16-.82,.61-1.08,.25-.14,.47-.25,.68-.39,.16-.1,.31-.22,.44-.38,.06-.08,.13-.18,.18-.28,.13-.23,.17-.49,.2-.76,.04-.37,.13-.34,.4-.53,.05-.03,.09-.07,.13-.11,.17-.17,.3-.41,.42-.65,.11-.24,.2-.49,.33-.68,.04-.08,.07-.16,.09-.24,.12-.45-.15-.89-.06-1.4,.07-.36,.41-.55,.77-.7,.18-.08,.36-.15,.51-.24,.02-.01,.05-.02,.07-.03,.14-.08,.26-.18,.39-.3,.08-.07,.16-.16,.23-.24,.07-.09,.14-.18,.2-.28,.05-.09,.11-.17,.16-.26,.05-.09,.09-.19,.13-.29,.04-.1,.08-.19,.11-.29,.03-.1,.06-.2,.08-.31,.02-.13,.05-.25,.05-.38,.02-.26,.04-.5,0-.75-.02-.12-.03-.24-.06-.35-.02-.12-.07-.23-.11-.34l-.03-.07c.05-.19,.09-.37,.12-.56,.09-.08,.17-.16,.28-.24,.04-.03,.08-.06,.12-.08,.05-.04,.09-.09,.13-.13,.16-.18,.25-.37,.29-.54,.02-.14,.04-.29,.06-.44,0-.06,.01-.11,.02-.17,0-.04,0-.08,0-.12,.01-.12,0-.25,0-.37Zm-54.92-7.42h0Z"/></clipPath><clipPath id="uuid-6d362ca8-e0b7-4ba0-8934-b8262af0324a"><path class="uuid-cb17cdf2-57eb-49f4-83c8-5c482ddd7679" d="M769.32,114.23c.02-.25,.02-.5-.03-.73,0-.01,0-.02,0-.03-.02-.1-.04-.19-.05-.29-.07-.49-.08-.98-.2-1.5-.15-.66-.47-1.26-.69-1.88-.12-.32-.22-.65-.37-.96-.14-.3-.33-.45-.5-.68-.18-.24-.28-.43-.5-.64-.24-.25-.44-.53-.7-.77-.06-.06-.13-.12-.19-.18-.09-.07-.19-.15-.28-.22-.13-.1-.28-.18-.39-.29-.16-.14-.26-.3-.45-.44-.02-.02-.05-.04-.08-.06-.48-.34-1.01-.64-1.51-.99-.24-.16-.52-.33-.77-.43-.29-.12-.44-.3-.73-.43-.54-.25-1.3-.4-1.89-.49-.67-.09-1.32-.18-1.99-.18-.59,0-1.35-.15-1.89,.07-.1,.04-.21,.08-.32,.12-.06,.02-.11,.05-.16,.08-.07,.05-.13,.1-.22,.12-.09,.02-.25-.01-.34,0-.65,.17-1.29,.35-1.93,.57-.31,.11-.62,.22-.93,.33-.28,.1-.62,.19-.86,.38-.11,.09-.22,.21-.34,.3-.05,.03-.1,.07-.16,.09-.05,.02-.09,.04-.13,.05-.2,.08-.38,.13-.59,.29-.25,.19-.47,.42-.68,.65-.43,.48-.81,1.01-1.17,1.55-.16,.24-.31,.48-.41,.75,0,.01,0,.02-.02,.03-.06,.16-.1,.28-.15,.39-.04,.09-.08,.16-.16,.24-.06,.07-.13,.13-.19,.19-.37,.43-.44,1.11-.58,1.64-.32,1.25-.59,2.62-.54,3.87,.03,.71,.21,1.5,.44,2.26,.08,.27,.17,.53,.26,.79,.06,.16,.12,.32,.18,.47,.06,.16,.13,.31,.2,.46,.4,.92,.92,1.83,1.55,2.62,.17,.21,.31,.41,.46,.59,.16,.19,.33,.37,.56,.52,.01,0,.02,.01,.03,.02,.59,.38,1.2,.77,1.82,1.1,.63,.34,1.26,.72,1.91,1.02,.3,.14,.62,.29,.94,.39,.27,.08,.7,.06,.88,.25,.36,.02,.73,.04,1.09,.07h.14c.54,.05,1.09,.28,1.63,.23,.41-.04,.81-.15,1.22-.2,.21-.02,.44-.06,.65-.09,.45-.08,.91-.18,1.37-.25,.49-.08,1.05-.15,1.5-.42,.04-.03,.09-.05,.13-.08,.48-.38,.86-.89,1.33-1.31,.21-.19,.47-.31,.68-.5,.23-.19,.35-.44,.61-.6,.04-.02,.08-.04,.12-.06,.13-.07,.24-.13,.36-.21,.08-.06,.16-.12,.23-.21,.03-.04,.07-.08,.1-.12,.2-.25,.38-.5,.56-.76,.37-.55,.7-1.16,.94-1.77,.07-.17,.09-.35,.13-.53,.03-.11,.06-.21,.11-.31,.02-.03,.04-.07,.06-.11,.03-.05,.06-.1,.09-.16,.06-.1,.11-.21,.16-.33,.03-.07,.06-.14,.08-.22,.2-.63,.33-1.29,.42-1.95,.05-.37,.13-.78,.16-1.16Z"/></clipPath><clipPath id="uuid-77c76b02-5b8b-4e8d-a1a4-bcc20cc43850"><path class="uuid-cb17cdf2-57eb-49f4-83c8-5c482ddd7679" d="M799.42,53.95c0-.11,0-.23,.01-.33,0-.13,.02-.26,.04-.39,.02-.1,.04-.2,.06-.3,.01-.04,.02-.08,.04-.12,0-.02,0-.03,.02-.05,.18-.59,.36-1.2,.51-1.82,.4-1.6,.66-3.28,.58-4.93-.03-.57-.09-1.14-.18-1.72-.02-.1-.15-.24-.17-.34-.02-.13,.07-.22,.05-.34-.33-1.77-.87-3.55-1.29-5.27-.3-1.18-.55-2.34-1.2-3.4-.04-.07-.08-.13-.12-.19-.08-.11-.16-.21-.24-.31-.1-.11-.19-.21-.29-.31-.1-.1-.2-.2-.3-.3-.12-.12-.23-.24-.35-.37-.38-.43-.65-1.08-.91-1.63-.54-1.16-1.14-2.23-1.82-3.25-.76-1.15-1.61-2.23-2.56-3.34-.81-.94-1.85-1.41-2.69-2.2-.09-.09-.18-.18-.27-.27-.02-.03-.04-.05-.06-.07-.09-.11-.19-.22-.28-.33-.77-.88-1.63-1.76-2.5-2.55-1.94-1.73-3.97-3.38-5.93-5.13-.07-.06-.15-.13-.22-.19-2.55-2.3-5.39-4.44-8.47-5.91-.29-.14-.57-.28-.86-.42-.14-.07-.28-.13-.43-.2-.1-.04-.19-.09-.29-.13-.11-.04-.23-.09-.35-.13-.06-.02-.11-.04-.16-.07-.52-.22-.9-.57-1.35-.88-.65-.45-1.35-.88-2.06-1.29-.14-.08-.27-.15-.41-.23-.13-.07-.26-.15-.39-.22-.23-.13-.46-.25-.7-.37-1.31-.69-2.7-1.21-4.02-1.8-.68-.3-1.34-.67-2.01-1.01-.13-.06-.26-.13-.39-.19-.15-.07-.3-.14-.46-.21-.21-.08-.41-.17-.62-.24-1.26-.41-2.55-.54-3.8-.88-.08-.02-.17-.04-.25-.07-.49-.14-.9-.24-1.34-.26-.23-.01-.43-.01-.63,.01-.23,.03-.46,.05-.77,.08-.46,.07-.94,.33-1.25,.53-.33,.21-.62,.44-.87,.72-.13,.14-.24,.28-.34,.44-.03,.04-.05,.09-.07,.13-.05,.1-.08,.21-.12,.32-.03,.11-.08,.22-.13,.32,0,0-.01,.01-.02,.02-.16,.24-.48,.33-.66,.51-.43,.43-.64,1.12-.88,1.66-.36,.81-.23,1.53-.23,2.31,0,.12,0,.23-.01,.34-.01,.15-.03,.31-.06,.47-.21,1.15-.6,2.35-.8,3.53-.15,.91-.29,1.94-.35,2.95,0,.13-.23,.17-.24,.3-.01,.37-.01,.75,.01,1.11,.02,.3,.06,.61,.11,.91,.1,.61,.27,1.2,.54,1.75,.25,.51,.57,.92,.92,1.37,.04,.04,.07,.09,.11,.14,.19,.23,.3,.44,.4,.65,.04,.03,.08,.07,.12,.1,.17,.15,.33,.31,.49,.46,.29,.27,.6,.53,.99,.7,.03,.01,.07,.03,.11,.04,.28,.1,.56,.1,.85,.12,.15,.01,.3,.03,.45,.07,.03,0,.06,.02,.09,.03,.14,.05,.29,.12,.44,.21,.31,.18,.64,.4,.94,.54,.51,.22,1,.37,1.54,.45,.39,.05,.84,.03,1.23,.1,.14,.03,.27,.07,.38,.12,.06,.03,.11,.06,.16,.08,.17,.09,.32,.2,.47,.3,.22,.15,.45,.29,.73,.4,.43,.16,.87,.33,1.3,.53,.14,.06,.28,.13,.42,.2,.14,.07,.29,.13,.43,.21,.09,.04,.17,.08,.26,.12,.16,.07,.31,.15,.46,.22,1.65,.79,3.29,1.59,4.88,2.48,1.27,.7,2.49,1.61,3.65,2.61,.91,.78,1.78,1.62,2.6,2.47,1.79,1.84,3.43,3.81,5.3,5.58,.06,.06,.13,.12,.2,.18,.05,.05,.11,.1,.16,.15,.03,.03,.06,.05,.09,.08,.55,.5,1.22,1.12,1.8,1.76,.35,.37,.66,.75,.9,1.11,.03,.05,.08,.11,.11,.18,.04,.06,.07,.11,.1,.15,.15,.24,.15,.29,.13,.38-.02,.07-.06,.17-.08,.41,0,.01,0,.02,0,.03-.01,.2,0,.43,.05,.66,.02,.12,.04,.24,.07,.36,.02,.09,.04,.18,.06,.27,.04,.18,.08,.35,.11,.5,.01,.04,.01,.07,.02,.1,.05,.27,.08,.52,.06,.73,0,.07-.01,.14-.02,.2-.02,.11,0,.29-.03,.39-.03,.1-.1,.11-.15,.21-.04,.09-.08,.17-.13,.26-.05,.08-.09,.15-.14,.23-.1,.14-.2,.28-.31,.43-.05,.07-.11,.15-.16,.23,0,0,0,.02-.01,.02-.06,.08,.02,.26-.07,.34-.05,.04-.24-.03-.29,.01-.08,.07-.17,.13-.27,.2-.22,.13-.46,.26-.72,.38-.12,.05-.25,.11-.37,.15-.06,.03-.1,.25-.17,.27-.1,.04-.22-.12-.32-.08-.49,.17-.97,.32-1.33,.44-.59,.19-1.19,.33-1.8,.43-.11,.02-.24,.03-.36,.05-.42,.05-.84,.07-1.25,.07-.08,0-.16-.01-.24-.02-.22-.05-.44-.11-.66-.16-.26-.05-.52-.09-.78-.13-.3-.04-.61-.09-.92-.13-.02,0-.03,0-.05-.01h0c-.28-.03-.57-.06-.84-.06-.25,0-.49,.05-.72,.08-.07,.01-.14,.02-.21,.02-.11,0-.23,0-.35-.02-.06-.01-.12-.03-.18-.05-.07-.02-.14-.05-.21-.08-.15-.07-.3-.15-.47-.2-.32-.07-.65-.06-.98-.04-.19,0-.38,.03-.56,.05-.18,.03-.35,.06-.53,.1-.24,.06-.47,.13-.71,.21-.15,.05-.3,.12-.44,.2-.09,.05-.17,.1-.27,.16-.17,.12-.27,.26-.45,.36-.07,.04-.13,.07-.19,.09-.11,.06-.21,.1-.33,.21-.16,.16-.29,.32-.47,.48-.18,.17-.51,.47-.75,.74-.12,.21-.19,.3-.27,.52-.1,.26-.18,.53-.23,.82,0,.02,0,.04-.01,.07-.02,.1-.04,.2-.05,.31-.01,.13-.03,.26-.04,.4-.04,.37-.06,.76-.12,1.12-.04,.22-.09,.43-.17,.63-.03,.07-.06,.15-.1,.22-.03,.05-.05,.1-.09,.14-.25,.4-.45,.65-.54,1.17-.1,.52-.17,1.03-.24,1.54-.12,1-.29,2-.25,2.99,.02,.32,.06,.7,.04,1.04-.01,.1-.02,.2-.05,.29-.01,.06-.04,.12-.06,.18-.04,.09-.1,.18-.15,.26-.05,.07-.1,.15-.15,.22-.07,.12-.14,.24-.18,.39-.23,.84-.3,1.76-.41,2.63,0,.09-.02,.18-.04,.27-.12,.87-.22,1.84-.17,2.7,0,.04,0,.09,0,.12,0,.17-.02,.3-.05,.42-.02,.09-.06,.18-.1,.27-.03,.06-.06,.12-.09,.18-.04,.08-.09,.18-.14,.28-.17,.37-.2,.97-.27,1.41-.14,1.11-.31,2.22-.47,3.32-.28,1.86-.55,3.71-.68,5.59,0,.06,0,.11-.01,.17,0,.1-.01,.19-.03,.29-.01,.13-.04,.27-.07,.4-.02,.12-.04,.24-.07,.36-.11,.48-.23,.94-.29,1.45-.01,.09-.02,.17-.03,.26-.07,.92-.06,1.84-.13,2.78,0,.07-.01,.14-.02,.21-.01,.15-.04,.31-.06,.46-.02,.13-.04,.25-.07,.38-.12,.59-.3,1.18-.44,1.75-.24,.97-.24,1.93-.32,2.86-.04,.54,.04,1.05,.08,1.57,.02,.17,.02,.35,.03,.52,0,.13,0,.26-.01,.4,0,.05-.01,.1-.02,.15,0,.03-.01,.06-.02,.1-.02,.13-.04,.26-.07,.39-.05,.24-.06,.72,.09,.99,.05,.08,.08,.13,.1,.16,.21,.32,.32,.5,.61,.85,.12,.14,.25,.27,.38,.4,.05,.04,.1,.09,.16,.13,.13,.11,.26,.23,.4,.33,.16,.12,.33,.25,.51,.37,.57,.37,1.19,.66,1.86,.8,.18,.04,.29-.04,.45-.07t.01,0c.13-.02,.25,.03,.37,.07,.09,.04,.18,.08,.28,.11,.05,.02,.11,.05,.16,.08,.23,.1,.45,.21,.69,.29,.56,.17,1.13,.36,1.7,.52,.41,.11,.82,.21,1.23,.29,.43,.08,.92,.13,1.33-.01,.15-.05,.3-.07,.44-.08,.05,0,.1,0,.15,0,.11,0,.22,0,.35,.01,.01,0,.02,0,.04,0,.13,0,.26,0,.4,.01,.47,.01,.94,.01,1.42,0,.17,0,.35,0,.52-.01,.04,0,.08,0,.12,0,.09,0,.18-.01,.27-.02,.21-.01,.42-.04,.63-.09,.21-.04,.41-.1,.61-.18,.07-.03,.14-.05,.21-.08,.42-.36,.76-.8,1.08-1.26,.17-.26,.32-.52,.47-.79,.25-.45,.46-.91,.66-1.33,.03-.07,.06-.14,.09-.21,.07-.18,.15-.36,.21-.54,.06-.19,.12-.37,.16-.56,.14-.5,.25-1.01,.39-1.51,.12-.48,.12-.9,.12-1.36,0-.05,0-.09,0-.13,.01-.15,.04-.28,.07-.41,.03-.14,.08-.27,.13-.4,.04-.11,.08-.23,.12-.35,.43-1.3,.84-2.65,1.22-3.99,.23-.82,.45-1.64,.66-2.46,.05-.21,.1-.42,.15-.62,.04-.13,.07-.27,.1-.41,.03-.13,.06-.27,.09-.4,.06-.27,.12-.55,.18-.83,.12-.65,.3-1.3,.46-1.95,.08-.32,.15-.64,.22-.96,.1-.53,.32-1.05,.36-1.57,0-.12,.01-.25,.02-.38,0-.07,0-.14,0-.2,0-.1,0-.2,0-.31,0-.15,0-.3,.01-.44v-.02c.07-.99,.5-2.06,.79-3,.04-.15,.09-.3,.13-.44,.35-1.17,.64-2.39,.89-3.6,.18-.23,.4-.41,.68-.52,.17-.07,.38-.11,.6-.11,.3,0,.57,.07,.84,.18,.2,.08,.4,.17,.6,.25,.02,0,.05,.01,.08,.03,.34,.11,.68,.12,1.01,.09,.26-.04,.52-.09,.78-.15,1.08-.25,2.1-.66,3.15-.94,.11-.03,.21-.06,.32-.08,.04-.01,.07-.02,.11-.03,.03,0,.06-.01,.1-.02,.13-.03,.27-.06,.4-.09,.83-.2,1.67-.41,2.46-.76,1.08-.48,2.19-.97,3.14-1.65,.29-.21,.6-.47,.93-.68,.11-.07,.23-.14,.34-.19,.06-.03,.11-.05,.18-.08,0,0,0,0,.01,0,.11-.05,.21-.08,.31-.12,.09-.03,.18-.07,.26-.11,.3-.13,.56-.3,.87-.6,.88-.86,1.81-1.73,2.55-2.7,.31-.41,.38-.92,.59-1.37,.05-.1,.1-.19,.17-.29,.32-.46,.73-.89,1.04-1.36,.6-.87,1.36-1.91,1.62-3.02,.15-.61,.1-1.26,.11-1.88Z"/></clipPath><clipPath id="uuid-8ed36cf2-6e2d-4cfa-ba05-bad163f33610"><path class="uuid-cb17cdf2-57eb-49f4-83c8-5c482ddd7679" d="M728.83,79.87c-.07-.33-.15-.64-.24-.94-.05-.15-.1-.3-.15-.44-.05-.14-.1-.28-.16-.44-.02-.06-.04-.11-.06-.17-.05-.11-.09-.22-.14-.32,0-.34,0-.67-.02-1.02-.02-.41-.1-.8-.19-1.18,.05-.19,.09-.38,.14-.56,.03-.14,.07-.27,.1-.41,.04-.13,.07-.25,.09-.37,.06-.25,.09-.51,.09-.82-.01-.29-.09-.67-.2-1.04-.06-.21-.14-.43-.24-.62-.08-.18-.17-.33-.25-.45-.08-.12-.2-.23-.3-.35-.09-.09-.17-.19-.24-.29-.02-.23-.06-.46-.08-.69,.01-.09,.03-.19,.04-.28,.02-.19,.04-.38,.06-.57,.06-.54,.1-1.08,.12-1.61,0-.23,.01-.46,0-.69,0-.13,0-.25-.02-.37,0-.12,0-.25-.02-.37-.02-.25-.06-.5-.11-.76-.13-.71-.31-1.42-.5-2.11-.1-.34-.2-.68-.31-1.02-.11-.34-.23-.67-.36-1-.1-.25-.19-.49-.29-.73-.1-.24-.21-.47-.31-.7-.07-.13-.13-.28-.19-.41-.09-.21-.16-.41-.2-.61v-.02c-.04-.22-.05-.42-.04-.64,0-.22,.03-.45,.07-.7,.04-.25,.07-.51,.1-.76,.02-.26,.03-.53,.02-.79-.02-.53-.11-1.06-.25-1.58-.07-.23-.14-.47-.23-.69-.07-.19-.15-.37-.24-.56-.22-.45-.51-.89-.85-1.27-.17-.2-.35-.38-.53-.54-.23-.2-.45-.41-.66-.64-.07-.16-.14-.32-.22-.48-.15-.3-.29-.59-.43-.89-.06-.13-.13-.26-.2-.39-.02-.08-.04-.16-.05-.24-.02-.08-.03-.16-.04-.24,0-.07-.01-.15-.02-.24,0-.16,0-.32,0-.48,0-.04,0-.09,0-.14,.04-.35,.04-.65-.02-.96-.06-.3-.2-.59-.43-.87-.09-.11-.18-.22-.27-.33-.31-.41-.55-.84-.5-1.46,.03-.33,.05-.64,.04-.95,0-.24-.05-.48-.12-.72-.04-.14-.09-.28-.17-.41-.16-.32-.39-.55-.64-.79-.32-.32-.25-.39-.32-.8-.01-.07-.03-.13-.05-.2-.19-.58-.7-1.2-1.02-1.69-.06-.1-.13-.18-.19-.24-.4-.4-.92-.4-1.38-.8-.08-.07-.14-.15-.19-.24h0c-.14-.28-.17-.62-.17-.96,0-.22,0-.44,0-.63,0-.03,0-.06,0-.08,0-.05,0-.09-.01-.14,0-.05-.02-.1-.03-.15-.02-.1-.05-.21-.08-.31-.04-.14-.1-.27-.16-.41-.06-.13-.12-.26-.2-.39-.25-.44-.58-.83-.92-1.16-.11-.1-.22-.19-.33-.27-.44-.35-.86-.65-1.36-.85-.11-.04-.22-.09-.33-.13-.06-.03-.13-.04-.19-.06-.01-.02-.03-.03-.04-.05-.31-.43-.58-.77-.93-1.07-.18-.16-.34-.28-.52-.39-.09-.05-.18-.11-.28-.17,0-.14-.03-.28-.08-.38-.14-.25-.23-.39-.48-.53-.07-.04-.14-.07-.22-.09-.08-.03-.16-.04-.24-.05-.23-.02-.44,0-.62,.05-.16,.04-.31,.1-.45,.16-.3,.13-.58,.25-1.01,.24-.08,0-.16,0-.23,0-.33-.01-.66-.03-.96-.05-.28-.01-.5-.06-.8-.03-.05,0-.1,.02-.16,.02-.04,0-.09,0-.14,.02-.05,.01-.1,.02-.15,.02-.05,.01-.1,.02-.15,.03-.05,.01-.1,.03-.15,.04-.05,.02-.11,.03-.17,.04-.06,.02-.12,.04-.17,.06-.06,.03-.12,.05-.18,.08-.06,.03-.11,.06-.17,.09-.11,.06-.24,.16-.35,.25-.03,.02-.05,.05-.08,.07-.02,.02-.04,.04-.06,.07-.04,.04-.07,.09-.11,.14-.05,.07-.1,.14-.15,.21-.09,.13-.15,.27-.21,.42-.05,.14-.09,.29-.12,.45v.02c-.3,.3-.54,.64-.8,.97-.09-.06-.17-.12-.26-.15-.41-.15-.8-.05-1.13,.13-.12,.07-.24,.15-.34,.23-.32,.27-.39,.66-.54,1.01-.06,.13-.1,.23-.18,.33,0,0-.02,.02-.03,.03-.03,.03-.07,.06-.1,.08-.23,.11-.56,.04-.84,.05-.17,0-.34,.02-.52,.03-.32,.03-.65,.09-.97,.18-.27,.08-.6,.27-.9,.56-.14,.14-.27,.29-.38,.43-.05,.06-.09,.12-.14,.19-.07,.1-.13,.18-.2,.27-.06,.1-.12,.18-.17,.27-.06,.1-.11,.2-.15,.3-.03,.1-.06,.2-.08,.31-.03,.12-.05,.26-.07,.41-.04,.29-.03,.57-.03,.83,0,.13,0,.27,0,.4,0,.07,0,.13,0,.2,0,.06-.01,.13-.02,.2,0,.07-.02,.19-.04,.34-.12,.19-.24,.37-.34,.56-.25,.46-.44,.94-.57,1.43-.05,.06-.1,.11-.15,.16-.08,.09-.13,.15-.18,.19-.19,.22-.34,.49-.47,.78-.12,.28-.22,.57-.3,.88-.02,.2-.04,.4-.06,.57-.04,.32,0,.61,.09,.88,.05,.14,.09,.26,.16,.39,.03,.07,.06,.12,.09,.19,.04,.07,.08,.14,.12,.22,.06,.1,.12,.19,.19,.28,.07,.09,.14,.17,.21,.25,.02,.03,.04,.06,.07,.09,.1,.1,.18,.21,.26,.31,.09,.1,.16,.2,.23,.3,.24,.36,.42,.75,.51,1.22,0,.02,0,.03,0,.05,.02,.12,.04,.25,.07,.39,.04,.14,.09,.3,.16,.45,.07,.14,.15,.29,.26,.41,.05,.06,.11,.12,.17,.17,.06,.04,.13,.08,.19,.12,.08,.04,.16,.07,.25,.07,.1,.01,.21,.01,.31,0,.02,0,.04-.02,.06-.02,.18,.27,.38,.52,.6,.76,.18,.18,.39,.36,.6,.55,0,.14,0,.28,0,.46,0,.09,.02,.19,.04,.27,.09,.46,.28,.84,.44,1.2,.13,.29,.28,.57,.44,.85,.05,.08,.09,.16,.14,.24,.1,.16,.19,.3,.29,.43,.2,.27,.41,.5,.68,.72,.05,.04,.09,.08,.14,.11,.17,.13,.27,.29,.33,.47,.11,.3,.13,.65,.17,.99,0,.08,.02,.17,.04,.26,.09,.47,.16,.94,.25,1.4,.05,.22,.08,.45,.13,.67,.05,.22,.1,.44,.16,.66,.06,.21,.12,.41,.2,.61,.08,.22,.17,.43,.28,.64,0,0,.01,.01,.01,.02,.15,.27,.28,.54,.44,.8,.16,.26,.33,.51,.52,.75,.04,.04,.07,.08,.1,.13,.2,.26,.41,.52,.55,.8,.15,.29,.24,.6,.19,.97-.05,.37-.15,.74-.22,1.09-.06,.27-.1,.53-.14,.81-.02,.27-.02,.55,.04,.85,.06,.29,.19,.62,.35,.95,.09,.19,.19,.37,.3,.54,.09,.14,.19,.28,.28,.39,.17,.21,.45,.43,.56,.68,0,.02,.01,.04,.02,.06,.09,.28-.02,.56-.08,.83-.04,.18-.08,.37-.12,.54-.12,.51-.24,1.01-.34,1.52-.04,.22-.07,.44-.09,.67-.02,.24-.04,.48-.04,.74,0,.12,0,.25,.01,.38,0,.13,.02,.26,.05,.4,.1,.74,.28,1.44,.5,2.11,.21,.65,.47,1.29,.72,1.91,.1,.24,.2,.47,.28,.71,.05,.12,.1,.23,.14,.35,.05,.12,.09,.24,.13,.36,.05,.14,.1,.29,.14,.43,.04,.11,.07,.23,.08,.34,.02,.1,.03,.21,.02,.32,0,.23-.03,.47-.12,.7-.08,.24-.23,.48-.43,.66-.21,.19-.42,.3-.63,.42-.11,.06-.21,.12-.3,.19-.05,.03-.1,.07-.15,.12-.02,.02-.05,.05-.07,.07-.02,.02-.05,.05-.07,.07-.17,.19-.32,.4-.46,.57-.07,.08-.14,.15-.21,.21-.03,.02-.07,.05-.1,.08-.04,.03-.09,.07-.14,.1-.17,.14-.34,.28-.51,.45-.07,.07-.14,.14-.21,.21-.02,.02-.03,.04-.05,.05,0,.01-.02,.02-.02,.03,0,0-.01,.01-.02,.02-.02,.02-.05,.05-.07,.07-.11,.11-.23,.22-.38,.33-.14,.1-.31,.21-.5,.3-.19,.09-.39,.18-.6,.26-.11,.05-.23,.07-.35,.11-.09-.02-.18-.03-.27-.05-.13-.03-.27-.07-.4-.11-.07-.01-.24,.13-.31,.11-.11-.03-.11-.24-.21-.27-.48-.17-.93-.34-1.29-.47-.16-.16-.31-.34-.45-.55-.02-.04-.05-.07-.08-.11-.36-.56-.78-.94-1.41-1.05-.13-.02-.26-.04-.38-.08-.23-.05-.43-.13-.62-.26-.18-.13-.33-.32-.42-.58-.09-.28-.13-.53-.18-.76-.01-.09-.03-.18-.05-.26-.02-.08-.04-.17-.07-.24-.03-.09-.06-.18-.11-.26-.02-.05-.05-.1-.08-.15-.02-.05-.07-.09-.09-.13-.05-.08-.14-.15-.2-.26-.04-.07-.08-.13-.09-.18-.02-.05-.02-.1,0-.15,.01-.09,.06-.17,.11-.34,.02-.05,.03-.11,.04-.17,.02-.13,.03-.28,.03-.44,0-.08,0-.16,0-.25,0-.08,0-.17-.02-.27-.01-.09-.02-.18-.03-.27-.01-.09-.03-.19-.04-.29,0-.04-.02-.09-.02-.14,0-.04-.02-.09-.02-.13-.02-.08-.03-.15-.04-.22-.02-.11-.05-.21-.09-.31-.18-.44-.53-.67-.79-1.05-.04-.39-.09-.79-.17-1.17,.03-.09,.05-.18,.08-.27,.07-.21,.14-.4,.2-.6,0-.02,.01-.05,.02-.08,.04-.17,.07-.36,.08-.55,0-.13,0-.26,0-.39,0-.14,0-.25-.02-.38-.02-.22-.05-.44-.1-.65-.03-.11-.05-.22-.08-.33-.01-.06-.03-.11-.04-.17,0-.03-.02-.05-.02-.08,0-.01,0-.03-.02-.05l-.03-.05s-.02-.05-.02-.07c0-.03-.01-.05-.02-.07-.01-.03-.01-.05-.02-.08-.03-.12-.05-.27-.08-.42-.01-.11-.02-.21-.04-.31-.02-.11-.04-.22-.06-.31-.03-.07-.06-.14-.08-.21-.03-.07-.07-.13-.13-.18-.08-.09-.18-.14-.29-.19-.02-.09-.05-.17-.07-.26,.08-.1,.16-.2,.24-.33,.1-.18,.18-.4,.18-.61,0-.19-.02-.34-.05-.49-.02-.08-.04-.15-.07-.23-.03-.08-.08-.17-.13-.26-.13-.19-.28-.38-.5-.53-.08-.06-.17-.1-.25-.13-.2-.07-.38-.13-.56-.18-.22-.06-.44-.11-.65-.18-.22-.07-.44-.14-.66-.25-.11-.05-.21-.11-.32-.17-.11-.06-.23-.14-.37-.19-.03-.01-.06-.01-.08-.02-.07-.01-.15-.03-.23-.03-.06,0-.12-.01-.18-.01-.06,0-.12,0-.18,.02-.06,0-.12,0-.18,.03-.06,.01-.12,.03-.18,.04-.23,.07-.44,.14-.61,.17-.04,0-.07,0-.11,.01-.03,0-.06,0-.09,0-.03,0-.06,0-.09,0-.03-.01-.06-.01-.08-.02-.03,0-.06-.02-.09-.02-.02,0-.05-.02-.07-.03,0,0,0-.01-.02-.01-.02,0-.03,0-.05,0-.04,0-.07-.01-.11-.01-.07,0-.15,0-.22,0-.11,0-.2,.01-.31,.02-.34,.05-.64,.14-.92,.25-.6,.24-1.07,.54-1.44,.77-.05,.04-.17,.1-.27,.16-.29,.17-.53,.39-.73,.62-.43,.08-.85,.17-1.28,.24-.15,.03-.29,.06-.42,.11-.08,.03-.15,.13-.22,.21-.32-.34-.71-.54-1.21-.65-.09-.02-.2-.04-.3-.06-.1-.01-.2-.02-.3-.03-.17,0-.33,0-.48,.04-.15,.03-.3,.07-.44,.14-.07,.03-.14,.06-.2,.1-.03,.02-.07,.03-.1,.05-.03,.02-.05,.04-.07,.05-.11,.08-.21,.15-.33,.22-.15,.09-.3,.18-.47,.25-.02,.01-.04,.02-.06,.03-.06,.02-.12,.04-.19,.05-.37,.05-.78-.11-1.15-.16-.22-.03-.45-.06-.68-.1-.21-.03-.44-.05-.6-.08-.18-.03-.39-.06-.62-.08-.2-.01-.44-.01-.72,.04-.28,.04-.61,.12-.97,.28-.16,.07-.33,.16-.49,.27-.08,.05-.16,.12-.23,.18-.02,.01-.04,.03-.06,.04h-.02v.02h-.01s-.01,.03-.03,.05c-.01,.02-.04,.04-.06,.07-.02,.03-.04,.05-.07,.08-.17,.16-.35,.31-.52,.46-.17,.16-.34,.32-.53,.55-.1,.13-.21,.26-.32,.44-.07,.1-.14,.21-.19,.31-.05,.11-.11,.2-.14,.31-.08,.2-.1,.43-.08,.63,.02,.18,.06,.33,.11,.48,.03,.07,.05,.14,.08,.21,.03,.07,.06,.13,.09,.2,.07,.16,.25,.5,.5,.87,0,.02,0,.04,0,.07,0,.27,.03,.55,.08,.83,.02,.11,.04,.22,.06,.34,.03,.17,.06,.33,.09,.49,.02,.14,.05,.28,.07,.42,0,.06,.02,.12,.03,.18-.02,.05-.03,.11-.05,.16-.02,.07-.04,.14-.06,.2,0,.02-.01,.04-.01,.05,0,.02,0,.02-.01,.04-.01,.02-.02,.05-.03,.07-.03,.1-.05,.2-.05,.29,0,.13,0,.26,.02,.34,.03,.34,.16,.71,.21,1.06,.03,.17,.04,.34,.02,.48,0,.14-.05,.27-.1,.38-.02,.05-.04,.12-.06,.17-.01,.06-.02,.12-.03,.17-.02,.06-.03,.11-.05,.16-.02,.05-.03,.1-.05,.15-.02,.05-.03,.1-.05,.14-.13,.33-.22,.66-.29,1.02-.06,.37-.11,.78-.11,1.21,0,.15,.01,.29,.03,.44,0,.15,.03,.3,.06,.44,0,.05,.01,.1,.02,.15,.07,.39,.15,.74,.22,1.09,.04,.29,.07,.58,.05,.88-.03,.3-.07,.61-.16,.92,0,.02-.02,.04-.02,.06-.1,.32-.19,.71-.29,1.08-.02,.09-.04,.19-.06,.29-.01,.08-.04,.22-.04,.33-.01,.22,0,.43,.04,.61,.02,.12,.06,.22,.11,.33,.05,.12,.12,.23,.2,.33,.11,.14,.26,.21,.37,.28,.07,.04,.12,.09,.16,.15-.01,.16-.02,.31-.05,.44,0,.01,0,.02,0,.04-.09,.18-.23,.33-.38,.48-.13,.03-.26,.05-.35,.15-.02,.02-.04,.04-.05,.06-.02,.02-.02,.06-.04,.09-.05,0-.09,0-.14,.01-.07,.01-.14,.03-.22,.05-.18,.04-.34,.11-.48,.18-.15,.06-.28,.13-.42,.2-.1,.06-.22,.09-.33,.14-.11,.05-.22,.1-.32,.14-.07,.02-.13,.05-.19,.08-.03,.01-.06,.03-.09,.04-.03,.02-.06,.02-.09,.03-.06,.02-.12,.05-.17,.07-.11,.06-.22,.09-.34,.15-.11,.07-.23,.12-.36,.18-.04,.03-.09,.05-.14,.07-.08,.03-.16,.05-.24,.05-.08,0-.16-.02-.23-.06-.12-.06-.24-.13-.32-.23-.1-.11-.18-.22-.26-.34-.04-.06-.08-.12-.12-.16-.22-.31-.37-.64-.51-.95-.13-.33-.26-.64-.41-.93-.06-.14-.15-.28-.23-.41-.09-.15-.19-.3-.3-.43h0c-.29-.39-.59-.76-.97-1.12-.03-.03-.06-.06-.1-.09-.1-.09-.19-.18-.29-.27-.17-.45-.32-.88-.44-1.23,.04-.27,.11-.54,.17-.81,.11-.47,.19-.93,.02-1.4-.03-.07-.04-.11-.07-.15-.02-.05-.05-.1-.09-.15-.06-.1-.13-.21-.2-.33-.04-.07-.09-.13-.14-.2-.05-.07-.09-.13-.14-.2-.09-.11-.17-.23-.25-.32-.02-.03-.05-.06-.08-.08-.07-.39-.16-.77-.26-1.15,.02-.03,.03-.06,.05-.09,.07-.14,.14-.27,.21-.41,.2-.38,.41-.76,.57-1.17,.06-.18,.12-.36,.17-.55,.03-.1,.05-.21,.06-.32,.01-.05,.02-.11,.02-.16,0-.05,0-.1,.01-.15,.02-.21,.01-.42,0-.63-.02-.3-.06-.59-.12-.88-.05-.29-.12-.58-.2-.86-.16-.55-.37-1.08-.6-1.6-.18-.39-.37-.75-.56-1.12l-.02-.04c-.03-.71-.06-1.39-.1-2.05,.11-.34,.23-.68,.32-1.02,.11-.4,.18-.8,.23-1.21,.02-.18,.04-.37,.05-.56,0-.15,0-.31,0-.46-.01-.38-.1-.79-.21-1.17-.06-.2-.14-.4-.22-.58-.03-.07-.05-.13-.08-.2,0-.21,.02-.42,.04-.63,.08-.72,.23-1.43,.39-2.13,.02-.03,.04-.06,.07-.09,.03-.03,.05-.06,.08-.09,.2-.21,.35-.41,.43-.64,.08-.23,.1-.49,.02-.79-.03-.12-.07-.23-.09-.35-.02-.1-.04-.2-.06-.29,.02-.15,.06-.31,.08-.46,0-.06,0-.11,.01-.17,.04-.08,.09-.17,.16-.25,.18-.2,.35-.36,.49-.54,.11-.14,.2-.28,.28-.44,.04-.09,.08-.19,.1-.29,.02-.13,.02-.25,.01-.38,0-.03,0-.06,0-.1,0-.03,0-.06-.01-.1,0-.08-.02-.15-.03-.23-.03-.2-.02-.31,0-.39,.04-.08,.11-.15,.19-.29,.03-.05,.05-.09,.08-.14,.05-.1,.08-.21,.1-.33,.03-.1,.04-.21,.05-.32,0-.02,0-.05,0-.07,0-.01,0-.02,0-.03,0,0,0-.01,0-.02,0,0,0-.02,0-.03,0,0,0-.01,0-.02,0-.01,0-.02,0-.04,0-.01,0-.02,0-.03,.01-.01,.02-.02,.03-.04,.02-.04,.04-.09,.06-.15,.01-.04,.03-.1,.04-.14,0-.05,.02-.11,.03-.16,.01-.06,.01-.11,.02-.17,0-.06,.01-.12,.02-.18,.01-.24,.01-.5,.09-.74,.05-.18,.15-.31,.29-.41,.13-.11,.3-.19,.47-.28,.16-.09,.34-.17,.48-.28,.02-.02,.04-.03,.06-.05,.12-.11,.24-.23,.34-.37,.07-.09,.13-.19,.18-.3,.05-.11,.1-.22,.14-.34,.04-.1,.06-.21,.09-.31,.02-.1,.05-.21,.06-.31,.02-.21,.04-.43,.02-.64-.01-.13-.03-.26-.05-.38-.09-.51-.24-.93-.5-1.32-.05-.07-.11-.15-.16-.23v-.02c.02-.06,.02-.13,.03-.19,.02-.14,.02-.27,.02-.41,.12-.1,.23-.22,.28-.33,.09-.23,.14-.35,.12-.59-.01-.13-.04-.26-.1-.39-.07-.17-.17-.32-.27-.46-.09-.12-.17-.23-.25-.34-.16-.25-.26-.5-.19-.89,.01-.07,.03-.14,.04-.21,.05-.31,.11-.61,.13-.91,.01-.29,0-.57-.09-.85-.02-.05-.03-.1-.05-.15-.06-.17-.13-.34-.22-.49-.19-.35-.46-.66-.83-.88-.07-.04-.14-.08-.2-.11-.13-.05-.27-.09-.4-.11-.14-.02-.28,0-.42,.01-.14,.02-.31,.1-.48,.17-.18-.14-.37-.28-.56-.41,.05-.16,.11-.34,.13-.49,.04-.23,.02-.43-.02-.59-.02-.08-.04-.16-.07-.23-.01-.04-.03-.07-.05-.1-.02-.03-.02-.06-.06-.1-.09-.1-.18-.2-.28-.28-.08-.07-.16-.12-.25-.15-.09-.02-.18-.04-.27-.04-.09,0-.18,0-.27,0-.05,0-.09,0-.14,0-.04,0-.09,0-.13,.01-.12,0-.24,0-.35-.02-.01,0-.03,0-.04,0-.04-.01-.08-.03-.11-.06-.1-.06-.18-.18-.25-.32-.07-.13-.14-.28-.21-.39-.09-.13-.19-.27-.3-.39-.09-.12-.19-.24-.29-.34-.05-.05-.1-.1-.15-.15-.04-.06-.1-.1-.15-.14-.09-.08-.19-.14-.32-.2-.12-.05-.24-.1-.39-.11-.03,0-.06,0-.1,0-.02,0-.04,0-.05,0,0,0-.02,0-.04,0-.04,0-.09,.01-.13,.02-.04,0-.08,.01-.12,0-.06,0-.12,0-.17,.01h-.17c-.11,0-.24,0-.41,.02-.09,0-.2,.02-.31,.02-.45,.02-.94,.04-1.38,.1-.06,0-.15,.02-.26,.05-.09-.02-.18-.05-.26-.08-.65-.26-1.14-.81-1.78-1.08-.16-.07-.32-.12-.49-.15,0,0-.02-.02-.02-.03-.15-.19-.28-.4-.41-.59-.11-.12-.21-.22-.31-.32-.19-.19-.44-.31-.73-.35-.29-.04-.6,0-.88,.13-.05,.01-.09,.04-.14,.06-.05,.02-.09,.05-.13,.08-.04,.02-.08,.05-.12,.08-.04,.03-.06,.05-.09,.08-.02,.02-.04,.03-.06,.05-.17,.14-.36,.23-.54,.29-.33,.1-.66,.1-1.06,.03-.01,0-.03,0-.04,0-.21-.04-.47-.06-.73,0-.26,.05-.5,.19-.65,.42-.04,.07-.07,.15-.09,.24-.02,.09-.03,.2,0,.32,.02,.15,.1,.3,.16,.42-.04,.04-.09,.08-.13,.13-.04,.08-.09,.15-.14,.23-.12-.01-.25-.03-.37-.01-.06,0-.12,.02-.17,.05-.04,.02-.08,.04-.11,.07-.07,.05-.12,.11-.17,.17-.05,.06-.09,.13-.13,.2-.02,.05-.04,.09-.06,.15-.01,.05-.02,.11-.03,.16-.01,.12,0,.25,.03,.37,.04,.09,.09,.16,.13,.23-.1,.2-.22,.4-.33,.59-.16-.03-.32-.04-.49,0-.23,.04-.43,.17-.57,.35-.03,.04-.06,.07-.09,.11-.02,.04-.05,.08-.07,.11-.04,.07-.09,.13-.13,.2-.09,.14-.17,.28-.24,.44-.04,.09-.08,.18-.11,.27-.04,.09-.06,.18-.09,.27-.03,.09-.05,.18-.06,.27-.03,.17-.04,.34-.04,.52,0,.17,.03,.34,.05,.52,0,.06,.01,.12,.03,.19,.04,.21,0,.41-.08,.59-.06,.15-.16,.28-.26,.41-.1,.13-.21,.26-.32,.38-.06,.07-.11,.13-.16,.2-.29,.38-.57,.74-.85,1.08-.07,.08-.14,.19-.21,.29-.07,.1-.14,.21-.2,.33-.13,.22-.24,.46-.33,.7-.07,.22-.14,.45-.18,.69-.03,.13-.04,.26-.06,.38-.01,.13-.02,.26-.02,.39h0c0,.68,.08,1.32,.25,1.93,.02,.05,.03,.1,.05,.16,.1,.32,.21,.65,.25,.97,.04,.32,0,.65-.19,.97-.19,.32-.42,.61-.63,.9-.16,.23-.32,.45-.44,.71-.12,.26-.21,.55-.25,.86-.02,.16,0,.35,0,.53,.02,.19,.05,.39,.09,.57,.05,.21,.12,.42,.2,.61,.07,.17,.14,.32,.22,.45,.13,.23,.39,.51,.44,.79,0,.02,0,.04,0,.07,.01,.15-.03,.29-.08,.43-.07,.13-.15,.26-.21,.38-.1,.17-.2,.32-.3,.47-.14,.22-.29,.44-.42,.67-.12,.23-.24,.46-.35,.71-.09,.21-.16,.43-.23,.66-.02,.06-.04,.12-.05,.18-.02,.06-.03,.13-.04,.19-.02,.13-.04,.26-.06,.4,0,.07-.02,.14-.02,.2,0,.07,0,.13-.01,.2,0,.12-.01,.25-.01,.38,0,.35,.01,.71,.04,1.06,.01,.18,.03,.35,.05,.53,.02,.18,.04,.36,.06,.54,.05,.35,.11,.7,.17,1.04,.03,.17,.07,.34,.11,.51,.04,.17,.08,.33,.13,.5,.13,.51,.29,.98,.43,1.46,.04,.14,.08,.29,.13,.43,.02,.05,.02,.1,.04,.16,0,.41-.02,.81-.03,1.21-.05,.18-.1,.37-.18,.56-.18,.47-.33,.94-.46,1.43-.06,.25-.11,.49-.16,.74-.02,.12-.04,.25-.06,.37-.02,.12-.03,.25-.04,.38-.02,.24-.04,.47-.04,.71,0,.19,.01,.39,.03,.59,.02,.24,.06,.5,.11,.74,.05,.24,.12,.48,.2,.71,.08,.25,.18,.48,.28,.7,.18,.37,.37,.76,.47,1.17,.06,.2,.11,.41,.12,.63,0,.07,0,.15,0,.22,0,.08,0,.17,0,.25,0,.08,0,.16,0,.24,0,.15,.02,.31,.03,.47,.02,.15,.02,.32,.03,.47,0,.16,.01,.32,0,.49,0,.04,0,.08,0,.13,0,.08-.02,.16-.03,.23,0,.08,0,.15-.02,.21,0,.07-.02,.13-.02,.19,0,.03,0,.06,0,.09,0,.03,0,.05,0,.08,0,.06,0,.11,0,.16,0,.03,0,.07,.02,.1,0,.04,.01,.08,.02,.12,.04,.16,.1,.32,.18,.48,.07,.13,.13,.26,.19,.39,.11,.23,.2,.46,.25,.7,.05,.24,.04,.5-.04,.79-.09,.3-.18,.59-.25,.87-.05,.22-.07,.44-.07,.68,0,.13,.02,.27,.05,.41,.07,.33,.21,.62,.37,.9,.23,.39,.14,.43,.08,.82,0,.07,0,.13,0,.2,0,.15,.02,.31,.05,.47,.01,.08,.03,.15,.06,.25,.02,.09,.05,.18,.08,.28,.05,.19,.13,.36,.19,.53,.06,.18,.13,.33,.19,.47,.05,.11,.1,.22,.16,.3,.09,.12,.19,.21,.29,.3,.1,.08,.21,.14,.32,.21,.22,.13,.45,.26,.65,.48,.07,.08,.12,.16,.16,.26h0c.04,.1,.06,.2,.08,.29,.01,.11,.02,.21,0,.32,0,.13,0,.24,0,.36,0,.22-.02,.44,0,.64,0,.03,0,.06,0,.09,.02,.19,.05,.37,.1,.56,.06,.25,.15,.49,.26,.74,.19,.42,.43,.83,.71,1.19,.09,.12,.19,.22,.27,.32,.26,.29,.53,.54,.82,.76,.04,.18,.08,.36,.14,.54,.1,.31,.22,.61,.35,.91-.01,.08-.02,.15-.04,.24,0,.08-.01,.17,0,.25,.02,.42,.16,.75,.28,1.09,.1,.26,.2,.51,.32,.76,.04,.08,.07,.15,.11,.22,.07,.14,.15,.26,.23,.39,.08,.12,.17,.23,.28,.33,.1,.11,.22,.21,.34,.28,.04,.03,.09,.06,.14,.09,.16,.09,.26,.22,.34,.36,.06,.12,.1,.26,.13,.4,.04,.14,.08,.3,.12,.44,.02,.08,.05,.15,.08,.23,.08,.2,.19,.4,.29,.59,.1,.18,.19,.37,.28,.54,.1,.17,.19,.35,.29,.52,.1,.17,.21,.33,.33,.49,.11,.15,.23,.29,.35,.42,.13,.14,.29,.28,.46,.41,0,0,.01,0,.01,0,.43,.33,.89,.6,1.39,.79,.05,.02,.09,.03,.13,.05,.28,.1,.55,.19,.79,.32,.24,.13,.44,.32,.55,.63,.11,.32,.19,.65,.29,.98,.04,.12,.07,.24,.11,.35,.04,.11,.08,.22,.12,.33,.1,.21,.22,.42,.41,.6,.19,.18,.47,.36,.78,.49,.09,.03,.18,.07,.27,.1,.09,.03,.18,.05,.27,.07,.16,.03,.31,.04,.45,.03,.12,0,.26-.05,.39-.09,.12-.03,.22-.05,.31-.07,.1,.1,.21,.18,.33,.23,.06,.03,.12,.04,.19,.05,.05,.05,.09,.1,.14,.15,.12,.12,.22,.23,.33,.36,.31,.34,.6,.68,.92,1,.13,.14,.27,.27,.42,.39,.16,.14,.33,.26,.51,.38,.09,.06,.18,.11,.28,.16,.1,.05,.2,.1,.31,.14,.15,.06,.29,.11,.44,.16,.15,.04,.3,.08,.46,.12,.3,.08,.62,.11,.92,.14,.15,.01,.31,.01,.47,0,.16,0,.31-.02,.46-.05,.3-.05,.58-.12,.85-.21,.36-.11,.7-.22,1.06-.32,.02,0,.03,0,.04,0,.07,.02,.14,.03,.21,.04,.57,.12,1.14,.22,1.71,.3,.03,.02,.06,.04,.09,.06,.34,.26,.71,.48,1.12,.62,.1,.04,.21,.08,.31,.1,.1,.03,.2,.06,.3,.08,.21,.05,.41,.09,.62,.12,.19,.02,.38,.04,.57,.05,.16,0,.32,0,.47-.01,.4-.03,.81-.13,1.19-.28,.2-.09,.39-.19,.57-.3,.3-.19,.61-.38,.93-.48,.17-.06,.34-.11,.51-.12,.06,0,.12,0,.18,0,.57,.03,1.02,.16,1.58,.37,.04,.02,.08,.03,.12,.04,.57,.22,1.16,.21,1.62-.29,.09-.1,.18-.19,.26-.29,.08-.09,.16-.17,.24-.24,.08-.08,.16-.15,.25-.21,.02-.01,.05-.02,.07-.04,.01,0,.02,0,.04-.02,.02-.01,.03-.02,.04-.03,.06-.03,.12-.07,.18-.1,.06-.03,.12-.07,.19-.1,.07-.04,.13-.06,.2-.1,.3-.13,.54-.23,.71-.27,.14-.04,.22,0,.31-.03,.03,0,.05-.01,.08-.03,.03-.01,.06-.03,.09-.05,.15-.09,.3-.26,.46-.44,.11-.11,.21-.16,.3-.17,.09,0,.19,.02,.37,.03,.06,0,.12,0,.18-.01,.13,0,.28-.06,.42-.12,.14-.06,.28-.15,.42-.23,.14-.09,.28-.19,.4-.29,.12-.11,.25-.2,.35-.29,.09-.07,.15-.15,.21-.23,.31-.47,.18-1,.37-1.5,.13-.35,.49-.47,.85-.53,.18-.02,.35-.03,.5-.04,.02,0,.05,0,.06,0,.07,0,.13-.02,.19-.03,.06,0,.12-.02,.18-.03,.04-.01,.07-.02,.12-.03,.06-.02,.11-.04,.17-.07,.11-.05,.22-.11,.33-.18,.1-.06,.18-.12,.27-.19,.09-.07,.17-.14,.25-.22,.08-.08,.15-.15,.22-.24,.07-.08,.14-.17,.2-.25,.08-.11,.14-.23,.19-.33,.06-.11,.12-.22,.17-.33,.05-.11,.1-.22,.14-.33,.08-.21,.14-.44,.18-.67,.02-.11,.04-.21,.06-.32,0-.04,0-.08,.02-.11,.14-.14,.27-.28,.4-.43,.03-.02,.05-.04,.08-.06,.15-.14,.28-.27,.39-.37,.12-.1,.23-.19,.35-.25,.2-.09,.42-.09,.62-.03,.06,.02,.12,.04,.17,.07,.05,.02,.11,.05,.16,.08,.05,.02,.11,.06,.17,.09,.12,.07,.22,.13,.36,.2,.06,.03,.13,.06,.2,.08,.07,.02,.15,.04,.22,.05,.05,.01,.1,.02,.15,.02,.09,0,.17,.01,.24,.04,.04,.01,.08,.04,.12,.06,0,.01,.02,.03,.02,.04,.02,.02,.04,.05,.05,.08,.21,.31,.48,.54,.77,.72h.02c.12,.16,.26,.31,.39,.47,.14,.16,.28,.32,.43,.46,.3,.29,.61,.56,.97,.77,.16,.1,.32,.2,.5,.26,.19,.08,.38,.15,.59,.2h.01c.53,.12,1.06,.19,1.6,.13,.05,0,.1-.01,.14-.02,.19-.02,.37-.05,.55-.07,.4,.18,.81,.35,1.22,.5,.17,.19,.34,.38,.51,.57,.33,.37,.68,.72,1.18,.85,.25,.07,.56,.07,.88,.04,.18-.02,.36-.05,.53-.09,.15-.04,.29-.09,.41-.14,.11-.05,.23-.12,.36-.2,.08-.05,.16-.09,.24-.12,.13,.01,.27,.03,.4,.04h.03c.12,.06,.23,.15,.35,.22,.14,.08,.27,.17,.41,.24,.4,.23,.8,.44,1.21,.61,.18,.07,.35,.14,.53,.2,.05,.02,.09,.03,.14,.05,.05,.02,.1,.03,.16,.04,.1,.02,.21,.05,.32,.06,.11,.02,.22,.03,.33,.04,.11,0,.23,0,.34,0,.16,0,.32-.02,.48-.04,.15-.02,.31-.05,.46-.09,.15-.03,.3-.06,.45-.11,.15-.05,.29-.09,.44-.15,.14-.05,.28-.11,.41-.16,.13-.05,.27-.12,.41-.18,.28-.13,.55-.3,.78-.52,.19-.18,.34-.38,.5-.56,.32-.17,.61-.4,.94-.57,.1-.05,.2-.09,.32-.13,.29-.09,.59-.16,.89-.22,.06,.01,.12,.02,.19,.03,.41,.09,.84,.15,1.26,.17,.43,.02,.86-.01,1.29-.12,.1-.02,.2-.05,.29-.08,.1-.04,.2-.07,.29-.11,.16-.07,.31-.15,.46-.25,.18-.12,.36-.27,.52-.43,.08-.09,.16-.18,.22-.27,.02-.03,.03-.04,.06-.08,.02-.03,.03-.06,.05-.08,.04-.06,.07-.11,.11-.17,.12-.23,.17-.47,.2-.68,.03-.18,.06-.36,.12-.54,.02-.07,.05-.13,.08-.19,.08-.1,.15-.2,.23-.3,.07-.09,.15-.18,.22-.26,.02-.02,.05-.05,.07-.07,.02-.01,.04-.03,.06-.05,.05-.03,.11-.06,.17-.08,.28-.1,.51-.19,.77-.25,.26-.06,.51-.12,.82-.14,.04,0,.08-.01,.12-.01,.3-.02,.57-.1,.8-.24,.23-.14,.41-.34,.53-.63,.05-.12,.1-.24,.15-.35,.2-.4,.43-.73,.94-.85,.27-.05,.53-.1,.77-.18,.18-.06,.36-.14,.53-.27,.09-.07,.19-.15,.27-.26,.2-.24,.32-.53,.4-.83,.13-.41,.21-.37,.51-.59,.05-.04,.1-.08,.14-.13,.05-.05,.1-.11,.14-.18,.04-.07,.08-.14,.12-.21,.04-.08,.08-.15,.12-.23,.03-.08,.06-.17,.09-.25,.07-.16,.1-.34,.15-.51,.02-.07,.04-.14,.05-.21,.01-.06,.03-.11,.04-.17,.03-.08,.04-.17,.04-.25,0-.24-.07-.45-.15-.68-.07-.2-.12-.4-.14-.62,.12-.25,.25-.51,.37-.76,.08-.07,.17-.13,.26-.19,.08-.05,.17-.1,.24-.15,.08-.05,.15-.07,.21-.1,.02,0,.04-.02,.05-.03,.05-.03,.11-.06,.16-.09,.06-.03,.1-.06,.16-.1,.08-.05,.15-.11,.22-.17,.08-.07,.15-.13,.22-.21,.26-.27,.56-.68,.73-1.16,.02-.08,.05-.15,.07-.23,.02-.08,.03-.17,.05-.25,.03-.17,.04-.31,.04-.46,0-.07,0-.14,0-.2,0-.06-.01-.13-.03-.19-.03-.26-.1-.49-.19-.72-.05-.09-.09-.2-.13-.3,0-.02-.02-.04-.03-.05,.16-.37,.3-.74,.43-1.12,.02-.02,.04-.03,.06-.05,.17-.17,.3-.33,.43-.51,.03-.04,.06-.09,.09-.13,.03-.05,.06-.1,.09-.15,.01-.02,.02-.04,.04-.07,.02-.02,.02-.06,.04-.08,.02-.05,.04-.11,.06-.16,.12-.34,.17-.7,.18-1.05,0-.1,0-.21-.01-.3,0-.2-.03-.38-.07-.56-.07-.34-.17-.66-.33-1-.02-.05-.05-.11-.08-.17-.1-.2-.1-.41-.08-.62,.02-.16,.08-.33,.15-.49,.07-.16,.16-.31,.24-.46,.04-.08,.08-.15,.12-.23,.22-.43,.46-.83,.67-1.28,.06-.11,.11-.22,.15-.34,.02-.06,.05-.11,.07-.17,.01-.03,.02-.06,.03-.09,.01-.03,.02-.07,.03-.1,.04-.13,.08-.27,.11-.41,.03-.14,.04-.27,.06-.41,0-.06,.01-.13,.02-.19,0-.06,0-.12,0-.18,0-.12,0-.25,0-.37-.02-.26-.05-.52-.11-.77v-.02Z"/></clipPath><clipPath id="uuid-17deaaee-57d8-4b39-9333-6b540611f9aa"><path class="uuid-cb17cdf2-57eb-49f4-83c8-5c482ddd7679" d="M72.36,73.86c-.05-.19-.12-.37-.18-.55-.03-.06-.05-.13-.07-.19-.08-.18-.15-.37-.22-.56-.07-.19-.14-.38-.19-.56-.05-.19-.08-.38-.09-.58,0-.2,.03-.4,.07-.62,.1-.44,.24-.86,.36-1.3,.15-.66,.25-1.34,.08-2.09-.08-.37-.28-.79-.51-1.17-.13-.23-.27-.44-.41-.63-.13-.17-.25-.32-.39-.45-.23-.22-.6-.44-.77-.72-.01-.02-.03-.04-.04-.07-.16-.31-.1-.66-.1-1,0-.23,0-.45,0-.67-.01-.64-.02-1.27-.07-1.9-.03-.27-.06-.54-.11-.81-.05-.29-.11-.59-.18-.88-.04-.15-.08-.3-.13-.45-.06-.15-.11-.3-.17-.44-.34-.83-.73-1.62-1.19-2.36-.22-.36-.45-.71-.7-1.06-.24-.34-.5-.67-.77-.99-.2-.24-.4-.48-.59-.7-.2-.23-.41-.44-.61-.66-.02-.02-.04-.04-.06-.06-.08-.46-.14-.82-.46-1.35-.02-.04-.04-.08-.07-.12-.08-.14-.17-.27-.26-.41-.05-.07-.1-.15-.15-.22-.06-.1-.13-.19-.19-.28-.04-.06-.07-.11-.11-.16-.06-.09-.13-.18-.19-.27-.27-1.03-.65-2.05-1.2-3-.15-.25-.29-.5-.47-.72-.14-.19-.29-.38-.44-.56-.19-.23-.41-.45-.64-.65-.23-.21-.47-.4-.72-.57-.26-.18-.52-.34-.79-.47-.22-.11-.45-.22-.66-.34-.22-.12-.44-.26-.65-.4-.21-.15-.41-.32-.59-.5-.06-.06-.12-.13-.18-.2-.13-.16-.25-.32-.36-.48-.11-.15-.22-.3-.32-.45-.2-.31-.38-.64-.55-1-.02-.05-.05-.1-.07-.15-.08-.18-.18-.36-.28-.53-.1-.16-.22-.31-.36-.45-.27-.28-.59-.5-1.01-.65-.17-.06-.33-.11-.49-.17-.58-.21-1.09-.47-1.48-1.08-.1-.16-.2-.32-.3-.47-.1-.14-.2-.29-.3-.43-.16-.21-.35-.41-.58-.6-.12-.1-.26-.2-.43-.29-.19-.11-.38-.18-.57-.25-.2-.05-.39-.1-.59-.14-.26-.05-.4-.1-.51-.18-.11-.08-.2-.19-.38-.35-.06-.05-.13-.1-.2-.14-.63-.44-1.65-.62-2.36-.79-.15-.04-.28-.05-.4-.05-.58,0-.98,.24-1.47,.4-.24-.09-.48-.17-.73-.23-.45-.11-.93-.26-1.41-.39-.06-.05-.12-.11-.17-.16-.02-.01-.04-.04-.06-.06-.14-.12-.27-.24-.46-.37-.05-.04-.12-.09-.19-.13-.07-.04-.14-.09-.23-.13-.09-.04-.17-.08-.26-.13-.09-.04-.2-.07-.3-.1-.09-.03-.18-.05-.26-.07-.09-.02-.18-.03-.27-.05-.18-.02-.36-.03-.53-.03-.17,0-.33,.02-.5,.03-.17,0-.32,.04-.47,.07-.1,.03-.19,.05-.28,.08-.05,.01-.09,.03-.14,.04-.04,.01-.08,.03-.12,.04-.34,.12-.66,.24-.95,.4l-.04,.02c-.64,.02-1.29,.07-1.93,.12-.03-.02-.06-.04-.09-.06-.36-.24-.72-.48-1.1-.67-.36-.18-.73-.33-1.15-.4-.07,0-.14-.01-.22-.02-.25-.03-.51-.05-.77-.04-.55,.01-1.11,.12-1.62,.35-.1,.05-.19,.09-.28,.15-.33,.18-.63,.42-.87,.74-.12,.15-.21,.36-.31,.57-.36,.07-.72,.16-1.08,.25-.11-.14-.23-.28-.36-.37-.48-.34-1.11-.27-1.64,0-.1,.05-.19,.11-.28,.18-.09,.06-.17,.12-.25,.19-.07,.05-.12,.11-.16,.17-.04,.06-.09,.12-.12,.17-.07,.12-.12,.23-.16,.35-.03,.1-.06,.21-.08,.32-.09,.05-.18,.1-.27,.16-.05,.04-.1,.07-.16,.11-.16,.12-.29,.24-.42,.35-.05-.03-.09-.05-.13-.08-.07-.04-.12-.08-.18-.12-.08-.05-.15-.1-.23-.14-.04-.03-.08-.05-.11-.07-.04-.03-.08-.06-.12-.08-.15-.09-.29-.18-.42-.27-.07-.05-.13-.09-.2-.13-.07-.04-.14-.08-.21-.12-.06-.03-.13-.06-.2-.1-.07-.03-.15-.05-.23-.07-.17-.05-.35-.08-.57-.1-.19-.01-.41-.01-.59,0-.09,0-.17,0-.24,0-.13,0-.24,0-.35,0-.11,0-.22,.01-.32,.01-.2,.02-.42,.04-.67,.09-.14,.04-.3,.08-.47,.12-.43,.13-.84,.29-1.25,.45-.02,0-.04,0-.05,0-.17,0-.22,.02-.39,.01-.14,0-.31,0-.47-.02-.14-.01-.26-.04-.37-.06-.31-.08-.6-.22-.98-.22-.54-.01-1-.02-1.53,.09-.25,.05-.5,.13-.75,.2-.61-.42-1.25-.8-1.93-1.08-.24-.06-.48-.1-.69-.16-.77-.18-1.5,.09-2.13,.51-.21,.15-.42,.31-.61,.47-.04,.03-.07,.05-.11,.08-.27,.22-.52,.4-.79,.55-.47,.26-.96,.43-1.55,.56-.02,0-.04,.01-.06,.02-.15,.03-.33,.07-.5,.13-.17,.06-.35,.14-.53,.22-.17,.1-.32,.21-.46,.34-.13,.13-.25,.28-.32,.45-.05,.1-.07,.21-.09,.33-.01,.13,0,.26,.03,.41h0c-.13,.15-.26,.3-.35,.46-.13,.23-.25,.48-.37,.73-.07,.02-.13,.04-.19,.08-.05,.03-.1,.08-.15,.11-.1,.08-.18,.16-.26,.25-.07,.09-.14,.18-.2,.29-.07,.13-.14,.27-.18,.44-.04,.16-.06,.34-.06,.51,.05,.2,.1,.38,.15,.55v.02c-.09,.17-.16,.35-.23,.53-.07,.18-.14,.36-.18,.56-.03,.12-.05,.23-.07,.33-.02,.11-.04,.21-.06,.32-.02,.11-.01,.21-.02,.31,0,.21,0,.41,.02,.6,.02,.2,.08,.39,.14,.59,.02,.07,.05,.13,.07,.21,.05,.12,.07,.23,.07,.34,.01,.11,0,.23,0,.34-.06,.37-.25,.73-.41,1.11-.04,.09-.08,.19-.11,.29-.09,.28-.17,.55-.25,.82-.07,.28-.15,.55-.21,.82-.07,.27-.12,.55-.17,.82-.03,.28-.06,.56-.06,.84,0,.25,0,.51,.02,.77,.03,.27,.06,.55,.14,.84v.02c.1,.37,.2,.72,.33,1.07,.12,.35,.27,.69,.45,1.02,.03,.06,.06,.11,.09,.17,.41,.69,.85,1.34,.6,2.19-.12,.43-.29,.84-.45,1.25-.23,.62-.41,1.26-.28,1.97,.06,.35,.21,.76,.41,1.14,.11,.22,.24,.44,.38,.64,.12,.17,.24,.33,.36,.46,.22,.23,.6,.49,.73,.78,0,.02,.02,.04,.02,.06,.11,.33-.04,.66-.12,.98-.05,.21-.11,.43-.16,.63-.08,.3-.15,.6-.24,.89-.08,.3-.16,.59-.22,.89-.06,.26-.1,.51-.14,.77-.08,.57-.11,1.14-.04,1.76,.09,.85,.26,1.68,.49,2.48,.12,.4,.25,.79,.4,1.17,.14,.39,.32,.75,.48,1.12,.23,.49,.5,.94,.76,1.4,.15,1.21,.33,2.42,.49,3.62,0,.03-.01,.07-.02,.1-.04,.29-.08,.58-.12,.87-.07,.59-.12,1.17-.12,1.75,0,.27,.01,.53,.03,.81,.02,.22,.04,.44,.07,.66,.08,.55,.26,1.12,.47,1.66,.11,.28,.25,.55,.39,.8,.1,.18,.21,.37,.3,.56,.08,.58,.17,1.15,.25,1.73,.04,.25,.08,.51,.12,.76-.07,.49-.18,.96-.39,1.45-.02,.05-.04,.1-.06,.15-.17,.37-.27,.73-.28,1.11-.01,.37,.08,.73,.29,1.1,.09,.15,.17,.3,.25,.44,.15,.27,.26,.53,.31,.81,.06,.28,.05,.58-.06,.91-.12,.36-.24,.68-.33,1.02-.07,.25-.11,.51-.11,.78,0,.15,.02,.3,.05,.46,.08,.39,.25,.71,.44,1.04,.26,.45,.15,.49,.07,.94-.01,.07-.02,.15-.02,.22-.04,.69,.3,1.55,.47,2.2,.03,.13,.08,.24,.13,.34,.31,.59,.93,.8,1.31,1.39,.02,.04,.03,.08,.05,.11,.02,.09,.04,.17,.05,.26,.02,.12,.04,.24,.06,.36-.02,.23-.08,.47-.16,.71-.08,.25-.16,.48-.22,.71,0,.04-.01,.07-.02,.1-.04,.21-.07,.42-.08,.64,0,.3,.01,.6,.07,.91,.09,.53,.26,1.06,.46,1.56,.08,.16,.16,.3,.23,.44,.32,.59,.65,1.09,1.1,1.55,.06,.05,.12,.11,.18,.17-.24,.57-.22,1.2-.06,1.76,.06,.23,.16,.44,.26,.65,.06,.1,.12,.2,.19,.29,.02,.03,.03,.06,.05,.07,.02,.03,.04,.05,.06,.07,.04,.04,.08,.09,.12,.13,.04,.05,.09,.11,.14,.16,.05,.05,.1,.09,.15,.13,.05,.04,.1,.08,.15,.13,.05,.04,.11,.07,.16,.1,.11,.07,.21,.14,.32,.19,.11,.05,.22,.1,.32,.15,.11,.04,.22,.06,.33,.09,.06,.01,.11,.02,.17,.04,.06,0,.11,.01,.17,.03,.11,0,.23,.02,.34,.02,.08,0,.16,0,.24,0,.14,0,.28,0,.4,.02,.12,.02,.25,.06,.37,.09,.39,.15,.77,.37,1.19,.58,.1,.05,.21,.1,.32,.14,1.21,.48,2.42,.87,3.7,1.02,.29,.04,.58,.06,.88,.07,.32,0,.66,0,1-.04h.02c.45-.06,.89-.15,1.32-.29,.43-.13,.82-.33,1.19-.56,.06-.04,.12-.08,.18-.12,.37-.25,.71-.52,1.1-.72,.38-.2,.82-.33,1.3-.25,.49,.08,.93,.26,1.42,.37,.09,.02,.19,.04,.29,.06,.1,.01,.2,.03,.3,.04,.2,0,.42,.02,.65-.03,.11-.02,.23-.03,.35-.07,.11-.05,.23-.08,.34-.13,.03-.02,.06-.03,.09-.04,.03-.01,.06-.03,.09-.05,.06-.04,.12-.07,.17-.11,.06-.04,.11-.08,.16-.12,.05-.04,.1-.08,.15-.12,.38-.36,.62-.8,.82-1.17,.11-.21,.22-.41,.34-.58,.1-.15,.23-.29,.36-.41,.12-.11,.26-.25,.43-.35,.17-.12,.36-.2,.55-.23,.03,0,.06,0,.09,0,.42-.01,.77,.23,1.08,.42,.22,.13,.42,.28,.62,.42,.57,.41,1.08,.83,1.67,1.22,.25,.17,.52,.33,.82,.47,.66,.31,1.41,.46,2.18,.45,.53,0,1.05-.07,1.54-.17,.49-.1,.97-.23,1.42-.39,.91-.3,1.75-.69,2.55-1.08,.61-.3,1.2-.59,1.78-.89,.06-.03,.12-.06,.18-.09,.05,.01,.1,.02,.14,.01,.12-.03,.23-.07,.35-.11,.56-.17,1.13-.35,1.69-.53,.23-.01,.45-.02,.71-.02,.65,0,1.31-.03,1.97-.15,.66-.12,1.33-.31,1.97-.6,.15-.08,.3-.16,.44-.24,.14-.08,.28-.18,.42-.28,.11-.09,.22-.17,.33-.26,.11-.08,.21-.18,.31-.28,.5-.46,.91-1.03,1.25-1.59,.06-.1,.11-.21,.17-.31,.01,0,.02-.01,.04-.02,.34-.23,.74-.46,1.07-.73,.09-.08,.18-.16,.26-.25,.05-.05,.1-.1,.14-.15,.07-.1,.13-.18,.18-.28,.03-.05,.05-.1,.08-.14,.06-.12,.1-.24,.16-.35,.12-.25,.26-.47,.6-.71,.11-.04,.22-.08,.33-.12,.2-.07,.39-.13,.58-.19,.2-.06,.39-.12,.59-.17,.1-.03,.21-.06,.31-.08,.1-.03,.21-.06,.32-.08,.06-.02,.12-.04,.18-.05,.05-.01,.11-.03,.16-.05,.05-.02,.11-.03,.16-.06,.11-.04,.21-.09,.32-.13,.11-.04,.2-.12,.3-.18,.1-.07,.2-.14,.28-.21,.36-.33,.65-.77,.78-1.28,.04-.21,.1-.4,.12-.6,.02-.08,.04-.17,.05-.26,.02-.08,.04-.16,.05-.25,.04-.16,.09-.32,.15-.46,.12-.31,.29-.59,.57-.85,.14-.13,.29-.24,.43-.36,.14-.11,.27-.22,.42-.34,.2-.18,.4-.38,.59-.61,.11-.14,.21-.28,.3-.45,.22-.38,.34-.78,.46-1.19,.16-.56,.26-.54,.63-.9,.06-.06,.12-.12,.18-.19,.51-.6,.89-1.61,1.23-2.32,.07-.15,.12-.28,.15-.41,.11-.43,.06-.8,.02-1.19,.09-.21,.19-.42,.25-.64,.11-.39,.14-.79,.19-1.18,.13-.17,.27-.33,.41-.49,.2-.2,.39-.4,.57-.6,.03-.03,.05-.06,.07-.09,.15-.19,.28-.41,.4-.63,.08-.15,.15-.32,.22-.48,.06-.17,.13-.34,.18-.52,.05-.15,.08-.31,.13-.47,.03-.14,.06-.29,.08-.44,.02-.08,.05-.16,.08-.24,.03-.12,.06-.23,.08-.34,.05-.22,.09-.43,.12-.63,.06-.41,.05-.82,0-1.24,0-.07-.02-.14-.03-.22-.04-.25-.03-.48,.04-.71,.05-.18,.13-.37,.22-.55,.09-.18,.18-.37,.27-.55,.04-.1,.09-.19,.12-.29,.43-1.09,.83-2.17,1.01-3.31,.05-.27,.06-.53,.08-.81,0-.29,0-.59-.02-.89,0-.01,0-.02,0-.02-.04-.39-.1-.77-.17-1.15-.04-.19-.07-.38-.13-.56Zm-25.05,3.67c-.02,.15-.05,.3-.08,.44-.02,.13,0,.31,0,.47-.04,.13-.09,.25-.14,.36-.02,.02-.05,.04-.07,.08-.02,.06-.04,.12-.06,.19-.13,.22-.28,.44-.47,.63-.03,.03-.06,.05-.09,.09-.45,.41-.75,.79-.77,1.41,0,.12-.01,.25-.03,.37-.06,.43-.24,.83-.73,1.04-.13,.06-.25,.1-.38,.14-.13,.04-.25,.08-.35,.12-.18,.06-.35,.13-.51,.24-.09,.06-.18,.13-.27,.2-.11,.1-.19,.2-.26,.32-.08,.11-.16,.23-.23,.35-.2,.33-.27,.28-.61,.36-.06,.01-.11,.03-.16,.05-.12,.05-.23,.11-.36,.19-.12,.07-.24,.16-.36,.25-.12,.09-.23,.18-.34,.27-.11,.08-.23,.17-.33,.24-.09,.05-.15,.12-.21,.19-.17,.19-.26,.41-.34,.64-.09,.23-.17,.47-.35,.68-.13,.15-.3,.24-.49,.28-.18,.05-.39,.05-.6,.04-.1,0-.19,0-.3-.02-.1,0-.19,0-.27-.01-.03,0-.05,0-.08,0-.16,0-.31,0-.48,.03-.21,.03-.43,.07-.64,.14-.38,.11-.76,.26-1.11,.43-.11,.06-.22,.12-.32,.18-.44,.24-.82,.46-1.21,.77-.09,.06-.17,.14-.26,.2-.13,.09-.26,.19-.38,.28-.22,0-.42,0-.62,.01-.22,.02-.44,.07-.7,.18-.18,.07-.37,.17-.59,.31-.25,.15-.48,.48-.9,.75-.28-.18-.54-.37-.72-.59-.23-.26-.39-.52-.55-.79-.07-.13-.15-.25-.23-.38-.05-.06-.09-.15-.14-.21-.05-.08-.1-.16-.16-.24h0c-.28-.42-.56-.9-.93-1.35-.04-.04-.07-.08-.1-.12-.06-.07-.12-.15-.18-.23-.12-.56-.23-1.12-.34-1.68,.09-.25,.19-.5,.3-.74,.21-.49,.39-.97,.32-1.52-.04-.28-.15-.59-.31-.9-.09-.18-.19-.35-.3-.51-.1-.14-.2-.27-.3-.37-.18-.2-.5-.41-.6-.64-.01-.02-.01-.04-.02-.06-.09-.25,.06-.52,.14-.76,.06-.17,.11-.33,.17-.5,.16-.47,.32-.93,.43-1.4,.05-.2,.1-.41,.13-.62,.03-.22,.05-.46,.05-.68,0-.24-.01-.48-.05-.72-.06-.34-.13-.68-.22-.99-.09-.32-.19-.63-.3-.93-.22-.6-.49-1.19-.79-1.74-.23-.42-.46-.83-.71-1.23-.07-.12-.14-.24-.21-.36-.11-.19-.18-.38-.22-.56-.07-.39,0-.77,.12-1.22,.25-.9,.44-1.82,.46-2.75,0-.21,0-.43-.01-.64-.01-.18-.04-.36-.06-.53-.07-.43-.23-.88-.42-1.3-.11-.22-.22-.42-.35-.61-.22-.32-.44-.65-.57-1.02-.07-.18-.11-.37-.13-.57,0-.07,0-.14,0-.21,.03-.62,.08-1.14,.24-1.78,.01-.05,.02-.09,.03-.14,.17-.65,.11-1.24-.35-1.7-.09-.09-.19-.19-.27-.29-.08-.08-.15-.17-.21-.25-.03-.05-.05-.09-.07-.14-.01-.28-.03-.56-.04-.83,.1-.26,.23-.47,.34-.66,.04-.06,.08-.14,.12-.21,.01-.03,.03-.07,.05-.11,0,0,0-.02,0-.02,0-.01,0-.02,0-.04,0-.03,.01-.07,.02-.1,.02-.15,.03-.27,.04-.41-.01-.3-.11-.53-.22-.77-.04-.08-.05-.14-.06-.18,0-.05,0-.08,.02-.11,.02-.02,.04-.02,.06-.02s.06,0,.1,0c.02,0,.04,0,.06,0,.05,.02,.05,.04,.05,.02,0-.01,0-.03,0-.06,0-.03,.03-.05,.04-.06,.01,0,.02-.02,.05-.04,.01-.01,.02-.02,.03-.03,0,0,0-.01,.02-.01h.04s.1-.02,.16-.03c.12-.02,.24-.06,.37-.09,.25-.06,.53-.11,.83-.12,.21-.01,.38,.07,.55,.17,.08,.06,.16,.13,.24,.2,.08,.08,.16,.15,.24,.23,.08,.07,.16,.15,.24,.22,.08,.07,.16,.13,.24,.19,.02,.02,.05,.04,.07,.06,.15,.11,.32,.18,.5,.25,.12,.05,.24,.08,.37,.11,.12,.02,.25,.05,.38,.07,.45,.05,.9,.02,1.32-.06,.13-.03,.26-.06,.37-.1,.5-.15,.93-.32,1.36-.58,.1-.06,.19-.12,.29-.18,.15-.09,.28-.2,.43-.3,.05,0,.09,0,.14,0,.29,.05,.58,.2,.87,.33,.08,.03,.15,.06,.23,.09,.85,.29,1.65,.6,2.47,.77,.09,.02,.19,.04,.28,.06,.1,.01,.19,.02,.28,.04,.2,.03,.41,.05,.61,.05,.01,0,.01,0,.02,0,.27,.02,.54,.02,.81,.03,.14,0,.27,0,.41,0,.14,0,.28,0,.42,0,.05,0,.09,0,.14,0,.16-.02,.31,0,.46,0,.15,.02,.31,.03,.45,.08,.14,.05,.28,.12,.4,.21,.06,.05,.12,.09,.18,.15,.05,.07,.1,.13,.14,.22,.08,.16,.15,.31,.22,.46,.05,.17,.1,.33,.15,.49,.03,.12,.08,.23,.11,.35,.03,.12,.06,.24,.11,.36,.04,.11,.09,.21,.16,.31,.05,.12,.12,.22,.2,.33,.08,.1,.18,.2,.29,.3,.11,.11,.23,.22,.36,.32,.15,.12,.32,.22,.47,.33,.13,.08,.27,.16,.4,.22,.11,.05,.26,.11,.4,.16,.14,.05,.27,.13,.36,.22,.02,.01,.03,.03,.04,.04,.17,.21,.16,.51,.17,.77,.01,.18,.02,.35,.03,.52,.02,.25,0,.49,.02,.73,0,.24,.01,.48,.02,.71,0,.2,.02,.41,.04,.61,.03,.43,.12,.88,.24,1.33,.05,.16,.1,.31,.15,.46,.05,.16,.1,.31,.15,.47,.05,.15,.12,.31,.18,.46,.06,.15,.12,.3,.18,.45,.12,.29,.25,.59,.39,.88,.14,.28,.28,.57,.43,.85,.22,.42,.44,.83,.68,1.23,.07,.12,.13,.24,.2,.36,.11,.19,.18,.38,.21,.57,.08,.39,.03,.78-.07,1.23-.21,.91-.37,1.83-.37,2.76,0,.21,0,.43,.01,.63,.01,.18,.03,.35,.05,.53,.06,.43,.18,.88,.33,1.3,.08,.22,.17,.43,.26,.64,.15,.32,.29,.65,.35,1.01-.01,.08-.02,.16-.04,.23Z"/></clipPath><clipPath id="uuid-3c268c30-2169-4fdc-bca5-95a2d7b9f641"><path class="uuid-cb17cdf2-57eb-49f4-83c8-5c482ddd7679" d="M169.54,79.93c-.03-.2-.07-.39-.11-.57-.02-.06-.03-.13-.04-.19-.05-.19-.1-.39-.15-.58-.05-.2-.09-.39-.12-.58-.03-.2-.04-.39-.02-.59,.02-.2,.08-.4,.14-.61,.15-.42,.35-.83,.52-1.25,.23-.63,.42-1.3,.34-2.07-.03-.38-.18-.82-.36-1.23-.1-.24-.21-.47-.33-.68-.11-.19-.21-.35-.33-.49-.2-.25-.54-.51-.68-.81,0-.02-.02-.04-.03-.07-.12-.32-.01-.67,.03-1.01,.03-.23,.05-.45,.08-.66,.07-.64,.14-1.26,.17-1.89,0-.27,0-.54,0-.82,0-.3-.03-.6-.07-.9-.02-.15-.04-.31-.07-.46-.04-.16-.07-.31-.12-.46-.24-.87-.52-1.7-.89-2.49-.18-.39-.36-.77-.56-1.14-.2-.37-.42-.73-.64-1.08-.17-.27-.33-.52-.5-.77-.17-.25-.35-.49-.52-.73-.02-.02-.03-.05-.05-.07-.02-.46-.04-.83-.28-1.4-.01-.04-.03-.08-.06-.13-.07-.15-.13-.29-.2-.44-.04-.08-.08-.16-.12-.24-.05-.1-.1-.21-.16-.3-.03-.06-.06-.12-.09-.17-.05-.1-.11-.2-.16-.29-.14-1.06-.39-2.12-.82-3.13-.12-.27-.23-.53-.37-.78-.12-.21-.24-.42-.37-.61-.16-.26-.35-.49-.55-.73-.2-.23-.42-.45-.65-.66-.24-.21-.48-.4-.73-.56-.2-.14-.42-.28-.62-.42-.2-.15-.41-.31-.59-.48-.19-.17-.36-.37-.52-.57-.05-.07-.1-.15-.15-.22-.1-.18-.21-.35-.3-.52-.09-.16-.18-.33-.26-.49-.16-.33-.29-.68-.42-1.06-.02-.05-.03-.1-.05-.16-.06-.19-.13-.38-.21-.56-.08-.17-.18-.34-.3-.49-.23-.31-.52-.57-.92-.77-.16-.08-.31-.15-.46-.23-.55-.28-1.02-.6-1.33-1.25-.08-.17-.16-.34-.24-.51-.08-.15-.16-.31-.25-.47-.13-.23-.29-.45-.5-.67-.11-.12-.24-.23-.39-.34-.17-.13-.35-.23-.53-.32-.19-.08-.37-.15-.57-.21-.26-.09-.38-.15-.48-.24-.1-.09-.17-.21-.33-.4-.06-.06-.12-.11-.18-.17-.57-.51-1.56-.82-2.25-1.08-.14-.06-.27-.09-.4-.1-.57-.08-1,.12-1.51,.22-.23-.11-.46-.23-.7-.32-.43-.17-.89-.37-1.36-.56-.05-.06-.11-.12-.15-.18-.02-.02-.04-.04-.05-.06-.12-.14-.24-.28-.41-.43-.04-.05-.11-.1-.17-.15-.07-.05-.13-.11-.21-.16-.08-.05-.16-.1-.24-.16-.09-.05-.19-.09-.28-.14-.08-.04-.17-.07-.25-.1-.09-.03-.18-.05-.26-.09-.18-.04-.35-.07-.52-.1-.17-.03-.33-.02-.5-.03-.17-.01-.32,0-.47,.01-.1,.02-.19,.03-.28,.04-.05,0-.09,.01-.14,.02-.04,0-.08,.02-.13,.03-.35,.08-.69,.16-.99,.28l-.04,.02c-.64-.06-1.29-.09-1.93-.12-.03-.02-.06-.05-.08-.07-.33-.29-.66-.56-1-.81-.33-.23-.68-.42-1.09-.54-.07-.01-.14-.03-.21-.05-.25-.06-.5-.11-.76-.14-.55-.06-1.12-.02-1.65,.14-.1,.03-.2,.07-.3,.11-.35,.14-.68,.34-.96,.62-.13,.14-.25,.33-.38,.53-.37,.02-.74,.07-1.1,.12-.09-.15-.19-.3-.31-.41-.44-.4-1.07-.4-1.63-.2-.1,.04-.21,.08-.3,.14-.1,.05-.18,.1-.27,.16-.07,.05-.13,.1-.18,.14-.05,.05-.1,.11-.15,.15-.09,.11-.14,.21-.2,.33-.04,.1-.08,.21-.12,.31-.09,.04-.19,.07-.28,.12-.05,.03-.11,.06-.17,.09-.18,.1-.32,.2-.46,.3-.04-.03-.08-.07-.12-.1-.06-.05-.11-.1-.16-.14-.07-.06-.14-.11-.21-.17-.03-.03-.07-.06-.1-.08-.04-.03-.07-.07-.11-.1-.14-.11-.26-.21-.39-.32-.06-.05-.12-.11-.18-.15-.06-.05-.12-.1-.19-.15-.05-.03-.12-.08-.19-.12-.07-.03-.14-.07-.22-.1-.16-.07-.34-.12-.56-.17-.19-.04-.4-.06-.59-.08-.09-.01-.17-.02-.24-.03-.13-.02-.24-.03-.35-.04-.11,0-.22-.02-.32-.03-.21,0-.42-.01-.67,.01-.14,.02-.3,.04-.48,.07-.44,.07-.87,.19-1.3,.29-.02,0-.04,0-.05-.01-.17-.02-.23-.01-.39-.03-.14-.01-.31-.05-.47-.08-.14-.03-.26-.07-.36-.11-.3-.12-.57-.3-.94-.34-.54-.08-.99-.14-1.53-.1-.25,.02-.51,.07-.77,.1-.55-.5-1.14-.95-1.78-1.31-.23-.09-.46-.16-.66-.24-.74-.28-1.5-.1-2.18,.24-.23,.12-.46,.25-.67,.39-.04,.03-.08,.05-.12,.07-.29,.18-.57,.33-.85,.45-.5,.2-1,.31-1.61,.36-.02,0-.04,0-.06,.01-.16,.01-.33,.03-.51,.07-.18,.04-.37,.09-.55,.16-.18,.07-.35,.17-.5,.28-.15,.11-.28,.25-.37,.41-.06,.1-.1,.2-.13,.32-.03,.12-.04,.26-.02,.41h0c-.15,.13-.3,.27-.41,.41-.16,.21-.31,.45-.46,.68-.07,.01-.14,.03-.2,.05-.06,.03-.11,.06-.16,.09-.11,.07-.2,.14-.29,.21-.08,.08-.16,.17-.24,.26-.08,.12-.18,.25-.24,.41-.06,.16-.11,.33-.12,.5,.02,.21,.05,.39,.09,.56l-.02,.02c-.1,.16-.19,.33-.28,.5-.09,.17-.19,.34-.25,.53-.04,.11-.08,.22-.12,.32-.03,.11-.07,.21-.1,.31-.03,.1-.04,.21-.06,.31-.03,.2-.05,.4-.06,.6,0,.2,.03,.4,.07,.61,.02,.07,.03,.14,.04,.21,.03,.13,.04,.23,.03,.35,0,.11-.02,.23-.05,.33-.1,.36-.34,.69-.55,1.05-.05,.08-.1,.18-.15,.27-.13,.27-.24,.52-.35,.78-.1,.27-.21,.52-.31,.79-.1,.26-.19,.53-.27,.8-.07,.27-.13,.55-.17,.82-.04,.25-.07,.51-.08,.77,0,.27,0,.56,.03,.85,0,0,0,.01,0,.02,.05,.38,.11,.74,.19,1.1,.08,.37,.18,.71,.32,1.06,.02,.06,.05,.12,.07,.18,.32,.74,.68,1.44,.32,2.25-.18,.41-.4,.8-.6,1.19-.3,.59-.56,1.2-.53,1.92,.01,.35,.11,.78,.27,1.18,.08,.23,.19,.47,.3,.68,.09,.18,.2,.35,.3,.5,.19,.26,.54,.56,.63,.87,0,.02,.01,.04,.01,.07,.07,.34-.12,.65-.24,.96-.08,.2-.16,.41-.24,.61-.12,.29-.23,.58-.35,.86-.11,.29-.23,.57-.33,.85-.09,.25-.17,.5-.24,.75-.15,.56-.25,1.12-.26,1.74-.02,.85,.05,1.7,.18,2.52,.07,.41,.15,.81,.25,1.21,.09,.4,.22,.79,.34,1.17,.17,.52,.38,1,.58,1.48,0,1.22,.02,2.44,.04,3.66,0,.03-.02,.07-.03,.1-.07,.29-.15,.57-.23,.85-.15,.57-.26,1.14-.33,1.72-.03,.26-.05,.53-.07,.8-.01,.22-.02,.44-.01,.67,.01,.56,.12,1.15,.26,1.7,.08,.29,.18,.57,.29,.84,.08,.19,.16,.39,.23,.59,.01,.58,.02,1.17,.03,1.75,0,.26,.01,.51,.02,.77-.13,.48-.3,.93-.57,1.4-.02,.05-.05,.09-.08,.14-.21,.35-.36,.7-.42,1.06-.06,.36-.02,.74,.15,1.13,.07,.16,.13,.31,.19,.47,.11,.28,.19,.56,.21,.84,.02,.29-.02,.58-.17,.9-.16,.34-.33,.65-.45,.97-.1,.24-.17,.5-.21,.76-.02,.15-.02,.3,0,.47,.03,.39,.16,.74,.31,1.09,.2,.48,.09,.51-.05,.95-.02,.07-.04,.15-.05,.22-.13,.68,.11,1.57,.19,2.24,.01,.13,.05,.25,.09,.36,.23,.63,.82,.91,1.12,1.54,.02,.04,.02,.08,.03,.12,0,.09,.01,.18,.02,.27,0,.12,0,.24,.01,.37-.05,.23-.14,.46-.25,.69-.11,.24-.22,.46-.31,.68-.01,.04-.02,.06-.03,.1-.07,.2-.12,.41-.16,.62-.05,.3-.06,.6-.04,.91,.02,.54,.12,1.09,.26,1.61,.06,.17,.12,.32,.18,.46,.25,.63,.51,1.16,.9,1.67,.05,.06,.1,.13,.16,.19-.31,.54-.37,1.17-.28,1.74,.03,.23,.1,.46,.18,.68,.05,.11,.1,.21,.15,.32,.02,.03,.02,.06,.04,.08,.02,.03,.04,.05,.05,.08,.03,.04,.06,.1,.1,.15,.04,.06,.08,.12,.12,.17,.05,.05,.09,.1,.13,.15,.04,.05,.09,.09,.13,.15,.04,.05,.1,.09,.14,.12,.1,.08,.19,.17,.29,.23,.1,.06,.2,.12,.3,.19,.1,.05,.21,.09,.32,.13,.05,.02,.11,.04,.16,.06,.06,.01,.11,.03,.17,.05,.11,.02,.22,.05,.34,.06,.08,.01,.16,.02,.24,.03,.14,.01,.27,.03,.39,.07,.12,.04,.24,.09,.36,.14,.37,.19,.72,.47,1.11,.72,.1,.06,.2,.12,.3,.18,1.14,.62,2.3,1.17,3.54,1.47,.28,.08,.57,.13,.87,.18,.32,.04,.65,.08,1,.08h.02c.45,0,.9-.03,1.34-.12,.44-.08,.86-.23,1.25-.4,.07-.03,.13-.06,.2-.1,.4-.2,.77-.43,1.18-.58,.41-.15,.85-.22,1.32-.08,.48,.14,.89,.37,1.36,.54,.09,.03,.18,.07,.28,.09,.1,.03,.19,.06,.3,.07,.2,.03,.41,.07,.64,.05,.12,0,.23,0,.35-.03,.12-.03,.24-.05,.36-.09,.03-.01,.07-.02,.1-.03,.03-.01,.06-.03,.1-.04,.06-.03,.13-.06,.19-.09,.06-.04,.12-.06,.18-.1,.06-.03,.11-.07,.16-.1,.42-.31,.71-.72,.96-1.06,.14-.2,.26-.38,.41-.53,.12-.14,.26-.26,.41-.36,.13-.09,.29-.21,.47-.3,.18-.1,.39-.16,.58-.16,.03,0,.06,0,.09,0,.42,.04,.73,.33,1.02,.56,.2,.16,.38,.33,.56,.49,.51,.47,.97,.96,1.5,1.42,.23,.2,.48,.39,.75,.57,.61,.38,1.35,.63,2.11,.72,.53,.06,1.05,.06,1.55,.02,.5-.04,.99-.11,1.46-.21,.94-.19,1.82-.47,2.67-.76,.65-.22,1.27-.44,1.88-.66,.06-.02,.12-.05,.19-.07,.05,.02,.1,.04,.13,.03,.12-.02,.23-.04,.36-.06,.58-.1,1.16-.21,1.75-.31,.23,.02,.45,.04,.7,.07,.64,.09,1.3,.13,1.98,.1,.67-.03,1.36-.14,2.03-.35,.16-.06,.31-.12,.47-.18,.15-.07,.3-.15,.45-.22,.12-.07,.24-.14,.36-.21,.12-.07,.23-.15,.34-.24,.55-.4,1.03-.91,1.44-1.43,.08-.1,.14-.19,.21-.29,.01,0,.03-.01,.04-.02,.37-.18,.79-.36,1.15-.59,.1-.06,.2-.14,.29-.21,.06-.04,.11-.09,.16-.14,.09-.09,.15-.17,.21-.25,.03-.04,.06-.09,.09-.13,.08-.11,.13-.22,.2-.33,.15-.23,.31-.44,.69-.63,.11-.03,.23-.06,.34-.08,.2-.04,.4-.09,.6-.11,.21-.03,.41-.07,.61-.09,.1-.01,.21-.03,.32-.04,.11-.02,.22-.03,.33-.04,.06-.01,.12-.02,.19-.03,.05,0,.11-.01,.17-.02,.06-.01,.11-.02,.17-.04,.11-.02,.22-.06,.33-.09,.11-.03,.21-.09,.32-.14,.1-.06,.21-.11,.31-.18,.4-.28,.74-.68,.93-1.17,.07-.2,.15-.39,.2-.58,.03-.08,.06-.16,.08-.25,.03-.08,.06-.16,.08-.24,.06-.16,.13-.3,.21-.44,.15-.29,.37-.55,.67-.77,.16-.11,.32-.21,.47-.3,.15-.09,.3-.19,.45-.28,.22-.15,.45-.32,.66-.53,.12-.12,.24-.25,.36-.41,.27-.34,.44-.73,.61-1.12,.23-.54,.32-.51,.74-.81,.07-.05,.14-.1,.2-.16,.58-.54,1.09-1.49,1.51-2.15,.08-.14,.15-.26,.2-.39,.16-.42,.16-.79,.17-1.17,.12-.2,.24-.39,.33-.6,.16-.37,.24-.77,.34-1.15,.15-.15,.3-.3,.47-.44,.22-.17,.44-.35,.64-.53,.03-.02,.06-.05,.08-.08,.17-.17,.33-.37,.48-.58,.1-.14,.19-.3,.28-.45,.08-.16,.17-.32,.25-.5,.07-.14,.12-.3,.18-.45,.05-.14,.1-.28,.14-.42,.03-.08,.07-.15,.1-.23,.05-.11,.09-.23,.12-.33,.07-.22,.14-.42,.2-.61,.11-.4,.15-.8,.15-1.23,0-.07,0-.14,0-.22-.01-.25,.03-.48,.12-.7,.08-.18,.18-.35,.29-.52,.11-.17,.23-.34,.34-.51,.05-.09,.11-.18,.16-.28,.56-1.03,1.1-2.05,1.42-3.17,.08-.26,.13-.52,.18-.79,.04-.28,.08-.58,.1-.88,0-.01,0-.02,0-.02,.01-.39,0-.78-.02-1.16-.01-.2-.03-.38-.05-.57Zm-25.34,.53c-.04,.15-.09,.29-.13,.43-.04,.12-.04,.31-.05,.47-.06,.12-.12,.24-.18,.34-.03,.02-.06,.03-.07,.07-.02,.06-.06,.12-.08,.18-.16,.21-.33,.4-.55,.57-.04,.03-.06,.05-.1,.08-.5,.35-.84,.69-.94,1.3-.02,.11-.04,.24-.08,.36-.11,.42-.34,.8-.85,.94-.14,.04-.26,.07-.39,.09-.13,.03-.25,.04-.37,.08-.18,.04-.37,.09-.53,.17-.1,.05-.2,.1-.29,.17-.12,.08-.21,.18-.3,.28-.1,.09-.18,.21-.27,.32-.24,.31-.31,.25-.65,.28-.06,0-.11,.01-.17,.03-.13,.03-.25,.08-.38,.15-.13,.06-.26,.13-.39,.21-.13,.08-.25,.15-.38,.23-.12,.07-.25,.14-.36,.2-.09,.04-.17,.1-.24,.16-.19,.17-.31,.37-.42,.59-.11,.22-.23,.44-.44,.63-.15,.13-.32,.2-.52,.22-.19,.03-.4,0-.6-.03-.1-.02-.19-.03-.29-.05-.09-.01-.19-.03-.27-.04-.03,0-.05,0-.07,0-.15-.03-.31-.03-.48-.03-.21,0-.43,.02-.66,.06-.39,.06-.78,.16-1.16,.28-.12,.04-.23,.09-.34,.13-.47,.19-.87,.36-1.29,.61-.09,.05-.19,.11-.29,.17-.14,.08-.28,.16-.42,.23-.22-.03-.42-.06-.62-.07-.22,0-.45,.01-.72,.09-.19,.04-.39,.12-.62,.23-.26,.12-.54,.42-.99,.63-.26-.21-.49-.44-.65-.67-.2-.29-.32-.56-.45-.85-.06-.13-.12-.27-.18-.4-.04-.07-.07-.16-.11-.23-.04-.08-.08-.17-.12-.26h0c-.23-.45-.45-.97-.76-1.46-.03-.05-.06-.09-.08-.14-.05-.08-.1-.17-.16-.25-.05-.57-.09-1.14-.13-1.71,.13-.24,.25-.47,.39-.7,.27-.46,.51-.92,.51-1.47,0-.28-.08-.61-.19-.93-.07-.19-.15-.37-.23-.54-.08-.16-.16-.29-.25-.41-.15-.22-.45-.47-.52-.71,0-.02,0-.04-.01-.06-.05-.26,.13-.5,.24-.74,.08-.16,.15-.32,.23-.47,.22-.45,.44-.89,.61-1.34,.08-.2,.15-.4,.2-.6,.05-.22,.11-.45,.14-.67,.03-.24,.05-.47,.04-.72-.02-.34-.05-.69-.09-1.01-.05-.33-.11-.65-.18-.96-.14-.62-.34-1.24-.57-1.83-.17-.45-.35-.88-.55-1.31-.06-.12-.11-.25-.16-.38-.09-.21-.13-.4-.15-.58-.02-.39,.09-.77,.27-1.2,.36-.86,.67-1.76,.8-2.68,.04-.21,.06-.42,.07-.63,0-.18,0-.36,0-.54-.02-.44-.12-.9-.26-1.34-.08-.23-.17-.45-.27-.65-.18-.34-.36-.7-.44-1.08-.05-.19-.07-.38-.06-.58,0-.07,.01-.14,.02-.21,.11-.62,.22-1.12,.46-1.74,.02-.05,.03-.08,.05-.13,.25-.63,.27-1.21-.14-1.73-.08-.1-.17-.21-.24-.32-.07-.09-.13-.19-.17-.28-.02-.05-.04-.1-.05-.15,.02-.28,.04-.56,.06-.83,.13-.24,.28-.43,.42-.62,.05-.06,.09-.13,.14-.2,.02-.03,.04-.07,.06-.1,0,0,0-.02,.01-.02,0-.01,0-.02,.01-.04,.01-.03,.02-.07,.03-.1,.04-.15,.07-.27,.09-.4,.03-.3-.05-.54-.12-.79-.03-.09-.04-.14-.04-.19,0-.05,.01-.08,.04-.11,.02-.02,.04-.01,.07-.01s.06,0,.1,.02c.02,0,.04,.01,.06,.01,.04,.03,.05,.04,.05,.03,0-.01,0-.03,0-.06,.01-.03,.03-.05,.05-.05,.01,0,.03-.02,.05-.04,.01-.01,.02-.02,.04-.03,0,0,0-.01,.02-.01h.04s.1,0,.16,0c.12,0,.25-.03,.37-.04,.26-.03,.54-.04,.83-.01,.21,.02,.37,.12,.53,.24,.07,.07,.15,.15,.22,.23,.07,.09,.14,.16,.21,.26,.07,.08,.14,.17,.21,.25,.07,.07,.14,.15,.22,.22,.02,.02,.04,.04,.06,.06,.14,.13,.29,.22,.46,.31,.12,.06,.23,.11,.35,.15,.12,.04,.24,.09,.37,.11,.44,.11,.89,.13,1.32,.1,.13-.01,.26-.03,.38-.05,.52-.08,.96-.2,1.43-.41,.1-.05,.21-.09,.31-.14,.16-.07,.31-.16,.46-.24,.05,0,.09,0,.14,.02,.28,.08,.55,.27,.83,.43,.07,.04,.14,.08,.22,.11,.81,.4,1.57,.8,2.35,1.07,.08,.03,.18,.06,.27,.1,.1,.02,.18,.04,.27,.07,.19,.05,.4,.1,.6,.12,.01,0,.01,0,.02,0,.26,.05,.54,.08,.8,.13,.14,.02,.27,.04,.41,.05,.14,.02,.27,.04,.41,.06,.05,0,.09,0,.14,.01,.16,0,.31,.04,.46,.06,.15,.03,.3,.07,.44,.13,.14,.07,.26,.15,.37,.26,.06,.05,.11,.11,.16,.17,.04,.07,.08,.14,.11,.23,.06,.17,.11,.33,.16,.49,.03,.17,.06,.34,.09,.5,.02,.13,.05,.24,.07,.37,.01,.13,.03,.25,.07,.37,.03,.11,.07,.22,.12,.33,.04,.12,.09,.24,.16,.35,.07,.11,.15,.22,.25,.34,.1,.12,.2,.24,.32,.36,.14,.13,.29,.26,.43,.38,.12,.1,.25,.2,.37,.27,.1,.07,.24,.14,.37,.21,.13,.07,.25,.16,.33,.26,.01,.01,.02,.03,.04,.05,.14,.23,.09,.52,.07,.78,0,.18-.02,.35-.03,.52-.01,.25-.06,.49-.08,.73-.02,.24-.05,.48-.07,.71-.02,.2-.03,.41-.04,.61-.02,.44,0,.89,.08,1.35,.03,.17,.06,.32,.09,.48,.03,.17,.06,.32,.09,.48,.04,.16,.08,.32,.12,.47,.04,.15,.08,.31,.12,.47,.09,.3,.18,.61,.28,.92,.1,.3,.21,.6,.32,.89,.17,.44,.34,.88,.52,1.31,.05,.13,.1,.26,.15,.39,.08,.21,.13,.4,.14,.59,.03,.4-.07,.78-.23,1.21-.33,.87-.6,1.78-.72,2.7-.03,.21-.05,.42-.06,.63-.01,.18-.02,.35-.02,.53,0,.44,.07,.9,.17,1.34,.05,.23,.11,.45,.18,.67,.11,.33,.21,.68,.23,1.05-.02,.07-.04,.15-.06,.22Z"/></clipPath><clipPath id="uuid-70cbb790-7782-4ee9-a319-4be5a1462341"><path class="uuid-cb17cdf2-57eb-49f4-83c8-5c482ddd7679" d="M639.99,73.92c.13-1.72-.25-3.22-1.22-4.62,.36-3.27,.69-6.16-1.55-8.99,1.11-2.27-.25-4.83-1.64-6.62-.57-3.5-2.23-6.78-5.6-8.28-1.55-1.47-1.6-4.33-4.15-4.87-2.69-.06-3.48-3.15-5.82-4.15-2.57-1.42-5.54-1.46-8.38-1.47-2.57-.98-5.26-2.58-8.12-1.59-2.49,1.77-5.76,.19-8.19,1.76-1.11,.98-2.7-.15-3.98,.32-1.43,.85-3.06,.83-4.44,1.82-.77,.4-.88,1.17-1.41,1.79-1.61,.95-3.74,1.06-4.73,2.98-.84,1.08-.8,2.48-1.74,3.45-1.11,.36-1.98,1.24-2.72,2.12-1.03,1.02-1.4,2.41-2.01,3.65-1.29,1.35-2.44,2.9-2.97,4.72-.96,2.35-.09,4.93-1.01,7.23-.53,.94-1.18,1.82-1.38,2.91-.6,2.08,1.53,3.78,.96,5.71-2.5,6.08,1.46,11.62,1.82,17.5-.33,5.32,4.26,8.6,5.86,13.29,.54,.81,1.57,1.09,2.24,1.77,.75,.72,.86,1.96,1.59,2.72,.46,.69,1.45,1,2.04,1.45,.4,.55,1.04,1.12,1.71,1.41,3.25,1.66,3.08-.07,6.14,3.09,1.55,1.04,3.36,.33,5.04,.27,3.09-.03,5.5,2.24,8.58,1.86,3.89-1.38,8.61,.75,11.99-2.46,2.22-1.43,5.65-.31,6.93-3.37,.23-.74,.71-1.31,1.5-1.43,4.89-1.16,7.56-5.67,8.66-10.25,2.99-3.3,4.61-7.09,4.23-11.61,.22-1.72,1.58-2.93,1.19-4.73-.19-.83-.38-1.58,0-2.45,1.08-1.57,.27-3.29,.57-4.93Zm-41.93,16.74c-1.03-.34-1.37-1.22-2.02-1.93-.49-.17-1.27-.22-1.27-.92,0-.7,.02-1.45-.67-1.84-.25-.19-.17-.26-.16-.54-.1-1.07-.79-1.76-1.69-2.28-.33-.41,.07-1.01,.21-1.46,.34-1.36-.44-2.77-1.43-3.67,.93-1.66,.42-3.57,.12-5.29,.59-1.5,1.58-2.86,1.86-4.44-.1-5.78,3.1-2.94,2.52-8.1,.92-1.19,2.72-1.29,3.91-2.18,1.84-.95,3.44-3.21,5.61-3.14,1.52,.47,2.68,1.54,4.06,2.2,2.02,.54,3.58,2.05,3.72,4.2,1.24,1.4,1.51,1.43,1.44,3.46,.15,.73,.99,1.06,.83,1.86,.2,1.2,.84,2.03,1.79,2.76,.42,.69-.26,1.47-.28,2.2-.09,1.42,.43,2.83,1.23,3.99,0,.14,0,.28,.01,.42-1.06,1.12-.92,2.74-.81,4.11-.73,1.13-1.78,2.2-1.89,3.62,.74,4.75-1.39,2.2-2.01,5.55-.55,.46-1.13,.89-1.74,1.27-2.73-.52-5.01,1.71-7.58,1.5-1.95-1.46-3.42-2.2-5.74-1.34Z"/></clipPath><image id="uuid-5846bc9c-3d39-4257-bb28-2b0557b43141" width="180" height="350" xlink:href="included_images/symbol/symbol_question 2.16.43 PM.jpg"/><image id="uuid-a8560435-2112-4fa1-808c-d207d31e3479" width="305" height="350" xlink:href="included_images/letters/letter_O.jpg"/><image id="uuid-f98ad915-5505-45e8-a110-4f9caabb0c2e" width="298" height="350" xlink:href="included_images/letters/letter_D.jpg"/></defs>
<g id="uuid-3fec11e6-87ca-4c91-b682-a4b3b331437d"><g class="uuid-2022363e-2378-45b2-a0b9-d90778ac4c59 swinging cls-5"><image width="118" height="350" transform="translate(66.46 33.88) rotate(-4.35) scale(.23)" xlink:href="included_images/letters/letter_I.jpg"/></g></g><g id="uuid-ef9a5757-07ac-4579-83d8-9baab0fdcf7c">
<g class="uuid-87643d9f-5217-46c9-977e-0a5b6833342a swinging cls-3"><image width="308" height="350" transform="translate(317.74 24.44) rotate(3.66) scale(.25)" xlink:href="included_images/letters/letter_U.jpg"/></g></g><g id="uuid-991ea5a3-c51d-4ef8-9815-c0f824094ee4">
<g class="uuid-4ffd6ab7-141d-4ae7-bec8-eb5c671733d8 swinging cls-2"><use transform="translate(244.77 34.62) rotate(-2.84) scale(.23)" xlink:href="#uuid-a8560435-2112-4fa1-808c-d207d31e3479"/></g></g><g id="uuid-2249fd13-6364-44a0-aafd-3838e1988914">
<g class="uuid-d6b4a3d4-bdf5-4e26-aaa2-b2f9d317a2ab swinging cls-9" style="transform-origin: 31% 18%;"><image width="357" height="350" transform="translate(490.05 33.75) scale(.24)" xlink:href="included_images/letters/letter_N.jpg"/></g></g><g id="uuid-86e0174c-95a4-4db6-baa7-fdbd22ede4b2">
<g class="uuid-beae8a39-1e06-4273-89ae-409c8e10361d swinging cls-6"><image width="275" height="350" transform="translate(421.77 33.75) rotate(-6.12) scale(.24)" xlink:href="included_images/letters/letter_K.jpg"/></g></g><g id="uuid-2d72a3e8-08a2-41f4-8d5d-46675bb16eaf">
<g class="uuid-497394ad-ffba-4e45-9d6f-e58338ee7076 swinging cls-8"><image width="281" height="350" transform="translate(186.75 28.12) scale(.25)" xlink:href="included_images/letters/letter_Y.jpg"/></g></g><g>
<g class="uuid-cbbc231c-40fe-4428-96cc-b3bd87ad76b6 swinging cls-10"><use transform="translate(746.27 -.92) rotate(10.68) scale(.35)" xlink:href="#uuid-5846bc9c-3d39-4257-bb28-2b0557b43141"/></g>
<g class="uuid-97adb797-5941-44ae-8f87-94e85eb254e3 swinging cls-11"><use transform="translate(746.27 -.92) rotate(10.68) scale(.35)" xlink:href="#uuid-5846bc9c-3d39-4257-bb28-2b0557b43141"/></g></g>
<g class="uuid-29f032d3-b11d-4874-9227-6f24e5a0e06f swinging cls-9" style="animation-direction: reverse;animation-duration: 24s;"><image width="387" height="350" transform="translate(633.58 36.44) rotate(-6.07) scale(.23)" xlink:href="included_images/letters/letter_W.jpg"/></g>
<g class="uuid-98d7fea2-7402-4145-a06e-6ced8f6f71f1 swinging cls-5" style="animation-direction: reverse;"><use transform="translate(-1.55 34.53) rotate(-5.6) scale(.24)" xlink:href="#uuid-f98ad915-5505-45e8-a110-4f9caabb0c2e"/></g>
<g class="uuid-9315f567-68ca-4e21-aca1-cc9d49d10f19 swinging cls-3"><use transform="translate(101.05 31.65) rotate(1.56) scale(.24)" xlink:href="#uuid-f98ad915-5505-45e8-a110-4f9caabb0c2e"/></g><g id="uuid-5fbb3185-fcb5-4d5a-a282-8efca2667fe2">
<g class="uuid-928111e4-2c6f-4c2b-ac72-258865f7ab32 swinging cls-12"><use transform="translate(567.3 34.94) rotate(-2.46) scale(.23)" xlink:href="#uuid-a8560435-2112-4fa1-808c-d207d31e3479"/></g></g></svg>