<svg id="incorrect-phrase" xmlns="http://www.w3.org/2000/svg" xmlns:xlink="http://www.w3.org/1999/xlink" viewBox="0 0 821 217.89"><defs><style>.uuid-e4a249f2-5a72-4a96-b02c-2b3eb9c78b30{fill:none;}.uuid-9d8bf999-6dc4-4cd4-a3e8-6202b27d4c17{clip-path:url(#uuid-383c74b3-9bc9-45a5-b993-7189561ea834);}.uuid-f93bcfd6-1195-4ba4-96fa-d1183b2a9a09{clip-path:url(#uuid-49fc06ee-3d73-4ecb-9fd8-915a69f47b68);}.uuid-4d56cb66-3f00-4a91-a7ec-bcd253286668{clip-path:url(#uuid-52feed13-c252-4984-b430-e72a94a55064);}.uuid-3b55d1d3-f423-40dd-94cb-95aba233cf88{clip-path:url(#uuid-a7168883-1d3b-4824-a316-f4490cfb4199);}.uuid-1ac68127-d387-421f-9c95-7d6f5dede47c{clip-path:url(#uuid-9293fc47-a1a1-4bd0-9fa8-ed63c2c8e493);}.uuid-fea43231-a8b1-4e5c-91b8-1d79dd814b45{clip-path:url(#uuid-9fdb8c4a-5dcd-4339-abc0-72733594dd3e);}.uuid-b6606485-fc6d-4829-b3fe-563a8cfffd34{clip-path:url(#uuid-8a9a35f7-aa2a-4989-a647-97bfeca9c274);}.uuid-ea2777e6-bb90-4ae8-8882-c03ad4269c4a{clip-path:url(#uuid-482351b4-c242-4202-9064-04b4a814f97f);}.uuid-e697a4e6-7ba3-432c-a404-0d5f3fba63a8{clip-path:url(#uuid-c0923bc9-d62e-492a-a64f-badb055271ca);}</style><clipPath id="uuid-8a9a35f7-aa2a-4989-a647-97bfeca9c274"><path class="uuid-e4a249f2-5a72-4a96-b02c-2b3eb9c78b30" d="M819.71,72.8c-.8-1.14,.05-.86,.42-1.61-.55-1.49,.75-3.13-.84-4.25-1.26-1.7,2.79-3.22,1.42-5.57-.54-1.07-1.33-2.18-2.36-2.8-.81-2.76-3.36-4.23-6.09-3.89-3.36-1.92-6.96-4-11.01-3.1-4.08,1.11-6.46-4.25-10.97-.97-5.96-2.16-11.86-3.39-18.24-2.05-6.46-2.25-8.25-3.13-15.23-1.73-1.62-.19-2.8-1.24-4.29-1.67-1.47-.36-3.02,.83-4.48,0-1.99-1.5-3.71-.35-5.68-.61-1.97-.3-3.99,.16-5.55,1.41-5.1-.97-7.82-2.02-11.27,2.99-4.29,.53-.51,3.77-1.5,6.1-3.93,1.73-1.64,5.25-.55,7.85-.85,1.01-1.82,2.25-1.14,3.64-3.4,3.58,1.56,10.84,5.98,8.37,.43,.08,.87,.12,1.3,.17,.24,1.27,1.99,1.3,2.56,.26,2.36-.06,4.39,1.23,6.71,1.34,2.73-.61,5.9,.81,8.24,1.79,1.63,.83,3.94,.18,4.5,2.44,.13,2.59-2.26,4.84-.48,7.63,.21,.67,.82,1.19,.94,1.88-1.23,3.26-3.35,6.38-2.8,10.14,2.2,10.61-3.51,9.9-1.52,20.46-.22,2.14-2.51,3.42-2.05,5.63,.22,.94,.45,1.88-.16,2.75-.89,1.14-1.59,2.43-1.2,3.9,.12,.53-.03,.71-.3,1.19-.47,1.08-.33,2.51-.28,3.62,.2,1,1.41,1.83,.92,2.97-2.48,2.69-3.09,6.4-.93,9.55,.28,1.24-1.47,2.81-.05,3.82,1.72,2.05,4.02,3.76,6.79,4.01,1.61-.13,1.87,1.71,2.9,2.47,.76,.44,1.63,.24,2.43,.02,2.57-.72,3.83,3.04,6.55,2.32,.9-.16,1.8-1.19,2.55-.17,.86,.27,1.66-.72,2.54-.66,1.49,.21,2.55-.58,3.65-1.45,2.36-.22,5.29,.41,6.87-1.98,3.13-4.12-.02-5.32,1.76-7.66,1.12-2.39,.69-4.98,.37-7.44,.97-2.5,2.25-5.03,2-7.78-2.78-7.83,2.56-6.82,.15-12.67-.58-.76-.85-1.59-.25-2.43,2.89-4.73,2.36-10.29,1.17-15.45,.27-2.89,2.43-5.32,2.53-8.32,.39-2.12-.97-4.26-.25-6.34,.75-2.07,3.51-3.4,2.24-5.87-.47-1.86,1.94-.68,2.9-1.14,.59,.11,1.98-1.49,1.79-.59,1.73,1.46,3.98,1.3,5.8,.24,1.25-.25,2.18,1.02,3.3,1.39,2.37,.96,5.24,.75,7.45-.54,.28,.04,.56,.07,.85,.07,1.49,2.44,5.24,.75,5.89-1.59,.27-1.58,2.19-2.18,2.96-3.4-.26-2.78-2.39-2.1,.77-4.79,.41-.52,.55-1.28,.3-1.9Z"/></clipPath><clipPath id="uuid-c0923bc9-d62e-492a-a64f-badb055271ca"><path class="uuid-e4a249f2-5a72-4a96-b02c-2b3eb9c78b30" d="M36.93,131.68c-1.37-6.62-2.11-4.38-.15-11.1-2.85-7.48-.5-4.97-.3-12.03-.62-4.77-1.9-8.71-1.48-13.8,1.26-3.88-.45-7.48-.9-11.26,.05-2.11,1.74-3.79,.82-5.91-.42-.91-.84-1.77-.49-2.85,.8-1.61,.58-3.33,.02-4.91,.3-.81,.3-1.86,.28-2.74,.12-1.13-.21-2.14-.89-3.01,.06-.85-.02-1.75-.04-2.56,.02,0,0-.04,0-.03,.67-1.59,.24-3.43-.12-5.02v.03s0-.01,0-.01c0,0,0-.02,0-.02-.14-.57-.15-1.49-.53-1.86-.17-.97-.67-1.83-1.09-2.71,.71-1.86-1.58-1.83-2.59-2.59-1.16-1.74-3.89-3.09-5.52-1.18-.16,0-.3-.02-.44-.1h0c-.17-.1-.33-.19-.52-.25,.24-1.97-2.01-1.89-3.19-1.11-.82-.12-1.58-.91-2.5-.97-.02,0-.02,0-.02,0h-.01c-1.17-.28-4.31,.74-4.82,1.94-1.24,.35-2.43,.02-3.68,.23-2.79-1.76-4.07,1.92-6.69,2.62,0,0,0,.01,0,.01h0s-.01,.01-.01,.01c-.59,.52-.48,1.47,.25,1.79-.2,.17-.31,.46-.36,.72-.71,.32-.83,1.47-.18,1.93,.02,.25,.05,.5,.1,.74-1.2,2.21-2.13,5.1-1.03,7.52,.44,1.93-.67,4-.73,5.97-.01,0,0,.02,0,.03h0c-.14,.97-.17,1.95-.04,2.94,.61,2.96,2.07,5.52,.36,8.43-.43,1.85,.53,3.92,1.89,5.26-2.86,11.43,.43,11.18,.6,21.06-1.58,4.85,1.6,9.7-.19,14.43-1.41,3.46,1.15,3.3-1.27,8.05-.19,.81,.31,1.74,.3,2.47-.49,1.14-.16,2.65,.01,3.83,.33,1.56,2.27,2.62,1.03,4.38h0s-.02,.03-.02,.04c-.92,1.61-1.07,3.71-.36,5.44,0,.02,0,.03,0,.06,.39,.93,.94,1.73,1.74,2.29,.12,.44,.33,.85,.51,1.25-.15,.22-.37,.44-.4,.72,.03,.72,.42,1.66,.7,2.31,1.42,1.84,3.9-.65,5.43,.76,1.58,1.95,3.94,.05,5.77,.4,.38,.17,.9,.1,1.1-.29,.76,.21,1.73,.04,2.18,.82,0,0,0,0,.02,0h.01s.01,.02,.01,.02c.5,.72,1.46,.32,2.11,.72,.01,0,.04,.02,.05,.02h0c.08-.01,.06,0,.05,0h0c1.28,.18,2.58,.14,3.87,0,.53,.08,3.69-1.77,2.34-1.55,.98-.19,2.22-.04,3.08-.17,.03,0,.05,0,.06-.01,1.29,.22,1.54-1.12,2.03-1.92,1.61,1.54,3.16-1.21,1.94-2.6,.11-.38,.1-.72,.11-1.08,1.8-1.91,1.91-5.15,1-7.52-.23-2.64,1.29-5.33,.77-8.08Zm-2.65,18.37h0Zm0,0h0s.02,0,.03,0c0,0-.02,0-.03,0Z"/></clipPath><clipPath id="uuid-52feed13-c252-4984-b430-e72a94a55064"><path class="uuid-e4a249f2-5a72-4a96-b02c-2b3eb9c78b30" d="M636.58,141.85c-.3-1.1-.67-2.32-1.11-3.36-.09-.28-.13-.66-.13-.92,.24-.19,.13-.52,.07-.77,.17-.73,.28-1.62,0-2.38-.55-2.26-2.78-3.68-5.12-3.97-1.47-.28-2.7,.84-4.05,1.05-6.59-.32-28.69,1.72-31-4.25-.64-.73-.76-2.02-1.58-2.42,.12-.92-.31-1.77-.46-2.69,1.85-1.68,3.53-4.16,6.32-4.02,1.91,.29,3.75-.04,5.51-.79,1.81-.23,3.71,.23,5.39-.76,.69-.38,1.25,.04,1.93,.17,1.5,.48,2.83-.1,4.05-.9,2.28-.05,2.21-2.25,2.21-3.95,1.23-1.8,.66-4.65,.28-6.68,.57-2.03,.45-4.67-.62-6.6-.54-1.37-2.07-.98-3.19-1.45-2.21-1.78-5.08-.63-7.45-1.44-2.66-1.43-5.78-1.49-8.61-2.22-1.02-1.33-2.56-2.23-3.71-3.38-.97-1.29-1.08-3.11-1.96-4.49,.22-3.67-.62-9.63,3.23-11.19,10.67-2.74,22.83,2.89,33.44-.28,2.7,.24,6.74-1.71,5.73-4.96,1.19-1.28,1.53-3.19,1.4-4.99-1.73-3.86,1.92-8.13-3.07-10.31h-.02c-.47-1.25-1.55-1.75-2.77-2.23-2.06-.7-5.28-2.47-7.11-1.96-.74-.25-1.36-1.15-2.13-1.35-3.56-.53-11.98-3.49-15.43-2.76-10.59-1.9-17.06-.78-26.36,2.25-5.06,1.62-6.91,2.42-9.67,3.86-2.53,.48-5.24,2.08-6.86,4.2-4.07,2.35-3.95,9.87-5.62,14.09-1.51,13.12-2.6,16.54-2.24,32.8,.41,15.46-.64,29.73,4.89,43.03,1.1,3.01,4.36,3.38,6.18,5.6,3.64,1.33,6.8,3.32,10.74,3.99,9.71,3.2,15.18,4.15,25.63,2.73,12.07,.45,33.4-.03,33.28-16.27Z"/></clipPath><clipPath id="uuid-49fc06ee-3d73-4ecb-9fd8-915a69f47b68"><path class="uuid-e4a249f2-5a72-4a96-b02c-2b3eb9c78b30" d="M470.61,84.27c-.53-1.6-1.16-3.07-1.48-4.72,1.48-5.17-2.39-8.05-3.06-12.75,0-.02,0-.05-.01-.07-2.08-6.15-4.99-.17-8.63-11.49-.97-1.05-2.27-1.73-3.69-1.86-1.8-1.21-2.61-3.32-4.26-4.7-4.17-4.01-10.28-2.2-15.15-3.75-5.43-3.63-11.46,1.32-16.98-.92-2-1-3.7,.8-5.53,1.31-1.81,.11-3.93,.11-5.01,1.86-1.63,.82-4.68,.8-5.57,3.06-.57,4.07-8.62,.32-8.48,8.88-1.46,1.35-4.01,1.78-4.59,4.02,.03,1.15,.13,2.06-.34,3.13-3.6,4.61-1.79,6.23-1.55,11.13-2.07,2.48-2.63,5.14-.58,7.87-1.51,4.24-2.23,8.98-1.75,13.52,1.4,4.84-2.86,9.59-.36,14.57,.51,2.36-2.23,4.09-1.39,6.38,1.24,1.77-.54,3.3-.67,5.08-.04,.83,.68,1.61,.1,2.36-.58,1.85-.13,3.69,.96,5.26,.3,1.02-.74,1.9-1.12,2.77-.99,2.26,.4,4.68,.93,6.82-.21,.46-.31,.96-.37,1.48-2.28,2.09-.69,5.14,2.14,5.53h.02s0,0,.01-.01c.55,.05,.7,.67,1.18,.8,.01,0,.02,.02,.03,.01,.95,.49,.71,1.69,1.21,2.5,1.3,2.59,4.9,3.96,7.53,2.57,.72,.25,1.44,.46,2.19,.55,2.53,2.49,6.58,2.32,8.89-.3,.09-.08,.09-.01,.12,.03,2.19,.59,4.93,.58,5.96-1.82,.15-.22,.23-.55,.34-.76,.71-.73,1.52-1.62,1.29-2.73,.27-.53,.51-1.25,.28-1.68,2-.52,1.24-3.38-.51-3.74-.07-.19-.08-.39-.1-.61,1.34-1.6,2.35-1.08,.82-3.41-1.84-2.78,2.84-3.47-.41-6.93,.02-1.11,.04-2.29,.06-3.5,2.76-2.73,3.36-9.02,.24-11.64,.01-.37,.02-.72,.04-1.06,.34-.11,.72-.28,.87-.56,.72,.7,1.26,1.54,1.73,2.42-.3,2.28,.83,5.16,3.42,5.34,.2,.34,.4,.69,.62,1.08-2.02,2.67,1.65,2.66,1.5,4.23-1.36,4.63,4.72,5.23,5.79,8.85-.16,.24-.29,.48-.44,.72,0,0,0,0,0,0h0v.02s0,.01,0-.01c-.99,1.52-.07,4.23,1.6,4.82,.55,.2,1.05,.63,1.45,1.01,1.08,1.04,.61,3.86,2.82,3.45,.17,.29,.28,.49,.45,.74-1.11,.9-.54,2.85,1.02,2.42,.02,.19,.06,.36,.12,.54-.57,3.68,1.11,4.51,4.51,4.29,.74,.9,.52,2.22,1.43,3.12,1.17,.1,2.47-.75,3.52,.25,.36-.41,.94-.63,1.4-.94,1.35,0,3.24-.2,4.09-1.35,.91-.2,2.23-.33,3.17,0,2.5,.1,4.21-2.49,6.52-3.17,2.4-1.38,4.35-4.22,4.26-7.04-.28-1.06-1.49-1.67-1.4-2.85,1.55-.72,1.1-2.79-.36-3.33-.09-.13-.19-.26-.29-.39,.53-2.2-1.05-3.92-2.44-5.32-.34-2.09-.51-4.44-2.06-6.06-6.67-3.99-.65-5.98-6.54-8.3-.86-1.36-.93-2.94-.75-4.46,.26-1.06,1.8-.95,2.23-1.97,1.91-5.49,4.06-4.69,8.46-6.87,1.74-1.14,1.7-3.52,3.11-4.85,1.35-1.09,3.97-1.41,3.49-3.68-.26-1.71,2.05-1.7,2.5-3.1,.3-.52,.07-1.31,.28-1.79,1.1-1.22,1.01-3.35-.04-4.56-.33-.65-.06-1.4,.39-1.94,.92-1.05,1.12-2.49,.84-3.83Zm-34.11,2.91c-1.8,.54-1.17,2.8-3.02,3.05-1.15-.03-2.32,0-3.11,.97-.4,.44-.67,.15-1.18,.2-1.72,.22-2.77,1.18-3.86,2.37-3.05-.19-5.31-4.12-8.85-.57-.79,0-1.59-.14-2.35,.05,.12-2.74,1.66-5.29,.64-8.08,1.09-2.16,2.73-5.16,1.71-7.57-.02-.28,.09-.53,.22-.81,.61-4.25,4.02-1.48,5.12-5.34,4.4-1.95,2.13-1.62,6.59-.54,1.95,.09,3.62,1.39,5.6,1.35,.54,.49,1.15,1.07,1.78,1.58,.62,.61,.53,1.55,1.28,2.06,.4,2.14-.47,4.29,.52,6.34,1.54,1.79,.94,3.83-1.1,4.96Z"/></clipPath><clipPath id="uuid-9293fc47-a1a1-4bd0-9fa8-ed63c2c8e493"><path class="uuid-e4a249f2-5a72-4a96-b02c-2b3eb9c78b30" d="M248.62,113.87c-.46-1.05-1.13-2.03-2.11-2.56-.14-.41-.39-.55-.61-.66,.64-1.37,.65-3.72-.78-4.54-1.38,.6-2.07-.67-3.38-.91-.03-.07-.04-.15-.07-.21v-.02c-.41-.64-1.09-1.15-1.85-1.28-1.36-.31-2.81,.27-3.49,1.49-1.15,.22-1.69,.31-2.71,.66-1.57-1.44-3.74-.46-4.56,1.31-.42,.12-.84,.24-1.25,.35-3.5-1.78-6.72,.17-8.57,3.17-.88,1.02-2.88,1.07-3.82,2.31-.8,2.01-.15,4.57,1.08,6.26,.51,5.01-2.48,2.28-2.97,5.3-.21,1.7-2.24,.49-3.23,1.09-.54,.24-.62,1.3-1.4,.87-.68-.16-1.39,.39-2.01,.59-3.46,4.79-1.79-.83-8.09,1.34-2.93-.46-3.96-3.97-6.31-5.56-1.24-1.18-3.13-1.61-4.09-3.07,.05-.21-.11-.42-.29-.51-.82-1.45-.21-3.17-.93-4.59-.61-.92-1.74-1.64-1.49-2.92,.28-1.33,.44-2.68-.38-3.84-.3-.52-.19-.58-.07-1.1,.18-1.92-.49-3.63-1.59-5.14-.3-.95,.46-1.78,.85-2.56,1.08-2.61,.61-5.68-.36-8.25,1.28-.76,2.58-1.48,3.38-2.77,1.89-3.98,.41-4.28,5.41-5.48,3.17-3.61,1.12-3.17,6.37-2.82,.02,0,0,0,0,0,.02,0,.05,0,.06,0,3.11-.02,7.35-1.98,9.71,.86h0s.01,.01,.01,.01h0c.63,1.82,.74,4.34,3.1,4.73,0,0,0,0,0,0,.02,0,.03,0,.05,.01,2.75,.37,5.08-2.69,7.81-1.2,.01,0,.03,.01,.04,.01,2.21,.68,3.01-1.99,5.51-.43,.7,.12,1.37-.09,1.94-.51,1.43-.32,3.45-.12,4.35-1.68,0,0,.07-.03,.04-.02h0s0-.02,0-.02c.88-2.84,5.36,.2,6.6-4.92,.03-.06,.03-.07,.03-.06h0v-.02c.03-.51-.13-1.01-.55-1.32,.28-1.35,1.15-2.51,.99-3.93,0-.01,0-.02,0-.04,0,0,0-.01,0-.02h0c-.51-2.43-3.15-3.48-3.29-6.04-.97-6.53-8.07-7.43-11.19-12.25h-.01s-.06-.05-.04-.03c-2.18-2.5-5.56-.74-8.16-2.22-5.63-4.14-12.46-2.51-18.61-1.44-7.52-2.91-12,3.14-19.04,2.76-2.21,.17-2.63,2.77-4.73,3.22-1.63,.25-3.23,.83-4.18,2.26-1.69,1.2-3.92,2.17-4.75,4.25,0,0,0,.01,0,.01-1.25,4.82-7.1,3.78-6.21,12.41-3.27,4.63-8.65,8.17-6.79,14.78,1.2,5.07-4.26,7.21-.1,12.97-2.88,10.49,1.1,13.27,3.64,22.2-.27,5.45,3.18,9.33,6.43,13.16,2.08,7.37,3.62,4.73,7.13,10.41,.02,0,.03,.03,.05,.03,0,.02,.03,.03,.04,.03,.9,1.1,2.61,.99,3.4,2.11,1.83,1.61,4.23,2.3,6.6,2,2.72,1.43,4.96,3.99,8.43,3.77h0c.12,.03,.02,0,.06,.01,.87,.05,1.76-.22,2.48-.62,2.11,1.22,2.96,2.44,5.58,1.42,3.83,1.74,8.11,2.87,11.63-.25,3.15-.4,5.81,2.36,8.2-1.69,10.3-.51,10.13-3.73,17.73-9.41,2.98-.44,6.28-2.39,5.81-5.85,.73-.75,1.25-1.59,1.15-2.63,3.3-2.19,3.58-1.17,4.48-5.65,.59-1.35,2.47-1.76,2.12-3.6-.03-.7,.38-.71,.79-1.13,.72-.83,.92-2.24,.63-3.31,0,0,0-.01,0-.03,0,0-.02-.01-.03-.02-2.05-3.1,2.15-5.79,.41-9.04Zm-10.44-42.34l-.06,.02h0l.1-.04s-.03,.01-.04,.02Z"/></clipPath><clipPath id="uuid-482351b4-c242-4202-9064-04b4a814f97f"><path class="uuid-e4a249f2-5a72-4a96-b02c-2b3eb9c78b30" d="M156.66,70.56c-.04-.62-.62-.85-.98-1.24,.22-1.46,.61-3.38-1.14-4.23-.17-3.04-1.22-5.94-4.84-5.89-4.6-2.5-10.09-.45-14.57-2.76,.04,0-.05,0-.04,0-2.06-.65-4.14,.51-5.56,1.92-1.39,.08-2.95,.44-3.39,1.99h0c-1.23,2.4-1.55,5.31-1.28,7.97h0v.02h0s0,0,0,0h0c.14,.88,.32,1.75,.45,2.63-.49,4.06-4.47,7.72-2.62,12.08,1.44,2.75-1.68,5-.99,7.62,.9,1.44,0,2.82-.62,4.16h0v-.02s-.01,.03-.02,.05c-.21,.69-.14,1.5,.1,2.16-.01,1.65-.88,3.62,.15,5.22,0,0,0,0,.01,.01h.01s0-.02,0,0c1.02,1.09,.41,2.48-.35,3.54,0,.01,0,.02,0,.03,0,0,0,.01,0,.01-.39,.8-.53,1.82-.4,2.73-.23,.1-.3,.36-.42,.55,0,.03,0-.08,0,.07-.8,1.09-.21,2.32,.67,3.2-.08,.21-.18,.41-.3,.59-.38-.19-.96-.44-1.19-.71,.03,.07,.04,.09,.11,.11,0,0-.01,0-.02,0-.03,0-.05,0-.08,0,0,0-.01,0-.02,0,0-.04,0-.07,0-.1h0c0-.16,.01-.24,.02-.29h0c0-.05,0-.03,0,0-.3-.2-.61,.5-1,.38-.45-1.39,.24-2.66-1.93-3.01-.19-.67-.59-1.33-.85-1.97,.49-.32,.9-.82,.87-1.39h0s.02-.04,0-.06c-.11-1.11-1.41-1.67-1.09-2.91,.38-1.31-.76-1.7-1.81-1.34,.02-.09-.02-.16-.05-.24,.7-.8,.42-1.85-.73-1.96-.11-.29-.22-.59-.33-.89,1.74-3.27-2.63-5.14-2.87-7.93,0-.01,0-.03,0-.04-.17-2.78-.9-5.37-2.76-7.52-1.41-1.17-1.3-2.77-1.11-4.43h0s-.02-.03-.01-.04c.09-2.07-1.74-3.43-3.4-4.28-.66-4.71-1.65-9.76-5.95-12.68-3.09-3.32-.59-10.81-7.95-9.69-.82-.45-1.38-1.32-2.3-1.57-1.63-2.8-3.46-1.02-5.78-1.6-1.16-.59-2.45-1.01-3.69-.41-.52,.19-.59,.06-1.04-.13-1.86-.52-3.7,0-5.16,1.18-1.15,.39-2.18-.67-3.34-.67-2.18-.12-5,1.15-5.39,3.48-.27,.35-.57,.69-.7,1.13-3.1,.53-3.69,4.93-2.96,7.36-2.25,1.76-1.5,4.87-2.43,7.2-.63,1.89-.53,3.88-.49,5.82-1.38,3.59-4.32,5.64-2.08,9.99-4.07,6.14-2.91,13.19-4.1,20.06-4.69,5.56-1.42,10.76-4.22,16.07-1.69,1.79,.06,4.13-.97,6.1-1.63,1.85-.69,3.79-1.11,5.73-.34,1.07-.2,2.27-.03,3.36h0c.07,.68,.42,1.28,.95,1.68,.05,.09,.12,.16,.17,.25,0,.01,0,.01,0,.01,0-.06,0-.01,0-.02h0s.02,.03,.02,.05c.15,.25,.29,.52,.29,.84-.11,1.37-1.3,2.33-1.56,3.68,0,.02,0,.03,0,.05-.34,1.64-.14,3.62,.98,4.99,0,.02,.02,.03,.03,.05,0,0,.05,.09,.03,.05h0s0,.02,.01,.02c.39,.46,.85,.88,1.36,1.19,.03,2.8,2.73,4.93,5.3,5.39,2.19,.32,4.06-1.42,6.24-.54,1.83,1.74,4.38,3.19,6.98,3.27h0s.07,.02,.09,0c.01,.01,.01,0,.02,0,.03,0,.07-.01,.11-.02,.83-.06,1.43-.72,2.18-.94,1.61-.11,3.77,.97,4.92-.77-.2-1.7,1.84-1.24,2.37-2.57,.62-1.03,.41-2.39-.67-2.95,.06-.19,.12-.39,.17-.6,1.04-.19,1.82-1.26,1.92-2.29h0c.22-1.26-.86-2.32-1.11-3.44v.04c1.22-3.86-.35-7.38,.34-11.33,1.6-3.16,2.76-7.07,2.09-10.61,.04-1.52,1.01-2.78,1.05-4.35h0s0-.03,0-.03c.19-.99-.18-1.74-.81-2.43,.64-1.84,1.91-4.27,.24-6.08,.04-.32,.07-.64,.11-.95,1.96-1.52,2.16-4.79,1.44-7h0s0,.02,0,.01h-.01c-1.29-2.15,.24-2.12,1.55-3.18,.17,.38,.54,.83,.84,1.17,.35,.31,.91,.39,1.22,.75,.4,5,2.57,1.6,1.94,4.08v.03h0s0-.01,0,0c-.03,.93,.69,1.86,1.67,1.9,.12,.32,.25,.66,.38,1.02-1.09,2.12,.22,4.51,1.68,6.01,.22,1.39,.33,2.91,.8,4.25-.01-.02,0,.03-.03-.04,0,0,0,0,0,.01,.38,1.32,.93,2.61,2.07,3.52,0,0,0,0,0,.01h0c2.62,1.53-.75,5.18,2.7,6.76,2.68,1.43-1.29,6.3,5.83,11.51h.01s0,.01,.01,.01h0s0,.01,.01,.01c1.53,2.07,.41,4.52,1.36,6.77,.58,1.84,2.72,2.36,3.51,3.99,.75,1.34-.16,3.3,1.35,4.21,2.23,.89,.82,3.83,3.24,4.78h0s0,0,0,.02c1.16,2.68,3.25,2.2,5.48,1.99,2.12,2.14,5.7,1.98,7.47-.56,.67-.31,1.13-.23,1.78,0,1.74,2.05,4.66,1.12,6.8,.47,1.1,.24,2.27,.64,3.41,.76-.03,0,.1,0,.11,0,4.03,.21,3.79-3.97,5.21-6.34,2.36-1.28,3.31-3.75,2.09-6.19,6.04-6.89,.93-10.86,4.78-16.7,1.98-2.57,.77-5.55,1.04-8.37,.49-1.73,2.73-2.82,1.88-4.81-.59-1.88,2.26-2.98,1.42-4.98,.6-2,1.21-3.65-.14-5.63-.17-.81,.7-1.44,1.14-2.06,1.21-1.88,.94-4.42-.02-6.35,1.83-1.38,2.66-3.79,2.63-6.06h0c-.18-2.85-1.04-5.69-.15-8.47,.71-.65,.97-1.62,1.12-2.53,.01,0,0,.04,0,.02-.03-.51,.39-.39,.72-.65,.73-.51,.98-1.44,1.06-2.28,0-.04,0,.04,0,.05,0,0,0-.02,0-.02,.43-1.43-.27-2.85,.03-4.28,0,0,0-.02,0-.03h0c.53-1.19,1.06-2.42,.81-3.8Zm-83.3,71.98s0,0,0,0h0Zm0-.02h0Zm6.6-46.29c-.09,.22-.39,.22-.55,.32,.09-.1,.2-.19,.28-.29t0,0s-.01,.03-.02,.04h0c.04-.06,.12-.12,.16-.18,.07,.02,.13,.03,.11,.13Z"/></clipPath><clipPath id="uuid-9fdb8c4a-5dcd-4339-abc0-72733594dd3e"><path class="uuid-e4a249f2-5a72-4a96-b02c-2b3eb9c78b30" d="M550.83,75.19c-.83-1.48-1.73-2.82-2.37-4.39,.48-5.4-3.9-7.5-5.47-12.03,0-.03-.01-.05-.02-.06-3.24-5.69-4.97,.78-10.74-9.71-1.16-.86-2.57-1.28-4.01-1.13-2.01-.85-3.22-2.79-5.11-3.84-4.89-3.17-10.6-.21-15.71-.81-6.07-2.55-11.08,3.5-16.97,2.34-2.17-.61-3.5,1.5-5.21,2.36-1.77,.46-3.87,.86-4.6,2.8-1.45,1.12-4.48,1.69-4.92,4.09,.22,4.14-8.47,1.97-6.69,10.41-1.18,1.61-3.63,2.53-3.77,4.85,.25,1.13,.53,2.01,.26,3.16-2.67,5.25-.58,6.51,.6,11.31-1.58,2.85-1.62,5.59,.93,7.9-.68,4.49-.48,9.31,.86,13.71,2.31,4.52-1,10.03,2.43,14.48,.96,2.23-1.42,4.47-.16,6.57,1.57,1.51,.1,3.37,.31,5.15,.12,.82,.98,1.47,.55,2.32-.22,1.94,.58,3.68,1.96,5.02,.5,.95-.37,2.02-.58,2.96-.55,2.42,1.29,4.55,2.23,6.57-.12,.5-.12,1.01-.08,1.53-1.85,2.5,.3,5.21,3.17,5.06h0l.02-.02s0,.01,.01,0c.55-.06,.82,.53,1.32,.57,.01,0,.02,.01,.04,0,1.04,.3,1.03,1.54,1.68,2.24,1.78,2.31,5.6,2.98,7.94,1.1,.76,.11,1.51,.18,2.27,.13,2.98,1.98,6.95,1.04,8.74-2,.08-.09,.09-.03,.12,0,2.28,.16,4.98-.37,5.55-2.94,.1-.25,.13-.59,.19-.82,.56-.86,1.19-1.89,.75-2.95,.17-.58,.27-1.33-.04-1.72,1.87-.9,.58-3.58-1.22-3.6-.11-.17-.15-.38-.21-.58,1.02-1.84,2.12-1.52,.15-3.53-2.36-2.4,2.14-3.98-1.73-6.78-.19-1.1-.4-2.27-.61-3.47,2.21-3.23,1.6-9.57-1.99-11.56-.06-.37-.11-.72-.17-1.05,.32-.18,.66-.42,.76-.72,.84,.55,1.54,1.28,2.18,2.06,.14,2.31,1.8,4.94,4.41,4.63,.26,.3,.53,.61,.82,.94-1.48,3.03,2.14,2.31,2.29,3.9-.46,4.84,5.67,4.27,7.42,7.65-.12,.27-.2,.53-.29,.8,0,0,0,0,0,0h0v.02h0s0,.01,0-.01c-.68,1.69,.74,4.19,2.51,4.46,.58,.09,1.16,.42,1.63,.73,1.27,.83,1.35,3.7,3.45,2.88,.22,.25,.37,.43,.59,.64-.93,1.1,0,2.92,1.47,2.19,.05,.18,.12,.35,.22,.52,.14,3.75,1.96,4.25,5.29,3.38,.9,.75,.94,2.1,2.01,2.81,1.17-.13,2.3-1.22,3.53-.43,.28-.47,.8-.81,1.21-1.19,1.34-.26,3.17-.82,3.79-2.12,.87-.37,2.14-.75,3.13-.6,2.49-.38,3.69-3.27,5.84-4.38,2.11-1.83,3.5-5.01,2.87-7.78-.48-.99-1.79-1.36-1.93-2.55,1.4-1.01,.56-2.97-1-3.23-.11-.12-.24-.22-.36-.33,.11-2.28-1.79-3.68-3.43-4.79-.73-2-1.36-4.3-3.2-5.6-7.37-2.67-1.79-5.79-8.06-6.95-1.11-1.18-1.48-2.73-1.59-4.27,.05-1.1,1.6-1.28,1.83-2.37,.84-5.8,3.12-5.42,7.06-8.42,1.51-1.46,1.01-3.81,2.15-5.4,1.13-1.34,3.66-2.16,2.74-4.31-.58-1.64,1.7-2.07,1.88-3.54,.2-.57-.18-1.31-.07-1.83,.86-1.42,.36-3.51-.91-4.5-.45-.58-.33-1.38,.01-1.99,.71-1.22,.63-2.67,.1-3.95Zm-33.19,9.4c-1.67,.87-.62,3-2.4,3.6-1.15,.19-2.3,.45-2.89,1.55-.31,.51-.63,.27-1.13,.42-1.66,.55-2.52,1.7-3.36,3.08-3.05,.4-6.04-3.06-8.86,1.13-.78,.15-1.6,.16-2.31,.5-.4-2.73,.63-5.55-.91-8.12,.67-2.35,1.71-5.63,.24-7.82-.08-.27-.01-.54,.06-.84-.21-4.32,3.69-2.23,4.04-6.26,3.98-2.77,1.8-2.01,6.42-1.8,1.94-.29,3.85,.69,5.79,.26,.62,.39,1.35,.84,2.06,1.22,.73,.48,.82,1.44,1.66,1.79,.8,2.04,.35,4.34,1.73,6.17,1.86,1.48,1.67,3.61-.14,5.11Z"/></clipPath><clipPath id="uuid-a7168883-1d3b-4824-a316-f4490cfb4199"><path class="uuid-e4a249f2-5a72-4a96-b02c-2b3eb9c78b30" d="M725.11,121.71c-.29-1.08-.79-2.13-1.65-2.8-.07-.42-.3-.59-.49-.73,.83-1.23,1.19-3.5-.06-4.51-1.42,.37-1.9-.96-3.13-1.39-.02-.07-.01-.15-.03-.21v-.02c-.3-.68-.88-1.28-1.59-1.52-1.27-.51-2.76-.16-3.6,.91-1.14,.04-1.68,.04-2.72,.22-1.3-1.63-3.55-1.01-4.61,.57-.43,.05-.85,.1-1.26,.15-3.12-2.26-6.52-.86-8.77,1.76-1.01,.85-2.95,.59-4.04,1.65-1.08,1.82-.84,4.39,.09,6.22-.26,4.92-2.75,1.83-3.68,4.67-.47,1.62-2.24,.13-3.28,.56-.56,.15-.8,1.16-1.49,.63-.63-.26-1.4,.17-2.03,.26-4.07,4.11-1.61-1.07-8.02,.07-2.76-.89-3.22-4.44-5.25-6.34-1.02-1.33-2.78-2.03-3.49-3.59,.08-.2-.04-.42-.2-.53-.57-1.53,.28-3.09-.2-4.58-.45-.98-1.43-1.85-.99-3.05,.48-1.24,.83-2.52,.21-3.77-.21-.55-.09-.59,.1-1.07,.46-1.83,.08-3.58-.76-5.21-.14-.97,.72-1.65,1.22-2.35,1.44-2.36,1.45-5.4,.9-8.03,1.36-.54,2.72-1.04,3.69-2.16,2.44-3.56,1.05-4.07,6.07-4.48,3.62-3.01,1.57-2.9,6.59-1.75,.02,0,0,0,0,0,.02,0,.05,0,.06,.01,3.01,.45,7.41-.79,9.26,2.31h0s0,.01,0,.01h0c.34,1.85,.06,4.31,2.28,5.04,0,0,0,0,0,0,.01,0,.03,0,.04,.02,2.6,.78,5.32-1.82,7.73,.02,.01,0,.02,.02,.03,.02,2.03,1,3.21-1.47,5.39,.43,.66,.22,1.34,.12,1.95-.2,1.43-.1,3.36,.4,4.46-.96,0,0,.07-.02,.04-.01h0s0-.02,.01-.02c1.29-2.61,5.15,1.01,7.13-3.76,.03-.05,.04-.06,.04-.06h0v-.02c.11-.49,.03-1-.33-1.36,.47-1.26,1.49-2.25,1.55-3.65,0-.01,0-.02,0-.04,0,0,0-.01,0-.02h0c-.13-2.43-2.52-3.84-2.27-6.34,.06-6.47-6.68-8.41-8.96-13.55h0s-.05-.06-.03-.04c-1.72-2.75-5.26-1.56-7.56-3.39-4.82-4.86-11.66-4.32-17.78-4.22-6.83-3.96-12.08,1.21-18.84-.23-2.16-.17-2.97,2.28-5.07,2.39-1.62,0-3.25,.31-4.39,1.55-1.81,.91-4.12,1.51-5.24,3.39,0,0,0,.01,0,0-1.94,4.47-7.44,2.58-7.89,11.06-3.87,3.98-9.61,6.59-8.81,13.26,.39,5.09-5.22,6.33-2.06,12.53-4.38,9.71-.96,13,.15,22.02-1.09,5.23,1.66,9.5,4.22,13.71,.89,7.44,2.78,5.12,5.31,11.15,.02,0,.02,.04,.04,.04,0,.02,.02,.03,.03,.04,.7,1.2,2.37,1.36,2.96,2.55,1.52,1.83,3.74,2.87,6.08,2.93,2.41,1.79,4.2,4.61,7.58,4.93h0c.11,.04,.02,0,.05,.02,.83,.18,1.73,.06,2.5-.22,1.86,1.5,2.49,2.81,5.18,2.22,3.44,2.26,7.41,4.01,11.29,1.53,3.1,.09,5.26,3.17,8.18-.39,10.03,1.07,10.37-2.07,18.57-6.41,2.95,.02,6.44-1.36,6.51-4.78,.82-.61,1.45-1.35,1.51-2.37,3.52-1.62,3.64-.59,5.19-4.78,.77-1.22,2.65-1.33,2.6-3.16,.08-.68,.47-.63,.94-.97,.83-.69,1.23-2.02,1.11-3.1,0,0,0-.01,0-.03,0,0-.01-.02-.02-.02-1.51-3.31,2.96-5.27,1.77-8.68Zm-3.66-42.54h.05s-.03,0-.05,0Z"/></clipPath><clipPath id="uuid-383c74b3-9bc9-45a5-b993-7189561ea834"><path class="uuid-e4a249f2-5a72-4a96-b02c-2b3eb9c78b30" d="M272.12,162.61c.17-3.41,.34-6.82,.52-10.24,.08-1.53,.05-3.06-.2-4.57-.25-1.56-.85-2.07-2.44-2.06-2.59,0-4.96,.97-7.36,1.76-7.48,2.48-14.93,5.04-22.39,7.58-1.72,.58-3.44,1.11-5.26,1.27-.47,.04-1.03,.2-1.36-.25-.36-.48,.05-.93,.29-1.32,1.79-2.93,4.06-5.49,6.2-8.16,4.07-5.08,8.15-10.16,12.32-15.16,1.5-1.8,2.98-3.59,4.2-5.58,1.64-2.67,1.33-4.01-1.22-5.77-3.29-2.27-6.91-3.95-10.39-5.86-2.18-1.2-4.41-2.34-6.39-3.88-1.28-.99-1.26-1.82,.06-2.77,2.44-1.75,5.24-2.81,7.94-4.05,2.48-1.14,4.91-2.4,7.49-3.32,.52-.19,1.02-.49,1.49-.79,1.6-1.01,1.91-2.06,1.13-3.78-1.24-2.7-3.08-5-4.87-7.32-4.47-5.79-8.95-11.58-13.57-17.25-2.24-2.75-4.42-5.52-6.4-8.45-.51-.75-1.21-1.58-.73-2.53,.52-1.05,1.65-.86,2.59-.81,2.08,.13,4,.91,5.89,1.69,7.13,2.95,14.19,6.09,21.37,8.92,2.94,1.16,5.88,2.37,8.93,3.28,1.16,.35,1.44-.1,1.49-1.08,.1-2.42-.19-4.82-.33-7.22-.24-3.93-.71-7.85-.61-11.8,.07-2.62,1.39-3.66,3.95-2.99,2.09,.55,3.85,1.81,5.65,2.94,3.77,2.38,7.43,4.96,11.37,7.07,2.82,1.51,3.01,1.44,3.99-1.61,1.76-5.49,2.72-11.17,4.01-16.77,2.27-9.87,4.02-19.86,6.54-29.68,.35-1.37,.74-2.72,1.51-3.92,.74-1.15,1.68-1.2,2.49-.09,1.01,1.4,1.47,3.03,1.89,4.67,2.31,8.88,4.1,17.87,6.21,26.79,1.32,5.6,2.5,11.23,4.09,16.76,.36,1.24,.77,2.46,1.4,3.59,.85,1.52,1.8,1.9,3.4,1.28,2.83-1.09,5.31-2.84,7.88-4.41,3.33-2.02,6.56-4.23,10.04-6,3.06-1.56,4.06-1.02,4.03,2.39-.02,2.97-.27,5.94-.51,8.9-.28,3.41-.51,6.81-.37,10.23,.08,1.96,.77,2.54,2.73,2.52,1.35-.01,2.62-.42,3.88-.82,2.07-.67,4.1-1.44,6.16-2.11,9.8-3.15,19.29-7.17,29-10.55,1.4-.49,2.82-.99,4.33-1.02,1.19-.02,1.47,.43,.89,1.49-.85,1.57-2.01,2.92-3.18,4.24-3.75,4.24-7.6,8.4-11.35,12.65-5.08,5.75-10.29,11.39-15.02,17.45-.39,.5-.72,1.07-1.01,1.64-.62,1.21-.37,2.22,.73,3.06,2.71,2.06,5.81,3.43,8.82,4.95,3.2,1.61,6.4,3.2,9.6,4.8,1.08,.54,2.12,1.16,3.01,1.99,1.32,1.24,1.28,2.44-.17,3.53-.93,.7-1.98,1.23-3.06,1.68-5.42,2.26-10.86,4.47-16.24,6.8-4.04,1.75-3.98,2.26-1.53,5.53,3.98,5.3,8.22,10.41,12.37,15.58,2.59,3.23,5.16,6.48,7.86,9.62,2.13,2.47,4.14,5.02,6.01,7.69,.72,1.02,1.33,2.12,1.58,3.36,.28,1.38-.24,1.99-1.66,1.92-1.3-.06-2.52-.5-3.71-.99-7.57-3.05-14.89-6.69-22.41-9.84-4.99-2.1-9.91-4.42-15.08-6.08-2.89-.93-3.07-.78-3.04,2.23,.06,5.18,.77,10.34,.73,15.53-.01,1.38-.23,2.72-.72,4.01-.5,1.32-1.17,1.66-2.54,1.31-.83-.21-1.56-.63-2.27-1.1-4.83-3.2-9.64-6.41-14.49-9.58-.9-.59-1.89-1.08-2.88-1.51-1.59-.7-2.53-.28-3.05,1.37-1.63,5.18-2.69,10.52-3.99,15.79-2.14,8.67-3.88,17.43-6.29,26.03-.44,1.59-.95,3.16-1.96,4.51-.77,1.03-1.29,1-1.97-.12-.61-1.01-.91-2.14-1.22-3.27-2.06-7.69-3.68-15.49-5.52-23.24-1.35-5.67-2.77-11.33-4.17-16.99-.34-1.37-.79-2.7-1.33-4-1.16-2.79-2.4-3.3-5.19-2.12-3.08,1.3-5.95,3.02-8.88,4.6-2.23,1.2-4.39,2.54-6.77,3.44-2.03,.78-2.79,.28-2.84-1.87-.03-1.25,0-2.49,0-3.74h-.09Z"/></clipPath><image id="uuid-56057f72-acdd-400b-9c0e-a28f8e1905a0" width="304" height="350" xlink:href="included_images/letters/letter_C.jpg"/><image id="uuid-471a7510-5b62-45b4-aa83-3bd9dc7d5e3c" width="271" height="350" xlink:href="included_images/letters/letter_R.jpg"/></defs>
<g id="uuid-aa90e0b5-fc1d-45a9-8aa8-fb9a403657c1">
<g class="uuid-b6606485-fc6d-4829-b3fe-563a8cfffd34 cls-5 swinging"><image width="300" height="353" transform="translate(723.31 41.85) rotate(5.78) scale(.33)" xlink:href="included_images/letters/letter_T.jpg"/></g></g><g id="uuid-5d03336d-5e54-46cb-9131-69f664e8faad">
<g class="uuid-e697a4e6-7ba3-432c-a404-0d5f3fba63a8 cls-5 swinging"><image width="118" height="350" transform="translate(.12 45.6) scale(.31)" xlink:href="included_images/letters/letter_I.jpg"/></g></g><g id="uuid-917100a8-ca40-44ad-b4db-bf529225f3d7">
<g class="uuid-4d56cb66-3f00-4a91-a7ec-bcd253286668 cls-3 swinging"><image width="254" height="350" transform="translate(558.12 42.9) rotate(2.57) scale(.33)" xlink:href="included_images/letters/letter_E.jpg"/></g></g><g id="uuid-106cf270-d72f-47a6-8078-d6c3c09e440b">
<g class="uuid-f93bcfd6-1195-4ba4-96fa-d1183b2a9a09 cls-4 swinging"><use transform="translate(380.88 43.75) scale(.33)" xlink:href="#uuid-471a7510-5b62-45b4-aa83-3bd9dc7d5e3c"/></g></g><g id="uuid-3a8a6eb0-e1ef-47b1-81f4-83745f001013">
<g class="uuid-1ac68127-d387-421f-9c95-7d6f5dede47c cls-8 swinging"><use transform="translate(142.4 56.29) rotate(-8.94) scale(.32)" xlink:href="#uuid-56057f72-acdd-400b-9c0e-a28f8e1905a0"/></g></g><g id="uuid-38a388c5-1ecd-42ea-82cf-7672365b1bf1">
<g class="uuid-ea2777e6-bb90-4ae8-8882-c03ad4269c4a cls-10 swinging"><image width="357" height="350" transform="translate(42.27 48.11) scale(.32)" xlink:href="included_images/letters/letter_N.jpg"/></g></g><g id="uuid-53e1fb0e-d83c-4725-9461-abc43f1b467b">
<g class="uuid-fea43231-a8b1-4e5c-91b8-1d79dd814b45 cls-7 swinging"><use transform="translate(454.32 52.29) rotate(-10.95) scale(.33)" xlink:href="#uuid-471a7510-5b62-45b4-aa83-3bd9dc7d5e3c"/></g></g><g id="uuid-2c3f1a54-db29-4287-8da8-ed32b6319851">
<g class="uuid-3b55d1d3-f423-40dd-94cb-95aba233cf88 cls-8 swinging"><use transform="translate(631.15 49.89) scale(.31)" xlink:href="#uuid-56057f72-acdd-400b-9c0e-a28f8e1905a0"/></g></g><g class="uuid-9d8bf999-6dc4-4cd4-a3e8-6202b27d4c17"><image width="283" height="350" transform="translate(225.15 .07) scale(.62)" xlink:href="included_images/medallion_pink.jpg"/></g></svg>