<svg id="letters-leaderboard" style="overflow: visible;" xmlns="http://www.w3.org/2000/svg" xmlns:xlink="http://www.w3.org/1999/xlink" viewBox="0 0 806.88 196.2">
<defs>
<style>.cls-1{fill:none;}.cls-2{clip-path:url(#clip-path);}.cls-3{clip-path:url(#clip-path-2);}.cls-4{clip-path:url(#clip-path-3);}.cls-5{clip-path:url(#clip-path-4);}.cls-6{clip-path:url(#clip-path-5);}.cls-7{clip-path:url(#clip-path-6);}.cls-8{clip-path:url(#clip-path-7);}.cls-9{clip-path:url(#clip-path-8);}.cls-10{clip-path:url(#clip-path-9);}.cls-11{clip-path:url(#clip-path-10);}.cls-12{clip-path:url(#clip-path-11);}</style>
<clipPath id="clip-path"><path class="cls-1" d="M544.61,136.64h0a1.92,1.92,0,0,0-.48-.34c-.16-.11-.37-.23-.72-.42s-.59-.34-.85-.51a8.56,8.56,0,0,1-2.36-2.59,18.26,18.26,0,0,1-1.86-4.33c-.18-.59-.32-1.18-.45-1.72s-.18-.87-.25-1.27c0-.13,0-.25-.06-.37-.1-.67-.2-1.35-.28-2s-.18-1.37-.29-2-.21-1.16-.33-1.72l-.06-.23c-.17-.63-.38-1.3-.57-2a.75.75,0,0,1,0-.16s0,0,0,0,0-.06,0-.08a.71.71,0,0,1,.1-.14,1,1,0,0,0,.09-.15s0,0,0-.08l0-.13a.28.28,0,0,1,0-.11,0,0,0,0,0,0,0l.1-.12a1,1,0,0,0,.11-.1l.08-.09,0-.08a.7.7,0,0,0,.06-.19c0-.06,0-.11,0-.16l.17-.39a.85.85,0,0,0,.06-.17,1.82,1.82,0,0,0,.13-.37.53.53,0,0,1,0-.11.57.57,0,0,1,0-.12.19.19,0,0,0-.1-.15,5.27,5.27,0,0,1,.65-.69,4.61,4.61,0,0,0,.92-.9,3.21,3.21,0,0,0,.22-.46,4.36,4.36,0,0,1,.44-.86l.17-.2c.31-.28.64-.52.94-.81a1.39,1.39,0,0,0,.21-.21,5.9,5.9,0,0,0,.64-.83c-.39.07-.77.14-1.15.18s-.83.11-1.25.14-.32.06-.81.09c-.22,0-1.09.08-1.29.08-.69,0-1.39.1-2.07.16-.3,0-.61,0-.91.08l-.75.08c-.3.05-.6.07-.9.11h-.13c-.26,0-.51,0-.76.07.23.27.52.54.76.83a.79.79,0,0,1,.12.15,2.73,2.73,0,0,1,.21.3.09.09,0,0,0,0,.06c.16.34.13.71.26,1.06a.6.6,0,0,1,.08.16,2,2,0,0,0,.43.54c.18.15.37.29.54.45l-.09,0h0a.13.13,0,0,0-.08.1.48.48,0,0,0,0,.12h0a.42.42,0,0,1,0,.12l0,.13a1.2,1.2,0,0,1,0,.2,1.28,1.28,0,0,1,0,.19v0c0,.15,0,.28,0,.4a.67.67,0,0,0,.09.37.59.59,0,0,0,0,.08,0,0,0,0,1,0,0,.08.08,0,0,0,0,0c.07.13.15.25.22.36l-.18.86-.15.11s-.06,0-.1.06a5.39,5.39,0,0,0-.5.33,1,1,0,0,0-.17.18h0a1.53,1.53,0,0,0-.18.39l-.06.16-.06.13a.16.16,0,0,0,0,.14,2,2,0,0,0,.54.69h0l.2.13c-.24,1.46-.45,2.92-.63,4.39-.13,1.11-.24,2.22-.33,3.34s-.16,2.24-.21,3.36-.07,2.18-.09,3.28,0,2.19,0,3.28c0,.92,0,1.84-.06,2.77v.11c-.09.06-.18.1-.26.16a16.57,16.57,0,0,0-2.5,1.88l-.11.11a5.7,5.7,0,0,0-.58.63,6.34,6.34,0,0,0-.58.81c-.07.25-.14.49-.22.74s-.15.5-.22.75a13.15,13.15,0,0,0-.38,1.56l0,.17c-.09.51-.15,1-.2,1.5l0,.05a4.6,4.6,0,0,0-.13,1.1,6.46,6.46,0,0,0,.13,1.28,7.75,7.75,0,0,0,.71,2c.07.12.13.22.2.32a5.34,5.34,0,0,0,.41.56c.16.19.32.37.48.53.49.53,1,1,1.55,1.48l.07.09c.4.38.8.73,1.2,1.09,0,.7,0,1.4,0,2.1,0,2.1,0,4.19.06,6.29-.58.41-1.2.83-1.41,1s-.44.31-.65.48-.41.32-.61.48c-.42.34-.82.68-1.21,1a6.78,6.78,0,0,0-.6.59c-.18.19-.36.37-.58.62a8.86,8.86,0,0,0-.86,1.08c-.26.37-.47.74-.68,1.08-.08.14-.16.3-.23.45a15.38,15.38,0,0,0-.56,1.51c-.12.35-.22.69-.32,1a2.75,2.75,0,0,0-.18.85h0a10.49,10.49,0,0,1,1.13-.69,8.67,8.67,0,0,0,1.1-.72l.09-.08c.37-.27.73-.55,1.09-.8l1.18-.9c.37-.26.72-.53,1.08-.8l1.06-.8c.3-.22.59-.43.87-.66l.38-.28c0,1.85.1,3.7.19,5.54,0,.7.06,1.39.09,2.09s.06,1.38.1,2.08c0,.44,0,.86.06,1.29l.06,1.3c0,.42,0,.86.07,1.28l.06,1.28c0,1,0,1.4,0,1.86s0,.91,0,1.86c.07,1.28.06,1.66.06,2.06s0,.78.07,2c0,.29,0,.53,0,.77s0,.47,0,.77a.57.57,0,0,0,.22.44c.15.13.33.25.44.33.43.35.8.65,1.16,1a8.75,8.75,0,0,1,1,1.06c.13.07.16-.21.17-.51s0-.68,0-1c-.11-2.35-.16-3.82-.21-5.28s-.12-2.92-.23-5.26c-.05-.91-.05-1.32,0-1.72s0-.81,0-1.73c0-.45,0-.91-.07-1.37l-.06-1.38-.06-1.23c0-.41,0-.83-.06-1.22l-.09-2.12-.09-2.09-.18-4.38.36-.31.6-.55.28-.27a4.2,4.2,0,0,0,.32-.29c.21-.18.5-.44.76-.71a2.25,2.25,0,0,0,.52-.68,12.1,12.1,0,0,0,.35-1.78,4.29,4.29,0,0,0,.08-.71c0-.32,0-.66,0-1,0-.16,0-.37,0-.58s0-.32,0-.45a1.33,1.33,0,0,0,.05-.19l.08-.34.05-.21a.45.45,0,0,0,0-.24,6.42,6.42,0,0,0-.4-1.37,4.5,4.5,0,0,0-.8-1.22,5.25,5.25,0,0,0-.4-.42c-.22-.2-.45-.38-.69-.58s-.82-.62-1.25-.94l-.21-.15c0-1.53.07-3,.16-4.58,0-.61,0-1.21.08-1.81s0-1.21,0-1.81c0-.36,0-.73,0-1.09s0-.73,0-1.1,0-1,0-1.52h0l1.26-.43c.39-.11.78-.23,1.19-.33s.79-.19,1.18-.28h0c.59-.12,1.2-.21,1.8-.32s.92-.14,1.38-.23c.14,0,.28,0,.44-.06s.48,0,.74-.08a.78.78,0,0,0,.59-.37c.21-.51.36-1,.55-1.36l.06-.13a7.67,7.67,0,0,0,.71-1.49l.1-.24A.12.12,0,0,0,544.61,136.64Zm-14.17,14.49a13.19,13.19,0,0,1-1.26-1.2,7.2,7.2,0,0,1-.52-.6c-.14-.2-.28-.4-.4-.61a3.85,3.85,0,0,1-.44-1.19s0-.06,0-.1a2.64,2.64,0,0,1,0-.84c.14-.2.28-.4.44-.59a8.18,8.18,0,0,1,.73-.83,10.22,10.22,0,0,1,1.24-1,13.33,13.33,0,0,1,1.39-.81l.31-.14q-.2,4.42-.27,8.85C531.22,151.76,530.82,151.44,530.44,151.13Zm4.24,7.74.38.27c.23.15.46.32.69.5a6.44,6.44,0,0,1,1,.92,2.88,2.88,0,0,1,.26.35l-.19.21c-.21.2-.42.4-.66.59s-1.35,1-1.72,1.25c0-.85,0-1.7-.07-2.55l0-1.8Zm4.48-21.61-.37.07-1.22.25c-.41.08-.82.18-1.23.29s-.92.26-1.39.42l-.41.16c0-1.21-.08-2.42-.15-3.63-.16-2.93-.35-5.87-.5-8.8a23.57,23.57,0,0,1,.14-3.85,23,23,0,0,0,.21,2.5c.1.69.21,1.37.32,2,.06.32.12.64.21,1a20.09,20.09,0,0,0,4.68,8.58,5,5,0,0,0,.44.47c.14.14.28.26.41.38C539.92,137.16,539.53,137.2,539.16,137.26Z"/></clipPath><clipPath id="clip-path-2"><path class="cls-1" d="M125.33,84.42A23.12,23.12,0,0,0,124,81.73a3,3,0,0,1-.21-.76c.18-.18,0-.45,0-.65a3.65,3.65,0,0,0-.27-2,4.89,4.89,0,0,0-4.74-2.76c-1.27-.06-2.17,1-3.28,1.35-5.57.47-23.87,4.69-26.49,0-.62-.55-.86-1.61-1.6-1.86a8.62,8.62,0,0,0-.69-2.2c1.36-1.62,2.49-3.88,4.84-4.09a8.45,8.45,0,0,0,4.54-1.28c1.49-.4,3.13-.23,4.43-1.25.54-.4,1-.11,1.64-.08a3.94,3.94,0,0,0,3.29-1.21c1.91-.3,1.6-2.14,1.41-3.56.83-1.65,0-4-.53-5.64a7.84,7.84,0,0,0-1.26-5.47c-.61-1.09-1.85-.59-2.85-.85-2-1.25-4.33.05-6.41-.36-2.4-.9-5-.6-7.48-.89a33.05,33.05,0,0,0-3.5-2.42c-1-1-1.26-2.48-2.15-3.54-.23-3.1-1.61-8,1.44-9.76,8.64-3.51,19.48-.16,28-4,2.29-.11,5.46-2.2,4.25-4.82a5.61,5.61,0,0,0,.61-4.34c-1.89-3,.69-7-3.75-8.3h0a3.5,3.5,0,0,0-2.57-1.55c-1.81-.35-4.71-1.46-6.19-.83-.65-.13-1.28-.82-1.94-.9-3,0-10.45-1.56-13.26-.57-9.1-.39-14.4,1.28-21.85,4.88a43.22,43.22,0,0,0-7.68,4.33,10.05,10.05,0,0,0-5.28,4.3C51.3,23,52.25,29.29,51.33,33c.22,11.18-.3,14.17,1.84,27.77,2.1,12.93,2.84,25,9,35.54,1.26,2.41,4,2.34,5.81,4,3.21.7,6.09,2,9.47,2.13,8.5,1.58,13.2,1.76,21.81-.62C109.43,100.85,127.26,98,125.33,84.42Z"/></clipPath><clipPath id="clip-path-3"><path class="cls-1" d="M418.3,34.58a32.46,32.46,0,0,1-1.48-4c1.05-4.5-2.4-6.8-3.18-10.82a.08.08,0,0,0,0-.05c-2.05-5.19-4.29.07-7.91-9.49a4.87,4.87,0,0,0-3.25-1.44c-1.6-.95-2.39-2.74-3.86-3.85-3.75-3.26-8.93-1.45-13.17-2.56-4.82-2.89-9.79,1.62-14.62-.06-1.76-.77-3.14.84-4.69,1.37-1.55.17-3.37.26-4.22,1.81-1.36.77-4,.89-4.65,2.87-.31,3.52-7.39.65-6.9,8-1.19,1.23-3.36,1.71-3.76,3.65a5.64,5.64,0,0,1-.16,2.71c-2.88,4.11-1.27,5.43-.84,9.62-1.68,2.22-2,4.53-.16,6.79a26.81,26.81,0,0,0-.92,11.68c1.41,4.1-2,8.36.32,12.53.54,2-1.73,3.61-.92,5.54,1.15,1.46-.32,2.86-.35,4.39,0,.71.65,1.35.18,2a5.16,5.16,0,0,0,1.06,4.48c.31.86-.56,1.66-.84,2.42-.75,2,.55,4,1.1,5.82a4.29,4.29,0,0,0-.26,1.29c-1.86,1.89-.36,4.44,2.08,4.65h0s0,0,0,0c.47,0,.63.55,1,.64,0,0,0,0,0,0,.84.38.68,1.42,1.15,2.09a5,5,0,0,0,6.57,1.88,9,9,0,0,0,1.91.37,5.26,5.26,0,0,0,7.62-.64c.08-.07.08,0,.1,0,1.91.41,4.25.28,5-1.82a5.12,5.12,0,0,0,.26-.67,2.73,2.73,0,0,0,1-2.4A1.81,1.81,0,0,0,371.8,92c1.69-.54.92-3-.6-3.19a2.1,2.1,0,0,1-.11-.51c1.08-1.43,2-1,.55-3-1.7-2.31,2.29-3.1-.65-5.93,0-1-.07-2-.1-3,2.25-2.46,2.5-7.89-.3-10,0-.32,0-.62,0-.91a1.27,1.27,0,0,0,.72-.52,8.59,8.59,0,0,1,1.6,2c-.17,2,.93,4.4,3.17,4.44.18.29.38.58.58.9-1.62,2.38,1.53,2.21,1.47,3.57-1,4,4.28,4.28,5.35,7.35-.13.22-.23.43-.34.64h0s0,0,0,0a3.08,3.08,0,0,0,1.59,4.07,3.69,3.69,0,0,1,1.28.8c1,.86.7,3.3,2.57,2.85.16.24.26.4.42.61-.91.82-.34,2.47,1,2a1.51,1.51,0,0,0,.13.46c-.33,3.19,1.15,3.83,4.06,3.5.67.74.55,1.88,1.36,2.61,1,0,2.1-.75,3,.06a5.92,5.92,0,0,1,1.16-.86c1.16-.06,2.78-.31,3.46-1.33a5.43,5.43,0,0,1,2.72-.13c2.15,0,3.5-2.33,5.46-3a7.21,7.21,0,0,0,3.35-6.23c-.29-.89-1.36-1.36-1.33-2.38a1.56,1.56,0,0,0-.45-2.85c-.08-.11-.18-.21-.27-.32.36-1.91-1.07-3.32-2.33-4.46-.38-1.77-.63-3.79-2-5.11-5.91-3.14-.82-5.11-6-6.84a5.78,5.78,0,0,1-.84-3.8c.18-.93,1.51-.89,1.83-1.79,1.41-4.8,3.29-4.2,7-6.27,1.45-1.06,1.31-3.09,2.46-4.3,1.12-1,3.35-1.39,2.84-3.32-.3-1.45,1.68-1.54,2-2.76.23-.46,0-1.13.15-1.56a3.09,3.09,0,0,0-.23-3.91,1.55,1.55,0,0,1,.25-1.68A3.83,3.83,0,0,0,418.3,34.58Zm-29.17,4c-1.52.53-.89,2.45-2.46,2.75a3.08,3.08,0,0,0-2.63,1c-.32.39-.57.15-1,.22a5.25,5.25,0,0,0-3.21,2.2c-2.62,0-4.73-3.31-7.62-.11a8.36,8.36,0,0,0-2,.14c0-2.35,1.2-4.61.2-7,.85-1.91,2.12-4.55,1.14-6.58a1.42,1.42,0,0,1,.15-.71c.35-3.67,3.39-1.44,4.17-4.8,3.69-1.87,1.76-1.49,5.63-.76,1.68,0,3.17,1,4.87.92.48.4,1,.87,1.59,1.28s.52,1.31,1.18,1.71c.44,1.82-.22,3.71.73,5.42C391.26,35.72,390.84,37.5,389.13,38.56Z"/></clipPath><clipPath id="clip-path-4"><path class="cls-1" d="M199.22,86.37c-.26-.4,0-.53,0-.92a3.39,3.39,0,0,0-1.54-3.08c-.35-.52.18-1.21.34-1.75a4.19,4.19,0,0,0-1.46-4c-.13-1.79,1.38-3.6-.12-5.22-.6-2.1.6-4.62-.63-6.72-4.39-4.85-.4-5.59-4.08-8.71-1.36-5.15-.44-8.55-4.65-13,.07-4.7-3.63-6.54-5.15-10.52,1-3.11-1-2.77-1.81-5a3.32,3.32,0,0,0-1.24-2.83c-.37-.31-.29-.38-.36-.79a4.79,4.79,0,0,0-2.75-3.23c-.76-2.5-.77-5.08-3.82-6.15-.48-.1-.69-.59-1-.93a1.19,1.19,0,0,1-.89-1.07h0c-.61-1.36-1.44-2.69-3.19-2.61-3-2.24-6.59-4.41-10.43-2.3-2.76-.13-5.52-2.1-7.47,1.29-5.48.67-8.26,5.09-9.29,9.95a2.5,2.5,0,0,1-.23.43c-4.09,3.54-4.7,5.86-5.75,10.88-.47,1.06-1.71,1.73-2,2.9-.21,1,0,2.05-.82,2.8a3.82,3.82,0,0,0-1.58,3.08c0,.54-.12.53-.41.9-1,1.52-.85,3.2-.73,4.89-1.85,2.06-4,4.88-2.43,7.81-.14.27,0,.44.18.62-1.74.73-1.91,2.76-1.79,4.34-1.41,1.8-2.71,4-1.81,6.31,1.1,2.3-2.89,3.41-.71,6a20.07,20.07,0,0,0-.71,11.76c-1,1.59-2.07,3.29-1.74,5.24.15.84.63,1.69.25,2.54-.61,1.37-2.23,2.63-.8,4.12.55,1-.25,2.24.6,3.12.27.41,1,.53,1.24.83a2.87,2.87,0,0,0,3.89,1.12c.67,0,1,.69,1.47,1.07a4,4,0,0,0,4.55-.16,2.07,2.07,0,0,0,2.87.81c.43,0,.22.68.65.68.88-.29,1.57.55,2.4.54,2.13-1.46,4.29,1.17,6.18-.84a0,0,0,0,0,0,0c.63-1,1.55-2.23,1.14-3.45.05-.08.11-.16.16-.25,7.33-2-1.09-8.14,3.93-9.36,2.77-.91.05-3.66,4.76-3.21,1.08,0,1.53-1,2.31-1.39.35,0,.37.44.67.35,1.37-.54,3,.74,4.2-.7,2.14-1.13,2.49,2.74,9.46,1.43a10.59,10.59,0,0,1,.84.66c-.16,1.85,1.06,3.39,2,4.81-.11,1.66-.43,3.53.63,5,.54.91,1.55,1.32,2.27,2,.66,1,1.55,2.37,3,2.17,1.05-.08,1.79-1.19,2.89-1.13,5.88,2,3.83.75,9.19-1.22,2.42-1.18,6.53,2.22,7.57-1.47.69-1.85,2.62-3,1.34-5.17C198.92,88.55,200.12,87.48,199.22,86.37ZM148.05,55.45c1.44-1.74,3.78-3.28,2.26-6,.7-2,2.71-3.16,3.22-5.27,1.08-2,1.65-8.09,4.95-5.92,1.24,1.23,1.56,2.93,2.57,4.3.76,1.24,2.33,1.91,2.72,3.37s-.48,3.06.68,4.26a2.9,2.9,0,0,1,.93,2.86c-.21,1.17,1.23,1.76,1.13,2.76,2,7.78-1.32.39-6.87,5.68-1.86.15-3.7-.73-5.57-.09-1.75.22-4-1.18-5-2.61A10,10,0,0,1,148,55.63C148,55.57,148,55.51,148.05,55.45Z"/></clipPath><clipPath id="clip-path-5"><path class="cls-1" d="M490.87,76.22c2.42-2.06,0-4.33-.54-6.58,1.92-5.92-4.94-9.9-8.25-13.74-1.09-3.38,2.87-3.7,2.77-6.31-.12-1.46,1.76-1.21,2.35-2.24.39-.65.31-1.39,1.08-1.76,1.24-1.34.87-2.81.42-4.32,1.61-1.94,2.18-5-.12-6.73-.13-.5-.09-1.1-.44-1.5a8.14,8.14,0,0,0-1.39-6.66,13,13,0,0,0-3.34-6.66A14.74,14.74,0,0,0,480,17.35c-2-2.33-2.74-5.71-6.73-5.2C467.3,5.5,461.9,8.55,454.4,6.26c-4.69-3-8,1.36-12.34-.14-1.76-1-3.34.84-5.15.32a5.18,5.18,0,0,0-4.54.3,5.83,5.83,0,0,0-3.51,1c-1.15.55-1.13,2.08-2.33,2.54-4.56.57-5.5,5-6.12,8.8-1.6,1.21-1.64,3.22-1.36,5-.83,1.82-1.74,3.78-1.47,5.81,0,0,0,0,0,0,2.71,6.54-2.93,5.21.92,10.29-1.51,3.67-1.95,7.64-.16,11.39a80.57,80.57,0,0,0,.45,14.23c-1.07,2.23,1.12,2.9-.74,5.64-.27.84.61,1.62.12,2.37A4.43,4.43,0,0,0,419.29,78c-.61,2.87-1.84,5.44,1.51,7.46a5.33,5.33,0,0,0,.25,1c-.77,2,.14,4,1.48,5.43a9.72,9.72,0,0,0,2.23,4.6,7.88,7.88,0,0,0,4.62,2.14c1.77.53,2.36,2.29,4.1,2.89,1.44.62,2.9-.61,4.21-.26,4.14,2.89,9.24,1,13.64-.09,9,3.45,8.63-1.47,14.83.64,1.6.52,2.48-1.38,4-1.31a3.86,3.86,0,0,0,3.25-.84c1.91-.38,4.54-.64,4.55-3.27a3.13,3.13,0,0,0,1.21-1c2.6.24,5.41-1.62,5.46-4.39a6.7,6.7,0,0,0,1.08-1.59,5.78,5.78,0,0,0,2.47-4.27,7.05,7.05,0,0,0,2.15-7.93A2,2,0,0,0,490.87,76.22ZM452,27.42c2.67.73,3.62,3.48,6.64,1.72,3.95,0,6.09,2.93,5.76,6.73.08,1.14,1.35,2.26.94,3.32a10.31,10.31,0,0,1-4.37,3.55c-.68.5-.79,1.58-1.65,1.88a7.27,7.27,0,0,0-4,.56,6,6,0,0,0-4.16.6c-2.48-.36-4.57-2.64-7.34-1.61a13,13,0,0,0-1.7-.47,8.85,8.85,0,0,0,.64-3.69,3.35,3.35,0,0,1-.14-2.82c1.25-2.43-.28-5.48,1.16-7.68,2-1.45,4.93.22,6.7-2.13C450.91,27.37,451.43,27.39,452,27.42ZM465.31,39.2Zm-23.58.94h-.05C441.81,40.14,441.9,40.15,441.73,40.14ZM449,79.06c-1.2-1.31-3.71.61-4-1.64a2.48,2.48,0,0,0-.78-1.38c-.39-.56.1-1.18-.2-1.86a4.47,4.47,0,0,0-1.34-2.72c-.21-1.75,1.14-3.43.11-5.33a5.26,5.26,0,0,1,1.64-1.83,7.29,7.29,0,0,0,4.55-.2,2.31,2.31,0,0,1,2.42-.81,14.94,14.94,0,0,0,7.47,1c1.44.2,1.7,2,2.85,2.71,3,1.09,4.12,1.08,3.54,4.78.45,2.92-1.82,4-3.5,5.88-1.32,1.7-4,1-5.79,1.33C453.65,79.21,451.2,80.62,449,79.06Z"/></clipPath><clipPath id="clip-path-6"><path class="cls-1" d="M56.24,99.1a5.28,5.28,0,0,1-1.39.75,10.3,10.3,0,0,1-2.21.58,11.7,11.7,0,0,1-2.36.06h0l-.3-.08a2.5,2.5,0,0,1-.43-.23,4,4,0,0,0-.61-.33,1,1,0,0,0-.5,0A1.6,1.6,0,0,0,48,100a2.68,2.68,0,0,1-.59.29,7.84,7.84,0,0,1-1,.14,13.51,13.51,0,0,1-2.39.09l-5.49-.17-.91,0-.56,0h-.45L23.66,99.9h-.47c-.14,0-.25-.16-.38-.16s-.19.13-.28.13c-3-.07-5.3-.13-6.27-.14a3.56,3.56,0,0,1-1.19-.07c-.36-.12-.49-.41-.84-.56-.62-.29-.76.12-1.46.12-1.57,0-4-.52-5.68-.61a3.71,3.71,0,0,1-2-1c-.24-.22-.27-.13-.57-.37s-.55-.15-1-.27a2.73,2.73,0,0,1-1.39-2A4.14,4.14,0,0,1,2,94.53c0-.08,0-.15,0-.25A.8.8,0,0,0,1.93,94c-.05-.11-.14-.18-.21-.3a.54.54,0,0,1-.08-.17.52.52,0,0,1-.06-.16c-.05-.13-.08-.25-.12-.37a9.57,9.57,0,0,1-.18-1.64c0-.82.1-.64-.22-1.36a17.72,17.72,0,0,1-1-5.51c0-.53,0-1.07-.08-1.6s.17-4,.47-9c0-.2,0-.42,0-.62l0-.38c0-.12,0-.25,0-.37a2.28,2.28,0,0,1,0-.27c0-.11,0-.22,0-.33C1.15,63,2.28,50.77,2.82,43.27c.26-3.57,1.7-19.21,2.36-22.73a2.13,2.13,0,0,1,.09-.3,5.54,5.54,0,0,1,.37-.73c.08-.16,0-.24.08-.39a.86.86,0,0,0,0-.21c0-.12,0-.21,0-.3,0-.79-.32-.66-.2-1.68.18-1.49.51-5,.8-6.83,0-.16,0-.31.07-.43l0-.14c0-.14.14-.24.16-.36s-.1-.27-.1-.38a5.64,5.64,0,0,1,0-2,5,5,0,0,1,.13-.53,8.37,8.37,0,0,1,.36-1,4.16,4.16,0,0,1,.16-.4c.15-.33.31-.66.47-1a4.79,4.79,0,0,1,1-1.05l.53-.48a6.24,6.24,0,0,1,.68-.59,3.62,3.62,0,0,1,.76-.45c.2-.08.4-.17.61-.24a9.7,9.7,0,0,1,1-.28A10.08,10.08,0,0,1,13.3.52,10.48,10.48,0,0,1,14.55.45c.5,0,1,0,1.49.06a3.4,3.4,0,0,0,1.19,0c.15,0,.28-.1.42-.15a5.79,5.79,0,0,1,.74-.23,10.22,10.22,0,0,1,3.3.07c.63.1,1.26.23,1.85.36.92.18,1.63.86,2.44,1.05l.18,0c.2,0,.23,0,.43,0l.23,0H27a3.67,3.67,0,0,1,1.33.3,5.29,5.29,0,0,1,2,1.62l.31.39a1.34,1.34,0,0,0,.32.31c.42.33,1,.49,1.3,1a3.24,3.24,0,0,1,.28.47,13.94,13.94,0,0,1,.69,1.84,4.57,4.57,0,0,1,.16.84,8.29,8.29,0,0,1,0,.85c0,.26,0,.6,0,1,0,.17,0,.35,0,.51A6.18,6.18,0,0,1,33.23,12a6.5,6.5,0,0,0-.1.77,2.64,2.64,0,0,0,0,.38c0,.11-.06.22,0,.37a.24.24,0,0,0,0,.09,3.38,3.38,0,0,1,.17.54,32.67,32.67,0,0,1-.18,4.66,33.88,33.88,0,0,1-.49,4.93.36.36,0,0,1,0,.11,1.47,1.47,0,0,1-.11.46.4.4,0,0,1-.09.17l-.1.15c-.17.31.08.33,0,.8v0c-.05.32-1,10.15-1.92,20S28.56,65,28.5,65.53a.22.22,0,0,1,0,.08,2.53,2.53,0,0,1-.07.41.39.39,0,0,0,0,.19c0,.07-.09.15-.07.34,0,0,0,0,0,0a2.6,2.6,0,0,1,.16.35c0,.23.09.43.14.63.17.64.4,1.14.63,2a.19.19,0,0,1,0,.07,1.74,1.74,0,0,0,.1.32,2.68,2.68,0,0,0,.09.46c.07.1.21.11.28.21l.35.37.12.12c.31.33.68.84,1,1.18a2.51,2.51,0,0,1,.2.29s.06.07.09.08.25,0,.38.08.41.17.63.25c.43.15.87.28,1.19.38.51.16.94.37,1.45.48.14,0,.33.16.48.19h0c.16,0,.29-.11.48-.09l.94.14c.35,0,.7.09,1,.1.81,0,10.53-.39,14.27-.34h.22a3.35,3.35,0,0,1,.89.1c.61.14.66.42,1.16.53a2.53,2.53,0,0,0,.3,0,1.92,1.92,0,0,0,.24,0,3.57,3.57,0,0,1,1,0l.38.1a4.44,4.44,0,0,1,1.08.45,2.09,2.09,0,0,1,.48.5c.19.26.36.52.52.74s.49.64.73,1a5.13,5.13,0,0,1,.52.87c.05.12.09.25.14.37a12.56,12.56,0,0,1,.46,2.89,11.07,11.07,0,0,1-.49,4.18l-.07.18c0,.09-.08.18-.12.28l-.19.39a3,3,0,0,0-.23.6h0a1.57,1.57,0,0,0,.24,1.06,2.43,2.43,0,0,1,.22.64q.06.45.09.84a10.84,10.84,0,0,1-.05,1.7c0,.21,0,.43-.08.66a3.29,3.29,0,0,1-.17.72,9.46,9.46,0,0,1-.56,1.44,2.84,2.84,0,0,0-.17.36,4.2,4.2,0,0,0-.24,1.25,3.6,3.6,0,0,1-.24.91,3.65,3.65,0,0,1-1,1.32,3.47,3.47,0,0,1-.51.37C56.63,98.56,56.54,98.79,56.24,99.1Z"/></clipPath><clipPath id="clip-path-7"><path class="cls-1" d="M277.11,58.78a5.65,5.65,0,0,0-.15-.65,1.55,1.55,0,0,1,0-.23c-.07-.22-.13-.44-.19-.66s-.12-.45-.16-.67a3.11,3.11,0,0,1,0-.68,3.66,3.66,0,0,1,.15-.7c.16-.49.37-1,.56-1.45a5.25,5.25,0,0,0,.33-2.4,4.84,4.84,0,0,0-.45-1.4,6.94,6.94,0,0,0-.4-.77,3.54,3.54,0,0,0-.39-.55,5.8,5.8,0,0,1-.81-.91l0-.09a2.4,2.4,0,0,1,0-1.16c0-.26,0-.52.07-.76.05-.74.12-1.46.13-2.19,0-.31,0-.62,0-.94a9,9,0,0,0-.11-1c0-.18-.06-.35-.1-.53s-.09-.35-.14-.53a20.14,20.14,0,0,0-1.1-2.84c-.22-.44-.44-.87-.69-1.29s-.5-.83-.76-1.22-.4-.59-.61-.88-.41-.55-.62-.82l-.06-.08a4.13,4.13,0,0,0-.37-1.6,1,1,0,0,0-.07-.15c-.08-.17-.16-.33-.25-.5l-.14-.26-.19-.35-.11-.19a2.63,2.63,0,0,0-.2-.33,13.26,13.26,0,0,0-1-3.59,9.1,9.1,0,0,0-.45-.88c-.14-.24-.29-.47-.44-.69a6.4,6.4,0,0,0-.66-.82,7.67,7.67,0,0,0-.77-.74,8.1,8.1,0,0,0-.85-.63c-.24-.15-.49-.3-.72-.47a7.15,7.15,0,0,1-.7-.53,5.45,5.45,0,0,1-.63-.64l-.18-.25c-.12-.2-.25-.39-.36-.59a4.48,4.48,0,0,1-.32-.56,12,12,0,0,1-.52-1.2l-.06-.19a4.91,4.91,0,0,0-.26-.63,3.09,3.09,0,0,0-1.44-1.41c-.19-.08-.37-.17-.54-.26a3,3,0,0,1-1.57-1.4c-.1-.19-.2-.38-.29-.58s-.19-.35-.3-.53a4.11,4.11,0,0,0-.6-.75,3,3,0,0,0-.46-.38,4.26,4.26,0,0,0-.62-.35l-.67-.22a1.37,1.37,0,0,1-.56-.27c-.12-.1-.21-.24-.4-.44l-.22-.19a8.35,8.35,0,0,0-2.62-1.17,1.66,1.66,0,0,0-.46-.1,5,5,0,0,0-1.74.29c-.26-.12-.53-.25-.81-.35l-1.58-.6-.18-.2L247,8.58a5.42,5.42,0,0,0-.48-.48l-.21-.17c-.08,0-.15-.12-.25-.18l-.29-.17-.33-.15a1.72,1.72,0,0,0-.29-.11,2.63,2.63,0,0,1-.3-.09l-.61-.1a5.43,5.43,0,0,0-.57,0,4.41,4.41,0,0,0-.54,0l-.33,0-.16,0-.15,0a8.81,8.81,0,0,0-1.13.34l0,0c-.74-.06-1.49-.07-2.23-.08l-.1-.09c-.39-.32-.78-.62-1.18-.89A4.54,4.54,0,0,0,236.57,6l-.25,0a8.3,8.3,0,0,0-.87-.14,5.09,5.09,0,0,0-1.9.22,2,2,0,0,0-.34.14,3.16,3.16,0,0,0-1.08.74,3.35,3.35,0,0,0-.42.62c-.43,0-.85.1-1.27.17a2.48,2.48,0,0,0-.37-.47,1.81,1.81,0,0,0-1.88-.17,2.26,2.26,0,0,0-.35.17,2.2,2.2,0,0,0-.3.19.92.92,0,0,0-.21.17,1.29,1.29,0,0,0-.16.18,1.86,1.86,0,0,0-.22.38c0,.12-.09.24-.13.36a3.13,3.13,0,0,0-.32.15l-.19.11c-.2.13-.37.24-.52.36L225.64,9l-.19-.16-.25-.19-.11-.09L225,8.46c-.16-.12-.31-.23-.45-.35s-.14-.12-.22-.17l-.22-.16-.22-.14-.26-.1a3.26,3.26,0,0,0-.64-.18c-.22,0-.47-.06-.68-.08l-.28,0-.4,0-.37,0a5.43,5.43,0,0,0-.78,0l-.54.09c-.51.1-1,.24-1.49.38h-.06l-.45,0c-.16,0-.35,0-.54-.08a2.91,2.91,0,0,1-.41-.12,4.06,4.06,0,0,0-1.1-.36A7.4,7.4,0,0,0,214.09,7l-.89.14a12,12,0,0,0-2.09-1.45l-.77-.26a3.14,3.14,0,0,0-2.5.35,8.12,8.12,0,0,0-.76.47l-.13.09a5.89,5.89,0,0,1-1,.54,6.06,6.06,0,0,1-1.84.47h-.07a4.85,4.85,0,0,0-.59.1,3.83,3.83,0,0,0-.63.2,2.77,2.77,0,0,0-.57.34,2.13,2.13,0,0,0-.42.48,1.16,1.16,0,0,0-.13.37,1.45,1.45,0,0,0,0,.47h0a2.89,2.89,0,0,0-.45.48,8.92,8.92,0,0,0-.51.79.86.86,0,0,0-.23.06l-.19.12a2.72,2.72,0,0,0-.32.25,4,4,0,0,0-.27.31,2.71,2.71,0,0,0-.26.48,2,2,0,0,0-.12.59c0,.24.07.44.12.64l0,0c-.11.19-.21.39-.31.59a4.18,4.18,0,0,0-.27.61l-.12.38c0,.12-.07.24-.1.35a2.58,2.58,0,0,0,0,.36,5.47,5.47,0,0,0-.05.69,3.47,3.47,0,0,0,.1.7l.06.24a1.13,1.13,0,0,1,0,.4,1,1,0,0,1,0,.39,5.45,5.45,0,0,1-.59,1.22,3.18,3.18,0,0,0-.16.32c-.14.31-.26.6-.38.91s-.23.61-.33.92-.19.61-.28.92-.13.64-.17,1a6.4,6.4,0,0,0-.06.88,6.69,6.69,0,0,0,.06,1v0c.07.43.15.85.25,1.26a7.5,7.5,0,0,0,.41,1.21l.09.2a3.09,3.09,0,0,1,.44,2.58c-.19.48-.43.93-.65,1.39a4.34,4.34,0,0,0-.55,2.23,4.65,4.65,0,0,0,.35,1.35,6,6,0,0,0,.36.77,5.08,5.08,0,0,0,.36.57,3.88,3.88,0,0,1,.75,1,.19.19,0,0,1,0,.08,2.09,2.09,0,0,1-.24,1.11c-.09.24-.18.48-.26.71s-.25.67-.37,1-.25.66-.36,1-.17.58-.24.87a8.2,8.2,0,0,0-.25,2,17.27,17.27,0,0,0,.29,2.9c.09.47.2.93.32,1.38s.28.9.43,1.34.46,1.14.71,1.69c0,1.4.1,2.8.16,4.21l0,.11c-.08.33-.16.66-.23,1a15.48,15.48,0,0,0-.34,2c0,.3,0,.61-.05.93a6.43,6.43,0,0,0,0,.76,8.68,8.68,0,0,0,.35,2,8.32,8.32,0,0,0,.36,1c.1.22.2.45.29.68l.09,2c0,.29,0,.59,0,.88a7,7,0,0,1-.6,1.63l-.09.16a3.51,3.51,0,0,0-.45,1.24,2.3,2.3,0,0,0,.22,1.29l.23.53a3.21,3.21,0,0,1,.27,1,1.9,1.9,0,0,1-.17,1c-.17.4-.35.75-.48,1.13a3.25,3.25,0,0,0-.22.88,3.29,3.29,0,0,0,0,.54,3.82,3.82,0,0,0,.39,1.24c.25.54.12.58,0,1.09a2,2,0,0,0,0,.26,9.35,9.35,0,0,0,.29,2.57,1.64,1.64,0,0,0,.11.41c.28.71,1,1,1.34,1.74,0,0,0,.09,0,.13l0,.31,0,.42a4.38,4.38,0,0,1-.26.8c-.12.27-.24.53-.34.79l0,.11a4.52,4.52,0,0,0-.16.73,5.24,5.24,0,0,0,0,1.05,8.44,8.44,0,0,0,.36,1.84c.07.19.14.36.21.53a7.58,7.58,0,0,0,1.09,1.9l.18.21a3.08,3.08,0,0,0-.27,2,3.58,3.58,0,0,0,.23.77l.18.36a.73.73,0,0,0,.05.09l.06.09.12.16c0,.07.09.14.14.2a1.29,1.29,0,0,1,.16.17,1.21,1.21,0,0,1,.16.16l.17.14a2,2,0,0,0,.34.25l.36.21c.12.06.25.09.37.14l.19.07.19,0c.13,0,.26.05.39.06l.27,0a1.64,1.64,0,0,1,.46.07,3.52,3.52,0,0,1,.42.15c.44.21.85.52,1.3.79l.35.2a16.94,16.94,0,0,0,4.12,1.58,8.19,8.19,0,0,0,1,.18,8.5,8.5,0,0,0,1.15.06h0a7.28,7.28,0,0,0,1.54-.18,5.56,5.56,0,0,0,1.42-.5l.22-.12a11.44,11.44,0,0,1,1.34-.7,2.45,2.45,0,0,1,1.52-.14c.56.15,1,.4,1.59.59l.33.1a3.4,3.4,0,0,0,.34.07,3,3,0,0,0,.74,0,2.85,2.85,0,0,0,.41,0l.41-.11a.45.45,0,0,1,.11,0l.11,0a1.36,1.36,0,0,0,.21-.1l.2-.13a1.13,1.13,0,0,0,.18-.12,5.34,5.34,0,0,0,1.08-1.25,5.22,5.22,0,0,1,.45-.62,2.08,2.08,0,0,1,.46-.43,2.87,2.87,0,0,1,.53-.36,1.6,1.6,0,0,1,.66-.21h.1a2.42,2.42,0,0,1,1.19.61c.24.18.45.36.66.55.61.53,1.15,1.08,1.78,1.58a6.71,6.71,0,0,0,.89.63,5.64,5.64,0,0,0,2.45.76,9.69,9.69,0,0,0,1.79,0,12.65,12.65,0,0,0,1.67-.28,24.2,24.2,0,0,0,3.05-1l2.15-.82.21-.08.16,0,.41-.09,2-.41.81.06a12.33,12.33,0,0,0,2.28.05,9.19,9.19,0,0,0,2.33-.47l.54-.23c.17-.08.34-.18.51-.27s.27-.17.4-.26a2.66,2.66,0,0,0,.38-.28,8.1,8.1,0,0,0,1.62-1.69l.23-.33,0,0a13,13,0,0,0,1.31-.72,2,2,0,0,0,.33-.25c.07,0,.12-.11.18-.16a2.68,2.68,0,0,0,.23-.3l.11-.16c.08-.13.14-.26.22-.38a1.91,1.91,0,0,1,.77-.75l.39-.1.69-.15c.23,0,.46-.09.7-.12l.36-.06.38-.06.21,0,.19,0,.2,0c.13,0,.25-.08.38-.12a2.37,2.37,0,0,0,.36-.17l.36-.21a3.13,3.13,0,0,0,1-1.38,6.41,6.41,0,0,0,.21-.67l.09-.29.09-.27a3.38,3.38,0,0,1,.22-.52,2.67,2.67,0,0,1,.75-.91l.54-.36.51-.34a7.16,7.16,0,0,0,.75-.63,5.27,5.27,0,0,0,.4-.49,5.75,5.75,0,0,0,.66-1.31c.24-.62.36-.59.82-.95l.23-.2A12.53,12.53,0,0,0,270,79.68a3.08,3.08,0,0,0,.22-.45,3.83,3.83,0,0,0,.16-1.36c.12-.23.26-.46.36-.7a9.11,9.11,0,0,0,.35-1.34c.17-.18.34-.35.53-.52a8.77,8.77,0,0,0,.72-.63l.09-.09a6.14,6.14,0,0,0,.53-.68c.11-.17.21-.35.31-.53s.19-.38.27-.58.13-.35.2-.53.1-.32.14-.49.08-.17.11-.26.09-.26.14-.38.15-.49.21-.71a6.14,6.14,0,0,0,.14-1.43,2.18,2.18,0,0,0,0-.25,1.84,1.84,0,0,1,.12-.81,4.37,4.37,0,0,1,.32-.6l.37-.6c.06-.11.12-.21.18-.33A18.12,18.12,0,0,0,277,62.73a9.35,9.35,0,0,0,.18-.92c0-.33.07-.67.08-1v0c0-.46,0-.9-.06-1.34C277.17,59.21,277.15,59,277.11,58.78ZM248,60.18c0,.17-.09.33-.14.5a2.9,2.9,0,0,0,0,.54c-.07.14-.13.27-.21.4a.2.2,0,0,0-.08.08,1.89,1.89,0,0,1-.09.21,3.19,3.19,0,0,1-.61.67.54.54,0,0,1-.12.09,2.19,2.19,0,0,0-1,1.53c0,.13-.05.28-.08.42a1.39,1.39,0,0,1-.95,1.11l-.45.12c-.15,0-.29.05-.42.09a3.16,3.16,0,0,0-.61.22l-.33.2a1.82,1.82,0,0,0-.34.34c-.1.11-.2.24-.3.37-.26.36-.34.3-.74.34l-.19,0a2,2,0,0,0-.43.18,4.91,4.91,0,0,0-.44.25l-.43.28-.41.24a1,1,0,0,0-.26.19,1.94,1.94,0,0,0-.46.69,2.48,2.48,0,0,1-.49.75,1,1,0,0,1-.59.26,2,2,0,0,1-.69,0l-.34,0-.31,0h-.08a2.51,2.51,0,0,0-.55,0,6.66,6.66,0,0,0-.75.09,8.74,8.74,0,0,0-1.33.37l-.38.16a9.23,9.23,0,0,0-1.47.75l-.33.2L231,72a6,6,0,0,0-.71-.06,2.6,2.6,0,0,0-.83.12,3.8,3.8,0,0,0-.71.29c-.3.15-.6.5-1.12.75a3.67,3.67,0,0,1-.77-.75,6.73,6.73,0,0,1-.54-1l-.22-.46c0-.08-.09-.18-.14-.26s-.09-.19-.15-.29h0c-.28-.5-.54-1.09-.91-1.65l-.1-.15c-.07-.09-.13-.19-.19-.28-.07-.65-.14-1.31-.2-2,.13-.28.28-.55.43-.82a3.23,3.23,0,0,0,.54-1.7,3.5,3.5,0,0,0-.25-1.07,5.88,5.88,0,0,0-.29-.62,3.33,3.33,0,0,0-.3-.46c-.18-.25-.53-.53-.62-.8,0,0,0,0,0-.07-.07-.3.13-.58.25-.86s.17-.37.25-.55c.23-.52.47-1,.65-1.56a7.16,7.16,0,0,0,.22-.7c.05-.25.11-.52.14-.78a4.56,4.56,0,0,0,0-.83c0-.39-.08-.79-.14-1.16s-.14-.74-.24-1.11a15,15,0,0,0-.71-2.08c-.21-.52-.43-1-.67-1.5-.07-.14-.13-.28-.2-.43a2.18,2.18,0,0,1-.18-.66,3.1,3.1,0,0,1,.27-1.39,13.65,13.65,0,0,0,.84-3.11,6.11,6.11,0,0,0,.05-.73c0-.21,0-.42,0-.62a5.9,5.9,0,0,0-.33-1.53,5.56,5.56,0,0,0-.34-.74,5.64,5.64,0,0,1-.55-1.23,3,3,0,0,1-.08-.67,1.94,1.94,0,0,1,0-.24,10.72,10.72,0,0,1,.47-2l0-.15a1.9,1.9,0,0,0-.21-2l-.29-.36a2.2,2.2,0,0,1-.21-.32,1.66,1.66,0,0,1-.06-.16c0-.33,0-.65,0-1a7.51,7.51,0,0,1,.47-.72l.16-.23.07-.11a0,0,0,0,1,0,0s0,0,0,0,0-.08,0-.12a4.64,4.64,0,0,0,.09-.46,2.27,2.27,0,0,0-.17-.91.68.68,0,0,1,0-.21.17.17,0,0,1,0-.13.08.08,0,0,1,.07,0,.21.21,0,0,1,.12,0h.06l.06,0a.16.16,0,0,1,0-.07s0-.06.06-.06l0,0,0,0,0,0h.24l.43-.06a5,5,0,0,1,1,0,1.12,1.12,0,0,1,.61.26,3.19,3.19,0,0,1,.26.26c.08.1.17.18.25.29s.16.19.25.28.16.17.25.25a.46.46,0,0,1,.07.07,2.81,2.81,0,0,0,.55.34,2.52,2.52,0,0,0,.41.17,3,3,0,0,0,.43.11,4.82,4.82,0,0,0,1.51.08l.44-.07a5.87,5.87,0,0,0,1.63-.52l.36-.17c.18-.08.34-.2.52-.3l.16,0a4.78,4.78,0,0,1,1,.48l.26.12a21.77,21.77,0,0,0,2.74,1.16l.31.1c.11,0,.21,0,.32.08a4.1,4.1,0,0,0,.7.12h0l.93.12.47.05.48,0,.17,0a4.75,4.75,0,0,1,.53,0,4.84,4.84,0,0,1,.51.14,1.86,1.86,0,0,1,.44.29,1.62,1.62,0,0,1,.18.19,1.59,1.59,0,0,1,.14.26c.08.19.14.38.2.56s.08.39.11.58.07.27.09.41a3,3,0,0,0,.09.43,2.39,2.39,0,0,0,.15.37,2.5,2.5,0,0,0,.19.41,3.1,3.1,0,0,0,.3.38l.38.4.51.43a3.73,3.73,0,0,0,.43.3,4.36,4.36,0,0,0,.44.24,1,1,0,0,1,.38.29.1.1,0,0,1,0,.05,1.45,1.45,0,0,1,.11.9c0,.2,0,.4,0,.6s-.05.57-.06.84-.05.55-.07.82,0,.47,0,.71A8.49,8.49,0,0,0,246,43.7c0,.19.08.36.13.55a4.88,4.88,0,0,0,.12.55c0,.18.1.36.15.54l.15.54c.12.35.23.7.36,1s.25.68.39,1c.22.5.42,1,.64,1.49.07.15.13.29.19.44a2.24,2.24,0,0,1,.18.67,3.36,3.36,0,0,1-.22,1.4,13.7,13.7,0,0,0-.74,3.13c0,.25,0,.49-.06.73s0,.41,0,.61a8.19,8.19,0,0,0,.23,1.54c.07.26.15.51.24.76a4.68,4.68,0,0,1,.29,1.2C248,60,248,60.09,248,60.18Z"/></clipPath><clipPath id="clip-path-8"><path class="cls-1" d="M340.3,92.39a22.4,22.4,0,0,0-.68-2.94,2.64,2.64,0,0,1,0-.79c.21-.14.15-.44.11-.65a3.68,3.68,0,0,0,.19-2,4.91,4.91,0,0,0-4-3.78c-1.23-.35-2.36.5-3.53.57-5.57-.79-24.52-.79-26-6-.49-.67-.48-1.78-1.15-2.19a8,8,0,0,0-.19-2.32c1.71-1.28,3.33-3.25,5.69-2.92a8.44,8.44,0,0,0,4.75-.24c1.56,0,3.14.49,4.64-.22.62-.27,1.06.14,1.63.29a3.94,3.94,0,0,0,3.51-.44c1.94.14,2.06-1.74,2.19-3.18,1.19-1.44.93-3.91.76-5.66a7.84,7.84,0,0,0,0-5.66c-.35-1.21-1.68-1-2.6-1.49-1.73-1.68-4.27-.93-6.22-1.8-2.15-1.43-4.79-1.72-7.15-2.57a36.35,36.35,0,0,0-2.89-3.17c-.73-1.17-.68-2.73-1.31-4,.47-3.1.22-8.23,3.62-9.26,9.29-1.5,19.19,4.25,28.45,2.39,2.28.41,5.87-.93,5.27-3.77a5.65,5.65,0,0,0,1.58-4.13c-1.17-3.42,2.27-6.76-1.8-9h0a3.54,3.54,0,0,0-2.18-2.11c-1.7-.75-4.3-2.51-5.89-2.22-.61-.27-1.07-1.09-1.71-1.32-3-.73-9.91-3.9-12.9-3.56-8.86-2.45-14.45-2-22.58-.16a43.69,43.69,0,0,0-8.53,2.52,10.19,10.19,0,0,0-6.17,3c-3.64,1.68-4.13,8.08-5.88,11.54-2.31,11-3.5,13.85-4.48,27.71-.86,13.18-2.87,25.23.78,37,.7,2.65,3.45,3.22,4.82,5.25,3,1.41,5.52,3.36,8.82,4.23,8,3.49,12.58,4.73,21.58,4.34C321,104.94,339.12,106.21,340.3,92.39Z"/></clipPath><clipPath id="clip-path-9"><path class="cls-1" d="M727,34.65a33.81,33.81,0,0,1-1.53-4c1-4.53-2.5-6.79-3.34-10.81,0,0,0,0,0-.06-2.14-5.18-4.3.13-8.06-9.41A4.87,4.87,0,0,0,710.81,9c-1.62-.94-2.43-2.71-3.93-3.81-3.8-3.22-9-1.33-13.22-2.4C688.79,0,683.88,4.54,679,2.92c-1.78-.75-3.13.89-4.68,1.43-1.55.2-3.37.32-4.2,1.88-1.36.79-4,.95-4.62,2.94-.26,3.54-7.39.75-6.79,8.12-1.18,1.24-3.35,1.76-3.72,3.72a5.65,5.65,0,0,1-.12,2.71c-2.84,4.17-1.2,5.47-.72,9.67-1.64,2.25-2,4.57-.06,6.81a27.06,27.06,0,0,0-.76,11.74c1.47,4.1-1.93,8.42.5,12.57.57,2-1.69,3.65-.85,5.57,1.17,1.46-.28,2.88-.29,4.41,0,.71.67,1.35.21,2A5.17,5.17,0,0,0,654,81c.32.86-.53,1.68-.8,2.45-.73,2,.6,4,1.17,5.82a4.26,4.26,0,0,0-.23,1.29c-1.84,1.93-.31,4.47,2.14,4.65h0c.47,0,.64.54,1.06.63h0c.85.37.7,1.42,1.18,2.08a5,5,0,0,0,6.61,1.8,8.44,8.44,0,0,0,1.91.35,5.26,5.26,0,0,0,7.63-.75c.08-.07.08,0,.1,0,1.92.38,4.27.22,5-1.9a6.93,6.93,0,0,0,.25-.67,2.77,2.77,0,0,0,1-2.43,1.75,1.75,0,0,0,.15-1.46c1.69-.56.89-3-.64-3.19a1.79,1.79,0,0,1-.12-.52c1.06-1.45,2-1.06.51-3-1.74-2.29,2.25-3.15-.73-6,0-1-.1-2-.15-3,2.22-2.51,2.39-8-.43-10,0-.32,0-.62,0-.91a1.3,1.3,0,0,0,.72-.53,8.67,8.67,0,0,1,1.62,2c-.13,2,1,4.39,3.24,4.41l.6.89c-1.59,2.41,1.56,2.2,1.52,3.56-.91,4.07,4.34,4.24,5.46,7.31-.12.22-.22.43-.33.64h0s0,0,0,0a3.09,3.09,0,0,0,1.64,4.06,3.78,3.78,0,0,1,1.3.8c1,.84.74,3.29,2.61,2.81.16.24.27.41.43.62-.9.83-.31,2.48,1,2a1.86,1.86,0,0,0,.13.46c-.28,3.2,1.21,3.83,4.12,3.45.68.74.57,1.88,1.4,2.61,1,0,2.09-.78,3,0a5.08,5.08,0,0,1,1.15-.88c1.16-.08,2.77-.35,3.44-1.39a5.44,5.44,0,0,1,2.72-.17c2.15,0,3.48-2.38,5.43-3.08a7.28,7.28,0,0,0,3.27-6.3c-.3-.9-1.38-1.36-1.36-2.38a1.56,1.56,0,0,0-.5-2.85c-.08-.11-.18-.21-.27-.32.34-1.92-1.12-3.32-2.39-4.44-.41-1.78-.69-3.8-2.11-5.11-6-3.07-.89-5.11-6.09-6.78a5.8,5.8,0,0,1-.89-3.8c.17-.93,1.5-.92,1.81-1.82,1.34-4.84,3.23-4.26,6.9-6.39,1.43-1.08,1.26-3.12,2.4-4.35,1.1-1,3.33-1.44,2.79-3.37-.32-1.45,1.67-1.57,2-2.8.22-.46,0-1.13.13-1.56a3.13,3.13,0,0,0-.29-3.93,1.59,1.59,0,0,1,.23-1.69A3.8,3.8,0,0,0,727,34.65ZM697.87,39c-1.52.56-.86,2.48-2.43,2.8a3.08,3.08,0,0,0-2.62,1c-.32.4-.56.16-1,.23a5.32,5.32,0,0,0-3.18,2.25c-2.63,0-4.79-3.25-7.63,0a8.44,8.44,0,0,0-2,.17c0-2.36,1.14-4.65.11-7,.82-1.93,2.06-4.6,1-6.62a1.41,1.41,0,0,1,.14-.71c.29-3.69,3.37-1.49,4.11-4.88,3.67-1.93,1.74-1.52,5.63-.83,1.68,0,3.19,1,4.88.85.49.4,1.05.86,1.62,1.26s.53,1.31,1.21,1.71c.46,1.81-.17,3.72.8,5.42C700,36.16,699.56,38,697.87,39Z"/></clipPath><clipPath id="clip-path-10"><path class="cls-1" d="M652.37,85.75c-.26-.39,0-.52,0-.91a3.36,3.36,0,0,0-1.56-3c-.35-.51.16-1.21.31-1.74a4.2,4.2,0,0,0-1.48-4c-.16-1.76,1.32-3.58-.19-5.17-.61-2.08.55-4.59-.69-6.65-4.42-4.77-.47-5.55-4.16-8.6-1.4-5.1-.53-8.48-4.76-12.83,0-4.66-3.67-6.44-5.22-10.38.94-3.09-1-2.73-1.86-4.9a3.28,3.28,0,0,0-1.26-2.79c-.37-.3-.29-.38-.36-.78a4.75,4.75,0,0,0-2.77-3.17c-.79-2.47-.83-5-3.86-6.06-.48-.1-.7-.57-1-.91a1.16,1.16,0,0,1-.9-1h0c-.62-1.35-1.46-2.66-3.2-2.55-3-2.19-6.58-4.31-10.36-2.16-2.75-.11-5.51-2-7.41,1.36-5.42.72-8.13,5.15-9.1,10a2.78,2.78,0,0,1-.22.42c-4,3.57-4.59,5.87-5.58,10.86-.45,1.06-1.67,1.74-1.94,2.9-.2,1,0,2-.78,2.79a3.76,3.76,0,0,0-1.53,3.07c0,.54-.12.54-.41.9-1,1.52-.79,3.18-.66,4.86-1.81,2.07-3.94,4.89-2.32,7.78-.13.27,0,.43.18.61-1.71.74-1.86,2.76-1.73,4.33-1.37,1.8-2.63,4-1.71,6.28,1.11,2.27-2.83,3.41-.64,5.92a19.84,19.84,0,0,0-.57,11.67c-.94,1.59-2,3.29-1.67,5.22.16.83.65,1.67.28,2.52-.59,1.37-2.18,2.64-.75,4.1.56,1-.22,2.22.64,3.08.26.4.94.52,1.23.81a2.87,2.87,0,0,0,3.88,1.07c.66,0,1,.67,1.47,1a4,4,0,0,0,4.51-.21,2.05,2.05,0,0,0,2.85.77c.44,0,.22.67.65.68.88-.31,1.57.51,2.39.5,2.1-1.48,4.27,1.11,6.12-.9,0,0,0,0,0,0,.61-1,1.5-2.24,1.09-3.44,0-.08.1-.17.16-.25,7.25-2.06-1.18-8.06,3.78-9.33,2.74-.93,0-3.63,4.69-3.24,1.07,0,1.51-1,2.28-1.4.34,0,.36.43.66.34,1.35-.56,3,.69,4.16-.75,2.11-1.14,2.5,2.69,9.4,1.32a5.82,5.82,0,0,1,.84.64c-.13,1.83,1.1,3.35,2,4.75-.09,1.64-.4,3.51.67,4.92.55.9,1.56,1.29,2.28,2,.67,1,1.56,2.33,3,2.12,1.05-.09,1.77-1.2,2.85-1.15,5.87,1.94,3.81.7,9.11-1.32,2.39-1.2,6.5,2.13,7.49-1.55.66-1.84,2.57-3,1.27-5.14C652.1,87.92,653.27,86.84,652.37,85.75ZM601.26,55.66c1.41-1.74,3.71-3.29,2.17-6,.67-1.95,2.65-3.17,3.14-5.27,1-2,1.54-8,4.84-5.92,1.24,1.2,1.58,2.89,2.6,4.23.76,1.23,2.32,1.88,2.73,3.32s-.43,3,.72,4.21a2.91,2.91,0,0,1,1,2.84c-.2,1.15,1.24,1.72,1.15,2.71,2.06,7.7-1.3.41-6.74,5.72-1.85.16-3.69-.68-5.53,0-1.74.24-4-1.12-5-2.53a9.82,9.82,0,0,1-1.09-3.13A1.16,1.16,0,0,1,601.26,55.66Z"/></clipPath><clipPath id="clip-path-11"><path class="cls-1" d="M806.62,52.55c0-.22-.11-.43-.17-.64a1.87,1.87,0,0,1-.07-.22c-.08-.21-.15-.43-.23-.65s-.14-.44-.19-.66a2.55,2.55,0,0,1-.07-.67A3,3,0,0,1,806,49c.13-.5.32-1,.48-1.49a5.28,5.28,0,0,0,.2-2.4,4.9,4.9,0,0,0-.52-1.38c-.14-.27-.29-.52-.44-.75a6.55,6.55,0,0,0-.42-.53,5,5,0,0,1-.86-.86.94.94,0,0,1,0-.09,2.51,2.51,0,0,1-.07-1.16c0-.26,0-.51,0-.76,0-.74,0-1.46,0-2.19,0-.31,0-.62-.09-.94s-.1-.68-.17-1L804,34.9l-.18-.52a18.27,18.27,0,0,0-1.25-2.77q-.36-.64-.75-1.26c-.26-.41-.55-.8-.83-1.18s-.43-.57-.65-.84-.45-.52-.67-.79l-.06-.07a4.09,4.09,0,0,0-.46-1.58,1.09,1.09,0,0,0-.08-.15c-.09-.16-.17-.32-.27-.48l-.16-.26-.21-.34-.11-.18-.21-.32a13.43,13.43,0,0,0-1.24-3.52,8,8,0,0,0-.49-.86c-.16-.23-.32-.46-.49-.67a6.41,6.41,0,0,0-.7-.78,7.56,7.56,0,0,0-.8-.7,6.76,6.76,0,0,0-.89-.58c-.24-.14-.5-.28-.74-.43s-.5-.32-.73-.49a6.28,6.28,0,0,1-.66-.61l-.19-.24-.4-.57c-.12-.18-.24-.36-.34-.54a8.09,8.09,0,0,1-.58-1.18l-.08-.18a5,5,0,0,0-.29-.62,2.9,2.9,0,0,0-.39-.53,2.93,2.93,0,0,0-1.12-.8l-.56-.22a3,3,0,0,1-1.64-1.32l-.32-.56c-.11-.17-.21-.34-.33-.51a3.56,3.56,0,0,0-.64-.72,2.53,2.53,0,0,0-.47-.36,3.51,3.51,0,0,0-.65-.31c-.22-.08-.44-.14-.67-.2a1.29,1.29,0,0,1-.58-.23,4.06,4.06,0,0,1-.42-.42,2,2,0,0,0-.23-.18,8.57,8.57,0,0,0-2.68-1,1.61,1.61,0,0,0-.46-.07,5.08,5.08,0,0,0-1.72.38c-.28-.11-.55-.22-.83-.3-.52-.15-1.06-.34-1.61-.52-.06-.06-.14-.13-.19-.19L773.92,4a4.78,4.78,0,0,0-.51-.45,1.28,1.28,0,0,0-.21-.16,3,3,0,0,0-.26-.16l-.29-.16L772.31,3a2,2,0,0,0-.3-.09l-.31-.08-.61-.06a3.6,3.6,0,0,0-.57,0,3,3,0,0,0-.54.06l-.33.07-.15,0-.15,0a8.52,8.52,0,0,0-1.11.41l0,0c-.75,0-1.49,0-2.23,0l-.11-.07a13.93,13.93,0,0,0-1.22-.84A4.83,4.83,0,0,0,763.33,2l-.25,0a6.4,6.4,0,0,0-.88-.09,4.89,4.89,0,0,0-1.89.32l-.33.15a3.09,3.09,0,0,0-1,.8,3.86,3.86,0,0,0-.38.64c-.43.06-.84.15-1.26.24a2.47,2.47,0,0,0-.4-.45A1.83,1.83,0,0,0,755,3.51a3.54,3.54,0,0,0-.33.19,3.13,3.13,0,0,0-.3.2,1.11,1.11,0,0,0-.19.18l-.16.2a2,2,0,0,0-.19.39,2.26,2.26,0,0,0-.11.37l-.32.16a1.88,1.88,0,0,1-.18.12,5.85,5.85,0,0,0-.5.39l-.15-.11c-.08,0-.13-.1-.2-.15l-.26-.17L752,5.19l-.13-.09-.48-.33-.22-.16a1.14,1.14,0,0,0-.23-.15l-.22-.12-.27-.1a3.51,3.51,0,0,0-.65-.14c-.22,0-.47,0-.69,0h-1.05a5.78,5.78,0,0,0-.77.07l-.54.12c-.5.13-1,.3-1.46.46h-.06c-.2,0-.26,0-.45,0s-.36,0-.54,0a1.85,1.85,0,0,1-.42-.1,4.28,4.28,0,0,0-1.12-.3,7.49,7.49,0,0,0-1.77,0c-.29,0-.58.13-.87.19a12.07,12.07,0,0,0-2.17-1.34c-.27-.07-.54-.13-.78-.21a3.11,3.11,0,0,0-2.48.48,7.88,7.88,0,0,0-.73.51l-.13.09a6.15,6.15,0,0,1-.94.6,5.9,5.9,0,0,1-1.81.56l-.07,0a4.73,4.73,0,0,0-.58.13,3.56,3.56,0,0,0-.62.23,2.53,2.53,0,0,0-.55.37,1.73,1.73,0,0,0-.39.51,1.15,1.15,0,0,0-.12.37,1.5,1.5,0,0,0,0,.47h0a3.94,3.94,0,0,0-.43.5c-.16.26-.31.54-.47.82a.83.83,0,0,0-.22.08,1.88,1.88,0,0,0-.18.12,2.61,2.61,0,0,0-.31.27l-.25.32a2.3,2.3,0,0,0-.23.5,2,2,0,0,0-.09.59c.05.24.09.44.15.64l0,0c-.1.2-.18.4-.27.61a3.41,3.41,0,0,0-.24.63c0,.13-.07.26-.1.38s-.06.24-.08.36a2.2,2.2,0,0,0,0,.36,5.3,5.3,0,0,0,0,.69,4.22,4.22,0,0,0,.14.69c0,.08,0,.15.07.24a1.46,1.46,0,0,1,.07.4,1.58,1.58,0,0,1,0,.38,6.4,6.4,0,0,1-.53,1.26c0,.1-.1.22-.14.32-.13.32-.23.62-.33.93s-.2.63-.28.94-.16.62-.23.94a7.87,7.87,0,0,0-.12,1,8.75,8.75,0,0,0,0,.89,5.59,5.59,0,0,0,.12,1v0a11.83,11.83,0,0,0,.32,1.24,6.69,6.69,0,0,0,.47,1.19l.1.2a3.1,3.1,0,0,1,.58,2.55c-.17.49-.38.95-.58,1.42a4.43,4.43,0,0,0-.43,2.26,4.73,4.73,0,0,0,.42,1.33c.12.26.26.51.4.75a6.55,6.55,0,0,0,.39.55,4,4,0,0,1,.81.94s0,0,0,.07a2,2,0,0,1-.19,1.13c-.07.24-.14.48-.22.72s-.2.68-.31,1-.21.68-.3,1a8.63,8.63,0,0,0-.2.88,7.9,7.9,0,0,0-.14,2,17.26,17.26,0,0,0,.44,2.88c.12.46.25.91.4,1.36s.33.88.5,1.31.52,1.12.8,1.65c.11,1.4.25,2.8.38,4.2l0,.11c0,.34-.12.67-.18,1a17.15,17.15,0,0,0-.22,2c0,.31,0,.62,0,.93s0,.51,0,.77a8.74,8.74,0,0,0,.46,1.93,8.88,8.88,0,0,0,.41.94c.11.21.22.43.32.66.07.66.14,1.33.2,2l.09.88a6.56,6.56,0,0,1-.52,1.65c0,.06-.05.12-.07.17a3.33,3.33,0,0,0-.38,1.26,2.3,2.3,0,0,0,.28,1.28l.26.52a3.14,3.14,0,0,1,.32,1,2.07,2.07,0,0,1-.11,1c-.15.4-.31.77-.43,1.15a3.26,3.26,0,0,0-.16.89,2.52,2.52,0,0,0,0,.54,3.75,3.75,0,0,0,.46,1.22c.28.53.15.58,0,1.09a2,2,0,0,0,0,.26,9.27,9.27,0,0,0,.43,2.55,1.18,1.18,0,0,0,.13.4c.32.7,1,1,1.43,1.67a.69.69,0,0,1,.05.13c0,.1,0,.21,0,.31s0,.28,0,.41a3.49,3.49,0,0,1-.22.81c-.1.28-.21.55-.28.81,0,.05,0,.08,0,.12a3.59,3.59,0,0,0-.12.73,4.61,4.61,0,0,0,0,1,8.24,8.24,0,0,0,.46,1.82c.08.19.16.35.24.52a7.47,7.47,0,0,0,1.18,1.83l.2.21a3,3,0,0,0-.16,2,3.63,3.63,0,0,0,.27.76,3.79,3.79,0,0,0,.2.34.36.36,0,0,0,0,.09l.07.09.13.16a1.3,1.3,0,0,0,.15.18l.17.16c.05,0,.11.1.16.16l.18.13a2.74,2.74,0,0,0,.36.23l.36.19c.12,0,.25.08.38.12l.19.06.2,0c.13,0,.26,0,.39,0H736a1.66,1.66,0,0,1,.46,0,3.06,3.06,0,0,1,.43.13c.45.19.87.47,1.34.72.12.07.24.12.36.18a16.76,16.76,0,0,0,4.2,1.36,8.2,8.2,0,0,0,1,.12,7.48,7.48,0,0,0,1.16,0h0a7.77,7.77,0,0,0,1.53-.26,5.81,5.81,0,0,0,1.4-.58l.21-.13a13.43,13.43,0,0,1,1.3-.77,2.44,2.44,0,0,1,1.52-.22c.56.12,1,.35,1.61.5l.33.08c.12,0,.23,0,.35.06a3.66,3.66,0,0,0,.74,0,1.93,1.93,0,0,0,.41-.06l.4-.13a.25.25,0,0,1,.11,0l.1,0,.21-.12a1.33,1.33,0,0,0,.19-.14c.07,0,.12-.09.18-.13a5.58,5.58,0,0,0,1-1.3,7.37,7.37,0,0,1,.41-.65,2.68,2.68,0,0,1,.44-.45,3.77,3.77,0,0,1,.51-.39,1.61,1.61,0,0,1,.65-.24.34.34,0,0,0,.1,0,2.32,2.32,0,0,1,1.22.55c.25.16.47.34.69.51.64.49,1.21,1,1.86,1.49a9.05,9.05,0,0,0,.92.58,5.76,5.76,0,0,0,2.49.62,9.56,9.56,0,0,0,1.79-.12,14.17,14.17,0,0,0,1.65-.37,23.59,23.59,0,0,0,3-1.12l2.1-.93.21-.1a.27.27,0,0,0,.15,0l.41-.1,2-.52H778a12.47,12.47,0,0,0,2.28-.07,9.24,9.24,0,0,0,2.31-.59l.52-.26.5-.29.39-.28c.13-.09.24-.2.36-.3a8.25,8.25,0,0,0,1.52-1.78c.08-.11.14-.23.22-.34l0,0a13.15,13.15,0,0,0,1.27-.78,2.73,2.73,0,0,0,.31-.27l.17-.17a2.58,2.58,0,0,0,.22-.31l.1-.16c.07-.14.13-.27.2-.4a1.84,1.84,0,0,1,.73-.79l.38-.12.68-.18.69-.17.36-.07.37-.08.22,0,.19,0,.19-.06c.12,0,.25-.09.37-.13a2.53,2.53,0,0,0,.36-.2,3.39,3.39,0,0,0,.34-.23,3.06,3.06,0,0,0,1-1.43c.06-.23.13-.45.17-.68a2.46,2.46,0,0,0,.07-.29c0-.09,0-.18.08-.28s.12-.36.19-.52a2.38,2.38,0,0,1,.71-.95q.25-.21.51-.39l.5-.37a6.3,6.3,0,0,0,.71-.67c.13-.16.25-.32.37-.5a5.38,5.38,0,0,0,.59-1.35c.21-.64.33-.61.77-1a1.45,1.45,0,0,0,.22-.21,12.77,12.77,0,0,0,1.53-2.6,2.21,2.21,0,0,0,.19-.47,3.53,3.53,0,0,0,.09-1.36,5.1,5.1,0,0,0,.32-.72,9.3,9.3,0,0,0,.29-1.35c.16-.19.32-.37.5-.55s.47-.44.68-.67a.39.39,0,0,0,.08-.1,4.26,4.26,0,0,0,.5-.71c.1-.17.19-.35.28-.54a6.07,6.07,0,0,0,.24-.59c.06-.18.11-.36.17-.54l.12-.5c0-.09.07-.17.1-.26s.07-.27.11-.39.12-.49.17-.72a5.26,5.26,0,0,0,.06-1.43,2.11,2.11,0,0,0,0-.25,1.87,1.87,0,0,1,.08-.82,4.24,4.24,0,0,1,.28-.62c.12-.2.23-.41.35-.62l.16-.33a18.51,18.51,0,0,0,1.33-3.76c.06-.31.09-.62.13-.93a8.6,8.6,0,0,0,0-1s0,0,0,0c0-.45-.07-.89-.13-1.32C806.71,53,806.67,52.77,806.62,52.55Zm-29,3-.12.5a3.28,3.28,0,0,0,0,.55l-.18.41s-.07,0-.08.09-.06.14-.08.21a3.18,3.18,0,0,1-.58.7l-.11.1a2.19,2.19,0,0,0-1,1.58c0,.13,0,.28-.06.42a1.37,1.37,0,0,1-.89,1.16,3.73,3.73,0,0,1-.44.14l-.41.12a3.16,3.16,0,0,0-.6.25l-.32.22a2.07,2.07,0,0,0-.32.35c-.1.12-.19.26-.28.39-.24.38-.33.32-.72.38l-.19.05a2.06,2.06,0,0,0-.42.21l-.43.27-.41.3-.39.26a1.37,1.37,0,0,0-.26.2,2.1,2.1,0,0,0-.42.72,2.39,2.39,0,0,1-.44.77,1.08,1.08,0,0,1-.58.3,3.13,3.13,0,0,1-.69,0l-.34,0-.31,0h-.09a2.54,2.54,0,0,0-.55,0,7.39,7.39,0,0,0-.75.13,8.65,8.65,0,0,0-1.3.44l-.37.18a9.19,9.19,0,0,0-1.43.83l-.32.22-.45.3-.71,0a3,3,0,0,0-.82.17,3.6,3.6,0,0,0-.7.33c-.29.16-.58.53-1.08.81a3.75,3.75,0,0,1-.8-.71,6.15,6.15,0,0,1-.6-.94l-.24-.45c-.05-.07-.1-.17-.15-.25l-.17-.28v0c-.3-.48-.6-1-1-1.59l-.11-.14-.2-.28c-.11-.64-.21-1.29-.31-1.94.13-.29.25-.57.39-.84a3.29,3.29,0,0,0,.45-1.73,3.54,3.54,0,0,0-.31-1.05,5,5,0,0,0-.32-.61,3.12,3.12,0,0,0-.32-.44c-.2-.24-.56-.5-.67-.76a.64.64,0,0,0,0-.07,1.51,1.51,0,0,1,.2-.87c.08-.19.15-.38.22-.57a15.9,15.9,0,0,0,.57-1.59c.07-.23.13-.47.18-.71a6.82,6.82,0,0,0,.1-.79,5.82,5.82,0,0,0,0-.83c-.05-.39-.12-.79-.2-1.16s-.19-.73-.3-1.08a14.61,14.61,0,0,0-.82-2.05c-.24-.5-.49-1-.75-1.45-.08-.14-.15-.28-.22-.42a2.05,2.05,0,0,1-.22-.66,3.06,3.06,0,0,1,.19-1.4,12.65,12.65,0,0,0,.67-3.15,4.48,4.48,0,0,0,0-.73c0-.21,0-.42,0-.62a6,6,0,0,0-.42-1.51,6.06,6.06,0,0,0-.37-.72,5.22,5.22,0,0,1-.61-1.2,2.21,2.21,0,0,1-.13-.67c0-.07,0-.16,0-.24a10.57,10.57,0,0,1,.36-2,.94.94,0,0,0,0-.16,1.88,1.88,0,0,0-.31-2,3.17,3.17,0,0,1-.3-.34,1.66,1.66,0,0,1-.23-.31c0-.05-.05-.11-.08-.16v-1a7.19,7.19,0,0,1,.42-.75,1.82,1.82,0,0,0,.15-.23,1.34,1.34,0,0,1,.06-.12s0,0,0,0v0l0-.12a2.67,2.67,0,0,0,.07-.47,2.48,2.48,0,0,0-.21-.89.66.66,0,0,1-.06-.22.23.23,0,0,1,0-.13s0,0,.08,0a.23.23,0,0,1,.11,0h.07c.05,0,.06,0,.05,0a.18.18,0,0,1,0-.06s0-.06,0-.06l0,0a.08.08,0,0,0,0,0h.07l.18,0,.43-.09a4.75,4.75,0,0,1,1-.09,1.12,1.12,0,0,1,.62.23l.27.24.27.28.26.27.27.23a.46.46,0,0,1,.07.07,2.77,2.77,0,0,0,.56.31,3.45,3.45,0,0,0,.42.14,3.13,3.13,0,0,0,.44.1,4.84,4.84,0,0,0,1.52,0c.15,0,.3-.06.43-.09a5.83,5.83,0,0,0,1.6-.61l.35-.18c.17-.1.33-.22.5-.33h.16a4.67,4.67,0,0,1,1,.42l.26.12a25.75,25.75,0,0,0,2.8,1l.32.08.32.06c.23,0,.47.07.7.09h0c.31,0,.62.05.93.08l.48,0,.48,0H769a3.2,3.2,0,0,1,.54,0,2.21,2.21,0,0,1,.51.11,1.61,1.61,0,0,1,.46.26l.19.18a1.64,1.64,0,0,1,.16.26c.08.18.15.36.22.54l.15.57c0,.15.07.28.11.42a2.75,2.75,0,0,0,.11.41,1.76,1.76,0,0,0,.17.37,1.47,1.47,0,0,0,.21.39c.09.12.2.24.32.37s.26.26.4.38l.53.41a3.57,3.57,0,0,0,.45.27,4.85,4.85,0,0,0,.45.21,1.28,1.28,0,0,1,.4.27l0,.05a1.44,1.44,0,0,1,.15.89c0,.21,0,.41,0,.61s0,.56,0,.84,0,.55,0,.82,0,.47,0,.71a8.59,8.59,0,0,0,.21,1.55c0,.19.1.36.15.54l.15.55.18.53c.06.17.12.35.19.53.13.34.26.69.4,1s.3.66.46,1c.23.5.47,1,.71,1.46l.22.43a2.2,2.2,0,0,1,.21.66,3.34,3.34,0,0,1-.15,1.41,14.16,14.16,0,0,0-.57,3.17c0,.24,0,.49,0,.73s0,.4,0,.61a7.24,7.24,0,0,0,.31,1.51q.12.39.27.75a4.75,4.75,0,0,1,.36,1.18A2.56,2.56,0,0,0,777.59,55.51Z"/></clipPath><image id="image" width="254" height="350" xlink:href="included_images/letters/letter_E.jpg"/><image id="image-2" width="271" height="350" xlink:href="included_images/letters/letter_R.jpg"/><image id="image-3" width="305" height="350" xlink:href="included_images/letters/letter_A.jpg"/><image id="image-4" width="298" height="350" xlink:href="included_images/letters/letter_D.jpg"/></defs>
<g class="swinging balloon-swg" style="animation-duration: 18s;"><g class="cls-2 rope"><image width="84" height="350" transform="translate(523.73 109.18) scale(0.25)" xlink:href="included_images/balloon_string_purple_1.jpg"/></g><image class="" width="2610" height="2818" transform="translate(483.44 5.49) scale(0.04)" xlink:href="included_images/pink%20blood%20cell%20pop_filled.png"/></g><g id="e"><g class="swinging cls-3"><use transform="translate(48.28 10.31) rotate(-5.12) scale(0.28)" xlink:href="#image"/></g></g><g id="r"><g class="swinging cls-4"><use transform="translate(339.49 3.68) rotate(-2.89) scale(0.29)" xlink:href="#image-2"/></g></g><g id="a"><g class="cls-5 swinging"><use transform="matrix(0.27, -0.01, 0.01, 0.27, 114.78, 8.44)" xlink:href="#image-3"/></g></g><g id="b"><g class="swinging cls-6"><image width="266" height="350" transform="translate(417.28 4.96) scale(0.28)" xlink:href="included_images/letters/letter_B.jpg"/></g></g><g class="swinging cls-7"><image width="214" height="350" transform="translate(4.74 -0.88) rotate(3.31) scale(0.28 0.29)" xlink:href="included_images/letters/letter_L.jpg"/></g><g class="cls-8 swinging"><use transform="translate(196.74 5.34) scale(0.27 0.27)" xlink:href="#image-4"/></g><g id="e-2" data-name="e"><g class="swinging cls-9"><use transform="translate(281.36 2.1) rotate(7.85) scale(0.28)" xlink:href="#image"/></g></g><g id="r-2" data-name="r"><g class="swinging cls-10"><use transform="matrix(0.28, -0.02, 0.02, 0.29, 647.67, 4.71)" xlink:href="#image-2"/></g></g><g id="a-2" data-name="a"><g class="swinging cls-11"><use transform="translate(567.71 9.4) rotate(-2.88) scale(0.27)" xlink:href="#image-3"/></g></g><g class="swinging cls-12"><use transform="translate(723.52 3.48) rotate(-3.06) scale(0.27 0.27)" xlink:href="#image-4"/></g></svg>