<svg id="letters-pnh-pop" xmlns="http://www.w3.org/2000/svg" xmlns:xlink="http://www.w3.org/1999/xlink" viewBox="0 0 452.35 99.04"><defs><style>.cls-1{fill:none;}.cls-2{clip-path:url(#clip-path);}.cls-3{clip-path:url(#clip-path-2);}.cls-4{clip-path:url(#clip-path-3);}.cls-5{clip-path:url(#clip-path-4);}.cls-6{clip-path:url(#clip-path-5);}.cls-7{clip-path:url(#clip-path-6);}.cls-8{clip-path:url(#clip-path-7);}</style><clipPath id="clip-path"><path class="cls-1" d="M184.72,76.05c-.06-.41,0-.41.22-.71a.89.89,0,0,0,.08-.17,6.33,6.33,0,0,0,.29-1.72,1.34,1.34,0,0,0,0-.28,1.77,1.77,0,0,0-.27-.68,2.29,2.29,0,0,1-.27-.72,1.24,1.24,0,0,1,.48-1l.22-.22a1.33,1.33,0,0,0,.19-.21l0-.06a2.9,2.9,0,0,0,.27-.48,3.11,3.11,0,0,0,.23-.69,5.34,5.34,0,0,0,.13-1.26c0-.14,0-.27,0-.39A5.69,5.69,0,0,0,186,66a.2.2,0,0,1,0-.08l.09-.33,0-.15c.15-.15.28-.3.48-.47a1.3,1.3,0,0,0,.15-.18,2.75,2.75,0,0,0,.26-.47c.07-.15.12-.3.18-.45a7.61,7.61,0,0,0,.25-.72l0-.22a2.88,2.88,0,0,0,.09-.4,2.82,2.82,0,0,0,0-.82c0-.06,0-.1,0-.15a.68.68,0,0,1,.07-.47,3.08,3.08,0,0,1,.54-.62l.14-.16a7.45,7.45,0,0,0,1.26-2c0-.17.11-.34.15-.52a5.3,5.3,0,0,0,.07-.59h0a5.93,5.93,0,0,0-.17-1.51.5.5,0,0,0,0-.13c-.16-.55-.35-1.08,0-1.55a8.45,8.45,0,0,1,.66-.68,2.28,2.28,0,0,0,.72-1.17,2.39,2.39,0,0,0,0-.83,4.77,4.77,0,0,0-.13-.51c-.06-.14-.11-.27-.17-.38a3.15,3.15,0,0,1-.37-.7v0c0-.23.19-.41.33-.59l.28-.36c.27-.34.54-.67.77-1a4.53,4.53,0,0,0,.3-.46,4,4,0,0,0,.45-1.09,8.94,8.94,0,0,0,.25-1.7,13.14,13.14,0,0,0,0-1.66c0-.43-.1-.83-.15-1.23,0-.12,0-.24,0-.37a1.42,1.42,0,0,1,0-.51,2.18,2.18,0,0,1,.53-.92,8.64,8.64,0,0,0,1.4-2c.08-.17.15-.33.22-.51s.09-.29.13-.44a3.82,3.82,0,0,0,.1-1.18,2.59,2.59,0,0,0-.1-.62,4.93,4.93,0,0,1-.15-1,2,2,0,0,1,.08-.49,1.22,1.22,0,0,1,.07-.17,3.36,3.36,0,0,1,.39-.67,3.51,3.51,0,0,1,.51-.61l.08-.09a1.33,1.33,0,0,0,.48-1.41c0-.12-.06-.22-.09-.33A2.93,2.93,0,0,1,196,30a.88.88,0,0,1,0-.28,1.48,1.48,0,0,1,.1-.27,1.2,1.2,0,0,1,.22-.24c.19-.16.4-.27.57-.39l.09-.08s0,0,0,0l.05-.06a1.31,1.31,0,0,0,.19-.27,1.42,1.42,0,0,0,.14-.36,2,2,0,0,0,0-.94.76.76,0,0,1,0-.41c0-.1.1-.19.16-.37a.59.59,0,0,0,.05-.19,2.08,2.08,0,0,0-.11-1,4.66,4.66,0,0,0-.46-.95,1.32,1.32,0,0,0-.23-.28,1.3,1.3,0,0,0-.73-.26l-.36,0-.09,0,.07-.12a.83.83,0,0,1,.08-.12.62.62,0,0,0,.07-.19,1.25,1.25,0,0,0,0-.66c0-.08,0-.15-.07-.23a2.09,2.09,0,0,1-.08-.23,1.22,1.22,0,0,0-.07-.17l0-.1a4,4,0,0,0-.31-.54.58.58,0,0,1,0-.14c0-.11-.09-.23-.14-.34l-.2-.34a3.5,3.5,0,0,0-.24-.3,3.23,3.23,0,0,0-.29-.25l-.19-.13-.19-.1c-.14-.07-.27-.11-.39-.16l-.22-.06-.21,0a1.93,1.93,0,0,0-.55.06,2.86,2.86,0,0,1-1.26-.84c-.33-.41-.54-1.1-1-1.29a1.23,1.23,0,0,0-.36-.08,1,1,0,0,0-.34.06,5.13,5.13,0,0,0-.66.29.93.93,0,0,1-.74.06c-.4-.16-.64-.62-1-1a1.92,1.92,0,0,0-.55-.55h0l-.3-.18a2.89,2.89,0,0,0-.35-.11,2.09,2.09,0,0,0-.36-.07,1.45,1.45,0,0,0-.36,0,1.17,1.17,0,0,0-.41.1,3.35,3.35,0,0,1-.55.31.41.41,0,0,1-.19,0,.35.35,0,0,1-.11-.09.41.41,0,0,1,0-.09c0-.08-.06-.15-.09-.2a.2.2,0,0,0-.17-.08h0a1.27,1.27,0,0,0-.3.09,1.26,1.26,0,0,1-.33.05,2.72,2.72,0,0,1-.77-.23,1.36,1.36,0,0,0-.84-.12,1.81,1.81,0,0,0-.34.13,2.2,2.2,0,0,0-.37.23l-.17.11a1.28,1.28,0,0,1-.62.24,1.57,1.57,0,0,1-.67-.21l-.23-.09-.24-.07-.32-.08-.33,0a2.31,2.31,0,0,0-.37,0l-.37.08a3.13,3.13,0,0,0-.89.5c-.11.1-.21.21-.31.32s-.17.25-.24.38a1.92,1.92,0,0,0-.16.42s0,0,0,0a3.39,3.39,0,0,0-.06.72,1.55,1.55,0,0,0-.13.29,7.51,7.51,0,0,0-.14.75.45.45,0,0,1,0,.11h-.09l-.09,0-.08,0a1.89,1.89,0,0,0-.2.2.19.19,0,0,0,0,.09h0l0,0a.59.59,0,0,1,0,.08.93.93,0,0,1-.05.1.47.47,0,0,0-.06.09l0,0s0,0,0,0l0,0-.07.07a1.08,1.08,0,0,0-.29.65,1.51,1.51,0,0,0,0,.48,3,3,0,0,0,.08.35c0,.11.07.21.11.32s.06.19.08.28.06.19.08.28a2.91,2.91,0,0,1,0,.59,1.17,1.17,0,0,1-.05.2c-.07.12-.15.23-.23.36s-.14.29-.22.43a1.74,1.74,0,0,1-.3.2c-.39.2-1.06.23-1.27.57a.56.56,0,0,0-.1.28.75.75,0,0,0,0,.29,3,3,0,0,0,.27.59.77.77,0,0,1,.1.62,1.16,1.16,0,0,1-.36.42c-.17.12-.37.24-.56.38s-.18.14-.25.21a1.64,1.64,0,0,0-.21.25,0,0,0,0,1,0,0,1.31,1.31,0,0,0-.2.5,1,1,0,0,0,.15.86,1.66,1.66,0,0,0,.16.21l0,0a0,0,0,0,1,0,0l0,0a.14.14,0,0,1,.05.08.08.08,0,0,1,0,.08c-.08.12-.28.11-.38.16a.14.14,0,0,0-.08.11v0c0,.13.16.31.14.47a1.4,1.4,0,0,1-.21.53.68.68,0,0,0-.13.57,2,2,0,0,0,.29.59.74.74,0,0,1,.08.15,1,1,0,0,1,.12.27c0,.13-.05.26-.08.39a1,1,0,0,1-.28.23c-.1.07-.22.12-.33.19a3.67,3.67,0,0,0-.38.27,2.06,2.06,0,0,0-.37.35l-.09.14-.05.07a.1.1,0,0,0,0,0,1.43,1.43,0,0,0-.14.2l-.09.17a1.42,1.42,0,0,0-.05.22.79.79,0,0,0,0,.22h0c0,.38.17.82.16,1.24v.15s0,.06,0,.08a.72.72,0,0,0,0,.17,1.58,1.58,0,0,0,.08.28,2.12,2.12,0,0,0,.11.21,1.78,1.78,0,0,0,.24.32l0,.06c-.08.26-.15.51-.24.76a2,2,0,0,1-.08.22,1.13,1.13,0,0,0-.33.14,1.05,1.05,0,0,0-.33.37,1.25,1.25,0,0,0-.1.31,2.25,2.25,0,0,0,0,.44,1.94,1.94,0,0,1,0,.35.79.79,0,0,1-.38.66l-.14.1-.64.39a2.24,2.24,0,0,0-.5.41l-.07.08-.11.15-.11.14-.09.15a.83.83,0,0,0-.07.13,1.61,1.61,0,0,0-.16.35.78.78,0,0,0-.05.14,2.64,2.64,0,0,0-.07.3,1,1,0,0,0,0,.34.67.67,0,0,0,0,.2,6,6,0,0,1-.71.39l-.1-.08a1,1,0,0,0-.86-.15l-.27.1a.61.61,0,0,0-.16.12.5.5,0,0,0,0,.13,1.31,1.31,0,0,1-.16.31.56.56,0,0,1-.18.16h0a.13.13,0,0,1-.08,0c-.19,0-.37-.21-.54-.32l-.3-.21c-.19-.12-.37-.24-.55-.33a1,1,0,0,0-.57-.07.94.94,0,0,0-.29.06l-.12,0a2.57,2.57,0,0,0-.59.2l-.21.11a1.43,1.43,0,0,1-.37.08l-.39,0a2.26,2.26,0,0,0-.37,0l-.25,0a.44.44,0,0,0-.15,0l-.22-.08c-.18-.08-.35-.16-.51-.25l-.3-.15-.18-.11-.06,0c0-.09-.09-.18-.12-.24s-.08-.15-.11-.2c-.1-.21-.19-.41-.3-.62a5.36,5.36,0,0,0-.34-.57l-.27-.28a.89.89,0,0,0-.42-.3,3.26,3.26,0,0,0-.47-.09,2.29,2.29,0,0,1-.36-.07l-.06,0-.13,0-.11-.06a.73.73,0,0,1-.18-.17.61.61,0,0,1-.12-.16.72.72,0,0,1-.09-.2,1.7,1.7,0,0,1-.07-.46v0a2.86,2.86,0,0,0,0-.58c0-.09-.05-.18-.07-.27A.91.91,0,0,0,155,39l-.16-.1a.75.75,0,0,0-.24-.09,1.22,1.22,0,0,0-.27,0c0-.2-.07-.4-.1-.61l.05-.06a1,1,0,0,0,.07-.15.52.52,0,0,1,0-.11,1.2,1.2,0,0,0,0-.38,1,1,0,0,0-.27-.48L154,37l0-.1a.38.38,0,0,1,0-.1.7.7,0,0,1,.08-.29.81.81,0,0,0,.15-.35s0,0,0,0c0-.32.06-.64.1-1l.25-.16a1,1,0,0,0,.17-.18,2,2,0,0,0,.29-.5,1.86,1.86,0,0,1,.1-.25c0-.08.05-.17.09-.26a5,5,0,0,0,.16-.84,1.94,1.94,0,0,0,0-.24,3.47,3.47,0,0,0,0-.44v-.42a3.58,3.58,0,0,0,0-.45c0-.05,0-.1,0-.15a.8.8,0,0,1,.07-.51,3.73,3.73,0,0,1,.52-.7l.14-.18a10.75,10.75,0,0,0,1.26-2.13q.11-.27.18-.54a2.89,2.89,0,0,0,.1-.6h0a7.41,7.41,0,0,0,0-1.63l0-.14a1.86,1.86,0,0,1,.2-1.66c.21-.25.46-.48.68-.73a3.74,3.74,0,0,0,.46-.59,2.2,2.2,0,0,0,.27-.73,2.13,2.13,0,0,0,0-.44,4.44,4.44,0,0,0-.07-.49c0-.19-.1-.37-.16-.54a3,3,0,0,0-.19-.4c-.11-.17-.3-.37-.4-.56a.09.09,0,0,0,0-.05c0-.17,0-.35,0-.52a2.64,2.64,0,0,1,.15-.29c.08-.15.17-.29.25-.43.25-.4.5-.77.72-1.17.09-.17.17-.35.25-.54A3.23,3.23,0,0,0,160,14.3c0-.1,0-.19,0-.28s0-.19,0-.27a5.36,5.36,0,0,0-.17-.57,3.2,3.2,0,0,0-.59-.94,4.37,4.37,0,0,0-1.62-1,7.36,7.36,0,0,0-1.26-.34l-.22,0a6.68,6.68,0,0,0-1.29-.69l-.23-.24a7.39,7.39,0,0,0-2-1.65A3.82,3.82,0,0,0,152,8a4.43,4.43,0,0,0-.47-.17,4.2,4.2,0,0,0-1.27-.19,3.57,3.57,0,0,0-.66,0,5,5,0,0,1-1.09,0,2.15,2.15,0,0,1-.54-.14l-.17-.09c-.5-.29-.9-.55-1.43-.9l-.11-.07a1.81,1.81,0,0,0-.41-.22,1.31,1.31,0,0,0-.42-.11,1.55,1.55,0,0,0-.43,0,1.42,1.42,0,0,0-.42.15l-.33.17-.15.06-.15.06-.32.08a1.74,1.74,0,0,1-.73-.07,3.39,3.39,0,0,0-.91-.13,1.79,1.79,0,0,0-.78.21,2,2,0,0,0-.43.32,1.86,1.86,0,0,0-.53,1c0,.35-.13.34-.38.5,0,0-.07,0-.11.08a1.14,1.14,0,0,0-.22.22,1.79,1.79,0,0,0-.2.26,1.47,1.47,0,0,1-.1.13l0,.06s0,0-.05.06l-.06.06-.06.07-.14.13a2,2,0,0,0-.19.22,1.65,1.65,0,0,0-.23.78,1.48,1.48,0,0,0,0,.21.6.6,0,0,0,0,.19,2.68,2.68,0,0,1,0,.4.68.68,0,0,1-.09.25.94.94,0,0,1-.16.23,2.16,2.16,0,0,1-.46.36l-.45.34-.06.06a2,2,0,0,0-.33.38,3.54,3.54,0,0,0-.33.61,3.89,3.89,0,0,0-.18.58,4.48,4.48,0,0,0-.11.62c0,.13,0,.25,0,.37a5.58,5.58,0,0,0,0,.72,3.44,3.44,0,0,0,.16.69c0,.09.06.2.1.29h0c0,.08,0,.16-.07.24s-.25.2-.41.31a1.34,1.34,0,0,0-.21.2,4.09,4.09,0,0,0-.57,1.12,7.9,7.9,0,0,0-.29.9l-.06.26a5,5,0,0,0-.06.51,3.09,3.09,0,0,0,.12,1c0,.05,0,.11,0,.18a.7.7,0,0,1,0,.57,3.67,3.67,0,0,1-.67.78,1.73,1.73,0,0,0-.17.21,9.9,9.9,0,0,0-1.55,2.36,3.82,3.82,0,0,0-.19.6,3.27,3.27,0,0,0-.08.7s0,0,0,0a6.06,6.06,0,0,0,.22,1.87.75.75,0,0,1,0,.16c.23.68.51,1.35,0,1.91-.28.28-.61.52-.91.79a2.53,2.53,0,0,0-1,1.43,2.85,2.85,0,0,0,.09,1,4.29,4.29,0,0,0,.23.63,3.57,3.57,0,0,0,.26.48c.1.15.25.31.38.48-.13.47-.25.94-.37,1.41l-.16.2c-.34.43-.68.85-1,1.28-.12.18-.24.37-.35.56a4.49,4.49,0,0,0-.51,1.35,7.07,7.07,0,0,0-.16,1c0,.34,0,.69-.06,1s0,.67,0,1a2.28,2.28,0,0,1,0,.26c0,.09,0,.17,0,.25s0,.33,0,.5l0,.58-.12.47a2.81,2.81,0,0,0-.08.31l-.09.33c0,.1,0,.21-.07.31-.13.47-.25,1-.37,1.42a1.63,1.63,0,0,1-.2.17,6.61,6.61,0,0,0-1.13,1,5.32,5.32,0,0,0-.46.63,7,7,0,0,0-.37.66,3.9,3.9,0,0,0-.26.64,5.09,5.09,0,0,0-.14.56q0,.16-.06.36v.37a4.65,4.65,0,0,0,.08.74,3.79,3.79,0,0,0,.21.75,4.49,4.49,0,0,1,.36,1.22,1.57,1.57,0,0,1,0,.61,1.29,1.29,0,0,1-.06.21,4.49,4.49,0,0,1-1.07,1.62l-.11.11a1.47,1.47,0,0,0-.55,1.74l.17.41a1.65,1.65,0,0,1,.13.71,1.06,1.06,0,0,1-.34.68c-.24.23-.49.43-.7.64a2.08,2.08,0,0,0-.37.51,1.12,1.12,0,0,0-.12.35,1.14,1.14,0,0,0,0,.45,2.6,2.6,0,0,0,.09.47c.1.42,0,.41-.31.68l-.12.14a5.43,5.43,0,0,0-.46,1.69.92.92,0,0,0,0,.28c.05.56.57,1,.63,1.64a.74.74,0,0,1-.2.57,3.6,3.6,0,0,1-.55.42,6.55,6.55,0,0,0-.58.4l-.07,0a2.73,2.73,0,0,0-.39.44q-.1.15-.21.33c-.05.12-.1.23-.15.36s-.07.22-.11.33l0,.16a.19.19,0,0,0,0,.08c0,.1-.06.28-.1.5a1.57,1.57,0,0,1,0,.23c0,.09,0,.17,0,.25a2.66,2.66,0,0,0,0,.28v.14a.92.92,0,0,0,0,.16,1.65,1.65,0,0,0,.1.56,3,3,0,0,0,.44.75l.24.3c.1.13.21.25.32.38s0,.35-.07.53,0,.19,0,.29l0,0-.29.19a9.19,9.19,0,0,0-1,1.23.75.75,0,0,0,0,.16,1.15,1.15,0,0,0,0,.69,1.33,1.33,0,0,0,.1.24l.14.22c.19.24.43.46.67.71l.3.3c.09.1.2.19.28.28a2.61,2.61,0,0,1,.27.33,1.71,1.71,0,0,0,.12.23s0,0,0,0a1.26,1.26,0,0,1,0,.28c0,.09,0,.18,0,.29a2.38,2.38,0,0,0,.05,1.19,1.63,1.63,0,0,0,.69.83,1.43,1.43,0,0,0,.27.15l.29.13.14,0,.14,0,.27.06a3.77,3.77,0,0,0,1.11.05,5.1,5.1,0,0,0,1.08-.3l.19-.06c.49.19,1,.36,1.48.51l.08.13a3.54,3.54,0,0,0,.46.7,2.13,2.13,0,0,0,.31.29,4.46,4.46,0,0,0,.5.35,5.2,5.2,0,0,0,.52.27c.23.11.45.19.65.27l.21.09.2.08.39.17a7.44,7.44,0,0,0,1,.38,5.18,5.18,0,0,0,.82.22l.32.06a5.17,5.17,0,0,0,1,0,3.9,3.9,0,0,0,1-.13,5.74,5.74,0,0,0,1-.35,4.36,4.36,0,0,0,1.13-.72,4.49,4.49,0,0,0,.36-.39,1.78,1.78,0,0,0,.32-.88l0,0,.17,0a2.08,2.08,0,0,0,.71-.66,2.25,2.25,0,0,0,.24-.36l.09-.16a.63.63,0,0,0,.31-.12,1.19,1.19,0,0,0,.42-.51.08.08,0,0,0,0,0,2,2,0,0,0,.38-.57,3.45,3.45,0,0,0,.12-.46c0-.08,0-.15,0-.23s0-.06,0-.09,0-.06,0-.09,0-.14,0-.2a2.5,2.5,0,0,1,.15-.38c.12-.24.26-.49.38-.78,0,0,0,0,0,0l0-.09c.05-.16.09-.3.12-.44s.06-.24.09-.39.06-.29.1-.45a1.42,1.42,0,0,1,0-.2,1,1,0,0,1,.1-.25.39.39,0,0,1,.06-.11s0-.07.09-.12l.34-.51.15-.25a2.26,2.26,0,0,0,.16-.26,4.4,4.4,0,0,0,.3-.52l.24-.5a5.08,5.08,0,0,0,.18-.59h0a8.05,8.05,0,0,0,.28-1.63v-.15a2.06,2.06,0,0,1,.48-1.64c.24-.23.51-.44.76-.65a4,4,0,0,0,.53-.56,2.22,2.22,0,0,0,.22-.34,1.88,1.88,0,0,0,.15-.38,2.67,2.67,0,0,0,.08-.91,3.3,3.3,0,0,0-.07-.56,2.71,2.71,0,0,0-.1-.43c0-.14-.13-.31-.18-.48.14-.35.28-.69.44-1a4.11,4.11,0,0,1,.3-.29,4.62,4.62,0,0,1,1.1-.74,2.53,2.53,0,0,1,.23-.12l.24-.11.25-.1.26-.11.26-.11.07,0,.06,0,.14-.05.19-.09.21-.08.41-.17.41-.16.2-.09.21-.07c.54-.21,1.09-.39,1.66-.56s.87-.23,1.31-.31l.41-.07a2.21,2.21,0,0,1,.58,0,2.43,2.43,0,0,1,1.06.56c.7.55,1.41,1.1,2.13,1.56a5.39,5.39,0,0,0,.52.3l.21.12.22.11a6.06,6.06,0,0,0,1.17.46,6.29,6.29,0,0,0,.62.17,3.34,3.34,0,0,1,1,.42,1.3,1.3,0,0,1,.23.18,1.37,1.37,0,0,1,.19.22l.11.16a2.42,2.42,0,0,1,.3,1.6l0,.12a1.87,1.87,0,0,0,.12,1.5c.06.1.12.2.17.3s.08.2.11.3a1.54,1.54,0,0,1,0,.31,1.13,1.13,0,0,1-.18.63c-.14.23-.3.43-.42.63a2.71,2.71,0,0,0-.26.51,1.6,1.6,0,0,0-.07.33,2.54,2.54,0,0,0,.05.82c.06.38,0,.38-.21.67a1,1,0,0,0-.09.15,6.77,6.77,0,0,0-.27,1.67,1.4,1.4,0,0,0,0,.29c0,.5.43.81.52,1.34a1.24,1.24,0,0,1-.4,1c-.12.15-.25.3-.35.44l0,.06a2,2,0,0,0-.23.43,2.75,2.75,0,0,0-.21.65,5.32,5.32,0,0,0-.14,1.2c0,.13,0,.25,0,.37a4.72,4.72,0,0,0,.29,1.41l0,.1a4,4,0,0,0,0,.6q-.13.33-.24.63a7.78,7.78,0,0,0-.25.86,2.38,2.38,0,0,1-.05.26c0,.17,0,.32-.06.48a3,3,0,0,0,.09.93,1,1,0,0,0,0,.17.87.87,0,0,1,0,.53,5.1,5.1,0,0,1-.37.85,2.17,2.17,0,0,0-.07.24,1.29,1.29,0,0,0-.06.21.52.52,0,0,1,0,.11.4.4,0,0,0,0,.11,1.41,1.41,0,0,0,0,.5,4.33,4.33,0,0,0,.86,1.82,3.72,3.72,0,0,0,.43.46,3.62,3.62,0,0,0,.53.42h0l.19.12a1.37,1.37,0,0,1,.2.13c.14.07.28.15.43.21a3.29,3.29,0,0,0,.44.16l.45.09.15,0c.33,0,.65,0,.94.07a1.17,1.17,0,0,1,.41.1,1.11,1.11,0,0,1,.41.25,3.25,3.25,0,0,1,.39.35l.37.36a2.84,2.84,0,0,0,1.26.89,2.93,2.93,0,0,0,1,.1,3.09,3.09,0,0,0,.61-.08,2,2,0,0,0,.23-.06,1,1,0,0,0,.21-.08,2.93,2.93,0,0,0,.38-.21,1.8,1.8,0,0,1,.33-.21h0a.3.3,0,0,1,.13,0c.1,0,.2,0,.3,0h.06l.23,0,.52.1a2.83,2.83,0,0,1,.66.21c.22.09.42.19.62.29s.36.17.55.24a2.19,2.19,0,0,0,.33.12,2.11,2.11,0,0,0,.36.09l.19,0a1.2,1.2,0,0,0,.2,0,2.77,2.77,0,0,0,.41,0l.3,0,.29,0a3.28,3.28,0,0,0,.58-.18l.27-.12.25-.15.24-.15.21-.18a4.84,4.84,0,0,0,1.22-1.59,5.27,5.27,0,0,0,.41-1.32v-.07a5.21,5.21,0,0,0,.62-1c.11-.27.2-.54.3-.8a8.94,8.94,0,0,0,1.54-2.29c.09-.19.17-.39.24-.58s.12-.33.17-.5a5.35,5.35,0,0,0,.19-1.34c0-.23,0-.46,0-.69a4.5,4.5,0,0,1,0-1.16,1.84,1.84,0,0,1,.14-.56c0-.06.05-.12.08-.19a5.13,5.13,0,0,1,1.06-1.39.44.44,0,0,0,.1-.08,2.07,2.07,0,0,0,.57-.7,1.62,1.62,0,0,0,.15-.89c0-.13,0-.26,0-.39a2.57,2.57,0,0,1,0-.68,1.51,1.51,0,0,1,.35-.64c.19-.21.39-.41.56-.63a2.09,2.09,0,0,0,.42-.9A2.48,2.48,0,0,0,184.72,76.05Z"/></clipPath><clipPath id="clip-path-2"><path class="cls-1" d="M129.12,48.59c-.16-.35-.06-.38.06-.7a1.16,1.16,0,0,0,0-.18,5.56,5.56,0,0,0-.1-1.68,1.15,1.15,0,0,0-.06-.28c-.17-.47-.64-.69-.87-1.18a1.23,1.23,0,0,1,.21-1.08c.09-.17.2-.34.28-.5l0-.07a3.68,3.68,0,0,0,.15-.47,3.72,3.72,0,0,0,.09-.68,4.89,4.89,0,0,0-.12-1.2c0-.13-.07-.25-.11-.37s-.15-.46-.24-.68a3.43,3.43,0,0,0-.34-.62l-.18-.27-.19-.27,0,0a3,3,0,0,0,.58-.82,6.88,6.88,0,0,0,.39-1.29,2.55,2.55,0,0,0,.08-.42,5.64,5.64,0,0,0,0-1.84c0-.06,0-.13,0-.2a.69.69,0,0,0,0-.1.11.11,0,0,0,0-.05h0c0-.1-.07-.2-.1-.3s-.07-.21-.1-.32l-.09-.28c0-.14-.09-.28-.13-.43s0-.13,0-.19-.11-.4-.18-.59c-.12-.37-.24-.74-.39-1.11a4.07,4.07,0,0,0-.27-.56c0-.61,0-1.21,0-1.77v-.48a.61.61,0,0,1,.07-.1,2.64,2.64,0,0,0,.3-.81l.06-.44c0-.14,0-.29,0-.44v-.11a.06.06,0,0,0,0,0v0h0v0h0v-.28s.22-.1.27-.15a.71.71,0,0,0,.15-.15.84.84,0,0,0,.15-.18,2.12,2.12,0,0,0,.12-.2s0-.08,0-.1l0-.09a1,1,0,0,0,.06-.19c0-.11,0-.23.05-.33a2.44,2.44,0,0,0,0-.27.47.47,0,0,0,0-.12s0-.09,0-.13,0-.07,0-.11a.15.15,0,0,0,0-.07h0s0,0,0,0h0v0c0-.07,0-.13,0-.19a.28.28,0,0,0,0-.09v-.08a.76.76,0,0,0,0-.15s0-.09,0-.16,0-.23,0-.35v0a2.29,2.29,0,0,0-.13-.48,5.26,5.26,0,0,1-.33-.86c0-.06,0-.12,0-.18v-.07a1.21,1.21,0,0,1,0-.19.61.61,0,0,1,0-.14v-.06a0,0,0,0,1,0,0s0,0,0,0h0s0-.08,0-.11a.29.29,0,0,0,0-.09c0-.15.07-.3.11-.45a4,4,0,0,0,.1-.68,3.91,3.91,0,0,0-.21-1.53c0-.09-.09-.18-.15-.27s0,0,0,0a1,1,0,0,0-.45-.28.89.89,0,0,1-.25-.16c-.2-.22,0-.51,0-.77a1.55,1.55,0,0,0,0-.48,1,1,0,0,0,0-.18,1.06,1.06,0,0,0-.06-.19,3,3,0,0,0-.17-.37l-.13-.18a.75.75,0,0,0-.14-.17,1.07,1.07,0,0,0-.19-.18l-.22-.16-.25-.13-.18-.06-.09-.11a2.94,2.94,0,0,1-.24-.5c0-.1,0-.2,0-.32a1.26,1.26,0,0,0,0-.28,3.15,3.15,0,0,0-.62-1.16,4.22,4.22,0,0,0-.74-.72l-.12-.08-.13-.07a2.73,2.73,0,0,0-.52-.25,2.17,2.17,0,0,0-1.07-.09l-.18,0a1.32,1.32,0,0,1-.59,0c-.31-.05-.64-.18-1-.25l-.26,0a10.06,10.06,0,0,0-3,.12L117,10l-.28.06-.3.06-.31.06s0,0,0,0c-.38.09-.79.14-1.22.2a10.67,10.67,0,0,0-1.88.11c-.09,0-.14.14-.21.18h-.11a.63.63,0,0,0-.22,0h0l-.27-.07-.28-.08a1.38,1.38,0,0,0-.29-.08l-.31-.05a.44.44,0,0,0-.15,0l-.15,0-.21,0h-.65a2.6,2.6,0,0,0-.85.16,4.19,4.19,0,0,0-.93.49,4.81,4.81,0,0,0-.87.76,5.74,5.74,0,0,1-.52.74l0,0a2.49,2.49,0,0,1-.77.25,2,2,0,0,0-.5.23,1.73,1.73,0,0,0-.59.61l-.1.2c0,.07,0,.14-.07.22a.49.49,0,0,0,0,.11l0,.11s0,.06,0,.09,0,0,0,0v0h0c0,.11,0,.21-.08.32l-.06.31a7.16,7.16,0,0,0-.17,1.49,14.09,14.09,0,0,0,.17,2.16l.09.53.12.52c0,.18.1.34.15.51a.14.14,0,0,0,0,.06,0,0,0,0,0,0,0h0a0,0,0,0,1,0,0,.56.56,0,0,1,0,.12,1.73,1.73,0,0,1,.1.24c.09.24.19.47.29.71s.17.47.26.71h0a1.61,1.61,0,0,0-.1.36,3.39,3.39,0,0,0,0,.39c0,.22,0,.54.06.93,0,.15,0,.34,0,.51s0,.12-.06.19c-.18.47-.36.95-.51,1.43a6.21,6.21,0,0,0-.2.74,6.75,6.75,0,0,0-.14.76c0,.23,0,.46-.06.69v.31c0,.1,0,.2,0,.3a5.38,5.38,0,0,0,.33,1.48c.1.24.21.48.32.7s.11.18.16.27l.15.28a3.28,3.28,0,0,1,.25.58,2.62,2.62,0,0,1,.14.63,1.5,1.5,0,0,1,0,.22,5.78,5.78,0,0,1-.26,1.9.5.5,0,0,0,0,.13,2.05,2.05,0,0,0,.14,1.88l.23.37a1.74,1.74,0,0,1,.26,1.45c-.09.3-.19.58-.26.85a2.1,2.1,0,0,0-.06.33s0,0,0,.08h0v0a0,0,0,0,1,0,0c0,.06,0,.12,0,.18a1.93,1.93,0,0,0,0,.41,2.8,2.8,0,0,0,.36.91c.21.39.12.43.05.82a1.11,1.11,0,0,0,0,.19,3.37,3.37,0,0,0,.12.92c0,.17.07.32.11.47a4.24,4.24,0,0,1,.1.46,1.32,1.32,0,0,0,.1.3,2.44,2.44,0,0,0,.33.49l.07.08s0,0,0,0h0s0,0,0,0l0,0a2.64,2.64,0,0,1,.51.66.65.65,0,0,1,0,.13c0,.14,0,.28,0,.42s0,0,0,.06a2.46,2.46,0,0,1-.17.63c-.06.21-.14.4-.2.6a.08.08,0,0,1,0,0h0v0h0v0a2.17,2.17,0,0,0-.09.53,3.88,3.88,0,0,0,0,.82c0,.07,0,.15,0,.22s0,.08,0,.12a.35.35,0,0,0,0,.13l.06.18a.34.34,0,0,0-.08.09l-.06.09,0,.07a.31.31,0,0,0,0,.08.11.11,0,0,0,0,0s0,0,0,0,0,0,0,0h0s0-.06,0,0h0v0a.72.72,0,0,0-.07.25.24.24,0,0,0,0,.09,1.48,1.48,0,0,0,0,.3,1.12,1.12,0,0,0,.18.63.75.75,0,0,0,.07.12,2.3,2.3,0,0,0,.41.43l.37.29,0,0a2.32,2.32,0,0,1-.13.47c-.18,0-.39-.12-.55-.16a.94.94,0,0,1-.4-.18h0l0,0s0,0,0,0h0v-.08h0a1.57,1.57,0,0,1,0-.2h0s0,0,0,0h-.08s-.08.05-.14.12l-.1.12a.65.65,0,0,1-.12.11.37.37,0,0,1-.19.09h0l-.06,0c-.12-.08-.13-.36-.17-.53s0-.21-.08-.31a2.44,2.44,0,0,0-.17-.52.75.75,0,0,0-.4-.33l-.29-.07-.12,0a3.35,3.35,0,0,0-.53-.07s0-.06,0-.08c-.13-.2-.28-.4-.43-.61l-.44-.61h0a2,2,0,0,0,.28-.38.87.87,0,0,0,.14-.67s0,0,0-.07h0v-.06a1,1,0,0,0-.07-.15,1.53,1.53,0,0,0-.17-.27c-.1-.11-.2-.21-.31-.31l-.06-.05a1.62,1.62,0,0,1-.19-.17l-.16-.18a1.3,1.3,0,0,1-.24-.76v0c0-.31-.08-.78-.45-.9a.48.48,0,0,0-.18,0,.82.82,0,0,0-.26,0,1.68,1.68,0,0,0-.39.16.34.34,0,0,1-.21.06s0-.05,0-.07a.22.22,0,0,0-.05-.08,2.79,2.79,0,0,1,.15-.47.41.41,0,0,0,0-.15s0-.06,0-.1a.74.74,0,0,0-.13-.3.66.66,0,0,0-.4-.26l-.31,0h-.13l-.37-.59a.36.36,0,0,1,0-.1,3.51,3.51,0,0,0,.08-.42,1.22,1.22,0,0,0,0-.27,3.23,3.23,0,0,0-.06-.33,1.82,1.82,0,0,0-.11-.3,3.4,3.4,0,0,0-.27-.54,5.19,5.19,0,0,0-.53-.79,2,2,0,0,0-.18-.21c-.13-.14-.25-.26-.37-.37a4,4,0,0,0-.83-.55L98,40a1.28,1.28,0,0,1-.23-.14l-.38-.58,0-.08c0-.15-.1-.32-.14-.47s0,0,0-.06,0,0,0,0l0,0,0-.12c-.15-.45-.28-.89-.44-1.31-.08-.21-.16-.41-.26-.62s-.19-.41-.3-.61a5.84,5.84,0,0,0-.33-.53,4.33,4.33,0,0,0-.43-.53l0,0a12.14,12.14,0,0,0-1.25-1.23.63.63,0,0,1-.12-.1,5.08,5.08,0,0,1-.74-.64,1.57,1.57,0,0,1-.4-.86c0-.17,0-.36-.06-.54a2.89,2.89,0,0,0,0-.29c0-.09,0-.17,0-.27a1.77,1.77,0,0,0,0-.2s0-.06,0-.09v0h0a0,0,0,0,0,0,0h0s0,0,0,0v0a2.64,2.64,0,0,0-.12-.4,2.39,2.39,0,0,0-.4-.73,3.06,3.06,0,0,0-.76-.64,4.07,4.07,0,0,0-.53-.31,2.42,2.42,0,0,0-.45-.19,3.81,3.81,0,0,1-.79-.25c-.11-.15-.22-.29-.32-.44s-.07-.24-.11-.36-.09-.35-.15-.52c-.14-.49-.27-1-.44-1.44l-.12-.31c0-.1-.07-.2-.12-.3a6.06,6.06,0,0,0-.7-1.26,13.52,13.52,0,0,0-1.34-1.57c-.24-.24-.49-.47-.74-.69l-.19-.17-.09-.08-.11-.08-.41-.3-.32-.21-.32-.18-.32-.17-.33-.16-.39-.2c-.08-.09-.16-.19-.24-.27-.26-.3-.49-.55-.71-.77A4.74,4.74,0,0,1,82,18a10.44,10.44,0,0,0-.41-1.39,5.33,5.33,0,0,0-.68-1.32,3.94,3.94,0,0,0-.45-.56,4.48,4.48,0,0,0-.45-.41,3.39,3.39,0,0,0-1.44-.65,1.18,1.18,0,0,1-.21,0h-.2a2.42,2.42,0,0,0-.39,0,9.07,9.07,0,0,0-1.22.27l-.14,0h0l-.21-.07c-.29-.13-.56-.3-.84-.44a2.35,2.35,0,0,0-.78-.28h0l-.4-.3L74,12.74a1.8,1.8,0,0,0-.43-.29l-.11-.06-.11-.05-.22-.07H73l-.06,0a.68.68,0,0,1-.14,0h-.28l-.27,0-.28.09-.41.19a2.24,2.24,0,0,1-1.51.28c-.31-.07-.6-.14-.87-.18a2.37,2.37,0,0,0-.65,0,1.8,1.8,0,0,0-.38.07,2.87,2.87,0,0,0-.81.38c-.35.21-.42.13-.77.06a1.08,1.08,0,0,0-.19,0,7.26,7.26,0,0,0-1.89.41,1.1,1.1,0,0,0-.29.12c-.51.26-.67.77-1.17,1.1a1,1,0,0,1-.24.11l-.08,0a2.12,2.12,0,0,1-.9,0c-.21,0-.42-.09-.62-.1h-.09a2.65,2.65,0,0,0-.56,0,3.28,3.28,0,0,0-.78.19,5.28,5.28,0,0,0-1.3.7l-.34.32a2.94,2.94,0,0,0-.9,1.46,2.35,2.35,0,0,0,0,.37,1.22,1.22,0,0,0,0,.27c-.08.16-.17.33-.25.5a1.7,1.7,0,0,0-.09.39h0l-.46.22a1.85,1.85,0,0,0-.27.19,2.43,2.43,0,0,0-.78,1.34,5.82,5.82,0,0,0-.09,1.17v.32c0,.21,0,.42,0,.6s0,.19,0,.29,0,.19,0,.29a4.22,4.22,0,0,0,.09.59.4.4,0,0,0,.1.17.77.77,0,0,0,.12.13,1.27,1.27,0,0,0,.1.12.5.5,0,0,1,.1.28c0,.36-.72,1-.78,1.41,0,.1,0,.2,0,.3,0,1.12.26,2.11.16,3.06,0,.11,0,.21,0,.31s0,.25,0,.38a.06.06,0,0,0,0,.06h0s0,.08,0,.11a1.65,1.65,0,0,1,0,.21c0,.14,0,.28,0,.43s0,0,0,0a9.28,9.28,0,0,0,.24,2.18l0,.18a7.85,7.85,0,0,1,.26,1.12,2.33,2.33,0,0,1-.14,1.15c-.17.4-.37.78-.55,1.17a4.18,4.18,0,0,0-.51,1.92,4.92,4.92,0,0,0,.18,1.2,6.78,6.78,0,0,0,.23.68,5,5,0,0,0,.24.51,4.64,4.64,0,0,1,.51.86.15.15,0,0,1,0,.07,2,2,0,0,1-.18,1c-.06.2-.11.41-.18.62-.17.59-.34,1.17-.48,1.75-.06.25-.11.51-.15.77a9.13,9.13,0,0,0-.12,1.76,18.42,18.42,0,0,0,.26,2.49l.21,1.18c.07.39.15.78.24,1.16s.25,1,.38,1.48c0,.92,0,1.84,0,2.77a1.66,1.66,0,0,1-.06.21,18.28,18.28,0,0,0-.94,3.37,7.46,7.46,0,0,0-.1.81c0,.22,0,.45,0,.68a8.43,8.43,0,0,0,.17,1.72l.11.44c0,.14.08.27.13.41A8.15,8.15,0,0,1,55.23,66a4.53,4.53,0,0,1,.08.75,2.18,2.18,0,0,1,0,.25,7.55,7.55,0,0,1-.45,2.15l-.06.15a2.82,2.82,0,0,0-.06,2.19c.07.15.13.3.19.45a3.64,3.64,0,0,1,.22.83,2.12,2.12,0,0,1-.1.91,8.35,8.35,0,0,0-.3,1,2.88,2.88,0,0,0-.11.78,4.44,4.44,0,0,0,0,.5A3.87,3.87,0,0,0,55,77c.21.47.13.51.06,1a1.5,1.5,0,0,0,0,.22,2.53,2.53,0,0,0,0,.27,1.24,1.24,0,0,0,0,.27,4.69,4.69,0,0,0,.1.6.84.84,0,0,1,0,.17c0,.06,0,.12,0,.18s.07.25.1.32l.11.27a.21.21,0,0,0,0,.06h0a.13.13,0,0,0,0,0h0v0a0,0,0,0,0,0,0,1.16,1.16,0,0,0,.06.15c0,.07.07.13.1.19l.1.15a1,1,0,0,0,.16.18.64.64,0,0,0,.15.13l.15.11.16.09h0l0,0,.09.08,0,0s0,0,0,0,0,0,0,0h0v0a.27.27,0,0,1,.07.08,1.12,1.12,0,0,1,.24.4s0,0,0,.08a.78.78,0,0,0,0,.16c0,.13,0,.28,0,.45a.76.76,0,0,0,0,.15,4.18,4.18,0,0,1-.2.56l-.14.35a3.59,3.59,0,0,0-.12.35.61.61,0,0,1,0,.11c0,.1,0,.23-.06.34l0,.32V85h0a0,0,0,0,1,0,0h0v.12c0,.07,0,.15,0,.23s0,.31,0,.47a5.34,5.34,0,0,0,.61,1.71,3.64,3.64,0,0,0,.36.49c0,.05.07.08.1.13a.76.76,0,0,0,.09.09l.18.15,0,0s0,0,0,0h0l0,0h0l.1.08.2.14a4,4,0,0,0,.85.44h0a.77.77,0,0,0,0,.15,2,2,0,0,0,0,.26,2.35,2.35,0,0,0,.1.22,3.88,3.88,0,0,0,.8,1.06,3.71,3.71,0,0,0,.3.28,5.24,5.24,0,0,0,1.51.86,5.36,5.36,0,0,0,1.38.27,2.25,2.25,0,0,1,.26,0h.27l.2,0h.17l.18-.05.18,0,.16,0a6.13,6.13,0,0,0,1-.5l.24-.16.25-.17a3.3,3.3,0,0,1,.32-.18l.06,0L68.08,91a3.08,3.08,0,0,0,.31.24,4.85,4.85,0,0,0,.73.35c.24.1.49.16.73.24l.16.06.65.2a4.85,4.85,0,0,0,.68.19,5,5,0,0,0,1.53.15l.21,0,.21,0,.21,0,0,0h.09s0,0,0,0h0l.08,0s0,0,0,0l.21-.1a1.56,1.56,0,0,0,.28-.16,3.22,3.22,0,0,0,.38-.33,4.09,4.09,0,0,1,.33-.28l.14-.09.06,0,.14-.06a2,2,0,0,1,.41-.08,2.35,2.35,0,0,1,.38,0l.13,0a.16.16,0,0,1,.07,0h.4l.35-.06.21-.06.21-.06.22-.09.21-.11a2.82,2.82,0,0,0,.39-.29,1.48,1.48,0,0,0,.22-.29.09.09,0,0,0,0-.06.27.27,0,0,0,0-.13.34.34,0,0,0,0-.14,2.4,2.4,0,0,0,0-.28,1.38,1.38,0,0,1,0-.28.38.38,0,0,1,.22-.3c.11-.07.24-.1.34-.17a3,3,0,0,0,.35-.27l.23-.27c.07-.13.14-.24.19-.36a.39.39,0,0,0,0-.06,0,0,0,0,0,0,0,.43.43,0,0,0,0,0l0-.07a.45.45,0,0,1,0-.16,1.72,1.72,0,0,0-.07-1,1.47,1.47,0,0,0-.11-.22l-.14-.19,0,0a2,2,0,0,0-.58-.36l0,0c0-.14,0-.3,0-.45l.16-.08a1.75,1.75,0,0,0,.41-.33,2.67,2.67,0,0,0,.31-.48,1.81,1.81,0,0,0,.15-.62c0-.09,0-.17,0-.25v-.16h0v-.08a1.59,1.59,0,0,0-.06-.28L80,83a.11.11,0,0,0,0-.06,1,1,0,0,0,0-.12,3.16,3.16,0,0,0-.47-.73l-.29-.38a2.61,2.61,0,0,1-.24-.3l-.05-.06a.16.16,0,0,0,0-.06.08.08,0,0,0,0-.05s0,0,0,0a0,0,0,0,1,0,0v0h0v0a1.81,1.81,0,0,0,0-.23.65.65,0,0,1,0-.19.19.19,0,0,0,0-.08s0-.06,0-.09c0-.43,0-.92,0-1.47,0-.1,0-.19,0-.3s0-.22,0-.33a2,2,0,0,1,0-.24,6.25,6.25,0,0,0-.17-.72A9,9,0,0,0,78,76.19a5.31,5.31,0,0,0-.34-.6l0,0q-.1-1.17-.24-2.58s0,0,0-.08A6.05,6.05,0,0,0,77.81,71c0-.07,0-.14,0-.21l.06-.84c0-.28,0-.56,0-.84s0-.27,0-.4,0-.28,0-.41a1.47,1.47,0,0,0,0-.21v-.22c0-.14,0-.29,0-.43,0-.29,0-.58-.08-.87v0a3.19,3.19,0,0,0-.16-.55c-.12-.32-.28-.63-.37-1a1.23,1.23,0,0,1,0-.19.19.19,0,0,1,0-.08c0-.07,0-.13,0-.2a6.39,6.39,0,0,1,.13-1.06,5.16,5.16,0,0,0,.08-.79,8,8,0,0,0,0-.84v-.12h0s0,0,0,0h0v0c0-.07,0-.15,0-.22a2.47,2.47,0,0,0-.09-.41,2.08,2.08,0,0,0-.13-.3l0-.07a1.43,1.43,0,0,0-.42-.35.77.77,0,0,1-.22-.22c-.17-.28.06-.55.14-.81a5,5,0,0,0,.11-.5c0-.12,0-.25,0-.38a3.57,3.57,0,0,0,0-.8,4.66,4.66,0,0,0-.23-.89,2.27,2.27,0,0,0-.23-.5,0,0,0,0,0,0,0,2.09,2.09,0,0,0-.5-.48l-.06-.7a1.46,1.46,0,0,0,.42-.52,3.84,3.84,0,0,0,.24-.85c0-.1,0-.2,0-.27a4.8,4.8,0,0,0,0-1.07,6.11,6.11,0,0,0-.09-.86c0-.11,0-.21-.05-.32l0-.13a2.58,2.58,0,0,0-.12-.42,1.88,1.88,0,0,0-.16-.39l-.22-.38,0,0h0s0,0,0,0l-.08-.09a1.43,1.43,0,0,1-.15-.18,1.77,1.77,0,0,1-.16-.22,1.22,1.22,0,0,1-.07-.17c0-.13,0-.27,0-.39l0-.39a.32.32,0,0,1,.12-.14,4.45,4.45,0,0,0,.44-.22,2.2,2.2,0,0,0,.48-.43,1.82,1.82,0,0,0,.15-.23.88.88,0,0,0,.16.2l.27.25c.11.09.22.19.34.27h0a.83.83,0,0,0,.29.11,3.39,3.39,0,0,1,.59.18l.09.07,0,0a.28.28,0,0,1,.06.09,1.42,1.42,0,0,1,.19.57,1.87,1.87,0,0,0,.13.42,3.72,3.72,0,0,0,.21.39,1.26,1.26,0,0,0,.34.35.66.66,0,0,0,.19.09l0,0a1.15,1.15,0,0,0,.44,0,.5.5,0,0,1,.24,0c.22,0,.1.31.1.47a.86.86,0,0,0,0,.16V51a0,0,0,0,1,0,0v0h0c0,.08,0,.15,0,.22a1.63,1.63,0,0,0,.24.4c0,.06.12.12.19.19a2.07,2.07,0,0,0,.24.17,1.71,1.71,0,0,0,.34.13h0a1.19,1.19,0,0,0,.38,0c.14.21.28.43.42.67,0,.2-.07.39-.12.62a1.92,1.92,0,0,0,0,.24,3.32,3.32,0,0,0,.31,1,6.76,6.76,0,0,0,.36.71s0,.07.06.11a.93.93,0,0,1,0,.1c.09.13.17.24.26.35a2.06,2.06,0,0,0,.3.29,1.51,1.51,0,0,0,.37.25l.15.07a.86.86,0,0,1,.35.33,4.06,4.06,0,0,1,.27.79.86.86,0,0,0,.07.21c.14.38.29.75.44,1.1,0,.09.08.18.13.26s.07.17.11.26a1.83,1.83,0,0,1,.13.24.21.21,0,0,0,0,.06h0s0,0,0,0h0s0,0,0,0a.54.54,0,0,0,.07.13.41.41,0,0,0,.07.11.51.51,0,0,0,0,.1.87.87,0,0,0,.11.18,4.22,4.22,0,0,0,.31.47h0A4.21,4.21,0,0,0,87.17,62l.13.07h0a0,0,0,0,1,0,0l0,0,.11.05.19.08a2.12,2.12,0,0,1,.35.23,1.05,1.05,0,0,1,.39.71c0,.32,0,.64,0,1a3.34,3.34,0,0,0,.08.7,3.19,3.19,0,0,0,.11.33,1.53,1.53,0,0,0,.16.31,1.74,1.74,0,0,0,.26.3,3.24,3.24,0,0,0,.34.29,4.3,4.3,0,0,0,.45.29,3.49,3.49,0,0,0,.39.19,2.68,2.68,0,0,1,.75.27s0,0,0,0a1.28,1.28,0,0,1,.2.65l.06.47.12.65c0,.22.11.43.17.64s.07.19.1.28.06.17.09.25.17.36.26.55.2.34.33.52a9.69,9.69,0,0,0,1.17,1.31,10,10,0,0,0,1.36,1.09c.19.12.37.24.55.34l.56.3.07.05,0,0h0c.32.43.64.86,1,1.27,0,.08,0,.15.05.23.07.42.12.84.2,1.24,0,.21.1.41.15.61a3.89,3.89,0,0,0,.22.6,5.28,5.28,0,0,0,.27.53l.06.1a.09.09,0,0,1,0,0l0,0,0,0a1.33,1.33,0,0,1,.14.19,5.77,5.77,0,0,0,.42.44,2.31,2.31,0,0,0,.24.2,2.4,2.4,0,0,0,.26.18,3.28,3.28,0,0,0,.58.31c.16.08.33.14.48.23a3.42,3.42,0,0,1,.46.26,1.9,1.9,0,0,1,.39.36l.1.15a4.24,4.24,0,0,1,.61,1.47l0,.12a1.44,1.44,0,0,0,.95,1.24l.35.11a1.3,1.3,0,0,1,.9.84c.08.27.13.51.22.74a2.15,2.15,0,0,0,.27.49l.23.24a2.34,2.34,0,0,0,.74.37.61.61,0,0,1,.21.08l.06,0,0,0s0,0,0,0h0s0,0,0,0a0,0,0,0,1,0,0,.49.49,0,0,1,.08.13l.15.21.08.08a.46.46,0,0,0,.07.07,1.74,1.74,0,0,0,.38.27,3.71,3.71,0,0,0,.46.19c.32.11.64.17.91.24l.31,0a1.12,1.12,0,0,0,.37-.09,2.53,2.53,0,0,0,.33-.16l.32-.19.36-.16a.77.77,0,0,1,.26,0l.13,0,.13,0a2,2,0,0,1,.51.24,3.6,3.6,0,0,0,.52.26l.07,0a1.66,1.66,0,0,0,.5.12,3.41,3.41,0,0,0,.71,0,4.18,4.18,0,0,0,.61-.15,3,3,0,0,0,.58-.24l.32-.21a3.22,3.22,0,0,0,1-1c0-.08.11-.18.17-.26s.1-.19.14-.29.16-.09.24-.12a.59.59,0,0,0,.17-.1.67.67,0,0,1,.27-.13c.12,0,.22.11.34.1h.26l.18.12a3.79,3.79,0,0,0,.36.22.94.94,0,0,0,.23.1,3.34,3.34,0,0,0,1.17,0,5.4,5.4,0,0,0,.88-.15,1,1,0,0,0,.25-.07,3.1,3.1,0,0,0,.46-.15,3.24,3.24,0,0,0,.8-.46l.13-.11a.93.93,0,0,1,.49-.21,4.13,4.13,0,0,1,.91.06h.25q.33,0,.66,0h1a3.62,3.62,0,0,0,.43-.14,3.37,3.37,0,0,0,.38-.19,2.35,2.35,0,0,0,.32-.23,3,3,0,0,0,.5-.5,3.69,3.69,0,0,0,.38-.62s0,0,0,0a4.36,4.36,0,0,0,.37-1.74.71.71,0,0,1,0-.15,2.13,2.13,0,0,1,.28-1.71c.21-.27.46-.52.68-.8a2.75,2.75,0,0,0,.7-1.35,2.71,2.71,0,0,0,0-.93,3.17,3.17,0,0,0-.15-.55,2,2,0,0,0-.18-.42,3.42,3.42,0,0,1-.42-.7s0,0,0,0a1.2,1.2,0,0,1,.25-.71l.21-.45a13.47,13.47,0,0,0,.55-1.31c.07-.18.13-.38.18-.56a4.84,4.84,0,0,0,.19-1.32,12,12,0,0,0-.13-1.9,15.38,15.38,0,0,0-.38-1.79c-.13-.44-.26-.86-.4-1.28l-.12-.38V65.1c0-.2,0-.56,0-1.06a4,4,0,0,1,.19-.51l.27-.63c.07-.2.15-.42.21-.63A8.08,8.08,0,0,0,129,61c0-.2.05-.4.07-.61a4.34,4.34,0,0,0,0-.51,4.17,4.17,0,0,0-.22-1.3,5.85,5.85,0,0,0-.23-.63,4.75,4.75,0,0,1-.4-1,2.09,2.09,0,0,1,0-.56,1.38,1.38,0,0,1,0-.2,4.55,4.55,0,0,1,.56-1.61l.06-.1a1.66,1.66,0,0,0,.18-1.66l-.16-.35a1.41,1.41,0,0,1,0-1.31c.13-.26.27-.49.37-.73a2,2,0,0,0,.17-.56,2.17,2.17,0,0,0,0-.36A2.39,2.39,0,0,0,129.12,48.59ZM78.79,81.17h0ZM76.76,47l0,.06a.28.28,0,0,1-.14.1l0,0h-.06s0,0,0,0,.11-.16.16-.25h0v0h0v0l0,0,0-.06,0,0h0l0,0s0,0,0,0S76.76,47,76.76,47Z"/></clipPath><clipPath id="clip-path-3"><path class="cls-1" d="M63.13,38.47a2.42,2.42,0,0,1,0-.25,2.46,2.46,0,0,1,.16-.48c.07-.18.15-.36.21-.53l0-.07a3.7,3.7,0,0,0,.08-.48,3.65,3.65,0,0,0,0-.66,4.31,4.31,0,0,0-.32-1.13l-.17-.33a4.68,4.68,0,0,0-.84-1.13c-.08-.07-.15-.15-.23-.23a5.3,5.3,0,0,0-.52-.42l0,0A7.82,7.82,0,0,0,61,31.58s0-.1,0-.16a1.77,1.77,0,0,0,.05-.32,1.88,1.88,0,0,0,0-.41c0-.12,0-.23,0-.36s0-.47,0-.71,0-.38,0-.58a1,1,0,0,0,0-.17.19.19,0,0,1,0-.08s0-.05,0-.07,0-.09,0-.14a.15.15,0,0,1,0-.07s0,0,0,0h0a0,0,0,0,0,0,0v0c-.05-.11-.09-.22-.13-.32s-.19-.4-.29-.58a4.59,4.59,0,0,0-.78-.93,1.07,1.07,0,0,0-.16-.14,1.38,1.38,0,0,1-.4-.57,2.49,2.49,0,0,1-.16-.55c0-.2-.08-.4-.11-.59a2.63,2.63,0,0,0-.08-.3c-.05-.14-.09-.28-.14-.41l-.15-.41c-.1-.27-.24-.53-.36-.79a7.35,7.35,0,0,0-.94-1.45,6.19,6.19,0,0,0-.55-.59.46.46,0,0,1-.07-.07h0l0,0s0,0,0,0l-.17-.13-.37-.28h0a8.31,8.31,0,0,0-2-1.06l-.18-.08a8.64,8.64,0,0,1-.85-.31c-.48-.51-1-1-1.45-1.53l-.26-.54a3.77,3.77,0,0,0-1.31-1.58,3.06,3.06,0,0,0-.54-.31,6,6,0,0,0-.64-.22,4,4,0,0,0-.74-.17c-.22,0-.42-.07-.59-.08s-.35,0-.53,0h-.26l-.06,0a.36.36,0,0,0-.21,0h0a.89.89,0,0,1-.38-.21l-.39-.3L45,13.4a12.94,12.94,0,0,0-1.63-1,7.27,7.27,0,0,0-.76-.33,7.89,7.89,0,0,0-1.8-.42,15.37,15.37,0,0,0-2.62-.05,18.27,18.27,0,0,0-2.48.28c-.62.12-1.19.24-1.76.41l-.48.13a.89.89,0,0,0-.28,0l-1,.12-.33,0h-.17l-.2,0-.42-.09-.43-.09-.44-.07c-.29-.05-.59-.09-.89-.12a14,14,0,0,0-1.83,0,8.2,8.2,0,0,0-.83.07c-.23,0-.47.07-.69.12a6.86,6.86,0,0,0-1.71.56,6.66,6.66,0,0,0-.8.43,10.42,10.42,0,0,1-1.33.8,4.27,4.27,0,0,1-.77.31,1.09,1.09,0,0,1-.26,0,9.67,9.67,0,0,1-2.28.07l-.15,0a3.86,3.86,0,0,0-1.18.06,2.66,2.66,0,0,0-1,.54l-.1.09,0,0h0s0,0,0,0l-.05,0-.2.18-.35.29-.38.25a2.46,2.46,0,0,1-.91.34c-.38.08-.73.14-1.07.23a3.7,3.7,0,0,0-.77.34,2,2,0,0,0-.42.29,3.45,3.45,0,0,0-.42.44,3.82,3.82,0,0,0-.33.49c-.28.46-.38.4-.8.61a1.37,1.37,0,0,0-.2.13,2.6,2.6,0,0,0-.45.37,4.2,4.2,0,0,0-.41.44c-.07.08-.14.15-.19.22l-.2.24a4.32,4.32,0,0,1-.34.39l-.21.28c-.34.54-.26,1.11-.61,1.72a2.3,2.3,0,0,1-1.23.83l-.37.14L6,23.56l-.09.05a3.62,3.62,0,0,0-.58.41l-.18.18L5,24.38l-.17.22s-.06.08-.07.11l-.08.09L4.56,25s0,0,0,0l0,0a.08.08,0,0,1,0,0h0a.47.47,0,0,1,0,.1l-.2.4a1.8,1.8,0,0,0-.08.21.62.62,0,0,0-.07.19,3.84,3.84,0,0,0-.14.4.61.61,0,0,0,0,.13.53.53,0,0,0,0,.12c0,.07,0,.14-.05.21s-.06.31-.1.46l-.09.46c0,.27-.09.56-.12.87l0,.29a3.46,3.46,0,0,1-.58,1.13l-.25.12a1.32,1.32,0,0,0-.25.16,4.75,4.75,0,0,0-.95.95,5.45,5.45,0,0,0-.58.84c-.05.09-.09.2-.13.29A2,2,0,0,0,.6,33a.38.38,0,0,0,0,.15.66.66,0,0,0,0,.14,1.72,1.72,0,0,0,.05.26,3.52,3.52,0,0,0,.19.51,1.3,1.3,0,0,1,.08.17,1.22,1.22,0,0,1,.11.34c0,.11-.06.23-.08.33a1.67,1.67,0,0,0,0,.37s0,0,0,0-.12.33-.17.5a2.58,2.58,0,0,0-.08.26c0,.12-.06.24-.1.35a3,3,0,0,1-.11.32l-.14.32-.14.36a3.64,3.64,0,0,0-.11.39c0,.13,0,.28-.07.43s0,.51,0,.78a2.16,2.16,0,0,0,0,.35c0,.11,0,.22.05.34s.05.25.09.37.07.24.11.36v0a9.33,9.33,0,0,0,.82,1.71l.07.15a3.33,3.33,0,0,1,.24.46,3.9,3.9,0,0,1,.17.48,1.58,1.58,0,0,1-.08,1,4.41,4.41,0,0,1-.24.54,2.24,2.24,0,0,1-.13.27c0,.1-.07.19-.1.29a1.43,1.43,0,0,0-.08.22.36.36,0,0,0,0,.11l0,.11a4.1,4.1,0,0,0-.06.49.45.45,0,0,0,0,.11.41.41,0,0,0,0,.11,1.48,1.48,0,0,0,0,.21,2.14,2.14,0,0,0,.07.43,3.63,3.63,0,0,0,.16.46,3.69,3.69,0,0,0,.24.49,6.26,6.26,0,0,0,.34.55,3.48,3.48,0,0,0,.31.4,3.86,3.86,0,0,1,.64.7l0,.06a1.57,1.57,0,0,1-.09.85,5.66,5.66,0,0,0-.13.56,9.06,9.06,0,0,0-.12,1.64l0,.69A11.88,11.88,0,0,0,2.53,55c.08.33.15.65.2.94,0,.08,0,.16,0,.23a.45.45,0,0,1,0,.11s0,.08,0,.11,0,.08,0,.11v.06a.17.17,0,0,1,0,.07c0,.1,0,.19,0,.29a4.89,4.89,0,0,0,.05.55c0,.19,0,.37.08.55s0,.18,0,.27,0,.18.07.26.1.35.16.52.19.5.29.73a7.37,7.37,0,0,0,.34.69q.11.21.21.39a2.54,2.54,0,0,1,.24.62,3.54,3.54,0,0,1,0,1.34,17.68,17.68,0,0,0-.12,3.08c0,.23,0,.45.06.68s.06.38.08.56a6.58,6.58,0,0,0,.43,1.47,5,5,0,0,0,.36.69,9.58,9.58,0,0,1,.59,1.15,2.88,2.88,0,0,1,.17.64,1.77,1.77,0,0,1,0,.23,6.43,6.43,0,0,1-.27,2,.69.69,0,0,1,0,.13,2.07,2.07,0,0,0,.2,1.94c.09.12.17.23.25.36a1.67,1.67,0,0,1,.35,1.48c0,.16-.07.32-.11.47a2.88,2.88,0,0,0-.11.42,2.5,2.5,0,0,0-.07.67,1.49,1.49,0,0,0,.06.4,3.32,3.32,0,0,0,.4.88c.23.38.13.43.06.82a1.23,1.23,0,0,0,0,.19,3.37,3.37,0,0,0,.13,1c.09.34.19.67.25,1a1.85,1.85,0,0,0,.11.31c.27.52.8.72,1.12,1.25a1.42,1.42,0,0,1,0,1.27c-.07.22-.16.41-.23.6a.24.24,0,0,1,0,.08,1,1,0,0,0-.06.26,2,2,0,0,0,0,.28,2.34,2.34,0,0,0,0,.46,2,2,0,0,0,0,.24c0,.07,0,.14,0,.22a5.31,5.31,0,0,0,.21.7c.08.21.17.43.26.62s.14.26.2.37A8.63,8.63,0,0,0,9.38,91a1,1,0,0,1,.14.2l0,.08.06.12a5.15,5.15,0,0,0,0,.55c-.1.23-.22.47-.31.74a2.53,2.53,0,0,0-.14.51,1.27,1.27,0,0,0,0,.28,1.22,1.22,0,0,0,0,.32c0,.1.06.21.1.31l.12.23,0,0h0l0,0a.59.59,0,0,0,0,.08l.1.14a1.36,1.36,0,0,0,.24.24,2.69,2.69,0,0,0,.27.2l.3.16a4,4,0,0,0,1.28.31h.37s0,0,0,0h.14a.43.43,0,0,1,.22,0,.85.85,0,0,1,.21.14.73.73,0,0,0,.2.14l.19,0s0,0,0,0h0l.09,0,.08,0,.09,0a1.13,1.13,0,0,1,.3.27,1.33,1.33,0,0,1,.18.31,3.83,3.83,0,0,0,.34.67,1.49,1.49,0,0,0,.12.14l.06.08.06.06a1.59,1.59,0,0,0,.2.24,2.86,2.86,0,0,0,.41.36,3.61,3.61,0,0,0,.56.31,7,7,0,0,0,1.34.44l.37.07.17,0H18a2.21,2.21,0,0,0,.37,0,3.4,3.4,0,0,0,1.25-.53l.63-.41c.41.06.83.1,1.27.13l.26,0a6.22,6.22,0,0,0,1.07.49,2.78,2.78,0,0,0,.5.11,5.6,5.6,0,0,0,1.53,0l.49-.07a.91.91,0,0,0,.23,0l.2-.06.19-.07a2.68,2.68,0,0,0,.95-.63,1.29,1.29,0,0,0,.19-.21l.16-.17.14-.18.12-.16.39-.53a.36.36,0,0,1,.08-.09l0,0s0,0,0,0,0,0,.05,0,0,0,0,0h.33l.5,0,.36,0c.16,0,.32,0,.47-.06a3.53,3.53,0,0,0,.85-.27,2.52,2.52,0,0,0,.73-.51,2.1,2.1,0,0,0,.26-.33l.21-.38s0-.08,0-.12a1.54,1.54,0,0,0,.11-.3.58.58,0,0,0,0-.14.13.13,0,0,0,0-.07.08.08,0,0,0,0,0s0,0,0,0l0-.14s0-.07,0-.11,0-.21.05-.3,0,0,0,0l0,0a.36.36,0,0,1,0-.09.26.26,0,0,1,0-.09l.06-.12a.62.62,0,0,0,.11-.17.67.67,0,0,0,.1-.21c0-.07.07-.15.11-.24a1.17,1.17,0,0,0,.07-.25,1.56,1.56,0,0,0,0-.48.85.85,0,0,0,0-.23v0a2.33,2.33,0,0,0,.11-.28c0-.11,0-.21.08-.32a2,2,0,0,0-.07-.83s-.07-.1-.14-.16l.18-.16a.94.94,0,0,0,.32-.78,2.48,2.48,0,0,0,0-.27l-.07-.23a1.91,1.91,0,0,0-.24-.42,2.3,2.3,0,0,0-.2-.22.85.85,0,0,0-.19-.14,3,3,0,0,0-.47-.22l-.11,0a1.63,1.63,0,0,1,.11-.23,1.13,1.13,0,0,1,.31-.38l.18-.12s0,0,0,0a.13.13,0,0,1,0,0l0-.12a.49.49,0,0,0,0-.12.78.78,0,0,0,0-.26,1.33,1.33,0,0,0-.22-.37c-.16-.21-.39-.44-.61-.69s-.35-.41-.49-.6a.75.75,0,0,1-.07-.12c-.05-.24-.1-.48-.14-.72a1.5,1.5,0,0,1,.11-.22,5.25,5.25,0,0,0,.28-.51,2.2,2.2,0,0,0,.18-.48,1.3,1.3,0,0,0-.09-.86,4.57,4.57,0,0,0-1.14-1.5l-.06,0c-.2-.9-.39-1.8-.59-2.7a1.71,1.71,0,0,1,.11-.14l.19-.34a3.83,3.83,0,0,0,.34-1c0-.21.06-.44.08-.64a10.62,10.62,0,0,0-.05-1.78c0-.22,0-.43-.07-.64a2,2,0,0,0-.05-.24A6.74,6.74,0,0,0,30,71.41c-.08-.22-.17-.44-.26-.65a9.2,9.2,0,0,0-.4-.84,4,4,0,0,0-.22-.34,1.38,1.38,0,0,0-.33-.3.94.94,0,0,0,.14-.19l.14,0a2.57,2.57,0,0,0,.62,0,2.28,2.28,0,0,0,.41-.11,2.15,2.15,0,0,0,.27-.1l.26-.11.44-.18a1.47,1.47,0,0,1,1,0,1,1,0,0,0,.21.09,4.52,4.52,0,0,0,.47.18,3.79,3.79,0,0,0,.48.14,3.87,3.87,0,0,0,.49,0H34l.23,0,.19,0,.3-.09.28-.11.25-.12h0l.07,0,.06,0h0l0,0,.09,0,.1-.06.1,0a.87.87,0,0,0,.18-.11l.17-.1.18-.11.09-.08,0,0h0s0,0,0,0h0s0,0,0,0a1.15,1.15,0,0,0,.14-.17.41.41,0,0,0,.07-.11.4.4,0,0,0,.07-.13,2.21,2.21,0,0,0,.12-.27,1.34,1.34,0,0,1,.18-.36l.41,0,0,0a3.28,3.28,0,0,0,.42.48,1.36,1.36,0,0,0,1.13.24,2.4,2.4,0,0,0,.38-.12c.39-.15.55-.49.77-.79a1.37,1.37,0,0,1,.26-.28l0,0a.45.45,0,0,1,.12-.06,3,3,0,0,1,.87.07c.17,0,.34,0,.51,0H43l.17,0,.08,0h.07l.06,0h0l0,0,.26-.1a4.38,4.38,0,0,0,.43-.24l.13-.09a4.33,4.33,0,0,0,.65-.54.94.94,0,0,0,.1-.1s.1-.06.14-.11l.15-.1a1.67,1.67,0,0,1,.16-.12l.32-.22c.21-.17.4-.33.58-.5l.23-.21.15-.17,0,0h0l0,0,.09-.11a.51.51,0,0,0,.09-.22s0-.07,0-.1l.25-.16.2-.12a1.68,1.68,0,0,0,.5.07,2.9,2.9,0,0,0,.56-.08l.26,0a11.36,11.36,0,0,0,1.66-.49l.44-.26A2,2,0,0,0,51.75,61c.06-.17.11-.34.16-.51l0-.09a1.83,1.83,0,0,1,.14-.32,1,1,0,0,1,.19-.27,1.26,1.26,0,0,1,.2-.2,1.14,1.14,0,0,1,.23-.15.75.75,0,0,1,.13-.06H53l.31,0h.05l.39-.07a2.8,2.8,0,0,0,.41-.13,1.22,1.22,0,0,0,.64-.51.77.77,0,0,0,.1-.23.86.86,0,0,0,0-.32,1,1,0,0,0-.11-.34l.51-.45h.23a.6.6,0,0,0,.2,0l.13-.07a1.27,1.27,0,0,0,.43-.33,1.23,1.23,0,0,0,.28-.68l-.06-.38s0-.07,0-.11a4.1,4.1,0,0,1,.59-.32A8.48,8.48,0,0,0,59.33,54a4.79,4.79,0,0,0,.43-.47,4,4,0,0,0,.29-.43,4.3,4.3,0,0,0,.28-.57c.07-.21.13-.39.19-.6s.09-.43.12-.65a7.85,7.85,0,0,1,.18-1.08,1.8,1.8,0,0,1,.22-.49.91.91,0,0,1,.11-.16,4.73,4.73,0,0,1,.58-.6c.09-.09.2-.18.31-.27l.18-.14.17-.15.11-.08a1.77,1.77,0,0,0,.56-.73,1.43,1.43,0,0,0,.1-.42,1.8,1.8,0,0,0-.06-.45c0-.13-.07-.25-.1-.36l-.06-.32a1.5,1.5,0,0,1,0-.3.89.89,0,0,1,.31-.56l.14-.13.15-.14a3.76,3.76,0,0,0,.28-.29,1.84,1.84,0,0,0,.33-.52,1.26,1.26,0,0,0,.1-.36,1.42,1.42,0,0,0,0-.46,3,3,0,0,0-.09-.45.93.93,0,0,1,0-.41c0-.1.11-.19.18-.37l.06-.18a1.66,1.66,0,0,0,0-.22,1.93,1.93,0,0,0,0-.24,2.73,2.73,0,0,0-.06-.49c0-.16-.07-.33-.11-.47a3.82,3.82,0,0,1-.11-.38.83.83,0,0,0-.08-.24,1.56,1.56,0,0,0-.22-.23l-.23-.19a.68.68,0,0,1-.12-.12.33.33,0,0,1-.12-.14.92.92,0,0,1-.18-.32.65.65,0,0,1,0-.13.51.51,0,0,0,0-.13A.57.57,0,0,0,63.13,38.47ZM26.06,49.32a3.75,3.75,0,0,0-.47,0H24.45a2,2,0,0,0-.28,0,.59.59,0,0,1,.07-.23,1.59,1.59,0,0,0,.07-.2,3.37,3.37,0,0,0,.09-1c0-.27,0-.54,0-.82a2,2,0,0,0,0-.26,1.65,1.65,0,0,0-.11-.45,2.8,2.8,0,0,0-.42-.8l-.1-.13a.71.71,0,0,1-.15-.49,3.11,3.11,0,0,1,.22-.86,1.55,1.55,0,0,0,.07-.23c.05-.21.09-.43.13-.64s.06-.42.08-.63a8.05,8.05,0,0,0,.07-1.2,2.65,2.65,0,0,1,0-.27v-.25a3.13,3.13,0,0,0-.14-.66v0c-.18-.58-.33-.5-.41-.74a1,1,0,0,1,0-.19.84.84,0,0,1,0-.24.89.89,0,0,0,0-.15,1.14,1.14,0,0,0,0-.25,1.62,1.62,0,0,1,0-.22,3.27,3.27,0,0,1,0-.44c0-.13.08-.27.11-.39a4.25,4.25,0,0,1,.18-.4,1.28,1.28,0,0,1,.27-.38.71.71,0,0,1,.39-.17.38.38,0,0,1,.15,0l.19-.08a2.38,2.38,0,0,0,.39-.2,2.36,2.36,0,0,0,.62-.6,2.58,2.58,0,0,0,.33-.83,3.92,3.92,0,0,0,.06-.4.71.71,0,0,1,.17-.35,6,6,0,0,1,.39-.72l0,0a.64.64,0,0,1,.28-.16c.12,0,.25-.07.36-.12l.48-.2.42-.15.2,0h.18a.66.66,0,0,1,.21,0l.09,0,.09,0a2.3,2.3,0,0,0,.5.11l.16,0a4.23,4.23,0,0,0,.73,0l.21,0,.17,0,.29,0a2.66,2.66,0,0,1,.68-.05l.38.05.48.09a5.62,5.62,0,0,0,1,.1,4.55,4.55,0,0,0,.52,0l.46-.08a1.67,1.67,0,0,1,.32,0l.36.06.67.17.41.11a2.14,2.14,0,0,1,.48.23,5.07,5.07,0,0,0,.45.65l.16.12c0,.09.1.18.14.28.15.42.33.84.44,1.25s.15.8.22,1.21c0,.19.07.38.11.58s.09.31.14.47a3.59,3.59,0,0,0,.64,1.18,3.63,3.63,0,0,0,.46.49,2.43,2.43,0,0,1,.54.69h0a2.74,2.74,0,0,0,0,.28c-.06.39-.1.76-.14,1.14a6.41,6.41,0,0,1-.81,1l-.09.11c-.45.41-.71.67-.73,1.23,0,.12,0,.23,0,.34a1.12,1.12,0,0,1-.73,1c-.25.08-.48.14-.7.23l-.24.11a1.05,1.05,0,0,0-.21.12,1.37,1.37,0,0,0-.23.19,2.34,2.34,0,0,0-.37.64c-.2.31-.27.24-.58.3a.53.53,0,0,0-.16,0,15.22,15.22,0,0,0-1.53.88.88.88,0,0,0-.23.14,2.18,2.18,0,0,0-.44.56,1.9,1.9,0,0,1-.51.56,1.33,1.33,0,0,1-1.24,0c-.2-.08-.39-.18-.56-.26l-.08,0a2.64,2.64,0,0,0-.47-.17l-.62-.15-.27,0-.28,0a4.21,4.21,0,0,0-.72,0,3.55,3.55,0,0,0-.47.06,3,3,0,0,0-.87.27,3.19,3.19,0,0,0-.64.39l-.23.2-.06,0ZM46.73,63.81Z"/></clipPath><clipPath id="clip-path-4"><path class="cls-1" d="M292.61,40.18a4.55,4.55,0,0,0-1-6,8.46,8.46,0,0,0-.42-1.26,9.12,9.12,0,0,0,.23-3.13v0c-.15-1.14-1.08-1.87-1.55-2.83a9.67,9.67,0,0,0-2.06-5.52h0a5.49,5.49,0,0,0-.55-.53,0,0,0,0,0,0,0c-5-2.13-3.89-6.74-9.19-7-3.74-4.45-9.46-3.49-14.54-3.37h0c-3.68-1.53-7.39-.91-10.85.79-1.77.34-3.67-.93-5.21.31h0c-1.2,1.25-3.06.66-4.42,1.57-1.2,1.33-2.85,1.88-4,3.31-.68,2.93-3.14,1.92-4.6,4a10.38,10.38,0,0,0-1.41,3.8c-.68,1.61-3,1.93-3.37,3.84.86,3.81-2.8,5.17-.44,9.4,1.36,2.09-1.78,3.88-.44,6.06.26,1,1.65,1.63,1,2.73a19.49,19.49,0,0,0,.72,11.21c-.67,3.42-.82,6.69.6,10,.13,1.52-1.34,2.85-.55,4.31,1.13,1.21-.11,2.55,0,3.91.06.63.66,1.16.3,1.78a4.52,4.52,0,0,0,1.24,3.9c.34.74-.39,1.51-.58,2.21-.47,1.65.54,3.36,1.27,4.76.24.91-.79,1.57-.64,2.52.13,1.34,1.59,2,2.75,2.11h0c.41,0,.57.41.92.48h0s0,0,0,0h0c.76.28.68,1.21,1.13,1.75a4.37,4.37,0,0,0,6,1.16,7.88,7.88,0,0,0,1.54.27,4.53,4.53,0,0,0,6.56-1c0-.07.1-.09.13,0,1.66.25,3.7,0,4.24-1.87.16-.92,1.15-1.55.95-2.56.27-.45.49-1.23.15-1.61,1.12-.6.53-2.3-.57-2.59,2.07-1.77-.56-2-.47-4,1.18-1.18.78-2.68-.36-3.76-.11-.93-.21-1.87-.32-2.81,1.72-2.3,1.39-6.16-.19-8.45l.17-.18a3.7,3.7,0,0,0,2.22-.26c.93-.26,1.77.74,2.71.77h.12a3.63,3.63,0,0,0,1.45-.27h0c.05,0,.11,0,.16-.07h0c.34-.2.75-.3,1.08-.54h0c.37-.19.5-.72.75-1l.43,0c.93,1.71,2.28.75,3.27-.19a13.61,13.61,0,0,0,2.64.32l.06,0h0a13.86,13.86,0,0,0,3.7-2.24h0a.68.68,0,0,0,.28-.46l.48-.23c1.56.28,3.92,0,4.62-1.61.27-.62.58-1.41,1.34-1.51s2.55-.23,2.09-1.51l.56-.41A1.19,1.19,0,0,0,284,57c3.67-.94,4.18-2.57,5.4-5.73.7-.83,2.07-1.08,2.3-2.24-.55-2,.79-1.91,1.47-3.37.16-.4-.06-1,0-1.36a2.88,2.88,0,0,0,.25-2.39C293.35,41.27,292.44,41,292.61,40.18Zm-38.85,7.2a9.68,9.68,0,0,0-1.93-.22c.82-1.49.37-3.13-.17-4.58.58-1.66,1.54-3.95.56-5.59a.86.86,0,0,1,0-.44c.31-3.58,2.58-1.24,3.5-4.65a2.67,2.67,0,0,1,3.42-.92c1.86,0,3.67.59,5.54.55,4.16.64,2,5.84,4.53,8.16,0,1.74-1.75,2.25-2.24,3.63-.09.54-.28,1.08-.92,1.23a2.21,2.21,0,0,0-1.92,1.14c-.23.29-.29.22-.61.24a6.38,6.38,0,0,0-3.16,1.93c-2.17.08-4.31-2.48-6.64-.48Zm19.53,16.89h0Z"/></clipPath><clipPath id="clip-path-5"><path class="cls-1" d="M402.6,41.24a4.44,4.44,0,0,0-.34-5.9,8.93,8.93,0,0,0-.26-1.27,9.28,9.28,0,0,0,.57-3,0,0,0,0,1,0,0c0-1.13-.84-1.93-1.18-2.92A9.37,9.37,0,0,0,400,22.56h0s0,0,0,0a5.17,5.17,0,0,0-.48-.57,0,0,0,0,0,0,0c-4.59-2.62-3-7-8.11-7.84-3.12-4.73-8.75-4.44-13.68-4.89h0c-3.4-1.89-7.06-1.71-10.59-.45-1.75.13-3.45-1.31-5.08-.29h0c-1.3,1.08-3,.3-4.46,1-1.31,1.15-3,1.5-4.23,2.75-1,2.76-3.25,1.51-4.9,3.39a10,10,0,0,0-1.79,3.52c-.85,1.48-3.12,1.53-3.7,3.34.41,3.78-3.29,4.69-1.47,9,1.07,2.18-2.16,3.56-1.11,5.81.14,1,1.41,1.77.64,2.75A19,19,0,0,0,340.43,51c-1,3.23-1.55,6.38-.54,9.7,0,1.49-1.62,2.6-1,4.1,1,1.31-.39,2.46-.45,3.78,0,.62.5,1.2.09,1.76a4.42,4.42,0,0,0,.76,3.91c.24.76-.54,1.42-.81,2.07-.64,1.55.14,3.32.69,4.75.13.91-.94,1.44-.9,2.37,0,1.31,1.31,2.16,2.43,2.35h0c.39,0,.5.46.84.56,0,0,0,0,0,0h0c.7.35.53,1.24.9,1.82A4.25,4.25,0,0,0,348.13,90a7.8,7.8,0,0,0,1.47.43,4.41,4.41,0,0,0,6.45-.24c.05-.06.11-.07.13,0,1.58.42,3.58.4,4.31-1.34.27-.88,1.29-1.37,1.21-2.37.31-.41.61-1.13.32-1.54,1.16-.46.78-2.17-.26-2.57,2.2-1.48-.32-2,0-3.9,1.27-1,1.06-2.51.07-3.68,0-.92,0-1.84,0-2.76,1.93-2,2-5.8.77-8.2.06,0,.12-.1.18-.15a3.6,3.6,0,0,0,2.18,0c.93-.14,1.63.91,2.54,1.05h0s.07,0,.09,0a3.46,3.46,0,0,0,1.43-.1h0c.06,0,.11,0,.17-.06h0a9.28,9.28,0,0,0,1.11-.41h0c.38-.15.56-.64.84-.92l.42.07c.7,1.76,2.11,1,3.18.19a13.22,13.22,0,0,0,2.52.6h.09a13.58,13.58,0,0,0,3.83-1.76h0a.67.67,0,0,0,.33-.41l.49-.17c1.47.44,3.79.45,4.65-1,.33-.58.72-1.3,1.46-1.32s2.5.07,2.19-1.22l.6-.33a1.16,1.16,0,0,0,1.48-1.3c3.65-.5,4.33-2,5.87-4.95.77-.72,2.11-.81,2.47-1.9-.31-2,1-1.76,1.8-3.1.2-.37.05-1,.17-1.31a2.81,2.81,0,0,0,.51-2.28C403.19,42.38,402.34,42,402.6,41.24Zm-38.4,2.6a10.47,10.47,0,0,0-1.84-.43c1-1.35.71-3,.35-4.44.75-1.54,1.93-3.66,1.17-5.35a.76.76,0,0,1,.08-.43c.71-3.42,2.64-.91,3.91-4.1a2.61,2.61,0,0,1,3.42-.51c1.79.25,3.48,1,5.29,1.16,3.95,1.08,1.25,5.87,3.47,8.4-.16,1.69-1.94,2-2.58,3.26-.14.52-.39,1-1,1.09a2.19,2.19,0,0,0-2,.88c-.25.26-.31.18-.62.17a6.18,6.18,0,0,0-3.26,1.51c-2.12-.16-3.9-2.88-6.38-1.2Zm17,18.54Z"/></clipPath><clipPath id="clip-path-6"><path class="cls-1" d="M423,27.53a4.18,4.18,0,0,0,.23.36c-4.05,6.73-.59,8.17-4.34,14.45-.35,1,.07,2,.08,3.06,0,1.63-2.8,2.34-1.78,4.11.66,1.35-1.73,2-1,3.41.14.41-.15.42-.36.69a3.07,3.07,0,0,0,0,3.25c-1.13,2.28-2.1,2.89-.36,5.6a2.09,2.09,0,0,0,0,.62c-1.08,2.69,2.71,5.84,5.22,4.39a14.58,14.58,0,0,0,1.89,1,4.1,4.1,0,0,0,5.6,2c1.26.62,3.26,1.39,3.74-.51a2,2,0,0,0,2.21-1.4,2.91,2.91,0,0,0,2.05-3.19c2.56-4,2.55-2.65,2.66-7.51,1.5-.84,2.77-2.23,1.58-4,3.29-4.91,2.45-5,3.3-10.6,2.87-1.83,2.28-3.67,2.68-6.4,1.08-1.49,2.45-1.46,1.82-3.7.33-.95,1.89-1.23,1.46-2.51-.08-.43.22-.42.44-.72a2.74,2.74,0,0,0-.31-3.29c-.18-.57.64-.93,1-1.23a3.44,3.44,0,0,0,.06-4.61,1.6,1.6,0,0,1,.05-.21c2.35-.35,1.71-3.48,0-4.33a10.29,10.29,0,0,1-3.93-4.06c-3-.47-1.87,1.47-3.95-2-.78-.91-1.88-.6-2.85-.55-.53-1.12-1.71-.22-2.67-.68-1.19-.53-1.7,1-2.77.82-1.83-2.61-7-1.32-6.54,2.06a3.08,3.08,0,0,0-1.44,2.47c-.1.71.54,1.41.14,2.08-1,.87-2.43,1.32-2.88,2.74a4.07,4.07,0,0,0,.22,2.89C425.66,24.35,421.4,24.9,423,27.53Z"/></clipPath><clipPath id="clip-path-7"><path class="cls-1" d="M433.87,87.49s0,0,0,0c.14-1.09-.51-2-.47-3,.45-1.75,1.69-3.67-.81-4.66a2.85,2.85,0,0,0-.53-1.17c.5-4-3.31-4.89-6.07-5.95-2-.58-3.73-2.8-6.05-2.05-2.69,2.11-4.55-.72-6.07,1.23-.65,1.07-2.15.27-3,1.08-.37.24-.46.87-.75,1.12a2.57,2.57,0,0,0-1.46,3.26,2.62,2.62,0,0,0-.74,1.27c-1.83,1-1.06,3.11-1.26,4.72-1.41.48-.59,1.79-.26,2.72-.68,1.75-.66,4.69,1.93,4.59.13.26.27.5.42.75-1,1.35.45,2.08,1.56,2.35a3.06,3.06,0,0,0,4.54,2.64c.34.22.95.19,1.19.49a13.72,13.72,0,0,1,2.1.43c1,1.86,2.77,1.75,4.23.6.91-.33,3,.64,2.84-1.11a5.46,5.46,0,0,0,.55-.43.92.92,0,0,0,1.32-1,6.14,6.14,0,0,0,1.17-.85,3.42,3.42,0,0,0,3-3C432.37,90.4,433.73,89.14,433.87,87.49Z"/></clipPath><image id="image" width="266" height="350" xlink:href="included_images/letters/letter_P.jpg"/><image id="image-2" width="110" height="350" xlink:href="included_images/symbol/symbol_exclamation%202.16.43%20PM.jpg"/></defs><g class="swinging cls-2"><image width="270" height="350" transform="matrix(0.23, 0.06, -0.06, 0.23, 138.81, 2.79)" xlink:href="included_images/letters/letter_H_pink.jpg"/></g><g class="swinging cls-3"><image width="319" height="350" transform="translate(54.39 9.79) scale(0.24 0.24)" xlink:href="included_images/letters/letter_N_pink.jpg"/></g><g class="swinging cls-4"><image width="265" height="350" transform="matrix(0.24, -0.04, 0.04, 0.24, -4.94, 17.76)" xlink:href="included_images/letters/letter_P_pink.jpg"/></g><g id="p"><g class="swinging cls-5"><use transform="matrix(0.25, -0.02, 0.02, 0.25, 225.5, 12.33)" xlink:href="#image"/></g></g><g id="p-2" data-name="p"><g class="swinging cls-6"><use transform="matrix(0.24, 0.01, -0.01, 0.24, 340.79, 6.77)" xlink:href="#image"/></g></g><g id="_" data-name="!"><g class="swinging cls-7"><use transform="translate(428.2 5.57) rotate(16.66) scale(0.26)" xlink:href="#image-2"/></g><g class="swinging cls-8"><use transform="translate(428.2 5.57) rotate(16.66) scale(0.26)" xlink:href="#image-2"/></g></g>
<g id="balloon-star">
	<defs>
		<path id="SVGID_00000028305425666061935500000012409504282194747824_" d="M345.8,25.9c-0.6,0.8-1.3,1.6-2,2.4
			c-2.5,2.8-5,5.7-7.6,8.5c-0.1,0.1-0.3,0.3-0.4,0.4c-0.6,0.7-1.2,1.5-1.8,2.2c-0.3,0.4-0.6,0.9-0.8,1.4c0,0.7,0.5,1,1,1.2
			c1.7,0.9,3.4,1.8,5.1,2.6c1,0.5,2.1,1.1,3.1,1.7c0.6,0.4,0.7,0.7,0.5,1.2c-0.1,0.1-0.2,0.2-0.3,0.3c-0.4,0.2-0.9,0.5-1.3,0.7
			c-0.8,0.3-1.5,0.7-2.3,1c-1,0.4-2,0.8-2.9,1.1c-0.1,0-0.2,0-0.3,0c-0.2,0.1-0.4,0.1-0.6,0.2c-0.4,0.2-0.9,0.4-1.3,0.7
			c-0.3,0.2-0.5,0.5-0.8,0.7c0.4,1.3,1.4,2.2,2.2,3.2c2.3,2.9,4.7,5.8,7,8.7c0.8,1,1.7,2.1,2.5,3.2c0.2,0.3,0.4,0.7,0.5,1
			c0.1,0.3,0,0.6,0,0.9c0,0-0.1,0.1-0.1,0.1c-0.3,0-0.6,0.1-0.8,0c-1.1-0.4-2.2-0.8-3.2-1.2c-2.7-1.2-5.3-2.4-8-3.6
			c-1.4-0.6-2.8-1.2-4.2-1.8c-0.3-0.1-0.6-0.2-1-0.4c-0.5-0.1-1.1-0.1-1.6-0.2c0,0,0,0.1,0,0.1c0.1,2.5,0.2,5,0.3,7.4
			c0,0.7,0,1.4-0.5,2c-0.2,0.1-0.5,0.2-0.7,0.3c-0.7-0.4-1.5-0.8-2.2-1.2c-1.5-1-2.9-2-4.4-3c-0.5-0.3-1-0.6-1.5-0.8
			c-0.3-0.1-0.8-0.1-1.2-0.1c-0.1,0.1-0.1,0.2-0.2,0.3c-0.6,2.6-1.3,5.2-1.9,7.8c-0.7,2.8-1.3,5.6-2,8.4c-0.2,0.7-0.5,1.4-0.7,2.2
			c-0.2,0.4-0.4,0.8-0.6,1.2c-0.2,0.4-0.4,0.4-0.7,0c-0.1-0.2-0.2-0.4-0.3-0.6c-0.2-0.7-0.4-1.4-0.6-2.1c-0.4-1.5-0.8-3-1.1-4.5
			c-0.2-0.7-0.3-1.5-0.5-2.2c-0.4-1.7-0.8-3.3-1.2-5c-0.3-1.2-0.6-2.4-0.9-3.6c-0.3-0.9-0.7-1.7-1-2.6c-0.1-0.1-0.1-0.1-0.2-0.2
			c-0.6-0.2-1.2,0-1.8,0.3c-1.7,0.9-3.4,1.8-5.1,2.7c-0.4,0.2-0.9,0.5-1.4,0.6c-0.2,0.1-0.5-0.1-0.8-0.1c-0.1-0.3-0.2-0.6-0.2-0.9
			c0-0.9,0-1.8,0.1-2.7c0-1.5,0.1-3,0.1-4.6l-0.4-0.9c-0.5-0.3-1.1-0.2-1.7,0c-2.5,0.8-5.1,1.6-7.6,2.5c-1.6,0.5-3.3,1.1-4.9,1.6
			c-0.5,0.1-1.1,0.1-1.6,0.1c0,0,0-0.1,0-0.1c0,0,0,0,0,0c0.3-0.5,0.7-1,1-1.5c0.9-1.2,1.9-2.4,2.8-3.6c1.3-1.6,2.6-3.2,3.9-4.9
			c0.7-0.8,1.3-1.7,2-2.6c0.1-0.4,0.2-0.8,0.3-1.2c-0.1-0.2-0.1-0.3-0.2-0.5c-0.5-0.4-1.1-0.8-1.6-1.2c-1.8-1-3.7-2-5.5-3
			c-0.3-0.2-0.5-0.4-0.8-0.6c-0.3-0.3-0.2-0.5,0.1-0.6c0.3-0.2,0.5-0.5,0.8-0.7c1.9-0.9,3.7-1.7,5.6-2.6c0.3-0.2,0.7-0.3,1-0.5
			c0.1,0,0.1-0.1,0.2-0.1c0.4-0.7,0.1-1.3-0.2-1.9c-0.5-0.7-1-1.4-1.4-2.1c-1.9-2.4-3.8-4.8-5.6-7.2c-0.6-0.7-1.1-1.4-1.7-2.1
			c-0.1-0.1-0.1-0.2-0.2-0.3c-0.4-0.6-0.8-1.1-1.2-1.7v-0.1c0-0.1-0.1-0.2-0.1-0.3c-0.2-0.3-0.1-0.6,0.3-0.7c0.4-0.1,0.8-0.1,1.1,0
			c1.5,0.5,2.9,1,4.3,1.6c2.2,0.9,4.3,1.9,6.5,2.7c1.4,0.6,2.9,1,4.4,1.5c0-0.2,0.1-0.5,0.1-0.7c-0.1-1.5-0.2-3.1-0.2-4.6
			c0-0.5,0-0.9,0-1.4c0-0.8,0-1.7,0-2.5c0.2-0.5,0.7-0.8,1.3-0.5c0.9,0.4,1.8,0.8,2.7,1.3c1.5,0.9,2.9,1.9,4.4,2.8
			c0.4,0.3,0.9,0.4,1.4,0.5c0,0,0.1-0.1,0.1-0.1c0.1-0.4,0.3-0.8,0.4-1.2c0.5-2.2,1.1-4.4,1.6-6.6c0.7-3,1.3-6,1.9-9
			c0-0.1,0-0.1,0.1-0.2c0.3-1.2,0.6-2.5,0.9-3.7c0-0.1,0.1-0.1,0.1-0.2c0.1-0.2,0.2-0.3,0.2-0.5c0.1-0.1,0.1-0.1,0.2-0.2
			c0.1-0.2,0.2-0.4,0.3-0.6c0.4-0.1,0.6,0.2,0.7,0.5c0.3,0.8,0.7,1.7,0.9,2.5c1.3,5.4,2.5,10.8,3.8,16.2c0.2,0.9,0.6,1.8,0.9,2.7
			c0.5,0.6,1.1,0.6,1.8,0.2c0.3-0.2,0.7-0.4,1-0.5l5.2-3.2c0.5-0.2,1-0.5,1.5-0.7c0.6-0.2,0.9,0,0.9,0.6c0,0.9,0,1.9,0,2.8
			c-0.1,1.9-0.2,3.8-0.2,5.7c0,0.9,0.3,1.2,1.2,1.1c0.6,0,1.1-0.2,1.7-0.4c1.2-0.4,2.4-0.8,3.6-1.2c0.3-0.1,0.6-0.2,0.9-0.2
			c1.6-0.6,3.1-1.2,4.7-1.8c2-0.7,3.9-1.5,5.9-2.2c0.2-0.1,0.5-0.1,0.7-0.2h0.9c-0.1,0.2-0.2,0.3-0.3,0.5
			C346.2,25.6,345.9,25.8,345.8,25.9z"/>
	</defs>
	<clipPath id="SVGID_00000160172333784749929500000002596824865717596323_">
		<use xlink:href="#SVGID_00000028305425666061935500000012409504282194747824_"  style="overflow:visible;"/>
	</clipPath>
	
		<g transform="matrix(1 0 0 1 0 1.192093e-07)" style="clip-path:url(#SVGID_00000160172333784749929500000002596824865717596323_);">
		
			<image style="overflow:visible;" width="400" height="495" xlink:href="../included_images/medallion_pink.jpg"  transform="matrix(0.1834 0 0 0.1834 275.4832 -1.5851)">
		</image>
	</g>
</g>

</svg>