<?xml version="1.0" encoding="UTF-8"?><svg id="uuid-3d016947-c4a7-4cf4-862b-5eb08b598ff9" xmlns="http://www.w3.org/2000/svg" xmlns:xlink="http://www.w3.org/1999/xlink" viewBox="0 0 921.6 412.48"><defs><style>.uuid-88493a5b-c700-4589-ab0d-fa47aaf75e72{fill:none;}.uuid-3f8a6f13-9907-45da-a3f8-04e2e5c66f7b{clip-path:url(#uuid-40a6dfaf-5953-46e7-af02-efdf250315cc);}</style><clipPath id="uuid-40a6dfaf-5953-46e7-af02-efdf250315cc"><path class="uuid-88493a5b-c700-4589-ab0d-fa47aaf75e72" d="M22.19,259.75c6.02-6.02,13.04-11.03,20.8-14.76,3.19-1.54,6.51-2.85,9.94-3.94,5.54-1.75,10.4-4.88,14.18-8.98,2.99-3.24,5.29-7.11,6.68-11.3,1.51-4.56,1.7-9.45,2.46-14.17,.34-2.09,.71-4.18,1.12-6.25,.86-4.34,1.87-8.62,3.03-12.83,1.56-5.65,3.39-11.18,5.48-16.59,15.09-39.04,43.58-71.4,79.83-91.44,25.43-14.07,54.68-22.07,85.8-22.07,1.65,0,3.29,.02,4.92,.07,18.76,.51,36.79,3.93,53.65,9.83,6.56,2.29,12.94,4.96,19.12,7.97,1.71,.83,3.46,1.55,5.22,2.15,4.99,1.69,10.17,2.46,15.31,2.35,12.03-.27,23.8-5.36,32.3-14.67,7.76-8.49,16.24-16.31,25.35-23.36C441.18,15.59,483.61,0,529.69,0c8.63,0,17.12,.55,25.45,1.62,32.09,4.13,61.71,15.95,87.17,33.46,7.5,5.16,14.63,10.81,21.37,16.9,8.55,7.73,16.45,16.18,23.61,25.24,5.04,6.37,9.71,13.04,13.99,19.98,2.67,4.33,5.65,7.96,8.87,11.01,10.23,9.7,22.88,13.49,35.8,14.78,15.48,1.55,31.33-.47,43.84-.21,2.04,.04,4.07,.13,6.09,.26,22.29,1.46,43.17,8.35,61.26,19.36,4.04,2.46,7.94,5.12,11.69,7.98,1.51,1.15,3,2.33,4.46,3.55,4.29,3.56,8.35,7.37,12.16,11.42,5.12,5.44,9.79,11.31,13.95,17.54,13.86,20.77,22.02,45.6,22.2,72.29,.02,2.43-.03,4.85-.15,7.24-.02,.44-.04,.89-.07,1.33-1.82,31.97-14.99,60.9-35.53,82.83-6.81,7.27-14.44,13.78-22.73,19.37-1.71,1.15-3.45,2.27-5.22,3.35-3.26,1.98-6.62,3.83-10.06,5.53-15.39,7.61-32.47,12.32-50.52,13.41-2.68,.16-5.38,.24-8.09,.24-23.64,0-42.34-5.73-62.16-15.4-6.63-3.23-13.38-6.9-20.48-10.95-2.63-1.5-5.24-2.88-7.83-4.11-8.97-4.28-17.66-6.82-25.93-6.55-6.94,.23-13.58,2.45-19.82,7.29-.69,.54-1.38,1.11-2.06,1.71-18.08,15.94-39.85,26.51-63.67,32.68-18.24,4.72-37.68,6.87-57.58,6.87-24.01,0-46.67-3.99-67.72-11.56-13.57-4.88-26.48-11.25-38.63-18.99-4.21-2.68-8.7-4.66-13.32-5.95-4.1-1.14-8.31-1.75-12.53-1.81-7-.11-14,1.24-20.53,4.03-4.35,1.85-8.49,4.34-12.29,7.44-7.63,6.23-15.84,11.8-24.53,16.64-22,12.27-47.08,19.94-73.5,22.07-5.01,.4-10.06,.61-15.15,.61-30.94,0-62.23-7.32-87.9-22.49-4.21-2.49-8.26-5.18-12.14-8.1-2.94-2.2-5.86-4.17-9.46-5.13-1.62-.43-3.24-.65-4.87-.69-7.37-.2-14.52,2.85-21.31,5.33-7.11,2.6-14.32,4.78-21.79,6.1-6.73,1.2-13.7,1.78-20.69,1.56-1.47-.05-2.93-.14-4.37-.27-7-.63-13.73-2.22-20.06-4.64-19.08-7.3-34.49-22.13-42.62-40.74-.12-.27-.24-.55-.36-.83C2.14,333.62,.03,323.79,0,313.51c-.02-9.91,1.85-19.37,5.28-28.05,1.92-4.86,4.34-9.48,7.18-13.79,2.11-3.21,4.47-6.24,7.03-9.09,.87-.97,1.77-1.92,2.7-2.84Z"/></clipPath></defs><g class="uuid-3f8a6f13-9907-45da-a3f8-04e2e5c66f7b"><image width="1675" height="750" transform="translate(.05 -.07) scale(.55)" xlink:href="included_images/single_layer_cloud.jpg"/></g></svg>